<svg width="455" height="87" viewBox="0 0 455 87" fill="none" xmlns="http://www.w3.org/2000/svg">
<path d="M347.064 33.476V36.444H344.936V47.252L347.764 46.972L347.96 49.66C345.683 50.052 343.284 50.3227 340.764 50.472C338.263 50.6027 335.64 50.668 332.896 50.668L332.504 47.644H335.276V36.444H333.148V33.476H347.064ZM352.608 31.208V40.7H356.22V43.752H352.608V56.408H348.856V31.208H352.608ZM341.352 47.476V36.444H338.888V47.56L341.352 47.476ZM377.165 31.18V37.004H380.497V40.056H377.165V46.272H373.441V31.18H377.165ZM369.717 32.636V40.308H361.905V42.352C364.033 42.3333 365.834 42.2773 367.309 42.184C368.802 42.072 370.295 41.876 371.789 41.596L372.125 44.564C370.482 44.8813 368.802 45.096 367.085 45.208C365.367 45.3013 363.118 45.348 360.337 45.348H358.209V37.536H366.021V35.632H358.153V32.636H369.717ZM368.877 46.804C371.527 46.804 373.609 47.224 375.121 48.064C376.651 48.904 377.417 50.08 377.417 51.592C377.417 53.104 376.651 54.28 375.121 55.12C373.609 55.9787 371.527 56.408 368.877 56.408C366.226 56.408 364.135 55.9787 362.605 55.12C361.093 54.28 360.337 53.104 360.337 51.592C360.337 50.08 361.093 48.904 362.605 48.064C364.135 47.224 366.226 46.804 368.877 46.804ZM368.877 49.604C365.61 49.604 363.977 50.2667 363.977 51.592C363.977 52.936 365.61 53.608 368.877 53.608C372.143 53.608 373.777 52.936 373.777 51.592C373.777 50.2667 372.143 49.604 368.877 49.604ZM402.785 31.208V56.408H399.033V31.208H402.785ZM396.513 33.476V36.444H394.357V47.252C395.123 47.196 396.149 47.0933 397.437 46.944L397.661 49.632C395.309 50.0427 392.883 50.3133 390.381 50.444C387.88 50.5747 385.099 50.6493 382.037 50.668L381.701 47.644H384.501V36.444H382.345V33.476H396.513ZM390.773 47.476V36.444H388.085V47.56L390.773 47.476ZM426.81 33.336V36.248C426.81 38.656 426.745 40.756 426.614 42.548C426.483 44.34 426.147 46.468 425.606 48.932L421.938 48.596C422.367 46.748 422.675 44.8907 422.862 43.024L408.526 43.752L408.078 40.756L423.058 40.28C423.095 39.3653 423.114 38.0493 423.114 36.332H408.806V33.336H426.81ZM429.05 50.388V53.468H406.258V50.388H429.05ZM444.227 33.14V45.404H431.991V33.14H444.227ZM435.659 36.08V42.436H440.587V36.08H435.659ZM451.675 31.208V49.1H447.951V31.208H451.675ZM438.599 47.476V52.908H452.319V55.876H434.847V47.476H438.599Z" fill="white"/>
<path d="M3.016 19.414C3.016 18.6793 3.26733 18.2153 3.77 18.022C4.27267 17.8287 4.698 17.9447 5.046 18.37C6.01267 18.0993 7.134 17.8287 8.41 17.558C9.686 17.2873 10.7687 17.2487 11.658 17.442C11.9287 17.442 12.1993 17.4807 12.47 17.558C12.7793 17.5967 12.934 17.8867 12.934 18.428C12.934 19.3173 12.9727 20.284 13.05 21.328C13.1273 22.3333 13.166 23.3387 13.166 24.344C13.3593 25.272 13.4173 26.2193 13.34 27.186C13.3013 28.1527 13.3013 29.1387 13.34 30.144C15.428 29.448 17.6127 29.2353 19.894 29.506C22.214 29.738 24.36 30.608 26.332 32.116C27.5307 33.0053 28.478 34.0493 29.174 35.248C29.9087 36.408 30.4693 37.6647 30.856 39.018C31.2813 40.3327 31.5713 41.7053 31.726 43.136C31.8807 44.5667 32.016 45.9587 32.132 47.312C32.2093 49.98 31.7453 52.242 30.74 54.098C29.7347 55.9153 28.3813 57.4233 26.68 58.622C25.0173 59.782 23.084 60.6327 20.88 61.174C18.676 61.7153 16.4333 62.0053 14.152 62.044C12.2573 62.0827 10.3047 61.9667 8.294 61.696C6.322 61.4253 4.56267 61.0193 3.016 60.478C3.05467 60.3233 3.03533 60.1493 2.958 59.956C2.91933 59.724 2.88067 59.5113 2.842 59.318C2.842 59.1247 2.86133 58.9507 2.9 58.796C2.97733 58.6413 3.17067 58.5447 3.48 58.506C3.44133 52.01 3.34467 45.4947 3.19 38.96C3.074 32.4253 3.016 25.91 3.016 19.414ZM13.63 40.178C13.63 42.3433 13.6107 44.4507 13.572 46.5C13.572 48.5107 13.4753 50.618 13.282 52.822C14.4807 53.2473 15.4667 53.4407 16.24 53.402C17.3613 53.3247 18.2507 53.1507 18.908 52.88C19.5653 52.6093 20.068 52.2227 20.416 51.72C20.764 51.1787 20.9767 50.502 21.054 49.69C21.17 48.878 21.2473 47.892 21.286 46.732C21.3247 45.7653 21.2667 44.8373 21.112 43.948C20.996 43.02 20.764 42.208 20.416 41.512C20.068 40.816 19.604 40.2553 19.024 39.83C18.444 39.4047 17.7287 39.192 16.878 39.192C16.3367 39.192 15.7953 39.2887 15.254 39.482C14.7127 39.6367 14.1713 39.8687 13.63 40.178ZM36.4729 19.646C36.4729 19.0273 36.6663 18.6213 37.0529 18.428C37.4783 18.2347 37.8649 18.254 38.2129 18.486C39.2569 18.0607 40.3009 17.732 41.3449 17.5C42.4276 17.268 43.5876 17.0553 44.8249 16.862C45.2116 16.746 45.6176 16.8233 46.0429 17.094C46.5069 17.3647 46.7003 17.7707 46.6229 18.312C46.6229 19.82 46.6229 21.4247 46.6229 23.126C46.6229 24.7887 46.6229 26.49 46.6229 28.23C46.6229 29.97 46.6229 31.6907 46.6229 33.392C46.6229 35.0933 46.6229 36.6787 46.6229 38.148V46.964V51.198C46.8163 51.778 47.1256 52.1453 47.5509 52.3C47.9763 52.4547 48.4983 52.532 49.1169 52.532C50.5863 52.532 51.2049 53.17 50.9729 54.446C50.8956 54.91 50.8183 55.3353 50.7409 55.722C50.6636 56.1087 50.5669 56.5147 50.4509 56.94C50.3736 57.3653 50.2769 57.8293 50.1609 58.332C50.0449 58.8347 49.9289 59.434 49.8129 60.13C49.7356 60.5553 49.5616 60.884 49.2909 61.116C49.0203 61.348 48.5369 61.5027 47.8409 61.58C47.1449 61.6573 46.3523 61.6187 45.4629 61.464C44.5736 61.348 43.6843 61.174 42.7949 60.942C41.9443 60.6713 41.1709 60.4007 40.4749 60.13C39.7789 59.8207 39.2763 59.5113 38.9669 59.202C38.3869 58.622 37.9229 57.9647 37.5749 57.23C37.2656 56.4567 37.0143 55.664 36.8209 54.852C36.6663 54.0013 36.5696 53.1313 36.5309 52.242C36.4923 51.3527 36.4729 50.4633 36.4729 49.574C36.3956 47.834 36.3763 46.1133 36.4149 44.412C36.4536 42.672 36.4729 40.8933 36.4729 39.076V19.646ZM53.5875 32.812C53.5875 32.812 53.6068 32.7733 53.6455 32.696C53.4521 32.3093 53.4328 31.9033 53.5875 31.478C53.7421 31.014 54.0708 30.782 54.5735 30.782H62.8675C63.0995 30.782 63.2735 30.8013 63.3895 30.84C63.6988 30.8013 64.0081 30.898 64.3175 31.13C64.6268 31.362 64.7815 31.7487 64.7815 32.29C64.7815 34.494 64.7041 36.6593 64.5495 38.786C64.4335 40.9127 64.3755 43.078 64.3755 45.282C64.3755 46.2873 64.3755 47.2733 64.3755 48.24C64.3755 49.2067 64.5108 50.0573 64.7815 50.792C64.8975 51.5267 65.1101 52.1067 65.4195 52.532C65.7675 52.9573 66.1541 53.2667 66.5795 53.46C67.0435 53.6533 67.5268 53.75 68.0295 53.75C68.5708 53.75 69.1121 53.6727 69.6535 53.518C69.9241 49.9607 70.0981 46.442 70.1755 42.962C70.2528 39.4433 70.4075 35.886 70.6395 32.29C70.6781 32.058 70.8135 31.826 71.0455 31.594C71.1228 31.4007 71.2388 31.2267 71.3935 31.072C71.5481 30.8787 71.7801 30.782 72.0895 30.782C72.3601 30.782 72.8435 30.8013 73.5395 30.84C74.2355 30.84 74.9701 30.8593 75.7435 30.898C76.5555 30.9367 77.2901 31.014 77.9475 31.13C78.6435 31.246 79.1075 31.3813 79.3395 31.536C79.7261 31.768 79.9775 32.1353 80.0935 32.638C80.2481 33.1407 80.3448 33.682 80.3835 34.262C80.4221 34.842 80.4221 35.422 80.3835 36.002C80.3448 36.5433 80.3255 37.0073 80.3255 37.394V52.706C80.5188 53.286 80.6155 53.924 80.6155 54.62C80.6155 55.316 80.7121 55.9927 80.9055 56.65C81.3308 56.998 81.4661 57.462 81.3115 58.042C81.3115 58.274 81.2341 58.4867 81.0795 58.68C80.9248 58.8347 80.7508 58.9507 80.5575 59.028C80.5575 59.5307 80.3255 59.8593 79.8615 60.014C78.1601 60.5167 76.2268 60.9613 74.0615 61.348C71.9348 61.7733 69.7888 61.986 67.6235 61.986C65.4968 61.986 63.4475 61.696 61.4755 61.116C59.5035 60.536 57.8601 59.5113 56.5455 58.042C55.3468 56.5727 54.5541 54.9487 54.1675 53.17C53.7808 51.3527 53.5875 49.574 53.5875 47.834V32.812ZM96.0548 49.922C96.4028 50.8113 97.1375 51.4493 98.2588 51.836C99.3801 52.2227 100.598 52.4547 101.913 52.532C103.266 52.5707 104.6 52.5127 105.915 52.358C107.229 52.2033 108.254 52.01 108.989 51.778C109.298 51.7007 109.549 51.7393 109.743 51.894C109.975 52.01 110.129 52.184 110.207 52.416L110.381 52.706C110.574 53.634 110.806 54.562 111.077 55.49C111.386 56.418 111.773 57.346 112.237 58.274C112.391 58.8927 112.198 59.376 111.657 59.724C111.618 59.8013 111.56 59.8787 111.483 59.956C111.444 60.0333 111.386 60.0913 111.309 60.13C110.497 60.594 109.627 60.9613 108.699 61.232C107.809 61.5027 106.901 61.696 105.973 61.812C105.045 61.928 104.117 61.986 103.189 61.986C102.299 62.0247 101.449 62.044 100.637 62.044C97.2341 62.044 94.1021 61.116 91.2408 59.26C89.9648 58.332 88.9015 57.2493 88.0508 56.012C87.2388 54.736 86.6008 53.3827 86.1368 51.952C85.6728 50.5213 85.3635 49.0327 85.2088 47.486C85.0928 45.9393 85.0928 44.412 85.2088 42.904C85.7115 40.12 86.6395 37.626 87.9928 35.422C89.3848 33.218 91.3955 31.5167 94.0248 30.318C95.1848 29.854 96.4415 29.564 97.7948 29.448C99.1481 29.332 100.501 29.39 101.855 29.622C103.247 29.8153 104.561 30.1827 105.799 30.724C107.036 31.2267 108.119 31.884 109.047 32.696C110.091 33.74 110.883 34.9193 111.425 36.234C112.005 37.51 112.411 38.8633 112.643 40.294C112.913 41.7247 113.068 43.194 113.107 44.702C113.145 46.1713 113.165 47.602 113.165 48.994C113.165 49.458 112.952 49.7673 112.527 49.922C112.14 50.0767 111.753 50.0767 111.367 49.922H111.309H96.0548ZM95.7068 42.034C97.0601 42.034 98.3555 42.0533 99.5928 42.092C100.869 42.092 102.087 42.0727 103.247 42.034C102.937 41.2607 102.609 40.526 102.261 39.83C101.913 39.0953 101.255 38.6313 100.289 38.438C99.7088 38.2447 99.1481 38.2253 98.6068 38.38C98.1041 38.496 97.6401 38.7473 97.2148 39.134C96.8281 39.482 96.4995 39.9073 96.2288 40.41C95.9581 40.9127 95.7841 41.454 95.7068 42.034ZM130.431 22.952C130.508 22.604 130.663 22.3527 130.895 22.198C131.127 22.0047 131.378 21.908 131.649 21.908C131.726 21.908 131.784 21.908 131.823 21.908C131.861 21.8693 131.919 21.85 131.997 21.85C133.582 21.6567 135.09 21.4247 136.521 21.154C137.951 20.8833 139.575 20.748 141.393 20.748C142.669 20.748 144.041 20.806 145.511 20.922C147.019 21.038 148.488 21.2313 149.919 21.502C151.388 21.7727 152.761 22.14 154.037 22.604C155.313 23.0293 156.395 23.532 157.285 24.112C158.251 24.7693 159.063 25.62 159.721 26.664C160.378 27.6693 160.881 28.752 161.229 29.912C161.615 31.0333 161.867 32.1353 161.983 33.218C162.099 34.3007 162.099 35.248 161.983 36.06C161.867 36.872 161.77 37.6453 161.693 38.38C161.615 39.1147 161.48 39.8107 161.287 40.468C161.132 41.1253 160.861 41.7827 160.475 42.44C160.127 43.0587 159.605 43.6773 158.909 44.296C157.671 45.4947 156.337 46.4227 154.907 47.08C153.515 47.6987 152.065 48.1627 150.557 48.472C149.049 48.7427 147.483 48.9167 145.859 48.994C144.273 49.0713 142.669 49.1487 141.045 49.226C141.045 50.27 141.064 51.198 141.103 52.01C141.18 52.7833 141.238 53.5567 141.277 54.33C141.354 55.0647 141.393 55.838 141.393 56.65C141.431 57.462 141.412 58.4093 141.335 59.492C141.296 60.1493 141.18 60.7293 140.987 61.232C140.832 61.7347 140.542 62.044 140.117 62.16C139.73 62.276 139.305 62.3147 138.841 62.276C138.415 62.2373 137.99 62.1987 137.565 62.16C136.675 62.1213 135.805 62.1213 134.955 62.16C134.104 62.1987 133.253 62.2373 132.403 62.276C131.668 62.276 131.185 62.0827 130.953 61.696C130.721 61.348 130.624 61.0193 130.663 60.71C130.701 60.2847 130.701 59.7627 130.663 59.144C130.624 58.5253 130.605 58.0613 130.605 57.752C130.566 56.94 130.547 56.128 130.547 55.316C130.585 54.504 130.605 53.6727 130.605 52.822C130.605 50.2313 130.585 47.6987 130.547 45.224C130.547 42.7493 130.527 40.3133 130.489 37.916C130.489 35.48 130.469 33.044 130.431 30.608C130.431 28.1333 130.431 25.5813 130.431 22.952ZM141.741 30.84C141.779 32.2707 141.741 33.6627 141.625 35.016C141.547 36.3693 141.547 37.7613 141.625 39.192C141.779 39.192 141.992 39.2113 142.263 39.25C142.572 39.25 142.881 39.25 143.191 39.25C143.539 39.25 143.867 39.25 144.177 39.25C144.486 39.2113 144.699 39.192 144.815 39.192C145.743 39.1147 146.593 38.9407 147.367 38.67C148.179 38.3607 148.855 37.8193 149.397 37.046C150.015 36.0793 150.209 34.9967 149.977 33.798C149.822 32.9473 149.435 32.3093 148.817 31.884C148.198 31.4587 147.483 31.1687 146.671 31.014C145.859 30.8593 145.008 30.8013 144.119 30.84C143.229 30.84 142.437 30.84 141.741 30.84ZM165.863 61.754C165.438 61.754 165.129 61.5413 164.935 61.116C164.781 60.7293 164.8 60.362 164.993 60.014V33.74C164.761 33.3147 164.8 32.87 165.109 32.406C165.264 32.1353 165.477 31.9807 165.747 31.942C166.057 31.8647 166.366 31.884 166.675 32H173.635C173.867 32 174.061 32.0773 174.215 32.232C174.37 32.348 174.486 32.5027 174.563 32.696C174.989 32.928 175.143 33.2953 175.027 33.798C174.795 36.118 174.679 38.3413 174.679 40.468C174.679 42.556 174.679 44.76 174.679 47.08C174.679 47.9693 174.66 48.9553 174.621 50.038C174.583 51.1207 174.544 52.2227 174.505 53.344C174.467 54.4653 174.447 55.5673 174.447 56.65C174.447 57.694 174.486 58.6413 174.563 59.492C174.563 59.5307 174.563 59.5693 174.563 59.608C174.602 59.608 174.621 59.6273 174.621 59.666C174.815 59.782 174.95 59.956 175.027 60.188C175.105 60.42 175.105 60.652 175.027 60.884C174.989 61.116 174.892 61.3093 174.737 61.464C174.583 61.6573 174.37 61.754 174.099 61.754H165.863ZM171.837 28.694C171.219 28.81 170.542 28.8487 169.807 28.81C169.073 28.7327 168.377 28.5587 167.719 28.288C167.062 28.0173 166.463 27.6307 165.921 27.128C165.419 26.5867 165.09 25.8907 164.935 25.04C164.703 24.344 164.587 23.6093 164.587 22.836C164.626 22.024 164.761 21.27 164.993 20.574C165.264 19.8393 165.651 19.2207 166.153 18.718C166.695 18.2153 167.352 17.906 168.125 17.79C169.749 17.558 171.257 17.7707 172.649 18.428C174.08 19.0467 175.008 20.0327 175.433 21.386C175.665 22.198 175.762 22.9907 175.723 23.764C175.685 24.5373 175.511 25.2527 175.201 25.91C174.892 26.5673 174.447 27.1473 173.867 27.65C173.326 28.114 172.649 28.462 171.837 28.694ZM179.39 20.284C179.39 19.9747 179.468 19.7427 179.622 19.588C179.816 19.4333 180.028 19.3173 180.26 19.24C180.376 19.0467 180.55 18.9113 180.782 18.834C182.02 18.37 183.238 18.0027 184.436 17.732C185.674 17.4227 187.027 17.152 188.496 16.92C188.96 16.7653 189.386 16.8427 189.772 17.152C190.159 17.4227 190.352 17.8287 190.352 18.37C190.352 21.9273 190.352 25.388 190.352 28.752C190.391 32.116 190.507 35.5573 190.7 39.076C191.667 38.032 192.595 36.9687 193.484 35.886C194.374 34.8033 195.244 33.682 196.094 32.522C196.288 32.1353 196.52 31.768 196.79 31.42C197.1 31.072 197.486 30.898 197.95 30.898C199.652 30.898 201.411 30.9173 203.228 30.956C205.046 30.9947 206.728 31.0527 208.274 31.13C208.352 31.13 208.429 31.1493 208.506 31.188C208.661 31.2653 208.738 31.4007 208.738 31.594C208.854 32.174 208.777 32.754 208.506 33.334C208.274 33.8753 207.926 34.3973 207.462 34.9C207.037 35.4027 206.554 35.886 206.012 36.35C205.51 36.7753 205.084 37.162 204.736 37.51C203.538 38.7473 202.32 40.0427 201.082 41.396C199.884 42.7107 198.84 43.8707 197.95 44.876C197.796 45.0693 197.699 45.1853 197.66 45.224C198.124 45.7267 198.608 46.2873 199.11 46.906C199.652 47.5247 200.193 48.1627 200.734 48.82C201.314 49.4387 201.875 50.0767 202.416 50.734C202.996 51.3527 203.557 51.9327 204.098 52.474C205.026 53.6727 205.974 54.7747 206.94 55.78C207.946 56.7853 208.816 57.8873 209.55 59.086C210.014 59.55 210.092 59.9947 209.782 60.42C209.473 60.8067 209.086 61 208.622 61C207.23 61 205.78 61 204.272 61C202.764 61.0387 201.237 61.116 199.69 61.232C199.497 61.4253 199.265 61.5413 198.994 61.58C198.724 61.6187 198.492 61.5413 198.298 61.348L196.964 59.318C195.998 57.926 195.012 56.5533 194.006 55.2C193.04 53.8467 191.996 52.5707 190.874 51.372V59.55C190.874 59.8207 190.758 60.072 190.526 60.304C190.488 60.6133 190.391 60.884 190.236 61.116C190.082 61.348 189.83 61.464 189.482 61.464C188.013 61.232 186.679 61.116 185.48 61.116C184.32 61.116 183.006 61.232 181.536 61.464C181.072 61.464 180.744 61.29 180.55 60.942C180.241 60.71 180.086 60.4007 180.086 60.014C179.854 58.3513 179.777 56.766 179.854 55.258C179.932 53.75 180.106 52.1453 180.376 50.444C180.57 49.0133 180.628 47.486 180.55 45.862C180.473 44.238 180.434 42.5753 180.434 40.874C180.434 37.4713 180.376 34.0493 180.26 30.608C180.183 27.128 179.893 23.6867 179.39 20.284ZM214.331 61.406C213.829 61.522 213.423 61.4833 213.113 61.29C212.843 61.0967 212.669 60.8453 212.591 60.536C212.475 60.3813 212.417 60.1687 212.417 59.898C212.417 55.4127 212.34 51.0433 212.185 46.79C212.031 42.5367 211.953 38.148 211.953 33.624C211.953 33.3147 212.031 33.0827 212.185 32.928L212.417 32.696C214.312 31.7293 216.207 31.014 218.101 30.55C220.035 30.086 222.045 29.854 224.133 29.854C225.1 29.854 226.067 29.8733 227.033 29.912C228 29.9507 228.909 30.0667 229.759 30.26C230.649 30.4533 231.461 30.782 232.195 31.246C232.93 31.71 233.529 32.348 233.993 33.16C234.071 33.2373 234.109 33.3147 234.109 33.392C235.617 32.7347 237.164 32.2127 238.749 31.826C240.373 31.4007 241.959 31.246 243.505 31.362C245.052 31.478 246.502 31.9227 247.855 32.696C249.209 33.4693 250.407 34.7067 251.451 36.408C252.341 38.0707 252.94 39.8107 253.249 41.628C253.597 43.4067 253.771 45.1467 253.771 46.848V60.42C253.771 60.8453 253.597 61.1353 253.249 61.29C252.94 61.4833 252.611 61.5413 252.263 61.464C251.838 61.5413 251.393 61.5413 250.929 61.464C250.504 61.4253 250.04 61.406 249.537 61.406H244.375H244.201C243.853 61.5607 243.486 61.5413 243.099 61.348C242.713 61.1933 242.519 60.884 242.519 60.42C242.519 59.492 242.539 58.5253 242.577 57.52C242.616 56.5147 242.655 55.3547 242.693 54.04C242.771 52.7253 242.829 51.2173 242.867 49.516C242.945 47.8147 242.983 45.7653 242.983 43.368C242.983 42.904 242.829 42.3433 242.519 41.686C242.21 41.0287 241.823 40.4873 241.359 40.062C240.895 39.598 240.373 39.3467 239.793 39.308C239.252 39.2307 238.749 39.54 238.285 40.236L238.053 40.468C238.595 43.832 238.827 47.1573 238.749 50.444C238.711 53.7307 238.672 57.056 238.633 60.42C238.672 60.6133 238.633 60.8067 238.517 61C238.401 61.1933 238.247 61.3673 238.053 61.522C237.86 61.6767 237.647 61.7927 237.415 61.87C237.222 61.9473 237.048 61.9473 236.893 61.87H229.295C228.909 61.87 228.599 61.7927 228.367 61.638C228.174 61.4833 228.039 61.29 227.961 61.058C227.884 60.826 227.884 60.594 227.961 60.362C228.039 60.13 228.193 59.9367 228.425 59.782V48.066C228.309 47.37 228.193 46.4807 228.077 45.398C228 44.2767 227.787 43.252 227.439 42.324C227.091 41.396 226.531 40.7193 225.757 40.294C225.023 39.8687 223.94 39.9847 222.509 40.642V59.898C222.509 60.478 222.335 60.884 221.987 61.116C221.678 61.348 221.369 61.4253 221.059 61.348C219.899 61.116 218.778 61 217.695 61C216.613 61 215.491 61.1353 214.331 61.406ZM259.85 61.754C259.424 61.754 259.115 61.5413 258.922 61.116C258.767 60.7293 258.786 60.362 258.98 60.014V33.74C258.748 33.3147 258.786 32.87 259.096 32.406C259.25 32.1353 259.463 31.9807 259.734 31.942C260.043 31.8647 260.352 31.884 260.662 32H267.622C267.854 32 268.047 32.0773 268.202 32.232C268.356 32.348 268.472 32.5027 268.55 32.696C268.975 32.928 269.13 33.2953 269.014 33.798C268.782 36.118 268.666 38.3413 268.666 40.468C268.666 42.556 268.666 44.76 268.666 47.08C268.666 47.9693 268.646 48.9553 268.608 50.038C268.569 51.1207 268.53 52.2227 268.492 53.344C268.453 54.4653 268.434 55.5673 268.434 56.65C268.434 57.694 268.472 58.6413 268.55 59.492C268.55 59.5307 268.55 59.5693 268.55 59.608C268.588 59.608 268.608 59.6273 268.608 59.666C268.801 59.782 268.936 59.956 269.014 60.188C269.091 60.42 269.091 60.652 269.014 60.884C268.975 61.116 268.878 61.3093 268.724 61.464C268.569 61.6573 268.356 61.754 268.086 61.754H259.85ZM265.824 28.694C265.205 28.81 264.528 28.8487 263.794 28.81C263.059 28.7327 262.363 28.5587 261.706 28.288C261.048 28.0173 260.449 27.6307 259.908 27.128C259.405 26.5867 259.076 25.8907 258.922 25.04C258.69 24.344 258.574 23.6093 258.574 22.836C258.612 22.024 258.748 21.27 258.98 20.574C259.25 19.8393 259.637 19.2207 260.14 18.718C260.681 18.2153 261.338 17.906 262.112 17.79C263.736 17.558 265.244 17.7707 266.636 18.428C268.066 19.0467 268.994 20.0327 269.42 21.386C269.652 22.198 269.748 22.9907 269.71 23.764C269.671 24.5373 269.497 25.2527 269.188 25.91C268.878 26.5673 268.434 27.1473 267.854 27.65C267.312 28.114 266.636 28.462 265.824 28.694ZM275.465 61.986C275.117 61.986 274.846 61.87 274.653 61.638C274.498 61.406 274.401 61.1547 274.363 60.884C274.131 60.7293 274.015 60.4393 274.015 60.014C274.247 55.722 274.382 51.4107 274.421 47.08C274.459 42.7107 274.479 38.3607 274.479 34.03C274.285 33.45 274.459 32.9667 275.001 32.58C276.934 31.5747 278.945 30.9173 281.033 30.608C283.159 30.2987 285.325 30.144 287.529 30.144C289.501 30.144 291.395 30.3373 293.213 30.724C295.069 31.1107 296.712 32.0193 298.143 33.45C298.761 34.1847 299.225 34.9967 299.535 35.886C299.883 36.7753 300.134 37.7033 300.289 38.67C300.443 39.598 300.521 40.526 300.521 41.454C300.559 42.382 300.579 43.2713 300.579 44.122C300.811 47.022 300.888 49.806 300.811 52.474C300.733 55.142 300.811 57.81 301.043 60.478C301.043 60.826 300.927 61.0967 300.695 61.29C300.463 61.4833 300.192 61.58 299.883 61.58C299.689 61.8507 299.419 61.986 299.071 61.986H293.851C293.464 61.986 293.174 61.8507 292.981 61.58C292.671 61.58 292.401 61.4833 292.169 61.29C291.975 61.0967 291.879 60.826 291.879 60.478V47.022C291.879 46.558 291.859 46.036 291.821 45.456C291.821 44.876 291.782 44.296 291.705 43.716C291.666 43.136 291.589 42.5947 291.473 42.092C291.357 41.5507 291.183 41.106 290.951 40.758C290.68 40.2553 290.293 39.9267 289.791 39.772C289.288 39.6173 288.727 39.5593 288.109 39.598C287.529 39.6367 286.929 39.7333 286.311 39.888C285.692 40.004 285.131 40.12 284.629 40.236C284.629 43.6387 284.667 47.0027 284.745 50.328C284.822 53.6533 284.861 56.882 284.861 60.014C284.861 60.4007 284.783 60.71 284.629 60.942C284.474 61.174 284.3 61.3287 284.107 61.406L283.991 61.522C283.449 61.754 282.869 61.8893 282.251 61.928C281.632 61.9667 281.071 61.986 280.569 61.986H275.465Z" fill="#333333"/>
</svg>
