<svg width="408" height="52" viewBox="0 0 408 52" fill="none" xmlns="http://www.w3.org/2000/svg">
<mask id="path-1-outside-1_2138_87" maskUnits="userSpaceOnUse" x="0" y="0" width="408" height="52" fill="black">
<rect fill="white" width="408" height="52"/>
<path d="M31.2434 23.5622C30.2891 20.8162 29.1581 18.8904 27.8503 17.7849C26.5426 16.6437 25.0227 16.0731 23.2909 16.0731C22.584 16.0731 21.7534 16.1623 20.7991 16.3406C18.9611 16.8399 17.6711 18.1772 16.9288 20.3526C16.1866 22.528 15.8155 24.7212 15.8155 26.9323C15.8155 28.1091 16.0806 29.393 16.6107 30.7838C17.1409 32.139 18.0422 33.3336 19.3146 34.3679C20.6223 35.3664 22.3012 35.8657 24.3512 35.8657C26.5779 35.8657 28.6102 35.3486 30.4482 34.3144C32.2861 33.2445 33.7706 31.9428 34.9016 30.4093L43.7024 34.4213C41.511 37.8093 38.6658 40.7157 35.1667 43.1408C31.7029 45.5658 27.868 46.8496 23.662 46.9923C17.5474 47.1349 13.0056 45.2983 10.0366 41.4825C7.10301 37.6309 5.44181 32.4064 5.05302 25.8089C5.01767 25.274 5 24.5072 5 23.5087C5 17.8027 6.50215 13.3806 9.50644 10.2424C12.5107 7.10407 17.4236 5.37446 24.2452 5.0535L25.3585 5C28.4689 5 31.1904 5.78457 33.5231 7.35371C35.8559 8.88718 37.7468 10.8843 39.196 13.345C40.6804 15.8057 41.7584 18.4803 42.43 21.369L31.2434 23.5622Z"/>
<path d="M64.5443 45.7619H51.131V5.90939H64.5443L64.4913 22.5458H75.0417L74.9886 7.08624H85.1149V45.7619H73.9813L73.2921 30.4093H64.4913L64.5443 45.7619Z"/>
<path d="M113.28 16.9825L109.94 26.8253L116.885 26.9858L113.28 16.9825ZM122.134 45.013L118.423 33.191L108.721 33.2445L104.903 45.6015H92.5505C93.5755 43.6757 95.6078 39.0039 98.6475 31.5862C101.687 24.1685 105.027 15.77 108.668 6.39083L119.112 6.97925L134.487 42.3919L122.134 45.013Z"/>
<path d="M159.705 16.5546C158.433 15.9126 156.542 15.6095 154.032 15.6452V24.5251C156.294 23.9901 158.115 23.2056 159.493 22.1714C160.907 21.1015 161.614 20.0316 161.614 18.9618C161.614 17.9989 160.978 17.1965 159.705 16.5546ZM154.032 46.2969H141.892V6.44432C144.719 6.05204 147.37 5.8559 149.844 5.8559C153.979 5.8559 157.761 6.3195 161.19 7.24672C164.653 8.13828 167.41 9.45778 169.46 11.2052C171.51 12.917 172.535 14.9319 172.535 17.25C172.535 21.3155 169.354 25.8267 162.992 30.7838L178.738 46.2969H164.954C162.692 44.0858 160.553 42.1066 158.539 40.3591C156.524 38.576 155.022 37.4705 154.032 37.0425V46.2969Z"/>
<path d="M204.766 16.9825L201.425 26.8253L208.371 26.9858L204.766 16.9825ZM213.619 45.013L209.908 33.191L200.206 33.2445L196.389 45.6015H184.036C185.061 43.6757 187.093 39.0039 190.133 31.5862C193.172 24.1685 196.513 15.77 200.153 6.39083L210.597 6.97925L225.972 42.3919L213.619 45.013Z"/>
<path d="M259.62 23.5622C258.666 20.8162 257.535 18.8904 256.227 17.7849C254.919 16.6437 253.4 16.0731 251.668 16.0731C250.961 16.0731 250.13 16.1623 249.176 16.3406C247.338 16.8399 246.048 18.1772 245.306 20.3526C244.563 22.528 244.192 24.7212 244.192 26.9323C244.192 28.1091 244.457 29.393 244.988 30.7838C245.518 32.139 246.419 33.3336 247.691 34.3679C248.999 35.3664 250.678 35.8657 252.728 35.8657C254.955 35.8657 256.987 35.3486 258.825 34.3144C260.663 33.2445 262.147 31.9428 263.278 30.4093L272.079 34.4213C269.888 37.8093 267.043 40.7157 263.544 43.1408C260.08 45.5658 256.245 46.8496 252.039 46.9923C245.924 47.1349 241.382 45.2983 238.414 41.4825C235.48 37.6309 233.819 32.4064 233.43 25.8089C233.395 25.274 233.377 24.5072 233.377 23.5087C233.377 17.8027 234.879 13.3806 237.883 10.2424C240.888 7.10407 245.801 5.37446 252.622 5.0535L253.735 5C256.846 5 259.567 5.78457 261.9 7.35371C264.233 8.88718 266.124 10.8843 267.573 13.345C269.057 15.8057 270.135 18.4803 270.807 21.369L259.62 23.5622Z"/>
<path d="M303.047 45.013H292.974V16.9825L276.221 18.0524V6.71179H317.574V15.8057L303.047 15.6987V45.013Z"/>
<path d="M321.808 6.71179H348.581V16.1801H331.881V21.9039H347.415V30.1419H331.881V34.7423H350.755V45.1735H321.808V6.71179Z"/>
<path d="M375.967 16.5546C374.694 15.9126 372.804 15.6095 370.294 15.6452V24.5251C372.556 23.9901 374.376 23.2056 375.755 22.1714C377.169 21.1015 377.876 20.0316 377.876 18.9618C377.876 17.9989 377.239 17.1965 375.967 16.5546ZM370.294 46.2969H358.153V6.44432C360.981 6.05204 363.632 5.8559 366.106 5.8559C370.241 5.8559 374.023 6.3195 377.451 7.24672C380.915 8.13828 383.672 9.45778 385.722 11.2052C387.772 12.917 388.797 14.9319 388.797 17.25C388.797 21.3155 385.616 25.8267 379.254 30.7838L395 46.2969H381.216C378.954 44.0858 376.815 42.1066 374.801 40.3591C372.786 38.576 371.284 37.4705 370.294 37.0425V46.2969Z"/>
</mask>
<path d="M31.2434 23.5622C30.2891 20.8162 29.1581 18.8904 27.8503 17.7849C26.5426 16.6437 25.0227 16.0731 23.2909 16.0731C22.584 16.0731 21.7534 16.1623 20.7991 16.3406C18.9611 16.8399 17.6711 18.1772 16.9288 20.3526C16.1866 22.528 15.8155 24.7212 15.8155 26.9323C15.8155 28.1091 16.0806 29.393 16.6107 30.7838C17.1409 32.139 18.0422 33.3336 19.3146 34.3679C20.6223 35.3664 22.3012 35.8657 24.3512 35.8657C26.5779 35.8657 28.6102 35.3486 30.4482 34.3144C32.2861 33.2445 33.7706 31.9428 34.9016 30.4093L43.7024 34.4213C41.511 37.8093 38.6658 40.7157 35.1667 43.1408C31.7029 45.5658 27.868 46.8496 23.662 46.9923C17.5474 47.1349 13.0056 45.2983 10.0366 41.4825C7.10301 37.6309 5.44181 32.4064 5.05302 25.8089C5.01767 25.274 5 24.5072 5 23.5087C5 17.8027 6.50215 13.3806 9.50644 10.2424C12.5107 7.10407 17.4236 5.37446 24.2452 5.0535L25.3585 5C28.4689 5 31.1904 5.78457 33.5231 7.35371C35.8559 8.88718 37.7468 10.8843 39.196 13.345C40.6804 15.8057 41.7584 18.4803 42.43 21.369L31.2434 23.5622Z" fill="white"/>
<path d="M64.5443 45.7619H51.131V5.90939H64.5443L64.4913 22.5458H75.0417L74.9886 7.08624H85.1149V45.7619H73.9813L73.2921 30.4093H64.4913L64.5443 45.7619Z" fill="white"/>
<path d="M113.28 16.9825L109.94 26.8253L116.885 26.9858L113.28 16.9825ZM122.134 45.013L118.423 33.191L108.721 33.2445L104.903 45.6015H92.5505C93.5755 43.6757 95.6078 39.0039 98.6475 31.5862C101.687 24.1685 105.027 15.77 108.668 6.39083L119.112 6.97925L134.487 42.3919L122.134 45.013Z" fill="white"/>
<path d="M159.705 16.5546C158.433 15.9126 156.542 15.6095 154.032 15.6452V24.5251C156.294 23.9901 158.115 23.2056 159.493 22.1714C160.907 21.1015 161.614 20.0316 161.614 18.9618C161.614 17.9989 160.978 17.1965 159.705 16.5546ZM154.032 46.2969H141.892V6.44432C144.719 6.05204 147.37 5.8559 149.844 5.8559C153.979 5.8559 157.761 6.3195 161.19 7.24672C164.653 8.13828 167.41 9.45778 169.46 11.2052C171.51 12.917 172.535 14.9319 172.535 17.25C172.535 21.3155 169.354 25.8267 162.992 30.7838L178.738 46.2969H164.954C162.692 44.0858 160.553 42.1066 158.539 40.3591C156.524 38.576 155.022 37.4705 154.032 37.0425V46.2969Z" fill="white"/>
<path d="M204.766 16.9825L201.425 26.8253L208.371 26.9858L204.766 16.9825ZM213.619 45.013L209.908 33.191L200.206 33.2445L196.389 45.6015H184.036C185.061 43.6757 187.093 39.0039 190.133 31.5862C193.172 24.1685 196.513 15.77 200.153 6.39083L210.597 6.97925L225.972 42.3919L213.619 45.013Z" fill="white"/>
<path d="M259.62 23.5622C258.666 20.8162 257.535 18.8904 256.227 17.7849C254.919 16.6437 253.4 16.0731 251.668 16.0731C250.961 16.0731 250.13 16.1623 249.176 16.3406C247.338 16.8399 246.048 18.1772 245.306 20.3526C244.563 22.528 244.192 24.7212 244.192 26.9323C244.192 28.1091 244.457 29.393 244.988 30.7838C245.518 32.139 246.419 33.3336 247.691 34.3679C248.999 35.3664 250.678 35.8657 252.728 35.8657C254.955 35.8657 256.987 35.3486 258.825 34.3144C260.663 33.2445 262.147 31.9428 263.278 30.4093L272.079 34.4213C269.888 37.8093 267.043 40.7157 263.544 43.1408C260.08 45.5658 256.245 46.8496 252.039 46.9923C245.924 47.1349 241.382 45.2983 238.414 41.4825C235.48 37.6309 233.819 32.4064 233.43 25.8089C233.395 25.274 233.377 24.5072 233.377 23.5087C233.377 17.8027 234.879 13.3806 237.883 10.2424C240.888 7.10407 245.801 5.37446 252.622 5.0535L253.735 5C256.846 5 259.567 5.78457 261.9 7.35371C264.233 8.88718 266.124 10.8843 267.573 13.345C269.057 15.8057 270.135 18.4803 270.807 21.369L259.62 23.5622Z" fill="white"/>
<path d="M303.047 45.013H292.974V16.9825L276.221 18.0524V6.71179H317.574V15.8057L303.047 15.6987V45.013Z" fill="white"/>
<path d="M321.808 6.71179H348.581V16.1801H331.881V21.9039H347.415V30.1419H331.881V34.7423H350.755V45.1735H321.808V6.71179Z" fill="white"/>
<path d="M375.967 16.5546C374.694 15.9126 372.804 15.6095 370.294 15.6452V24.5251C372.556 23.9901 374.376 23.2056 375.755 22.1714C377.169 21.1015 377.876 20.0316 377.876 18.9618C377.876 17.9989 377.239 17.1965 375.967 16.5546ZM370.294 46.2969H358.153V6.44432C360.981 6.05204 363.632 5.8559 366.106 5.8559C370.241 5.8559 374.023 6.3195 377.451 7.24672C380.915 8.13828 383.672 9.45778 385.722 11.2052C387.772 12.917 388.797 14.9319 388.797 17.25C388.797 21.3155 385.616 25.8267 379.254 30.7838L395 46.2969H381.216C378.954 44.0858 376.815 42.1066 374.801 40.3591C372.786 38.576 371.284 37.4705 370.294 37.0425V46.2969Z" fill="white"/>
<path d="M31.2434 23.5622C30.2891 20.8162 29.1581 18.8904 27.8503 17.7849C26.5426 16.6437 25.0227 16.0731 23.2909 16.0731C22.584 16.0731 21.7534 16.1623 20.7991 16.3406C18.9611 16.8399 17.6711 18.1772 16.9288 20.3526C16.1866 22.528 15.8155 24.7212 15.8155 26.9323C15.8155 28.1091 16.0806 29.393 16.6107 30.7838C17.1409 32.139 18.0422 33.3336 19.3146 34.3679C20.6223 35.3664 22.3012 35.8657 24.3512 35.8657C26.5779 35.8657 28.6102 35.3486 30.4482 34.3144C32.2861 33.2445 33.7706 31.9428 34.9016 30.4093L43.7024 34.4213C41.511 37.8093 38.6658 40.7157 35.1667 43.1408C31.7029 45.5658 27.868 46.8496 23.662 46.9923C17.5474 47.1349 13.0056 45.2983 10.0366 41.4825C7.10301 37.6309 5.44181 32.4064 5.05302 25.8089C5.01767 25.274 5 24.5072 5 23.5087C5 17.8027 6.50215 13.3806 9.50644 10.2424C12.5107 7.10407 17.4236 5.37446 24.2452 5.0535L25.3585 5C28.4689 5 31.1904 5.78457 33.5231 7.35371C35.8559 8.88718 37.7468 10.8843 39.196 13.345C40.6804 15.8057 41.7584 18.4803 42.43 21.369L31.2434 23.5622Z" stroke="#00C501" stroke-width="10" mask="url(#path-1-outside-1_2138_87)"/>
<path d="M64.5443 45.7619H51.131V5.90939H64.5443L64.4913 22.5458H75.0417L74.9886 7.08624H85.1149V45.7619H73.9813L73.2921 30.4093H64.4913L64.5443 45.7619Z" stroke="#00C501" stroke-width="10" mask="url(#path-1-outside-1_2138_87)"/>
<path d="M113.28 16.9825L109.94 26.8253L116.885 26.9858L113.28 16.9825ZM122.134 45.013L118.423 33.191L108.721 33.2445L104.903 45.6015H92.5505C93.5755 43.6757 95.6078 39.0039 98.6475 31.5862C101.687 24.1685 105.027 15.77 108.668 6.39083L119.112 6.97925L134.487 42.3919L122.134 45.013Z" stroke="#00C501" stroke-width="10" mask="url(#path-1-outside-1_2138_87)"/>
<path d="M159.705 16.5546C158.433 15.9126 156.542 15.6095 154.032 15.6452V24.5251C156.294 23.9901 158.115 23.2056 159.493 22.1714C160.907 21.1015 161.614 20.0316 161.614 18.9618C161.614 17.9989 160.978 17.1965 159.705 16.5546ZM154.032 46.2969H141.892V6.44432C144.719 6.05204 147.37 5.8559 149.844 5.8559C153.979 5.8559 157.761 6.3195 161.19 7.24672C164.653 8.13828 167.41 9.45778 169.46 11.2052C171.51 12.917 172.535 14.9319 172.535 17.25C172.535 21.3155 169.354 25.8267 162.992 30.7838L178.738 46.2969H164.954C162.692 44.0858 160.553 42.1066 158.539 40.3591C156.524 38.576 155.022 37.4705 154.032 37.0425V46.2969Z" stroke="#00C501" stroke-width="10" mask="url(#path-1-outside-1_2138_87)"/>
<path d="M204.766 16.9825L201.425 26.8253L208.371 26.9858L204.766 16.9825ZM213.619 45.013L209.908 33.191L200.206 33.2445L196.389 45.6015H184.036C185.061 43.6757 187.093 39.0039 190.133 31.5862C193.172 24.1685 196.513 15.77 200.153 6.39083L210.597 6.97925L225.972 42.3919L213.619 45.013Z" stroke="#00C501" stroke-width="10" mask="url(#path-1-outside-1_2138_87)"/>
<path d="M259.62 23.5622C258.666 20.8162 257.535 18.8904 256.227 17.7849C254.919 16.6437 253.4 16.0731 251.668 16.0731C250.961 16.0731 250.13 16.1623 249.176 16.3406C247.338 16.8399 246.048 18.1772 245.306 20.3526C244.563 22.528 244.192 24.7212 244.192 26.9323C244.192 28.1091 244.457 29.393 244.988 30.7838C245.518 32.139 246.419 33.3336 247.691 34.3679C248.999 35.3664 250.678 35.8657 252.728 35.8657C254.955 35.8657 256.987 35.3486 258.825 34.3144C260.663 33.2445 262.147 31.9428 263.278 30.4093L272.079 34.4213C269.888 37.8093 267.043 40.7157 263.544 43.1408C260.08 45.5658 256.245 46.8496 252.039 46.9923C245.924 47.1349 241.382 45.2983 238.414 41.4825C235.48 37.6309 233.819 32.4064 233.43 25.8089C233.395 25.274 233.377 24.5072 233.377 23.5087C233.377 17.8027 234.879 13.3806 237.883 10.2424C240.888 7.10407 245.801 5.37446 252.622 5.0535L253.735 5C256.846 5 259.567 5.78457 261.9 7.35371C264.233 8.88718 266.124 10.8843 267.573 13.345C269.057 15.8057 270.135 18.4803 270.807 21.369L259.62 23.5622Z" stroke="#00C501" stroke-width="10" mask="url(#path-1-outside-1_2138_87)"/>
<path d="M303.047 45.013H292.974V16.9825L276.221 18.0524V6.71179H317.574V15.8057L303.047 15.6987V45.013Z" stroke="#00C501" stroke-width="10" mask="url(#path-1-outside-1_2138_87)"/>
<path d="M321.808 6.71179H348.581V16.1801H331.881V21.9039H347.415V30.1419H331.881V34.7423H350.755V45.1735H321.808V6.71179Z" stroke="#00C501" stroke-width="10" mask="url(#path-1-outside-1_2138_87)"/>
<path d="M375.967 16.5546C374.694 15.9126 372.804 15.6095 370.294 15.6452V24.5251C372.556 23.9901 374.376 23.2056 375.755 22.1714C377.169 21.1015 377.876 20.0316 377.876 18.9618C377.876 17.9989 377.239 17.1965 375.967 16.5546ZM370.294 46.2969H358.153V6.44432C360.981 6.05204 363.632 5.8559 366.106 5.8559C370.241 5.8559 374.023 6.3195 377.451 7.24672C380.915 8.13828 383.672 9.45778 385.722 11.2052C387.772 12.917 388.797 14.9319 388.797 17.25C388.797 21.3155 385.616 25.8267 379.254 30.7838L395 46.2969H381.216C378.954 44.0858 376.815 42.1066 374.801 40.3591C372.786 38.576 371.284 37.4705 370.294 37.0425V46.2969Z" stroke="#00C501" stroke-width="10" mask="url(#path-1-outside-1_2138_87)"/>
</svg>
