<svg width="489" height="45" viewBox="0 0 489 45" fill="none" xmlns="http://www.w3.org/2000/svg">
<path d="M371.255 20.904H374.979V29.78H389.119V32.748H381.979V38.404H391.527V41.4H368.707V38.404H378.227V32.748H371.255V20.904Z" fill="#555555"/>
<path d="M409.308 19H413.032V24.824H416.364V27.876H413.032V34.092H409.308V19ZM394.02 20.456H405.584V28.128H397.772V30.172C401.86 30.144 404.576 29.976 407.656 29.416L407.992 32.384C404.52 33.056 401.3 33.168 396.204 33.168H394.076V25.356H401.888V23.452H394.02V20.456ZM404.744 34.624C410.008 34.624 413.284 36.388 413.284 39.412C413.284 42.464 410.008 44.228 404.744 44.228C399.48 44.228 396.204 42.464 396.204 39.412C396.204 36.388 399.48 34.624 404.744 34.624ZM404.744 37.424C401.524 37.424 399.844 38.068 399.844 39.412C399.844 40.784 401.524 41.428 404.744 41.428C407.992 41.428 409.644 40.784 409.644 39.412C409.644 38.068 407.992 37.424 404.744 37.424Z" fill="#555555"/>
<path d="M434.9 19.028H438.652V44.228H434.9V19.028ZM418.212 21.296H432.38V24.264H430.224V35.072C431.26 34.988 432.296 34.876 433.304 34.764L433.528 37.452C428.236 38.376 422.44 38.46 417.904 38.488L417.568 35.464H420.368V24.264H418.212V21.296ZM423.952 35.38L426.64 35.296V24.264H423.952V35.38Z" fill="#555555"/>
<path d="M444.673 21.156H462.677V24.068C462.677 27.736 462.677 31.236 461.473 36.752L457.805 36.416C458.281 34.372 458.561 32.524 458.729 30.844L444.393 31.572L443.945 28.576L458.925 28.1C458.981 26.728 458.981 25.412 458.981 24.152H444.673V21.156ZM442.125 38.208H464.917V41.288H442.125V38.208Z" fill="#555555"/>
<path d="M467.858 20.96H480.094V33.224H467.858V20.96ZM476.454 23.9H471.526V30.256H476.454V23.9ZM483.818 19.028H487.542V36.92H483.818V19.028ZM470.714 35.296H474.466V40.728H488.186V43.696H470.714V35.296Z" fill="#555555"/>
<path d="M5.658 1.794C6.072 1.518 6.44 1.38 6.762 1.38C6.854 1.38 7.015 1.403 7.245 1.449C7.475 1.495 7.705 1.702 7.935 2.07L17.802 18.423L28.083 2.07C28.313 1.702 28.543 1.495 28.773 1.449C29.003 1.403 29.164 1.38 29.256 1.38C29.578 1.38 29.946 1.518 30.36 1.794L35.328 5.244C35.742 5.52 35.949 5.773 35.949 6.003C35.995 6.233 36.018 6.394 36.018 6.486C36.018 6.808 35.926 7.13 35.742 7.452L22.839 27.669L22.425 41.607C22.425 42.159 22.333 42.527 22.149 42.711C22.011 42.895 21.712 42.987 21.252 42.987C21.16 42.987 21.045 42.987 20.907 42.987L13.938 42.78C13.018 42.734 12.558 42.159 12.558 41.055L12.972 27.945L0.276 7.452C0.092 7.13 0 6.808 0 6.486C0 6.394 0 6.233 0 6.003C0.046 5.773 0.276 5.52 0.69 5.244L5.658 1.794Z" fill="#333333"/>
<path d="M41.503 32.982C42.239 34.04 43.113 34.753 44.125 35.121C45.183 35.489 46.195 35.673 47.161 35.673C47.391 35.673 47.621 35.673 47.851 35.673C49.185 35.581 50.427 35.374 51.577 35.052C52.773 34.684 54.107 34.155 55.579 33.465C55.901 33.327 56.177 33.258 56.407 33.258C56.867 33.258 57.212 33.534 57.442 34.086L59.167 38.709C59.259 38.939 59.305 39.146 59.305 39.33C59.305 39.928 58.937 40.411 58.201 40.779C56.683 41.515 55.165 42.136 53.647 42.642C52.129 43.102 50.381 43.424 48.403 43.608H47.368C45.482 43.608 43.596 43.378 41.71 42.918C39.87 42.412 38.168 41.561 36.604 40.365C34.994 39.169 33.706 37.628 32.74 35.742C31.82 33.856 31.36 31.602 31.36 28.98C31.36 26.91 31.728 24.978 32.464 23.184C33.2 21.39 34.258 19.826 35.638 18.492C36.972 17.204 38.559 16.192 40.399 15.456C42.239 14.674 44.263 14.283 46.471 14.283C50.657 14.283 54.015 15.502 56.545 17.94C59.075 20.332 60.34 24.035 60.34 29.049C60.34 30.107 60.202 30.774 59.926 31.05C59.696 31.326 59.19 31.51 58.408 31.602L41.503 32.982ZM50.404 25.185C50.174 24.265 49.737 23.483 49.093 22.839C48.495 22.195 47.598 21.873 46.402 21.873C45.068 21.873 43.872 22.241 42.814 22.977C41.802 23.667 41.204 24.656 41.02 25.944L50.404 25.185Z" fill="#333333"/>
<path d="M63.6331 3.174C63.6791 1.978 64.3001 1.38 65.4961 1.38C65.5421 1.38 65.5881 1.38 65.6341 1.38L72.0511 1.587C72.7871 1.633 73.2701 1.794 73.5001 2.07C73.7301 2.3 73.8451 2.668 73.8451 3.174C73.8451 3.266 73.8451 3.358 73.8451 3.45L72.6031 41.193C72.5571 42.389 71.9361 42.987 70.7401 42.987C70.6941 42.987 70.6481 42.987 70.6021 42.987L64.1851 42.78C63.4491 42.734 62.9661 42.596 62.7361 42.366C62.5061 42.09 62.3911 41.699 62.3911 41.193C62.3911 41.101 62.3911 41.009 62.3911 40.917L63.6331 3.174Z" fill="#333333"/>
<path d="M78.1393 3.174C78.1853 1.978 78.8063 1.38 80.0023 1.38C80.0483 1.38 80.0943 1.38 80.1403 1.38L86.5573 1.587C87.2933 1.633 87.7763 1.794 88.0063 2.07C88.2363 2.3 88.3513 2.668 88.3513 3.174C88.3513 3.266 88.3513 3.358 88.3513 3.45L87.1093 41.193C87.0633 42.389 86.4423 42.987 85.2463 42.987C85.2003 42.987 85.1543 42.987 85.1083 42.987L78.6913 42.78C77.9553 42.734 77.4723 42.596 77.2423 42.366C77.0123 42.09 76.8973 41.699 76.8973 41.193C76.8973 41.101 76.8973 41.009 76.8973 40.917L78.1393 3.174Z" fill="#333333"/>
<path d="M121.625 28.98C121.625 31.372 121.188 33.488 120.314 35.328C119.486 37.122 118.359 38.64 116.933 39.882C115.507 41.124 113.851 42.067 111.965 42.711C110.125 43.355 108.193 43.677 106.169 43.677C104.145 43.677 102.19 43.355 100.304 42.711C98.4644 42.067 96.8314 41.124 95.4054 39.882C93.9794 38.64 92.8294 37.122 91.9554 35.328C91.1274 33.488 90.7134 31.372 90.7134 28.98C90.7134 26.588 91.1274 24.495 91.9554 22.701C92.8294 20.861 93.9794 19.32 95.4054 18.078C96.8314 16.836 98.4644 15.893 100.304 15.249C102.19 14.605 104.145 14.283 106.169 14.283C108.193 14.283 110.125 14.605 111.965 15.249C113.851 15.893 115.507 16.836 116.933 18.078C118.359 19.32 119.486 20.861 120.314 22.701C121.188 24.495 121.625 26.588 121.625 28.98ZM111.62 28.98C111.62 27.232 111.114 25.875 110.102 24.909C109.09 23.897 107.779 23.391 106.169 23.391C104.559 23.391 103.248 23.897 102.236 24.909C101.224 25.875 100.718 27.232 100.718 28.98C100.718 30.728 101.224 32.085 102.236 33.051C103.248 34.017 104.559 34.5 106.169 34.5C107.779 34.5 109.09 34.017 110.102 33.051C111.114 32.085 111.62 30.728 111.62 28.98Z" fill="#333333"/>
<path d="M143.101 13.8C143.975 13.8 144.665 14.053 145.171 14.559C145.723 15.019 146.183 15.755 146.551 16.767L151.519 29.463L156.211 15.318C156.349 14.858 156.51 14.582 156.694 14.49C156.924 14.398 157.131 14.352 157.315 14.352C157.591 14.352 157.913 14.398 158.281 14.49L163.456 16.008C164.146 16.192 164.491 16.583 164.491 17.181C164.491 17.411 164.445 17.664 164.353 17.94L156.28 39.951C155.866 41.147 155.291 42.067 154.555 42.711C153.819 43.355 152.945 43.677 151.933 43.677C149.909 43.677 148.414 42.412 147.448 39.882L143.101 28.98L138.754 39.882C137.788 42.412 136.293 43.677 134.269 43.677C133.257 43.677 132.383 43.355 131.647 42.711C130.911 42.067 130.336 41.147 129.922 39.951L121.849 17.94C121.757 17.664 121.711 17.411 121.711 17.181C121.711 16.583 122.056 16.192 122.746 16.008L127.921 14.49C128.289 14.398 128.611 14.352 128.887 14.352C129.071 14.352 129.255 14.398 129.439 14.49C129.669 14.582 129.853 14.858 129.991 15.318L134.683 29.463L139.651 16.767C140.019 15.755 140.456 15.019 140.962 14.559C141.514 14.053 142.227 13.8 143.101 13.8Z" fill="#333333"/>
<path d="M191.805 41.055C191.805 41.101 191.805 41.147 191.805 41.193C191.805 42.205 191.345 42.734 190.425 42.78L183.18 43.194C183.042 43.194 182.927 43.194 182.835 43.194C182.375 43.194 182.076 43.102 181.938 42.918C181.8 42.734 181.708 42.366 181.662 41.814L180.351 4.071C180.351 3.979 180.351 3.887 180.351 3.795C180.351 3.335 180.443 2.967 180.627 2.691C180.857 2.369 181.317 2.185 182.007 2.139L195.324 1.587C195.876 1.541 196.428 1.518 196.98 1.518C199.188 1.518 201.327 1.771 203.397 2.277C205.513 2.783 207.399 3.634 209.055 4.83C210.665 6.072 211.907 7.636 212.781 9.522C213.655 11.362 214.092 13.547 214.092 16.077C214.092 18.975 213.632 21.39 212.712 23.322C211.838 25.208 210.596 26.726 208.986 27.876C207.33 29.026 205.329 29.831 202.983 30.291C200.683 30.751 198.13 30.981 195.324 30.981H191.46L191.805 41.055ZM191.322 22.425H197.118C197.946 22.425 198.751 22.333 199.533 22.149C200.361 21.965 201.097 21.643 201.741 21.183C202.385 20.769 202.891 20.171 203.259 19.389C203.673 18.607 203.88 17.618 203.88 16.422C203.88 15.042 203.65 13.938 203.19 13.11C202.73 12.282 202.132 11.638 201.396 11.178C200.614 10.764 199.763 10.488 198.843 10.35C197.923 10.212 197.003 10.143 196.083 10.143L190.77 10.419L191.322 22.425Z" fill="#333333"/>
<path d="M216.27 5.865C216.27 4.255 216.845 2.875 217.995 1.725C219.145 0.575001 220.525 0 222.135 0C223.745 0 225.125 0.575001 226.275 1.725C227.425 2.875 228 4.255 228 5.865C228 7.475 227.425 8.855 226.275 10.005C225.125 11.155 223.745 11.73 222.135 11.73C220.525 11.73 219.145 11.155 217.995 10.005C216.845 8.855 216.27 7.475 216.27 5.865ZM217.167 16.905C217.167 15.847 217.811 15.318 219.099 15.318L225.654 15.456C226.298 15.456 226.735 15.617 226.965 15.939C227.195 16.215 227.31 16.675 227.31 17.319L227.172 41.193C227.172 41.883 227.011 42.343 226.689 42.573C226.367 42.803 225.884 42.918 225.24 42.918L218.478 42.78C217.512 42.78 217.029 42.205 217.029 41.055L217.167 16.905Z" fill="#333333"/>
<path d="M251.89 14.766C252.304 14.49 252.672 14.352 252.994 14.352C253.04 14.352 253.155 14.375 253.339 14.421C253.569 14.467 253.822 14.697 254.098 15.111L256.858 19.32C257.088 19.642 257.203 19.987 257.203 20.355C257.203 20.447 257.18 20.631 257.134 20.907C257.088 21.137 256.835 21.39 256.375 21.666L247.336 27.117L257.272 35.88C257.64 36.202 257.824 36.501 257.824 36.777C257.87 37.007 257.893 37.145 257.893 37.191C257.893 37.559 257.732 37.927 257.41 38.295L253.822 42.228C253.454 42.642 253.063 42.849 252.649 42.849C252.603 42.849 252.442 42.849 252.166 42.849C251.936 42.803 251.591 42.596 251.131 42.228L240.436 33.12L240.643 40.917C240.643 41.607 240.528 42.113 240.298 42.435C240.068 42.711 239.608 42.872 238.918 42.918L233.122 43.125C233.03 43.125 232.961 43.125 232.915 43.125C231.811 43.125 231.259 42.527 231.259 41.331L230.5 3.588C230.5 2.944 230.592 2.461 230.776 2.139C231.006 1.817 231.443 1.633 232.087 1.587L238.09 1.38C238.182 1.38 238.251 1.38 238.297 1.38C239.355 1.38 239.884 2.001 239.884 3.243L240.229 21.666L251.89 14.766Z" fill="#333333"/>
<path d="M275.173 25.944C275.173 24.794 274.92 23.989 274.414 23.529C273.954 23.023 273.333 22.77 272.551 22.77C271.907 22.77 271.24 23 270.55 23.46C269.86 23.874 269.331 24.472 268.963 25.254L269.446 40.848C269.446 40.94 269.446 41.032 269.446 41.124C269.446 41.676 269.331 42.09 269.101 42.366C268.871 42.642 268.411 42.803 267.721 42.849L261.856 43.056C261.764 43.056 261.672 43.056 261.58 43.056C261.074 43.056 260.683 42.941 260.407 42.711C260.177 42.435 260.039 41.952 259.993 41.262L259.165 17.181C259.165 17.089 259.165 16.997 259.165 16.905C259.165 16.399 259.257 16.008 259.441 15.732C259.671 15.41 260.108 15.226 260.752 15.18L266.824 14.973C266.916 14.973 266.985 14.973 267.031 14.973C268.089 14.973 268.618 15.594 268.618 16.836V17.871C269.584 16.813 270.688 15.962 271.93 15.318C273.218 14.628 274.575 14.283 276.001 14.283C277.519 14.283 278.83 14.605 279.934 15.249C281.084 15.847 282.05 16.675 282.832 17.733C283.752 16.859 284.902 16.077 286.282 15.387C287.708 14.651 289.226 14.283 290.836 14.283C292.032 14.283 293.205 14.49 294.355 14.904C295.505 15.272 296.54 15.847 297.46 16.629C298.334 17.411 299.024 18.377 299.53 19.527C300.036 20.631 300.289 21.873 300.289 23.253C300.289 23.345 300.289 23.46 300.289 23.598L299.944 40.848C299.944 41.676 299.806 42.251 299.53 42.573C299.3 42.849 298.725 42.987 297.805 42.987L292.423 42.918C291.503 42.918 290.905 42.78 290.629 42.504C290.399 42.182 290.284 41.607 290.284 40.779L290.629 25.461C290.629 25.415 290.629 25.369 290.629 25.323C290.629 23.621 289.824 22.77 288.214 22.77C287.662 22.77 287.064 22.908 286.42 23.184C285.776 23.46 285.201 23.851 284.695 24.357V40.848C284.695 41.676 284.557 42.251 284.281 42.573C284.051 42.849 283.476 42.987 282.556 42.987H277.312C276.392 42.987 275.794 42.849 275.518 42.573C275.288 42.251 275.173 41.676 275.173 40.848V25.944Z" fill="#333333"/>
<path d="M303.251 5.865C303.251 4.255 303.826 2.875 304.976 1.725C306.126 0.575001 307.506 0 309.116 0C310.726 0 312.106 0.575001 313.256 1.725C314.406 2.875 314.981 4.255 314.981 5.865C314.981 7.475 314.406 8.855 313.256 10.005C312.106 11.155 310.726 11.73 309.116 11.73C307.506 11.73 306.126 11.155 304.976 10.005C303.826 8.855 303.251 7.475 303.251 5.865ZM304.148 16.905C304.148 15.847 304.792 15.318 306.08 15.318L312.635 15.456C313.279 15.456 313.716 15.617 313.946 15.939C314.176 16.215 314.291 16.675 314.291 17.319L314.153 41.193C314.153 41.883 313.992 42.343 313.67 42.573C313.348 42.803 312.865 42.918 312.221 42.918L305.459 42.78C304.493 42.78 304.01 42.205 304.01 41.055L304.148 16.905Z" fill="#333333"/>
<path d="M338.494 27.669C338.494 26.151 338.195 24.955 337.597 24.081C336.999 23.207 335.964 22.77 334.492 22.77C333.296 22.77 332.261 23.023 331.387 23.529C330.513 24.035 329.823 24.702 329.317 25.53L329.869 40.917C329.869 41.009 329.869 41.101 329.869 41.193C329.869 41.745 329.754 42.159 329.524 42.435C329.294 42.711 328.834 42.872 328.144 42.918L321.865 43.056C321.773 43.056 321.681 43.056 321.589 43.056C321.083 43.056 320.692 42.941 320.416 42.711C320.186 42.435 320.048 41.952 320.002 41.262L319.174 17.181C319.174 17.089 319.174 16.997 319.174 16.905C319.174 16.399 319.266 16.008 319.45 15.732C319.68 15.41 320.117 15.226 320.761 15.18L327.247 14.973C327.339 14.973 327.408 14.973 327.454 14.973C328.512 14.973 329.041 15.594 329.041 16.836V16.905C330.145 16.077 331.387 15.433 332.767 14.973C334.193 14.513 335.665 14.283 337.183 14.283C338.747 14.283 340.219 14.559 341.599 15.111C343.025 15.617 344.267 16.376 345.325 17.388C346.383 18.446 347.211 19.78 347.809 21.39C348.407 22.954 348.706 24.771 348.706 26.841V40.917C348.706 41.745 348.568 42.32 348.292 42.642C348.062 42.918 347.487 43.056 346.567 43.056L340.633 42.918C339.713 42.918 339.115 42.78 338.839 42.504C338.609 42.182 338.494 41.607 338.494 40.779V27.669Z" fill="#333333"/>
</svg>
