<svg width="430" height="87" viewBox="0 0 430 87" fill="none" xmlns="http://www.w3.org/2000/svg">
<path d="M369.412 33.42V36.36H361.74V47.336C363.588 47.3173 365.193 47.2613 366.556 47.168C367.937 47.056 369.309 46.8693 370.672 46.608L371.036 49.632C369.449 49.9307 367.844 50.136 366.22 50.248C364.615 50.3413 362.561 50.388 360.06 50.388H358.016V33.42H369.412ZM378.008 31.18V56.464H374.312V42.856H368.236V39.86H374.312V31.18H378.008ZM390.833 50.444V45.88H383.693V32.748H387.389V36.584H397.973V32.748H401.669V45.88H394.557V50.444H404.133V53.468H381.313V50.444H390.833ZM387.389 42.94H397.973V39.496H387.389V42.94ZM426.785 31.18V56.38H423.033V31.18H426.785ZM419.309 33.756C419.309 36.5 418.955 38.9827 418.245 41.204C417.555 43.4067 416.36 45.432 414.661 47.28C412.963 49.128 410.657 50.752 407.745 52.152L405.813 49.212C408.968 47.7 411.292 45.9453 412.785 43.948C414.297 41.9507 415.193 39.5427 415.473 36.724H407.157V33.756H419.309Z" fill="#555555"/>
<path d="M4.06 61.348C3.51867 61.2707 3.17067 61.0387 3.016 60.652C2.86133 60.2653 2.9 59.9173 3.132 59.608C3.248 56.244 3.422 53.0153 3.654 49.922C3.886 46.8287 4.13733 43.774 4.408 40.758C4.67867 37.7033 4.93 34.6293 5.162 31.536C5.394 28.404 5.568 25.156 5.684 21.792C5.8 21.2893 6.07067 20.98 6.496 20.864C6.92133 20.748 7.28867 20.8447 7.598 21.154C8.25533 21.154 8.99 21.154 9.802 21.154C10.6527 21.1153 11.4453 21.0767 12.18 21.038C12.9533 20.9993 13.6107 20.9607 14.152 20.922C14.6933 20.8833 15.0027 20.864 15.08 20.864C15.544 20.8253 15.892 20.9607 16.124 21.27C16.356 21.5407 16.4333 21.85 16.356 22.198C17.168 23.938 17.922 25.6393 18.618 27.302C19.314 28.9647 20.01 30.608 20.706 32.232C21.402 33.856 22.1367 35.4607 22.91 37.046C23.6833 38.5927 24.534 40.12 25.462 41.628C26.8927 39.3853 28.246 37.104 29.522 34.784C30.8367 32.464 32.0933 30.1247 33.292 27.766C33.3693 27.6113 33.4853 27.36 33.64 27.012C33.7947 26.6253 33.9493 26.2193 34.104 25.794C34.2587 25.3687 34.4133 24.9433 34.568 24.518C34.7227 24.054 34.858 23.648 34.974 23.3C35.09 22.9907 35.148 22.7587 35.148 22.604C35.1867 22.4493 35.3027 22.256 35.496 22.024C35.728 21.7533 35.9407 21.5987 36.134 21.56C36.366 21.4827 36.6367 21.4827 36.946 21.56H42.92C43.1907 21.5987 43.4227 21.6373 43.616 21.676C43.8093 21.7147 43.964 21.8113 44.08 21.966C44.2347 22.1207 44.3507 22.3333 44.428 22.604C44.544 22.8747 44.6407 23.2613 44.718 23.764C44.7953 26.316 44.95 28.752 45.182 31.072C45.4527 33.3533 45.7233 35.538 45.994 37.626C46.458 41.2607 46.8253 44.9147 47.096 48.588C47.4053 52.2613 47.5793 55.9347 47.618 59.608C47.7727 59.6853 47.8693 59.8013 47.908 59.956C47.9467 60.072 48.0047 60.246 48.082 60.478V60.536C48.0433 60.8453 48.0047 61.0193 47.966 61.058C47.966 61.1353 47.8307 61.2513 47.56 61.406C47.096 61.522 46.516 61.5993 45.82 61.638C45.1627 61.7153 44.4667 61.754 43.732 61.754C42.9973 61.7927 42.282 61.812 41.586 61.812C40.89 61.812 40.31 61.812 39.846 61.812C39.1887 61.696 38.7827 61.5027 38.628 61.232C38.512 61 38.4733 60.5167 38.512 59.782H38.57C38.4927 56.2633 38.2993 52.8027 37.99 49.4C37.7193 45.9973 37.4293 42.5947 37.12 39.192L34.336 44.064C34.0653 44.4893 33.6787 45.166 33.176 46.094C32.712 47.022 32.19 48.008 31.61 49.052C31.03 50.0573 30.45 50.9853 29.87 51.836C29.3287 52.648 28.8453 53.1313 28.42 53.286C27.84 53.518 27.144 53.634 26.332 53.634C25.52 53.5953 24.8047 53.576 24.186 53.576C23.838 53.5373 23.3933 53.518 22.852 53.518C22.3493 53.4793 21.924 53.3633 21.576 53.17C21.344 53.0153 21.054 52.6867 20.706 52.184C20.3967 51.6813 20.0873 51.14 19.778 50.56C19.5073 49.98 19.2367 49.4193 18.966 48.878C18.734 48.3367 18.56 47.95 18.444 47.718L13.92 38.496C13.804 40.7 13.7847 43.0587 13.862 45.572C13.9393 48.0467 13.92 50.386 13.804 52.59C13.7267 53.9433 13.6107 55.2 13.456 56.36C13.34 57.4813 13.282 58.7187 13.282 60.072C13.282 60.42 13.1273 60.7293 12.818 61C12.5473 61.2707 12.238 61.4253 11.89 61.464C11.0393 61.464 10.3047 61.4447 9.686 61.406C9.106 61.406 8.526 61.406 7.946 61.406C7.40467 61.406 6.82467 61.3867 6.206 61.348C5.626 61.348 4.91067 61.348 4.06 61.348ZM69.2506 29.97C69.328 29.97 69.386 29.9893 69.4246 30.028C69.502 30.028 69.5793 30.028 69.6566 30.028C71.474 30.2987 73.0786 30.8593 74.4706 31.71C75.9013 32.5607 77.1193 33.6047 78.1246 34.842C79.1686 36.0793 80 37.4907 80.6186 39.076C81.2373 40.6613 81.6626 42.324 81.8946 44.064C82.1653 47.2733 81.972 50.0187 81.3146 52.3C80.696 54.5427 79.71 56.3987 78.3566 57.868C77.0033 59.2987 75.3406 60.3427 73.3686 61C71.3966 61.6187 69.1926 61.9087 66.7566 61.87C65.7513 61.87 64.746 61.812 63.7406 61.696C62.774 61.58 61.8266 61.3867 60.8986 61.116C60.0093 60.8453 59.1586 60.478 58.3466 60.014C57.5346 59.5113 56.7806 58.8733 56.0846 58.1C54.9246 56.94 54.016 55.548 53.3586 53.924C52.74 52.3 52.334 50.618 52.1406 48.878C51.9473 47.0993 51.928 45.34 52.0826 43.6C52.2373 41.86 52.4886 40.2747 52.8366 38.844C53.262 37.0653 54.016 35.596 55.0986 34.436C56.1813 33.2373 57.438 32.3093 58.8686 31.652C60.338 30.956 61.904 30.492 63.5666 30.26C65.268 29.9893 66.9113 29.8927 68.4966 29.97C68.7286 29.9313 68.98 29.9313 69.2506 29.97ZM73.8326 45.746V44.644V45.746ZM68.2646 38.844C68.1873 38.844 68.0326 38.844 67.8006 38.844C67.6073 38.8053 67.414 38.7667 67.2206 38.728C66.2153 38.844 65.384 39.0953 64.7266 39.482C64.0693 39.83 63.5473 40.294 63.1606 40.874C62.8126 41.454 62.5613 42.1113 62.4066 42.846C62.2906 43.5807 62.2326 44.3927 62.2326 45.282C62.2326 46.2487 62.194 47.2927 62.1166 48.414C62.0393 49.4967 62.2326 50.386 62.6966 51.082C63.0446 51.546 63.47 51.9133 63.9726 52.184C64.4753 52.4547 64.9973 52.6287 65.5386 52.706C66.08 52.7447 66.602 52.6867 67.1046 52.532C67.6073 52.3773 68.0326 52.126 68.3806 51.778C69.5793 51.0047 70.3913 50.038 70.8166 48.878C71.2806 47.718 71.5513 46.5193 71.6286 45.282C71.6673 44.7407 71.6286 44.1413 71.5126 43.484C71.4353 42.8267 71.2613 42.1887 70.9906 41.57C70.72 40.9513 70.3526 40.3907 69.8886 39.888C69.4246 39.3853 68.8833 39.0373 68.2646 38.844ZM87.5075 61.696C87.0435 61.696 86.7148 61.5027 86.5215 61.116C86.2122 61 86.0575 60.6907 86.0575 60.188C85.8255 55.432 85.6902 50.676 85.6515 45.92C85.6128 41.1253 85.5935 36.3693 85.5935 31.652C85.4388 31.2653 85.4388 30.898 85.5935 30.55C85.7868 30.1633 86.1155 29.97 86.5795 29.97C88.2422 29.97 89.8082 29.9313 91.2775 29.854C92.7468 29.7767 94.2162 29.854 95.6855 30.086C96.1495 30.086 96.4975 30.1827 96.7295 30.376C96.9615 30.5693 97.0775 30.782 97.0775 31.014V33.74C97.7348 33.4307 98.5275 33.1407 99.4555 32.87C100.384 32.5607 101.35 32.3093 102.356 32.116C103.4 31.9227 104.463 31.8067 105.546 31.768C106.628 31.6907 107.653 31.71 108.62 31.826C109.2 32.0193 109.644 32.29 109.954 32.638C110.263 32.9473 110.437 33.4307 110.476 34.088C110.514 35.2093 110.437 36.4273 110.244 37.742C110.05 39.0567 109.857 40.1007 109.664 40.874C109.625 41.2993 109.49 41.744 109.258 42.208C109.026 42.6333 108.62 42.846 108.04 42.846C106.841 42.614 105.642 42.4787 104.444 42.44C103.245 42.3627 102.143 42.4787 101.138 42.788C100.132 43.0587 99.2622 43.6 98.5275 44.412C97.7928 45.1853 97.3095 46.2873 97.0775 47.718C96.5748 49.6127 96.3815 51.7007 96.4975 53.982C96.6522 56.2633 96.8455 58.4867 97.0775 60.652C97.0775 60.9613 96.9808 61.2127 96.7875 61.406C96.6328 61.5993 96.4395 61.7347 96.2075 61.812C95.9755 61.8893 95.7242 61.8893 95.4535 61.812C95.2215 61.7733 95.0282 61.6573 94.8735 61.464C93.5975 61.6573 92.3795 61.7347 91.2195 61.696C90.0595 61.696 88.8222 61.696 87.5075 61.696ZM120.354 49.922C120.702 50.8113 121.436 51.4493 122.558 51.836C123.679 52.2227 124.897 52.4547 126.212 52.532C127.565 52.5707 128.899 52.5127 130.214 52.358C131.528 52.2033 132.553 52.01 133.288 51.778C133.597 51.7007 133.848 51.7393 134.042 51.894C134.274 52.01 134.428 52.184 134.506 52.416L134.68 52.706C134.873 53.634 135.105 54.562 135.376 55.49C135.685 56.418 136.072 57.346 136.536 58.274C136.69 58.8927 136.497 59.376 135.956 59.724C135.917 59.8013 135.859 59.8787 135.782 59.956C135.743 60.0333 135.685 60.0913 135.608 60.13C134.796 60.594 133.926 60.9613 132.998 61.232C132.108 61.5027 131.2 61.696 130.272 61.812C129.344 61.928 128.416 61.986 127.488 61.986C126.598 62.0247 125.748 62.044 124.936 62.044C121.533 62.044 118.401 61.116 115.54 59.26C114.264 58.332 113.2 57.2493 112.35 56.012C111.538 54.736 110.9 53.3827 110.436 51.952C109.972 50.5213 109.662 49.0327 109.508 47.486C109.392 45.9393 109.392 44.412 109.508 42.904C110.01 40.12 110.938 37.626 112.292 35.422C113.684 33.218 115.694 31.5167 118.324 30.318C119.484 29.854 120.74 29.564 122.094 29.448C123.447 29.332 124.8 29.39 126.154 29.622C127.546 29.8153 128.86 30.1827 130.098 30.724C131.335 31.2267 132.418 31.884 133.346 32.696C134.39 33.74 135.182 34.9193 135.724 36.234C136.304 37.51 136.71 38.8633 136.942 40.294C137.212 41.7247 137.367 43.194 137.406 44.702C137.444 46.1713 137.464 47.602 137.464 48.994C137.464 49.458 137.251 49.7673 136.826 49.922C136.439 50.0767 136.052 50.0767 135.666 49.922H135.608H120.354ZM120.006 42.034C121.359 42.034 122.654 42.0533 123.892 42.092C125.168 42.092 126.386 42.0727 127.546 42.034C127.236 41.2607 126.908 40.526 126.56 39.83C126.212 39.0953 125.554 38.6313 124.588 38.438C124.008 38.2447 123.447 38.2253 122.906 38.38C122.403 38.496 121.939 38.7473 121.514 39.134C121.127 39.482 120.798 39.9073 120.528 40.41C120.257 40.9127 120.083 41.454 120.006 42.034ZM154.73 22.952C154.807 22.604 154.962 22.3527 155.194 22.198C155.426 22.0047 155.677 21.908 155.948 21.908C156.025 21.908 156.083 21.908 156.122 21.908C156.16 21.8693 156.218 21.85 156.296 21.85C157.881 21.6567 159.389 21.4247 160.82 21.154C162.25 20.8833 163.874 20.748 165.692 20.748C166.968 20.748 168.34 20.806 169.81 20.922C171.318 21.038 172.787 21.2313 174.218 21.502C175.687 21.7727 177.06 22.14 178.336 22.604C179.612 23.0293 180.694 23.532 181.584 24.112C182.55 24.7693 183.362 25.62 184.02 26.664C184.677 27.6693 185.18 28.752 185.528 29.912C185.914 31.0333 186.166 32.1353 186.282 33.218C186.398 34.3007 186.398 35.248 186.282 36.06C186.166 36.872 186.069 37.6453 185.992 38.38C185.914 39.1147 185.779 39.8107 185.586 40.468C185.431 41.1253 185.16 41.7827 184.774 42.44C184.426 43.0587 183.904 43.6773 183.208 44.296C181.97 45.4947 180.636 46.4227 179.206 47.08C177.814 47.6987 176.364 48.1627 174.856 48.472C173.348 48.7427 171.782 48.9167 170.158 48.994C168.572 49.0713 166.968 49.1487 165.344 49.226C165.344 50.27 165.363 51.198 165.402 52.01C165.479 52.7833 165.537 53.5567 165.576 54.33C165.653 55.0647 165.692 55.838 165.692 56.65C165.73 57.462 165.711 58.4093 165.634 59.492C165.595 60.1493 165.479 60.7293 165.286 61.232C165.131 61.7347 164.841 62.044 164.416 62.16C164.029 62.276 163.604 62.3147 163.14 62.276C162.714 62.2373 162.289 62.1987 161.864 62.16C160.974 62.1213 160.104 62.1213 159.254 62.16C158.403 62.1987 157.552 62.2373 156.702 62.276C155.967 62.276 155.484 62.0827 155.252 61.696C155.02 61.348 154.923 61.0193 154.962 60.71C155 60.2847 155 59.7627 154.962 59.144C154.923 58.5253 154.904 58.0613 154.904 57.752C154.865 56.94 154.846 56.128 154.846 55.316C154.884 54.504 154.904 53.6727 154.904 52.822C154.904 50.2313 154.884 47.6987 154.846 45.224C154.846 42.7493 154.826 40.3133 154.788 37.916C154.788 35.48 154.768 33.044 154.73 30.608C154.73 28.1333 154.73 25.5813 154.73 22.952ZM166.04 30.84C166.078 32.2707 166.04 33.6627 165.924 35.016C165.846 36.3693 165.846 37.7613 165.924 39.192C166.078 39.192 166.291 39.2113 166.562 39.25C166.871 39.25 167.18 39.25 167.49 39.25C167.838 39.25 168.166 39.25 168.476 39.25C168.785 39.2113 168.998 39.192 169.114 39.192C170.042 39.1147 170.892 38.9407 171.666 38.67C172.478 38.3607 173.154 37.8193 173.696 37.046C174.314 36.0793 174.508 34.9967 174.276 33.798C174.121 32.9473 173.734 32.3093 173.116 31.884C172.497 31.4587 171.782 31.1687 170.97 31.014C170.158 30.8593 169.307 30.8013 168.418 30.84C167.528 30.84 166.736 30.84 166.04 30.84ZM190.162 61.754C189.737 61.754 189.427 61.5413 189.234 61.116C189.079 60.7293 189.099 60.362 189.292 60.014V33.74C189.06 33.3147 189.099 32.87 189.408 32.406C189.563 32.1353 189.775 31.9807 190.046 31.942C190.355 31.8647 190.665 31.884 190.974 32H197.934C198.166 32 198.359 32.0773 198.514 32.232C198.669 32.348 198.785 32.5027 198.862 32.696C199.287 32.928 199.442 33.2953 199.326 33.798C199.094 36.118 198.978 38.3413 198.978 40.468C198.978 42.556 198.978 44.76 198.978 47.08C198.978 47.9693 198.959 48.9553 198.92 50.038C198.881 51.1207 198.843 52.2227 198.804 53.344C198.765 54.4653 198.746 55.5673 198.746 56.65C198.746 57.694 198.785 58.6413 198.862 59.492C198.862 59.5307 198.862 59.5693 198.862 59.608C198.901 59.608 198.92 59.6273 198.92 59.666C199.113 59.782 199.249 59.956 199.326 60.188C199.403 60.42 199.403 60.652 199.326 60.884C199.287 61.116 199.191 61.3093 199.036 61.464C198.881 61.6573 198.669 61.754 198.398 61.754H190.162ZM196.136 28.694C195.517 28.81 194.841 28.8487 194.106 28.81C193.371 28.7327 192.675 28.5587 192.018 28.288C191.361 28.0173 190.761 27.6307 190.22 27.128C189.717 26.5867 189.389 25.8907 189.234 25.04C189.002 24.344 188.886 23.6093 188.886 22.836C188.925 22.024 189.06 21.27 189.292 20.574C189.563 19.8393 189.949 19.2207 190.452 18.718C190.993 18.2153 191.651 17.906 192.424 17.79C194.048 17.558 195.556 17.7707 196.948 18.428C198.379 19.0467 199.307 20.0327 199.732 21.386C199.964 22.198 200.061 22.9907 200.022 23.764C199.983 24.5373 199.809 25.2527 199.5 25.91C199.191 26.5673 198.746 27.1473 198.166 27.65C197.625 28.114 196.948 28.462 196.136 28.694ZM203.689 20.284C203.689 19.9747 203.767 19.7427 203.921 19.588C204.115 19.4333 204.327 19.3173 204.559 19.24C204.675 19.0467 204.849 18.9113 205.081 18.834C206.319 18.37 207.537 18.0027 208.735 17.732C209.973 17.4227 211.326 17.152 212.795 16.92C213.259 16.7653 213.685 16.8427 214.071 17.152C214.458 17.4227 214.651 17.8287 214.651 18.37C214.651 21.9273 214.651 25.388 214.651 28.752C214.69 32.116 214.806 35.5573 214.999 39.076C215.966 38.032 216.894 36.9687 217.783 35.886C218.673 34.8033 219.543 33.682 220.393 32.522C220.587 32.1353 220.819 31.768 221.089 31.42C221.399 31.072 221.785 30.898 222.249 30.898C223.951 30.898 225.71 30.9173 227.527 30.956C229.345 30.9947 231.027 31.0527 232.573 31.13C232.651 31.13 232.728 31.1493 232.805 31.188C232.96 31.2653 233.037 31.4007 233.037 31.594C233.153 32.174 233.076 32.754 232.805 33.334C232.573 33.8753 232.225 34.3973 231.761 34.9C231.336 35.4027 230.853 35.886 230.311 36.35C229.809 36.7753 229.383 37.162 229.035 37.51C227.837 38.7473 226.619 40.0427 225.381 41.396C224.183 42.7107 223.139 43.8707 222.249 44.876C222.095 45.0693 221.998 45.1853 221.959 45.224C222.423 45.7267 222.907 46.2873 223.409 46.906C223.951 47.5247 224.492 48.1627 225.033 48.82C225.613 49.4387 226.174 50.0767 226.715 50.734C227.295 51.3527 227.856 51.9327 228.397 52.474C229.325 53.6727 230.273 54.7747 231.239 55.78C232.245 56.7853 233.115 57.8873 233.849 59.086C234.313 59.55 234.391 59.9947 234.081 60.42C233.772 60.8067 233.385 61 232.921 61C231.529 61 230.079 61 228.571 61C227.063 61.0387 225.536 61.116 223.989 61.232C223.796 61.4253 223.564 61.5413 223.293 61.58C223.023 61.6187 222.791 61.5413 222.597 61.348L221.263 59.318C220.297 57.926 219.311 56.5533 218.305 55.2C217.339 53.8467 216.295 52.5707 215.173 51.372V59.55C215.173 59.8207 215.057 60.072 214.825 60.304C214.787 60.6133 214.69 60.884 214.535 61.116C214.381 61.348 214.129 61.464 213.781 61.464C212.312 61.232 210.978 61.116 209.779 61.116C208.619 61.116 207.305 61.232 205.835 61.464C205.371 61.464 205.043 61.29 204.849 60.942C204.54 60.71 204.385 60.4007 204.385 60.014C204.153 58.3513 204.076 56.766 204.153 55.258C204.231 53.75 204.405 52.1453 204.675 50.444C204.869 49.0133 204.927 47.486 204.849 45.862C204.772 44.238 204.733 42.5753 204.733 40.874C204.733 37.4713 204.675 34.0493 204.559 30.608C204.482 27.128 204.192 23.6867 203.689 20.284ZM238.63 61.406C238.127 61.522 237.721 61.4833 237.412 61.29C237.141 61.0967 236.967 60.8453 236.89 60.536C236.774 60.3813 236.716 60.1687 236.716 59.898C236.716 55.4127 236.639 51.0433 236.484 46.79C236.329 42.5367 236.252 38.148 236.252 33.624C236.252 33.3147 236.329 33.0827 236.484 32.928L236.716 32.696C238.611 31.7293 240.505 31.014 242.4 30.55C244.333 30.086 246.344 29.854 248.432 29.854C249.399 29.854 250.365 29.8733 251.332 29.912C252.299 29.9507 253.207 30.0667 254.058 30.26C254.947 30.4533 255.759 30.782 256.494 31.246C257.229 31.71 257.828 32.348 258.292 33.16C258.369 33.2373 258.408 33.3147 258.408 33.392C259.916 32.7347 261.463 32.2127 263.048 31.826C264.672 31.4007 266.257 31.246 267.804 31.362C269.351 31.478 270.801 31.9227 272.154 32.696C273.507 33.4693 274.706 34.7067 275.75 36.408C276.639 38.0707 277.239 39.8107 277.548 41.628C277.896 43.4067 278.07 45.1467 278.07 46.848V60.42C278.07 60.8453 277.896 61.1353 277.548 61.29C277.239 61.4833 276.91 61.5413 276.562 61.464C276.137 61.5413 275.692 61.5413 275.228 61.464C274.803 61.4253 274.339 61.406 273.836 61.406H268.674H268.5C268.152 61.5607 267.785 61.5413 267.398 61.348C267.011 61.1933 266.818 60.884 266.818 60.42C266.818 59.492 266.837 58.5253 266.876 57.52C266.915 56.5147 266.953 55.3547 266.992 54.04C267.069 52.7253 267.127 51.2173 267.166 49.516C267.243 47.8147 267.282 45.7653 267.282 43.368C267.282 42.904 267.127 42.3433 266.818 41.686C266.509 41.0287 266.122 40.4873 265.658 40.062C265.194 39.598 264.672 39.3467 264.092 39.308C263.551 39.2307 263.048 39.54 262.584 40.236L262.352 40.468C262.893 43.832 263.125 47.1573 263.048 50.444C263.009 53.7307 262.971 57.056 262.932 60.42C262.971 60.6133 262.932 60.8067 262.816 61C262.7 61.1933 262.545 61.3673 262.352 61.522C262.159 61.6767 261.946 61.7927 261.714 61.87C261.521 61.9473 261.347 61.9473 261.192 61.87H253.594C253.207 61.87 252.898 61.7927 252.666 61.638C252.473 61.4833 252.337 61.29 252.26 61.058C252.183 60.826 252.183 60.594 252.26 60.362C252.337 60.13 252.492 59.9367 252.724 59.782V48.066C252.608 47.37 252.492 46.4807 252.376 45.398C252.299 44.2767 252.086 43.252 251.738 42.324C251.39 41.396 250.829 40.7193 250.056 40.294C249.321 39.8687 248.239 39.9847 246.808 40.642V59.898C246.808 60.478 246.634 60.884 246.286 61.116C245.977 61.348 245.667 61.4253 245.358 61.348C244.198 61.116 243.077 61 241.994 61C240.911 61 239.79 61.1353 238.63 61.406ZM284.148 61.754C283.723 61.754 283.414 61.5413 283.22 61.116C283.066 60.7293 283.085 60.362 283.278 60.014V33.74C283.046 33.3147 283.085 32.87 283.394 32.406C283.549 32.1353 283.762 31.9807 284.032 31.942C284.342 31.8647 284.651 31.884 284.96 32H291.92C292.152 32 292.346 32.0773 292.5 32.232C292.655 32.348 292.771 32.5027 292.848 32.696C293.274 32.928 293.428 33.2953 293.312 33.798C293.08 36.118 292.964 38.3413 292.964 40.468C292.964 42.556 292.964 44.76 292.964 47.08C292.964 47.9693 292.945 48.9553 292.906 50.038C292.868 51.1207 292.829 52.2227 292.79 53.344C292.752 54.4653 292.732 55.5673 292.732 56.65C292.732 57.694 292.771 58.6413 292.848 59.492C292.848 59.5307 292.848 59.5693 292.848 59.608C292.887 59.608 292.906 59.6273 292.906 59.666C293.1 59.782 293.235 59.956 293.312 60.188C293.39 60.42 293.39 60.652 293.312 60.884C293.274 61.116 293.177 61.3093 293.022 61.464C292.868 61.6573 292.655 61.754 292.384 61.754H284.148ZM290.122 28.694C289.504 28.81 288.827 28.8487 288.092 28.81C287.358 28.7327 286.662 28.5587 286.004 28.288C285.347 28.0173 284.748 27.6307 284.206 27.128C283.704 26.5867 283.375 25.8907 283.22 25.04C282.988 24.344 282.872 23.6093 282.872 22.836C282.911 22.024 283.046 21.27 283.278 20.574C283.549 19.8393 283.936 19.2207 284.438 18.718C284.98 18.2153 285.637 17.906 286.41 17.79C288.034 17.558 289.542 17.7707 290.934 18.428C292.365 19.0467 293.293 20.0327 293.718 21.386C293.95 22.198 294.047 22.9907 294.008 23.764C293.97 24.5373 293.796 25.2527 293.486 25.91C293.177 26.5673 292.732 27.1473 292.152 27.65C291.611 28.114 290.934 28.462 290.122 28.694ZM299.763 61.986C299.415 61.986 299.145 61.87 298.951 61.638C298.797 61.406 298.7 61.1547 298.661 60.884C298.429 60.7293 298.313 60.4393 298.313 60.014C298.545 55.722 298.681 51.4107 298.719 47.08C298.758 42.7107 298.777 38.3607 298.777 34.03C298.584 33.45 298.758 32.9667 299.299 32.58C301.233 31.5747 303.243 30.9173 305.331 30.608C307.458 30.2987 309.623 30.144 311.827 30.144C313.799 30.144 315.694 30.3373 317.511 30.724C319.367 31.1107 321.011 32.0193 322.441 33.45C323.06 34.1847 323.524 34.9967 323.833 35.886C324.181 36.7753 324.433 37.7033 324.587 38.67C324.742 39.598 324.819 40.526 324.819 41.454C324.858 42.382 324.877 43.2713 324.877 44.122C325.109 47.022 325.187 49.806 325.109 52.474C325.032 55.142 325.109 57.81 325.341 60.478C325.341 60.826 325.225 61.0967 324.993 61.29C324.761 61.4833 324.491 61.58 324.181 61.58C323.988 61.8507 323.717 61.986 323.369 61.986H318.149C317.763 61.986 317.473 61.8507 317.279 61.58C316.97 61.58 316.699 61.4833 316.467 61.29C316.274 61.0967 316.177 60.826 316.177 60.478V47.022C316.177 46.558 316.158 46.036 316.119 45.456C316.119 44.876 316.081 44.296 316.003 43.716C315.965 43.136 315.887 42.5947 315.771 42.092C315.655 41.5507 315.481 41.106 315.249 40.758C314.979 40.2553 314.592 39.9267 314.089 39.772C313.587 39.6173 313.026 39.5593 312.407 39.598C311.827 39.6367 311.228 39.7333 310.609 39.888C309.991 40.004 309.43 40.12 308.927 40.236C308.927 43.6387 308.966 47.0027 309.043 50.328C309.121 53.6533 309.159 56.882 309.159 60.014C309.159 60.4007 309.082 60.71 308.927 60.942C308.773 61.174 308.599 61.3287 308.405 61.406L308.289 61.522C307.748 61.754 307.168 61.8893 306.549 61.928C305.931 61.9667 305.37 61.986 304.867 61.986H299.763Z" fill="#333333"/>
</svg>
