<svg width="513" height="87" viewBox="0 0 513 87" fill="none" xmlns="http://www.w3.org/2000/svg">
<path d="M400.36 50.444V45.88H393.22V32.748H396.916V36.584H407.5V32.748H411.196V45.88H404.084V50.444H413.66V53.468H390.84V50.444H400.36ZM396.916 42.94H407.5V39.496H396.916V42.94ZM435.109 31.152V40.644H438.721V43.724H435.109V56.436H431.413V31.152H435.109ZM427.941 33.308V43.108H420.073V47.532C421.958 47.5133 423.657 47.448 425.169 47.336C426.699 47.224 428.23 47.0373 429.761 46.776L430.097 49.772C428.286 50.0893 426.475 50.3133 424.665 50.444C422.873 50.556 420.81 50.612 418.477 50.612H416.349V40.168H424.245V36.276H416.321V33.308H427.941ZM460.785 31.208V56.408H457.033V31.208H460.785ZM454.513 33.476V36.444H452.357V47.252C453.123 47.196 454.149 47.0933 455.437 46.944L455.661 49.632C453.309 50.0427 450.883 50.3133 448.381 50.444C445.88 50.5747 443.099 50.6493 440.037 50.668L439.701 47.644H442.501V36.444H440.345V33.476H454.513ZM448.773 47.476V36.444H446.085V47.56L448.773 47.476ZM484.81 33.336V36.248C484.81 38.656 484.745 40.756 484.614 42.548C484.483 44.34 484.147 46.468 483.606 48.932L479.938 48.596C480.367 46.748 480.675 44.8907 480.862 43.024L466.526 43.752L466.078 40.756L481.058 40.28C481.095 39.3653 481.114 38.0493 481.114 36.332H466.806V33.336H484.81ZM487.05 50.388V53.468H464.258V50.388H487.05ZM502.227 33.14V45.404H489.991V33.14H502.227ZM493.659 36.08V42.436H498.587V36.08H493.659ZM509.675 31.208V49.1H505.951V31.208H509.675ZM496.599 47.476V52.908H510.319V55.876H492.847V47.476H496.599Z" fill="white"/>
<path d="M3.712 22.952C3.78933 22.604 3.944 22.3527 4.176 22.198C4.408 22.0047 4.65933 21.908 4.93 21.908C5.00733 21.908 5.06533 21.908 5.104 21.908C5.14267 21.8693 5.20067 21.85 5.278 21.85C6.86333 21.6567 8.37133 21.4247 9.802 21.154C11.2327 20.8833 12.8567 20.748 14.674 20.748C15.95 20.748 17.3227 20.806 18.792 20.922C20.3 21.038 21.7693 21.2313 23.2 21.502C24.6693 21.7727 26.042 22.14 27.318 22.604C28.594 23.0293 29.6767 23.532 30.566 24.112C31.5327 24.7693 32.3447 25.62 33.002 26.664C33.6593 27.6693 34.162 28.752 34.51 29.912C34.8967 31.0333 35.148 32.1353 35.264 33.218C35.38 34.3007 35.38 35.248 35.264 36.06C35.148 36.872 35.0513 37.6453 34.974 38.38C34.8967 39.1147 34.7613 39.8107 34.568 40.468C34.4133 41.1253 34.1427 41.7827 33.756 42.44C33.408 43.0587 32.886 43.6773 32.19 44.296C30.9527 45.4947 29.6187 46.4227 28.188 47.08C26.796 47.6987 25.346 48.1627 23.838 48.472C22.33 48.7427 20.764 48.9167 19.14 48.994C17.5547 49.0713 15.95 49.1487 14.326 49.226C14.326 50.27 14.3453 51.198 14.384 52.01C14.4613 52.7833 14.5193 53.5567 14.558 54.33C14.6353 55.0647 14.674 55.838 14.674 56.65C14.7127 57.462 14.6933 58.4093 14.616 59.492C14.5773 60.1493 14.4613 60.7293 14.268 61.232C14.1133 61.7347 13.8233 62.044 13.398 62.16C13.0113 62.276 12.586 62.3147 12.122 62.276C11.6967 62.2373 11.2713 62.1987 10.846 62.16C9.95667 62.1213 9.08667 62.1213 8.236 62.16C7.38533 62.1987 6.53467 62.2373 5.684 62.276C4.94933 62.276 4.466 62.0827 4.234 61.696C4.002 61.348 3.90533 61.0193 3.944 60.71C3.98267 60.2847 3.98267 59.7627 3.944 59.144C3.90533 58.5253 3.886 58.0613 3.886 57.752C3.84733 56.94 3.828 56.128 3.828 55.316C3.86667 54.504 3.886 53.6727 3.886 52.822C3.886 50.2313 3.86667 47.6987 3.828 45.224C3.828 42.7493 3.80867 40.3133 3.77 37.916C3.77 35.48 3.75067 33.044 3.712 30.608C3.712 28.1333 3.712 25.5813 3.712 22.952ZM15.022 30.84C15.0607 32.2707 15.022 33.6627 14.906 35.016C14.8287 36.3693 14.8287 37.7613 14.906 39.192C15.0607 39.192 15.2733 39.2113 15.544 39.25C15.8533 39.25 16.1627 39.25 16.472 39.25C16.82 39.25 17.1487 39.25 17.458 39.25C17.7673 39.2113 17.98 39.192 18.096 39.192C19.024 39.1147 19.8747 38.9407 20.648 38.67C21.46 38.3607 22.1367 37.8193 22.678 37.046C23.2967 36.0793 23.49 34.9967 23.258 33.798C23.1033 32.9473 22.7167 32.3093 22.098 31.884C21.4793 31.4587 20.764 31.1687 19.952 31.014C19.14 30.8593 18.2893 30.8013 17.4 30.84C16.5107 30.84 15.718 30.84 15.022 30.84ZM38.0426 32.812C38.0426 32.812 38.0619 32.7733 38.1006 32.696C37.9072 32.3093 37.8879 31.9033 38.0426 31.478C38.1972 31.014 38.5259 30.782 39.0286 30.782H47.3226C47.5546 30.782 47.7286 30.8013 47.8446 30.84C48.1539 30.8013 48.4632 30.898 48.7726 31.13C49.0819 31.362 49.2366 31.7487 49.2366 32.29C49.2366 34.494 49.1592 36.6593 49.0046 38.786C48.8886 40.9127 48.8306 43.078 48.8306 45.282C48.8306 46.2873 48.8306 47.2733 48.8306 48.24C48.8306 49.2067 48.9659 50.0573 49.2366 50.792C49.3526 51.5267 49.5652 52.1067 49.8746 52.532C50.2226 52.9573 50.6092 53.2667 51.0346 53.46C51.4986 53.6533 51.9819 53.75 52.4846 53.75C53.0259 53.75 53.5672 53.6727 54.1086 53.518C54.3792 49.9607 54.5532 46.442 54.6306 42.962C54.7079 39.4433 54.8626 35.886 55.0946 32.29C55.1332 32.058 55.2686 31.826 55.5006 31.594C55.5779 31.4007 55.6939 31.2267 55.8486 31.072C56.0032 30.8787 56.2352 30.782 56.5446 30.782C56.8152 30.782 57.2986 30.8013 57.9946 30.84C58.6906 30.84 59.4252 30.8593 60.1986 30.898C61.0106 30.9367 61.7452 31.014 62.4026 31.13C63.0986 31.246 63.5626 31.3813 63.7946 31.536C64.1812 31.768 64.4326 32.1353 64.5486 32.638C64.7032 33.1407 64.7999 33.682 64.8386 34.262C64.8772 34.842 64.8772 35.422 64.8386 36.002C64.7999 36.5433 64.7806 37.0073 64.7806 37.394V52.706C64.9739 53.286 65.0706 53.924 65.0706 54.62C65.0706 55.316 65.1672 55.9927 65.3606 56.65C65.7859 56.998 65.9212 57.462 65.7666 58.042C65.7666 58.274 65.6892 58.4867 65.5346 58.68C65.3799 58.8347 65.2059 58.9507 65.0126 59.028C65.0126 59.5307 64.7806 59.8593 64.3166 60.014C62.6152 60.5167 60.6819 60.9613 58.5166 61.348C56.3899 61.7733 54.2439 61.986 52.0786 61.986C49.9519 61.986 47.9026 61.696 45.9306 61.116C43.9586 60.536 42.3152 59.5113 41.0006 58.042C39.8019 56.5727 39.0092 54.9487 38.6226 53.17C38.2359 51.3527 38.0426 49.574 38.0426 47.834V32.812ZM72.1579 61.696C71.6939 61.696 71.3652 61.5027 71.1719 61.116C70.8626 61 70.7079 60.6907 70.7079 60.188C70.4759 55.432 70.3406 50.676 70.3019 45.92C70.2632 41.1253 70.2439 36.3693 70.2439 31.652C70.0892 31.2653 70.0892 30.898 70.2439 30.55C70.4372 30.1633 70.7659 29.97 71.2299 29.97C72.8926 29.97 74.4586 29.9313 75.9279 29.854C77.3972 29.7767 78.8666 29.854 80.3359 30.086C80.7999 30.086 81.1479 30.1827 81.3799 30.376C81.6119 30.5693 81.7279 30.782 81.7279 31.014V33.74C82.3852 33.4307 83.1779 33.1407 84.1059 32.87C85.0339 32.5607 86.0006 32.3093 87.0059 32.116C88.0499 31.9227 89.1132 31.8067 90.1959 31.768C91.2786 31.6907 92.3032 31.71 93.2699 31.826C93.8499 32.0193 94.2946 32.29 94.6039 32.638C94.9132 32.9473 95.0872 33.4307 95.1259 34.088C95.1646 35.2093 95.0872 36.4273 94.8939 37.742C94.7006 39.0567 94.5072 40.1007 94.3139 40.874C94.2752 41.2993 94.1399 41.744 93.9079 42.208C93.6759 42.6333 93.2699 42.846 92.6899 42.846C91.4912 42.614 90.2926 42.4787 89.0939 42.44C87.8952 42.3627 86.7932 42.4787 85.7879 42.788C84.7826 43.0587 83.9126 43.6 83.1779 44.412C82.4432 45.1853 81.9599 46.2873 81.7279 47.718C81.2252 49.6127 81.0319 51.7007 81.1479 53.982C81.3026 56.2633 81.4959 58.4867 81.7279 60.652C81.7279 60.9613 81.6312 61.2127 81.4379 61.406C81.2832 61.5993 81.0899 61.7347 80.8579 61.812C80.6259 61.8893 80.3746 61.8893 80.1039 61.812C79.8719 61.7733 79.6786 61.6573 79.5239 61.464C78.2479 61.6573 77.0299 61.7347 75.8699 61.696C74.7099 61.696 73.4726 61.696 72.1579 61.696ZM96.304 71.556C95.7627 71.556 95.4147 71.324 95.26 70.86C95.144 70.4347 95.1827 70.0287 95.376 69.642V33.682C95.0667 33.45 94.9314 33.0827 94.97 32.58C95.0087 32.0387 95.2987 31.6713 95.84 31.478C97.348 31.0913 99.03 30.782 100.886 30.55C102.781 30.318 104.695 30.2407 106.628 30.318C108.6 30.3567 110.533 30.5887 112.428 31.014C114.323 31.4007 116.024 32.058 117.532 32.986C119.079 33.8753 120.355 35.0353 121.36 36.466C122.404 37.8967 123.042 39.6753 123.274 41.802C123.545 44.6633 123.429 47.4473 122.926 50.154C122.423 52.822 121.341 55.3547 119.678 57.752C118.827 58.8347 117.822 59.666 116.662 60.246C115.502 60.826 114.265 61.2127 112.95 61.406C111.674 61.5993 110.359 61.6187 109.006 61.464C107.691 61.348 106.435 61.0967 105.236 60.71C105.236 62.2953 105.255 63.842 105.294 65.35C105.371 66.8967 105.526 68.482 105.758 70.106C105.758 70.454 105.642 70.7053 105.41 70.86C105.178 71.0533 104.946 71.15 104.714 71.15C103.438 71.5753 102.046 71.7493 100.538 71.672C99.0687 71.5947 97.6574 71.556 96.304 71.556ZM112.776 47.022C112.892 45.978 112.815 44.9533 112.544 43.948C112.312 42.9427 111.906 42.0727 111.326 41.338C110.746 40.6033 110.011 40.0813 109.122 39.772C108.271 39.4627 107.305 39.482 106.222 39.83V52.59C106.879 52.5127 107.614 52.4547 108.426 52.416C109.277 52.3773 109.799 52.2807 109.992 52.126C111.152 51.8553 111.906 51.2367 112.254 50.27C112.602 49.3033 112.776 48.2207 112.776 47.022ZM128.137 19.646C128.137 19.0273 128.33 18.6213 128.717 18.428C129.142 18.2347 129.529 18.254 129.877 18.486C130.921 18.0607 131.965 17.732 133.009 17.5C134.092 17.268 135.252 17.0553 136.489 16.862C136.876 16.746 137.282 16.8233 137.707 17.094C138.171 17.3647 138.364 17.7707 138.287 18.312C138.287 19.82 138.287 21.4247 138.287 23.126C138.287 24.7887 138.287 26.49 138.287 28.23C138.287 29.97 138.287 31.6907 138.287 33.392C138.287 35.0933 138.287 36.6787 138.287 38.148V46.964V51.198C138.48 51.778 138.79 52.1453 139.215 52.3C139.64 52.4547 140.162 52.532 140.781 52.532C142.25 52.532 142.869 53.17 142.637 54.446C142.56 54.91 142.482 55.3353 142.405 55.722C142.328 56.1087 142.231 56.5147 142.115 56.94C142.038 57.3653 141.941 57.8293 141.825 58.332C141.709 58.8347 141.593 59.434 141.477 60.13C141.4 60.5553 141.226 60.884 140.955 61.116C140.684 61.348 140.201 61.5027 139.505 61.58C138.809 61.6573 138.016 61.6187 137.127 61.464C136.238 61.348 135.348 61.174 134.459 60.942C133.608 60.6713 132.835 60.4007 132.139 60.13C131.443 59.8207 130.94 59.5113 130.631 59.202C130.051 58.622 129.587 57.9647 129.239 57.23C128.93 56.4567 128.678 55.664 128.485 54.852C128.33 54.0013 128.234 53.1313 128.195 52.242C128.156 51.3527 128.137 50.4633 128.137 49.574C128.06 47.834 128.04 46.1133 128.079 44.412C128.118 42.672 128.137 40.8933 128.137 39.076V19.646ZM154.445 49.922C154.793 50.8113 155.528 51.4493 156.649 51.836C157.771 52.2227 158.989 52.4547 160.303 52.532C161.657 52.5707 162.991 52.5127 164.305 52.358C165.62 52.2033 166.645 52.01 167.379 51.778C167.689 51.7007 167.94 51.7393 168.133 51.894C168.365 52.01 168.52 52.184 168.597 52.416L168.771 52.706C168.965 53.634 169.197 54.562 169.467 55.49C169.777 56.418 170.163 57.346 170.627 58.274C170.782 58.8927 170.589 59.376 170.047 59.724C170.009 59.8013 169.951 59.8787 169.873 59.956C169.835 60.0333 169.777 60.0913 169.699 60.13C168.887 60.594 168.017 60.9613 167.089 61.232C166.2 61.5027 165.291 61.696 164.363 61.812C163.435 61.928 162.507 61.986 161.579 61.986C160.69 62.0247 159.839 62.044 159.027 62.044C155.625 62.044 152.493 61.116 149.631 59.26C148.355 58.332 147.292 57.2493 146.441 56.012C145.629 54.736 144.991 53.3827 144.527 51.952C144.063 50.5213 143.754 49.0327 143.599 47.486C143.483 45.9393 143.483 44.412 143.599 42.904C144.102 40.12 145.03 37.626 146.383 35.422C147.775 33.218 149.786 31.5167 152.415 30.318C153.575 29.854 154.832 29.564 156.185 29.448C157.539 29.332 158.892 29.39 160.245 29.622C161.637 29.8153 162.952 30.1827 164.189 30.724C165.427 31.2267 166.509 31.884 167.437 32.696C168.481 33.74 169.274 34.9193 169.815 36.234C170.395 37.51 170.801 38.8633 171.033 40.294C171.304 41.7247 171.459 43.194 171.497 44.702C171.536 46.1713 171.555 47.602 171.555 48.994C171.555 49.458 171.343 49.7673 170.917 49.922C170.531 50.0767 170.144 50.0767 169.757 49.922H169.699H154.445ZM154.097 42.034C155.451 42.034 156.746 42.0533 157.983 42.092C159.259 42.092 160.477 42.0727 161.637 42.034C161.328 41.2607 160.999 40.526 160.651 39.83C160.303 39.0953 159.646 38.6313 158.679 38.438C158.099 38.2447 157.539 38.2253 156.997 38.38C156.495 38.496 156.031 38.7473 155.605 39.134C155.219 39.482 154.89 39.9073 154.619 40.41C154.349 40.9127 154.175 41.454 154.097 42.034ZM188.821 22.952C188.899 22.604 189.053 22.3527 189.285 22.198C189.517 22.0047 189.769 21.908 190.039 21.908C190.117 21.908 190.175 21.908 190.213 21.908C190.252 21.8693 190.31 21.85 190.387 21.85C191.973 21.6567 193.481 21.4247 194.911 21.154C196.342 20.8833 197.966 20.748 199.783 20.748C201.059 20.748 202.432 20.806 203.901 20.922C205.409 21.038 206.879 21.2313 208.309 21.502C209.779 21.7727 211.151 22.14 212.427 22.604C213.703 23.0293 214.786 23.532 215.675 24.112C216.642 24.7693 217.454 25.62 218.111 26.664C218.769 27.6693 219.271 28.752 219.619 29.912C220.006 31.0333 220.257 32.1353 220.373 33.218C220.489 34.3007 220.489 35.248 220.373 36.06C220.257 36.872 220.161 37.6453 220.083 38.38C220.006 39.1147 219.871 39.8107 219.677 40.468C219.523 41.1253 219.252 41.7827 218.865 42.44C218.517 43.0587 217.995 43.6773 217.299 44.296C216.062 45.4947 214.728 46.4227 213.297 47.08C211.905 47.6987 210.455 48.1627 208.947 48.472C207.439 48.7427 205.873 48.9167 204.249 48.994C202.664 49.0713 201.059 49.1487 199.435 49.226C199.435 50.27 199.455 51.198 199.493 52.01C199.571 52.7833 199.629 53.5567 199.667 54.33C199.745 55.0647 199.783 55.838 199.783 56.65C199.822 57.462 199.803 58.4093 199.725 59.492C199.687 60.1493 199.571 60.7293 199.377 61.232C199.223 61.7347 198.933 62.044 198.507 62.16C198.121 62.276 197.695 62.3147 197.231 62.276C196.806 62.2373 196.381 62.1987 195.955 62.16C195.066 62.1213 194.196 62.1213 193.345 62.16C192.495 62.1987 191.644 62.2373 190.793 62.276C190.059 62.276 189.575 62.0827 189.343 61.696C189.111 61.348 189.015 61.0193 189.053 60.71C189.092 60.2847 189.092 59.7627 189.053 59.144C189.015 58.5253 188.995 58.0613 188.995 57.752C188.957 56.94 188.937 56.128 188.937 55.316C188.976 54.504 188.995 53.6727 188.995 52.822C188.995 50.2313 188.976 47.6987 188.937 45.224C188.937 42.7493 188.918 40.3133 188.879 37.916C188.879 35.48 188.86 33.044 188.821 30.608C188.821 28.1333 188.821 25.5813 188.821 22.952ZM200.131 30.84C200.17 32.2707 200.131 33.6627 200.015 35.016C199.938 36.3693 199.938 37.7613 200.015 39.192C200.17 39.192 200.383 39.2113 200.653 39.25C200.963 39.25 201.272 39.25 201.581 39.25C201.929 39.25 202.258 39.25 202.567 39.25C202.877 39.2113 203.089 39.192 203.205 39.192C204.133 39.1147 204.984 38.9407 205.757 38.67C206.569 38.3607 207.246 37.8193 207.787 37.046C208.406 36.0793 208.599 34.9967 208.367 33.798C208.213 32.9473 207.826 32.3093 207.207 31.884C206.589 31.4587 205.873 31.1687 205.061 31.014C204.249 30.8593 203.399 30.8013 202.509 30.84C201.62 30.84 200.827 30.84 200.131 30.84ZM224.254 61.754C223.828 61.754 223.519 61.5413 223.326 61.116C223.171 60.7293 223.19 60.362 223.384 60.014V33.74C223.152 33.3147 223.19 32.87 223.5 32.406C223.654 32.1353 223.867 31.9807 224.138 31.942C224.447 31.8647 224.756 31.884 225.066 32H232.026C232.258 32 232.451 32.0773 232.606 32.232C232.76 32.348 232.876 32.5027 232.954 32.696C233.379 32.928 233.534 33.2953 233.418 33.798C233.186 36.118 233.07 38.3413 233.07 40.468C233.07 42.556 233.07 44.76 233.07 47.08C233.07 47.9693 233.05 48.9553 233.012 50.038C232.973 51.1207 232.934 52.2227 232.896 53.344C232.857 54.4653 232.838 55.5673 232.838 56.65C232.838 57.694 232.876 58.6413 232.954 59.492C232.954 59.5307 232.954 59.5693 232.954 59.608C232.992 59.608 233.012 59.6273 233.012 59.666C233.205 59.782 233.34 59.956 233.418 60.188C233.495 60.42 233.495 60.652 233.418 60.884C233.379 61.116 233.282 61.3093 233.128 61.464C232.973 61.6573 232.76 61.754 232.49 61.754H224.254ZM230.228 28.694C229.609 28.81 228.932 28.8487 228.198 28.81C227.463 28.7327 226.767 28.5587 226.11 28.288C225.452 28.0173 224.853 27.6307 224.312 27.128C223.809 26.5867 223.48 25.8907 223.326 25.04C223.094 24.344 222.978 23.6093 222.978 22.836C223.016 22.024 223.152 21.27 223.384 20.574C223.654 19.8393 224.041 19.2207 224.544 18.718C225.085 18.2153 225.742 17.906 226.516 17.79C228.14 17.558 229.648 17.7707 231.04 18.428C232.47 19.0467 233.398 20.0327 233.824 21.386C234.056 22.198 234.152 22.9907 234.114 23.764C234.075 24.5373 233.901 25.2527 233.592 25.91C233.282 26.5673 232.838 27.1473 232.258 27.65C231.716 28.114 231.04 28.462 230.228 28.694ZM237.781 20.284C237.781 19.9747 237.858 19.7427 238.013 19.588C238.206 19.4333 238.419 19.3173 238.651 19.24C238.767 19.0467 238.941 18.9113 239.173 18.834C240.41 18.37 241.628 18.0027 242.827 17.732C244.064 17.4227 245.418 17.152 246.887 16.92C247.351 16.7653 247.776 16.8427 248.163 17.152C248.55 17.4227 248.743 17.8287 248.743 18.37C248.743 21.9273 248.743 25.388 248.743 28.752C248.782 32.116 248.898 35.5573 249.091 39.076C250.058 38.032 250.986 36.9687 251.875 35.886C252.764 34.8033 253.634 33.682 254.485 32.522C254.678 32.1353 254.91 31.768 255.181 31.42C255.49 31.072 255.877 30.898 256.341 30.898C258.042 30.898 259.802 30.9173 261.619 30.956C263.436 30.9947 265.118 31.0527 266.665 31.13C266.742 31.13 266.82 31.1493 266.897 31.188C267.052 31.2653 267.129 31.4007 267.129 31.594C267.245 32.174 267.168 32.754 266.897 33.334C266.665 33.8753 266.317 34.3973 265.853 34.9C265.428 35.4027 264.944 35.886 264.403 36.35C263.9 36.7753 263.475 37.162 263.127 37.51C261.928 38.7473 260.71 40.0427 259.473 41.396C258.274 42.7107 257.23 43.8707 256.341 44.876C256.186 45.0693 256.09 45.1853 256.051 45.224C256.515 45.7267 256.998 46.2873 257.501 46.906C258.042 47.5247 258.584 48.1627 259.125 48.82C259.705 49.4387 260.266 50.0767 260.807 50.734C261.387 51.3527 261.948 51.9327 262.489 52.474C263.417 53.6727 264.364 54.7747 265.331 55.78C266.336 56.7853 267.206 57.8873 267.941 59.086C268.405 59.55 268.482 59.9947 268.173 60.42C267.864 60.8067 267.477 61 267.013 61C265.621 61 264.171 61 262.663 61C261.155 61.0387 259.628 61.116 258.081 61.232C257.888 61.4253 257.656 61.5413 257.385 61.58C257.114 61.6187 256.882 61.5413 256.689 61.348L255.355 59.318C254.388 57.926 253.402 56.5533 252.397 55.2C251.43 53.8467 250.386 52.5707 249.265 51.372V59.55C249.265 59.8207 249.149 60.072 248.917 60.304C248.878 60.6133 248.782 60.884 248.627 61.116C248.472 61.348 248.221 61.464 247.873 61.464C246.404 61.232 245.07 61.116 243.871 61.116C242.711 61.116 241.396 61.232 239.927 61.464C239.463 61.464 239.134 61.29 238.941 60.942C238.632 60.71 238.477 60.4007 238.477 60.014C238.245 58.3513 238.168 56.766 238.245 55.258C238.322 53.75 238.496 52.1453 238.767 50.444C238.96 49.0133 239.018 47.486 238.941 45.862C238.864 44.238 238.825 42.5753 238.825 40.874C238.825 37.4713 238.767 34.0493 238.651 30.608C238.574 27.128 238.284 23.6867 237.781 20.284ZM272.722 61.406C272.219 61.522 271.813 61.4833 271.504 61.29C271.233 61.0967 271.059 60.8453 270.982 60.536C270.866 60.3813 270.808 60.1687 270.808 59.898C270.808 55.4127 270.731 51.0433 270.576 46.79C270.421 42.5367 270.344 38.148 270.344 33.624C270.344 33.3147 270.421 33.0827 270.576 32.928L270.808 32.696C272.703 31.7293 274.597 31.014 276.492 30.55C278.425 30.086 280.436 29.854 282.524 29.854C283.491 29.854 284.457 29.8733 285.424 29.912C286.391 29.9507 287.299 30.0667 288.15 30.26C289.039 30.4533 289.851 30.782 290.586 31.246C291.321 31.71 291.92 32.348 292.384 33.16C292.461 33.2373 292.5 33.3147 292.5 33.392C294.008 32.7347 295.555 32.2127 297.14 31.826C298.764 31.4007 300.349 31.246 301.896 31.362C303.443 31.478 304.893 31.9227 306.246 32.696C307.599 33.4693 308.798 34.7067 309.842 36.408C310.731 38.0707 311.331 39.8107 311.64 41.628C311.988 43.4067 312.162 45.1467 312.162 46.848V60.42C312.162 60.8453 311.988 61.1353 311.64 61.29C311.331 61.4833 311.002 61.5413 310.654 61.464C310.229 61.5413 309.784 61.5413 309.32 61.464C308.895 61.4253 308.431 61.406 307.928 61.406H302.766H302.592C302.244 61.5607 301.877 61.5413 301.49 61.348C301.103 61.1933 300.91 60.884 300.91 60.42C300.91 59.492 300.929 58.5253 300.968 57.52C301.007 56.5147 301.045 55.3547 301.084 54.04C301.161 52.7253 301.219 51.2173 301.258 49.516C301.335 47.8147 301.374 45.7653 301.374 43.368C301.374 42.904 301.219 42.3433 300.91 41.686C300.601 41.0287 300.214 40.4873 299.75 40.062C299.286 39.598 298.764 39.3467 298.184 39.308C297.643 39.2307 297.14 39.54 296.676 40.236L296.444 40.468C296.985 43.832 297.217 47.1573 297.14 50.444C297.101 53.7307 297.063 57.056 297.024 60.42C297.063 60.6133 297.024 60.8067 296.908 61C296.792 61.1933 296.637 61.3673 296.444 61.522C296.251 61.6767 296.038 61.7927 295.806 61.87C295.613 61.9473 295.439 61.9473 295.284 61.87H287.686C287.299 61.87 286.99 61.7927 286.758 61.638C286.565 61.4833 286.429 61.29 286.352 61.058C286.275 60.826 286.275 60.594 286.352 60.362C286.429 60.13 286.584 59.9367 286.816 59.782V48.066C286.7 47.37 286.584 46.4807 286.468 45.398C286.391 44.2767 286.178 43.252 285.83 42.324C285.482 41.396 284.921 40.7193 284.148 40.294C283.413 39.8687 282.331 39.9847 280.9 40.642V59.898C280.9 60.478 280.726 60.884 280.378 61.116C280.069 61.348 279.759 61.4253 279.45 61.348C278.29 61.116 277.169 61 276.086 61C275.003 61 273.882 61.1353 272.722 61.406ZM318.24 61.754C317.815 61.754 317.505 61.5413 317.312 61.116C317.157 60.7293 317.177 60.362 317.37 60.014V33.74C317.138 33.3147 317.177 32.87 317.486 32.406C317.641 32.1353 317.853 31.9807 318.124 31.942C318.433 31.8647 318.743 31.884 319.052 32H326.012C326.244 32 326.437 32.0773 326.592 32.232C326.747 32.348 326.863 32.5027 326.94 32.696C327.365 32.928 327.52 33.2953 327.404 33.798C327.172 36.118 327.056 38.3413 327.056 40.468C327.056 42.556 327.056 44.76 327.056 47.08C327.056 47.9693 327.037 48.9553 326.998 50.038C326.959 51.1207 326.921 52.2227 326.882 53.344C326.843 54.4653 326.824 55.5673 326.824 56.65C326.824 57.694 326.863 58.6413 326.94 59.492C326.94 59.5307 326.94 59.5693 326.94 59.608C326.979 59.608 326.998 59.6273 326.998 59.666C327.191 59.782 327.327 59.956 327.404 60.188C327.481 60.42 327.481 60.652 327.404 60.884C327.365 61.116 327.269 61.3093 327.114 61.464C326.959 61.6573 326.747 61.754 326.476 61.754H318.24ZM324.214 28.694C323.595 28.81 322.919 28.8487 322.184 28.81C321.449 28.7327 320.753 28.5587 320.096 28.288C319.439 28.0173 318.839 27.6307 318.298 27.128C317.795 26.5867 317.467 25.8907 317.312 25.04C317.08 24.344 316.964 23.6093 316.964 22.836C317.003 22.024 317.138 21.27 317.37 20.574C317.641 19.8393 318.027 19.2207 318.53 18.718C319.071 18.2153 319.729 17.906 320.502 17.79C322.126 17.558 323.634 17.7707 325.026 18.428C326.457 19.0467 327.385 20.0327 327.81 21.386C328.042 22.198 328.139 22.9907 328.1 23.764C328.061 24.5373 327.887 25.2527 327.578 25.91C327.269 26.5673 326.824 27.1473 326.244 27.65C325.703 28.114 325.026 28.462 324.214 28.694ZM333.855 61.986C333.507 61.986 333.237 61.87 333.043 61.638C332.889 61.406 332.792 61.1547 332.753 60.884C332.521 60.7293 332.405 60.4393 332.405 60.014C332.637 55.722 332.773 51.4107 332.811 47.08C332.85 42.7107 332.869 38.3607 332.869 34.03C332.676 33.45 332.85 32.9667 333.391 32.58C335.325 31.5747 337.335 30.9173 339.423 30.608C341.55 30.2987 343.715 30.144 345.919 30.144C347.891 30.144 349.786 30.3373 351.603 30.724C353.459 31.1107 355.103 32.0193 356.533 33.45C357.152 34.1847 357.616 34.9967 357.925 35.886C358.273 36.7753 358.525 37.7033 358.679 38.67C358.834 39.598 358.911 40.526 358.911 41.454C358.95 42.382 358.969 43.2713 358.969 44.122C359.201 47.022 359.279 49.806 359.201 52.474C359.124 55.142 359.201 57.81 359.433 60.478C359.433 60.826 359.317 61.0967 359.085 61.29C358.853 61.4833 358.583 61.58 358.273 61.58C358.08 61.8507 357.809 61.986 357.461 61.986H352.241C351.855 61.986 351.565 61.8507 351.371 61.58C351.062 61.58 350.791 61.4833 350.559 61.29C350.366 61.0967 350.269 60.826 350.269 60.478V47.022C350.269 46.558 350.25 46.036 350.211 45.456C350.211 44.876 350.173 44.296 350.095 43.716C350.057 43.136 349.979 42.5947 349.863 42.092C349.747 41.5507 349.573 41.106 349.341 40.758C349.071 40.2553 348.684 39.9267 348.181 39.772C347.679 39.6173 347.118 39.5593 346.499 39.598C345.919 39.6367 345.32 39.7333 344.701 39.888C344.083 40.004 343.522 40.12 343.019 40.236C343.019 43.6387 343.058 47.0027 343.135 50.328C343.213 53.6533 343.251 56.882 343.251 60.014C343.251 60.4007 343.174 60.71 343.019 60.942C342.865 61.174 342.691 61.3287 342.497 61.406L342.381 61.522C341.84 61.754 341.26 61.8893 340.641 61.928C340.023 61.9667 339.462 61.986 338.959 61.986H333.855Z" fill="#333333"/>
</svg>
