<svg width="441" height="87" viewBox="0 0 441 87" fill="none" xmlns="http://www.w3.org/2000/svg">
<path d="M339.7 31.208V35.996H342.024V39.02H339.7V44.172H336.032V31.208H339.7ZM322.06 32.244V34.96H323.46V32.244H326.456V43.388H319.064V32.244H322.06ZM322.06 40.504H323.46V37.788H322.06V40.504ZM330.432 32.244V34.96H331.776V32.244H334.8V43.388H327.408V32.244H330.432ZM330.432 40.504H331.776V37.788H330.432V40.504ZM339.7 45.04V51.9H326.148V53.356H340.484V56.24H322.48V49.24H336.004V47.868H322.424V45.04H339.7ZM363.137 31.18V37.004H366.469V40.084H363.137V45.712H359.413V31.18H363.137ZM356.221 32.804C356.221 36.1827 355.222 39.0293 353.225 41.344C351.227 43.6587 348.353 45.3293 344.601 46.356L343.089 43.388C345.758 42.6787 347.858 41.6613 349.389 40.336C350.919 39.0107 351.825 37.4987 352.105 35.8H344.293V32.804H356.221ZM354.989 46.076C356.669 46.076 358.143 46.2907 359.413 46.72C360.701 47.1307 361.69 47.728 362.381 48.512C363.09 49.2773 363.445 50.1827 363.445 51.228C363.445 52.2733 363.09 53.188 362.381 53.972C361.69 54.756 360.701 55.3533 359.413 55.764C358.143 56.1933 356.669 56.408 354.989 56.408C353.29 56.408 351.797 56.1933 350.509 55.764C349.221 55.3533 348.222 54.756 347.513 53.972C346.822 53.188 346.477 52.2733 346.477 51.228C346.477 50.1827 346.822 49.2773 347.513 48.512C348.222 47.728 349.221 47.1307 350.509 46.72C351.797 46.2907 353.29 46.076 354.989 46.076ZM354.989 48.932C353.458 48.932 352.273 49.128 351.433 49.52C350.593 49.912 350.173 50.4813 350.173 51.228C350.173 51.9747 350.593 52.5533 351.433 52.964C352.273 53.356 353.458 53.552 354.989 53.552C356.519 53.552 357.695 53.356 358.517 52.964C359.357 52.5533 359.777 51.9747 359.777 51.228C359.777 50.4813 359.357 49.912 358.517 49.52C357.695 49.128 356.519 48.932 354.989 48.932ZM388.785 31.208V56.408H385.033V31.208H388.785ZM382.513 33.476V36.444H380.357V47.252C381.123 47.196 382.149 47.0933 383.437 46.944L383.661 49.632C381.309 50.0427 378.883 50.3133 376.381 50.444C373.88 50.5747 371.099 50.6493 368.037 50.668L367.701 47.644H370.501V36.444H368.345V33.476H382.513ZM376.773 47.476V36.444H374.085V47.56L376.773 47.476ZM412.81 33.336V36.248C412.81 38.656 412.745 40.756 412.614 42.548C412.483 44.34 412.147 46.468 411.606 48.932L407.938 48.596C408.367 46.748 408.675 44.8907 408.862 43.024L394.526 43.752L394.078 40.756L409.058 40.28C409.095 39.3653 409.114 38.0493 409.114 36.332H394.806V33.336H412.81ZM415.05 50.388V53.468H392.258V50.388H415.05ZM430.227 33.14V45.404H417.991V33.14H430.227ZM421.659 36.08V42.436H426.587V36.08H421.659ZM437.675 31.208V49.1H433.951V31.208H437.675ZM424.599 47.476V52.908H438.319V55.876H420.847V47.476H424.599Z" fill="#555555"/>
<path d="M5.684 61.174C5.336 61.3673 4.93 61.3673 4.466 61.174C4.04067 61.0193 3.828 60.6907 3.828 60.188C4.06 53.9627 4.19533 47.8533 4.234 41.86C4.27267 35.828 4.292 29.6993 4.292 23.474C4.09867 23.126 4.02133 22.7587 4.06 22.372C4.13733 21.9853 4.38867 21.7147 4.814 21.56C6.786 21.0187 8.71933 20.7093 10.614 20.632C12.5087 20.516 14.558 20.4967 16.762 20.574C18.0767 20.6127 19.3913 20.748 20.706 20.98C22.0593 21.1733 23.374 21.502 24.65 21.966C25.926 22.3913 27.1247 22.952 28.246 23.648C29.406 24.3053 30.45 25.1367 31.378 26.142C32.4607 27.3793 33.3113 28.578 33.93 29.738C34.5873 30.8593 34.9547 32.0967 35.032 33.45C35.0707 34.726 34.9933 36.002 34.8 37.278C34.6067 38.5153 34.2393 39.6947 33.698 40.816C33.1953 41.8987 32.4993 42.904 31.61 43.832C30.7593 44.76 29.696 45.514 28.42 46.094C29.1547 47.0993 29.7927 48.1433 30.334 49.226C30.914 50.3087 31.4553 51.3913 31.958 52.474C32.4993 53.5567 33.06 54.62 33.64 55.664C34.22 56.708 34.8967 57.6747 35.67 58.564H35.728C35.9987 58.9893 36.076 59.434 35.96 59.898C35.8827 60.3233 35.7667 60.6907 35.612 61C35.1867 61.0387 34.452 61.0773 33.408 61.116C32.4027 61.1933 31.3587 61.232 30.276 61.232C29.1933 61.2707 28.2073 61.2707 27.318 61.232C26.4287 61.1933 25.9067 61.0967 25.752 60.942C25.056 60.362 24.3987 59.492 23.78 58.332C23.1613 57.172 22.562 56.0893 21.982 55.084C21.6727 54.62 21.3827 54.156 21.112 53.692C20.88 53.228 20.6093 52.7447 20.3 52.242C20.0293 51.7007 19.7007 51.1013 19.314 50.444C18.966 49.7867 18.5407 48.994 18.038 48.066C17.574 48.066 17.052 48.066 16.472 48.066C15.9307 48.0273 15.4473 48.0467 15.022 48.124C15.2153 49.98 15.312 51.894 15.312 53.866C15.3507 55.7993 15.37 57.7327 15.37 59.666C15.2153 60.014 14.964 60.2847 14.616 60.478C14.3067 60.6327 13.9973 60.71 13.688 60.71C13.4947 60.942 13.2433 61.058 12.934 61.058C12.1993 61.174 11.542 61.2513 10.962 61.29C10.4207 61.3287 9.87933 61.3287 9.338 61.29C8.83533 61.29 8.294 61.2707 7.714 61.232C7.17267 61.1933 6.53467 61.174 5.8 61.174H5.684ZM15.196 31.072C15.2347 32.4253 15.2927 33.7013 15.37 34.9C15.486 36.06 15.4473 37.3167 15.254 38.67C15.95 38.67 16.7427 38.67 17.632 38.67C18.56 38.67 19.4107 38.554 20.184 38.322C20.9573 38.09 21.6147 37.7033 22.156 37.162C22.6973 36.582 22.968 35.712 22.968 34.552C22.968 33.624 22.7167 32.928 22.214 32.464C21.7113 31.9613 21.0733 31.6133 20.3 31.42C19.5267 31.2267 18.676 31.13 17.748 31.13C16.8587 31.0913 16.008 31.072 15.196 31.072ZM49.7853 49.922C50.1333 50.8113 50.868 51.4493 51.9893 51.836C53.1106 52.2227 54.3286 52.4547 55.6433 52.532C56.9966 52.5707 58.3306 52.5127 59.6453 52.358C60.96 52.2033 61.9846 52.01 62.7193 51.778C63.0286 51.7007 63.28 51.7393 63.4733 51.894C63.7053 52.01 63.86 52.184 63.9373 52.416L64.1113 52.706C64.3046 53.634 64.5366 54.562 64.8073 55.49C65.1166 56.418 65.5033 57.346 65.9673 58.274C66.122 58.8927 65.9286 59.376 65.3873 59.724C65.3486 59.8013 65.2906 59.8787 65.2133 59.956C65.1746 60.0333 65.1166 60.0913 65.0393 60.13C64.2273 60.594 63.3573 60.9613 62.4293 61.232C61.54 61.5027 60.6313 61.696 59.7033 61.812C58.7753 61.928 57.8473 61.986 56.9193 61.986C56.03 62.0247 55.1793 62.044 54.3673 62.044C50.9646 62.044 47.8326 61.116 44.9713 59.26C43.6953 58.332 42.632 57.2493 41.7813 56.012C40.9693 54.736 40.3313 53.3827 39.8673 51.952C39.4033 50.5213 39.094 49.0327 38.9393 47.486C38.8233 45.9393 38.8233 44.412 38.9393 42.904C39.442 40.12 40.37 37.626 41.7233 35.422C43.1153 33.218 45.126 31.5167 47.7553 30.318C48.9153 29.854 50.172 29.564 51.5253 29.448C52.8786 29.332 54.232 29.39 55.5853 29.622C56.9773 29.8153 58.292 30.1827 59.5293 30.724C60.7666 31.2267 61.8493 31.884 62.7773 32.696C63.8213 33.74 64.614 34.9193 65.1553 36.234C65.7353 37.51 66.1413 38.8633 66.3733 40.294C66.644 41.7247 66.7986 43.194 66.8373 44.702C66.876 46.1713 66.8953 47.602 66.8953 48.994C66.8953 49.458 66.6826 49.7673 66.2573 49.922C65.8706 50.0767 65.484 50.0767 65.0973 49.922H65.0393H49.7853ZM49.4373 42.034C50.7906 42.034 52.086 42.0533 53.3233 42.092C54.5993 42.092 55.8173 42.0727 56.9773 42.034C56.668 41.2607 56.3393 40.526 55.9913 39.83C55.6433 39.0953 54.986 38.6313 54.0193 38.438C53.4393 38.2447 52.8786 38.2253 52.3373 38.38C51.8346 38.496 51.3706 38.7473 50.9453 39.134C50.5586 39.482 50.23 39.9073 49.9593 40.41C49.6886 40.9127 49.5146 41.454 49.4373 42.034ZM88.8954 19.646C88.8954 19.1047 89.2048 18.7567 89.8234 18.602C89.9394 18.4473 90.1328 18.312 90.4034 18.196C91.6021 17.964 92.7621 17.732 93.8834 17.5C95.0434 17.268 96.1068 17.0167 97.0734 16.746C97.7308 16.5913 98.3301 16.6107 98.8714 16.804C99.4514 16.9587 99.6641 17.4227 99.5094 18.196C99.0068 24.9627 98.7361 31.826 98.6974 38.786C98.6588 45.7073 98.7554 52.6673 98.9874 59.666C98.9874 60.13 98.7941 60.4587 98.4074 60.652C98.0208 60.8067 97.6534 60.8067 97.3054 60.652C95.5654 60.9613 93.6901 61.174 91.6794 61.29C89.7074 61.406 87.7354 61.3673 85.7634 61.174C83.8301 60.9807 81.9548 60.6133 80.1374 60.072C78.3588 59.5307 76.7541 58.738 75.3234 57.694C73.8928 56.65 72.7134 55.3547 71.7854 53.808C70.8961 52.2227 70.3741 50.3087 70.2194 48.066C70.2194 46.7513 70.2581 45.3787 70.3354 43.948C70.4514 42.4787 70.6448 41.0287 70.9154 39.598C71.1861 38.1673 71.5728 36.814 72.0754 35.538C72.5781 34.262 73.2548 33.16 74.1054 32.232C75.1494 31.188 76.2708 30.492 77.4694 30.144C78.7068 29.7573 79.9634 29.6027 81.2394 29.68C82.5541 29.7187 83.8494 29.9313 85.1254 30.318C86.4401 30.666 87.6968 31.072 88.8954 31.536V19.646ZM88.4894 53.286C88.6054 53.2473 88.7794 53.228 89.0114 53.228C89.2048 51.14 89.3208 49.11 89.3594 47.138C89.3981 45.1273 89.4174 43.1747 89.4174 41.28C88.7214 40.3133 87.8321 39.772 86.7494 39.656C85.6668 39.54 84.6421 39.6173 83.6754 39.888C83.0954 40.004 82.6121 40.2747 82.2254 40.7C81.8388 41.0867 81.5294 41.5507 81.2974 42.092C81.0654 42.6333 80.9108 43.2327 80.8334 43.89C80.7561 44.5087 80.7174 45.108 80.7174 45.688C80.7174 46.8093 80.8914 47.8533 81.2394 48.82C81.6261 49.7867 82.1481 50.6373 82.8054 51.372C83.4628 52.068 84.2748 52.59 85.2414 52.938C86.2081 53.286 87.2908 53.402 88.4894 53.286ZM117.038 22.952C117.115 22.604 117.27 22.3527 117.502 22.198C117.734 22.0047 117.985 21.908 118.256 21.908C118.333 21.908 118.391 21.908 118.43 21.908C118.469 21.8693 118.527 21.85 118.604 21.85C120.189 21.6567 121.697 21.4247 123.128 21.154C124.559 20.8833 126.183 20.748 128 20.748C129.276 20.748 130.649 20.806 132.118 20.922C133.626 21.038 135.095 21.2313 136.526 21.502C137.995 21.7727 139.368 22.14 140.644 22.604C141.92 23.0293 143.003 23.532 143.892 24.112C144.859 24.7693 145.671 25.62 146.328 26.664C146.985 27.6693 147.488 28.752 147.836 29.912C148.223 31.0333 148.474 32.1353 148.59 33.218C148.706 34.3007 148.706 35.248 148.59 36.06C148.474 36.872 148.377 37.6453 148.3 38.38C148.223 39.1147 148.087 39.8107 147.894 40.468C147.739 41.1253 147.469 41.7827 147.082 42.44C146.734 43.0587 146.212 43.6773 145.516 44.296C144.279 45.4947 142.945 46.4227 141.514 47.08C140.122 47.6987 138.672 48.1627 137.164 48.472C135.656 48.7427 134.09 48.9167 132.466 48.994C130.881 49.0713 129.276 49.1487 127.652 49.226C127.652 50.27 127.671 51.198 127.71 52.01C127.787 52.7833 127.845 53.5567 127.884 54.33C127.961 55.0647 128 55.838 128 56.65C128.039 57.462 128.019 58.4093 127.942 59.492C127.903 60.1493 127.787 60.7293 127.594 61.232C127.439 61.7347 127.149 62.044 126.724 62.16C126.337 62.276 125.912 62.3147 125.448 62.276C125.023 62.2373 124.597 62.1987 124.172 62.16C123.283 62.1213 122.413 62.1213 121.562 62.16C120.711 62.1987 119.861 62.2373 119.01 62.276C118.275 62.276 117.792 62.0827 117.56 61.696C117.328 61.348 117.231 61.0193 117.27 60.71C117.309 60.2847 117.309 59.7627 117.27 59.144C117.231 58.5253 117.212 58.0613 117.212 57.752C117.173 56.94 117.154 56.128 117.154 55.316C117.193 54.504 117.212 53.6727 117.212 52.822C117.212 50.2313 117.193 47.6987 117.154 45.224C117.154 42.7493 117.135 40.3133 117.096 37.916C117.096 35.48 117.077 33.044 117.038 30.608C117.038 28.1333 117.038 25.5813 117.038 22.952ZM128.348 30.84C128.387 32.2707 128.348 33.6627 128.232 35.016C128.155 36.3693 128.155 37.7613 128.232 39.192C128.387 39.192 128.599 39.2113 128.87 39.25C129.179 39.25 129.489 39.25 129.798 39.25C130.146 39.25 130.475 39.25 130.784 39.25C131.093 39.2113 131.306 39.192 131.422 39.192C132.35 39.1147 133.201 38.9407 133.974 38.67C134.786 38.3607 135.463 37.8193 136.004 37.046C136.623 36.0793 136.816 34.9967 136.584 33.798C136.429 32.9473 136.043 32.3093 135.424 31.884C134.805 31.4587 134.09 31.1687 133.278 31.014C132.466 30.8593 131.615 30.8013 130.726 30.84C129.837 30.84 129.044 30.84 128.348 30.84ZM152.471 61.754C152.045 61.754 151.736 61.5413 151.543 61.116C151.388 60.7293 151.407 60.362 151.601 60.014V33.74C151.369 33.3147 151.407 32.87 151.717 32.406C151.871 32.1353 152.084 31.9807 152.355 31.942C152.664 31.8647 152.973 31.884 153.283 32H160.243C160.475 32 160.668 32.0773 160.823 32.232C160.977 32.348 161.093 32.5027 161.171 32.696C161.596 32.928 161.751 33.2953 161.635 33.798C161.403 36.118 161.287 38.3413 161.287 40.468C161.287 42.556 161.287 44.76 161.287 47.08C161.287 47.9693 161.267 48.9553 161.229 50.038C161.19 51.1207 161.151 52.2227 161.113 53.344C161.074 54.4653 161.055 55.5673 161.055 56.65C161.055 57.694 161.093 58.6413 161.171 59.492C161.171 59.5307 161.171 59.5693 161.171 59.608C161.209 59.608 161.229 59.6273 161.229 59.666C161.422 59.782 161.557 59.956 161.635 60.188C161.712 60.42 161.712 60.652 161.635 60.884C161.596 61.116 161.499 61.3093 161.345 61.464C161.19 61.6573 160.977 61.754 160.707 61.754H152.471ZM158.445 28.694C157.826 28.81 157.149 28.8487 156.415 28.81C155.68 28.7327 154.984 28.5587 154.327 28.288C153.669 28.0173 153.07 27.6307 152.529 27.128C152.026 26.5867 151.697 25.8907 151.543 25.04C151.311 24.344 151.195 23.6093 151.195 22.836C151.233 22.024 151.369 21.27 151.601 20.574C151.871 19.8393 152.258 19.2207 152.761 18.718C153.302 18.2153 153.959 17.906 154.733 17.79C156.357 17.558 157.865 17.7707 159.257 18.428C160.687 19.0467 161.615 20.0327 162.041 21.386C162.273 22.198 162.369 22.9907 162.331 23.764C162.292 24.5373 162.118 25.2527 161.809 25.91C161.499 26.5673 161.055 27.1473 160.475 27.65C159.933 28.114 159.257 28.462 158.445 28.694ZM165.998 20.284C165.998 19.9747 166.075 19.7427 166.23 19.588C166.423 19.4333 166.636 19.3173 166.868 19.24C166.984 19.0467 167.158 18.9113 167.39 18.834C168.627 18.37 169.845 18.0027 171.044 17.732C172.281 17.4227 173.634 17.152 175.104 16.92C175.568 16.7653 175.993 16.8427 176.38 17.152C176.766 17.4227 176.96 17.8287 176.96 18.37C176.96 21.9273 176.96 25.388 176.96 28.752C176.998 32.116 177.114 35.5573 177.308 39.076C178.274 38.032 179.202 36.9687 180.092 35.886C180.981 34.8033 181.851 33.682 182.702 32.522C182.895 32.1353 183.127 31.768 183.398 31.42C183.707 31.072 184.094 30.898 184.558 30.898C186.259 30.898 188.018 30.9173 189.836 30.956C191.653 30.9947 193.335 31.0527 194.882 31.13C194.959 31.13 195.036 31.1493 195.114 31.188C195.268 31.2653 195.346 31.4007 195.346 31.594C195.462 32.174 195.384 32.754 195.114 33.334C194.882 33.8753 194.534 34.3973 194.07 34.9C193.644 35.4027 193.161 35.886 192.62 36.35C192.117 36.7753 191.692 37.162 191.344 37.51C190.145 38.7473 188.927 40.0427 187.69 41.396C186.491 42.7107 185.447 43.8707 184.558 44.876C184.403 45.0693 184.306 45.1853 184.268 45.224C184.732 45.7267 185.215 46.2873 185.718 46.906C186.259 47.5247 186.8 48.1627 187.342 48.82C187.922 49.4387 188.482 50.0767 189.024 50.734C189.604 51.3527 190.164 51.9327 190.706 52.474C191.634 53.6727 192.581 54.7747 193.548 55.78C194.553 56.7853 195.423 57.8873 196.158 59.086C196.622 59.55 196.699 59.9947 196.39 60.42C196.08 60.8067 195.694 61 195.23 61C193.838 61 192.388 61 190.88 61C189.372 61.0387 187.844 61.116 186.298 61.232C186.104 61.4253 185.872 61.5413 185.602 61.58C185.331 61.6187 185.099 61.5413 184.906 61.348L183.572 59.318C182.605 57.926 181.619 56.5533 180.614 55.2C179.647 53.8467 178.603 52.5707 177.482 51.372V59.55C177.482 59.8207 177.366 60.072 177.134 60.304C177.095 60.6133 176.998 60.884 176.844 61.116C176.689 61.348 176.438 61.464 176.09 61.464C174.62 61.232 173.286 61.116 172.088 61.116C170.928 61.116 169.613 61.232 168.144 61.464C167.68 61.464 167.351 61.29 167.158 60.942C166.848 60.71 166.694 60.4007 166.694 60.014C166.462 58.3513 166.384 56.766 166.462 55.258C166.539 53.75 166.713 52.1453 166.984 50.444C167.177 49.0133 167.235 47.486 167.158 45.862C167.08 44.238 167.042 42.5753 167.042 40.874C167.042 37.4713 166.984 34.0493 166.868 30.608C166.79 27.128 166.5 23.6867 165.998 20.284ZM200.939 61.406C200.436 61.522 200.03 61.4833 199.721 61.29C199.45 61.0967 199.276 60.8453 199.199 60.536C199.083 60.3813 199.025 60.1687 199.025 59.898C199.025 55.4127 198.947 51.0433 198.793 46.79C198.638 42.5367 198.561 38.148 198.561 33.624C198.561 33.3147 198.638 33.0827 198.793 32.928L199.025 32.696C200.919 31.7293 202.814 31.014 204.709 30.55C206.642 30.086 208.653 29.854 210.741 29.854C211.707 29.854 212.674 29.8733 213.641 29.912C214.607 29.9507 215.516 30.0667 216.367 30.26C217.256 30.4533 218.068 30.782 218.803 31.246C219.537 31.71 220.137 32.348 220.601 33.16C220.678 33.2373 220.717 33.3147 220.717 33.392C222.225 32.7347 223.771 32.2127 225.357 31.826C226.981 31.4007 228.566 31.246 230.113 31.362C231.659 31.478 233.109 31.9227 234.463 32.696C235.816 33.4693 237.015 34.7067 238.059 36.408C238.948 38.0707 239.547 39.8107 239.857 41.628C240.205 43.4067 240.379 45.1467 240.379 46.848V60.42C240.379 60.8453 240.205 61.1353 239.857 61.29C239.547 61.4833 239.219 61.5413 238.871 61.464C238.445 61.5413 238.001 61.5413 237.537 61.464C237.111 61.4253 236.647 61.406 236.145 61.406H230.983H230.809C230.461 61.5607 230.093 61.5413 229.707 61.348C229.32 61.1933 229.127 60.884 229.127 60.42C229.127 59.492 229.146 58.5253 229.185 57.52C229.223 56.5147 229.262 55.3547 229.301 54.04C229.378 52.7253 229.436 51.2173 229.475 49.516C229.552 47.8147 229.591 45.7653 229.591 43.368C229.591 42.904 229.436 42.3433 229.127 41.686C228.817 41.0287 228.431 40.4873 227.967 40.062C227.503 39.598 226.981 39.3467 226.401 39.308C225.859 39.2307 225.357 39.54 224.893 40.236L224.661 40.468C225.202 43.832 225.434 47.1573 225.357 50.444C225.318 53.7307 225.279 57.056 225.241 60.42C225.279 60.6133 225.241 60.8067 225.125 61C225.009 61.1933 224.854 61.3673 224.661 61.522C224.467 61.6767 224.255 61.7927 224.023 61.87C223.829 61.9473 223.655 61.9473 223.501 61.87H215.903C215.516 61.87 215.207 61.7927 214.975 61.638C214.781 61.4833 214.646 61.29 214.569 61.058C214.491 60.826 214.491 60.594 214.569 60.362C214.646 60.13 214.801 59.9367 215.033 59.782V48.066C214.917 47.37 214.801 46.4807 214.685 45.398C214.607 44.2767 214.395 43.252 214.047 42.324C213.699 41.396 213.138 40.7193 212.365 40.294C211.63 39.8687 210.547 39.9847 209.117 40.642V59.898C209.117 60.478 208.943 60.884 208.595 61.116C208.285 61.348 207.976 61.4253 207.667 61.348C206.507 61.116 205.385 61 204.303 61C203.22 61 202.099 61.1353 200.939 61.406ZM246.457 61.754C246.032 61.754 245.722 61.5413 245.529 61.116C245.374 60.7293 245.394 60.362 245.587 60.014V33.74C245.355 33.3147 245.394 32.87 245.703 32.406C245.858 32.1353 246.07 31.9807 246.341 31.942C246.65 31.8647 246.96 31.884 247.269 32H254.229C254.461 32 254.654 32.0773 254.809 32.232C254.964 32.348 255.08 32.5027 255.157 32.696C255.582 32.928 255.737 33.2953 255.621 33.798C255.389 36.118 255.273 38.3413 255.273 40.468C255.273 42.556 255.273 44.76 255.273 47.08C255.273 47.9693 255.254 48.9553 255.215 50.038C255.176 51.1207 255.138 52.2227 255.099 53.344C255.06 54.4653 255.041 55.5673 255.041 56.65C255.041 57.694 255.08 58.6413 255.157 59.492C255.157 59.5307 255.157 59.5693 255.157 59.608C255.196 59.608 255.215 59.6273 255.215 59.666C255.408 59.782 255.544 59.956 255.621 60.188C255.698 60.42 255.698 60.652 255.621 60.884C255.582 61.116 255.486 61.3093 255.331 61.464C255.176 61.6573 254.964 61.754 254.693 61.754H246.457ZM252.431 28.694C251.812 28.81 251.136 28.8487 250.401 28.81C249.666 28.7327 248.97 28.5587 248.313 28.288C247.656 28.0173 247.056 27.6307 246.515 27.128C246.012 26.5867 245.684 25.8907 245.529 25.04C245.297 24.344 245.181 23.6093 245.181 22.836C245.22 22.024 245.355 21.27 245.587 20.574C245.858 19.8393 246.244 19.2207 246.747 18.718C247.288 18.2153 247.946 17.906 248.719 17.79C250.343 17.558 251.851 17.7707 253.243 18.428C254.674 19.0467 255.602 20.0327 256.027 21.386C256.259 22.198 256.356 22.9907 256.317 23.764C256.278 24.5373 256.104 25.2527 255.795 25.91C255.486 26.5673 255.041 27.1473 254.461 27.65C253.92 28.114 253.243 28.462 252.431 28.694ZM262.072 61.986C261.724 61.986 261.453 61.87 261.26 61.638C261.105 61.406 261.009 61.1547 260.97 60.884C260.738 60.7293 260.622 60.4393 260.622 60.014C260.854 55.722 260.989 51.4107 261.028 47.08C261.067 42.7107 261.086 38.3607 261.086 34.03C260.893 33.45 261.067 32.9667 261.608 32.58C263.541 31.5747 265.552 30.9173 267.64 30.608C269.767 30.2987 271.932 30.144 274.136 30.144C276.108 30.144 278.003 30.3373 279.82 30.724C281.676 31.1107 283.319 32.0193 284.75 33.45C285.369 34.1847 285.833 34.9967 286.142 35.886C286.49 36.7753 286.741 37.7033 286.896 38.67C287.051 39.598 287.128 40.526 287.128 41.454C287.167 42.382 287.186 43.2713 287.186 44.122C287.418 47.022 287.495 49.806 287.418 52.474C287.341 55.142 287.418 57.81 287.65 60.478C287.65 60.826 287.534 61.0967 287.302 61.29C287.07 61.4833 286.799 61.58 286.49 61.58C286.297 61.8507 286.026 61.986 285.678 61.986H280.458C280.071 61.986 279.781 61.8507 279.588 61.58C279.279 61.58 279.008 61.4833 278.776 61.29C278.583 61.0967 278.486 60.826 278.486 60.478V47.022C278.486 46.558 278.467 46.036 278.428 45.456C278.428 44.876 278.389 44.296 278.312 43.716C278.273 43.136 278.196 42.5947 278.08 42.092C277.964 41.5507 277.79 41.106 277.558 40.758C277.287 40.2553 276.901 39.9267 276.398 39.772C275.895 39.6173 275.335 39.5593 274.716 39.598C274.136 39.6367 273.537 39.7333 272.918 39.888C272.299 40.004 271.739 40.12 271.236 40.236C271.236 43.6387 271.275 47.0027 271.352 50.328C271.429 53.6533 271.468 56.882 271.468 60.014C271.468 60.4007 271.391 60.71 271.236 60.942C271.081 61.174 270.907 61.3287 270.714 61.406L270.598 61.522C270.057 61.754 269.477 61.8893 268.858 61.928C268.239 61.9667 267.679 61.986 267.176 61.986H262.072Z" fill="#333333"/>
</svg>
