<svg width="468" height="87" viewBox="0 0 468 87" fill="none" xmlns="http://www.w3.org/2000/svg">
<path d="M365.636 31.208V40.532H369.22V43.584H365.636V56.408H361.884V31.208H365.636ZM350.292 33.168V39.244H355.192V33.168H358.888V50.556H346.596V33.168H350.292ZM350.292 47.588H355.192V42.128H350.292V47.588ZM378.433 32.16C379.702 32.16 380.841 32.3933 381.849 32.86C382.857 33.308 383.641 33.952 384.201 34.792C384.779 35.6133 385.069 36.5467 385.069 37.592C385.069 38.6187 384.779 39.5427 384.201 40.364C383.641 41.1667 382.857 41.8013 381.849 42.268C380.841 42.7347 379.702 42.968 378.433 42.968C377.182 42.968 376.053 42.7347 375.045 42.268C374.037 41.8013 373.243 41.1667 372.665 40.364C372.105 39.5427 371.825 38.6187 371.825 37.592C371.825 36.5467 372.105 35.6133 372.665 34.792C373.243 33.952 374.037 33.308 375.045 32.86C376.053 32.3933 377.182 32.16 378.433 32.16ZM378.433 35.184C377.537 35.184 376.809 35.3987 376.249 35.828C375.689 36.2387 375.409 36.8267 375.409 37.592C375.409 38.32 375.689 38.8987 376.249 39.328C376.809 39.7387 377.537 39.944 378.433 39.944C379.347 39.944 380.085 39.7387 380.645 39.328C381.223 38.9173 381.513 38.3387 381.513 37.592C381.513 36.8267 381.223 36.2387 380.645 35.828C380.085 35.3987 379.347 35.184 378.433 35.184ZM391.425 31.18V56.38H387.701V31.18H391.425ZM370.369 44.396C373.467 44.396 376.305 44.3493 378.881 44.256C381.475 44.144 383.949 43.9013 386.301 43.528L386.525 46.272C384.565 46.664 382.53 46.944 380.421 47.112V55.624H376.669V47.336C374.783 47.4107 372.823 47.448 370.789 47.448L370.369 44.396ZM415.785 31.208V56.408H412.033V31.208H415.785ZM409.513 33.476V36.444H407.357V47.252C408.123 47.196 409.149 47.0933 410.437 46.944L410.661 49.632C408.309 50.0427 405.883 50.3133 403.381 50.444C400.88 50.5747 398.099 50.6493 395.037 50.668L394.701 47.644H397.501V36.444H395.345V33.476H409.513ZM403.773 47.476V36.444H401.085V47.56L403.773 47.476ZM439.81 33.336V36.248C439.81 38.656 439.745 40.756 439.614 42.548C439.483 44.34 439.147 46.468 438.606 48.932L434.938 48.596C435.367 46.748 435.675 44.8907 435.862 43.024L421.526 43.752L421.078 40.756L436.058 40.28C436.095 39.3653 436.114 38.0493 436.114 36.332H421.806V33.336H439.81ZM442.05 50.388V53.468H419.258V50.388H442.05ZM457.227 33.14V45.404H444.991V33.14H457.227ZM448.659 36.08V42.436H453.587V36.08H448.659ZM464.675 31.208V49.1H460.951V31.208H464.675ZM451.599 47.476V52.908H465.319V55.876H447.847V47.476H451.599Z" fill="white"/>
<path d="M5.684 61.174C5.336 61.3673 4.93 61.3673 4.466 61.174C4.04067 61.0193 3.828 60.6907 3.828 60.188C4.06 53.9627 4.19533 47.8533 4.234 41.86C4.27267 35.828 4.292 29.6993 4.292 23.474C4.09867 23.126 4.02133 22.7587 4.06 22.372C4.13733 21.9853 4.38867 21.7147 4.814 21.56C6.786 21.0187 8.71933 20.7093 10.614 20.632C12.5087 20.516 14.558 20.4967 16.762 20.574C18.0767 20.6127 19.3913 20.748 20.706 20.98C22.0593 21.1733 23.374 21.502 24.65 21.966C25.926 22.3913 27.1247 22.952 28.246 23.648C29.406 24.3053 30.45 25.1367 31.378 26.142C32.4607 27.3793 33.3113 28.578 33.93 29.738C34.5873 30.8593 34.9547 32.0967 35.032 33.45C35.0707 34.726 34.9933 36.002 34.8 37.278C34.6067 38.5153 34.2393 39.6947 33.698 40.816C33.1953 41.8987 32.4993 42.904 31.61 43.832C30.7593 44.76 29.696 45.514 28.42 46.094C29.1547 47.0993 29.7927 48.1433 30.334 49.226C30.914 50.3087 31.4553 51.3913 31.958 52.474C32.4993 53.5567 33.06 54.62 33.64 55.664C34.22 56.708 34.8967 57.6747 35.67 58.564H35.728C35.9987 58.9893 36.076 59.434 35.96 59.898C35.8827 60.3233 35.7667 60.6907 35.612 61C35.1867 61.0387 34.452 61.0773 33.408 61.116C32.4027 61.1933 31.3587 61.232 30.276 61.232C29.1933 61.2707 28.2073 61.2707 27.318 61.232C26.4287 61.1933 25.9067 61.0967 25.752 60.942C25.056 60.362 24.3987 59.492 23.78 58.332C23.1613 57.172 22.562 56.0893 21.982 55.084C21.6727 54.62 21.3827 54.156 21.112 53.692C20.88 53.228 20.6093 52.7447 20.3 52.242C20.0293 51.7007 19.7007 51.1013 19.314 50.444C18.966 49.7867 18.5407 48.994 18.038 48.066C17.574 48.066 17.052 48.066 16.472 48.066C15.9307 48.0273 15.4473 48.0467 15.022 48.124C15.2153 49.98 15.312 51.894 15.312 53.866C15.3507 55.7993 15.37 57.7327 15.37 59.666C15.2153 60.014 14.964 60.2847 14.616 60.478C14.3067 60.6327 13.9973 60.71 13.688 60.71C13.4947 60.942 13.2433 61.058 12.934 61.058C12.1993 61.174 11.542 61.2513 10.962 61.29C10.4207 61.3287 9.87933 61.3287 9.338 61.29C8.83533 61.29 8.294 61.2707 7.714 61.232C7.17267 61.1933 6.53467 61.174 5.8 61.174H5.684ZM15.196 31.072C15.2347 32.4253 15.2927 33.7013 15.37 34.9C15.486 36.06 15.4473 37.3167 15.254 38.67C15.95 38.67 16.7427 38.67 17.632 38.67C18.56 38.67 19.4107 38.554 20.184 38.322C20.9573 38.09 21.6147 37.7033 22.156 37.162C22.6973 36.582 22.968 35.712 22.968 34.552C22.968 33.624 22.7167 32.928 22.214 32.464C21.7113 31.9613 21.0733 31.6133 20.3 31.42C19.5267 31.2267 18.676 31.13 17.748 31.13C16.8587 31.0913 16.008 31.072 15.196 31.072ZM56.2233 29.97C56.3006 29.97 56.3586 29.9893 56.3973 30.028C56.4746 30.028 56.552 30.028 56.6293 30.028C58.4466 30.2987 60.0513 30.8593 61.4433 31.71C62.874 32.5607 64.092 33.6047 65.0973 34.842C66.1413 36.0793 66.9726 37.4907 67.5913 39.076C68.21 40.6613 68.6353 42.324 68.8673 44.064C69.138 47.2733 68.9446 50.0187 68.2873 52.3C67.6686 54.5427 66.6826 56.3987 65.3293 57.868C63.976 59.2987 62.3133 60.3427 60.3413 61C58.3693 61.6187 56.1653 61.9087 53.7293 61.87C52.724 61.87 51.7186 61.812 50.7133 61.696C49.7466 61.58 48.7993 61.3867 47.8713 61.116C46.982 60.8453 46.1313 60.478 45.3193 60.014C44.5073 59.5113 43.7533 58.8733 43.0573 58.1C41.8973 56.94 40.9886 55.548 40.3313 53.924C39.7126 52.3 39.3066 50.618 39.1133 48.878C38.92 47.0993 38.9006 45.34 39.0553 43.6C39.21 41.86 39.4613 40.2747 39.8093 38.844C40.2346 37.0653 40.9886 35.596 42.0713 34.436C43.154 33.2373 44.4106 32.3093 45.8413 31.652C47.3106 30.956 48.8766 30.492 50.5393 30.26C52.2406 29.9893 53.884 29.8927 55.4693 29.97C55.7013 29.9313 55.9526 29.9313 56.2233 29.97ZM60.8053 45.746V44.644V45.746ZM55.2373 38.844C55.16 38.844 55.0053 38.844 54.7733 38.844C54.58 38.8053 54.3866 38.7667 54.1933 38.728C53.188 38.844 52.3566 39.0953 51.6993 39.482C51.042 39.83 50.52 40.294 50.1333 40.874C49.7853 41.454 49.534 42.1113 49.3793 42.846C49.2633 43.5807 49.2053 44.3927 49.2053 45.282C49.2053 46.2487 49.1666 47.2927 49.0893 48.414C49.012 49.4967 49.2053 50.386 49.6693 51.082C50.0173 51.546 50.4426 51.9133 50.9453 52.184C51.448 52.4547 51.97 52.6287 52.5113 52.706C53.0526 52.7447 53.5746 52.6867 54.0773 52.532C54.58 52.3773 55.0053 52.126 55.3533 51.778C56.552 51.0047 57.364 50.038 57.7893 48.878C58.2533 47.718 58.524 46.5193 58.6013 45.282C58.64 44.7407 58.6013 44.1413 58.4853 43.484C58.408 42.8267 58.234 42.1887 57.9633 41.57C57.6926 40.9513 57.3253 40.3907 56.8613 39.888C56.3973 39.3853 55.856 39.0373 55.2373 38.844ZM94.7802 31.884C95.2055 32.0773 95.4375 32.3867 95.4762 32.812C95.5148 33.2373 95.4375 33.6047 95.2442 33.914C95.2442 33.9913 95.2248 34.0493 95.1862 34.088C95.1862 34.088 95.1862 34.1267 95.1862 34.204C94.9928 34.9 94.7802 35.6927 94.5482 36.582C94.3162 37.4327 94.1035 38.3027 93.9102 39.192C93.7168 39.7333 93.3688 39.9653 92.8662 39.888C92.4022 39.772 91.8802 39.5593 91.3002 39.25C90.6428 39.1727 90.0242 39.1533 89.4442 39.192C88.9028 39.192 88.4968 39.192 88.2262 39.192C87.1048 39.1533 86.1575 39.4047 85.3842 39.946C84.6108 40.4487 83.9922 41.1253 83.5282 41.976C83.0642 42.788 82.7355 43.716 82.5422 44.76C82.3875 45.7653 82.3682 46.732 82.4842 47.66C82.6002 48.356 82.7162 49.0327 82.8322 49.69C82.9482 50.3473 83.1415 50.9467 83.4122 51.488C83.6828 52.0293 84.0308 52.4933 84.4562 52.88C84.9202 53.2667 85.5388 53.518 86.3122 53.634C87.2015 53.8273 88.1488 53.8467 89.1542 53.692C90.1595 53.4987 91.2422 53.344 92.4022 53.228C92.5955 52.88 92.9048 52.706 93.3302 52.706C93.7942 52.706 94.1228 52.9573 94.3162 53.46C94.5095 54.3493 94.7028 55.2193 94.8962 56.07C95.1282 56.882 95.4182 57.694 95.7662 58.506C95.9595 58.6993 96.0755 58.9507 96.1142 59.26C96.1528 59.5307 96.0368 59.7433 95.7662 59.898C95.5728 60.2073 95.3408 60.4393 95.0702 60.594C94.7995 60.71 94.5482 60.71 94.3162 60.594C93.1948 61.0193 92.0348 61.3287 90.8362 61.522C89.6375 61.7153 88.5162 61.812 87.4722 61.812C85.9642 61.812 84.4562 61.7733 82.9482 61.696C81.4788 61.6187 80.0868 61.3287 78.7722 60.826C77.4962 60.362 76.3942 59.7047 75.4662 58.854C74.5382 57.9647 73.7648 56.9593 73.1462 55.838C72.5275 54.7167 72.0635 53.518 71.7542 52.242C71.4835 50.966 71.3482 49.7093 71.3482 48.472C71.3482 47.08 71.4448 45.6493 71.6382 44.18C71.8702 42.7107 72.2182 41.2993 72.6822 39.946C73.1462 38.554 73.7455 37.2587 74.4802 36.06C75.2535 34.8227 76.1815 33.74 77.2642 32.812C78.3468 31.768 79.6422 31.072 81.1502 30.724C82.6582 30.376 84.2242 30.2407 85.8482 30.318C87.4722 30.3567 89.0575 30.55 90.6042 30.898C92.1895 31.2073 93.5815 31.536 94.7802 31.884ZM98.9725 20.284C98.9725 19.9747 99.0498 19.7427 99.2045 19.588C99.3978 19.4333 99.6105 19.3173 99.8425 19.24C99.9585 19.0467 100.132 18.9113 100.364 18.834C101.602 18.37 102.82 18.0027 104.018 17.732C105.256 17.4227 106.609 17.152 108.078 16.92C108.542 16.7653 108.968 16.8427 109.354 17.152C109.741 17.4227 109.934 17.8287 109.934 18.37C109.934 21.9273 109.934 25.388 109.934 28.752C109.973 32.116 110.089 35.5573 110.282 39.076C111.249 38.032 112.177 36.9687 113.066 35.886C113.956 34.8033 114.826 33.682 115.676 32.522C115.87 32.1353 116.102 31.768 116.372 31.42C116.682 31.072 117.068 30.898 117.532 30.898C119.234 30.898 120.993 30.9173 122.81 30.956C124.628 30.9947 126.31 31.0527 127.856 31.13C127.934 31.13 128.011 31.1493 128.088 31.188C128.243 31.2653 128.32 31.4007 128.32 31.594C128.436 32.174 128.359 32.754 128.088 33.334C127.856 33.8753 127.508 34.3973 127.044 34.9C126.619 35.4027 126.136 35.886 125.594 36.35C125.092 36.7753 124.666 37.162 124.318 37.51C123.12 38.7473 121.902 40.0427 120.664 41.396C119.466 42.7107 118.422 43.8707 117.532 44.876C117.378 45.0693 117.281 45.1853 117.242 45.224C117.706 45.7267 118.19 46.2873 118.692 46.906C119.234 47.5247 119.775 48.1627 120.316 48.82C120.896 49.4387 121.457 50.0767 121.998 50.734C122.578 51.3527 123.139 51.9327 123.68 52.474C124.608 53.6727 125.556 54.7747 126.522 55.78C127.528 56.7853 128.398 57.8873 129.132 59.086C129.596 59.55 129.674 59.9947 129.364 60.42C129.055 60.8067 128.668 61 128.204 61C126.812 61 125.362 61 123.854 61C122.346 61.0387 120.819 61.116 119.272 61.232C119.079 61.4253 118.847 61.5413 118.576 61.58C118.306 61.6187 118.074 61.5413 117.88 61.348L116.546 59.318C115.58 57.926 114.594 56.5533 113.588 55.2C112.622 53.8467 111.578 52.5707 110.456 51.372V59.55C110.456 59.8207 110.34 60.072 110.108 60.304C110.07 60.6133 109.973 60.884 109.818 61.116C109.664 61.348 109.412 61.464 109.064 61.464C107.595 61.232 106.261 61.116 105.062 61.116C103.902 61.116 102.588 61.232 101.118 61.464C100.654 61.464 100.326 61.29 100.132 60.942C99.8231 60.71 99.6685 60.4007 99.6685 60.014C99.4365 58.3513 99.3591 56.766 99.4365 55.258C99.5138 53.75 99.6878 52.1453 99.9585 50.444C100.152 49.0133 100.21 47.486 100.132 45.862C100.055 44.238 100.016 42.5753 100.016 40.874C100.016 37.4713 99.9585 34.0493 99.8425 30.608C99.7651 27.128 99.4751 23.6867 98.9725 20.284ZM143.911 22.952C143.988 22.604 144.143 22.3527 144.375 22.198C144.607 22.0047 144.858 21.908 145.129 21.908C145.206 21.908 145.264 21.908 145.303 21.908C145.342 21.8693 145.4 21.85 145.477 21.85C147.062 21.6567 148.57 21.4247 150.001 21.154C151.432 20.8833 153.056 20.748 154.873 20.748C156.149 20.748 157.522 20.806 158.991 20.922C160.499 21.038 161.968 21.2313 163.399 21.502C164.868 21.7727 166.241 22.14 167.517 22.604C168.793 23.0293 169.876 23.532 170.765 24.112C171.732 24.7693 172.544 25.62 173.201 26.664C173.858 27.6693 174.361 28.752 174.709 29.912C175.096 31.0333 175.347 32.1353 175.463 33.218C175.579 34.3007 175.579 35.248 175.463 36.06C175.347 36.872 175.25 37.6453 175.173 38.38C175.096 39.1147 174.96 39.8107 174.767 40.468C174.612 41.1253 174.342 41.7827 173.955 42.44C173.607 43.0587 173.085 43.6773 172.389 44.296C171.152 45.4947 169.818 46.4227 168.387 47.08C166.995 47.6987 165.545 48.1627 164.037 48.472C162.529 48.7427 160.963 48.9167 159.339 48.994C157.754 49.0713 156.149 49.1487 154.525 49.226C154.525 50.27 154.544 51.198 154.583 52.01C154.66 52.7833 154.718 53.5567 154.757 54.33C154.834 55.0647 154.873 55.838 154.873 56.65C154.912 57.462 154.892 58.4093 154.815 59.492C154.776 60.1493 154.66 60.7293 154.467 61.232C154.312 61.7347 154.022 62.044 153.597 62.16C153.21 62.276 152.785 62.3147 152.321 62.276C151.896 62.2373 151.47 62.1987 151.045 62.16C150.156 62.1213 149.286 62.1213 148.435 62.16C147.584 62.1987 146.734 62.2373 145.883 62.276C145.148 62.276 144.665 62.0827 144.433 61.696C144.201 61.348 144.104 61.0193 144.143 60.71C144.182 60.2847 144.182 59.7627 144.143 59.144C144.104 58.5253 144.085 58.0613 144.085 57.752C144.046 56.94 144.027 56.128 144.027 55.316C144.066 54.504 144.085 53.6727 144.085 52.822C144.085 50.2313 144.066 47.6987 144.027 45.224C144.027 42.7493 144.008 40.3133 143.969 37.916C143.969 35.48 143.95 33.044 143.911 30.608C143.911 28.1333 143.911 25.5813 143.911 22.952ZM155.221 30.84C155.26 32.2707 155.221 33.6627 155.105 35.016C155.028 36.3693 155.028 37.7613 155.105 39.192C155.26 39.192 155.472 39.2113 155.743 39.25C156.052 39.25 156.362 39.25 156.671 39.25C157.019 39.25 157.348 39.25 157.657 39.25C157.966 39.2113 158.179 39.192 158.295 39.192C159.223 39.1147 160.074 38.9407 160.847 38.67C161.659 38.3607 162.336 37.8193 162.877 37.046C163.496 36.0793 163.689 34.9967 163.457 33.798C163.302 32.9473 162.916 32.3093 162.297 31.884C161.678 31.4587 160.963 31.1687 160.151 31.014C159.339 30.8593 158.488 30.8013 157.599 30.84C156.71 30.84 155.917 30.84 155.221 30.84ZM179.344 61.754C178.918 61.754 178.609 61.5413 178.416 61.116C178.261 60.7293 178.28 60.362 178.474 60.014V33.74C178.242 33.3147 178.28 32.87 178.59 32.406C178.744 32.1353 178.957 31.9807 179.228 31.942C179.537 31.8647 179.846 31.884 180.156 32H187.116C187.348 32 187.541 32.0773 187.696 32.232C187.85 32.348 187.966 32.5027 188.044 32.696C188.469 32.928 188.624 33.2953 188.508 33.798C188.276 36.118 188.16 38.3413 188.16 40.468C188.16 42.556 188.16 44.76 188.16 47.08C188.16 47.9693 188.14 48.9553 188.102 50.038C188.063 51.1207 188.024 52.2227 187.986 53.344C187.947 54.4653 187.928 55.5673 187.928 56.65C187.928 57.694 187.966 58.6413 188.044 59.492C188.044 59.5307 188.044 59.5693 188.044 59.608C188.082 59.608 188.102 59.6273 188.102 59.666C188.295 59.782 188.43 59.956 188.508 60.188C188.585 60.42 188.585 60.652 188.508 60.884C188.469 61.116 188.372 61.3093 188.218 61.464C188.063 61.6573 187.85 61.754 187.58 61.754H179.344ZM185.318 28.694C184.699 28.81 184.022 28.8487 183.288 28.81C182.553 28.7327 181.857 28.5587 181.2 28.288C180.542 28.0173 179.943 27.6307 179.402 27.128C178.899 26.5867 178.57 25.8907 178.416 25.04C178.184 24.344 178.068 23.6093 178.068 22.836C178.106 22.024 178.242 21.27 178.474 20.574C178.744 19.8393 179.131 19.2207 179.634 18.718C180.175 18.2153 180.832 17.906 181.606 17.79C183.23 17.558 184.738 17.7707 186.13 18.428C187.56 19.0467 188.488 20.0327 188.914 21.386C189.146 22.198 189.242 22.9907 189.204 23.764C189.165 24.5373 188.991 25.2527 188.682 25.91C188.372 26.5673 187.928 27.1473 187.348 27.65C186.806 28.114 186.13 28.462 185.318 28.694ZM192.871 20.284C192.871 19.9747 192.948 19.7427 193.103 19.588C193.296 19.4333 193.509 19.3173 193.741 19.24C193.857 19.0467 194.031 18.9113 194.263 18.834C195.5 18.37 196.718 18.0027 197.917 17.732C199.154 17.4227 200.508 17.152 201.977 16.92C202.441 16.7653 202.866 16.8427 203.253 17.152C203.64 17.4227 203.833 17.8287 203.833 18.37C203.833 21.9273 203.833 25.388 203.833 28.752C203.872 32.116 203.988 35.5573 204.181 39.076C205.148 38.032 206.076 36.9687 206.965 35.886C207.854 34.8033 208.724 33.682 209.575 32.522C209.768 32.1353 210 31.768 210.271 31.42C210.58 31.072 210.967 30.898 211.431 30.898C213.132 30.898 214.892 30.9173 216.709 30.956C218.526 30.9947 220.208 31.0527 221.755 31.13C221.832 31.13 221.91 31.1493 221.987 31.188C222.142 31.2653 222.219 31.4007 222.219 31.594C222.335 32.174 222.258 32.754 221.987 33.334C221.755 33.8753 221.407 34.3973 220.943 34.9C220.518 35.4027 220.034 35.886 219.493 36.35C218.99 36.7753 218.565 37.162 218.217 37.51C217.018 38.7473 215.8 40.0427 214.563 41.396C213.364 42.7107 212.32 43.8707 211.431 44.876C211.276 45.0693 211.18 45.1853 211.141 45.224C211.605 45.7267 212.088 46.2873 212.591 46.906C213.132 47.5247 213.674 48.1627 214.215 48.82C214.795 49.4387 215.356 50.0767 215.897 50.734C216.477 51.3527 217.038 51.9327 217.579 52.474C218.507 53.6727 219.454 54.7747 220.421 55.78C221.426 56.7853 222.296 57.8873 223.031 59.086C223.495 59.55 223.572 59.9947 223.263 60.42C222.954 60.8067 222.567 61 222.103 61C220.711 61 219.261 61 217.753 61C216.245 61.0387 214.718 61.116 213.171 61.232C212.978 61.4253 212.746 61.5413 212.475 61.58C212.204 61.6187 211.972 61.5413 211.779 61.348L210.445 59.318C209.478 57.926 208.492 56.5533 207.487 55.2C206.52 53.8467 205.476 52.5707 204.355 51.372V59.55C204.355 59.8207 204.239 60.072 204.007 60.304C203.968 60.6133 203.872 60.884 203.717 61.116C203.562 61.348 203.311 61.464 202.963 61.464C201.494 61.232 200.16 61.116 198.961 61.116C197.801 61.116 196.486 61.232 195.017 61.464C194.553 61.464 194.224 61.29 194.031 60.942C193.722 60.71 193.567 60.4007 193.567 60.014C193.335 58.3513 193.258 56.766 193.335 55.258C193.412 53.75 193.586 52.1453 193.857 50.444C194.05 49.0133 194.108 47.486 194.031 45.862C193.954 44.238 193.915 42.5753 193.915 40.874C193.915 37.4713 193.857 34.0493 193.741 30.608C193.664 27.128 193.374 23.6867 192.871 20.284ZM227.812 61.406C227.309 61.522 226.903 61.4833 226.594 61.29C226.323 61.0967 226.149 60.8453 226.072 60.536C225.956 60.3813 225.898 60.1687 225.898 59.898C225.898 55.4127 225.82 51.0433 225.666 46.79C225.511 42.5367 225.434 38.148 225.434 33.624C225.434 33.3147 225.511 33.0827 225.666 32.928L225.898 32.696C227.792 31.7293 229.687 31.014 231.582 30.55C233.515 30.086 235.526 29.854 237.614 29.854C238.58 29.854 239.547 29.8733 240.514 29.912C241.48 29.9507 242.389 30.0667 243.24 30.26C244.129 30.4533 244.941 30.782 245.676 31.246C246.41 31.71 247.01 32.348 247.474 33.16C247.551 33.2373 247.59 33.3147 247.59 33.392C249.098 32.7347 250.644 32.2127 252.23 31.826C253.854 31.4007 255.439 31.246 256.986 31.362C258.532 31.478 259.982 31.9227 261.336 32.696C262.689 33.4693 263.888 34.7067 264.932 36.408C265.821 38.0707 266.42 39.8107 266.73 41.628C267.078 43.4067 267.252 45.1467 267.252 46.848V60.42C267.252 60.8453 267.078 61.1353 266.73 61.29C266.42 61.4833 266.092 61.5413 265.744 61.464C265.318 61.5413 264.874 61.5413 264.41 61.464C263.984 61.4253 263.52 61.406 263.018 61.406H257.856H257.682C257.334 61.5607 256.966 61.5413 256.58 61.348C256.193 61.1933 256 60.884 256 60.42C256 59.492 256.019 58.5253 256.058 57.52C256.096 56.5147 256.135 55.3547 256.174 54.04C256.251 52.7253 256.309 51.2173 256.348 49.516C256.425 47.8147 256.464 45.7653 256.464 43.368C256.464 42.904 256.309 42.3433 256 41.686C255.69 41.0287 255.304 40.4873 254.84 40.062C254.376 39.598 253.854 39.3467 253.274 39.308C252.732 39.2307 252.23 39.54 251.766 40.236L251.534 40.468C252.075 43.832 252.307 47.1573 252.23 50.444C252.191 53.7307 252.152 57.056 252.114 60.42C252.152 60.6133 252.114 60.8067 251.998 61C251.882 61.1933 251.727 61.3673 251.534 61.522C251.34 61.6767 251.128 61.7927 250.896 61.87C250.702 61.9473 250.528 61.9473 250.374 61.87H242.776C242.389 61.87 242.08 61.7927 241.848 61.638C241.654 61.4833 241.519 61.29 241.442 61.058C241.364 60.826 241.364 60.594 241.442 60.362C241.519 60.13 241.674 59.9367 241.906 59.782V48.066C241.79 47.37 241.674 46.4807 241.558 45.398C241.48 44.2767 241.268 43.252 240.92 42.324C240.572 41.396 240.011 40.7193 239.238 40.294C238.503 39.8687 237.42 39.9847 235.99 40.642V59.898C235.99 60.478 235.816 60.884 235.468 61.116C235.158 61.348 234.849 61.4253 234.54 61.348C233.38 61.116 232.258 61 231.176 61C230.093 61 228.972 61.1353 227.812 61.406ZM273.33 61.754C272.905 61.754 272.595 61.5413 272.402 61.116C272.247 60.7293 272.267 60.362 272.46 60.014V33.74C272.228 33.3147 272.267 32.87 272.576 32.406C272.731 32.1353 272.943 31.9807 273.214 31.942C273.523 31.8647 273.833 31.884 274.142 32H281.102C281.334 32 281.527 32.0773 281.682 32.232C281.837 32.348 281.953 32.5027 282.03 32.696C282.455 32.928 282.61 33.2953 282.494 33.798C282.262 36.118 282.146 38.3413 282.146 40.468C282.146 42.556 282.146 44.76 282.146 47.08C282.146 47.9693 282.127 48.9553 282.088 50.038C282.049 51.1207 282.011 52.2227 281.972 53.344C281.933 54.4653 281.914 55.5673 281.914 56.65C281.914 57.694 281.953 58.6413 282.03 59.492C282.03 59.5307 282.03 59.5693 282.03 59.608C282.069 59.608 282.088 59.6273 282.088 59.666C282.281 59.782 282.417 59.956 282.494 60.188C282.571 60.42 282.571 60.652 282.494 60.884C282.455 61.116 282.359 61.3093 282.204 61.464C282.049 61.6573 281.837 61.754 281.566 61.754H273.33ZM279.304 28.694C278.685 28.81 278.009 28.8487 277.274 28.81C276.539 28.7327 275.843 28.5587 275.186 28.288C274.529 28.0173 273.929 27.6307 273.388 27.128C272.885 26.5867 272.557 25.8907 272.402 25.04C272.17 24.344 272.054 23.6093 272.054 22.836C272.093 22.024 272.228 21.27 272.46 20.574C272.731 19.8393 273.117 19.2207 273.62 18.718C274.161 18.2153 274.819 17.906 275.592 17.79C277.216 17.558 278.724 17.7707 280.116 18.428C281.547 19.0467 282.475 20.0327 282.9 21.386C283.132 22.198 283.229 22.9907 283.19 23.764C283.151 24.5373 282.977 25.2527 282.668 25.91C282.359 26.5673 281.914 27.1473 281.334 27.65C280.793 28.114 280.116 28.462 279.304 28.694ZM288.945 61.986C288.597 61.986 288.326 61.87 288.133 61.638C287.978 61.406 287.882 61.1547 287.843 60.884C287.611 60.7293 287.495 60.4393 287.495 60.014C287.727 55.722 287.862 51.4107 287.901 47.08C287.94 42.7107 287.959 38.3607 287.959 34.03C287.766 33.45 287.94 32.9667 288.481 32.58C290.414 31.5747 292.425 30.9173 294.513 30.608C296.64 30.2987 298.805 30.144 301.009 30.144C302.981 30.144 304.876 30.3373 306.693 30.724C308.549 31.1107 310.192 32.0193 311.623 33.45C312.242 34.1847 312.706 34.9967 313.015 35.886C313.363 36.7753 313.614 37.7033 313.769 38.67C313.924 39.598 314.001 40.526 314.001 41.454C314.04 42.382 314.059 43.2713 314.059 44.122C314.291 47.022 314.368 49.806 314.291 52.474C314.214 55.142 314.291 57.81 314.523 60.478C314.523 60.826 314.407 61.0967 314.175 61.29C313.943 61.4833 313.672 61.58 313.363 61.58C313.17 61.8507 312.899 61.986 312.551 61.986H307.331C306.944 61.986 306.654 61.8507 306.461 61.58C306.152 61.58 305.881 61.4833 305.649 61.29C305.456 61.0967 305.359 60.826 305.359 60.478V47.022C305.359 46.558 305.34 46.036 305.301 45.456C305.301 44.876 305.262 44.296 305.185 43.716C305.146 43.136 305.069 42.5947 304.953 42.092C304.837 41.5507 304.663 41.106 304.431 40.758C304.16 40.2553 303.774 39.9267 303.271 39.772C302.768 39.6173 302.208 39.5593 301.589 39.598C301.009 39.6367 300.41 39.7333 299.791 39.888C299.172 40.004 298.612 40.12 298.109 40.236C298.109 43.6387 298.148 47.0027 298.225 50.328C298.302 53.6533 298.341 56.882 298.341 60.014C298.341 60.4007 298.264 60.71 298.109 60.942C297.954 61.174 297.78 61.3287 297.587 61.406L297.471 61.522C296.93 61.754 296.35 61.8893 295.731 61.928C295.112 61.9667 294.552 61.986 294.049 61.986H288.945Z" fill="#333333"/>
</svg>
