<svg width="203" height="57" viewBox="0 0 203 57" fill="none" xmlns="http://www.w3.org/2000/svg">
<mask id="path-1-outside-1_2005_5" maskUnits="userSpaceOnUse" x="-0.199219" y="-0.699219" width="203" height="58" fill="black">
<rect fill="white" x="-0.199219" y="-0.699219" width="203" height="58"/>
<path d="M17.7808 49.8208H5.00078V7.16078L18.9808 7.76078L27.8608 30.7408V5.90078H39.2008L40.4008 49.8208H27.6208L16.4608 26.4208L17.7808 49.8208ZM48.8289 6.68078H79.1289V17.3008H60.2289V23.7208H77.8089V32.9608H60.2289V38.1208H81.5889V49.8208H48.8289V6.68078ZM87.5617 7.10078L100.942 5.78078L105.862 35.3608L114.142 18.8608L120.202 18.9808L126.022 34.1008L133.822 6.32078L147.562 6.26078L132.442 49.6408L121.522 49.7608L116.182 36.6808L112.102 50.1208H98.4817L87.5617 7.10078ZM193.016 17.1808C184.536 15.3408 178.756 14.4208 175.676 14.4208C174.476 14.4208 173.596 14.5608 173.036 14.8408C172.516 15.0808 172.096 15.4608 171.776 15.9808C171.616 16.1808 171.536 16.4608 171.536 16.8208C171.536 17.9808 172.676 19.3208 174.956 20.8408C177.236 22.3208 181.036 23.8608 186.356 25.4608C189.836 26.4608 192.556 28.0808 194.516 30.3208C196.476 32.5208 197.456 34.9408 197.456 37.5808C197.456 39.9808 196.576 42.2608 194.816 44.4208C193.096 46.5408 190.536 48.2608 187.136 49.5808C183.776 50.8208 179.936 51.4408 175.616 51.4408C171.816 51.4408 167.956 51.0008 164.036 50.1208C160.116 49.2008 156.616 48.0808 153.536 46.7608L159.476 35.9608C166.276 39.4408 172.156 41.1808 177.116 41.1808C180.076 41.1808 182.336 40.5608 183.896 39.3208C184.376 38.8808 184.616 38.4608 184.616 38.0608C184.616 36.9008 183.256 35.7608 180.536 34.6408C177.816 33.5208 174.496 32.4208 170.576 31.3408C168.816 30.8208 166.796 29.8008 164.516 28.2808C162.236 26.7608 160.256 24.9808 158.576 22.9408C156.936 20.9008 156.116 18.8208 156.116 16.7008C156.116 14.2608 157.356 12.0208 159.836 9.98078C163.876 6.66078 170.176 5.00078 178.736 5.00078C181.616 5.00078 184.516 5.18078 187.436 5.54078C190.356 5.86078 192.956 6.28078 195.236 6.80078L193.016 17.1808Z"/>
</mask>
<path d="M17.7808 49.8208H5.00078V7.16078L18.9808 7.76078L27.8608 30.7408V5.90078H39.2008L40.4008 49.8208H27.6208L16.4608 26.4208L17.7808 49.8208ZM48.8289 6.68078H79.1289V17.3008H60.2289V23.7208H77.8089V32.9608H60.2289V38.1208H81.5889V49.8208H48.8289V6.68078ZM87.5617 7.10078L100.942 5.78078L105.862 35.3608L114.142 18.8608L120.202 18.9808L126.022 34.1008L133.822 6.32078L147.562 6.26078L132.442 49.6408L121.522 49.7608L116.182 36.6808L112.102 50.1208H98.4817L87.5617 7.10078ZM193.016 17.1808C184.536 15.3408 178.756 14.4208 175.676 14.4208C174.476 14.4208 173.596 14.5608 173.036 14.8408C172.516 15.0808 172.096 15.4608 171.776 15.9808C171.616 16.1808 171.536 16.4608 171.536 16.8208C171.536 17.9808 172.676 19.3208 174.956 20.8408C177.236 22.3208 181.036 23.8608 186.356 25.4608C189.836 26.4608 192.556 28.0808 194.516 30.3208C196.476 32.5208 197.456 34.9408 197.456 37.5808C197.456 39.9808 196.576 42.2608 194.816 44.4208C193.096 46.5408 190.536 48.2608 187.136 49.5808C183.776 50.8208 179.936 51.4408 175.616 51.4408C171.816 51.4408 167.956 51.0008 164.036 50.1208C160.116 49.2008 156.616 48.0808 153.536 46.7608L159.476 35.9608C166.276 39.4408 172.156 41.1808 177.116 41.1808C180.076 41.1808 182.336 40.5608 183.896 39.3208C184.376 38.8808 184.616 38.4608 184.616 38.0608C184.616 36.9008 183.256 35.7608 180.536 34.6408C177.816 33.5208 174.496 32.4208 170.576 31.3408C168.816 30.8208 166.796 29.8008 164.516 28.2808C162.236 26.7608 160.256 24.9808 158.576 22.9408C156.936 20.9008 156.116 18.8208 156.116 16.7008C156.116 14.2608 157.356 12.0208 159.836 9.98078C163.876 6.66078 170.176 5.00078 178.736 5.00078C181.616 5.00078 184.516 5.18078 187.436 5.54078C190.356 5.86078 192.956 6.28078 195.236 6.80078L193.016 17.1808Z" fill="white"/>
<path d="M17.7808 49.8208V54.8208H23.0708L22.7728 49.5392L17.7808 49.8208ZM5.00078 49.8208H0.000781298V54.8208H5.00078V49.8208ZM5.00078 7.16078L5.21518 2.16538L0.000781238 1.94159L0.000781298 7.16078H5.00078ZM18.9808 7.76078L23.6447 5.95854L22.465 2.90571L19.1952 2.76538L18.9808 7.76078ZM27.8608 30.7408L23.1969 32.543L32.8608 30.7408H27.8608ZM27.8608 5.90078V0.90078H22.8608V5.90078H27.8608ZM39.2008 5.90078L44.1989 5.76422L44.066 0.90078H39.2008V5.90078ZM40.4008 49.8208V54.8208H45.5393L45.3989 49.6842L40.4008 49.8208ZM27.6208 49.8208L23.1078 51.9731L24.4659 54.8208H27.6208V49.8208ZM16.4608 26.4208L20.9738 24.2684L11.4687 26.7024L16.4608 26.4208ZM17.7808 49.8208V44.8208H5.00078V49.8208V54.8208H17.7808V49.8208ZM5.00078 49.8208H10.0008V7.16078H5.00078H0.000781298V49.8208H5.00078ZM5.00078 7.16078L4.78639 12.1562L18.7664 12.7562L18.9808 7.76078L19.1952 2.76538L5.21518 2.16538L5.00078 7.16078ZM18.9808 7.76078L14.3169 9.56301L23.1969 32.543L27.8608 30.7408L32.5247 28.9385L23.6447 5.95854L18.9808 7.76078ZM27.8608 30.7408H32.8608V5.90078H27.8608H22.8608V30.7408H27.8608ZM27.8608 5.90078V10.9008H39.2008V5.90078V0.90078H27.8608V5.90078ZM39.2008 5.90078L34.2026 6.03734L35.4026 49.9573L40.4008 49.8208L45.3989 49.6842L44.1989 5.76422L39.2008 5.90078ZM40.4008 49.8208V44.8208H27.6208V49.8208V54.8208H40.4008V49.8208ZM27.6208 49.8208L32.1338 47.6684L20.9738 24.2684L16.4608 26.4208L11.9478 28.5731L23.1078 51.9731L27.6208 49.8208ZM16.4608 26.4208L11.4687 26.7024L12.7887 50.1024L17.7808 49.8208L22.7728 49.5392L21.4528 26.1392L16.4608 26.4208ZM48.8289 6.68078V1.68078H43.8289V6.68078H48.8289ZM79.1289 6.68078H84.1289V1.68078H79.1289V6.68078ZM79.1289 17.3008V22.3008H84.1289V17.3008H79.1289ZM60.2289 17.3008V12.3008H55.2289V17.3008H60.2289ZM60.2289 23.7208H55.2289V28.7208H60.2289V23.7208ZM77.8089 23.7208H82.8089V18.7208H77.8089V23.7208ZM77.8089 32.9608V37.9608H82.8089V32.9608H77.8089ZM60.2289 32.9608V27.9608H55.2289V32.9608H60.2289ZM60.2289 38.1208H55.2289V43.1208H60.2289V38.1208ZM81.5889 38.1208H86.5889V33.1208H81.5889V38.1208ZM81.5889 49.8208V54.8208H86.5889V49.8208H81.5889ZM48.8289 49.8208H43.8289V54.8208H48.8289V49.8208ZM48.8289 6.68078V11.6808H79.1289V6.68078V1.68078H48.8289V6.68078ZM79.1289 6.68078H74.1289V17.3008H79.1289H84.1289V6.68078H79.1289ZM79.1289 17.3008V12.3008H60.2289V17.3008V22.3008H79.1289V17.3008ZM60.2289 17.3008H55.2289V23.7208H60.2289H65.2289V17.3008H60.2289ZM60.2289 23.7208V28.7208H77.8089V23.7208V18.7208H60.2289V23.7208ZM77.8089 23.7208H72.8089V32.9608H77.8089H82.8089V23.7208H77.8089ZM77.8089 32.9608V27.9608H60.2289V32.9608V37.9608H77.8089V32.9608ZM60.2289 32.9608H55.2289V38.1208H60.2289H65.2289V32.9608H60.2289ZM60.2289 38.1208V43.1208H81.5889V38.1208V33.1208H60.2289V38.1208ZM81.5889 38.1208H76.5889V49.8208H81.5889H86.5889V38.1208H81.5889ZM81.5889 49.8208V44.8208H48.8289V49.8208V54.8208H81.5889V49.8208ZM48.8289 49.8208H53.8289V6.68078H48.8289H43.8289V49.8208H48.8289ZM87.5617 7.10078L87.0708 2.12494L81.285 2.69574L82.7154 8.33094L87.5617 7.10078ZM100.942 5.78078L105.874 4.96041L105.106 0.345642L100.451 0.804935L100.942 5.78078ZM105.862 35.3608L100.929 36.1812L103.447 51.3197L110.331 37.6033L105.862 35.3608ZM114.142 18.8608L114.241 13.8618L111.087 13.7993L109.673 16.6182L114.142 18.8608ZM120.202 18.9808L124.868 17.1846L123.661 14.0483L120.301 13.9818L120.202 18.9808ZM126.022 34.1008L121.355 35.8969L126.765 49.9503L130.836 35.4524L126.022 34.1008ZM133.822 6.32078L133.8 1.32083L130.028 1.3373L129.008 4.96916L133.822 6.32078ZM147.562 6.26078L152.283 7.90642L154.61 1.22995L147.54 1.26083L147.562 6.26078ZM132.442 49.6408L132.497 54.6405L136.008 54.6019L137.163 51.2864L132.442 49.6408ZM121.522 49.7608L116.893 51.6506L118.177 54.7978L121.577 54.7605L121.522 49.7608ZM116.182 36.6808L120.811 34.7909L115.488 21.7531L111.397 35.2284L116.182 36.6808ZM112.102 50.1208V55.1208H115.809L116.886 51.5732L112.102 50.1208ZM98.4817 50.1208L93.6354 51.3509L94.5923 55.1208H98.4817V50.1208ZM87.5617 7.10078L88.0526 12.0766L101.433 10.7566L100.942 5.78078L100.451 0.804935L87.0708 2.12494L87.5617 7.10078ZM100.942 5.78078L96.0095 6.60115L100.929 36.1812L105.862 35.3608L110.794 34.5404L105.874 4.96041L100.942 5.78078ZM105.862 35.3608L110.331 37.6033L118.611 21.1033L114.142 18.8608L109.673 16.6182L101.393 33.1182L105.862 35.3608ZM114.142 18.8608L114.043 23.8598L120.103 23.9798L120.202 18.9808L120.301 13.9818L114.241 13.8618L114.142 18.8608ZM120.202 18.9808L115.535 20.7769L121.355 35.8969L126.022 34.1008L130.688 32.3046L124.868 17.1846L120.202 18.9808ZM126.022 34.1008L130.836 35.4524L138.636 7.6724L133.822 6.32078L129.008 4.96916L121.208 32.7492L126.022 34.1008ZM133.822 6.32078L133.844 11.3207L147.584 11.2607L147.562 6.26078L147.54 1.26083L133.8 1.32083L133.822 6.32078ZM147.562 6.26078L142.84 4.61514L127.72 47.9951L132.442 49.6408L137.163 51.2864L152.283 7.90642L147.562 6.26078ZM132.442 49.6408L132.387 44.6411L121.467 44.7611L121.522 49.7608L121.577 54.7605L132.497 54.6405L132.442 49.6408ZM121.522 49.7608L126.151 47.8709L120.811 34.7909L116.182 36.6808L111.553 38.5706L116.893 51.6506L121.522 49.7608ZM116.182 36.6808L111.397 35.2284L107.317 48.6684L112.102 50.1208L116.886 51.5732L120.966 38.1332L116.182 36.6808ZM112.102 50.1208V45.1208H98.4817V50.1208V55.1208H112.102V50.1208ZM98.4817 50.1208L103.328 48.8906L92.408 5.87062L87.5617 7.10078L82.7154 8.33094L93.6354 51.3509L98.4817 50.1208ZM193.016 17.1808L191.956 22.0671L196.857 23.1305L197.905 18.2265L193.016 17.1808ZM173.036 14.8408L175.131 19.3806L175.202 19.3478L175.272 19.3129L173.036 14.8408ZM171.776 15.9808L175.68 19.1043L175.873 18.8637L176.034 18.6013L171.776 15.9808ZM174.956 20.8408L172.182 25.001L172.208 25.018L172.234 25.0347L174.956 20.8408ZM186.356 25.4608L184.916 30.2489L184.945 30.2578L184.975 30.2663L186.356 25.4608ZM194.516 30.3208L190.753 33.6133L190.768 33.6301L190.783 33.6468L194.516 30.3208ZM194.816 44.4208L190.94 41.2624L190.933 41.2706L194.816 44.4208ZM187.136 49.5808L188.867 54.2715L188.906 54.257L188.946 54.2418L187.136 49.5808ZM164.036 50.1208L162.894 54.9885L162.917 54.9941L162.941 54.9994L164.036 50.1208ZM153.536 46.7608L149.155 44.3512L146.497 49.1839L151.566 51.3565L153.536 46.7608ZM159.476 35.9608L161.754 31.5098L157.434 29.2989L155.095 33.5512L159.476 35.9608ZM183.896 39.3208L187.007 43.2349L187.145 43.1254L187.275 43.0065L183.896 39.3208ZM180.536 34.6408L182.44 30.0174V30.0174L180.536 34.6408ZM170.576 31.3408L169.159 36.1359L169.203 36.1489L169.248 36.1612L170.576 31.3408ZM164.516 28.2808L161.742 32.441V32.441L164.516 28.2808ZM158.576 22.9408L154.679 26.0736L154.698 26.0965L154.716 26.1193L158.576 22.9408ZM159.836 9.98078L156.661 6.11782L156.66 6.11933L159.836 9.98078ZM187.436 5.54078L186.824 10.5032L186.858 10.5073L186.891 10.511L187.436 5.54078ZM195.236 6.80078L200.125 7.8465L201.157 3.02281L196.348 1.92596L195.236 6.80078ZM193.016 17.1808L194.076 12.2945C185.661 10.4686 179.373 9.42078 175.676 9.42078V14.4208V19.4208C178.139 19.4208 183.41 20.2129 191.956 22.0671L193.016 17.1808ZM175.676 14.4208V9.42078C174.286 9.42078 172.436 9.55042 170.8 10.3686L173.036 14.8408L175.272 19.3129C175.097 19.4003 174.969 19.4414 174.916 19.457C174.861 19.4731 174.852 19.4716 174.902 19.4637C175.01 19.4464 175.255 19.4208 175.676 19.4208V14.4208ZM173.036 14.8408L170.941 10.301C169.466 10.9815 168.318 12.0597 167.518 13.3603L171.776 15.9808L176.034 18.6013C175.965 18.7133 175.853 18.8619 175.686 19.0135C175.516 19.1668 175.325 19.2909 175.131 19.3806L173.036 14.8408ZM171.776 15.9808L167.872 12.8573C166.764 14.2421 166.536 15.7776 166.536 16.8208H171.536H176.536C176.536 17.1439 176.468 18.1194 175.68 19.1043L171.776 15.9808ZM171.536 16.8208H166.536C166.536 19.068 167.625 20.8106 168.583 21.9357C169.572 23.0982 170.846 24.1099 172.182 25.001L174.956 20.8408L177.729 16.6805C177.277 16.3791 176.929 16.1178 176.667 15.8989C176.402 15.6772 176.26 15.5277 176.199 15.4559C176.135 15.3798 176.205 15.4431 176.299 15.65C176.399 15.8702 176.536 16.2752 176.536 16.8208H171.536ZM174.956 20.8408L172.234 25.0347C175.14 26.921 179.512 28.6236 184.916 30.2489L186.356 25.4608L187.796 20.6726C182.56 19.0979 179.332 17.7205 177.678 16.6469L174.956 20.8408ZM186.356 25.4608L184.975 30.2663C187.733 31.0589 189.55 32.2387 190.753 33.6133L194.516 30.3208L198.279 27.0283C195.562 23.9228 191.938 21.8626 187.737 20.6553L186.356 25.4608ZM194.516 30.3208L190.783 33.6468C192.029 35.0453 192.456 36.3122 192.456 37.5808H197.456H202.456C202.456 33.5693 200.923 29.9962 198.249 26.9948L194.516 30.3208ZM197.456 37.5808H192.456C192.456 38.6496 192.096 39.8438 190.94 41.2624L194.816 44.4208L198.692 47.5791C201.056 44.6778 202.456 41.312 202.456 37.5808H197.456ZM194.816 44.4208L190.933 41.2706C189.915 42.5256 188.179 43.8124 185.326 44.9197L187.136 49.5808L188.946 54.2418C192.893 52.7092 196.277 50.556 198.699 47.571L194.816 44.4208ZM187.136 49.5808L185.405 44.89C182.7 45.8882 179.464 46.4408 175.616 46.4408V51.4408V56.4408C180.408 56.4408 184.852 55.7534 188.867 54.2715L187.136 49.5808ZM175.616 51.4408V46.4408C172.205 46.4408 168.712 46.0461 165.131 45.2422L164.036 50.1208L162.941 54.9994C167.2 55.9555 171.427 56.4408 175.616 56.4408V51.4408ZM164.036 50.1208L165.178 45.253C161.487 44.3867 158.271 43.3504 155.506 42.1651L153.536 46.7608L151.566 51.3565C154.961 52.8112 158.745 54.0149 162.894 54.9885L164.036 50.1208ZM153.536 46.7608L157.917 49.1704L163.857 38.3704L159.476 35.9608L155.095 33.5512L149.155 44.3512L153.536 46.7608ZM159.476 35.9608L157.198 40.4118C164.358 44.0757 171.05 46.1808 177.116 46.1808V41.1808V36.1808C173.262 36.1808 168.194 34.8058 161.754 31.5098L159.476 35.9608ZM177.116 41.1808V46.1808C180.679 46.1808 184.223 45.4477 187.007 43.2349L183.896 39.3208L180.785 35.4067C180.449 35.6739 179.473 36.1808 177.116 36.1808V41.1808ZM183.896 39.3208L187.275 43.0065C188.16 42.1952 189.616 40.5329 189.616 38.0608H184.616H179.616C179.616 37.2254 179.873 36.5828 180.095 36.1951C180.303 35.8311 180.499 35.6518 180.517 35.635L183.896 39.3208ZM184.616 38.0608H189.616C189.616 35.3612 188.016 33.5163 186.808 32.5039C185.562 31.4593 184.006 30.6622 182.44 30.0174L180.536 34.6408L178.632 39.2642C179.178 39.489 179.593 39.6893 179.898 39.8583C180.21 40.0311 180.352 40.1405 180.384 40.1676C180.424 40.2009 180.253 40.0703 180.057 39.7394C179.842 39.375 179.616 38.7947 179.616 38.0608H184.616ZM180.536 34.6408L182.44 30.0174C179.476 28.7972 175.952 27.6356 171.904 26.5204L170.576 31.3408L169.248 36.1612C173.04 37.206 176.155 38.2443 178.632 39.2642L180.536 34.6408ZM170.576 31.3408L171.993 26.5457C170.889 26.2195 169.336 25.4851 167.289 24.1205L164.516 28.2808L161.742 32.441C164.256 34.1165 166.743 35.422 169.159 36.1359L170.576 31.3408ZM164.516 28.2808L167.289 24.1205C165.403 22.8626 163.792 21.4097 162.436 19.7622L158.576 22.9408L154.716 26.1193C156.72 28.5519 159.069 30.659 161.742 32.441L164.516 28.2808ZM158.576 22.9408L162.473 19.808C161.375 18.4418 161.116 17.4339 161.116 16.7008H156.116H151.116C151.116 20.2077 152.497 23.3597 154.679 26.0736L158.576 22.9408ZM156.116 16.7008H161.116C161.116 16.1977 161.296 15.2542 163.012 13.8422L159.836 9.98078L156.66 6.11933C153.416 8.78732 151.116 12.3238 151.116 16.7008H156.116ZM159.836 9.98078L163.01 13.8437C165.741 11.5997 170.65 10.0008 178.736 10.0008V5.00078V0.000778198C169.702 0.000778198 162.011 1.72183 156.661 6.11782L159.836 9.98078ZM178.736 5.00078V10.0008C181.407 10.0008 184.103 10.1677 186.824 10.5032L187.436 5.54078L188.048 0.57835C184.929 0.193863 181.825 0.000778198 178.736 0.000778198V5.00078ZM187.436 5.54078L186.891 10.511C189.666 10.8151 192.071 11.2074 194.124 11.6756L195.236 6.80078L196.348 1.92596C193.841 1.35414 191.045 0.90641 187.981 0.570534L187.436 5.54078ZM195.236 6.80078L190.347 5.75507L188.127 16.1351L193.016 17.1808L197.905 18.2265L200.125 7.8465L195.236 6.80078Z" fill="#00C501" mask="url(#path-1-outside-1_2005_5)"/>
</svg>
