<svg width="166" height="31" viewBox="0 0 166 31" fill="none" xmlns="http://www.w3.org/2000/svg">
<path d="M26.3192 8.12019C20.6659 6.89353 16.8126 6.28019 14.7592 6.28019C13.9592 6.28019 13.3726 6.37353 12.9992 6.56019C12.6526 6.72019 12.3726 6.97353 12.1592 7.32019C12.0526 7.45353 11.9992 7.64019 11.9992 7.88019C11.9992 8.65353 12.7592 9.54686 14.2792 10.5602C15.7992 11.5469 18.3326 12.5735 21.8792 13.6402C24.1992 14.3069 26.0126 15.3869 27.3192 16.8802C28.6259 18.3469 29.2792 19.9602 29.2792 21.7202C29.2792 23.3202 28.6926 24.8402 27.5192 26.2802C26.3726 27.6935 24.6659 28.8402 22.3992 29.7202C20.1592 30.5469 17.5992 30.9602 14.7192 30.9602C12.1859 30.9602 9.61255 30.6669 6.99922 30.0802C4.38589 29.4669 2.05255 28.7202 -0.000781238 27.8402L3.95922 20.6402C8.49255 22.9602 12.4126 24.1202 15.7192 24.1202C17.6926 24.1202 19.1992 23.7069 20.2392 22.8802C20.5592 22.5869 20.7192 22.3069 20.7192 22.0402C20.7192 21.2669 19.8126 20.5069 17.9992 19.7602C16.1859 19.0135 13.9726 18.2802 11.3592 17.5602C10.1859 17.2135 8.83922 16.5335 7.31922 15.5202C5.79922 14.5069 4.47922 13.3202 3.35922 11.9602C2.26589 10.6002 1.71922 9.21353 1.71922 7.8002C1.71922 6.17353 2.54589 4.68019 4.19922 3.32019C6.89255 1.10686 11.0926 0.000193119 16.7992 0.000193119C18.7192 0.000193119 20.6526 0.120193 22.5992 0.360193C24.5459 0.573527 26.2792 0.853527 27.7992 1.20019L26.3192 8.12019ZM34.882 1.12019H55.082V8.20019H42.482V12.4802H54.202V18.6402H42.482V22.0802H56.722V29.8802H34.882V1.12019ZM75.7439 8.48019C74.7839 8.00019 73.3572 7.77353 71.4639 7.8002V14.4402C73.1706 14.0402 74.5439 13.4535 75.5839 12.6802C76.6506 11.8802 77.1839 11.0802 77.1839 10.2802C77.1839 9.56019 76.7039 8.96019 75.7439 8.48019ZM71.4639 30.7202H62.3039V0.920193C64.4372 0.62686 66.4372 0.480194 68.3039 0.480194C71.4239 0.480194 74.2772 0.826861 76.8639 1.5202C79.4772 2.18686 81.5572 3.17353 83.1039 4.4802C84.6506 5.76019 85.4239 7.26686 85.4239 9.00019C85.4239 12.0402 83.0239 15.4135 78.2239 19.1202L90.1039 30.7202H79.7039C77.9972 29.0669 76.3839 27.5869 74.8639 26.2802C73.3439 24.9469 72.2106 24.1202 71.4639 23.8002V30.7202ZM103.501 0.840194V30.2802H94.1008V0.840194H103.501ZM109.101 1.12019H129.301V8.20019H116.701V12.4802H128.421V18.6402H116.701V22.0802H130.941V29.8802H109.101V1.12019ZM162.843 8.12019C157.189 6.89353 153.336 6.28019 151.283 6.28019C150.483 6.28019 149.896 6.37353 149.523 6.56019C149.176 6.72019 148.896 6.97353 148.683 7.32019C148.576 7.45353 148.523 7.64019 148.523 7.88019C148.523 8.65353 149.283 9.54686 150.803 10.5602C152.323 11.5469 154.856 12.5735 158.403 13.6402C160.723 14.3069 162.536 15.3869 163.843 16.8802C165.149 18.3469 165.803 19.9602 165.803 21.7202C165.803 23.3202 165.216 24.8402 164.043 26.2802C162.896 27.6935 161.189 28.8402 158.923 29.7202C156.683 30.5469 154.123 30.9602 151.243 30.9602C148.709 30.9602 146.136 30.6669 143.523 30.0802C140.909 29.4669 138.576 28.7202 136.523 27.8402L140.483 20.6402C145.016 22.9602 148.936 24.1202 152.243 24.1202C154.216 24.1202 155.723 23.7069 156.763 22.8802C157.083 22.5869 157.243 22.3069 157.243 22.0402C157.243 21.2669 156.336 20.5069 154.523 19.7602C152.709 19.0135 150.496 18.2802 147.883 17.5602C146.709 17.2135 145.363 16.5335 143.843 15.5202C142.323 14.5069 141.003 13.3202 139.883 11.9602C138.789 10.6002 138.243 9.21353 138.243 7.8002C138.243 6.17353 139.069 4.68019 140.723 3.32019C143.416 1.10686 147.616 0.000193119 153.323 0.000193119C155.243 0.000193119 157.176 0.120193 159.123 0.360193C161.069 0.573527 162.803 0.853527 164.323 1.20019L162.843 8.12019Z" fill="white"/>
</svg>
