<svg width="495" height="87" viewBox="0 0 495 87" fill="none" xmlns="http://www.w3.org/2000/svg">
<path d="M392.636 31.208V40.98H396.22V44.06H392.636V56.408H388.912V31.208H392.636ZM378.188 34.876V31.628H381.968V34.876H387.4V37.844H372.7V34.876H378.188ZM380.092 39.216C381.305 39.216 382.397 39.4773 383.368 40C384.357 40.504 385.123 41.2133 385.664 42.128C386.224 43.0427 386.504 44.0787 386.504 45.236C386.504 46.3933 386.224 47.4293 385.664 48.344C385.123 49.2587 384.357 49.9773 383.368 50.5C382.397 51.004 381.305 51.256 380.092 51.256C378.879 51.256 377.787 51.004 376.816 50.5C375.845 49.9773 375.08 49.2587 374.52 48.344C373.96 47.4293 373.68 46.3933 373.68 45.236C373.68 44.0787 373.96 43.0427 374.52 42.128C375.08 41.2133 375.845 40.504 376.816 40C377.787 39.4773 378.879 39.216 380.092 39.216ZM380.092 42.24C379.233 42.24 378.543 42.5107 378.02 43.052C377.516 43.5747 377.264 44.3027 377.264 45.236C377.264 46.1693 377.516 46.9067 378.02 47.448C378.543 47.9707 379.233 48.232 380.092 48.232C380.932 48.232 381.613 47.9707 382.136 47.448C382.659 46.9067 382.92 46.1693 382.92 45.236C382.92 44.3027 382.659 43.5747 382.136 43.052C381.613 42.5107 380.932 42.24 380.092 42.24ZM404.313 32.552C405.601 32.552 406.767 32.8133 407.813 33.336C408.877 33.8587 409.707 34.5867 410.305 35.52C410.902 36.4533 411.201 37.508 411.201 38.684C411.201 39.8413 410.902 40.8867 410.305 41.82C409.707 42.7533 408.877 43.4813 407.813 44.004C406.767 44.5267 405.601 44.788 404.313 44.788C403.025 44.788 401.858 44.5267 400.813 44.004C399.767 43.4813 398.946 42.7533 398.349 41.82C397.751 40.8867 397.453 39.8413 397.453 38.684C397.453 37.508 397.751 36.4533 398.349 35.52C398.946 34.5867 399.767 33.8587 400.813 33.336C401.858 32.8133 403.025 32.552 404.313 32.552ZM404.313 35.66C403.379 35.66 402.605 35.9307 401.989 36.472C401.391 37.0133 401.093 37.7507 401.093 38.684C401.093 39.6173 401.391 40.3547 401.989 40.896C402.605 41.4187 403.379 41.68 404.313 41.68C405.265 41.68 406.039 41.4187 406.637 40.896C407.253 40.3547 407.561 39.6173 407.561 38.684C407.561 37.7507 407.253 37.0133 406.637 36.472C406.039 35.9307 405.265 35.66 404.313 35.66ZM417.165 31.208V34.232H420.357V37.256H417.165V39.72H420.357V42.744H417.165V45.88H413.413V31.208H417.165ZM408.933 46.384C411.546 46.384 413.618 46.832 415.149 47.728C416.679 48.6053 417.445 49.828 417.445 51.396C417.445 52.964 416.679 54.1867 415.149 55.064C413.618 55.96 411.546 56.408 408.933 56.408C406.301 56.408 404.21 55.96 402.661 55.064C401.13 54.1867 400.365 52.964 400.365 51.396C400.365 49.828 401.13 48.6053 402.661 47.728C404.21 46.832 406.301 46.384 408.933 46.384ZM408.933 49.324C407.327 49.324 406.114 49.492 405.293 49.828C404.49 50.164 404.089 50.6867 404.089 51.396C404.089 52.796 405.703 53.496 408.933 53.496C412.162 53.496 413.777 52.796 413.777 51.396C413.777 50.0147 412.162 49.324 408.933 49.324ZM442.785 31.208V56.408H439.033V31.208H442.785ZM436.513 33.476V36.444H434.357V47.252C435.123 47.196 436.149 47.0933 437.437 46.944L437.661 49.632C435.309 50.0427 432.883 50.3133 430.381 50.444C427.88 50.5747 425.099 50.6493 422.037 50.668L421.701 47.644H424.501V36.444H422.345V33.476H436.513ZM430.773 47.476V36.444H428.085V47.56L430.773 47.476ZM466.81 33.336V36.248C466.81 38.656 466.745 40.756 466.614 42.548C466.483 44.34 466.147 46.468 465.606 48.932L461.938 48.596C462.367 46.748 462.675 44.8907 462.862 43.024L448.526 43.752L448.078 40.756L463.058 40.28C463.095 39.3653 463.114 38.0493 463.114 36.332H448.806V33.336H466.81ZM469.05 50.388V53.468H446.258V50.388H469.05ZM484.227 33.14V45.404H471.991V33.14H484.227ZM475.659 36.08V42.436H480.587V36.08H475.659ZM491.675 31.208V49.1H487.951V31.208H491.675ZM478.599 47.476V52.908H492.319V55.876H474.847V47.476H478.599Z" fill="white"/>
<path d="M34.452 61.464C34.0267 61.4253 33.6593 61.2513 33.35 60.942C33.0407 60.6327 32.828 60.13 32.712 59.434C32.2093 57.81 31.7067 56.2633 31.204 54.794C30.7013 53.286 30.218 51.6427 29.754 49.864C29.3287 48.3947 28.884 47.0413 28.42 45.804C27.9947 44.528 27.5887 43.0393 27.202 41.338C26.3127 44.47 25.346 47.5247 24.302 50.502C23.2967 53.4407 22.3493 56.418 21.46 59.434V59.492V59.55C21.46 60.0913 21.402 60.5553 21.286 60.942C21.17 61.29 20.9187 61.464 20.532 61.464H12.296C11.9867 61.464 11.7547 61.3673 11.6 61.174C11.4453 60.9807 11.368 60.7487 11.368 60.478C9.164 54.446 7.25 48.3753 5.626 42.266C4.04067 36.118 2.64867 29.8733 1.45 23.532C1.45 23.2227 1.54667 22.9327 1.74 22.662C1.972 22.3913 2.24267 22.1787 2.552 22.024C2.74533 21.7147 3.03533 21.56 3.422 21.56H11.542C12.006 21.56 12.3347 21.7533 12.528 22.14C12.7213 22.488 12.76 22.836 12.644 23.184C13.2627 26.664 13.9587 30.2793 14.732 34.03C15.544 37.7807 16.4333 41.3573 17.4 44.76C18.1347 43.484 18.7147 42.15 19.14 40.758C19.604 39.366 19.9907 37.9547 20.3 36.524C20.648 35.0547 20.9767 33.6047 21.286 32.174C21.634 30.7047 22.0787 29.274 22.62 27.882C22.6973 27.6113 22.7747 27.36 22.852 27.128C22.9293 26.8573 23.0453 26.6447 23.2 26.49C23.3547 26.3353 23.5673 26.2193 23.838 26.142C24.1087 26.026 24.476 25.968 24.94 25.968C25.9453 25.8907 26.97 25.8713 28.014 25.91C29.058 25.91 30.0053 25.9487 30.856 26.026C31.088 25.9487 31.3007 25.9293 31.494 25.968C31.726 25.968 31.9 26.0453 32.016 26.2C32.2867 26.432 32.3833 26.7413 32.306 27.128C32.2673 27.476 32.2867 27.9013 32.364 28.404C32.7893 31.304 33.408 34.2233 34.22 37.162C35.0707 40.1007 35.9987 42.788 37.004 45.224C37.7773 41.628 38.5507 38.032 39.324 34.436C40.0973 30.8013 40.9867 27.2053 41.992 23.648C42.108 23.2227 42.2047 22.7973 42.282 22.372C42.398 21.9467 42.7267 21.6373 43.268 21.444C44.7373 21.212 46.1873 21.154 47.618 21.27C49.0873 21.386 50.5373 21.4053 51.968 21.328C52.2773 21.444 52.5093 21.6567 52.664 21.966C52.8187 22.2367 52.8573 22.5267 52.78 22.836C52.9733 23.1067 53.012 23.416 52.896 23.764C51.6587 27.2053 50.5373 30.608 49.532 33.972C48.5653 37.2973 47.618 40.6613 46.69 44.064C46.1873 45.9973 45.704 47.834 45.24 49.574C44.8147 51.2753 44.486 52.996 44.254 54.736C44.022 55.3933 43.8093 56.1087 43.616 56.882C43.4227 57.6167 43.1907 58.332 42.92 59.028C42.9973 59.8013 42.978 60.4007 42.862 60.826C42.746 61.2513 42.34 61.464 41.644 61.464C41.3347 61.5027 41.1027 61.5027 40.948 61.464C40.832 61.464 40.5807 61.4447 40.194 61.406C39.846 61.406 39.2467 61.406 38.396 61.406C37.5453 61.406 36.2307 61.4253 34.452 61.464ZM56.1893 62.798C55.648 62.798 55.3 62.5467 55.1453 62.044C54.9906 61.58 55.0293 61.174 55.2613 60.826V50.676C55.3386 49.284 55.3 47.7953 55.1453 46.21C55.0293 44.6247 55.0873 42.9233 55.3193 41.106C55.5513 39.366 55.6866 37.6453 55.7253 35.944C55.764 34.204 55.7446 32.4833 55.6673 30.782C55.6286 29.042 55.5513 27.2827 55.4353 25.504C55.3193 23.7253 55.2613 21.8887 55.2613 19.994C55.2613 19.5687 55.4546 19.2207 55.8413 18.95C55.9573 18.718 56.2473 18.544 56.7113 18.428C57.9873 18.196 59.244 17.964 60.4813 17.732C61.7573 17.4613 63.014 17.1713 64.2513 16.862C64.406 16.862 64.522 16.8813 64.5993 16.92C64.9086 16.92 65.1793 17.0553 65.4113 17.326C65.682 17.558 65.8173 17.9253 65.8173 18.428V31.014C67.248 30.55 68.6786 30.26 70.1093 30.144C71.54 30.028 72.8933 30.1633 74.1693 30.55C75.4453 30.898 76.6053 31.536 77.6493 32.464C78.732 33.3533 79.6406 34.5713 80.3753 36.118C81.342 38.0513 81.98 40.0813 82.2893 42.208C82.5986 44.296 82.7726 46.4227 82.8113 48.588C82.8886 50.7533 82.9273 52.9187 82.9273 55.084C82.9273 57.2107 83.1013 59.2793 83.4493 61.29C83.4493 61.5607 83.3526 61.8507 83.1593 62.16C83.1593 62.3147 83.1013 62.45 82.9853 62.566C82.8693 62.7207 82.6953 62.798 82.4633 62.798H82.3473C82.1926 62.8753 81.9606 62.914 81.6513 62.914C80.298 63.1073 79.0413 63.1847 77.8813 63.146C76.7213 63.146 75.5613 63.03 74.4013 62.798C73.86 62.798 73.5506 62.682 73.4733 62.45C73.396 62.2567 73.3573 62.0633 73.3573 61.87C73.3573 60.3233 73.3766 58.7573 73.4153 57.172C73.4926 55.5867 73.5313 54.0207 73.5313 52.474C73.57 50.8887 73.5313 49.3227 73.4153 47.776C73.338 46.1907 73.1446 44.644 72.8353 43.136C72.5646 42.4013 72.1973 41.7247 71.7333 41.106C71.2693 40.4873 70.6506 40.178 69.8773 40.178C69.1813 39.946 68.524 40.004 67.9053 40.352C67.2866 40.7 66.7453 41.048 66.2813 41.396C66.32 44.528 66.378 47.6987 66.4553 50.908C66.5713 54.0787 66.5133 57.1913 66.2813 60.246C66.2813 60.7487 66.146 61.1353 65.8753 61.406C65.7593 61.986 65.4113 62.276 64.8313 62.276C63.3233 62.276 61.8926 62.3533 60.5393 62.508C59.186 62.7013 57.736 62.798 56.1893 62.798ZM88.3906 61.754C87.9653 61.754 87.656 61.5413 87.4626 61.116C87.308 60.7293 87.3273 60.362 87.5206 60.014V33.74C87.2886 33.3147 87.3273 32.87 87.6366 32.406C87.7913 32.1353 88.004 31.9807 88.2746 31.942C88.584 31.8647 88.8933 31.884 89.2026 32H96.1626C96.3946 32 96.588 32.0773 96.7426 32.232C96.8973 32.348 97.0133 32.5027 97.0906 32.696C97.516 32.928 97.6706 33.2953 97.5546 33.798C97.3226 36.118 97.2066 38.3413 97.2066 40.468C97.2066 42.556 97.2066 44.76 97.2066 47.08C97.2066 47.9693 97.1873 48.9553 97.1486 50.038C97.11 51.1207 97.0713 52.2227 97.0326 53.344C96.994 54.4653 96.9746 55.5673 96.9746 56.65C96.9746 57.694 97.0133 58.6413 97.0906 59.492C97.0906 59.5307 97.0906 59.5693 97.0906 59.608C97.1293 59.608 97.1486 59.6273 97.1486 59.666C97.342 59.782 97.4773 59.956 97.5546 60.188C97.632 60.42 97.632 60.652 97.5546 60.884C97.516 61.116 97.4193 61.3093 97.2646 61.464C97.11 61.6573 96.8973 61.754 96.6266 61.754H88.3906ZM94.3646 28.694C93.746 28.81 93.0693 28.8487 92.3346 28.81C91.6 28.7327 90.904 28.5587 90.2466 28.288C89.5893 28.0173 88.99 27.6307 88.4486 27.128C87.946 26.5867 87.6173 25.8907 87.4626 25.04C87.2306 24.344 87.1146 23.6093 87.1146 22.836C87.1533 22.024 87.2886 21.27 87.5206 20.574C87.7913 19.8393 88.178 19.2207 88.6806 18.718C89.222 18.2153 89.8793 17.906 90.6526 17.79C92.2766 17.558 93.7846 17.7707 95.1766 18.428C96.6073 19.0467 97.5353 20.0327 97.9606 21.386C98.1926 22.198 98.2893 22.9907 98.2506 23.764C98.212 24.5373 98.038 25.2527 97.7286 25.91C97.4193 26.5673 96.9746 27.1473 96.3946 27.65C95.8533 28.114 95.1766 28.462 94.3646 28.694ZM102.105 25.678C102.105 25.5233 102.144 25.33 102.221 25.098C102.337 24.634 102.608 24.3247 103.033 24.17C104.232 23.7447 105.373 23.3773 106.455 23.068C107.538 22.72 108.679 22.2947 109.877 21.792C109.955 21.7533 110.09 21.734 110.283 21.734C110.631 21.6567 110.979 21.7147 111.327 21.908C111.675 22.0627 111.849 22.3527 111.849 22.778C111.849 24.402 111.849 25.8327 111.849 27.07C111.888 28.2687 112.004 29.564 112.197 30.956C113.473 31.1493 114.827 31.2073 116.257 31.13C117.688 31.014 119.157 30.8593 120.665 30.666C121.013 30.666 121.284 30.782 121.477 31.014C121.864 31.2847 122.057 31.652 122.057 32.116V37.51C122.057 37.7033 122.038 37.8387 121.999 37.916C122.309 38.2253 122.386 38.6313 122.231 39.134C122.077 39.6367 121.709 39.888 121.129 39.888C119.699 39.656 118.21 39.598 116.663 39.714C115.155 39.83 113.667 39.888 112.197 39.888C112.004 41.28 111.985 42.7687 112.139 44.354C112.294 45.9007 112.371 47.3507 112.371 48.704C112.371 49.052 112.352 49.458 112.313 49.922C112.313 50.386 112.352 50.85 112.429 51.314C112.507 51.7393 112.642 52.1453 112.835 52.532C113.067 52.9187 113.396 53.228 113.821 53.46C114.053 53.576 114.343 53.6147 114.691 53.576C115.078 53.5373 115.445 53.46 115.793 53.344C116.18 53.228 116.547 53.0927 116.895 52.938C117.282 52.7833 117.591 52.648 117.823 52.532C118.055 52.416 118.326 52.2613 118.635 52.068C118.983 51.836 119.331 51.662 119.679 51.546C120.066 51.43 120.433 51.3913 120.781 51.43C121.129 51.4687 121.419 51.662 121.651 52.01C122.038 52.358 122.347 52.8413 122.579 53.46C122.85 54.0787 123.082 54.736 123.275 55.432C123.469 56.128 123.623 56.8047 123.739 57.462C123.894 58.1193 124.029 58.68 124.145 59.144C124.145 59.492 124.068 59.724 123.913 59.84C123.797 60.2267 123.546 60.478 123.159 60.594C121.574 60.942 119.776 61.2513 117.765 61.522C115.755 61.7927 113.763 61.7927 111.791 61.522C109.858 61.29 108.099 60.71 106.513 59.782C104.928 58.854 103.768 57.3653 103.033 55.316C102.337 53.1893 102.009 50.966 102.047 48.646C102.086 46.2873 102.105 43.8707 102.105 41.396C101.873 38.9987 101.757 36.4273 101.757 33.682C101.757 30.9367 101.873 28.2687 102.105 25.678ZM136.012 49.922C136.36 50.8113 137.094 51.4493 138.216 51.836C139.337 52.2227 140.555 52.4547 141.87 52.532C143.223 52.5707 144.557 52.5127 145.872 52.358C147.186 52.2033 148.211 52.01 148.946 51.778C149.255 51.7007 149.506 51.7393 149.7 51.894C149.932 52.01 150.086 52.184 150.164 52.416L150.338 52.706C150.531 53.634 150.763 54.562 151.034 55.49C151.343 56.418 151.73 57.346 152.194 58.274C152.348 58.8927 152.155 59.376 151.614 59.724C151.575 59.8013 151.517 59.8787 151.44 59.956C151.401 60.0333 151.343 60.0913 151.266 60.13C150.454 60.594 149.584 60.9613 148.656 61.232C147.766 61.5027 146.858 61.696 145.93 61.812C145.002 61.928 144.074 61.986 143.146 61.986C142.256 62.0247 141.406 62.044 140.594 62.044C137.191 62.044 134.059 61.116 131.198 59.26C129.922 58.332 128.858 57.2493 128.008 56.012C127.196 54.736 126.558 53.3827 126.094 51.952C125.63 50.5213 125.32 49.0327 125.166 47.486C125.05 45.9393 125.05 44.412 125.166 42.904C125.668 40.12 126.596 37.626 127.95 35.422C129.342 33.218 131.352 31.5167 133.982 30.318C135.142 29.854 136.398 29.564 137.752 29.448C139.105 29.332 140.458 29.39 141.812 29.622C143.204 29.8153 144.518 30.1827 145.756 30.724C146.993 31.2267 148.076 31.884 149.004 32.696C150.048 33.74 150.84 34.9193 151.382 36.234C151.962 37.51 152.368 38.8633 152.6 40.294C152.87 41.7247 153.025 43.194 153.064 44.702C153.102 46.1713 153.122 47.602 153.122 48.994C153.122 49.458 152.909 49.7673 152.484 49.922C152.097 50.0767 151.71 50.0767 151.324 49.922H151.266H136.012ZM135.664 42.034C137.017 42.034 138.312 42.0533 139.55 42.092C140.826 42.092 142.044 42.0727 143.204 42.034C142.894 41.2607 142.566 40.526 142.218 39.83C141.87 39.0953 141.212 38.6313 140.246 38.438C139.666 38.2447 139.105 38.2253 138.564 38.38C138.061 38.496 137.597 38.7473 137.172 39.134C136.785 39.482 136.456 39.9073 136.186 40.41C135.915 40.9127 135.741 41.454 135.664 42.034ZM170.388 22.952C170.465 22.604 170.62 22.3527 170.852 22.198C171.084 22.0047 171.335 21.908 171.606 21.908C171.683 21.908 171.741 21.908 171.78 21.908C171.818 21.8693 171.876 21.85 171.954 21.85C173.539 21.6567 175.047 21.4247 176.478 21.154C177.908 20.8833 179.532 20.748 181.35 20.748C182.626 20.748 183.998 20.806 185.468 20.922C186.976 21.038 188.445 21.2313 189.876 21.502C191.345 21.7727 192.718 22.14 193.994 22.604C195.27 23.0293 196.352 23.532 197.242 24.112C198.208 24.7693 199.02 25.62 199.678 26.664C200.335 27.6693 200.838 28.752 201.186 29.912C201.572 31.0333 201.824 32.1353 201.94 33.218C202.056 34.3007 202.056 35.248 201.94 36.06C201.824 36.872 201.727 37.6453 201.65 38.38C201.572 39.1147 201.437 39.8107 201.244 40.468C201.089 41.1253 200.818 41.7827 200.432 42.44C200.084 43.0587 199.562 43.6773 198.866 44.296C197.628 45.4947 196.294 46.4227 194.864 47.08C193.472 47.6987 192.022 48.1627 190.514 48.472C189.006 48.7427 187.44 48.9167 185.816 48.994C184.23 49.0713 182.626 49.1487 181.002 49.226C181.002 50.27 181.021 51.198 181.06 52.01C181.137 52.7833 181.195 53.5567 181.234 54.33C181.311 55.0647 181.35 55.838 181.35 56.65C181.388 57.462 181.369 58.4093 181.292 59.492C181.253 60.1493 181.137 60.7293 180.944 61.232C180.789 61.7347 180.499 62.044 180.074 62.16C179.687 62.276 179.262 62.3147 178.798 62.276C178.372 62.2373 177.947 62.1987 177.522 62.16C176.632 62.1213 175.762 62.1213 174.912 62.16C174.061 62.1987 173.21 62.2373 172.36 62.276C171.625 62.276 171.142 62.0827 170.91 61.696C170.678 61.348 170.581 61.0193 170.62 60.71C170.658 60.2847 170.658 59.7627 170.62 59.144C170.581 58.5253 170.562 58.0613 170.562 57.752C170.523 56.94 170.504 56.128 170.504 55.316C170.542 54.504 170.562 53.6727 170.562 52.822C170.562 50.2313 170.542 47.6987 170.504 45.224C170.504 42.7493 170.484 40.3133 170.446 37.916C170.446 35.48 170.426 33.044 170.388 30.608C170.388 28.1333 170.388 25.5813 170.388 22.952ZM181.698 30.84C181.736 32.2707 181.698 33.6627 181.582 35.016C181.504 36.3693 181.504 37.7613 181.582 39.192C181.736 39.192 181.949 39.2113 182.22 39.25C182.529 39.25 182.838 39.25 183.148 39.25C183.496 39.25 183.824 39.25 184.134 39.25C184.443 39.2113 184.656 39.192 184.772 39.192C185.7 39.1147 186.55 38.9407 187.324 38.67C188.136 38.3607 188.812 37.8193 189.354 37.046C189.972 36.0793 190.166 34.9967 189.934 33.798C189.779 32.9473 189.392 32.3093 188.774 31.884C188.155 31.4587 187.44 31.1687 186.628 31.014C185.816 30.8593 184.965 30.8013 184.076 30.84C183.186 30.84 182.394 30.84 181.698 30.84ZM205.82 61.754C205.395 61.754 205.086 61.5413 204.892 61.116C204.738 60.7293 204.757 60.362 204.95 60.014V33.74C204.718 33.3147 204.757 32.87 205.066 32.406C205.221 32.1353 205.434 31.9807 205.704 31.942C206.014 31.8647 206.323 31.884 206.632 32H213.592C213.824 32 214.018 32.0773 214.172 32.232C214.327 32.348 214.443 32.5027 214.52 32.696C214.946 32.928 215.1 33.2953 214.984 33.798C214.752 36.118 214.636 38.3413 214.636 40.468C214.636 42.556 214.636 44.76 214.636 47.08C214.636 47.9693 214.617 48.9553 214.578 50.038C214.54 51.1207 214.501 52.2227 214.462 53.344C214.424 54.4653 214.404 55.5673 214.404 56.65C214.404 57.694 214.443 58.6413 214.52 59.492C214.52 59.5307 214.52 59.5693 214.52 59.608C214.559 59.608 214.578 59.6273 214.578 59.666C214.772 59.782 214.907 59.956 214.984 60.188C215.062 60.42 215.062 60.652 214.984 60.884C214.946 61.116 214.849 61.3093 214.694 61.464C214.54 61.6573 214.327 61.754 214.056 61.754H205.82ZM211.794 28.694C211.176 28.81 210.499 28.8487 209.764 28.81C209.03 28.7327 208.334 28.5587 207.676 28.288C207.019 28.0173 206.42 27.6307 205.878 27.128C205.376 26.5867 205.047 25.8907 204.892 25.04C204.66 24.344 204.544 23.6093 204.544 22.836C204.583 22.024 204.718 21.27 204.95 20.574C205.221 19.8393 205.608 19.2207 206.11 18.718C206.652 18.2153 207.309 17.906 208.082 17.79C209.706 17.558 211.214 17.7707 212.606 18.428C214.037 19.0467 214.965 20.0327 215.39 21.386C215.622 22.198 215.719 22.9907 215.68 23.764C215.642 24.5373 215.468 25.2527 215.158 25.91C214.849 26.5673 214.404 27.1473 213.824 27.65C213.283 28.114 212.606 28.462 211.794 28.694ZM219.347 20.284C219.347 19.9747 219.425 19.7427 219.579 19.588C219.773 19.4333 219.985 19.3173 220.217 19.24C220.333 19.0467 220.507 18.9113 220.739 18.834C221.977 18.37 223.195 18.0027 224.393 17.732C225.631 17.4227 226.984 17.152 228.453 16.92C228.917 16.7653 229.343 16.8427 229.729 17.152C230.116 17.4227 230.309 17.8287 230.309 18.37C230.309 21.9273 230.309 25.388 230.309 28.752C230.348 32.116 230.464 35.5573 230.657 39.076C231.624 38.032 232.552 36.9687 233.441 35.886C234.331 34.8033 235.201 33.682 236.051 32.522C236.245 32.1353 236.477 31.768 236.747 31.42C237.057 31.072 237.443 30.898 237.907 30.898C239.609 30.898 241.368 30.9173 243.185 30.956C245.003 30.9947 246.685 31.0527 248.231 31.13C248.309 31.13 248.386 31.1493 248.463 31.188C248.618 31.2653 248.695 31.4007 248.695 31.594C248.811 32.174 248.734 32.754 248.463 33.334C248.231 33.8753 247.883 34.3973 247.419 34.9C246.994 35.4027 246.511 35.886 245.969 36.35C245.467 36.7753 245.041 37.162 244.693 37.51C243.495 38.7473 242.277 40.0427 241.039 41.396C239.841 42.7107 238.797 43.8707 237.907 44.876C237.753 45.0693 237.656 45.1853 237.617 45.224C238.081 45.7267 238.565 46.2873 239.067 46.906C239.609 47.5247 240.15 48.1627 240.691 48.82C241.271 49.4387 241.832 50.0767 242.373 50.734C242.953 51.3527 243.514 51.9327 244.055 52.474C244.983 53.6727 245.931 54.7747 246.897 55.78C247.903 56.7853 248.773 57.8873 249.507 59.086C249.971 59.55 250.049 59.9947 249.739 60.42C249.43 60.8067 249.043 61 248.579 61C247.187 61 245.737 61 244.229 61C242.721 61.0387 241.194 61.116 239.647 61.232C239.454 61.4253 239.222 61.5413 238.951 61.58C238.681 61.6187 238.449 61.5413 238.255 61.348L236.921 59.318C235.955 57.926 234.969 56.5533 233.963 55.2C232.997 53.8467 231.953 52.5707 230.831 51.372V59.55C230.831 59.8207 230.715 60.072 230.483 60.304C230.445 60.6133 230.348 60.884 230.193 61.116C230.039 61.348 229.787 61.464 229.439 61.464C227.97 61.232 226.636 61.116 225.437 61.116C224.277 61.116 222.963 61.232 221.493 61.464C221.029 61.464 220.701 61.29 220.507 60.942C220.198 60.71 220.043 60.4007 220.043 60.014C219.811 58.3513 219.734 56.766 219.811 55.258C219.889 53.75 220.063 52.1453 220.333 50.444C220.527 49.0133 220.585 47.486 220.507 45.862C220.43 44.238 220.391 42.5753 220.391 40.874C220.391 37.4713 220.333 34.0493 220.217 30.608C220.14 27.128 219.85 23.6867 219.347 20.284ZM254.288 61.406C253.786 61.522 253.38 61.4833 253.07 61.29C252.8 61.0967 252.626 60.8453 252.548 60.536C252.432 60.3813 252.374 60.1687 252.374 59.898C252.374 55.4127 252.297 51.0433 252.142 46.79C251.988 42.5367 251.91 38.148 251.91 33.624C251.91 33.3147 251.988 33.0827 252.142 32.928L252.374 32.696C254.269 31.7293 256.164 31.014 258.058 30.55C259.992 30.086 262.002 29.854 264.09 29.854C265.057 29.854 266.024 29.8733 266.99 29.912C267.957 29.9507 268.866 30.0667 269.716 30.26C270.606 30.4533 271.418 30.782 272.152 31.246C272.887 31.71 273.486 32.348 273.95 33.16C274.028 33.2373 274.066 33.3147 274.066 33.392C275.574 32.7347 277.121 32.2127 278.706 31.826C280.33 31.4007 281.916 31.246 283.462 31.362C285.009 31.478 286.459 31.9227 287.812 32.696C289.166 33.4693 290.364 34.7067 291.408 36.408C292.298 38.0707 292.897 39.8107 293.206 41.628C293.554 43.4067 293.728 45.1467 293.728 46.848V60.42C293.728 60.8453 293.554 61.1353 293.206 61.29C292.897 61.4833 292.568 61.5413 292.22 61.464C291.795 61.5413 291.35 61.5413 290.886 61.464C290.461 61.4253 289.997 61.406 289.494 61.406H284.332H284.158C283.81 61.5607 283.443 61.5413 283.056 61.348C282.67 61.1933 282.476 60.884 282.476 60.42C282.476 59.492 282.496 58.5253 282.534 57.52C282.573 56.5147 282.612 55.3547 282.65 54.04C282.728 52.7253 282.786 51.2173 282.824 49.516C282.902 47.8147 282.94 45.7653 282.94 43.368C282.94 42.904 282.786 42.3433 282.476 41.686C282.167 41.0287 281.78 40.4873 281.316 40.062C280.852 39.598 280.33 39.3467 279.75 39.308C279.209 39.2307 278.706 39.54 278.242 40.236L278.01 40.468C278.552 43.832 278.784 47.1573 278.706 50.444C278.668 53.7307 278.629 57.056 278.59 60.42C278.629 60.6133 278.59 60.8067 278.474 61C278.358 61.1933 278.204 61.3673 278.01 61.522C277.817 61.6767 277.604 61.7927 277.372 61.87C277.179 61.9473 277.005 61.9473 276.85 61.87H269.252C268.866 61.87 268.556 61.7927 268.324 61.638C268.131 61.4833 267.996 61.29 267.918 61.058C267.841 60.826 267.841 60.594 267.918 60.362C267.996 60.13 268.15 59.9367 268.382 59.782V48.066C268.266 47.37 268.15 46.4807 268.034 45.398C267.957 44.2767 267.744 43.252 267.396 42.324C267.048 41.396 266.488 40.7193 265.714 40.294C264.98 39.8687 263.897 39.9847 262.466 40.642V59.898C262.466 60.478 262.292 60.884 261.944 61.116C261.635 61.348 261.326 61.4253 261.016 61.348C259.856 61.116 258.735 61 257.652 61C256.57 61 255.448 61.1353 254.288 61.406ZM299.807 61.754C299.381 61.754 299.072 61.5413 298.879 61.116C298.724 60.7293 298.743 60.362 298.937 60.014V33.74C298.705 33.3147 298.743 32.87 299.053 32.406C299.207 32.1353 299.42 31.9807 299.691 31.942C300 31.8647 300.309 31.884 300.619 32H307.579C307.811 32 308.004 32.0773 308.159 32.232C308.313 32.348 308.429 32.5027 308.507 32.696C308.932 32.928 309.087 33.2953 308.971 33.798C308.739 36.118 308.623 38.3413 308.623 40.468C308.623 42.556 308.623 44.76 308.623 47.08C308.623 47.9693 308.603 48.9553 308.565 50.038C308.526 51.1207 308.487 52.2227 308.449 53.344C308.41 54.4653 308.391 55.5673 308.391 56.65C308.391 57.694 308.429 58.6413 308.507 59.492C308.507 59.5307 308.507 59.5693 308.507 59.608C308.545 59.608 308.565 59.6273 308.565 59.666C308.758 59.782 308.893 59.956 308.971 60.188C309.048 60.42 309.048 60.652 308.971 60.884C308.932 61.116 308.835 61.3093 308.681 61.464C308.526 61.6573 308.313 61.754 308.043 61.754H299.807ZM305.781 28.694C305.162 28.81 304.485 28.8487 303.751 28.81C303.016 28.7327 302.32 28.5587 301.663 28.288C301.005 28.0173 300.406 27.6307 299.865 27.128C299.362 26.5867 299.033 25.8907 298.879 25.04C298.647 24.344 298.531 23.6093 298.531 22.836C298.569 22.024 298.705 21.27 298.937 20.574C299.207 19.8393 299.594 19.2207 300.097 18.718C300.638 18.2153 301.295 17.906 302.069 17.79C303.693 17.558 305.201 17.7707 306.593 18.428C308.023 19.0467 308.951 20.0327 309.377 21.386C309.609 22.198 309.705 22.9907 309.667 23.764C309.628 24.5373 309.454 25.2527 309.145 25.91C308.835 26.5673 308.391 27.1473 307.811 27.65C307.269 28.114 306.593 28.462 305.781 28.694ZM315.422 61.986C315.074 61.986 314.803 61.87 314.61 61.638C314.455 61.406 314.358 61.1547 314.32 60.884C314.088 60.7293 313.972 60.4393 313.972 60.014C314.204 55.722 314.339 51.4107 314.378 47.08C314.416 42.7107 314.436 38.3607 314.436 34.03C314.242 33.45 314.416 32.9667 314.958 32.58C316.891 31.5747 318.902 30.9173 320.99 30.608C323.116 30.2987 325.282 30.144 327.486 30.144C329.458 30.144 331.352 30.3373 333.17 30.724C335.026 31.1107 336.669 32.0193 338.1 33.45C338.718 34.1847 339.182 34.9967 339.492 35.886C339.84 36.7753 340.091 37.7033 340.246 38.67C340.4 39.598 340.478 40.526 340.478 41.454C340.516 42.382 340.536 43.2713 340.536 44.122C340.768 47.022 340.845 49.806 340.768 52.474C340.69 55.142 340.768 57.81 341 60.478C341 60.826 340.884 61.0967 340.652 61.29C340.42 61.4833 340.149 61.58 339.84 61.58C339.646 61.8507 339.376 61.986 339.028 61.986H333.808C333.421 61.986 333.131 61.8507 332.938 61.58C332.628 61.58 332.358 61.4833 332.126 61.29C331.932 61.0967 331.836 60.826 331.836 60.478V47.022C331.836 46.558 331.816 46.036 331.778 45.456C331.778 44.876 331.739 44.296 331.662 43.716C331.623 43.136 331.546 42.5947 331.43 42.092C331.314 41.5507 331.14 41.106 330.908 40.758C330.637 40.2553 330.25 39.9267 329.748 39.772C329.245 39.6173 328.684 39.5593 328.066 39.598C327.486 39.6367 326.886 39.7333 326.268 39.888C325.649 40.004 325.088 40.12 324.586 40.236C324.586 43.6387 324.624 47.0027 324.702 50.328C324.779 53.6533 324.818 56.882 324.818 60.014C324.818 60.4007 324.74 60.71 324.586 60.942C324.431 61.174 324.257 61.3287 324.064 61.406L323.948 61.522C323.406 61.754 322.826 61.8893 322.208 61.928C321.589 61.9667 321.028 61.986 320.526 61.986H315.422Z" fill="#333333"/>
</svg>
