<svg width="537" height="87" viewBox="0 0 537 87" fill="none" xmlns="http://www.w3.org/2000/svg">
<path d="M434.692 31.18V35.828H438.024V38.852H434.692V43.584H430.968V31.18H434.692ZM419.572 32.272V39.888C422.764 39.832 425.9 39.5147 428.98 38.936L429.4 41.932C425.947 42.6227 422.139 42.968 417.976 42.968H415.848V32.272H419.572ZM434.692 44.62V51.676H421.784V53.188H435.42V56.128H418.06V48.904H430.996V47.504H418.004V44.62H434.692ZM460.873 31.18V56.38H457.317V43.612H455.217V55.316H451.717V31.824H455.217V40.616H457.317V31.18H460.873ZM450.177 34.26C450.177 38.0867 449.495 41.3907 448.133 44.172C446.789 46.9347 444.446 49.296 441.105 51.256L438.921 48.652C441.366 47.196 443.186 45.5627 444.381 43.752C445.575 41.9227 446.285 39.7573 446.509 37.256H440.237V34.26H450.177ZM484.785 31.208V56.408H481.033V31.208H484.785ZM478.513 33.476V36.444H476.357V47.252C477.123 47.196 478.149 47.0933 479.437 46.944L479.661 49.632C477.309 50.0427 474.883 50.3133 472.381 50.444C469.88 50.5747 467.099 50.6493 464.037 50.668L463.701 47.644H466.501V36.444H464.345V33.476H478.513ZM472.773 47.476V36.444H470.085V47.56L472.773 47.476ZM508.81 33.336V36.248C508.81 38.656 508.745 40.756 508.614 42.548C508.483 44.34 508.147 46.468 507.606 48.932L503.938 48.596C504.367 46.748 504.675 44.8907 504.862 43.024L490.526 43.752L490.078 40.756L505.058 40.28C505.095 39.3653 505.114 38.0493 505.114 36.332H490.806V33.336H508.81ZM511.05 50.388V53.468H488.258V50.388H511.05ZM526.227 33.14V45.404H513.991V33.14H526.227ZM517.659 36.08V42.436H522.587V36.08H517.659ZM533.675 31.208V49.1H529.951V31.208H533.675ZM520.599 47.476V52.908H534.319V55.876H516.847V47.476H520.599Z" fill="white"/>
<path d="M34.452 61.464C34.0267 61.4253 33.6593 61.2513 33.35 60.942C33.0407 60.6327 32.828 60.13 32.712 59.434C32.2093 57.81 31.7067 56.2633 31.204 54.794C30.7013 53.286 30.218 51.6427 29.754 49.864C29.3287 48.3947 28.884 47.0413 28.42 45.804C27.9947 44.528 27.5887 43.0393 27.202 41.338C26.3127 44.47 25.346 47.5247 24.302 50.502C23.2967 53.4407 22.3493 56.418 21.46 59.434V59.492V59.55C21.46 60.0913 21.402 60.5553 21.286 60.942C21.17 61.29 20.9187 61.464 20.532 61.464H12.296C11.9867 61.464 11.7547 61.3673 11.6 61.174C11.4453 60.9807 11.368 60.7487 11.368 60.478C9.164 54.446 7.25 48.3753 5.626 42.266C4.04067 36.118 2.64867 29.8733 1.45 23.532C1.45 23.2227 1.54667 22.9327 1.74 22.662C1.972 22.3913 2.24267 22.1787 2.552 22.024C2.74533 21.7147 3.03533 21.56 3.422 21.56H11.542C12.006 21.56 12.3347 21.7533 12.528 22.14C12.7213 22.488 12.76 22.836 12.644 23.184C13.2627 26.664 13.9587 30.2793 14.732 34.03C15.544 37.7807 16.4333 41.3573 17.4 44.76C18.1347 43.484 18.7147 42.15 19.14 40.758C19.604 39.366 19.9907 37.9547 20.3 36.524C20.648 35.0547 20.9767 33.6047 21.286 32.174C21.634 30.7047 22.0787 29.274 22.62 27.882C22.6973 27.6113 22.7747 27.36 22.852 27.128C22.9293 26.8573 23.0453 26.6447 23.2 26.49C23.3547 26.3353 23.5673 26.2193 23.838 26.142C24.1087 26.026 24.476 25.968 24.94 25.968C25.9453 25.8907 26.97 25.8713 28.014 25.91C29.058 25.91 30.0053 25.9487 30.856 26.026C31.088 25.9487 31.3007 25.9293 31.494 25.968C31.726 25.968 31.9 26.0453 32.016 26.2C32.2867 26.432 32.3833 26.7413 32.306 27.128C32.2673 27.476 32.2867 27.9013 32.364 28.404C32.7893 31.304 33.408 34.2233 34.22 37.162C35.0707 40.1007 35.9987 42.788 37.004 45.224C37.7773 41.628 38.5507 38.032 39.324 34.436C40.0973 30.8013 40.9867 27.2053 41.992 23.648C42.108 23.2227 42.2047 22.7973 42.282 22.372C42.398 21.9467 42.7267 21.6373 43.268 21.444C44.7373 21.212 46.1873 21.154 47.618 21.27C49.0873 21.386 50.5373 21.4053 51.968 21.328C52.2773 21.444 52.5093 21.6567 52.664 21.966C52.8187 22.2367 52.8573 22.5267 52.78 22.836C52.9733 23.1067 53.012 23.416 52.896 23.764C51.6587 27.2053 50.5373 30.608 49.532 33.972C48.5653 37.2973 47.618 40.6613 46.69 44.064C46.1873 45.9973 45.704 47.834 45.24 49.574C44.8147 51.2753 44.486 52.996 44.254 54.736C44.022 55.3933 43.8093 56.1087 43.616 56.882C43.4227 57.6167 43.1907 58.332 42.92 59.028C42.9973 59.8013 42.978 60.4007 42.862 60.826C42.746 61.2513 42.34 61.464 41.644 61.464C41.3347 61.5027 41.1027 61.5027 40.948 61.464C40.832 61.464 40.5807 61.4447 40.194 61.406C39.846 61.406 39.2467 61.406 38.396 61.406C37.5453 61.406 36.2307 61.4253 34.452 61.464ZM56.3633 61.754C55.938 61.754 55.6286 61.5413 55.4353 61.116C55.2806 60.7293 55.3 60.362 55.4933 60.014V33.74C55.2613 33.3147 55.3 32.87 55.6093 32.406C55.764 32.1353 55.9766 31.9807 56.2473 31.942C56.5566 31.8647 56.866 31.884 57.1753 32H64.1353C64.3673 32 64.5606 32.0773 64.7153 32.232C64.87 32.348 64.986 32.5027 65.0633 32.696C65.4886 32.928 65.6433 33.2953 65.5273 33.798C65.2953 36.118 65.1793 38.3413 65.1793 40.468C65.1793 42.556 65.1793 44.76 65.1793 47.08C65.1793 47.9693 65.16 48.9553 65.1213 50.038C65.0826 51.1207 65.044 52.2227 65.0053 53.344C64.9666 54.4653 64.9473 55.5673 64.9473 56.65C64.9473 57.694 64.986 58.6413 65.0633 59.492C65.0633 59.5307 65.0633 59.5693 65.0633 59.608C65.102 59.608 65.1213 59.6273 65.1213 59.666C65.3146 59.782 65.45 59.956 65.5273 60.188C65.6046 60.42 65.6046 60.652 65.5273 60.884C65.4886 61.116 65.392 61.3093 65.2373 61.464C65.0826 61.6573 64.87 61.754 64.5993 61.754H56.3633ZM62.3373 28.694C61.7186 28.81 61.042 28.8487 60.3073 28.81C59.5726 28.7327 58.8766 28.5587 58.2193 28.288C57.562 28.0173 56.9626 27.6307 56.4213 27.128C55.9186 26.5867 55.59 25.8907 55.4353 25.04C55.2033 24.344 55.0873 23.6093 55.0873 22.836C55.126 22.024 55.2613 21.27 55.4933 20.574C55.764 19.8393 56.1506 19.2207 56.6533 18.718C57.1946 18.2153 57.852 17.906 58.6253 17.79C60.2493 17.558 61.7573 17.7707 63.1493 18.428C64.58 19.0467 65.508 20.0327 65.9333 21.386C66.1653 22.198 66.262 22.9907 66.2233 23.764C66.1846 24.5373 66.0106 25.2527 65.7013 25.91C65.392 26.5673 64.9473 27.1473 64.3673 27.65C63.826 28.114 63.1493 28.462 62.3373 28.694ZM71.9785 61.986C71.6305 61.986 71.3598 61.87 71.1665 61.638C71.0118 61.406 70.9151 61.1547 70.8765 60.884C70.6445 60.7293 70.5285 60.4393 70.5285 60.014C70.7605 55.722 70.8958 51.4107 70.9345 47.08C70.9731 42.7107 70.9925 38.3607 70.9925 34.03C70.7991 33.45 70.9731 32.9667 71.5145 32.58C73.4478 31.5747 75.4585 30.9173 77.5465 30.608C79.6731 30.2987 81.8385 30.144 84.0425 30.144C86.0145 30.144 87.9091 30.3373 89.7265 30.724C91.5825 31.1107 93.2258 32.0193 94.6565 33.45C95.2751 34.1847 95.7391 34.9967 96.0485 35.886C96.3965 36.7753 96.6478 37.7033 96.8025 38.67C96.9571 39.598 97.0345 40.526 97.0345 41.454C97.0731 42.382 97.0925 43.2713 97.0925 44.122C97.3245 47.022 97.4018 49.806 97.3245 52.474C97.2471 55.142 97.3245 57.81 97.5565 60.478C97.5565 60.826 97.4405 61.0967 97.2085 61.29C96.9765 61.4833 96.7058 61.58 96.3965 61.58C96.2031 61.8507 95.9325 61.986 95.5845 61.986H90.3645C89.9778 61.986 89.6878 61.8507 89.4945 61.58C89.1851 61.58 88.9145 61.4833 88.6825 61.29C88.4891 61.0967 88.3925 60.826 88.3925 60.478V47.022C88.3925 46.558 88.3731 46.036 88.3345 45.456C88.3345 44.876 88.2958 44.296 88.2185 43.716C88.1798 43.136 88.1025 42.5947 87.9865 42.092C87.8705 41.5507 87.6965 41.106 87.4645 40.758C87.1938 40.2553 86.8071 39.9267 86.3045 39.772C85.8018 39.6173 85.2411 39.5593 84.6225 39.598C84.0425 39.6367 83.4431 39.7333 82.8245 39.888C82.2058 40.004 81.6451 40.12 81.1425 40.236C81.1425 43.6387 81.1811 47.0027 81.2585 50.328C81.3358 53.6533 81.3745 56.882 81.3745 60.014C81.3745 60.4007 81.2971 60.71 81.1425 60.942C80.9878 61.174 80.8138 61.3287 80.6205 61.406L80.5045 61.522C79.9631 61.754 79.3831 61.8893 78.7645 61.928C78.1458 61.9667 77.5851 61.986 77.0825 61.986H71.9785ZM103.6 61.928C103.716 61.6187 103.89 61.406 104.122 61.29C104.354 61.174 104.605 61.1353 104.876 61.174C105.224 61.058 105.61 61.1353 106.036 61.406C107.002 62.1407 108.162 62.6433 109.516 62.914C110.908 63.1847 112.338 63.32 113.808 63.32C114.504 63.32 115.316 63.262 116.244 63.146C117.172 63.03 117.984 62.624 118.68 61.928C118.989 61.58 119.24 61.1933 119.434 60.768C119.666 60.304 119.801 59.8013 119.84 59.26C117.597 60.0333 115.219 60.246 112.706 59.898C110.231 59.5113 108.008 58.5833 106.036 57.114C104.953 56.2633 104.064 55.2773 103.368 54.156C102.672 53.0347 102.15 51.836 101.802 50.56C101.454 49.284 101.241 47.9693 101.164 46.616C101.086 45.2627 101.106 43.9287 101.222 42.614C101.724 39.714 102.884 37.22 104.702 35.132C106.519 33.044 108.781 31.6133 111.488 30.84C113.189 30.376 114.755 30.1247 116.186 30.086C117.655 30.0473 119.124 30.1633 120.594 30.434C121.328 30.55 122.082 30.6467 122.856 30.724C123.629 30.7627 124.402 30.84 125.176 30.956C125.949 31.072 126.684 31.246 127.38 31.478C128.114 31.6713 128.772 31.9613 129.352 32.348C129.584 32.6573 129.7 32.986 129.7 33.334C129.7 33.682 129.603 33.9913 129.41 34.262C129.603 37.278 129.642 40.2553 129.526 43.194C129.448 46.1327 129.506 48.994 129.7 51.778C129.7 52.9767 129.7 54.214 129.7 55.49C129.738 56.7273 129.7 57.9453 129.584 59.144C129.468 60.3427 129.236 61.5027 128.888 62.624C128.578 63.784 128.056 64.8473 127.322 65.814C126.858 66.8967 126.239 67.7667 125.466 68.424C124.692 69.12 123.822 69.6807 122.856 70.106C121.889 70.5313 120.826 70.86 119.666 71.092C118.544 71.324 117.384 71.498 116.186 71.614C114.214 71.8073 112.164 71.8653 110.038 71.788C107.911 71.7107 105.92 71.2853 104.064 70.512C103.677 70.8213 103.271 70.802 102.846 70.454C102.42 70.1447 102.208 69.7193 102.208 69.178L103.6 61.928ZM119.202 49.806C119.279 49.7673 119.356 49.7287 119.434 49.69C119.511 49.6127 119.588 49.574 119.666 49.574C119.666 47.834 119.627 46.1713 119.55 44.586C119.511 43.0007 119.395 41.338 119.202 39.598C118.312 39.366 117.326 39.2307 116.244 39.192C115.161 39.1147 114.175 39.2887 113.286 39.714C112.319 40.178 111.681 40.932 111.372 41.976C111.062 42.9813 110.908 43.9867 110.908 44.992C110.908 45.9587 111.14 46.8867 111.604 47.776C112.068 48.6267 112.686 49.3227 113.46 49.864C114.233 50.3667 115.103 50.6567 116.07 50.734C117.075 50.7727 118.119 50.4633 119.202 49.806ZM145.074 49.922C145.422 50.8113 146.157 51.4493 147.278 51.836C148.4 52.2227 149.618 52.4547 150.932 52.532C152.286 52.5707 153.62 52.5127 154.934 52.358C156.249 52.2033 157.274 52.01 158.008 51.778C158.318 51.7007 158.569 51.7393 158.762 51.894C158.994 52.01 159.149 52.184 159.226 52.416L159.4 52.706C159.594 53.634 159.826 54.562 160.096 55.49C160.406 56.418 160.792 57.346 161.256 58.274C161.411 58.8927 161.218 59.376 160.676 59.724C160.638 59.8013 160.58 59.8787 160.502 59.956C160.464 60.0333 160.406 60.0913 160.328 60.13C159.516 60.594 158.646 60.9613 157.718 61.232C156.829 61.5027 155.92 61.696 154.992 61.812C154.064 61.928 153.136 61.986 152.208 61.986C151.319 62.0247 150.468 62.044 149.656 62.044C146.254 62.044 143.122 61.116 140.26 59.26C138.984 58.332 137.921 57.2493 137.07 56.012C136.258 54.736 135.62 53.3827 135.156 51.952C134.692 50.5213 134.383 49.0327 134.228 47.486C134.112 45.9393 134.112 44.412 134.228 42.904C134.731 40.12 135.659 37.626 137.012 35.422C138.404 33.218 140.415 31.5167 143.044 30.318C144.204 29.854 145.461 29.564 146.814 29.448C148.168 29.332 149.521 29.39 150.874 29.622C152.266 29.8153 153.581 30.1827 154.818 30.724C156.056 31.2267 157.138 31.884 158.066 32.696C159.11 33.74 159.903 34.9193 160.444 36.234C161.024 37.51 161.43 38.8633 161.662 40.294C161.933 41.7247 162.088 43.194 162.126 44.702C162.165 46.1713 162.184 47.602 162.184 48.994C162.184 49.458 161.972 49.7673 161.546 49.922C161.16 50.0767 160.773 50.0767 160.386 49.922H160.328H145.074ZM144.726 42.034C146.08 42.034 147.375 42.0533 148.612 42.092C149.888 42.092 151.106 42.0727 152.266 42.034C151.957 41.2607 151.628 40.526 151.28 39.83C150.932 39.0953 150.275 38.6313 149.308 38.438C148.728 38.2447 148.168 38.2253 147.626 38.38C147.124 38.496 146.66 38.7473 146.234 39.134C145.848 39.482 145.519 39.9073 145.248 40.41C144.978 40.9127 144.804 41.454 144.726 42.034ZM184.184 19.646C184.184 19.1047 184.494 18.7567 185.112 18.602C185.228 18.4473 185.422 18.312 185.692 18.196C186.891 17.964 188.051 17.732 189.172 17.5C190.332 17.268 191.396 17.0167 192.362 16.746C193.02 16.5913 193.619 16.6107 194.16 16.804C194.74 16.9587 194.953 17.4227 194.798 18.196C194.296 24.9627 194.025 31.826 193.986 38.786C193.948 45.7073 194.044 52.6673 194.276 59.666C194.276 60.13 194.083 60.4587 193.696 60.652C193.31 60.8067 192.942 60.8067 192.594 60.652C190.854 60.9613 188.979 61.174 186.968 61.29C184.996 61.406 183.024 61.3673 181.052 61.174C179.119 60.9807 177.244 60.6133 175.426 60.072C173.648 59.5307 172.043 58.738 170.612 57.694C169.182 56.65 168.002 55.3547 167.074 53.808C166.185 52.2227 165.663 50.3087 165.508 48.066C165.508 46.7513 165.547 45.3787 165.624 43.948C165.74 42.4787 165.934 41.0287 166.204 39.598C166.475 38.1673 166.862 36.814 167.364 35.538C167.867 34.262 168.544 33.16 169.394 32.232C170.438 31.188 171.56 30.492 172.758 30.144C173.996 29.7573 175.252 29.6027 176.528 29.68C177.843 29.7187 179.138 29.9313 180.414 30.318C181.729 30.666 182.986 31.072 184.184 31.536V19.646ZM183.778 53.286C183.894 53.2473 184.068 53.228 184.3 53.228C184.494 51.14 184.61 49.11 184.648 47.138C184.687 45.1273 184.706 43.1747 184.706 41.28C184.01 40.3133 183.121 39.772 182.038 39.656C180.956 39.54 179.931 39.6173 178.964 39.888C178.384 40.004 177.901 40.2747 177.514 40.7C177.128 41.0867 176.818 41.5507 176.586 42.092C176.354 42.6333 176.2 43.2327 176.122 43.89C176.045 44.5087 176.006 45.108 176.006 45.688C176.006 46.8093 176.18 47.8533 176.528 48.82C176.915 49.7867 177.437 50.6373 178.094 51.372C178.752 52.068 179.564 52.59 180.53 52.938C181.497 53.286 182.58 53.402 183.778 53.286ZM212.327 22.952C212.404 22.604 212.559 22.3527 212.791 22.198C213.023 22.0047 213.274 21.908 213.545 21.908C213.622 21.908 213.68 21.908 213.719 21.908C213.758 21.8693 213.816 21.85 213.893 21.85C215.478 21.6567 216.986 21.4247 218.417 21.154C219.848 20.8833 221.472 20.748 223.289 20.748C224.565 20.748 225.938 20.806 227.407 20.922C228.915 21.038 230.384 21.2313 231.815 21.502C233.284 21.7727 234.657 22.14 235.933 22.604C237.209 23.0293 238.292 23.532 239.181 24.112C240.148 24.7693 240.96 25.62 241.617 26.664C242.274 27.6693 242.777 28.752 243.125 29.912C243.512 31.0333 243.763 32.1353 243.879 33.218C243.995 34.3007 243.995 35.248 243.879 36.06C243.763 36.872 243.666 37.6453 243.589 38.38C243.512 39.1147 243.376 39.8107 243.183 40.468C243.028 41.1253 242.758 41.7827 242.371 42.44C242.023 43.0587 241.501 43.6773 240.805 44.296C239.568 45.4947 238.234 46.4227 236.803 47.08C235.411 47.6987 233.961 48.1627 232.453 48.472C230.945 48.7427 229.379 48.9167 227.755 48.994C226.17 49.0713 224.565 49.1487 222.941 49.226C222.941 50.27 222.96 51.198 222.999 52.01C223.076 52.7833 223.134 53.5567 223.173 54.33C223.25 55.0647 223.289 55.838 223.289 56.65C223.328 57.462 223.308 58.4093 223.231 59.492C223.192 60.1493 223.076 60.7293 222.883 61.232C222.728 61.7347 222.438 62.044 222.013 62.16C221.626 62.276 221.201 62.3147 220.737 62.276C220.312 62.2373 219.886 62.1987 219.461 62.16C218.572 62.1213 217.702 62.1213 216.851 62.16C216 62.1987 215.15 62.2373 214.299 62.276C213.564 62.276 213.081 62.0827 212.849 61.696C212.617 61.348 212.52 61.0193 212.559 60.71C212.598 60.2847 212.598 59.7627 212.559 59.144C212.52 58.5253 212.501 58.0613 212.501 57.752C212.462 56.94 212.443 56.128 212.443 55.316C212.482 54.504 212.501 53.6727 212.501 52.822C212.501 50.2313 212.482 47.6987 212.443 45.224C212.443 42.7493 212.424 40.3133 212.385 37.916C212.385 35.48 212.366 33.044 212.327 30.608C212.327 28.1333 212.327 25.5813 212.327 22.952ZM223.637 30.84C223.676 32.2707 223.637 33.6627 223.521 35.016C223.444 36.3693 223.444 37.7613 223.521 39.192C223.676 39.192 223.888 39.2113 224.159 39.25C224.468 39.25 224.778 39.25 225.087 39.25C225.435 39.25 225.764 39.25 226.073 39.25C226.382 39.2113 226.595 39.192 226.711 39.192C227.639 39.1147 228.49 38.9407 229.263 38.67C230.075 38.3607 230.752 37.8193 231.293 37.046C231.912 36.0793 232.105 34.9967 231.873 33.798C231.718 32.9473 231.332 32.3093 230.713 31.884C230.094 31.4587 229.379 31.1687 228.567 31.014C227.755 30.8593 226.904 30.8013 226.015 30.84C225.126 30.84 224.333 30.84 223.637 30.84ZM247.76 61.754C247.334 61.754 247.025 61.5413 246.832 61.116C246.677 60.7293 246.696 60.362 246.89 60.014V33.74C246.658 33.3147 246.696 32.87 247.006 32.406C247.16 32.1353 247.373 31.9807 247.644 31.942C247.953 31.8647 248.262 31.884 248.572 32H255.532C255.764 32 255.957 32.0773 256.112 32.232C256.266 32.348 256.382 32.5027 256.46 32.696C256.885 32.928 257.04 33.2953 256.924 33.798C256.692 36.118 256.576 38.3413 256.576 40.468C256.576 42.556 256.576 44.76 256.576 47.08C256.576 47.9693 256.556 48.9553 256.518 50.038C256.479 51.1207 256.44 52.2227 256.402 53.344C256.363 54.4653 256.344 55.5673 256.344 56.65C256.344 57.694 256.382 58.6413 256.46 59.492C256.46 59.5307 256.46 59.5693 256.46 59.608C256.498 59.608 256.518 59.6273 256.518 59.666C256.711 59.782 256.846 59.956 256.924 60.188C257.001 60.42 257.001 60.652 256.924 60.884C256.885 61.116 256.788 61.3093 256.634 61.464C256.479 61.6573 256.266 61.754 255.996 61.754H247.76ZM253.734 28.694C253.115 28.81 252.438 28.8487 251.704 28.81C250.969 28.7327 250.273 28.5587 249.616 28.288C248.958 28.0173 248.359 27.6307 247.818 27.128C247.315 26.5867 246.986 25.8907 246.832 25.04C246.6 24.344 246.484 23.6093 246.484 22.836C246.522 22.024 246.658 21.27 246.89 20.574C247.16 19.8393 247.547 19.2207 248.05 18.718C248.591 18.2153 249.248 17.906 250.022 17.79C251.646 17.558 253.154 17.7707 254.546 18.428C255.976 19.0467 256.904 20.0327 257.33 21.386C257.562 22.198 257.658 22.9907 257.62 23.764C257.581 24.5373 257.407 25.2527 257.098 25.91C256.788 26.5673 256.344 27.1473 255.764 27.65C255.222 28.114 254.546 28.462 253.734 28.694ZM261.287 20.284C261.287 19.9747 261.364 19.7427 261.519 19.588C261.712 19.4333 261.925 19.3173 262.157 19.24C262.273 19.0467 262.447 18.9113 262.679 18.834C263.916 18.37 265.134 18.0027 266.333 17.732C267.57 17.4227 268.923 17.152 270.393 16.92C270.857 16.7653 271.282 16.8427 271.669 17.152C272.055 17.4227 272.249 17.8287 272.249 18.37C272.249 21.9273 272.249 25.388 272.249 28.752C272.287 32.116 272.403 35.5573 272.597 39.076C273.563 38.032 274.491 36.9687 275.381 35.886C276.27 34.8033 277.14 33.682 277.991 32.522C278.184 32.1353 278.416 31.768 278.687 31.42C278.996 31.072 279.383 30.898 279.847 30.898C281.548 30.898 283.307 30.9173 285.125 30.956C286.942 30.9947 288.624 31.0527 290.171 31.13C290.248 31.13 290.325 31.1493 290.403 31.188C290.557 31.2653 290.635 31.4007 290.635 31.594C290.751 32.174 290.673 32.754 290.403 33.334C290.171 33.8753 289.823 34.3973 289.359 34.9C288.933 35.4027 288.45 35.886 287.909 36.35C287.406 36.7753 286.981 37.162 286.633 37.51C285.434 38.7473 284.216 40.0427 282.979 41.396C281.78 42.7107 280.736 43.8707 279.847 44.876C279.692 45.0693 279.595 45.1853 279.557 45.224C280.021 45.7267 280.504 46.2873 281.007 46.906C281.548 47.5247 282.089 48.1627 282.631 48.82C283.211 49.4387 283.771 50.0767 284.313 50.734C284.893 51.3527 285.453 51.9327 285.995 52.474C286.923 53.6727 287.87 54.7747 288.837 55.78C289.842 56.7853 290.712 57.8873 291.447 59.086C291.911 59.55 291.988 59.9947 291.679 60.42C291.369 60.8067 290.983 61 290.519 61C289.127 61 287.677 61 286.169 61C284.661 61.0387 283.133 61.116 281.587 61.232C281.393 61.4253 281.161 61.5413 280.891 61.58C280.62 61.6187 280.388 61.5413 280.195 61.348L278.861 59.318C277.894 57.926 276.908 56.5533 275.903 55.2C274.936 53.8467 273.892 52.5707 272.771 51.372V59.55C272.771 59.8207 272.655 60.072 272.423 60.304C272.384 60.6133 272.287 60.884 272.133 61.116C271.978 61.348 271.727 61.464 271.379 61.464C269.909 61.232 268.575 61.116 267.377 61.116C266.217 61.116 264.902 61.232 263.433 61.464C262.969 61.464 262.64 61.29 262.447 60.942C262.137 60.71 261.983 60.4007 261.983 60.014C261.751 58.3513 261.673 56.766 261.751 55.258C261.828 53.75 262.002 52.1453 262.273 50.444C262.466 49.0133 262.524 47.486 262.447 45.862C262.369 44.238 262.331 42.5753 262.331 40.874C262.331 37.4713 262.273 34.0493 262.157 30.608C262.079 27.128 261.789 23.6867 261.287 20.284ZM296.228 61.406C295.725 61.522 295.319 61.4833 295.01 61.29C294.739 61.0967 294.565 60.8453 294.488 60.536C294.372 60.3813 294.314 60.1687 294.314 59.898C294.314 55.4127 294.236 51.0433 294.082 46.79C293.927 42.5367 293.85 38.148 293.85 33.624C293.85 33.3147 293.927 33.0827 294.082 32.928L294.314 32.696C296.208 31.7293 298.103 31.014 299.998 30.55C301.931 30.086 303.942 29.854 306.03 29.854C306.996 29.854 307.963 29.8733 308.93 29.912C309.896 29.9507 310.805 30.0667 311.656 30.26C312.545 30.4533 313.357 30.782 314.092 31.246C314.826 31.71 315.426 32.348 315.89 33.16C315.967 33.2373 316.006 33.3147 316.006 33.392C317.514 32.7347 319.06 32.2127 320.646 31.826C322.27 31.4007 323.855 31.246 325.402 31.362C326.948 31.478 328.398 31.9227 329.752 32.696C331.105 33.4693 332.304 34.7067 333.348 36.408C334.237 38.0707 334.836 39.8107 335.146 41.628C335.494 43.4067 335.668 45.1467 335.668 46.848V60.42C335.668 60.8453 335.494 61.1353 335.146 61.29C334.836 61.4833 334.508 61.5413 334.16 61.464C333.734 61.5413 333.29 61.5413 332.826 61.464C332.4 61.4253 331.936 61.406 331.434 61.406H326.272H326.098C325.75 61.5607 325.382 61.5413 324.996 61.348C324.609 61.1933 324.416 60.884 324.416 60.42C324.416 59.492 324.435 58.5253 324.474 57.52C324.512 56.5147 324.551 55.3547 324.59 54.04C324.667 52.7253 324.725 51.2173 324.764 49.516C324.841 47.8147 324.88 45.7653 324.88 43.368C324.88 42.904 324.725 42.3433 324.416 41.686C324.106 41.0287 323.72 40.4873 323.256 40.062C322.792 39.598 322.27 39.3467 321.69 39.308C321.148 39.2307 320.646 39.54 320.182 40.236L319.95 40.468C320.491 43.832 320.723 47.1573 320.646 50.444C320.607 53.7307 320.568 57.056 320.53 60.42C320.568 60.6133 320.53 60.8067 320.414 61C320.298 61.1933 320.143 61.3673 319.95 61.522C319.756 61.6767 319.544 61.7927 319.312 61.87C319.118 61.9473 318.944 61.9473 318.79 61.87H311.192C310.805 61.87 310.496 61.7927 310.264 61.638C310.07 61.4833 309.935 61.29 309.858 61.058C309.78 60.826 309.78 60.594 309.858 60.362C309.935 60.13 310.09 59.9367 310.322 59.782V48.066C310.206 47.37 310.09 46.4807 309.974 45.398C309.896 44.2767 309.684 43.252 309.336 42.324C308.988 41.396 308.427 40.7193 307.654 40.294C306.919 39.8687 305.836 39.9847 304.406 40.642V59.898C304.406 60.478 304.232 60.884 303.884 61.116C303.574 61.348 303.265 61.4253 302.956 61.348C301.796 61.116 300.674 61 299.592 61C298.509 61 297.388 61.1353 296.228 61.406ZM341.746 61.754C341.321 61.754 341.011 61.5413 340.818 61.116C340.663 60.7293 340.683 60.362 340.876 60.014V33.74C340.644 33.3147 340.683 32.87 340.992 32.406C341.147 32.1353 341.359 31.9807 341.63 31.942C341.939 31.8647 342.249 31.884 342.558 32H349.518C349.75 32 349.943 32.0773 350.098 32.232C350.253 32.348 350.369 32.5027 350.446 32.696C350.871 32.928 351.026 33.2953 350.91 33.798C350.678 36.118 350.562 38.3413 350.562 40.468C350.562 42.556 350.562 44.76 350.562 47.08C350.562 47.9693 350.543 48.9553 350.504 50.038C350.465 51.1207 350.427 52.2227 350.388 53.344C350.349 54.4653 350.33 55.5673 350.33 56.65C350.33 57.694 350.369 58.6413 350.446 59.492C350.446 59.5307 350.446 59.5693 350.446 59.608C350.485 59.608 350.504 59.6273 350.504 59.666C350.697 59.782 350.833 59.956 350.91 60.188C350.987 60.42 350.987 60.652 350.91 60.884C350.871 61.116 350.775 61.3093 350.62 61.464C350.465 61.6573 350.253 61.754 349.982 61.754H341.746ZM347.72 28.694C347.101 28.81 346.425 28.8487 345.69 28.81C344.955 28.7327 344.259 28.5587 343.602 28.288C342.945 28.0173 342.345 27.6307 341.804 27.128C341.301 26.5867 340.973 25.8907 340.818 25.04C340.586 24.344 340.47 23.6093 340.47 22.836C340.509 22.024 340.644 21.27 340.876 20.574C341.147 19.8393 341.533 19.2207 342.036 18.718C342.577 18.2153 343.235 17.906 344.008 17.79C345.632 17.558 347.14 17.7707 348.532 18.428C349.963 19.0467 350.891 20.0327 351.316 21.386C351.548 22.198 351.645 22.9907 351.606 23.764C351.567 24.5373 351.393 25.2527 351.084 25.91C350.775 26.5673 350.33 27.1473 349.75 27.65C349.209 28.114 348.532 28.462 347.72 28.694ZM357.361 61.986C357.013 61.986 356.742 61.87 356.549 61.638C356.394 61.406 356.298 61.1547 356.259 60.884C356.027 60.7293 355.911 60.4393 355.911 60.014C356.143 55.722 356.278 51.4107 356.317 47.08C356.356 42.7107 356.375 38.3607 356.375 34.03C356.182 33.45 356.356 32.9667 356.897 32.58C358.83 31.5747 360.841 30.9173 362.929 30.608C365.056 30.2987 367.221 30.144 369.425 30.144C371.397 30.144 373.292 30.3373 375.109 30.724C376.965 31.1107 378.608 32.0193 380.039 33.45C380.658 34.1847 381.122 34.9967 381.431 35.886C381.779 36.7753 382.03 37.7033 382.185 38.67C382.34 39.598 382.417 40.526 382.417 41.454C382.456 42.382 382.475 43.2713 382.475 44.122C382.707 47.022 382.784 49.806 382.707 52.474C382.63 55.142 382.707 57.81 382.939 60.478C382.939 60.826 382.823 61.0967 382.591 61.29C382.359 61.4833 382.088 61.58 381.779 61.58C381.586 61.8507 381.315 61.986 380.967 61.986H375.747C375.36 61.986 375.07 61.8507 374.877 61.58C374.568 61.58 374.297 61.4833 374.065 61.29C373.872 61.0967 373.775 60.826 373.775 60.478V47.022C373.775 46.558 373.756 46.036 373.717 45.456C373.717 44.876 373.678 44.296 373.601 43.716C373.562 43.136 373.485 42.5947 373.369 42.092C373.253 41.5507 373.079 41.106 372.847 40.758C372.576 40.2553 372.19 39.9267 371.687 39.772C371.184 39.6173 370.624 39.5593 370.005 39.598C369.425 39.6367 368.826 39.7333 368.207 39.888C367.588 40.004 367.028 40.12 366.525 40.236C366.525 43.6387 366.564 47.0027 366.641 50.328C366.718 53.6533 366.757 56.882 366.757 60.014C366.757 60.4007 366.68 60.71 366.525 60.942C366.37 61.174 366.196 61.3287 366.003 61.406L365.887 61.522C365.346 61.754 364.766 61.8893 364.147 61.928C363.528 61.9667 362.968 61.986 362.465 61.986H357.361Z" fill="#333333"/>
</svg>
