<svg width="518" height="87" viewBox="0 0 518 87" fill="none" xmlns="http://www.w3.org/2000/svg">
<path d="M397.736 33.084H401.46V41.96H415.6V44.928H408.46V50.584H418.008V53.58H395.188V50.584H404.708V44.928H397.736V33.084ZM435.789 31.18H439.513V37.004H442.845V40.056H439.513V46.272H435.789V31.18ZM420.501 32.636H432.065V40.308H424.253V42.352C428.341 42.324 431.057 42.156 434.137 41.596L434.473 44.564C431.001 45.236 427.781 45.348 422.685 45.348H420.557V37.536H428.369V35.632H420.501V32.636ZM431.225 46.804C436.489 46.804 439.765 48.568 439.765 51.592C439.765 54.644 436.489 56.408 431.225 56.408C425.961 56.408 422.685 54.644 422.685 51.592C422.685 48.568 425.961 46.804 431.225 46.804ZM431.225 49.604C428.005 49.604 426.325 50.248 426.325 51.592C426.325 52.964 428.005 53.608 431.225 53.608C434.473 53.608 436.125 52.964 436.125 51.592C436.125 50.248 434.473 49.604 431.225 49.604ZM461.381 31.208H465.133V56.408H461.381V31.208ZM444.693 33.476H458.861V36.444H456.705V47.252C457.741 47.168 458.777 47.056 459.785 46.944L460.009 49.632C454.717 50.556 448.921 50.64 444.385 50.668L444.049 47.644H446.849V36.444H444.693V33.476ZM450.433 47.56L453.121 47.476V36.444H450.433V47.56ZM471.154 33.336H489.158V36.248C489.158 39.916 489.158 43.416 487.954 48.932L484.286 48.596C484.762 46.552 485.042 44.704 485.21 43.024L470.874 43.752L470.426 40.756L485.406 40.28C485.462 38.908 485.462 37.592 485.462 36.332H471.154V33.336ZM468.606 50.388H491.398V53.468H468.606V50.388ZM494.339 33.14H506.575V45.404H494.339V33.14ZM502.935 36.08H498.007V42.436H502.935V36.08ZM510.299 31.208H514.023V49.1H510.299V31.208ZM497.195 47.476H500.947V52.908H514.667V55.876H497.195V47.476Z" fill="#555555"/>
<path d="M0.2319 24.286C0.193234 24.17 0.1739 24.054 0.1739 23.938C0.1739 23.7833 0.1739 23.648 0.1739 23.532C0.0579004 23.2227 0.0965671 22.8747 0.2899 22.488C0.444567 22.0627 0.7539 21.85 1.2179 21.85C2.80323 21.734 4.27257 21.6953 5.6259 21.734C7.0179 21.7727 8.5259 21.8307 10.1499 21.908C10.4206 21.7147 10.7106 21.618 11.0199 21.618C11.3679 21.5793 11.6966 21.6953 12.0059 21.966L20.1839 35.364C21.4212 33.508 22.4846 31.4973 23.3739 29.332C24.3019 27.128 25.2492 24.9627 26.2159 22.836C26.2932 22.5267 26.4479 22.2947 26.6799 22.14C26.9119 21.9467 27.1632 21.8113 27.4339 21.734C27.7046 21.618 27.9366 21.56 28.1299 21.56C28.3619 21.5213 28.4972 21.502 28.5359 21.502H36.3659C36.8686 21.502 37.1972 21.7147 37.3519 22.14C37.5066 22.5653 37.5066 22.952 37.3519 23.3V23.474C37.3519 24.054 37.1199 24.924 36.6559 26.084C36.1919 27.2053 35.5732 28.4813 34.7999 29.912C34.0652 31.3427 33.2339 32.8507 32.3059 34.436C31.3779 36.0213 30.4499 37.5873 29.5219 39.134C28.5939 40.642 27.7046 42.0727 26.8539 43.426C26.0419 44.7407 25.3652 45.8233 24.8239 46.674C24.8239 46.7127 24.8046 46.732 24.7659 46.732C25.0366 49.0907 25.2492 51.2753 25.4039 53.286C25.5972 55.258 25.6939 57.4233 25.6939 59.782C25.6939 60.0527 25.5972 60.3813 25.4039 60.768C25.2492 61.116 25.0366 61.29 24.7659 61.29H16.0659C15.5632 61.29 15.1766 61.116 14.9059 60.768C14.6739 60.3813 14.5579 60.0527 14.5579 59.782C14.7899 57.5393 14.8286 55.374 14.6739 53.286C14.5192 51.198 14.4999 49.052 14.6159 46.848C13.3786 45.3013 12.1606 43.6193 10.9619 41.802C9.76323 39.946 8.56457 38.0513 7.3659 36.118C6.16723 34.1847 4.96857 32.2127 3.7699 30.202C2.6099 28.1913 1.43057 26.2193 0.2319 24.286ZM49.85 49.922C50.198 50.8113 50.9327 51.4493 52.054 51.836C53.1753 52.2227 54.3933 52.4547 55.708 52.532C57.0613 52.5707 58.3953 52.5127 59.71 52.358C61.0247 52.2033 62.0493 52.01 62.784 51.778C63.0933 51.7007 63.3447 51.7393 63.538 51.894C63.77 52.01 63.9247 52.184 64.002 52.416L64.176 52.706C64.3693 53.634 64.6013 54.562 64.872 55.49C65.1813 56.418 65.568 57.346 66.032 58.274C66.1867 58.8927 65.9933 59.376 65.452 59.724C65.4133 59.8013 65.3553 59.8787 65.278 59.956C65.2393 60.0333 65.1813 60.0913 65.104 60.13C64.292 60.594 63.422 60.9613 62.494 61.232C61.6047 61.5027 60.696 61.696 59.768 61.812C58.84 61.928 57.912 61.986 56.984 61.986C56.0947 62.0247 55.244 62.044 54.432 62.044C51.0293 62.044 47.8973 61.116 45.036 59.26C43.76 58.332 42.6967 57.2493 41.846 56.012C41.034 54.736 40.396 53.3827 39.932 51.952C39.468 50.5213 39.1587 49.0327 39.004 47.486C38.888 45.9393 38.888 44.412 39.004 42.904C39.5067 40.12 40.4347 37.626 41.788 35.422C43.18 33.218 45.1907 31.5167 47.82 30.318C48.98 29.854 50.2367 29.564 51.59 29.448C52.9433 29.332 54.2967 29.39 55.65 29.622C57.042 29.8153 58.3567 30.1827 59.594 30.724C60.8313 31.2267 61.914 31.884 62.842 32.696C63.886 33.74 64.6787 34.9193 65.22 36.234C65.8 37.51 66.206 38.8633 66.438 40.294C66.7087 41.7247 66.8633 43.194 66.902 44.702C66.9407 46.1713 66.96 47.602 66.96 48.994C66.96 49.458 66.7473 49.7673 66.322 49.922C65.9353 50.0767 65.5487 50.0767 65.162 49.922H65.104H49.85ZM49.502 42.034C50.8553 42.034 52.1507 42.0533 53.388 42.092C54.664 42.092 55.882 42.0727 57.042 42.034C56.7327 41.2607 56.404 40.526 56.056 39.83C55.708 39.0953 55.0507 38.6313 54.084 38.438C53.504 38.2447 52.9433 38.2253 52.402 38.38C51.8993 38.496 51.4353 38.7473 51.01 39.134C50.6233 39.482 50.2947 39.9073 50.024 40.41C49.7533 40.9127 49.5793 41.454 49.502 42.034ZM71.8501 19.646C71.8501 19.0273 72.0435 18.6213 72.4301 18.428C72.8555 18.2347 73.2421 18.254 73.5901 18.486C74.6341 18.0607 75.6781 17.732 76.7221 17.5C77.8048 17.268 78.9648 17.0553 80.2021 16.862C80.5888 16.746 80.9948 16.8233 81.4201 17.094C81.8841 17.3647 82.0775 17.7707 82.0001 18.312C82.0001 19.82 82.0001 21.4247 82.0001 23.126C82.0001 24.7887 82.0001 26.49 82.0001 28.23C82.0001 29.97 82.0001 31.6907 82.0001 33.392C82.0001 35.0933 82.0001 36.6787 82.0001 38.148V46.964V51.198C82.1935 51.778 82.5028 52.1453 82.9281 52.3C83.3535 52.4547 83.8755 52.532 84.4941 52.532C85.9635 52.532 86.5821 53.17 86.3501 54.446C86.2728 54.91 86.1955 55.3353 86.1181 55.722C86.0408 56.1087 85.9441 56.5147 85.8281 56.94C85.7508 57.3653 85.6541 57.8293 85.5381 58.332C85.4221 58.8347 85.3061 59.434 85.1901 60.13C85.1128 60.5553 84.9388 60.884 84.6681 61.116C84.3975 61.348 83.9141 61.5027 83.2181 61.58C82.5221 61.6573 81.7295 61.6187 80.8401 61.464C79.9508 61.348 79.0615 61.174 78.1721 60.942C77.3215 60.6713 76.5481 60.4007 75.8521 60.13C75.1561 59.8207 74.6535 59.5113 74.3441 59.202C73.7641 58.622 73.3001 57.9647 72.9521 57.23C72.6428 56.4567 72.3915 55.664 72.1981 54.852C72.0435 54.0013 71.9468 53.1313 71.9081 52.242C71.8695 51.3527 71.8501 50.4633 71.8501 49.574C71.7728 47.834 71.7535 46.1133 71.7921 44.412C71.8308 42.672 71.8501 40.8933 71.8501 39.076V19.646ZM88.4146 19.646C88.4146 19.0273 88.6079 18.6213 88.9946 18.428C89.4199 18.2347 89.8066 18.254 90.1546 18.486C91.1986 18.0607 92.2426 17.732 93.2866 17.5C94.3692 17.268 95.5292 17.0553 96.7666 16.862C97.1532 16.746 97.5592 16.8233 97.9846 17.094C98.4486 17.3647 98.6419 17.7707 98.5646 18.312C98.5646 19.82 98.5646 21.4247 98.5646 23.126C98.5646 24.7887 98.5646 26.49 98.5646 28.23C98.5646 29.97 98.5646 31.6907 98.5646 33.392C98.5646 35.0933 98.5646 36.6787 98.5646 38.148V46.964V51.198C98.7579 51.778 99.0672 52.1453 99.4926 52.3C99.9179 52.4547 100.44 52.532 101.059 52.532C102.528 52.532 103.147 53.17 102.915 54.446C102.837 54.91 102.76 55.3353 102.683 55.722C102.605 56.1087 102.509 56.5147 102.393 56.94C102.315 57.3653 102.219 57.8293 102.103 58.332C101.987 58.8347 101.871 59.434 101.755 60.13C101.677 60.5553 101.503 60.884 101.233 61.116C100.962 61.348 100.479 61.5027 99.7826 61.58C99.0866 61.6573 98.2939 61.6187 97.4046 61.464C96.5152 61.348 95.6259 61.174 94.7366 60.942C93.8859 60.6713 93.1126 60.4007 92.4166 60.13C91.7206 59.8207 91.2179 59.5113 90.9086 59.202C90.3286 58.622 89.8646 57.9647 89.5166 57.23C89.2072 56.4567 88.9559 55.664 88.7626 54.852C88.6079 54.0013 88.5112 53.1313 88.4726 52.242C88.4339 51.3527 88.4146 50.4633 88.4146 49.574C88.3372 47.834 88.3179 46.1133 88.3566 44.412C88.3952 42.672 88.4146 40.8933 88.4146 39.076V19.646ZM121.161 29.97C121.238 29.97 121.296 29.9893 121.335 30.028C121.412 30.028 121.49 30.028 121.567 30.028C123.384 30.2987 124.989 30.8593 126.381 31.71C127.812 32.5607 129.03 33.6047 130.035 34.842C131.079 36.0793 131.91 37.4907 132.529 39.076C133.148 40.6613 133.573 42.324 133.805 44.064C134.076 47.2733 133.882 50.0187 133.225 52.3C132.606 54.5427 131.62 56.3987 130.267 57.868C128.914 59.2987 127.251 60.3427 125.279 61C123.307 61.6187 121.103 61.9087 118.667 61.87C117.662 61.87 116.656 61.812 115.651 61.696C114.684 61.58 113.737 61.3867 112.809 61.116C111.92 60.8453 111.069 60.478 110.257 60.014C109.445 59.5113 108.691 58.8733 107.995 58.1C106.835 56.94 105.926 55.548 105.269 53.924C104.65 52.3 104.244 50.618 104.051 48.878C103.858 47.0993 103.838 45.34 103.993 43.6C104.148 41.86 104.399 40.2747 104.747 38.844C105.172 37.0653 105.926 35.596 107.009 34.436C108.092 33.2373 109.348 32.3093 110.779 31.652C112.248 30.956 113.814 30.492 115.477 30.26C117.178 29.9893 118.822 29.8927 120.407 29.97C120.639 29.9313 120.89 29.9313 121.161 29.97ZM125.743 45.746V44.644V45.746ZM120.175 38.844C120.098 38.844 119.943 38.844 119.711 38.844C119.518 38.8053 119.324 38.7667 119.131 38.728C118.126 38.844 117.294 39.0953 116.637 39.482C115.98 39.83 115.458 40.294 115.071 40.874C114.723 41.454 114.472 42.1113 114.317 42.846C114.201 43.5807 114.143 44.3927 114.143 45.282C114.143 46.2487 114.104 47.2927 114.027 48.414C113.95 49.4967 114.143 50.386 114.607 51.082C114.955 51.546 115.38 51.9133 115.883 52.184C116.386 52.4547 116.908 52.6287 117.449 52.706C117.99 52.7447 118.512 52.6867 119.015 52.532C119.518 52.3773 119.943 52.126 120.291 51.778C121.49 51.0047 122.302 50.038 122.727 48.878C123.191 47.718 123.462 46.5193 123.539 45.282C123.578 44.7407 123.539 44.1413 123.423 43.484C123.346 42.8267 123.172 42.1887 122.901 41.57C122.63 40.9513 122.263 40.3907 121.799 39.888C121.335 39.3853 120.794 39.0373 120.175 38.844ZM134.733 32.58C134.656 32.3093 134.656 32.0773 134.733 31.884C134.811 31.652 134.927 31.478 135.081 31.362C135.275 30.898 135.623 30.666 136.125 30.666H142.389C143.82 30.666 144.593 31.3233 144.709 32.638C145.289 35.2673 145.889 37.8 146.507 40.236C147.126 42.672 147.706 45.166 148.247 47.718C148.673 46.6353 149.001 45.5527 149.233 44.47C149.465 43.3487 149.775 42.1693 150.161 40.932C150.393 39.6173 150.703 38.2833 151.089 36.93C151.476 35.5767 151.766 34.146 151.959 32.638C151.882 32.29 151.921 31.942 152.075 31.594C152.269 31.246 152.578 31.072 153.003 31.072H158.861C159.248 30.8787 159.654 30.9173 160.079 31.188C160.35 31.3427 160.524 31.594 160.601 31.942C160.679 32.2513 160.659 32.5607 160.543 32.87C160.891 34.9193 161.336 36.93 161.877 38.902C162.457 40.874 162.902 42.8847 163.211 44.934C163.83 42.73 164.41 40.5453 164.951 38.38C165.531 36.176 166.073 33.914 166.575 31.594C166.575 31.2847 166.672 31.072 166.865 30.956C167.059 30.84 167.271 30.8207 167.503 30.898C167.813 30.7433 168.161 30.666 168.547 30.666C169.707 30.8593 170.867 30.9753 172.027 31.014C173.226 31.0527 174.405 31.072 175.565 31.072C175.913 30.956 176.184 31.0527 176.377 31.362C176.571 31.4393 176.725 31.594 176.841 31.826C176.957 32.0193 176.977 32.2707 176.899 32.58C175.739 37.2587 174.463 41.9373 173.071 46.616C171.718 51.2947 170.345 55.9733 168.953 60.652C168.799 61.1933 168.47 61.4833 167.967 61.522C167.465 61.5993 167.059 61.4833 166.749 61.174H160.079C159.383 61.174 159.035 61 159.035 60.652C159.074 60.304 159.035 59.84 158.919 59.26C158.455 57.404 158.011 55.5867 157.585 53.808C157.199 52.0293 156.754 50.212 156.251 48.356C155.671 50.4827 155.091 52.59 154.511 54.678C153.931 56.7273 153.274 58.7187 152.539 60.652C152.346 61.1933 151.998 61.4833 151.495 61.522C151.031 61.5993 150.645 61.4833 150.335 61.174H144.593C144.052 61.174 143.723 60.942 143.607 60.478C143.337 60.2847 143.182 60.0333 143.143 59.724C141.945 55.2773 140.649 50.7533 139.257 46.152C137.865 41.5507 136.357 37.0267 134.733 32.58ZM192.907 22.952C192.985 22.604 193.139 22.3527 193.371 22.198C193.603 22.0047 193.855 21.908 194.125 21.908C194.203 21.908 194.261 21.908 194.299 21.908C194.338 21.8693 194.396 21.85 194.473 21.85C196.059 21.6567 197.567 21.4247 198.997 21.154C200.428 20.8833 202.052 20.748 203.869 20.748C205.145 20.748 206.518 20.806 207.987 20.922C209.495 21.038 210.965 21.2313 212.395 21.502C213.865 21.7727 215.237 22.14 216.513 22.604C217.789 23.0293 218.872 23.532 219.761 24.112C220.728 24.7693 221.54 25.62 222.197 26.664C222.855 27.6693 223.357 28.752 223.705 29.912C224.092 31.0333 224.343 32.1353 224.459 33.218C224.575 34.3007 224.575 35.248 224.459 36.06C224.343 36.872 224.247 37.6453 224.169 38.38C224.092 39.1147 223.957 39.8107 223.763 40.468C223.609 41.1253 223.338 41.7827 222.951 42.44C222.603 43.0587 222.081 43.6773 221.385 44.296C220.148 45.4947 218.814 46.4227 217.383 47.08C215.991 47.6987 214.541 48.1627 213.033 48.472C211.525 48.7427 209.959 48.9167 208.335 48.994C206.75 49.0713 205.145 49.1487 203.521 49.226C203.521 50.27 203.541 51.198 203.579 52.01C203.657 52.7833 203.715 53.5567 203.753 54.33C203.831 55.0647 203.869 55.838 203.869 56.65C203.908 57.462 203.889 58.4093 203.811 59.492C203.773 60.1493 203.657 60.7293 203.463 61.232C203.309 61.7347 203.019 62.044 202.593 62.16C202.207 62.276 201.781 62.3147 201.317 62.276C200.892 62.2373 200.467 62.1987 200.041 62.16C199.152 62.1213 198.282 62.1213 197.431 62.16C196.581 62.1987 195.73 62.2373 194.879 62.276C194.145 62.276 193.661 62.0827 193.429 61.696C193.197 61.348 193.101 61.0193 193.139 60.71C193.178 60.2847 193.178 59.7627 193.139 59.144C193.101 58.5253 193.081 58.0613 193.081 57.752C193.043 56.94 193.023 56.128 193.023 55.316C193.062 54.504 193.081 53.6727 193.081 52.822C193.081 50.2313 193.062 47.6987 193.023 45.224C193.023 42.7493 193.004 40.3133 192.965 37.916C192.965 35.48 192.946 33.044 192.907 30.608C192.907 28.1333 192.907 25.5813 192.907 22.952ZM204.217 30.84C204.256 32.2707 204.217 33.6627 204.101 35.016C204.024 36.3693 204.024 37.7613 204.101 39.192C204.256 39.192 204.469 39.2113 204.739 39.25C205.049 39.25 205.358 39.25 205.667 39.25C206.015 39.25 206.344 39.25 206.653 39.25C206.963 39.2113 207.175 39.192 207.291 39.192C208.219 39.1147 209.07 38.9407 209.843 38.67C210.655 38.3607 211.332 37.8193 211.873 37.046C212.492 36.0793 212.685 34.9967 212.453 33.798C212.299 32.9473 211.912 32.3093 211.293 31.884C210.675 31.4587 209.959 31.1687 209.147 31.014C208.335 30.8593 207.485 30.8013 206.595 30.84C205.706 30.84 204.913 30.84 204.217 30.84ZM228.34 61.754C227.915 61.754 227.605 61.5413 227.412 61.116C227.257 60.7293 227.277 60.362 227.47 60.014V33.74C227.238 33.3147 227.277 32.87 227.586 32.406C227.741 32.1353 227.953 31.9807 228.224 31.942C228.533 31.8647 228.843 31.884 229.152 32H236.112C236.344 32 236.537 32.0773 236.692 32.232C236.847 32.348 236.963 32.5027 237.04 32.696C237.465 32.928 237.62 33.2953 237.504 33.798C237.272 36.118 237.156 38.3413 237.156 40.468C237.156 42.556 237.156 44.76 237.156 47.08C237.156 47.9693 237.137 48.9553 237.098 50.038C237.059 51.1207 237.021 52.2227 236.982 53.344C236.943 54.4653 236.924 55.5673 236.924 56.65C236.924 57.694 236.963 58.6413 237.04 59.492C237.04 59.5307 237.04 59.5693 237.04 59.608C237.079 59.608 237.098 59.6273 237.098 59.666C237.291 59.782 237.427 59.956 237.504 60.188C237.581 60.42 237.581 60.652 237.504 60.884C237.465 61.116 237.369 61.3093 237.214 61.464C237.059 61.6573 236.847 61.754 236.576 61.754H228.34ZM234.314 28.694C233.695 28.81 233.019 28.8487 232.284 28.81C231.549 28.7327 230.853 28.5587 230.196 28.288C229.539 28.0173 228.939 27.6307 228.398 27.128C227.895 26.5867 227.567 25.8907 227.412 25.04C227.18 24.344 227.064 23.6093 227.064 22.836C227.103 22.024 227.238 21.27 227.47 20.574C227.741 19.8393 228.127 19.2207 228.63 18.718C229.171 18.2153 229.829 17.906 230.602 17.79C232.226 17.558 233.734 17.7707 235.126 18.428C236.557 19.0467 237.485 20.0327 237.91 21.386C238.142 22.198 238.239 22.9907 238.2 23.764C238.161 24.5373 237.987 25.2527 237.678 25.91C237.369 26.5673 236.924 27.1473 236.344 27.65C235.803 28.114 235.126 28.462 234.314 28.694ZM241.867 20.284C241.867 19.9747 241.944 19.7427 242.099 19.588C242.292 19.4333 242.505 19.3173 242.737 19.24C242.853 19.0467 243.027 18.9113 243.259 18.834C244.496 18.37 245.714 18.0027 246.913 17.732C248.15 17.4227 249.504 17.152 250.973 16.92C251.437 16.7653 251.862 16.8427 252.249 17.152C252.636 17.4227 252.829 17.8287 252.829 18.37C252.829 21.9273 252.829 25.388 252.829 28.752C252.868 32.116 252.984 35.5573 253.177 39.076C254.144 38.032 255.072 36.9687 255.961 35.886C256.85 34.8033 257.72 33.682 258.571 32.522C258.764 32.1353 258.996 31.768 259.267 31.42C259.576 31.072 259.963 30.898 260.427 30.898C262.128 30.898 263.888 30.9173 265.705 30.956C267.522 30.9947 269.204 31.0527 270.751 31.13C270.828 31.13 270.906 31.1493 270.983 31.188C271.138 31.2653 271.215 31.4007 271.215 31.594C271.331 32.174 271.254 32.754 270.983 33.334C270.751 33.8753 270.403 34.3973 269.939 34.9C269.514 35.4027 269.03 35.886 268.489 36.35C267.986 36.7753 267.561 37.162 267.213 37.51C266.014 38.7473 264.796 40.0427 263.559 41.396C262.36 42.7107 261.316 43.8707 260.427 44.876C260.272 45.0693 260.176 45.1853 260.137 45.224C260.601 45.7267 261.084 46.2873 261.587 46.906C262.128 47.5247 262.67 48.1627 263.211 48.82C263.791 49.4387 264.352 50.0767 264.893 50.734C265.473 51.3527 266.034 51.9327 266.575 52.474C267.503 53.6727 268.45 54.7747 269.417 55.78C270.422 56.7853 271.292 57.8873 272.027 59.086C272.491 59.55 272.568 59.9947 272.259 60.42C271.95 60.8067 271.563 61 271.099 61C269.707 61 268.257 61 266.749 61C265.241 61.0387 263.714 61.116 262.167 61.232C261.974 61.4253 261.742 61.5413 261.471 61.58C261.2 61.6187 260.968 61.5413 260.775 61.348L259.441 59.318C258.474 57.926 257.488 56.5533 256.483 55.2C255.516 53.8467 254.472 52.5707 253.351 51.372V59.55C253.351 59.8207 253.235 60.072 253.003 60.304C252.964 60.6133 252.868 60.884 252.713 61.116C252.558 61.348 252.307 61.464 251.959 61.464C250.49 61.232 249.156 61.116 247.957 61.116C246.797 61.116 245.482 61.232 244.013 61.464C243.549 61.464 243.22 61.29 243.027 60.942C242.718 60.71 242.563 60.4007 242.563 60.014C242.331 58.3513 242.254 56.766 242.331 55.258C242.408 53.75 242.582 52.1453 242.853 50.444C243.046 49.0133 243.104 47.486 243.027 45.862C242.95 44.238 242.911 42.5753 242.911 40.874C242.911 37.4713 242.853 34.0493 242.737 30.608C242.66 27.128 242.37 23.6867 241.867 20.284ZM276.808 61.406C276.305 61.522 275.899 61.4833 275.59 61.29C275.319 61.0967 275.145 60.8453 275.068 60.536C274.952 60.3813 274.894 60.1687 274.894 59.898C274.894 55.4127 274.817 51.0433 274.662 46.79C274.507 42.5367 274.43 38.148 274.43 33.624C274.43 33.3147 274.507 33.0827 274.662 32.928L274.894 32.696C276.789 31.7293 278.683 31.014 280.578 30.55C282.511 30.086 284.522 29.854 286.61 29.854C287.577 29.854 288.543 29.8733 289.51 29.912C290.477 29.9507 291.385 30.0667 292.236 30.26C293.125 30.4533 293.937 30.782 294.672 31.246C295.407 31.71 296.006 32.348 296.47 33.16C296.547 33.2373 296.586 33.3147 296.586 33.392C298.094 32.7347 299.641 32.2127 301.226 31.826C302.85 31.4007 304.435 31.246 305.982 31.362C307.529 31.478 308.979 31.9227 310.332 32.696C311.685 33.4693 312.884 34.7067 313.928 36.408C314.817 38.0707 315.417 39.8107 315.726 41.628C316.074 43.4067 316.248 45.1467 316.248 46.848V60.42C316.248 60.8453 316.074 61.1353 315.726 61.29C315.417 61.4833 315.088 61.5413 314.74 61.464C314.315 61.5413 313.87 61.5413 313.406 61.464C312.981 61.4253 312.517 61.406 312.014 61.406H306.852H306.678C306.33 61.5607 305.963 61.5413 305.576 61.348C305.189 61.1933 304.996 60.884 304.996 60.42C304.996 59.492 305.015 58.5253 305.054 57.52C305.093 56.5147 305.131 55.3547 305.17 54.04C305.247 52.7253 305.305 51.2173 305.344 49.516C305.421 47.8147 305.46 45.7653 305.46 43.368C305.46 42.904 305.305 42.3433 304.996 41.686C304.687 41.0287 304.3 40.4873 303.836 40.062C303.372 39.598 302.85 39.3467 302.27 39.308C301.729 39.2307 301.226 39.54 300.762 40.236L300.53 40.468C301.071 43.832 301.303 47.1573 301.226 50.444C301.187 53.7307 301.149 57.056 301.11 60.42C301.149 60.6133 301.11 60.8067 300.994 61C300.878 61.1933 300.723 61.3673 300.53 61.522C300.337 61.6767 300.124 61.7927 299.892 61.87C299.699 61.9473 299.525 61.9473 299.37 61.87H291.772C291.385 61.87 291.076 61.7927 290.844 61.638C290.651 61.4833 290.515 61.29 290.438 61.058C290.361 60.826 290.361 60.594 290.438 60.362C290.515 60.13 290.67 59.9367 290.902 59.782V48.066C290.786 47.37 290.67 46.4807 290.554 45.398C290.477 44.2767 290.264 43.252 289.916 42.324C289.568 41.396 289.007 40.7193 288.234 40.294C287.499 39.8687 286.417 39.9847 284.986 40.642V59.898C284.986 60.478 284.812 60.884 284.464 61.116C284.155 61.348 283.845 61.4253 283.536 61.348C282.376 61.116 281.255 61 280.172 61C279.089 61 277.968 61.1353 276.808 61.406ZM322.326 61.754C321.901 61.754 321.592 61.5413 321.398 61.116C321.244 60.7293 321.263 60.362 321.456 60.014V33.74C321.224 33.3147 321.263 32.87 321.572 32.406C321.727 32.1353 321.94 31.9807 322.21 31.942C322.52 31.8647 322.829 31.884 323.138 32H330.098C330.33 32 330.524 32.0773 330.678 32.232C330.833 32.348 330.949 32.5027 331.026 32.696C331.452 32.928 331.606 33.2953 331.49 33.798C331.258 36.118 331.142 38.3413 331.142 40.468C331.142 42.556 331.142 44.76 331.142 47.08C331.142 47.9693 331.123 48.9553 331.084 50.038C331.046 51.1207 331.007 52.2227 330.968 53.344C330.93 54.4653 330.91 55.5673 330.91 56.65C330.91 57.694 330.949 58.6413 331.026 59.492C331.026 59.5307 331.026 59.5693 331.026 59.608C331.065 59.608 331.084 59.6273 331.084 59.666C331.278 59.782 331.413 59.956 331.49 60.188C331.568 60.42 331.568 60.652 331.49 60.884C331.452 61.116 331.355 61.3093 331.2 61.464C331.046 61.6573 330.833 61.754 330.562 61.754H322.326ZM328.3 28.694C327.682 28.81 327.005 28.8487 326.27 28.81C325.536 28.7327 324.84 28.5587 324.182 28.288C323.525 28.0173 322.926 27.6307 322.384 27.128C321.882 26.5867 321.553 25.8907 321.398 25.04C321.166 24.344 321.05 23.6093 321.05 22.836C321.089 22.024 321.224 21.27 321.456 20.574C321.727 19.8393 322.114 19.2207 322.616 18.718C323.158 18.2153 323.815 17.906 324.588 17.79C326.212 17.558 327.72 17.7707 329.112 18.428C330.543 19.0467 331.471 20.0327 331.896 21.386C332.128 22.198 332.225 22.9907 332.186 23.764C332.148 24.5373 331.974 25.2527 331.664 25.91C331.355 26.5673 330.91 27.1473 330.33 27.65C329.789 28.114 329.112 28.462 328.3 28.694ZM337.941 61.986C337.593 61.986 337.323 61.87 337.129 61.638C336.975 61.406 336.878 61.1547 336.839 60.884C336.607 60.7293 336.491 60.4393 336.491 60.014C336.723 55.722 336.859 51.4107 336.897 47.08C336.936 42.7107 336.955 38.3607 336.955 34.03C336.762 33.45 336.936 32.9667 337.477 32.58C339.411 31.5747 341.421 30.9173 343.509 30.608C345.636 30.2987 347.801 30.144 350.005 30.144C351.977 30.144 353.872 30.3373 355.689 30.724C357.545 31.1107 359.189 32.0193 360.619 33.45C361.238 34.1847 361.702 34.9967 362.011 35.886C362.359 36.7753 362.611 37.7033 362.765 38.67C362.92 39.598 362.997 40.526 362.997 41.454C363.036 42.382 363.055 43.2713 363.055 44.122C363.287 47.022 363.365 49.806 363.287 52.474C363.21 55.142 363.287 57.81 363.519 60.478C363.519 60.826 363.403 61.0967 363.171 61.29C362.939 61.4833 362.669 61.58 362.359 61.58C362.166 61.8507 361.895 61.986 361.547 61.986H356.327C355.941 61.986 355.651 61.8507 355.457 61.58C355.148 61.58 354.877 61.4833 354.645 61.29C354.452 61.0967 354.355 60.826 354.355 60.478V47.022C354.355 46.558 354.336 46.036 354.297 45.456C354.297 44.876 354.259 44.296 354.181 43.716C354.143 43.136 354.065 42.5947 353.949 42.092C353.833 41.5507 353.659 41.106 353.427 40.758C353.157 40.2553 352.77 39.9267 352.267 39.772C351.765 39.6173 351.204 39.5593 350.585 39.598C350.005 39.6367 349.406 39.7333 348.787 39.888C348.169 40.004 347.608 40.12 347.105 40.236C347.105 43.6387 347.144 47.0027 347.221 50.328C347.299 53.6533 347.337 56.882 347.337 60.014C347.337 60.4007 347.26 60.71 347.105 60.942C346.951 61.174 346.777 61.3287 346.583 61.406L346.467 61.522C345.926 61.754 345.346 61.8893 344.727 61.928C344.109 61.9667 343.548 61.986 343.045 61.986H337.941Z" fill="#333333"/>
</svg>
