<svg width="78" height="91" viewBox="0 0 78 91" fill="none" xmlns="http://www.w3.org/2000/svg">
<path fill-rule="evenodd" clip-rule="evenodd" d="M76.7596 71.1137C76.2674 70.7721 75.7556 70.4597 75.2268 70.1781C75.0958 68.8492 74.4963 67.6103 73.5356 66.683C72.5749 65.7556 71.3156 65.2002 69.9829 65.1162C68.5901 65.1123 67.2226 65.4891 66.0283 66.2058C64.8339 66.9225 63.8581 67.9519 63.2063 69.1828C62.9433 68.9803 62.6409 68.8353 62.3184 68.7571C61.9959 68.6789 61.6606 68.6693 61.3341 68.7288C61.0077 68.7883 60.6974 68.9156 60.4232 69.1026C60.1491 69.2895 59.9172 69.5319 59.7426 69.8141C57.338 68.3348 54.8289 67.0327 52.2351 65.9182C53.476 62.8921 53.8406 59.578 53.2873 56.3546C54.9366 56.5395 56.4637 56.6845 56.8988 56.6959C57.8856 56.7527 58.8667 56.5452 59.7426 56.0958C61.5398 55.0948 63.2632 53.963 64.8983 52.7146C65.2618 52.9236 65.6778 53.0236 66.0966 53.0028C66.5154 52.9821 66.9194 52.8413 67.2604 52.5974C67.6014 52.3534 67.8652 52.0166 68.0201 51.6269C68.1751 51.2373 68.2148 50.8114 68.1345 50.3998C70.0559 49.9785 71.8276 49.0453 73.2619 47.6991C74.6962 46.3529 75.7397 44.6439 76.2818 42.753C76.9757 40.4922 76.4155 38.9367 75.5481 38.402C75.6784 37.9646 75.7062 37.5031 75.6294 37.0532C75.5525 36.6033 75.3731 36.1771 75.1049 35.8078C74.8368 35.4384 74.4872 35.1358 74.0832 34.9234C73.6792 34.711 73.2318 34.5944 72.7755 34.5829C72.7859 34.1501 72.6935 33.7211 72.506 33.331C72.3185 32.9408 72.0412 32.6007 71.6968 32.3385C71.3525 32.0762 70.9508 31.8994 70.5249 31.8224C70.0989 31.7454 69.6608 31.7704 69.2464 31.8955C69.09 30.7666 67.9497 30.0642 66.4482 30.3428C65.4181 30.629 64.464 31.1395 63.6543 31.8376C62.8446 32.5357 62.1992 33.4042 61.7645 34.381C61.2653 34.0928 60.6846 33.9784 60.1134 34.0556C59.5422 34.1327 59.0127 34.3972 58.6079 34.8075C57.8953 35.8968 57.4621 37.1449 57.3465 38.4414C57.231 39.7379 57.4366 41.0429 57.9453 42.2411C56.8164 41.843 55.1926 43.407 56.222 45.3607L55.2352 45.9721C54.749 46.2849 54.749 46.2849 53.6371 46.1939C51.4815 45.8208 49.3738 45.2104 47.3524 44.3739C48.5789 44.1986 49.7444 43.7278 50.7485 43.0021C51.7527 42.2763 52.5654 41.3174 53.1166 40.2078C53.4722 40.1493 53.809 40.0084 54.1003 39.7963C54.3916 39.5843 54.6293 39.3071 54.7943 38.9868C54.9593 38.6665 55.047 38.312 55.0505 37.9517C55.054 37.5914 54.9731 37.2353 54.8144 36.9119C56.5348 36.3261 57.4989 34.5004 57.0126 32.7515C58.1543 32.669 59.2608 32.3199 60.2431 31.7321C61.2255 31.1444 62.0563 30.3345 62.6688 29.3674C65.4898 24.1349 61.574 18.8313 56.859 20.094C54.8439 20.6435 52.997 21.6852 51.4843 23.1254C50.7222 21.1945 49.8634 19.275 49.1866 17.6967C51.7516 16.1013 58.3804 7.97106 56.95 6.41837C55.5481 4.89696 48.9932 6.94446 46.0243 8.70759C45.486 6.21722 44.2888 3.9171 42.5578 2.04753C40.0837 -0.426536 36.0741 -0.927036 31.5041 2.04753C28.3671 4.4922 25.7455 7.53415 23.7907 10.9977C21.8358 14.4612 20.5865 18.2777 20.1149 22.2268C11.4898 25.8554 13.8558 34.6369 23.0895 36.1469C23.5189 37.4323 24.3407 38.5527 25.4441 39.3433C23.226 39.9661 24.099 42.3804 26.2859 42.3947C23.6014 42.6022 20.9396 43.0203 18.3177 43.6402C18.0996 43.2241 17.7703 42.8766 17.3664 42.6364C16.9626 42.3963 16.5 42.2729 16.0302 42.28C15.5604 42.287 15.1018 42.4243 14.7054 42.6765C14.3089 42.9287 13.9902 43.2859 13.7847 43.7085C11.4018 42.5115 8.66527 42.2205 6.08387 42.8895C4.48737 43.1466 3.05327 44.0141 2.08438 45.3088C1.1155 46.6035 0.687649 48.224 0.89118 49.8282C0.578418 50.1825 0.339326 50.5956 0.187845 51.0432C0.0363635 51.4909 -0.0244749 51.9642 0.00887696 52.4357C0.0422288 52.9071 0.169103 53.3672 0.382103 53.789C0.595102 54.2109 0.889963 54.5862 1.24949 54.8929C1.01706 55.2961 0.88985 55.7513 0.879599 56.2166C0.869348 56.6819 0.976381 57.1423 1.19083 57.5553C1.40529 57.9684 1.72026 58.3208 2.10672 58.5801C2.49318 58.8394 2.9387 58.9973 3.40221 59.0391C2.8818 61.6497 6.38815 63.5664 10.9581 60.552C13.944 63.3303 17.8172 60.6999 18.349 55.8541C19.6486 56.5594 21.2126 55.82 21.3804 53.8948C24.1523 53.2633 26.9697 52.8516 29.8064 52.6634C29.8064 54.0654 29.5476 55.4532 29.0386 56.7584C27.8006 58.3895 27.0291 60.3265 26.8068 62.3621C26.5844 64.3977 26.9194 66.4555 27.776 68.3154C27.6061 68.537 27.3896 68.7186 27.1418 68.8472C26.4519 68.4839 25.752 68.1397 25.0431 67.8149C25.0427 67.4855 24.9582 67.1615 24.7977 66.8738C24.6372 66.5861 24.4059 66.3441 24.1257 66.1707C23.8456 65.9973 23.5258 65.8983 23.1967 65.8829C22.8676 65.8676 22.54 65.9365 22.2449 66.0831C21.7137 65.0862 20.8376 64.3169 19.7803 63.9191C18.7231 63.5213 17.5571 63.5223 16.5005 63.9218C15.914 63.6625 15.2919 63.4928 14.6549 63.4185C14.3592 63.3555 14.0512 63.3847 13.7726 63.5022C13.4939 63.6196 13.258 63.8197 13.0966 64.0754C12.1135 65.6714 11.3321 67.3831 10.7704 69.1714C10.7032 69.334 10.6902 69.5138 10.7332 69.6844C10.7762 69.8549 10.873 70.0071 11.0092 70.1184C11.2197 70.2947 11.4472 70.4511 11.6917 70.5791C8.8537 73.929 6.84829 77.9028 5.8393 82.1759C5.6118 83.1968 5.71134 83.8338 6.19762 84.1409C6.71802 84.4907 7.27824 84.7836 7.86121 85.0139C8.41859 87.8008 10.9325 89.763 13.7734 89.6265C15.3509 89.3869 16.8301 88.7115 18.0445 87.6765C19.2589 86.6415 20.1601 85.288 20.6467 83.7684C21.4202 83.7769 22.1539 83.4271 22.6316 82.8157C25.6169 84.5071 29.0385 85.2704 32.4596 85.0082C36.1685 83.7311 39.316 81.201 41.3606 77.8534C46.526 79.5922 51.4492 81.9812 56.0116 84.9627C56.1652 86.4415 57.4619 87.5307 58.9406 87.4283C59.9644 89.8711 63.0499 91.2901 64.6708 90.2919C65.305 90.528 65.9505 90.7299 66.6046 90.892C67.5373 91.1109 67.6766 91.0057 68.1004 90.4938C69.1355 89.1942 69.9971 87.7695 70.6597 86.251C70.9839 85.5144 71.0152 85.0481 70.6996 84.6983C70.4949 84.4955 70.2721 84.3118 70.0341 84.1494C73.419 81.069 75.9046 77.1278 77.226 72.746C77.425 71.8104 77.2629 71.4976 76.7596 71.1137Z" fill="#E60012"/>
</svg>
