<svg width="22" height="24" viewBox="0 0 22 24" fill="none" xmlns="http://www.w3.org/2000/svg">
<path fill-rule="evenodd" clip-rule="evenodd" d="M10.5 0C16.299 0 21 4.70101 21 10.5C21 13.3687 19.848 15.9672 17.9834 17.8623L21.5605 21.4395C22.1463 22.0252 22.1463 22.9748 21.5605 23.5605C20.9748 24.1463 20.0252 24.1463 19.4395 23.5605L15.5723 19.6934C14.0684 20.5248 12.34 21 10.5 21C4.70101 21 0 16.299 0 10.5C0 4.70101 4.70101 0 10.5 0ZM10.5 3C6.35786 3 3 6.35786 3 10.5C3 14.6421 6.35786 18 10.5 18C14.6421 18 18 14.6421 18 10.5C18 6.35786 14.6421 3 10.5 3Z" fill="#333333"/>
</svg>
