<svg width="143" height="35" viewBox="0 0 143 35" fill="none" xmlns="http://www.w3.org/2000/svg">
<path d="M14.1498 9.50185V25.388H19.5695V14.2981L26.3406 25.213H31.7174V9.50185H26.6552V19.9759L19.7769 9.50185H14.1498Z" fill="white"/>
<path d="M39.2463 9.50185H34.942V12.775H39.2463V9.50185Z" fill="white"/>
<path d="M39.2463 14.7389H34.942V25.213H39.2463V14.7389Z" fill="white"/>
<path d="M42.4495 14.5509V25.2H47.6118C47.6833 25.2 47.5188 18.2454 47.6118 17.5259C47.6476 17.197 47.8035 16.8883 48.0547 16.6488C48.306 16.4093 48.6383 16.2526 48.9989 16.2037C49.5108 16.1241 50.0371 16.2156 50.4802 16.4611C50.9234 16.7067 51.2532 17.0896 51.4084 17.5389C51.5943 18.1028 51.4084 25.2065 51.4084 25.2065H56.4134V18.9259C56.4597 17.7294 56.0011 16.5618 55.131 15.6611C54.2608 14.7603 53.0447 14.1941 51.7302 14.0778C51.7302 14.0778 49.8926 13.7407 47.1327 15.2056V14.5574L42.4495 14.5509Z" fill="white"/>
<path d="M83.4475 14.7389V25.388H88.6098C88.6813 25.388 88.5169 18.4333 88.6098 17.7074C88.65 17.3837 88.8071 17.081 89.0567 16.8466C89.3063 16.6122 89.6343 16.4591 89.9898 16.4111C90.4961 16.3294 91.018 16.4154 91.4603 16.6533C91.9026 16.8913 92.2358 17.2654 92.3993 17.7074C92.5852 18.2778 92.3993 25.3815 92.3993 25.3815H97.4043V19.1139C97.4526 17.9173 96.9958 16.749 96.127 15.847C95.2582 14.945 94.0427 14.3772 92.7282 14.2593C92.7282 14.2593 90.8907 13.9222 88.1308 15.387V14.7389H83.4475Z" fill="white"/>
<path d="M64.6216 13.0407V10.5065H59.6595V13.0407H57.0283V14.7389H59.6595V25.213H64.6216V14.7389H67.3529V13.0407H64.6216Z" fill="white"/>
<path d="M81.1881 21.3176H76.2618C76.2618 21.3176 76.1903 24.3315 74.0024 24.3315C73.4947 24.3315 71.6715 24.5454 71.9432 19.9759H81.1881C81.1881 19.9759 81.1238 14.2593 74.2383 14.2593C72.4239 14.1674 70.6402 14.7128 69.258 15.7823C67.8758 16.8518 67.0014 18.363 66.8166 20.0019C66.8166 20.0019 66.2089 25.9065 73.9666 25.9065C81.7244 25.9065 81.1881 21.3176 81.1881 21.3176ZM74.0381 15.4843C76.3404 15.4843 76.1402 18.0769 76.1402 18.0769H71.9503C71.9503 18.0769 71.7787 15.4778 74.0024 15.4778L74.0381 15.4843Z" fill="white"/>
<path d="M108.251 9.11944V14.9528C107.382 14.3806 106.336 14.0701 105.262 14.0648C102.159 14.0648 99.6494 16.6574 99.6494 19.8398C99.6494 23.0222 102.159 25.6148 105.262 25.6148C106.337 25.6126 107.383 25.3018 108.251 24.7269V25.4204H112.97V9.11944H108.251ZM108.251 22.3417C108.182 22.6933 107.982 23.0131 107.686 23.2487C107.39 23.4842 107.014 23.6215 106.621 23.638C105.419 23.638 104.44 21.9333 104.44 19.8269C104.44 17.7204 105.419 16.0157 106.621 16.0157C107.822 16.0157 108.329 17.312 108.465 18.2324C108.551 18.8058 108.587 19.3845 108.573 19.963C108.593 20.7658 108.485 21.5671 108.251 22.3417Z" fill="white"/>
<path d="M122.186 14.1037C121.326 14.09 120.471 14.23 119.671 14.5157C118.871 14.8014 118.14 15.2273 117.521 15.769C116.902 16.3107 116.407 16.9576 116.064 17.6728C115.721 18.3879 115.537 19.1573 115.522 19.937C115.602 21.4907 116.339 22.957 117.58 24.031C118.821 25.1051 120.47 25.7044 122.186 25.7044C123.902 25.7044 125.552 25.1051 126.793 24.031C128.034 22.957 128.771 21.4907 128.85 19.937C128.835 19.1573 128.651 18.3879 128.308 17.6728C127.965 16.9576 127.47 16.3107 126.851 15.769C126.232 15.2273 125.502 14.8014 124.701 14.5157C123.901 14.23 123.046 14.09 122.186 14.1037ZM122.186 24.1565C120.899 24.1565 119.862 22.2704 119.862 19.937C119.862 17.6037 120.899 15.7111 122.186 15.7111C123.473 15.7111 124.517 17.6037 124.517 19.937C124.517 22.2704 123.473 24.1565 122.186 24.1565Z" fill="white"/>
<path d="M124.481 35H18.5186C13.5894 34.9828 8.86961 33.1918 5.39693 30.0207C1.92424 26.8496 -0.0169869 22.5581 0.000112008 18.0898V16.9102C-0.0169869 12.4419 1.92424 8.15039 5.39693 4.9793C8.86961 1.8082 13.5894 0.0171589 18.5186 0H124.481C129.411 0.0171589 134.13 1.8082 137.603 4.9793C141.076 8.15039 143.017 12.4419 143 16.9102V18.0898C143.017 22.5581 141.076 26.8496 137.603 30.0207C134.13 33.1918 129.411 34.9828 124.481 35ZM18.5186 4.58241C14.9255 4.59955 11.4863 5.90634 8.95369 8.21676C6.42105 10.5272 5.00127 13.653 5.0051 16.9102V18.0898C5.00503 21.3425 6.42452 24.4631 8.95367 26.7703C11.4828 29.0776 14.9162 30.3841 18.5043 30.4046H124.481C128.069 30.3841 131.503 29.0776 134.032 26.7703C136.561 24.4631 137.981 21.3425 137.981 18.0898V16.9102C137.981 13.6575 136.561 10.5369 134.032 8.22968C131.503 5.92243 128.069 4.61591 124.481 4.59537L18.5186 4.58241Z" fill="white"/>
<path d="M130.041 9.36046C131.522 9.36046 132.722 10.4532 132.722 11.8023C132.722 13.1515 131.522 14.2442 130.041 14.2442C128.559 14.2442 127.359 13.1515 127.359 11.8023C127.359 10.4532 128.559 9.36046 130.041 9.36046ZM130.041 8.75C128.191 8.75 126.689 10.1174 126.689 11.8023C126.689 13.4872 128.191 14.8547 130.041 14.8547C131.891 14.8547 133.392 13.4872 133.392 11.8023C133.392 10.1174 131.891 8.75 130.041 8.75Z" fill="white"/>
<path d="M129.364 13.5605H128.834V10.0443H130.235C130.429 10.0443 130.604 10.0687 130.758 10.1175C130.912 10.1664 131.039 10.2335 131.147 10.319C131.254 10.4044 131.328 10.5021 131.388 10.6242C131.442 10.7402 131.468 10.8684 131.468 11.0088V11.137C131.468 11.3384 131.415 11.5094 131.301 11.662C131.187 11.8146 131.026 11.9306 130.818 12.0039L131.582 13.5666H131.006L130.309 12.0954H129.357V13.5666L129.364 13.5605ZM129.364 11.6803H130.101C130.403 11.6803 130.617 11.6315 130.744 11.5277C130.872 11.4239 130.932 11.2896 130.932 11.1126V11.0149C130.932 10.844 130.872 10.7036 130.744 10.6059C130.617 10.5021 130.423 10.4533 130.155 10.4533H129.364V11.6803Z" fill="white"/>
</svg>
