<svg width="36" height="24" viewBox="0 0 36 24" fill="none" xmlns="http://www.w3.org/2000/svg">
<path d="M36 20.3077C36 21.287 35.5786 22.2261 34.8284 22.9185C34.0783 23.611 33.0609 24 32 24H4C2.93913 24 1.92172 23.611 1.17157 22.9185C0.421427 22.2261 0 21.287 0 20.3077V3.69231C0 2.71305 0.421427 1.77389 1.17157 1.08145C1.92172 0.38901 2.93913 0 4 0H32C33.0609 0 34.0783 0.38901 34.8284 1.08145C35.5786 1.77389 36 2.71305 36 3.69231V20.3077Z" fill="#EEEEEE"/>
<path d="M21.4409 7.46248C20.1373 6.62012 18.5247 6.29024 16.9576 6.5454C15.3906 6.80056 13.9975 7.61987 13.0849 8.8231C12.6539 9.4253 12.4946 10.159 12.6408 10.868C12.7871 11.577 13.2273 12.2053 13.8678 12.6192C14.5083 13.0332 15.2985 13.2 16.0703 13.0842C16.842 12.9685 17.5343 12.5792 17.9999 11.9994C18.2259 11.7015 18.5133 11.4476 18.8456 11.2522C19.1779 11.0568 19.5486 10.9238 19.9366 10.8607C20.3246 10.7975 20.7223 10.8056 21.107 10.8843C21.4916 10.963 21.8557 11.1109 22.1784 11.3196C22.5011 11.5282 22.7762 11.7934 22.9878 12.1002C23.1995 12.4069 23.3437 12.7491 23.412 13.1073C23.4804 13.4655 23.4717 13.8326 23.3864 14.1876C23.3011 14.5427 23.1409 14.8787 22.9149 15.1766C23.3669 14.5808 23.6873 13.9086 23.8579 13.1984C24.0284 12.4883 24.0458 11.7541 23.9089 11.0377C23.772 10.3214 23.4836 9.63695 23.0602 9.02351C22.6367 8.41006 22.0865 7.87962 21.4409 7.46248Z" fill="#C60C30"/>
<path d="M22.1784 11.3211C21.5267 10.8998 20.7205 10.7347 19.937 10.8621C19.1534 10.9895 18.4568 11.399 18.0004 12.0005C17.5359 12.5834 16.8429 12.9754 16.0694 13.0927C15.2959 13.21 14.5034 13.0433 13.8614 12.6283C13.2193 12.2132 12.7787 11.5827 12.6336 10.8717C12.4886 10.1606 12.6508 9.42539 13.0854 8.82324C12.6202 9.41842 12.2878 10.093 12.1075 10.8078C11.9272 11.5226 11.9026 12.2634 12.0351 12.987C12.1677 13.7107 12.4547 14.4028 12.8795 15.0231C13.3044 15.6435 13.8585 16.1797 14.5098 16.6007C15.1611 17.0216 15.8966 17.3189 16.6734 17.4752C17.4502 17.6315 18.253 17.6437 19.035 17.5111C19.817 17.3785 20.5626 17.1038 21.2286 16.7029C21.8946 16.302 22.4676 15.783 22.9144 15.1759C23.1404 14.8782 23.3007 14.5423 23.3861 14.1875C23.4714 13.8326 23.4802 13.4657 23.4118 13.1077C23.3435 12.7497 23.1993 12.4076 22.9877 12.1011C22.7761 11.7945 22.501 11.5295 22.1784 11.3211Z" fill="#003478"/>
<path d="M24.3349 18.9896L26.2629 16.8683L27.0289 17.4619L25.1009 19.5831L24.3349 18.9896ZM26.9049 16.1622L28.8329 14.0419L29.5989 14.6354L27.6709 16.7557L26.9049 16.1622ZM25.8669 20.1785L27.7949 18.0582L28.5609 18.6517L26.6329 20.772L25.8669 20.1785ZM28.4389 17.3483L30.3689 15.228L31.1349 15.8225L29.2049 17.9419L28.4389 17.3483ZM27.3979 21.3656L29.3279 19.2453L30.0929 19.8388L28.1639 21.9591L27.3979 21.3656ZM29.9689 18.5363L31.8959 16.4133L32.6629 17.0068L30.7359 19.1299L29.9689 18.5363ZM29.9729 5.46373L30.7389 4.87019L32.6689 6.99235L31.9019 7.58589L29.9729 5.46373ZM27.4009 2.63358L28.1669 2.04004L30.0949 4.16219L29.3279 4.75481L27.4009 2.63358ZM25.8679 3.8225L26.6339 3.22896L31.1339 8.1785L30.3679 8.77204L25.8679 3.8225ZM24.3359 5.00773L25.1029 4.41419L27.0299 6.53542L26.2639 7.12804L24.3359 5.00773ZM26.9059 7.83696L27.6719 7.24342L29.6019 9.36373L28.8369 9.95727L26.9059 7.83696ZM6.40094 14.6345L7.16694 14.041L11.6659 18.9914L10.8989 19.585L6.40094 14.6345ZM4.87094 15.8216L5.63594 15.229L7.56494 17.3502L6.79794 17.9437L4.87094 15.8216ZM7.43794 18.6517L8.20394 18.0582L10.1339 20.1785L9.36794 20.772L7.43794 18.6517ZM3.33694 17.0077L4.10294 16.4142L8.60294 21.3637L7.83594 21.9573L3.33694 17.0077ZM3.33594 6.9905L7.83394 2.04096L8.60094 2.63358L4.10094 7.58404L3.33594 6.9905ZM4.86794 8.1785L9.36794 3.22804L10.1339 3.82158L5.63394 8.77112L4.86794 8.1785ZM6.40094 9.36465L10.9009 4.41419L11.6669 5.00773L7.16694 9.95819L6.40094 9.36465Z" fill="#292F33"/>
</svg>
