<svg width="25" height="23" viewBox="0 0 25 23" fill="none" xmlns="http://www.w3.org/2000/svg">
<path d="M18.0654 20.682C18.0773 21.0265 18.1904 21.3598 18.3904 21.6404C18.5905 21.9211 18.8686 22.1367 19.1903 22.2604C19.512 22.3841 19.863 22.4103 20.1995 22.336C20.5361 22.2616 20.8433 22.0899 21.0829 21.8422C21.3225 21.5945 21.484 21.2817 21.5471 20.9429C21.6102 20.6041 21.5723 20.2542 21.438 19.9368C21.3037 19.6194 21.079 19.3485 20.7919 19.1579C20.5047 18.9673 20.1678 18.8654 19.8232 18.8649H19.8193C19.3459 18.8737 18.8953 19.07 18.5665 19.4107C18.2377 19.7514 18.0574 20.2086 18.0654 20.682ZM19.938 14.9867C20.1846 14.978 20.424 14.9019 20.6304 14.7666C20.8367 14.6314 21.002 14.4421 21.1084 14.2195L24.8927 5.08985C24.9824 4.89563 25.0188 4.68106 24.9982 4.46813C24.9776 4.2552 24.9008 4.05158 24.7755 3.87814C24.6569 3.71029 24.4986 3.57443 24.3147 3.48268C24.1308 3.39094 23.9271 3.34616 23.7216 3.35235H6.59664L6.16695 1.09064C6.14746 0.79413 6.01562 0.516222 5.7983 0.313568C5.58099 0.110914 5.29456 -0.00122635 4.99742 1.01173e-05H1.25133C1.08381 0.00076652 0.918149 0.035059 0.764101 0.100865C0.610054 0.166671 0.470744 0.262659 0.354387 0.383166C0.23803 0.503674 0.146982 0.646261 0.0866128 0.80252C0.0262439 0.958778 -0.00222374 1.12554 0.00288893 1.29298C-0.00881205 1.46196 0.0151163 1.63152 0.0731238 1.79067C0.131131 1.94982 0.221924 2.09501 0.339621 2.21683C0.457317 2.33865 0.599292 2.43439 0.756348 2.49784C0.913405 2.56129 1.08204 2.59104 1.25133 2.58517H3.98258L5.85445 13.5727L4.99664 17.2492C4.94729 17.4341 4.9392 17.6276 4.97295 17.8159C5.00671 18.0042 5.08147 18.1829 5.19195 18.3391C5.29611 18.4937 5.43501 18.6217 5.59753 18.713C5.76005 18.8043 5.94168 18.8563 6.12789 18.8649H20.7177C21.0529 18.8532 21.3704 18.7119 21.6034 18.4707C21.8363 18.2295 21.9665 17.9072 21.9665 17.5719C21.9665 17.2365 21.8363 16.9143 21.6034 16.6731C21.3704 16.4319 21.0529 16.2906 20.7177 16.2789H7.76617L8.07867 14.9867H19.938ZM5.30836 20.682C5.32032 21.0265 5.43335 21.3598 5.63339 21.6404C5.83343 21.9211 6.11162 22.1367 6.43331 22.2604C6.755 22.3841 7.10597 22.4103 7.4425 22.336C7.77903 22.2616 8.08624 22.0899 8.32586 21.8422C8.56548 21.5945 8.72692 21.2817 8.79007 20.9429C8.85322 20.6041 8.81528 20.2542 8.68099 19.9368C8.54669 19.6194 8.32198 19.3485 8.03484 19.1579C7.74769 18.9673 7.41082 18.8654 7.06617 18.8649H7.06226C6.58885 18.8737 6.13828 19.07 5.80946 19.4107C5.48063 19.7514 5.30041 20.2086 5.30836 20.682Z" fill="#333333"/>
</svg>
