<svg width="117" height="31" viewBox="0 0 117 31" fill="none" xmlns="http://www.w3.org/2000/svg">
<path d="M11.5771 8.41593V22.4865H16.0114V12.6641L21.5514 22.3315H25.9506V8.41593H21.8088V17.693L16.1811 8.41593H11.5771Z" fill="#E60012"/>
<path d="M32.1106 8.41593H28.5889V11.315H32.1106V8.41593Z" fill="#E60012"/>
<path d="M32.1106 13.0544H28.5889V22.3315H32.1106V13.0544Z" fill="#E60012"/>
<path d="M34.7314 12.888V22.32H38.9551C39.0136 22.32 38.879 16.1602 38.9551 15.523C38.9844 15.2316 39.1119 14.9582 39.3175 14.7461C39.5231 14.5339 39.7949 14.3952 40.09 14.3519C40.5088 14.2814 40.9395 14.3624 41.302 14.5799C41.6646 14.7973 41.9344 15.1365 42.0614 15.5344C42.2135 16.0339 42.0614 22.3257 42.0614 22.3257H46.1564V16.763C46.1943 15.7032 45.8191 14.6691 45.1071 13.8713C44.3952 13.0734 43.4002 12.5719 42.3247 12.4689C42.3247 12.4689 40.8212 12.1704 38.5631 13.4678V12.8937L34.7314 12.888Z" fill="#E60012"/>
<path d="M68.2752 13.0544V22.4865H72.4989C72.5574 22.4865 72.4229 16.3267 72.4989 15.6837C72.5318 15.397 72.6604 15.1289 72.8646 14.9213C73.0688 14.7136 73.3371 14.578 73.628 14.5356C74.0423 14.4632 74.4693 14.5393 74.8311 14.7501C75.193 14.9608 75.4657 15.2922 75.5994 15.6837C75.7515 16.1889 75.5994 22.4807 75.5994 22.4807H79.6944V16.9294C79.7339 15.8696 79.3602 14.8348 78.6493 14.0359C77.9385 13.237 76.944 12.7341 75.8685 12.6296C75.8685 12.6296 74.3651 12.3311 72.107 13.6285V13.0544H68.2752Z" fill="#E60012"/>
<path d="M52.8722 11.5504V9.30574H48.8123V11.5504H46.6595V13.0544H48.8123V22.3315H52.8722V13.0544H55.1069V11.5504H52.8722Z" fill="#E60012"/>
<path d="M66.4266 18.8813H62.396C62.396 18.8813 62.3375 21.5507 60.5474 21.5507C60.1321 21.5507 58.6403 21.7402 58.8626 17.693H66.4266C66.4266 17.693 66.374 12.6296 60.7405 12.6296C59.2559 12.5482 57.7965 13.0314 56.6656 13.9786C55.5347 14.9259 54.8193 16.2644 54.6682 17.7159C54.6682 17.7159 54.1709 22.9457 60.5182 22.9457C66.8654 22.9457 66.4266 18.8813 66.4266 18.8813ZM60.5767 13.7146C62.4604 13.7146 62.2965 16.0109 62.2965 16.0109H58.8685C58.8685 16.0109 58.7281 13.7089 60.5474 13.7089L60.5767 13.7146Z" fill="#E60012"/>
<path d="M88.5689 8.07722V13.2439C87.8577 12.7371 87.0024 12.4621 86.1236 12.4574C83.5847 12.4574 81.5313 14.7537 81.5313 17.5724C81.5313 20.3911 83.5847 22.6874 86.1236 22.6874C87.0029 22.6855 87.859 22.4101 88.5689 21.9009V22.5152H92.4299V8.07722H88.5689ZM88.5689 19.7883C88.5122 20.0998 88.3493 20.383 88.1069 20.5917C87.8645 20.8003 87.5571 20.9219 87.2351 20.9365C86.2523 20.9365 85.4508 19.4267 85.4508 17.5609C85.4508 15.6952 86.2523 14.1854 87.2351 14.1854C88.2179 14.1854 88.6332 15.3335 88.7444 16.1487C88.8142 16.6566 88.8436 17.1691 88.8321 17.6815C88.8487 18.3926 88.7601 19.1023 88.5689 19.7883Z" fill="#E60012"/>
<path d="M99.9705 12.4919C99.2668 12.4797 98.5675 12.6037 97.9126 12.8568C97.2577 13.1098 96.66 13.4871 96.1537 13.9668C95.6474 14.4466 95.2424 15.0196 94.9618 15.653C94.6812 16.2865 94.5305 16.9679 94.5183 17.6585C94.5833 19.0347 95.1861 20.3333 96.2015 21.2846C97.2168 22.2359 98.5667 22.7667 99.9705 22.7667C101.374 22.7667 102.724 22.2359 103.74 21.2846C104.755 20.3333 105.358 19.0347 105.423 17.6585C105.411 16.9679 105.26 16.2865 104.979 15.653C104.699 15.0196 104.294 14.4466 103.787 13.9668C103.281 13.4871 102.683 13.1098 102.028 12.8568C101.374 12.6037 100.674 12.4797 99.9705 12.4919ZM99.9705 21.3957C98.9175 21.3957 98.0692 19.7252 98.0692 17.6585C98.0692 15.5919 98.9175 13.9156 99.9705 13.9156C101.023 13.9156 101.878 15.5919 101.878 17.6585C101.878 19.7252 101.023 21.3957 99.9705 21.3957Z" fill="#E60012"/>
<path d="M101.848 31H15.1516C11.1186 30.9848 7.25696 29.3984 4.41567 26.5898C1.57437 23.7811 -0.0138983 19.98 9.1643e-05 16.0224V14.9776C-0.0138983 11.02 1.57437 7.21892 4.41567 4.41023C7.25696 1.60155 11.1186 0.0151979 15.1516 0H101.848C105.881 0.0151979 109.743 1.60155 112.584 4.41023C115.426 7.21892 117.014 11.02 117 14.9776V16.0224C117.014 19.98 115.426 23.7811 112.584 26.5898C109.743 29.3984 105.881 30.9848 101.848 31ZM15.1516 4.0587C12.2118 4.07389 9.39791 5.23133 7.32575 7.2777C5.25359 9.32408 4.09195 12.0927 4.09509 14.9776V16.0224C4.09503 18.9033 5.25642 21.6673 7.32573 23.7109C9.39503 25.7544 12.2042 26.9116 15.1399 26.9298H101.848C104.784 26.9116 107.593 25.7544 109.663 23.7109C111.732 21.6673 112.893 18.9033 112.893 16.0224V14.9776C112.893 12.0967 111.732 9.33271 109.663 7.28914C107.593 5.24558 104.784 4.08838 101.848 4.07019L15.1516 4.0587Z" fill="#E60012"/>
<path d="M106.397 8.2907C107.609 8.2907 108.591 9.25855 108.591 10.4535C108.591 11.6484 107.609 12.6163 106.397 12.6163C105.185 12.6163 104.203 11.6484 104.203 10.4535C104.203 9.25855 105.185 8.2907 106.397 8.2907ZM106.397 7.75C104.883 7.75 103.655 8.96116 103.655 10.4535C103.655 11.9458 104.883 13.157 106.397 13.157C107.911 13.157 109.139 11.9458 109.139 10.4535C109.139 8.96116 107.911 7.75 106.397 7.75Z" fill="#E60012"/>
<path d="M105.843 12.0108H105.41V8.89634H106.556C106.715 8.89634 106.858 8.91797 106.984 8.96123C107.11 9.00448 107.214 9.06396 107.302 9.13966C107.39 9.21535 107.45 9.30187 107.499 9.41C107.543 9.51274 107.565 9.62628 107.565 9.75064V9.86419C107.565 10.0426 107.521 10.194 107.428 10.3292C107.335 10.4644 107.203 10.5671 107.033 10.632L107.658 12.0162H107.187L106.616 10.7131H105.837V12.0162L105.843 12.0108ZM105.843 10.3454H106.446C106.693 10.3454 106.869 10.3022 106.973 10.2102C107.077 10.1183 107.126 9.99937 107.126 9.84256V9.75605C107.126 9.60466 107.077 9.4803 106.973 9.39378C106.869 9.30187 106.709 9.25861 106.49 9.25861H105.843V10.3454Z" fill="#E60012"/>
</svg>
