<svg width="18" height="20" viewBox="0 0 18 20" fill="none" xmlns="http://www.w3.org/2000/svg">
<path d="M8.9875 12.1373C7.78911 12.1287 6.62012 11.7655 5.62789 11.0934C4.63566 10.4213 3.86462 9.4705 3.412 8.36085C2.95937 7.2512 2.84541 6.03238 3.08449 4.85805C3.32357 3.68372 3.90499 2.60647 4.75544 1.76211C5.60588 0.917755 6.68728 0.344092 7.86329 0.113452C9.03931 -0.117188 10.2573 0.00552118 11.3637 0.466108C12.47 0.926695 13.4153 1.70454 14.0802 2.70157C14.7451 3.6986 15.1 4.87018 15.1 6.0686C15.0975 6.8696 14.937 7.66225 14.6277 8.40111C14.3183 9.13997 13.8661 9.8105 13.2971 10.3743C12.7281 10.9381 12.0535 11.384 11.3118 11.6865C10.5701 11.9891 9.776 12.1423 8.975 12.1373M0 20.0061C0.0230684 18.2113 0.754814 16.4985 2.03567 15.241C3.31653 13.9836 5.0426 13.2835 6.8375 13.2936H10.9438C12.7386 13.2835 14.4647 13.9836 15.7456 15.241C17.0264 16.4985 17.7582 18.2113 17.7813 20.0061H0Z" fill="#E60012"/>
</svg>
