<svg width="435" height="58" viewBox="0 0 435 58" fill="none" xmlns="http://www.w3.org/2000/svg">
<mask id="path-1-outside-1_2409_4" maskUnits="userSpaceOnUse" x="0" y="0" width="435" height="58" fill="black">
<rect fill="white" width="435" height="58"/>
<path d="M34.7 25.82C33.62 22.74 32.34 20.58 30.86 19.34C29.38 18.06 27.66 17.42 25.7 17.42C24.9 17.42 23.96 17.52 22.88 17.72C20.8 18.28 19.34 19.78 18.5 22.22C17.66 24.66 17.24 27.12 17.24 29.6C17.24 30.92 17.54 32.36 18.14 33.92C18.74 35.44 19.76 36.78 21.2 37.94C22.68 39.06 24.58 39.62 26.9 39.62C29.42 39.62 31.72 39.04 33.8 37.88C35.88 36.68 37.56 35.22 38.84 33.5L48.8 38C46.32 41.8 43.1 45.06 39.14 47.78C35.22 50.5 30.88 51.94 26.12 52.1C19.2 52.26 14.06 50.2 10.7 45.92C7.38 41.6 5.5 35.74 5.06 28.34C5.02 27.74 5 26.88 5 25.76C5 19.36 6.7 14.4 10.1 10.88C13.5 7.36 19.06 5.42 26.78 5.06L28.04 5C31.56 5 34.64 5.88 37.28 7.64C39.92 9.36 42.06 11.6 43.7 14.36C45.38 17.12 46.6 20.12 47.36 23.36L34.7 25.82Z"/>
<path d="M69.387 50.72H54.207V6.02H69.387L69.327 24.68H81.267L81.207 7.34H92.667V50.72H80.067L79.287 33.5H69.327L69.387 50.72Z"/>
<path d="M121.542 18.44L117.762 29.48L125.622 29.66L121.542 18.44ZM131.562 49.88L127.362 36.62L116.382 36.68L112.062 50.54H98.082C99.242 48.38 101.542 43.14 104.982 34.82C108.422 26.5 112.202 17.08 116.322 6.56L128.142 7.22L145.542 46.94L131.562 49.88Z"/>
<path d="M171.082 17.96C169.642 17.24 167.502 16.9 164.662 16.94V26.9C167.222 26.3 169.282 25.42 170.842 24.26C172.442 23.06 173.242 21.86 173.242 20.66C173.242 19.58 172.522 18.68 171.082 17.96ZM164.662 51.32H150.922V6.62C154.122 6.18 157.122 5.96 159.922 5.96C164.602 5.96 168.882 6.48 172.762 7.52C176.682 8.52 179.802 10 182.122 11.96C184.442 13.88 185.602 16.14 185.602 18.74C185.602 23.3 182.002 28.36 174.802 33.92L192.622 51.32H177.022C174.462 48.84 172.042 46.62 169.762 44.66C167.482 42.66 165.782 41.42 164.662 40.94V51.32Z"/>
<path d="M219.077 18.44L215.297 29.48L223.157 29.66L219.077 18.44ZM229.097 49.88L224.897 36.62L213.917 36.68L209.597 50.54H195.617C196.777 48.38 199.077 43.14 202.517 34.82C205.957 26.5 209.737 17.08 213.857 6.56L225.677 7.22L243.077 46.94L229.097 49.88Z"/>
<path d="M278.157 25.82C277.077 22.74 275.797 20.58 274.317 19.34C272.837 18.06 271.117 17.42 269.157 17.42C268.357 17.42 267.417 17.52 266.337 17.72C264.257 18.28 262.797 19.78 261.957 22.22C261.117 24.66 260.697 27.12 260.697 29.6C260.697 30.92 260.997 32.36 261.597 33.92C262.197 35.44 263.217 36.78 264.657 37.94C266.137 39.06 268.037 39.62 270.357 39.62C272.877 39.62 275.177 39.04 277.257 37.88C279.337 36.68 281.017 35.22 282.297 33.5L292.257 38C289.777 41.8 286.557 45.06 282.597 47.78C278.677 50.5 274.337 51.94 269.577 52.1C262.657 52.26 257.517 50.2 254.157 45.92C250.837 41.6 248.957 35.74 248.517 28.34C248.477 27.74 248.457 26.88 248.457 25.76C248.457 19.36 250.157 14.4 253.557 10.88C256.957 7.36 262.517 5.42 270.237 5.06L271.497 5C275.017 5 278.097 5.88 280.737 7.64C283.377 9.36 285.517 11.6 287.157 14.36C288.837 17.12 290.057 20.12 290.817 23.36L278.157 25.82Z"/>
<path d="M324.304 49.88H312.904V18.44L293.944 19.64V6.92H340.744V17.12L324.304 17V49.88Z"/>
<path d="M342.535 6.92H372.835V17.54H353.935V23.96H371.515V33.2H353.935V38.36H375.295V50.06H342.535V6.92Z"/>
<path d="M400.828 17.96C399.388 17.24 397.248 16.9 394.408 16.94V26.9C396.968 26.3 399.028 25.42 400.588 24.26C402.188 23.06 402.988 21.86 402.988 20.66C402.988 19.58 402.268 18.68 400.828 17.96ZM394.408 51.32H380.668V6.62C383.868 6.18 386.868 5.96 389.668 5.96C394.348 5.96 398.628 6.48 402.508 7.52C406.428 8.52 409.548 10 411.868 11.96C414.188 13.88 415.348 16.14 415.348 18.74C415.348 23.3 411.748 28.36 404.548 33.92L422.368 51.32H406.768C404.208 48.84 401.788 46.62 399.508 44.66C397.228 42.66 395.528 41.42 394.408 40.94V51.32Z"/>
</mask>
<path d="M34.7 25.82C33.62 22.74 32.34 20.58 30.86 19.34C29.38 18.06 27.66 17.42 25.7 17.42C24.9 17.42 23.96 17.52 22.88 17.72C20.8 18.28 19.34 19.78 18.5 22.22C17.66 24.66 17.24 27.12 17.24 29.6C17.24 30.92 17.54 32.36 18.14 33.92C18.74 35.44 19.76 36.78 21.2 37.94C22.68 39.06 24.58 39.62 26.9 39.62C29.42 39.62 31.72 39.04 33.8 37.88C35.88 36.68 37.56 35.22 38.84 33.5L48.8 38C46.32 41.8 43.1 45.06 39.14 47.78C35.22 50.5 30.88 51.94 26.12 52.1C19.2 52.26 14.06 50.2 10.7 45.92C7.38 41.6 5.5 35.74 5.06 28.34C5.02 27.74 5 26.88 5 25.76C5 19.36 6.7 14.4 10.1 10.88C13.5 7.36 19.06 5.42 26.78 5.06L28.04 5C31.56 5 34.64 5.88 37.28 7.64C39.92 9.36 42.06 11.6 43.7 14.36C45.38 17.12 46.6 20.12 47.36 23.36L34.7 25.82Z" fill="white"/>
<path d="M69.387 50.72H54.207V6.02H69.387L69.327 24.68H81.267L81.207 7.34H92.667V50.72H80.067L79.287 33.5H69.327L69.387 50.72Z" fill="white"/>
<path d="M121.542 18.44L117.762 29.48L125.622 29.66L121.542 18.44ZM131.562 49.88L127.362 36.62L116.382 36.68L112.062 50.54H98.082C99.242 48.38 101.542 43.14 104.982 34.82C108.422 26.5 112.202 17.08 116.322 6.56L128.142 7.22L145.542 46.94L131.562 49.88Z" fill="white"/>
<path d="M171.082 17.96C169.642 17.24 167.502 16.9 164.662 16.94V26.9C167.222 26.3 169.282 25.42 170.842 24.26C172.442 23.06 173.242 21.86 173.242 20.66C173.242 19.58 172.522 18.68 171.082 17.96ZM164.662 51.32H150.922V6.62C154.122 6.18 157.122 5.96 159.922 5.96C164.602 5.96 168.882 6.48 172.762 7.52C176.682 8.52 179.802 10 182.122 11.96C184.442 13.88 185.602 16.14 185.602 18.74C185.602 23.3 182.002 28.36 174.802 33.92L192.622 51.32H177.022C174.462 48.84 172.042 46.62 169.762 44.66C167.482 42.66 165.782 41.42 164.662 40.94V51.32Z" fill="white"/>
<path d="M219.077 18.44L215.297 29.48L223.157 29.66L219.077 18.44ZM229.097 49.88L224.897 36.62L213.917 36.68L209.597 50.54H195.617C196.777 48.38 199.077 43.14 202.517 34.82C205.957 26.5 209.737 17.08 213.857 6.56L225.677 7.22L243.077 46.94L229.097 49.88Z" fill="white"/>
<path d="M278.157 25.82C277.077 22.74 275.797 20.58 274.317 19.34C272.837 18.06 271.117 17.42 269.157 17.42C268.357 17.42 267.417 17.52 266.337 17.72C264.257 18.28 262.797 19.78 261.957 22.22C261.117 24.66 260.697 27.12 260.697 29.6C260.697 30.92 260.997 32.36 261.597 33.92C262.197 35.44 263.217 36.78 264.657 37.94C266.137 39.06 268.037 39.62 270.357 39.62C272.877 39.62 275.177 39.04 277.257 37.88C279.337 36.68 281.017 35.22 282.297 33.5L292.257 38C289.777 41.8 286.557 45.06 282.597 47.78C278.677 50.5 274.337 51.94 269.577 52.1C262.657 52.26 257.517 50.2 254.157 45.92C250.837 41.6 248.957 35.74 248.517 28.34C248.477 27.74 248.457 26.88 248.457 25.76C248.457 19.36 250.157 14.4 253.557 10.88C256.957 7.36 262.517 5.42 270.237 5.06L271.497 5C275.017 5 278.097 5.88 280.737 7.64C283.377 9.36 285.517 11.6 287.157 14.36C288.837 17.12 290.057 20.12 290.817 23.36L278.157 25.82Z" fill="white"/>
<path d="M324.304 49.88H312.904V18.44L293.944 19.64V6.92H340.744V17.12L324.304 17V49.88Z" fill="white"/>
<path d="M342.535 6.92H372.835V17.54H353.935V23.96H371.515V33.2H353.935V38.36H375.295V50.06H342.535V6.92Z" fill="white"/>
<path d="M400.828 17.96C399.388 17.24 397.248 16.9 394.408 16.94V26.9C396.968 26.3 399.028 25.42 400.588 24.26C402.188 23.06 402.988 21.86 402.988 20.66C402.988 19.58 402.268 18.68 400.828 17.96ZM394.408 51.32H380.668V6.62C383.868 6.18 386.868 5.96 389.668 5.96C394.348 5.96 398.628 6.48 402.508 7.52C406.428 8.52 409.548 10 411.868 11.96C414.188 13.88 415.348 16.14 415.348 18.74C415.348 23.3 411.748 28.36 404.548 33.92L422.368 51.32H406.768C404.208 48.84 401.788 46.62 399.508 44.66C397.228 42.66 395.528 41.42 394.408 40.94V51.32Z" fill="white"/>
<path d="M34.7 25.82C33.62 22.74 32.34 20.58 30.86 19.34C29.38 18.06 27.66 17.42 25.7 17.42C24.9 17.42 23.96 17.52 22.88 17.72C20.8 18.28 19.34 19.78 18.5 22.22C17.66 24.66 17.24 27.12 17.24 29.6C17.24 30.92 17.54 32.36 18.14 33.92C18.74 35.44 19.76 36.78 21.2 37.94C22.68 39.06 24.58 39.62 26.9 39.62C29.42 39.62 31.72 39.04 33.8 37.88C35.88 36.68 37.56 35.22 38.84 33.5L48.8 38C46.32 41.8 43.1 45.06 39.14 47.78C35.22 50.5 30.88 51.94 26.12 52.1C19.2 52.26 14.06 50.2 10.7 45.92C7.38 41.6 5.5 35.74 5.06 28.34C5.02 27.74 5 26.88 5 25.76C5 19.36 6.7 14.4 10.1 10.88C13.5 7.36 19.06 5.42 26.78 5.06L28.04 5C31.56 5 34.64 5.88 37.28 7.64C39.92 9.36 42.06 11.6 43.7 14.36C45.38 17.12 46.6 20.12 47.36 23.36L34.7 25.82Z" stroke="#7D6849" stroke-width="10" mask="url(#path-1-outside-1_2409_4)"/>
<path d="M69.387 50.72H54.207V6.02H69.387L69.327 24.68H81.267L81.207 7.34H92.667V50.72H80.067L79.287 33.5H69.327L69.387 50.72Z" stroke="#7D6849" stroke-width="10" mask="url(#path-1-outside-1_2409_4)"/>
<path d="M121.542 18.44L117.762 29.48L125.622 29.66L121.542 18.44ZM131.562 49.88L127.362 36.62L116.382 36.68L112.062 50.54H98.082C99.242 48.38 101.542 43.14 104.982 34.82C108.422 26.5 112.202 17.08 116.322 6.56L128.142 7.22L145.542 46.94L131.562 49.88Z" stroke="#7D6849" stroke-width="10" mask="url(#path-1-outside-1_2409_4)"/>
<path d="M171.082 17.96C169.642 17.24 167.502 16.9 164.662 16.94V26.9C167.222 26.3 169.282 25.42 170.842 24.26C172.442 23.06 173.242 21.86 173.242 20.66C173.242 19.58 172.522 18.68 171.082 17.96ZM164.662 51.32H150.922V6.62C154.122 6.18 157.122 5.96 159.922 5.96C164.602 5.96 168.882 6.48 172.762 7.52C176.682 8.52 179.802 10 182.122 11.96C184.442 13.88 185.602 16.14 185.602 18.74C185.602 23.3 182.002 28.36 174.802 33.92L192.622 51.32H177.022C174.462 48.84 172.042 46.62 169.762 44.66C167.482 42.66 165.782 41.42 164.662 40.94V51.32Z" stroke="#7D6849" stroke-width="10" mask="url(#path-1-outside-1_2409_4)"/>
<path d="M219.077 18.44L215.297 29.48L223.157 29.66L219.077 18.44ZM229.097 49.88L224.897 36.62L213.917 36.68L209.597 50.54H195.617C196.777 48.38 199.077 43.14 202.517 34.82C205.957 26.5 209.737 17.08 213.857 6.56L225.677 7.22L243.077 46.94L229.097 49.88Z" stroke="#7D6849" stroke-width="10" mask="url(#path-1-outside-1_2409_4)"/>
<path d="M278.157 25.82C277.077 22.74 275.797 20.58 274.317 19.34C272.837 18.06 271.117 17.42 269.157 17.42C268.357 17.42 267.417 17.52 266.337 17.72C264.257 18.28 262.797 19.78 261.957 22.22C261.117 24.66 260.697 27.12 260.697 29.6C260.697 30.92 260.997 32.36 261.597 33.92C262.197 35.44 263.217 36.78 264.657 37.94C266.137 39.06 268.037 39.62 270.357 39.62C272.877 39.62 275.177 39.04 277.257 37.88C279.337 36.68 281.017 35.22 282.297 33.5L292.257 38C289.777 41.8 286.557 45.06 282.597 47.78C278.677 50.5 274.337 51.94 269.577 52.1C262.657 52.26 257.517 50.2 254.157 45.92C250.837 41.6 248.957 35.74 248.517 28.34C248.477 27.74 248.457 26.88 248.457 25.76C248.457 19.36 250.157 14.4 253.557 10.88C256.957 7.36 262.517 5.42 270.237 5.06L271.497 5C275.017 5 278.097 5.88 280.737 7.64C283.377 9.36 285.517 11.6 287.157 14.36C288.837 17.12 290.057 20.12 290.817 23.36L278.157 25.82Z" stroke="#7D6849" stroke-width="10" mask="url(#path-1-outside-1_2409_4)"/>
<path d="M324.304 49.88H312.904V18.44L293.944 19.64V6.92H340.744V17.12L324.304 17V49.88Z" stroke="#7D6849" stroke-width="10" mask="url(#path-1-outside-1_2409_4)"/>
<path d="M342.535 6.92H372.835V17.54H353.935V23.96H371.515V33.2H353.935V38.36H375.295V50.06H342.535V6.92Z" stroke="#7D6849" stroke-width="10" mask="url(#path-1-outside-1_2409_4)"/>
<path d="M400.828 17.96C399.388 17.24 397.248 16.9 394.408 16.94V26.9C396.968 26.3 399.028 25.42 400.588 24.26C402.188 23.06 402.988 21.86 402.988 20.66C402.988 19.58 402.268 18.68 400.828 17.96ZM394.408 51.32H380.668V6.62C383.868 6.18 386.868 5.96 389.668 5.96C394.348 5.96 398.628 6.48 402.508 7.52C406.428 8.52 409.548 10 411.868 11.96C414.188 13.88 415.348 16.14 415.348 18.74C415.348 23.3 411.748 28.36 404.548 33.92L422.368 51.32H406.768C404.208 48.84 401.788 46.62 399.508 44.66C397.228 42.66 395.528 41.42 394.408 40.94V51.32Z" stroke="#7D6849" stroke-width="10" mask="url(#path-1-outside-1_2409_4)"/>
</svg>
