<svg width="280" height="73" viewBox="0 0 280 73" fill="none" xmlns="http://www.w3.org/2000/svg">
<path d="M237.776 25.888C240.016 25.888 241.92 27.12 243.068 29.304H248.332V24.152H252.028V49.436H248.332V40.084H243.292C242.172 42.548 240.184 43.976 237.776 43.976C234.024 43.976 231.252 40.476 231.252 34.904C231.252 29.388 234.024 25.888 237.776 25.888ZM237.776 29.304C236.012 29.304 234.78 31.236 234.78 34.904C234.78 38.628 236.012 40.588 237.776 40.588C239.596 40.588 240.8 38.628 240.8 34.904C240.8 31.236 239.596 29.304 237.776 29.304ZM244.076 32.3C244.216 33.112 244.3 33.98 244.3 34.904C244.3 35.66 244.244 36.388 244.16 37.088H248.332V32.3H244.076ZM266.757 24.432C272.497 24.432 275.913 25.916 275.913 28.688C275.913 31.488 272.497 33 266.757 33C260.989 33 257.601 31.488 257.601 28.688C257.601 25.916 260.989 24.432 266.757 24.432ZM266.757 27.12C263.145 27.12 261.465 27.624 261.465 28.688C261.465 29.808 263.145 30.284 266.757 30.284C270.341 30.284 272.021 29.808 272.021 28.688C272.021 27.624 270.341 27.12 266.757 27.12ZM255.361 34.036H278.125V36.976H268.577V38.544H275.381V45.096H261.633V46.44H276.053V49.24H257.993V42.52H271.713V41.316H257.937V38.544H264.853V36.976H255.361V34.036Z" fill="#555555"/>
<mask id="path-2-outside-1_517_6" maskUnits="userSpaceOnUse" x="-0.952148" y="10" width="214" height="51" fill="black">
<rect fill="white" x="-0.952148" y="10" width="214" height="51"/>
<path d="M4.99985 51.26V19.696C4.99985 18.3787 5.46785 17.408 6.40385 16.784C7.37452 16.16 8.44919 15.848 9.62785 15.848C10.1825 15.848 10.7199 15.9347 11.2399 16.108C11.7945 16.2467 12.2799 16.472 12.6959 16.784C13.1119 17.096 13.4412 17.4947 13.6839 17.98C13.9265 18.4653 14.0479 19.0373 14.0479 19.696V51.26C14.0479 51.9533 13.9265 52.5427 13.6839 53.028C13.4412 53.548 13.1119 53.964 12.6959 54.276C12.2799 54.6227 11.7945 54.8653 11.2399 55.004C10.7199 55.1773 10.1825 55.264 9.62785 55.264C9.03852 55.264 8.46652 55.1773 7.91185 55.004C7.35719 54.8653 6.85452 54.6227 6.40385 54.276C5.98785 53.964 5.64119 53.548 5.36385 53.028C5.12119 52.5427 4.99985 51.9533 4.99985 51.26ZM31.2688 49.96C33.9728 49.96 35.3248 49.3013 35.3248 47.984C35.3248 47.1173 34.7528 46.4413 33.6088 45.956C32.4995 45.436 31.3381 45.0547 30.1248 44.812C27.8715 44.2573 26.0861 43.7373 24.7688 43.252C23.4861 42.7667 22.3768 42.0387 21.4408 41.068C20.5048 40.0627 20.0368 38.728 20.0368 37.064C20.0368 35.6773 20.4528 34.3773 21.2848 33.164C22.1168 31.9507 23.4341 30.9627 25.2368 30.2C27.0741 29.4027 29.4141 29.004 32.2568 29.004C33.8861 29.004 35.4461 29.1427 36.9368 29.42C38.4621 29.6973 39.7101 30.0613 40.6808 30.512C41.9288 31.136 42.5528 32.02 42.5528 33.164C42.5528 33.6147 42.4315 34.152 42.1888 34.776C41.7728 35.7467 40.9408 36.232 39.6928 36.232C38.9648 36.232 38.2195 36.1107 37.4568 35.868C37.2835 35.8333 36.8848 35.712 36.2608 35.504C35.6715 35.296 35.0301 35.14 34.3368 35.036C33.6781 34.932 33.0021 34.88 32.3088 34.88C29.8821 34.88 28.6688 35.5387 28.6688 36.856C28.6688 37.48 29.0328 37.948 29.7608 38.26C30.4888 38.5373 31.8755 38.936 33.9208 39.456C36.9368 40.184 39.3288 41.1373 41.0968 42.316C42.8995 43.4947 43.8008 45.332 43.8008 47.828C43.8008 50.2547 42.7088 52.144 40.5248 53.496C38.3755 54.8827 35.3075 55.576 31.3208 55.576C26.7448 55.576 23.3128 54.744 21.0248 53.08C20.0195 52.3867 19.5168 51.572 19.5168 50.636C19.5168 50.0467 19.7075 49.4747 20.0888 48.92C20.6781 47.984 21.5621 47.516 22.7408 47.516C23.2955 47.516 23.9541 47.672 24.7168 47.984C25.9301 48.6427 26.9875 49.1453 27.8888 49.492C28.8248 49.804 29.9515 49.96 31.2688 49.96ZM66.227 53.86C64.3203 55.004 61.6337 55.576 58.167 55.576C54.2843 55.576 51.4243 54.848 49.587 53.392C47.7843 51.9707 46.8483 50.2027 46.779 48.088C46.571 45.072 47.6803 42.8187 50.107 41.328C52.5683 39.8027 56.2257 39.04 61.079 39.04H65.447C65.3777 37.9307 64.7883 36.9773 63.679 36.18C62.6043 35.348 61.131 34.932 59.259 34.932C57.179 34.932 55.3937 35.244 53.903 35.868C53.0363 36.2147 52.2737 36.388 51.615 36.388C50.471 36.388 49.6563 35.868 49.171 34.828C48.963 34.308 48.859 33.8227 48.859 33.372C48.859 32.1933 49.4657 31.3093 50.679 30.72C51.7537 30.1653 53.0883 29.732 54.683 29.42C56.3123 29.0733 57.907 28.9 59.467 28.9C62.7603 28.9 65.5163 29.4027 67.735 30.408C69.9537 31.3787 71.583 32.6787 72.623 34.308C73.6977 35.9027 74.235 37.6707 74.235 39.612V51.728C74.235 52.8373 73.8537 53.6867 73.091 54.276C72.3283 54.9 71.2883 55.212 69.971 55.212C68.1683 55.212 66.9203 54.7613 66.227 53.86ZM55.463 47.256C55.463 48.0187 55.775 48.6253 56.399 49.076C57.023 49.5267 57.8897 49.752 58.999 49.752C60.6977 49.752 62.2057 49.3533 63.523 48.556C64.8403 47.7587 65.499 46.8053 65.499 45.696V44.656H60.923C58.843 44.656 57.4043 44.864 56.607 45.28C55.8443 45.696 55.463 46.3547 55.463 47.256ZM96.1197 29.004C98.7197 29.004 101.077 29.42 103.192 30.252C105.341 31.084 107.057 32.3147 108.34 33.944C109.622 35.5733 110.316 37.532 110.42 39.82V41.588V44.76C110.42 48.1573 109.189 50.8093 106.728 52.716C104.266 54.6227 100.886 55.576 96.5877 55.576C95.305 55.576 93.9877 55.368 92.6357 54.952C91.3184 54.536 90.417 54.0507 89.9317 53.496C89.5157 54.0853 89.013 54.5187 88.4237 54.796C87.8344 55.108 86.985 55.264 85.8757 55.264C84.593 55.264 83.5704 54.952 82.8077 54.328C82.045 53.7387 81.6637 52.8893 81.6637 51.78V18.968C81.6637 17.72 82.0797 16.784 82.9117 16.16C83.7784 15.5013 84.8184 15.172 86.0317 15.172C87.2797 15.172 88.3197 15.5013 89.1517 16.16C89.9837 16.784 90.3997 17.72 90.3997 18.968V30.096C92.133 29.368 94.0397 29.004 96.1197 29.004ZM90.5037 44.864C90.781 47.88 92.653 49.388 96.1197 49.388C97.645 49.388 98.893 48.9893 99.8637 48.192C100.869 47.3947 101.441 46.2853 101.58 44.864C101.684 44.032 101.736 43.2 101.736 42.368C101.736 41.432 101.684 40.4787 101.58 39.508C101.441 38.1213 100.886 37.0813 99.9157 36.388C98.9797 35.66 97.7144 35.296 96.1197 35.296C94.5597 35.296 93.2597 35.6947 92.2197 36.492C91.2144 37.2547 90.6424 38.312 90.5037 39.664C90.3997 40.4267 90.3477 41.224 90.3477 42.056C90.3477 42.9227 90.3997 43.8587 90.5037 44.864ZM124.503 45.02C124.537 46.5107 125.161 47.672 126.375 48.504C127.623 49.3013 129.339 49.7 131.523 49.7C132.563 49.7 133.551 49.5787 134.487 49.336C135.457 49.0933 136.289 48.8507 136.983 48.608C137.711 48.3307 138.196 48.1573 138.439 48.088C139.34 47.8107 140.033 47.672 140.519 47.672C141.628 47.672 142.46 48.1227 143.015 49.024C143.361 49.6133 143.535 50.168 143.535 50.688C143.535 51.6933 143.032 52.4907 142.027 53.08C140.952 53.7733 139.461 54.3627 137.555 54.848C135.648 55.3333 133.568 55.576 131.315 55.576C128.264 55.576 125.595 55.1253 123.307 54.224C121.019 53.3227 119.216 52.0573 117.899 50.428C116.616 48.7987 115.905 46.9267 115.767 44.812C115.732 44.188 115.715 43.304 115.715 42.16C115.715 40.9813 115.732 40.0973 115.767 39.508C115.801 37.636 116.443 35.8853 117.691 34.256C118.973 32.6267 120.707 31.3267 122.891 30.356C125.109 29.3853 127.605 28.9 130.379 28.9C132.909 28.9 135.249 29.368 137.399 30.304C139.548 31.2053 141.247 32.4707 142.495 34.1C143.777 35.6947 144.419 37.48 144.419 39.456C144.419 41.64 143.795 43.1133 142.547 43.876C141.299 44.6387 139.617 45.02 137.503 45.02H124.503ZM134.539 39.456C135.163 39.456 135.579 39.4213 135.787 39.352C135.995 39.2827 136.099 39.092 136.099 38.78C136.099 37.6707 135.544 36.752 134.435 36.024C133.325 35.2613 131.956 34.88 130.327 34.88C128.697 34.88 127.311 35.2267 126.167 35.92C125.057 36.6133 124.503 37.5147 124.503 38.624V39.456H134.539ZM150.755 54.224C149.923 53.5653 149.507 52.5947 149.507 51.312V19.072C149.507 17.7893 149.923 16.8187 150.755 16.16C151.622 15.5013 152.662 15.172 153.875 15.172C155.089 15.172 156.129 15.5013 156.995 16.16C157.862 16.8187 158.295 17.7893 158.295 19.072V51.312C158.295 52.5947 157.862 53.5653 156.995 54.224C156.129 54.9173 155.089 55.264 153.875 55.264C152.662 55.264 151.622 54.9173 150.755 54.224ZM166.091 54.224C165.259 53.5653 164.843 52.5947 164.843 51.312V19.072C164.843 17.7893 165.259 16.8187 166.091 16.16C166.958 15.5013 167.998 15.172 169.211 15.172C170.425 15.172 171.465 15.5013 172.331 16.16C173.198 16.8187 173.631 17.7893 173.631 19.072V51.312C173.631 52.5947 173.198 53.5653 172.331 54.224C171.465 54.9173 170.425 55.264 169.211 55.264C167.998 55.264 166.958 54.9173 166.091 54.224ZM187.979 45.02C188.014 46.5107 188.638 47.672 189.851 48.504C191.099 49.3013 192.815 49.7 194.999 49.7C196.039 49.7 197.027 49.5787 197.963 49.336C198.934 49.0933 199.766 48.8507 200.459 48.608C201.187 48.3307 201.673 48.1573 201.915 48.088C202.817 47.8107 203.51 47.672 203.995 47.672C205.105 47.672 205.937 48.1227 206.491 49.024C206.838 49.6133 207.011 50.168 207.011 50.688C207.011 51.6933 206.509 52.4907 205.503 53.08C204.429 53.7733 202.938 54.3627 201.031 54.848C199.125 55.3333 197.045 55.576 194.791 55.576C191.741 55.576 189.071 55.1253 186.783 54.224C184.495 53.3227 182.693 52.0573 181.375 50.428C180.093 48.7987 179.382 46.9267 179.243 44.812C179.209 44.188 179.191 43.304 179.191 42.16C179.191 40.9813 179.209 40.0973 179.243 39.508C179.278 37.636 179.919 35.8853 181.167 34.256C182.45 32.6267 184.183 31.3267 186.367 30.356C188.586 29.3853 191.082 28.9 193.855 28.9C196.386 28.9 198.726 29.368 200.875 30.304C203.025 31.2053 204.723 32.4707 205.971 34.1C207.254 35.6947 207.895 37.48 207.895 39.456C207.895 41.64 207.271 43.1133 206.023 43.876C204.775 44.6387 203.094 45.02 200.979 45.02H187.979ZM198.015 39.456C198.639 39.456 199.055 39.4213 199.263 39.352C199.471 39.2827 199.575 39.092 199.575 38.78C199.575 37.6707 199.021 36.752 197.911 36.024C196.802 35.2613 195.433 34.88 193.803 34.88C192.174 34.88 190.787 35.2267 189.643 35.92C188.534 36.6133 187.979 37.5147 187.979 38.624V39.456H198.015Z"/>
</mask>
<path d="M4.99985 51.26V19.696C4.99985 18.3787 5.46785 17.408 6.40385 16.784C7.37452 16.16 8.44919 15.848 9.62785 15.848C10.1825 15.848 10.7199 15.9347 11.2399 16.108C11.7945 16.2467 12.2799 16.472 12.6959 16.784C13.1119 17.096 13.4412 17.4947 13.6839 17.98C13.9265 18.4653 14.0479 19.0373 14.0479 19.696V51.26C14.0479 51.9533 13.9265 52.5427 13.6839 53.028C13.4412 53.548 13.1119 53.964 12.6959 54.276C12.2799 54.6227 11.7945 54.8653 11.2399 55.004C10.7199 55.1773 10.1825 55.264 9.62785 55.264C9.03852 55.264 8.46652 55.1773 7.91185 55.004C7.35719 54.8653 6.85452 54.6227 6.40385 54.276C5.98785 53.964 5.64119 53.548 5.36385 53.028C5.12119 52.5427 4.99985 51.9533 4.99985 51.26ZM31.2688 49.96C33.9728 49.96 35.3248 49.3013 35.3248 47.984C35.3248 47.1173 34.7528 46.4413 33.6088 45.956C32.4995 45.436 31.3381 45.0547 30.1248 44.812C27.8715 44.2573 26.0861 43.7373 24.7688 43.252C23.4861 42.7667 22.3768 42.0387 21.4408 41.068C20.5048 40.0627 20.0368 38.728 20.0368 37.064C20.0368 35.6773 20.4528 34.3773 21.2848 33.164C22.1168 31.9507 23.4341 30.9627 25.2368 30.2C27.0741 29.4027 29.4141 29.004 32.2568 29.004C33.8861 29.004 35.4461 29.1427 36.9368 29.42C38.4621 29.6973 39.7101 30.0613 40.6808 30.512C41.9288 31.136 42.5528 32.02 42.5528 33.164C42.5528 33.6147 42.4315 34.152 42.1888 34.776C41.7728 35.7467 40.9408 36.232 39.6928 36.232C38.9648 36.232 38.2195 36.1107 37.4568 35.868C37.2835 35.8333 36.8848 35.712 36.2608 35.504C35.6715 35.296 35.0301 35.14 34.3368 35.036C33.6781 34.932 33.0021 34.88 32.3088 34.88C29.8821 34.88 28.6688 35.5387 28.6688 36.856C28.6688 37.48 29.0328 37.948 29.7608 38.26C30.4888 38.5373 31.8755 38.936 33.9208 39.456C36.9368 40.184 39.3288 41.1373 41.0968 42.316C42.8995 43.4947 43.8008 45.332 43.8008 47.828C43.8008 50.2547 42.7088 52.144 40.5248 53.496C38.3755 54.8827 35.3075 55.576 31.3208 55.576C26.7448 55.576 23.3128 54.744 21.0248 53.08C20.0195 52.3867 19.5168 51.572 19.5168 50.636C19.5168 50.0467 19.7075 49.4747 20.0888 48.92C20.6781 47.984 21.5621 47.516 22.7408 47.516C23.2955 47.516 23.9541 47.672 24.7168 47.984C25.9301 48.6427 26.9875 49.1453 27.8888 49.492C28.8248 49.804 29.9515 49.96 31.2688 49.96ZM66.227 53.86C64.3203 55.004 61.6337 55.576 58.167 55.576C54.2843 55.576 51.4243 54.848 49.587 53.392C47.7843 51.9707 46.8483 50.2027 46.779 48.088C46.571 45.072 47.6803 42.8187 50.107 41.328C52.5683 39.8027 56.2257 39.04 61.079 39.04H65.447C65.3777 37.9307 64.7883 36.9773 63.679 36.18C62.6043 35.348 61.131 34.932 59.259 34.932C57.179 34.932 55.3937 35.244 53.903 35.868C53.0363 36.2147 52.2737 36.388 51.615 36.388C50.471 36.388 49.6563 35.868 49.171 34.828C48.963 34.308 48.859 33.8227 48.859 33.372C48.859 32.1933 49.4657 31.3093 50.679 30.72C51.7537 30.1653 53.0883 29.732 54.683 29.42C56.3123 29.0733 57.907 28.9 59.467 28.9C62.7603 28.9 65.5163 29.4027 67.735 30.408C69.9537 31.3787 71.583 32.6787 72.623 34.308C73.6977 35.9027 74.235 37.6707 74.235 39.612V51.728C74.235 52.8373 73.8537 53.6867 73.091 54.276C72.3283 54.9 71.2883 55.212 69.971 55.212C68.1683 55.212 66.9203 54.7613 66.227 53.86ZM55.463 47.256C55.463 48.0187 55.775 48.6253 56.399 49.076C57.023 49.5267 57.8897 49.752 58.999 49.752C60.6977 49.752 62.2057 49.3533 63.523 48.556C64.8403 47.7587 65.499 46.8053 65.499 45.696V44.656H60.923C58.843 44.656 57.4043 44.864 56.607 45.28C55.8443 45.696 55.463 46.3547 55.463 47.256ZM96.1197 29.004C98.7197 29.004 101.077 29.42 103.192 30.252C105.341 31.084 107.057 32.3147 108.34 33.944C109.622 35.5733 110.316 37.532 110.42 39.82V41.588V44.76C110.42 48.1573 109.189 50.8093 106.728 52.716C104.266 54.6227 100.886 55.576 96.5877 55.576C95.305 55.576 93.9877 55.368 92.6357 54.952C91.3184 54.536 90.417 54.0507 89.9317 53.496C89.5157 54.0853 89.013 54.5187 88.4237 54.796C87.8344 55.108 86.985 55.264 85.8757 55.264C84.593 55.264 83.5704 54.952 82.8077 54.328C82.045 53.7387 81.6637 52.8893 81.6637 51.78V18.968C81.6637 17.72 82.0797 16.784 82.9117 16.16C83.7784 15.5013 84.8184 15.172 86.0317 15.172C87.2797 15.172 88.3197 15.5013 89.1517 16.16C89.9837 16.784 90.3997 17.72 90.3997 18.968V30.096C92.133 29.368 94.0397 29.004 96.1197 29.004ZM90.5037 44.864C90.781 47.88 92.653 49.388 96.1197 49.388C97.645 49.388 98.893 48.9893 99.8637 48.192C100.869 47.3947 101.441 46.2853 101.58 44.864C101.684 44.032 101.736 43.2 101.736 42.368C101.736 41.432 101.684 40.4787 101.58 39.508C101.441 38.1213 100.886 37.0813 99.9157 36.388C98.9797 35.66 97.7144 35.296 96.1197 35.296C94.5597 35.296 93.2597 35.6947 92.2197 36.492C91.2144 37.2547 90.6424 38.312 90.5037 39.664C90.3997 40.4267 90.3477 41.224 90.3477 42.056C90.3477 42.9227 90.3997 43.8587 90.5037 44.864ZM124.503 45.02C124.537 46.5107 125.161 47.672 126.375 48.504C127.623 49.3013 129.339 49.7 131.523 49.7C132.563 49.7 133.551 49.5787 134.487 49.336C135.457 49.0933 136.289 48.8507 136.983 48.608C137.711 48.3307 138.196 48.1573 138.439 48.088C139.34 47.8107 140.033 47.672 140.519 47.672C141.628 47.672 142.46 48.1227 143.015 49.024C143.361 49.6133 143.535 50.168 143.535 50.688C143.535 51.6933 143.032 52.4907 142.027 53.08C140.952 53.7733 139.461 54.3627 137.555 54.848C135.648 55.3333 133.568 55.576 131.315 55.576C128.264 55.576 125.595 55.1253 123.307 54.224C121.019 53.3227 119.216 52.0573 117.899 50.428C116.616 48.7987 115.905 46.9267 115.767 44.812C115.732 44.188 115.715 43.304 115.715 42.16C115.715 40.9813 115.732 40.0973 115.767 39.508C115.801 37.636 116.443 35.8853 117.691 34.256C118.973 32.6267 120.707 31.3267 122.891 30.356C125.109 29.3853 127.605 28.9 130.379 28.9C132.909 28.9 135.249 29.368 137.399 30.304C139.548 31.2053 141.247 32.4707 142.495 34.1C143.777 35.6947 144.419 37.48 144.419 39.456C144.419 41.64 143.795 43.1133 142.547 43.876C141.299 44.6387 139.617 45.02 137.503 45.02H124.503ZM134.539 39.456C135.163 39.456 135.579 39.4213 135.787 39.352C135.995 39.2827 136.099 39.092 136.099 38.78C136.099 37.6707 135.544 36.752 134.435 36.024C133.325 35.2613 131.956 34.88 130.327 34.88C128.697 34.88 127.311 35.2267 126.167 35.92C125.057 36.6133 124.503 37.5147 124.503 38.624V39.456H134.539ZM150.755 54.224C149.923 53.5653 149.507 52.5947 149.507 51.312V19.072C149.507 17.7893 149.923 16.8187 150.755 16.16C151.622 15.5013 152.662 15.172 153.875 15.172C155.089 15.172 156.129 15.5013 156.995 16.16C157.862 16.8187 158.295 17.7893 158.295 19.072V51.312C158.295 52.5947 157.862 53.5653 156.995 54.224C156.129 54.9173 155.089 55.264 153.875 55.264C152.662 55.264 151.622 54.9173 150.755 54.224ZM166.091 54.224C165.259 53.5653 164.843 52.5947 164.843 51.312V19.072C164.843 17.7893 165.259 16.8187 166.091 16.16C166.958 15.5013 167.998 15.172 169.211 15.172C170.425 15.172 171.465 15.5013 172.331 16.16C173.198 16.8187 173.631 17.7893 173.631 19.072V51.312C173.631 52.5947 173.198 53.5653 172.331 54.224C171.465 54.9173 170.425 55.264 169.211 55.264C167.998 55.264 166.958 54.9173 166.091 54.224ZM187.979 45.02C188.014 46.5107 188.638 47.672 189.851 48.504C191.099 49.3013 192.815 49.7 194.999 49.7C196.039 49.7 197.027 49.5787 197.963 49.336C198.934 49.0933 199.766 48.8507 200.459 48.608C201.187 48.3307 201.673 48.1573 201.915 48.088C202.817 47.8107 203.51 47.672 203.995 47.672C205.105 47.672 205.937 48.1227 206.491 49.024C206.838 49.6133 207.011 50.168 207.011 50.688C207.011 51.6933 206.509 52.4907 205.503 53.08C204.429 53.7733 202.938 54.3627 201.031 54.848C199.125 55.3333 197.045 55.576 194.791 55.576C191.741 55.576 189.071 55.1253 186.783 54.224C184.495 53.3227 182.693 52.0573 181.375 50.428C180.093 48.7987 179.382 46.9267 179.243 44.812C179.209 44.188 179.191 43.304 179.191 42.16C179.191 40.9813 179.209 40.0973 179.243 39.508C179.278 37.636 179.919 35.8853 181.167 34.256C182.45 32.6267 184.183 31.3267 186.367 30.356C188.586 29.3853 191.082 28.9 193.855 28.9C196.386 28.9 198.726 29.368 200.875 30.304C203.025 31.2053 204.723 32.4707 205.971 34.1C207.254 35.6947 207.895 37.48 207.895 39.456C207.895 41.64 207.271 43.1133 206.023 43.876C204.775 44.6387 203.094 45.02 200.979 45.02H187.979ZM198.015 39.456C198.639 39.456 199.055 39.4213 199.263 39.352C199.471 39.2827 199.575 39.092 199.575 38.78C199.575 37.6707 199.021 36.752 197.911 36.024C196.802 35.2613 195.433 34.88 193.803 34.88C192.174 34.88 190.787 35.2267 189.643 35.92C188.534 36.6133 187.979 37.5147 187.979 38.624V39.456H198.015Z" fill="#19C8B9"/>
<path d="M6.40385 16.784L3.70006 12.5781L3.66502 12.6006L3.63035 12.6237L6.40385 16.784ZM11.2399 16.108L9.6587 20.8514L9.84088 20.9121L10.0272 20.9587L11.2399 16.108ZM12.6959 16.784L9.69585 20.784L9.69585 20.784L12.6959 16.784ZM13.6839 17.98L18.156 15.7439L18.156 15.7439L13.6839 17.98ZM13.6839 53.028L9.21171 50.7919L9.1815 50.8524L9.15294 50.9136L13.6839 53.028ZM12.6959 54.276L9.69585 50.276L9.59336 50.3529L9.49493 50.4349L12.6959 54.276ZM11.2399 55.004L10.0272 50.1533L9.84088 50.1999L9.65871 50.2606L11.2399 55.004ZM7.91185 55.004L9.40322 50.2316L9.26501 50.1884L9.12453 50.1533L7.91185 55.004ZM6.40385 54.276L9.45241 50.3129L9.42824 50.2943L9.40385 50.276L6.40385 54.276ZM5.36385 53.028L0.891716 55.2641L0.921133 55.3229L0.952087 55.3809L5.36385 53.028ZM4.99985 51.26H9.99985V19.696H4.99985H-0.000148177V51.26H4.99985ZM4.99985 19.696H9.99985C9.99985 19.6251 10.0118 19.8257 9.8547 20.1515C9.68276 20.5081 9.41952 20.7828 9.17735 20.9442L6.40385 16.784L3.63035 12.6237C1.04877 14.3448 -0.000148177 17.038 -0.000148177 19.696H4.99985ZM6.40385 16.784L9.10764 20.9899C9.25372 20.896 9.38619 20.848 9.62785 20.848V15.848V10.848C7.51218 10.848 5.49532 11.424 3.70006 12.5781L6.40385 16.784ZM9.62785 15.848V20.848C9.64361 20.848 9.65026 20.8491 9.65068 20.8492C9.65135 20.8493 9.65189 20.8494 9.65265 20.8496C9.65341 20.8498 9.65534 20.8503 9.6587 20.8514L11.2399 16.108L12.821 11.3646C11.785 11.0193 10.7134 10.848 9.62785 10.848V15.848ZM11.2399 16.108L10.0272 20.9587C10.0184 20.9565 9.97742 20.9454 9.9143 20.916C9.85017 20.8863 9.77453 20.843 9.69585 20.784L12.6959 16.784L15.6959 12.784C14.6959 12.034 13.5891 11.5414 12.4525 11.2573L11.2399 16.108ZM12.6959 16.784L9.69585 20.784C9.58947 20.7042 9.4885 20.6085 9.40004 20.5014C9.31213 20.395 9.25128 20.2952 9.21172 20.2161L13.6839 17.98L18.156 15.7439C17.5817 14.5954 16.7601 13.5822 15.6959 12.784L12.6959 16.784ZM13.6839 17.98L9.21171 20.2161C9.04077 19.8742 9.04785 19.6498 9.04785 19.696H14.0479H19.0479C19.0479 18.4248 18.8123 17.0565 18.156 15.7439L13.6839 17.98ZM14.0479 19.696H9.04785V51.26H14.0479H19.0479V19.696H14.0479ZM14.0479 51.26H9.04785C9.04785 51.3862 9.02447 51.1664 9.21171 50.7919L13.6839 53.028L18.156 55.2641C18.8286 53.9189 19.0479 52.5204 19.0479 51.26H14.0479ZM13.6839 53.028L9.15294 50.9136C9.22115 50.7674 9.38825 50.5067 9.69585 50.276L12.6959 54.276L15.6959 58.276C16.8355 57.4213 17.6612 56.3286 18.2148 55.1424L13.6839 53.028ZM12.6959 54.276L9.49493 50.4349C9.58375 50.3609 9.68229 50.2966 9.78378 50.2459C9.8844 50.1956 9.96949 50.1677 10.0272 50.1533L11.2399 55.004L12.4525 59.8547C13.6957 59.5439 14.8703 58.9725 15.8968 58.1171L12.6959 54.276ZM11.2399 55.004L9.65871 50.2606C9.65535 50.2617 9.65342 50.2622 9.65266 50.2624C9.65191 50.2626 9.65136 50.2627 9.65069 50.2628C9.65026 50.2629 9.64361 50.264 9.62785 50.264V55.264V60.264C10.7134 60.264 11.785 60.0927 12.821 59.7474L11.2399 55.004ZM9.62785 55.264V50.264C9.53704 50.264 9.46827 50.2519 9.40322 50.2316L7.91185 55.004L6.42048 59.7764C7.46477 60.1027 8.53999 60.264 9.62785 60.264V55.264ZM7.91185 55.004L9.12453 50.1533C9.17053 50.1648 9.2289 50.1845 9.2926 50.2152C9.35636 50.246 9.41054 50.2807 9.45241 50.3129L6.40385 54.276L3.3553 58.2391C4.35356 59.007 5.48189 59.5504 6.69917 59.8547L7.91185 55.004ZM6.40385 54.276L9.40385 50.276C9.64681 50.4582 9.75459 50.6356 9.77562 50.6751L5.36385 53.028L0.952087 55.3809C1.52778 56.4604 2.3289 57.4698 3.40385 58.276L6.40385 54.276ZM5.36385 53.028L9.83599 50.7919C10.0232 51.1664 9.99985 51.3862 9.99985 51.26H4.99985H-0.000148177C-0.000148177 52.5204 0.219137 53.9189 0.891716 55.2641L5.36385 53.028ZM33.6088 45.956L31.4866 50.4833L31.5706 50.5227L31.656 50.5589L33.6088 45.956ZM30.1248 44.812L28.9297 49.6671L29.0364 49.6933L29.1442 49.7149L30.1248 44.812ZM24.7688 43.252L22.9993 47.9284L23.0198 47.9362L23.0403 47.9437L24.7688 43.252ZM21.4408 41.068L17.7813 44.4751L17.8112 44.5071L17.8416 44.5387L21.4408 41.068ZM21.2848 33.164L17.1611 30.3364V30.3364L21.2848 33.164ZM25.2368 30.2L27.185 34.8048L27.2062 34.7959L27.2273 34.7867L25.2368 30.2ZM36.9368 29.42L36.0223 34.3356L36.0323 34.3375L36.0424 34.3393L36.9368 29.42ZM40.6808 30.512L42.9169 26.0399L42.8521 26.0075L42.7863 25.977L40.6808 30.512ZM42.1888 34.776L46.7845 36.7456L46.818 36.6675L46.8488 36.5882L42.1888 34.776ZM37.4568 35.868L38.9728 31.1034L38.7089 31.0194L38.4374 30.9651L37.4568 35.868ZM36.2608 35.504L34.5967 40.2189L34.638 40.2335L34.6797 40.2474L36.2608 35.504ZM34.3368 35.036L33.557 39.9748L33.576 39.9778L33.5951 39.9807L34.3368 35.036ZM29.7608 38.26L27.7912 42.8557L27.8852 42.896L27.9808 42.9324L29.7608 38.26ZM33.9208 39.456L32.6888 44.3018L32.7181 44.3093L32.7476 44.3164L33.9208 39.456ZM41.0968 42.316L38.3233 46.4763L38.3419 46.4886L38.3605 46.5008L41.0968 42.316ZM40.5248 53.496L37.893 49.2447L37.8534 49.2692L37.8142 49.2945L40.5248 53.496ZM21.0248 53.08L23.9656 49.0363L23.915 48.9995L23.8635 48.9639L21.0248 53.08ZM20.0888 48.92L24.209 51.7526L24.2662 51.6695L24.32 51.5841L20.0888 48.92ZM24.7168 47.984L27.1022 43.5897L26.8625 43.4596L26.61 43.3563L24.7168 47.984ZM27.8888 49.492L26.0939 54.1587L26.1999 54.1995L26.3077 54.2354L27.8888 49.492ZM31.2688 49.96V54.96C32.8666 54.96 34.7963 54.7913 36.5006 53.9609C37.4214 53.5124 38.4288 52.7959 39.1978 51.6719C39.9927 50.5102 40.3248 49.2153 40.3248 47.984H35.3248H30.3248C30.3248 47.4113 30.4879 46.6928 30.9448 46.0251C31.3758 45.3951 31.8762 45.0903 32.1209 44.9711C32.3491 44.8599 32.4302 44.8706 32.2418 44.9012C32.0675 44.9295 31.755 44.96 31.2688 44.96V49.96ZM35.3248 47.984H40.3248C40.3248 44.2567 37.6137 42.2237 35.5615 41.3531L33.6088 45.956L31.656 50.5589C31.7807 50.6118 31.4601 50.5073 31.0789 50.0567C30.6191 49.5134 30.3248 48.7611 30.3248 47.984H35.3248ZM33.6088 45.956L35.731 41.4287C34.2539 40.7364 32.709 40.2298 31.1054 39.9091L30.1248 44.812L29.1442 49.7149C29.9673 49.8795 30.745 50.1356 31.4866 50.4833L33.6088 45.956ZM30.1248 44.812L31.3199 39.9569C29.1471 39.4221 27.5645 38.9534 26.4973 38.5603L24.7688 43.252L23.0403 47.9437C24.6078 48.5212 26.5958 49.0926 28.9297 49.6671L30.1248 44.812ZM24.7688 43.252L26.5382 38.5756C25.935 38.3473 25.4538 38.0264 25.04 37.5973L21.4408 41.068L17.8416 44.5387C19.2998 46.0509 21.0373 47.186 22.9993 47.9284L24.7688 43.252ZM21.4408 41.068L25.1003 37.6609C25.1164 37.6783 25.1188 37.6946 25.1061 37.6585C25.0882 37.6074 25.0368 37.4297 25.0368 37.064H20.0368H15.0368C15.0368 39.7102 15.8091 42.3567 17.7813 44.4751L21.4408 41.068ZM20.0368 37.064H25.0368C25.0368 36.7498 25.1106 36.426 25.4084 35.9916L21.2848 33.164L17.1611 30.3364C15.795 32.3286 15.0368 34.6049 15.0368 37.064H20.0368ZM21.2848 33.164L25.4084 35.9916C25.5487 35.7872 25.9783 35.3154 27.185 34.8048L25.2368 30.2L23.2886 25.5952C20.8899 26.61 18.6849 28.1142 17.1611 30.3364L21.2848 33.164ZM25.2368 30.2L27.2273 34.7867C28.2312 34.351 29.8328 34.004 32.2568 34.004V29.004V24.004C28.9954 24.004 25.917 24.4543 23.2463 25.6133L25.2368 30.2ZM32.2568 29.004V34.004C33.6019 34.004 34.8546 34.1184 36.0223 34.3356L36.9368 29.42L37.8513 24.5043C36.0376 24.1669 34.1703 24.004 32.2568 24.004V29.004ZM36.9368 29.42L36.0424 34.3393C37.3187 34.5714 38.1202 34.8358 38.5752 35.047L40.6808 30.512L42.7863 25.977C41.3 25.2869 39.6056 24.8233 37.8312 24.5007L36.9368 29.42ZM40.6808 30.512L38.4447 34.9841C38.5385 35.031 38.2817 34.9255 38 34.5264C37.6814 34.0751 37.5528 33.5619 37.5528 33.164H42.5528H47.5528C47.5528 31.6221 47.1122 30.0949 46.1696 28.7596C45.2639 27.4765 44.0711 26.617 42.9169 26.0399L40.6808 30.512ZM42.5528 33.164H37.5528C37.5528 32.9477 37.5809 32.8198 37.5846 32.8037C37.5887 32.7854 37.5786 32.8357 37.5288 32.9638L42.1888 34.776L46.8488 36.5882C47.2173 35.6406 47.5528 34.4588 47.5528 33.164H42.5528ZM42.1888 34.776L37.5931 32.8064C37.7645 32.4065 38.1334 31.8991 38.7334 31.5491C39.2763 31.2324 39.6873 31.232 39.6928 31.232V36.232V41.232C40.9463 41.232 42.3972 40.9889 43.7721 40.1869C45.2042 39.3515 46.1971 38.1162 46.7845 36.7456L42.1888 34.776ZM39.6928 36.232V31.232C39.5276 31.232 39.2936 31.2054 38.9728 31.1034L37.4568 35.868L35.9408 40.6326C37.1453 41.0159 38.4019 41.232 39.6928 41.232V36.232ZM37.4568 35.868L38.4374 30.9651C38.5564 30.9889 38.6241 31.0085 38.6001 31.0019C38.5901 30.9992 38.5537 30.989 38.4836 30.9676C38.3429 30.9248 38.1331 30.8576 37.8419 30.7606L36.2608 35.504L34.6797 40.2474C35.2076 40.4234 35.9324 40.6621 36.4762 40.7709L37.4568 35.868ZM36.2608 35.504L37.9249 30.789C37.0025 30.4635 36.0485 30.2368 35.0785 30.0913L34.3368 35.036L33.5951 39.9807C34.0117 40.0432 34.3405 40.1285 34.5967 40.2189L36.2608 35.504ZM34.3368 35.036L35.1166 30.0972C34.19 29.9509 33.2529 29.88 32.3088 29.88V34.88V39.88C32.7513 39.88 33.1663 39.9131 33.557 39.9748L34.3368 35.036ZM32.3088 34.88V29.88C30.8067 29.88 28.8953 30.0558 27.1933 30.9797C26.2673 31.4825 25.3261 32.2504 24.6354 33.3752C23.9372 34.5122 23.6688 35.7318 23.6688 36.856H28.6688H33.6688C33.6688 37.3215 33.552 37.9648 33.1571 38.6078C32.7698 39.2386 32.2836 39.5949 31.9642 39.7683C31.6721 39.9269 31.5087 39.9413 31.6066 39.9236C31.6934 39.9079 31.9141 39.88 32.3088 39.88V34.88ZM28.6688 36.856H23.6688C23.6688 38.2173 24.0929 39.5849 24.995 40.7447C25.8418 41.8334 26.9011 42.4742 27.7912 42.8557L29.7608 38.26L31.7304 33.6643C31.8925 33.7338 32.4058 33.9846 32.8886 34.6053C33.4266 35.2971 33.6688 36.1187 33.6688 36.856H28.6688ZM29.7608 38.26L27.9808 42.9324C29.0154 43.3265 30.6688 43.7883 32.6888 44.3018L33.9208 39.456L35.1528 34.6102C33.0821 34.0837 31.9622 33.7481 31.5408 33.5876L29.7608 38.26ZM33.9208 39.456L32.7476 44.3164C35.4319 44.9643 37.2129 45.736 38.3233 46.4763L41.0968 42.316L43.8703 38.1557C41.4447 36.5387 38.4417 35.4037 35.094 34.5956L33.9208 39.456ZM41.0968 42.316L38.3605 46.5008C38.5512 46.6255 38.6018 46.7107 38.6358 46.7801C38.6845 46.8793 38.8008 47.1785 38.8008 47.828H43.8008H48.8008C48.8008 43.957 47.2912 40.3923 43.833 38.1312L41.0968 42.316ZM43.8008 47.828H38.8008C38.8008 48.2636 38.7114 48.4616 38.6528 48.563C38.5871 48.6768 38.408 48.9259 37.893 49.2447L40.5248 53.496L43.1566 57.7473C46.7087 55.5484 48.8008 52.1053 48.8008 47.828H43.8008ZM40.5248 53.496L37.8142 49.2945C36.8067 49.9445 34.8406 50.576 31.3208 50.576V55.576V60.576C35.7743 60.576 39.9442 59.8209 43.2354 57.6975L40.5248 53.496ZM31.3208 55.576V50.576C27.2021 50.576 25.0165 49.8006 23.9656 49.0363L21.0248 53.08L18.0839 57.1237C21.6091 59.6874 26.2874 60.576 31.3208 60.576V55.576ZM21.0248 53.08L23.8635 48.9639C23.7798 48.9062 23.951 49.0026 24.149 49.3235C24.3729 49.6864 24.5168 50.1547 24.5168 50.636H19.5168H14.5168C14.5168 53.703 16.2852 55.8851 18.1861 57.1961L21.0248 53.08ZM19.5168 50.636H24.5168C24.5168 50.8912 24.4738 51.1342 24.4032 51.3461C24.3344 51.5527 24.2532 51.6883 24.209 51.7526L20.0888 48.92L15.9686 46.0874C15.0984 47.3531 14.5168 48.8961 14.5168 50.636H19.5168ZM20.0888 48.92L24.32 51.5841C24.199 51.7761 23.9443 52.0683 23.5332 52.2859C23.1361 52.4962 22.8216 52.516 22.7408 52.516V47.516V42.516C19.9797 42.516 17.4324 43.7548 15.8576 46.2559L20.0888 48.92ZM22.7408 47.516V52.516C22.6459 52.516 22.5772 52.5094 22.5387 52.5044C22.5001 52.4995 22.4859 52.4954 22.4985 52.4984C22.5108 52.5013 22.5444 52.5099 22.6005 52.5284C22.6565 52.5469 22.7306 52.5737 22.8236 52.6117L24.7168 47.984L26.61 43.3563C25.5114 42.9068 24.18 42.516 22.7408 42.516V47.516ZM24.7168 47.984L22.3313 52.3783C23.6618 53.1005 24.9245 53.709 26.0939 54.1587L27.8888 49.492L29.6837 44.8253C29.0504 44.5817 28.1985 44.1848 27.1022 43.5897L24.7168 47.984ZM27.8888 49.492L26.3077 54.2354C27.892 54.7635 29.5826 54.96 31.2688 54.96V49.96V44.96C30.3203 44.96 29.7576 44.8445 29.4699 44.7486L27.8888 49.492ZM66.227 53.86L70.1901 50.8114L67.4742 47.2807L63.6545 49.5725L66.227 53.86ZM49.587 53.392L52.6924 49.4733L52.6828 49.4657L49.587 53.392ZM46.779 48.088L51.7763 47.9242L51.7734 47.834L51.7672 47.744L46.779 48.088ZM50.107 41.328L52.7241 45.5884L52.7325 45.5832L52.7408 45.578L50.107 41.328ZM65.447 39.04V44.04H70.7693L70.4373 38.7281L65.447 39.04ZM63.679 36.18L60.6181 40.1336L60.6885 40.1881L60.7608 40.2401L63.679 36.18ZM53.903 35.868L55.76 40.5104L55.797 40.4956L55.8337 40.4802L53.903 35.868ZM49.171 34.828L44.5286 36.685L44.5807 36.8153L44.6401 36.9424L49.171 34.828ZM50.679 30.72L52.8635 35.2175L52.9182 35.191L52.9722 35.1631L50.679 30.72ZM54.683 29.42L55.6431 34.327L55.6834 34.3191L55.7235 34.3105L54.683 29.42ZM67.735 30.408L65.6714 34.9623L65.701 34.9757L65.7309 34.9888L67.735 30.408ZM72.623 34.308L68.4084 36.9982L68.4419 37.0506L68.4767 37.1023L72.623 34.308ZM73.091 54.276L70.0338 50.3196L69.9787 50.3621L69.9248 50.4062L73.091 54.276ZM56.399 49.076L53.4716 53.1294L53.4716 53.1294L56.399 49.076ZM63.523 48.556L66.112 52.8335V52.8335L63.523 48.556ZM65.499 44.656H70.499V39.656H65.499V44.656ZM56.607 45.28L54.2942 40.8471L54.2533 40.8684L54.2127 40.8905L56.607 45.28ZM66.227 53.86L63.6545 49.5725C62.8441 50.0588 61.1909 50.576 58.167 50.576V55.576V60.576C62.0765 60.576 65.7966 59.9492 68.7995 58.1475L66.227 53.86ZM58.167 55.576V50.576C54.7322 50.576 53.2304 49.8996 52.6924 49.4733L49.587 53.392L46.4816 57.3107C49.6183 59.7964 53.8365 60.576 58.167 60.576V55.576ZM49.587 53.392L52.6828 49.4657C51.9259 48.8689 51.7929 48.4293 51.7763 47.9242L46.779 48.088L41.7817 48.2518C41.9038 51.976 43.6427 55.0724 46.4912 57.3183L49.587 53.392ZM46.779 48.088L51.7672 47.744C51.7115 46.9368 51.8483 46.5324 51.9409 46.3444C52.0249 46.1737 52.2043 45.9077 52.7241 45.5884L50.107 41.328L47.4899 37.0676C45.583 38.239 43.9944 39.845 42.9692 41.9276C41.9524 43.9929 41.6385 46.2232 41.7909 48.432L46.779 48.088ZM50.107 41.328L52.7408 45.578C54.0417 44.7719 56.5962 44.04 61.079 44.04V39.04V34.04C55.8551 34.04 51.095 34.8335 47.4732 37.0779L50.107 41.328ZM61.079 39.04V44.04H65.447V39.04V34.04H61.079V39.04ZM65.447 39.04L70.4373 38.7281C70.2531 35.782 68.618 33.5724 66.5972 32.1199L63.679 36.18L60.7608 40.2401C60.8947 40.3363 60.8186 40.3139 60.7 40.1221C60.6403 40.0255 60.5806 39.9027 60.5345 39.7582C60.4883 39.6136 60.4644 39.4744 60.4567 39.3519L65.447 39.04ZM63.679 36.18L66.7399 32.2264C64.5111 30.5009 61.827 29.932 59.259 29.932V34.932V39.932C60.435 39.932 60.6976 40.1951 60.6181 40.1336L63.679 36.18ZM59.259 34.932V29.932C56.6983 29.932 54.2227 30.3138 51.9723 31.2558L53.903 35.868L55.8337 40.4802C56.5647 40.1742 57.6598 39.932 59.259 39.932V34.932ZM53.903 35.868L52.0461 31.2256C51.8109 31.3197 51.6556 31.3635 51.5729 31.3823C51.4896 31.4013 51.5098 31.388 51.615 31.388V36.388V41.388C53.1158 41.388 54.5301 41.0023 55.76 40.5104L53.903 35.868ZM51.615 36.388V31.388C51.8186 31.388 52.3023 31.4426 52.8362 31.7834C53.369 32.1235 53.6192 32.5364 53.7019 32.7136L49.171 34.828L44.6401 36.9424C45.2081 38.1596 46.1083 39.3525 47.4558 40.2126C48.8044 41.0734 50.2674 41.388 51.615 41.388V36.388ZM49.171 34.828L53.8134 32.971C53.7862 32.9032 53.859 33.0527 53.859 33.372H48.859H43.859C43.859 34.5926 44.1398 35.7128 44.5286 36.685L49.171 34.828ZM48.859 33.372H53.859C53.859 33.6879 53.7614 34.181 53.4366 34.6542C53.1382 35.0889 52.8384 35.2298 52.8635 35.2175L50.679 30.72L48.4945 26.2225C47.3063 26.7996 46.0964 27.6771 45.1914 28.9958C44.26 30.353 43.859 31.8775 43.859 33.372H48.859ZM50.679 30.72L52.9722 35.1631C53.5108 34.8851 54.3642 34.5772 55.6431 34.327L54.683 29.42L53.7229 24.513C51.8124 24.8868 49.9966 25.4455 48.3858 26.2769L50.679 30.72ZM54.683 29.42L55.7235 34.3105C57.0338 34.0317 58.2795 33.9 59.467 33.9V28.9V23.9C57.5345 23.9 55.5909 24.1149 53.6425 24.5295L54.683 29.42ZM59.467 28.9V33.9C62.2854 33.9 64.2867 34.3349 65.6714 34.9623L67.735 30.408L69.7987 25.8537C66.746 24.4705 63.2352 23.9 59.467 23.9V28.9ZM67.735 30.408L65.7309 34.9888C67.2716 35.6628 68.0223 36.3932 68.4084 36.9982L72.623 34.308L76.8376 31.6178C75.1437 28.9641 72.6358 27.0945 69.7391 25.8272L67.735 30.408ZM72.623 34.308L68.4767 37.1023C68.9893 37.8629 69.235 38.6562 69.235 39.612H74.235H79.235C79.235 36.6852 78.4061 33.9424 76.7693 31.5137L72.623 34.308ZM74.235 39.612H69.235V51.728H74.235H79.235V39.612H74.235ZM74.235 51.728H69.235C69.235 51.7099 69.2392 51.4797 69.3877 51.1491C69.5459 50.7966 69.7882 50.5093 70.0338 50.3196L73.091 54.276L76.1483 58.2324C78.3315 56.5453 79.235 54.121 79.235 51.728H74.235ZM73.091 54.276L69.9248 50.4062C70.0092 50.3372 70.0915 50.2851 70.1629 50.248C70.2334 50.2114 70.2833 50.1946 70.3023 50.1889C70.3352 50.179 70.2429 50.212 69.971 50.212V55.212V60.212C72.0526 60.212 74.34 59.7144 76.2572 58.1458L73.091 54.276ZM69.971 55.212V50.212C69.7251 50.212 69.5567 50.1964 69.4537 50.1812C69.3505 50.1659 69.3341 50.1542 69.3812 50.1712C69.431 50.1892 69.5521 50.2396 69.7085 50.3485C69.8692 50.4604 70.0387 50.6146 70.1901 50.8114L66.227 53.86L62.2639 56.9086C64.349 59.6192 67.5321 60.212 69.971 60.212V55.212ZM55.463 47.256H50.463C50.463 49.6418 51.5603 51.7491 53.4716 53.1294L56.399 49.076L59.3265 45.0226C59.5702 45.1986 59.8954 45.5139 60.1434 45.9963C60.3923 46.4802 60.463 46.937 60.463 47.256H55.463ZM56.399 49.076L53.4716 53.1294C55.2491 54.4132 57.2843 54.752 58.999 54.752V49.752V44.752C58.7723 44.752 58.7137 44.7279 58.7752 44.7439C58.8456 44.7622 59.0606 44.8306 59.3265 45.0226L56.399 49.076ZM58.999 49.752V54.752C61.5134 54.752 63.9348 54.1513 66.112 52.8335L63.523 48.556L60.934 44.2785C60.4766 44.5554 59.8819 44.752 58.999 44.752V49.752ZM63.523 48.556L66.112 52.8335C68.2804 51.5211 70.499 49.1962 70.499 45.696H65.499H60.499C60.499 45.47 60.5339 45.2238 60.6125 44.9778C60.6904 44.7337 60.7952 44.54 60.8914 44.4008C61.0721 44.1392 61.1776 44.1311 60.934 44.2785L63.523 48.556ZM65.499 45.696H70.499V44.656H65.499H60.499V45.696H65.499ZM65.499 44.656V39.656H60.923V44.656V49.656H65.499V44.656ZM60.923 44.656V39.656C58.8327 39.656 56.2777 39.8122 54.2942 40.8471L56.607 45.28L58.9198 49.7129C58.7365 49.8086 58.6339 49.8328 58.6693 49.823C58.6985 49.8148 58.8016 49.7892 58.9995 49.7605C59.405 49.7019 60.0297 49.656 60.923 49.656V44.656ZM56.607 45.28L54.2127 40.8905C53.1428 41.4741 52.134 42.3508 51.4219 43.5808C50.7154 44.8011 50.463 46.0886 50.463 47.256H55.463H60.463C60.463 47.5221 60.4013 48.0296 60.0761 48.5912C59.7453 49.1625 59.3085 49.5019 59.0013 49.6695L56.607 45.28ZM103.192 30.252L101.361 34.9048L101.374 34.9099L101.387 34.9148L103.192 30.252ZM108.34 33.944L104.411 37.0368V37.0368L108.34 33.944ZM110.42 39.82H115.42V39.7064L115.415 39.593L110.42 39.82ZM106.728 52.716L103.666 48.7632V48.7633L106.728 52.716ZM92.6357 54.952L91.13 59.7199L91.1476 59.7255L91.1653 59.7309L92.6357 54.952ZM89.9317 53.496L93.6946 50.2035L89.5108 45.422L85.8469 50.6126L89.9317 53.496ZM88.4237 54.796L86.2947 50.2719L86.1882 50.322L86.0843 50.3771L88.4237 54.796ZM82.8077 54.328L85.9739 50.4582L85.92 50.4141L85.8649 50.3716L82.8077 54.328ZM82.9117 16.16L85.9117 20.16L85.9244 20.1504L85.9371 20.1408L82.9117 16.16ZM89.1517 16.16L86.0482 20.0802L86.0994 20.1208L86.1517 20.16L89.1517 16.16ZM90.3997 30.096H85.3997V37.6191L92.3359 34.7059L90.3997 30.096ZM90.5037 44.864L95.4827 44.4062L95.4801 44.3778L95.4772 44.3495L90.5037 44.864ZM99.8637 48.192L96.7567 44.2745L96.7231 44.3012L96.69 44.3284L99.8637 48.192ZM101.58 44.864L96.6183 44.2438L96.6099 44.3111L96.6033 44.3785L101.58 44.864ZM101.58 39.508L96.6045 40.0055L96.6063 40.0231L96.6082 40.0407L101.58 39.508ZM99.9157 36.388L96.846 40.3348L96.9265 40.3974L97.0095 40.4567L99.9157 36.388ZM92.2197 36.492L95.2416 40.4755L95.2518 40.4678L95.2619 40.46L92.2197 36.492ZM90.5037 39.664L95.4578 40.3396L95.4691 40.257L95.4776 40.1741L90.5037 39.664ZM96.1197 29.004V34.004C98.1825 34.004 99.9073 34.3328 101.361 34.9048L103.192 30.252L105.022 25.5992C102.247 24.5072 99.2569 24.004 96.1197 24.004V29.004ZM103.192 30.252L101.387 34.9148C102.796 35.4603 103.743 36.1881 104.411 37.0368L108.34 33.944L112.268 30.8512C110.371 28.4412 107.886 26.7077 104.997 25.5892L103.192 30.252ZM108.34 33.944L104.411 37.0368C104.98 37.7601 105.363 38.6879 105.425 40.047L110.42 39.82L115.415 39.593C115.268 36.3761 114.264 33.3866 112.268 30.8512L108.34 33.944ZM110.42 39.82H105.42V41.588H110.42H115.42V39.82H110.42ZM110.42 41.588H105.42V44.76H110.42H115.42V41.588H110.42ZM110.42 44.76H105.42C105.42 46.7731 104.782 47.8987 103.666 48.7632L106.728 52.716L109.79 56.6688C113.596 53.72 115.42 49.5416 115.42 44.76H110.42ZM106.728 52.716L103.666 48.7633C102.361 49.7743 100.193 50.576 96.5877 50.576V55.576V60.576C101.579 60.576 106.172 59.4711 109.79 56.6687L106.728 52.716ZM96.5877 55.576V50.576C95.8518 50.576 95.0303 50.4575 94.1061 50.1731L92.6357 54.952L91.1653 59.7309C92.9451 60.2785 94.7583 60.576 96.5877 60.576V55.576ZM92.6357 54.952L94.1414 50.1841C93.9204 50.1143 93.7443 50.0502 93.6076 49.9947C93.47 49.9388 93.385 49.8967 93.3422 49.8736C93.2983 49.85 93.3156 49.8554 93.3737 49.899C93.4314 49.9423 93.5511 50.0395 93.6946 50.2035L89.9317 53.496L86.1688 56.7885C87.5854 58.4075 89.5848 59.2319 91.13 59.7199L92.6357 54.952ZM89.9317 53.496L85.8469 50.6126C85.8541 50.6024 85.8946 50.5479 85.978 50.4759C86.0635 50.4022 86.1714 50.3299 86.2947 50.2719L88.4237 54.796L90.5527 59.3201C92.0069 58.6358 93.1565 57.5979 94.0165 56.3794L89.9317 53.496ZM88.4237 54.796L86.0843 50.3771C86.2222 50.304 86.3284 50.2648 86.3862 50.246C86.4441 50.2272 86.4658 50.2248 86.4414 50.2293C86.4175 50.2337 86.3596 50.2428 86.262 50.2505C86.1648 50.2583 86.0371 50.264 85.8757 50.264V55.264V60.264C87.3235 60.264 89.1248 60.0823 90.7631 59.2149L88.4237 54.796ZM85.8757 55.264V50.264C85.6334 50.264 85.5608 50.2339 85.6057 50.2476C85.63 50.255 85.6812 50.2731 85.7501 50.3092C85.8198 50.3457 85.8967 50.3951 85.9739 50.4582L82.8077 54.328L79.6415 58.1978C81.5367 59.7484 83.7913 60.264 85.8757 60.264V55.264ZM82.8077 54.328L85.8649 50.3716C86.1105 50.5613 86.3528 50.8486 86.511 51.201C86.6595 51.5317 86.6637 51.7619 86.6637 51.78H81.6637H76.6637C76.6637 54.173 77.5672 56.5973 79.7505 58.2844L82.8077 54.328ZM81.6637 51.78H86.6637V18.968H81.6637H76.6637V51.78H81.6637ZM81.6637 18.968H86.6637C86.6637 18.8942 86.6759 19.0657 86.5448 19.3607C86.4008 19.6847 86.1672 19.9684 85.9117 20.16L82.9117 16.16L79.9117 12.16C77.5622 13.9221 76.6637 16.5 76.6637 18.968H81.6637ZM82.9117 16.16L85.9371 20.1408C85.9288 20.1471 85.9141 20.157 85.8946 20.1671C85.8751 20.1772 85.8593 20.1831 85.8512 20.1857C85.8434 20.1882 85.8506 20.1851 85.8773 20.1812C85.9045 20.1772 85.9547 20.172 86.0317 20.172V15.172V10.172C83.8575 10.172 81.7224 10.7837 79.8863 12.1792L82.9117 16.16ZM86.0317 15.172V20.172C86.2159 20.172 86.271 20.1961 86.2382 20.1857C86.2225 20.1807 86.1928 20.1697 86.1549 20.1497C86.1168 20.1295 86.0802 20.1056 86.0482 20.0802L89.1517 16.16L92.2552 12.2398C90.3905 10.7635 88.1996 10.172 86.0317 10.172V15.172ZM89.1517 16.16L86.1517 20.16C85.8962 19.9684 85.6626 19.6847 85.5186 19.3607C85.3875 19.0657 85.3997 18.8942 85.3997 18.968H90.3997H95.3997C95.3997 16.5 94.5012 13.9221 92.1517 12.16L89.1517 16.16ZM90.3997 18.968H85.3997V30.096H90.3997H95.3997V18.968H90.3997ZM90.3997 30.096L92.3359 34.7059C93.394 34.2615 94.6337 34.004 96.1197 34.004V29.004V24.004C93.4457 24.004 90.8721 24.4745 88.4635 25.4861L90.3997 30.096ZM90.5037 44.864L85.5247 45.3218C85.7532 47.8064 86.7309 50.3397 88.979 52.1508C91.1228 53.8777 93.7364 54.388 96.1197 54.388V49.388V44.388C95.6033 44.388 95.3089 44.3305 95.1779 44.2935C95.0599 44.2602 95.1212 44.2576 95.2523 44.3632C95.3148 44.4135 95.3754 44.4745 95.4279 44.5417C95.4799 44.6083 95.5112 44.6644 95.5269 44.6976C95.5572 44.7613 95.5091 44.6937 95.4827 44.4062L90.5037 44.864ZM96.1197 49.388V54.388C98.5455 54.388 100.992 53.7358 103.037 52.0556L99.8637 48.192L96.69 44.3284C96.7145 44.3083 96.7259 44.3109 96.6782 44.3261C96.6192 44.345 96.4488 44.388 96.1197 44.388V49.388ZM99.8637 48.192L102.971 52.1095C105.164 50.3697 106.302 47.9531 106.556 45.3495L101.58 44.864L96.6033 44.3785C96.5948 44.4658 96.5834 44.5099 96.5807 44.5197C96.5782 44.5283 96.5831 44.5086 96.6027 44.4706C96.6227 44.4318 96.6503 44.3889 96.6839 44.3484C96.7172 44.3081 96.7449 44.2839 96.7567 44.2745L99.8637 48.192ZM101.58 44.864L106.541 45.4842C106.671 44.4481 106.736 43.4089 106.736 42.368H101.736H96.7357C96.7357 42.9911 96.6968 43.6159 96.6183 44.2438L101.58 44.864ZM101.736 42.368H106.736C106.736 41.2466 106.673 40.1154 106.551 38.9753L101.58 39.508L96.6082 40.0407C96.694 40.8419 96.7357 41.6174 96.7357 42.368H101.736ZM101.58 39.508L106.555 39.0105C106.3 36.4569 105.165 33.9933 102.822 32.3193L99.9157 36.388L97.0095 40.4567C96.9518 40.4154 96.882 40.3556 96.8121 40.2761C96.7421 40.1965 96.6874 40.1149 96.6479 40.0409C96.5676 39.8903 96.5885 39.8452 96.6045 40.0055L101.58 39.508ZM99.9157 36.388L102.985 32.4412C100.912 30.8286 98.445 30.296 96.1197 30.296V35.296V40.296C96.9838 40.296 97.0474 40.4914 96.846 40.3348L99.9157 36.388ZM96.1197 35.296V30.296C93.6763 30.296 91.248 30.9366 89.1775 32.524L92.2197 36.492L95.2619 40.46C95.2714 40.4527 95.4431 40.296 96.1197 40.296V35.296ZM92.2197 36.492L89.1978 32.5085C86.9971 34.178 85.7976 36.5423 85.5298 39.1539L90.5037 39.664L95.4776 40.1741C95.4885 40.0678 95.4999 40.115 95.4344 40.2361C95.4039 40.2925 95.3662 40.3468 95.3254 40.3939C95.285 40.4404 95.2532 40.4667 95.2416 40.4755L92.2197 36.492ZM90.5037 39.664L85.5495 38.9884C85.4127 39.9921 85.3477 41.016 85.3477 42.056H90.3477H95.3477C95.3477 41.432 95.3867 40.8612 95.4578 40.3396L90.5037 39.664ZM90.3477 42.056H85.3477C85.3477 43.1199 85.4114 44.2295 85.5302 45.3785L90.5037 44.864L95.4772 44.3495C95.388 43.4878 95.3477 42.7254 95.3477 42.056H90.3477ZM124.503 45.02V40.02H119.385L119.504 45.1362L124.503 45.02ZM126.375 48.504L123.547 52.6276L123.614 52.6737L123.683 52.7175L126.375 48.504ZM134.487 49.336L133.274 44.4853L133.253 44.4906L133.232 44.496L134.487 49.336ZM136.983 48.608L138.635 53.3273L138.699 53.3047L138.763 53.2804L136.983 48.608ZM138.439 48.088L139.812 52.8956L139.861 52.8817L139.909 52.8669L138.439 48.088ZM143.015 49.024L147.324 46.4889L147.299 46.4459L147.273 46.4035L143.015 49.024ZM142.027 53.08L139.498 48.7665L139.406 48.8206L139.316 48.8785L142.027 53.08ZM137.555 54.848L136.321 50.0025V50.0025L137.555 54.848ZM123.307 54.224L125.139 49.572V49.572L123.307 54.224ZM117.899 50.428L113.97 53.5208L113.99 53.5463L114.011 53.5716L117.899 50.428ZM115.767 44.812L110.774 45.0893L110.776 45.1143L110.777 45.1392L115.767 44.812ZM115.767 39.508L120.758 39.8016L120.764 39.7012L120.766 39.6006L115.767 39.508ZM117.691 34.256L113.762 31.1632L113.742 31.1893L113.721 31.2156L117.691 34.256ZM122.891 30.356L120.887 25.7752L120.873 25.781L120.86 25.7869L122.891 30.356ZM137.399 30.304L135.402 34.8882L135.434 34.9018L135.465 34.915L137.399 30.304ZM142.495 34.1L138.525 37.1404L138.561 37.1875L138.599 37.2338L142.495 34.1ZM142.547 43.876L139.94 39.6096L139.939 39.6096L142.547 43.876ZM135.787 39.352L137.368 44.0954V44.0954L135.787 39.352ZM134.435 36.024L131.602 40.1442L131.646 40.1747L131.691 40.2042L134.435 36.024ZM126.167 35.92L123.575 31.644L123.546 31.6618L123.517 31.68L126.167 35.92ZM124.503 39.456H119.503V44.456H124.503V39.456ZM124.503 45.02L119.504 45.1362C119.576 48.2082 120.987 50.872 123.547 52.6276L126.375 48.504L129.202 44.3804C129.183 44.3668 129.206 44.3803 129.252 44.4295C129.299 44.4804 129.353 44.5525 129.401 44.6424C129.449 44.7322 129.477 44.813 129.492 44.871C129.506 44.9268 129.502 44.9422 129.501 44.9038L124.503 45.02ZM126.375 48.504L123.683 52.7175C126.031 54.2176 128.811 54.7 131.523 54.7V49.7V44.7C129.867 44.7 129.215 44.385 129.067 44.2905L126.375 48.504ZM131.523 49.7V54.7C132.954 54.7 134.366 54.5326 135.742 54.176L134.487 49.336L133.232 44.496C132.735 44.6247 132.171 44.7 131.523 44.7V49.7ZM134.487 49.336L135.699 54.1867C136.769 53.9192 137.756 53.6348 138.635 53.3273L136.983 48.608L135.331 43.8887C134.823 44.0666 134.145 44.2674 133.274 44.4853L134.487 49.336ZM136.983 48.608L138.763 53.2804C139.109 53.1486 139.377 53.0493 139.574 52.9787C139.797 52.8992 139.854 52.8838 139.812 52.8956L138.439 48.088L137.065 43.2804C136.581 43.4188 135.893 43.6726 135.203 43.9356L136.983 48.608ZM138.439 48.088L139.909 52.8669C140.248 52.7626 140.478 52.7064 140.615 52.6789C140.681 52.6657 140.708 52.6628 140.7 52.6638C140.694 52.6644 140.63 52.672 140.519 52.672V47.672V42.672C139.262 42.672 137.986 42.9959 136.968 43.3091L138.439 48.088ZM140.519 47.672V52.672C140.386 52.672 140.025 52.6405 139.593 52.4065C139.151 52.1667 138.883 51.8497 138.756 51.6445L143.015 49.024L147.273 46.4035C145.756 43.9389 143.263 42.672 140.519 42.672V47.672ZM143.015 49.024L138.705 51.5591C138.738 51.6155 138.535 51.2978 138.535 50.688H143.535H148.535C148.535 49.0382 147.985 47.6112 147.324 46.4889L143.015 49.024ZM143.535 50.688H138.535C138.535 50.3126 138.642 49.8269 138.928 49.3735C139.193 48.9533 139.471 48.7827 139.498 48.7665L142.027 53.08L144.555 57.3935C146.802 56.0767 148.535 53.7801 148.535 50.688H143.535ZM142.027 53.08L139.316 48.8785C138.871 49.1654 137.955 49.5868 136.321 50.0025L137.555 54.848L138.788 59.6935C140.968 59.1386 143.033 58.3813 144.737 57.2815L142.027 53.08ZM137.555 54.848L136.321 50.0025C134.871 50.3717 133.211 50.576 131.315 50.576V55.576V60.576C133.925 60.576 136.425 60.295 138.788 59.6935L137.555 54.848ZM131.315 55.576V50.576C128.746 50.576 126.722 50.1954 125.139 49.572L123.307 54.224L121.474 58.876C124.468 60.0553 127.783 60.576 131.315 60.576V55.576ZM123.307 54.224L125.139 49.572C123.515 48.932 122.473 48.1333 121.787 47.2844L117.899 50.428L114.011 53.5716C115.959 55.9813 118.523 57.7133 121.474 58.876L123.307 54.224ZM117.899 50.428L121.827 47.3352C121.184 46.5179 120.83 45.6153 120.756 44.4848L115.767 44.812L110.777 45.1392C110.981 48.2381 112.048 51.0795 113.97 53.5208L117.899 50.428ZM115.767 44.812L120.759 44.5346C120.732 44.0493 120.715 43.2738 120.715 42.16H115.715H110.715C110.715 43.3342 110.732 44.3267 110.774 45.0893L115.767 44.812ZM115.715 42.16H120.715C120.715 41.0033 120.732 40.2389 120.758 39.8016L115.767 39.508L110.775 39.2144C110.732 39.9557 110.715 40.9594 110.715 42.16H115.715ZM115.767 39.508L120.766 39.6006C120.779 38.8993 120.995 38.1642 121.66 37.2964L117.691 34.256L113.721 31.2156C111.89 33.6065 110.824 36.3727 110.768 39.4154L115.767 39.508ZM117.691 34.256L121.619 37.3488C122.327 36.45 123.367 35.6161 124.921 34.9251L122.891 30.356L120.86 25.7869C118.047 27.0373 115.62 28.8033 113.762 31.1632L117.691 34.256ZM122.891 30.356L124.895 34.9368C126.396 34.2799 128.196 33.9 130.379 33.9V28.9V23.9C127.015 23.9 123.823 24.4907 120.887 25.7752L122.891 30.356ZM130.379 28.9V33.9C132.278 33.9 133.932 34.2477 135.402 34.8882L137.399 30.304L139.395 25.7198C136.567 24.4883 133.541 23.9 130.379 23.9V28.9ZM137.399 30.304L135.465 34.915C136.921 35.5257 137.876 36.2927 138.525 37.1404L142.495 34.1L146.464 31.0596C144.617 28.6487 142.175 26.885 139.332 25.693L137.399 30.304ZM142.495 34.1L138.599 37.2338C139.195 37.9745 139.419 38.6632 139.419 39.456H144.419H149.419C149.419 36.2968 148.36 33.4148 146.391 30.9662L142.495 34.1ZM144.419 39.456H139.419C139.419 39.7682 139.396 39.9841 139.373 40.1198C139.35 40.2549 139.33 40.2877 139.347 40.249C139.365 40.2057 139.419 40.096 139.532 39.9611C139.648 39.8227 139.789 39.7013 139.94 39.6096L142.547 43.876L145.154 48.1424C148.537 46.0753 149.419 42.4558 149.419 39.456H144.419ZM142.547 43.876L139.939 39.6096C139.752 39.7244 139.084 40.02 137.503 40.02V45.02V50.02C140.15 50.02 142.846 49.553 145.154 48.1424L142.547 43.876ZM137.503 45.02V40.02H124.503V45.02V50.02H137.503V45.02ZM134.539 39.456V44.456C135.05 44.456 136.272 44.4608 137.368 44.0954L135.787 39.352L134.206 34.6086C134.353 34.5594 134.476 34.5274 134.563 34.5072C134.651 34.4865 134.722 34.4735 134.77 34.4655C134.861 34.4503 134.911 34.4466 134.904 34.4473C134.899 34.4476 134.867 34.4501 134.801 34.4523C134.736 34.4544 134.65 34.456 134.539 34.456V39.456ZM135.787 39.352L137.368 44.0954C138.659 43.6652 139.746 42.7682 140.41 41.5513C141 40.4705 141.099 39.4305 141.099 38.78H136.099H131.099C131.099 38.4415 131.146 37.6528 131.631 36.7627C132.191 35.7364 133.123 34.9695 134.206 34.6086L135.787 39.352ZM136.099 38.78H141.099C141.099 35.6375 139.377 33.2869 137.178 31.8438L134.435 36.024L131.691 40.2042C131.765 40.2528 131.592 40.1574 131.402 39.8433C131.193 39.4957 131.099 39.104 131.099 38.78H136.099ZM134.435 36.024L137.267 31.9038C135.163 30.4568 132.752 29.88 130.327 29.88V34.88V39.88C131.161 39.88 131.488 40.0658 131.602 40.1442L134.435 36.024ZM130.327 34.88V29.88C127.983 29.88 125.655 30.3834 123.575 31.644L126.167 35.92L128.758 40.196C128.966 40.0699 129.412 39.88 130.327 39.88V34.88ZM126.167 35.92L123.517 31.68C121.252 33.0955 119.503 35.4579 119.503 38.624H124.503H129.503C129.503 38.9479 129.409 39.3603 129.177 39.7365C128.966 40.0791 128.765 40.1926 128.817 40.16L126.167 35.92ZM124.503 38.624H119.503V39.456H124.503H129.503V38.624H124.503ZM124.503 39.456V44.456H134.539V39.456V34.456H124.503V39.456ZM150.755 54.224L153.879 50.3197L153.869 50.3117L153.859 50.3038L150.755 54.224ZM150.755 16.16L147.73 12.1792L147.691 12.2091L147.652 12.2398L150.755 16.16ZM156.995 16.16L160.021 12.1792V12.1792L156.995 16.16ZM156.995 54.224L153.97 50.2432L153.921 50.2808L153.872 50.3197L156.995 54.224ZM150.755 54.224L153.859 50.3038C154.091 50.4879 154.294 50.7497 154.415 51.0324C154.525 51.2878 154.507 51.4181 154.507 51.312H149.507H144.507C144.507 53.7683 145.369 56.3372 147.652 58.1442L150.755 54.224ZM149.507 51.312H154.507V19.072H149.507H144.507V51.312H149.507ZM149.507 19.072H154.507C154.507 18.9659 154.525 19.0962 154.415 19.3516C154.294 19.6343 154.091 19.8961 153.859 20.0802L150.755 16.16L147.652 12.2398C145.369 14.0468 144.507 16.6157 144.507 19.072H149.507ZM150.755 16.16L153.781 20.1408C153.773 20.1471 153.758 20.157 153.738 20.1671C153.719 20.1772 153.703 20.1831 153.695 20.1857C153.687 20.1882 153.694 20.1851 153.721 20.1812C153.748 20.1772 153.798 20.172 153.875 20.172V15.172V10.172C151.701 10.172 149.566 10.7837 147.73 12.1792L150.755 16.16ZM153.875 15.172V20.172C153.952 20.172 154.003 20.1772 154.03 20.1812C154.057 20.1851 154.064 20.1882 154.056 20.1857C154.048 20.1831 154.032 20.1772 154.013 20.1671C153.993 20.157 153.978 20.1471 153.97 20.1408L156.995 16.16L160.021 12.1792C158.185 10.7837 156.05 10.172 153.875 10.172V15.172ZM156.995 16.16L153.97 20.1408C153.752 19.9749 153.539 19.7205 153.405 19.4203C153.282 19.1459 153.295 18.9907 153.295 19.072H158.295H163.295C163.295 16.541 162.362 13.9586 160.021 12.1792L156.995 16.16ZM158.295 19.072H153.295V51.312H158.295H163.295V19.072H158.295ZM158.295 51.312H153.295C153.295 51.3933 153.282 51.2381 153.405 50.9637C153.539 50.6635 153.752 50.4091 153.97 50.2432L156.995 54.224L160.021 58.2048C162.362 56.4254 163.295 53.843 163.295 51.312H158.295ZM156.995 54.224L153.872 50.3197C153.879 50.3143 153.895 50.3026 153.919 50.2895C153.943 50.2763 153.966 50.2667 153.984 50.2606C154.002 50.2546 154.007 50.255 153.993 50.2571C153.978 50.2594 153.94 50.264 153.875 50.264V55.264V60.264C156.111 60.264 158.281 59.5983 160.119 58.1283L156.995 54.224ZM153.875 55.264V50.264C153.81 50.264 153.773 50.2594 153.758 50.2571C153.744 50.255 153.749 50.2546 153.767 50.2606C153.785 50.2667 153.808 50.2763 153.832 50.2895C153.856 50.3026 153.872 50.3143 153.879 50.3197L150.755 54.224L147.632 58.1283C149.469 59.5983 151.64 60.264 153.875 60.264V55.264ZM166.091 54.224L169.215 50.3197L169.205 50.3117L169.195 50.3038L166.091 54.224ZM166.091 16.16L163.066 12.1792L163.027 12.2091L162.988 12.2398L166.091 16.16ZM172.331 16.16L175.357 12.1792V12.1792L172.331 16.16ZM172.331 54.224L169.306 50.2432L169.256 50.2808L169.208 50.3197L172.331 54.224ZM166.091 54.224L169.195 50.3038C169.427 50.4879 169.63 50.7497 169.751 51.0324C169.861 51.2878 169.843 51.4181 169.843 51.312H164.843H159.843C159.843 53.7683 160.705 56.3372 162.988 58.1442L166.091 54.224ZM164.843 51.312H169.843V19.072H164.843H159.843V51.312H164.843ZM164.843 19.072H169.843C169.843 18.9659 169.861 19.0962 169.751 19.3516C169.63 19.6343 169.427 19.8961 169.195 20.0802L166.091 16.16L162.988 12.2398C160.705 14.0468 159.843 16.6157 159.843 19.072H164.843ZM166.091 16.16L169.117 20.1408C169.109 20.1471 169.094 20.157 169.074 20.1671C169.055 20.1772 169.039 20.1831 169.031 20.1857C169.023 20.1882 169.03 20.1851 169.057 20.1812C169.084 20.1772 169.134 20.172 169.211 20.172V15.172V10.172C167.037 10.172 164.902 10.7837 163.066 12.1792L166.091 16.16ZM169.211 15.172V20.172C169.288 20.172 169.339 20.1772 169.366 20.1812C169.392 20.1851 169.4 20.1882 169.392 20.1857C169.384 20.1831 169.368 20.1772 169.348 20.1671C169.329 20.157 169.314 20.1471 169.306 20.1408L172.331 16.16L175.357 12.1792C173.521 10.7837 171.386 10.172 169.211 10.172V15.172ZM172.331 16.16L169.306 20.1408C169.088 19.9749 168.875 19.7205 168.741 19.4203C168.618 19.1459 168.631 18.9907 168.631 19.072H173.631H178.631C178.631 16.541 177.698 13.9586 175.357 12.1792L172.331 16.16ZM173.631 19.072H168.631V51.312H173.631H178.631V19.072H173.631ZM173.631 51.312H168.631C168.631 51.3933 168.618 51.2381 168.741 50.9637C168.875 50.6635 169.088 50.4091 169.306 50.2432L172.331 54.224L175.357 58.2048C177.698 56.4254 178.631 53.843 178.631 51.312H173.631ZM172.331 54.224L169.208 50.3197C169.215 50.3143 169.231 50.3026 169.255 50.2895C169.279 50.2763 169.302 50.2667 169.32 50.2606C169.338 50.2546 169.343 50.255 169.329 50.2571C169.314 50.2594 169.276 50.264 169.211 50.264V55.264V60.264C171.447 60.264 173.617 59.5983 175.455 58.1283L172.331 54.224ZM169.211 55.264V50.264C169.146 50.264 169.109 50.2594 169.094 50.2571C169.08 50.255 169.085 50.2546 169.103 50.2606C169.121 50.2667 169.144 50.2763 169.168 50.2895C169.192 50.3026 169.208 50.3143 169.215 50.3197L166.091 54.224L162.968 58.1283C164.805 59.5983 166.975 60.264 169.211 60.264V55.264ZM187.979 45.02V40.02H182.862L182.981 45.1362L187.979 45.02ZM189.851 48.504L187.024 52.6276L187.091 52.6737L187.159 52.7175L189.851 48.504ZM197.963 49.336L196.751 44.4853L196.73 44.4906L196.709 44.496L197.963 49.336ZM200.459 48.608L202.111 53.3273L202.176 53.3047L202.239 53.2804L200.459 48.608ZM201.915 48.088L203.289 52.8956L203.337 52.8817L203.386 52.8669L201.915 48.088ZM206.491 49.024L210.801 46.4889L210.776 46.4459L210.75 46.4035L206.491 49.024ZM205.503 53.08L202.975 48.7665L202.883 48.8206L202.793 48.8785L205.503 53.08ZM201.031 54.848L199.798 50.0025V50.0025L201.031 54.848ZM186.783 54.224L188.616 49.572V49.572L186.783 54.224ZM181.375 50.428L177.447 53.5208L177.467 53.5463L177.487 53.5716L181.375 50.428ZM179.243 44.812L174.251 45.0893L174.252 45.1143L174.254 45.1392L179.243 44.812ZM179.243 39.508L184.235 39.8016L184.241 39.7012L184.242 39.6006L179.243 39.508ZM181.167 34.256L177.239 31.1632L177.218 31.1893L177.198 31.2156L181.167 34.256ZM186.367 30.356L184.363 25.7752L184.35 25.781L184.337 25.7869L186.367 30.356ZM200.875 30.304L198.879 34.8882L198.91 34.9018L198.942 34.915L200.875 30.304ZM205.971 34.1L202.002 37.1404L202.038 37.1875L202.075 37.2338L205.971 34.1ZM206.023 43.876L203.416 39.6096L203.416 39.6096L206.023 43.876ZM199.263 39.352L200.844 44.0954V44.0954L199.263 39.352ZM197.911 36.024L195.079 40.1442L195.123 40.1747L195.168 40.2042L197.911 36.024ZM189.643 35.92L187.052 31.644L187.022 31.6618L186.993 31.68L189.643 35.92ZM187.979 39.456H182.979V44.456H187.979V39.456ZM187.979 45.02L182.981 45.1362C183.052 48.2082 184.463 50.872 187.024 52.6276L189.851 48.504L192.679 44.3804C192.659 44.3668 192.683 44.3803 192.728 44.4295C192.775 44.4804 192.829 44.5525 192.878 44.6424C192.926 44.7322 192.954 44.813 192.968 44.871C192.982 44.9268 192.979 44.9422 192.978 44.9038L187.979 45.02ZM189.851 48.504L187.159 52.7175C189.507 54.2176 192.287 54.7 194.999 54.7V49.7V44.7C193.343 44.7 192.691 44.385 192.543 44.2905L189.851 48.504ZM194.999 49.7V54.7C196.431 54.7 197.843 54.5326 199.218 54.176L197.963 49.336L196.709 44.496C196.212 44.6247 195.648 44.7 194.999 44.7V49.7ZM197.963 49.336L199.176 54.1867C200.246 53.9192 201.233 53.6348 202.111 53.3273L200.459 48.608L198.808 43.8887C198.299 44.0666 197.622 44.2674 196.751 44.4853L197.963 49.336ZM200.459 48.608L202.239 53.2804C202.585 53.1486 202.853 53.0493 203.051 52.9787C203.274 52.8992 203.33 52.8838 203.289 52.8956L201.915 48.088L200.542 43.2804C200.057 43.4188 199.37 43.6726 198.679 43.9356L200.459 48.608ZM201.915 48.088L203.386 52.8669C203.725 52.7626 203.954 52.7064 204.092 52.6789C204.158 52.6657 204.184 52.6628 204.177 52.6638C204.171 52.6644 204.106 52.672 203.995 52.672V47.672V42.672C202.739 42.672 201.463 42.9959 200.445 43.3091L201.915 48.088ZM203.995 47.672V52.672C203.862 52.672 203.502 52.6405 203.07 52.4065C202.627 52.1667 202.359 51.8497 202.233 51.6445L206.491 49.024L210.75 46.4035C209.233 43.9389 206.739 42.672 203.995 42.672V47.672ZM206.491 49.024L202.182 51.5591C202.215 51.6155 202.011 51.2978 202.011 50.688H207.011H212.011C212.011 49.0382 211.461 47.6112 210.801 46.4889L206.491 49.024ZM207.011 50.688H202.011C202.011 50.3126 202.119 49.8269 202.405 49.3735C202.67 48.9533 202.947 48.7827 202.975 48.7665L205.503 53.08L208.032 57.3935C210.278 56.0767 212.011 53.7801 212.011 50.688H207.011ZM205.503 53.08L202.793 48.8785C202.348 49.1654 201.431 49.5868 199.798 50.0025L201.031 54.848L202.265 59.6935C204.445 59.1386 206.509 58.3813 208.214 57.2815L205.503 53.08ZM201.031 54.848L199.798 50.0025C198.348 50.3717 196.688 50.576 194.791 50.576V55.576V60.576C197.402 60.576 199.902 60.295 202.265 59.6935L201.031 54.848ZM194.791 55.576V50.576C192.222 50.576 190.199 50.1954 188.616 49.572L186.783 54.224L184.951 58.876C187.944 60.0553 191.259 60.576 194.791 60.576V55.576ZM186.783 54.224L188.616 49.572C186.991 48.932 185.95 48.1333 185.263 47.2844L181.375 50.428L177.487 53.5716C179.435 55.9813 181.999 57.7133 184.951 58.876L186.783 54.224ZM181.375 50.428L185.304 47.3352C184.661 46.5179 184.307 45.6153 184.233 44.4848L179.243 44.812L174.254 45.1392C174.457 48.2381 175.525 51.0795 177.447 53.5208L181.375 50.428ZM179.243 44.812L184.236 44.5346C184.209 44.0493 184.191 43.2738 184.191 42.16H179.191H174.191C174.191 43.3342 174.209 44.3267 174.251 45.0893L179.243 44.812ZM179.191 42.16H184.191C184.191 41.0033 184.209 40.2389 184.235 39.8016L179.243 39.508L174.252 39.2144C174.208 39.9557 174.191 40.9594 174.191 42.16H179.191ZM179.243 39.508L184.242 39.6006C184.255 38.8993 184.472 38.1642 185.137 37.2964L181.167 34.256L177.198 31.2156C175.367 33.6065 174.301 36.3727 174.244 39.4154L179.243 39.508ZM181.167 34.256L185.096 37.3488C185.804 36.45 186.843 35.6161 188.398 34.9251L186.367 30.356L184.337 25.7869C181.523 27.0373 179.096 28.8033 177.239 31.1632L181.167 34.256ZM186.367 30.356L188.371 34.9368C189.873 34.2799 191.672 33.9 193.855 33.9V28.9V23.9C190.492 23.9 187.299 24.4907 184.363 25.7752L186.367 30.356ZM193.855 28.9V33.9C195.754 33.9 197.408 34.2477 198.879 34.8882L200.875 30.304L202.872 25.7198C200.044 24.4883 197.018 23.9 193.855 23.9V28.9ZM200.875 30.304L198.942 34.915C200.398 35.5257 201.353 36.2927 202.002 37.1404L205.971 34.1L209.941 31.0596C208.094 28.6487 205.651 26.885 202.809 25.693L200.875 30.304ZM205.971 34.1L202.075 37.2338C202.671 37.9745 202.895 38.6632 202.895 39.456H207.895H212.895C212.895 36.2968 211.837 33.4148 209.867 30.9662L205.971 34.1ZM207.895 39.456H202.895C202.895 39.7682 202.873 39.9841 202.85 40.1198C202.826 40.2549 202.807 40.2877 202.823 40.249C202.842 40.2057 202.896 40.096 203.009 39.9611C203.124 39.8227 203.266 39.7013 203.416 39.6096L206.023 43.876L208.631 48.1424C212.013 46.0753 212.895 42.4558 212.895 39.456H207.895ZM206.023 43.876L203.416 39.6096C203.228 39.7244 202.561 40.02 200.979 40.02V45.02V50.02C203.627 50.02 206.322 49.553 208.631 48.1424L206.023 43.876ZM200.979 45.02V40.02H187.979V45.02V50.02H200.979V45.02ZM198.015 39.456V44.456C198.527 44.456 199.748 44.4608 200.844 44.0954L199.263 39.352L197.682 34.6086C197.83 34.5594 197.953 34.5274 198.039 34.5072C198.128 34.4865 198.199 34.4735 198.246 34.4655C198.338 34.4503 198.388 34.4466 198.38 34.4473C198.376 34.4476 198.344 34.4501 198.278 34.4523C198.213 34.4544 198.126 34.456 198.015 34.456V39.456ZM199.263 39.352L200.844 44.0954C202.135 43.6652 203.223 42.7682 203.887 41.5513C204.476 40.4705 204.575 39.4305 204.575 38.78H199.575H194.575C194.575 38.4415 194.622 37.6528 195.108 36.7627C195.668 35.7364 196.599 34.9695 197.682 34.6086L199.263 39.352ZM199.575 38.78H204.575C204.575 35.6375 202.854 33.2869 200.655 31.8438L197.911 36.024L195.168 40.2042C195.242 40.2528 195.069 40.1574 194.879 39.8433C194.669 39.4957 194.575 39.104 194.575 38.78H199.575ZM197.911 36.024L200.744 31.9038C198.639 30.4568 196.228 29.88 193.803 29.88V34.88V39.88C194.637 39.88 194.965 40.0658 195.079 40.1442L197.911 36.024ZM193.803 34.88V29.88C191.46 29.88 189.132 30.3834 187.052 31.644L189.643 35.92L192.235 40.196C192.443 40.0699 192.888 39.88 193.803 39.88V34.88ZM189.643 35.92L186.993 31.68C184.729 33.0955 182.979 35.4579 182.979 38.624H187.979H192.979C192.979 38.9479 192.885 39.3603 192.654 39.7365C192.443 40.0791 192.241 40.1926 192.293 40.16L189.643 35.92ZM187.979 38.624H182.979V39.456H187.979H192.979V38.624H187.979ZM187.979 39.456V44.456H198.015V39.456V34.456H187.979V39.456Z" fill="white" mask="url(#path-2-outside-1_517_6)"/>
</svg>
