<svg width="160" height="73" viewBox="0 0 160 73" fill="none" xmlns="http://www.w3.org/2000/svg">
<path d="M128.088 26.392L119.828 35.744L128.228 47.364H123.748L117.336 38.516L114.76 41.372V47.364H111.148V26.448H114.76V35.996L123.272 26.392H128.088ZM133.078 43.92C134.226 43.92 135.038 44.732 135.038 45.88C135.038 47.056 134.226 47.868 133.078 47.868C131.902 47.868 131.09 47.056 131.09 45.88C131.09 44.732 131.902 43.92 133.078 43.92ZM156.853 26.392L148.593 35.744L156.993 47.364H152.513L146.101 38.516L143.525 41.372V47.364H139.913V26.448H143.525V35.996L152.037 26.392H156.853Z" fill="#555555"/>
<mask id="path-2-outside-1_518_8" maskUnits="userSpaceOnUse" x="-0.952148" y="10" width="95" height="52" fill="black">
<rect fill="white" x="-0.952148" y="10" width="95" height="52"/>
<path d="M13.9959 51.26C13.9959 52.6813 13.5452 53.704 12.6439 54.328C11.7425 54.952 10.7372 55.264 9.62785 55.264C9.03852 55.264 8.46652 55.1773 7.91185 55.004C7.35719 54.8653 6.85452 54.6227 6.40385 54.276C5.98785 53.964 5.64119 53.548 5.36385 53.028C5.12119 52.5427 4.99985 51.9533 4.99985 51.26V19.8C4.99985 19.1413 5.12119 18.5693 5.36385 18.084C5.64119 17.564 5.98785 17.148 6.40385 16.836C6.85452 16.4893 7.35719 16.2467 7.91185 16.108C8.46652 15.9347 9.03852 15.848 9.62785 15.848C10.7372 15.848 11.7425 16.1773 12.6439 16.836C13.5452 17.4947 13.9959 18.4827 13.9959 19.8V30.98L28.1919 17.044C28.5732 16.6627 29.0239 16.3853 29.5439 16.212C30.0985 16.004 30.6532 15.9 31.2079 15.9C31.7625 15.8653 32.2825 15.9347 32.7679 16.108C33.2879 16.2467 33.7385 16.472 34.1199 16.784C34.9172 17.4773 35.3159 18.344 35.3159 19.384C35.3505 20.424 34.9865 21.308 34.2239 22.036L21.2759 34.464L35.5239 48.556C36.5639 49.5613 37.0839 50.6533 37.0839 51.832C37.1185 53.0453 36.6505 53.9987 35.6799 54.692C34.7092 55.3853 33.6865 55.6627 32.6119 55.524C31.5372 55.42 30.6012 54.9693 29.8039 54.172L13.9959 38.416V51.26ZM39.538 51.988C39.538 50.6013 40.0233 49.5093 40.994 48.712C41.9647 47.9147 43.1953 47.516 44.686 47.516C46.1767 47.516 47.4073 47.9147 48.378 48.712C49.3833 49.5093 49.886 50.6013 49.886 51.988C49.886 53.3747 49.3833 54.4493 48.378 55.212C47.4073 56.0093 46.1767 56.408 44.686 56.408C43.1953 56.408 41.9647 56.0093 40.994 55.212C40.0233 54.4493 39.538 53.3747 39.538 51.988ZM64.9802 51.26C64.9802 52.6813 64.5296 53.704 63.6282 54.328C62.7269 54.952 61.7216 55.264 60.6122 55.264C60.0229 55.264 59.4509 55.1773 58.8962 55.004C58.3416 54.8653 57.8389 54.6227 57.3882 54.276C56.9722 53.964 56.6256 53.548 56.3482 53.028C56.1056 52.5427 55.9842 51.9533 55.9842 51.26V19.8C55.9842 19.1413 56.1056 18.5693 56.3482 18.084C56.6256 17.564 56.9722 17.148 57.3882 16.836C57.8389 16.4893 58.3416 16.2467 58.8962 16.108C59.4509 15.9347 60.0229 15.848 60.6122 15.848C61.7216 15.848 62.7269 16.1773 63.6282 16.836C64.5296 17.4947 64.9802 18.4827 64.9802 19.8V30.98L79.1762 17.044C79.5576 16.6627 80.0082 16.3853 80.5282 16.212C81.0829 16.004 81.6376 15.9 82.1922 15.9C82.7469 15.8653 83.2669 15.9347 83.7522 16.108C84.2722 16.2467 84.7229 16.472 85.1042 16.784C85.9016 17.4773 86.3002 18.344 86.3002 19.384C86.3349 20.424 85.9709 21.308 85.2082 22.036L72.2602 34.464L86.5082 48.556C87.5482 49.5613 88.0682 50.6533 88.0682 51.832C88.1029 53.0453 87.6349 53.9987 86.6642 54.692C85.6936 55.3853 84.6709 55.6627 83.5962 55.524C82.5216 55.42 81.5856 54.9693 80.7882 54.172L64.9802 38.416V51.26Z"/>
</mask>
<path d="M13.9959 51.26C13.9959 52.6813 13.5452 53.704 12.6439 54.328C11.7425 54.952 10.7372 55.264 9.62785 55.264C9.03852 55.264 8.46652 55.1773 7.91185 55.004C7.35719 54.8653 6.85452 54.6227 6.40385 54.276C5.98785 53.964 5.64119 53.548 5.36385 53.028C5.12119 52.5427 4.99985 51.9533 4.99985 51.26V19.8C4.99985 19.1413 5.12119 18.5693 5.36385 18.084C5.64119 17.564 5.98785 17.148 6.40385 16.836C6.85452 16.4893 7.35719 16.2467 7.91185 16.108C8.46652 15.9347 9.03852 15.848 9.62785 15.848C10.7372 15.848 11.7425 16.1773 12.6439 16.836C13.5452 17.4947 13.9959 18.4827 13.9959 19.8V30.98L28.1919 17.044C28.5732 16.6627 29.0239 16.3853 29.5439 16.212C30.0985 16.004 30.6532 15.9 31.2079 15.9C31.7625 15.8653 32.2825 15.9347 32.7679 16.108C33.2879 16.2467 33.7385 16.472 34.1199 16.784C34.9172 17.4773 35.3159 18.344 35.3159 19.384C35.3505 20.424 34.9865 21.308 34.2239 22.036L21.2759 34.464L35.5239 48.556C36.5639 49.5613 37.0839 50.6533 37.0839 51.832C37.1185 53.0453 36.6505 53.9987 35.6799 54.692C34.7092 55.3853 33.6865 55.6627 32.6119 55.524C31.5372 55.42 30.6012 54.9693 29.8039 54.172L13.9959 38.416V51.26ZM39.538 51.988C39.538 50.6013 40.0233 49.5093 40.994 48.712C41.9647 47.9147 43.1953 47.516 44.686 47.516C46.1767 47.516 47.4073 47.9147 48.378 48.712C49.3833 49.5093 49.886 50.6013 49.886 51.988C49.886 53.3747 49.3833 54.4493 48.378 55.212C47.4073 56.0093 46.1767 56.408 44.686 56.408C43.1953 56.408 41.9647 56.0093 40.994 55.212C40.0233 54.4493 39.538 53.3747 39.538 51.988ZM64.9802 51.26C64.9802 52.6813 64.5296 53.704 63.6282 54.328C62.7269 54.952 61.7216 55.264 60.6122 55.264C60.0229 55.264 59.4509 55.1773 58.8962 55.004C58.3416 54.8653 57.8389 54.6227 57.3882 54.276C56.9722 53.964 56.6256 53.548 56.3482 53.028C56.1056 52.5427 55.9842 51.9533 55.9842 51.26V19.8C55.9842 19.1413 56.1056 18.5693 56.3482 18.084C56.6256 17.564 56.9722 17.148 57.3882 16.836C57.8389 16.4893 58.3416 16.2467 58.8962 16.108C59.4509 15.9347 60.0229 15.848 60.6122 15.848C61.7216 15.848 62.7269 16.1773 63.6282 16.836C64.5296 17.4947 64.9802 18.4827 64.9802 19.8V30.98L79.1762 17.044C79.5576 16.6627 80.0082 16.3853 80.5282 16.212C81.0829 16.004 81.6376 15.9 82.1922 15.9C82.7469 15.8653 83.2669 15.9347 83.7522 16.108C84.2722 16.2467 84.7229 16.472 85.1042 16.784C85.9016 17.4773 86.3002 18.344 86.3002 19.384C86.3349 20.424 85.9709 21.308 85.2082 22.036L72.2602 34.464L86.5082 48.556C87.5482 49.5613 88.0682 50.6533 88.0682 51.832C88.1029 53.0453 87.6349 53.9987 86.6642 54.692C85.6936 55.3853 84.6709 55.6627 83.5962 55.524C82.5216 55.42 81.5856 54.9693 80.7882 54.172L64.9802 38.416V51.26Z" fill="#19C8B9"/>
<path d="M12.6439 54.328L9.7978 50.217L9.7978 50.217L12.6439 54.328ZM7.91185 55.004L9.40322 50.2316L9.26501 50.1884L9.12453 50.1533L7.91185 55.004ZM6.40385 54.276L9.45241 50.3129L9.42824 50.2943L9.40385 50.276L6.40385 54.276ZM5.36385 53.028L0.891716 55.2641L0.921133 55.3229L0.952087 55.3809L5.36385 53.028ZM5.36385 18.084L0.952088 15.7311L0.921133 15.7891L0.891716 15.8479L5.36385 18.084ZM6.40385 16.836L9.40385 20.836L9.42825 20.8177L9.45242 20.7991L6.40385 16.836ZM7.91185 16.108L9.12452 20.9587L9.26501 20.9236L9.40324 20.8804L7.91185 16.108ZM12.6439 16.836L9.69376 20.873L9.69377 20.873L12.6439 16.836ZM13.9959 30.98H8.99585V42.895L17.4986 34.5481L13.9959 30.98ZM28.1919 17.044L31.6946 20.6121L31.711 20.5959L31.7274 20.5795L28.1919 17.044ZM29.5439 16.212L31.125 20.9554L31.2128 20.9261L31.2995 20.8936L29.5439 16.212ZM31.2079 15.9V20.9H31.364L31.5198 20.8903L31.2079 15.9ZM32.7679 16.108L31.0862 20.8167L31.2803 20.8861L31.4796 20.9392L32.7679 16.108ZM34.1199 16.784L37.4007 13.011L37.3441 12.9617L37.286 12.9142L34.1199 16.784ZM35.3159 19.384H30.3159V19.4673L30.3186 19.5506L35.3159 19.384ZM34.2239 22.036L30.7715 18.4192L30.7615 18.4288L34.2239 22.036ZM21.2759 34.464L17.8135 30.8568L14.1113 34.4103L17.7598 38.0189L21.2759 34.464ZM35.5239 48.556L32.0078 52.1109L32.0282 52.1311L32.0487 52.1509L35.5239 48.556ZM37.0839 51.832H32.0839V51.9034L32.0859 51.9748L37.0839 51.832ZM35.6799 54.692L32.7737 50.6233V50.6233L35.6799 54.692ZM32.6119 55.524L33.2517 50.5651L33.1727 50.5549L33.0935 50.5472L32.6119 55.524ZM29.8039 54.172L33.3394 50.6365L33.3336 50.6306L29.8039 54.172ZM13.9959 38.416L17.5256 34.8746L8.99585 26.373V38.416H13.9959ZM13.9959 51.26H8.99585C8.99585 51.4582 8.96272 51.3483 9.08242 51.0767C9.14409 50.9368 9.23766 50.7748 9.37101 50.6124C9.50478 50.4495 9.653 50.3173 9.7978 50.217L12.6439 54.328L15.4899 58.439C18.131 56.6105 18.9959 53.7813 18.9959 51.26H13.9959ZM12.6439 54.328L9.7978 50.217C9.77044 50.236 9.75294 50.2453 9.74499 50.2492C9.73723 50.253 9.73346 50.2542 9.73186 50.2547C9.73022 50.2552 9.72403 50.2571 9.71055 50.259C9.6968 50.2611 9.67015 50.264 9.62785 50.264V55.264V60.264C11.7412 60.264 13.7418 59.6492 15.4899 58.439L12.6439 54.328ZM9.62785 55.264V50.264C9.53704 50.264 9.46827 50.2519 9.40322 50.2316L7.91185 55.004L6.42048 59.7764C7.46477 60.1027 8.53999 60.264 9.62785 60.264V55.264ZM7.91185 55.004L9.12453 50.1533C9.17053 50.1648 9.2289 50.1845 9.2926 50.2152C9.35636 50.246 9.41054 50.2807 9.45241 50.3129L6.40385 54.276L3.3553 58.2391C4.35356 59.007 5.48189 59.5504 6.69917 59.8547L7.91185 55.004ZM6.40385 54.276L9.40385 50.276C9.64681 50.4582 9.75459 50.6356 9.77562 50.6751L5.36385 53.028L0.952087 55.3809C1.52778 56.4604 2.3289 57.4698 3.40385 58.276L6.40385 54.276ZM5.36385 53.028L9.83599 50.7919C10.0232 51.1664 9.99985 51.3862 9.99985 51.26H4.99985H-0.000148177C-0.000148177 52.5204 0.219137 53.9189 0.891716 55.2641L5.36385 53.028ZM4.99985 51.26H9.99985V19.8H4.99985H-0.000148177V51.26H4.99985ZM4.99985 19.8H9.99985C9.99985 19.7538 10.0069 19.9782 9.83599 20.3201L5.36385 18.084L0.891716 15.8479C0.235442 17.1605 -0.000148177 18.5288 -0.000148177 19.8H4.99985ZM5.36385 18.084L9.77562 20.4369C9.75459 20.4764 9.64681 20.6538 9.40385 20.836L6.40385 16.836L3.40385 12.836C2.3289 13.6422 1.52778 14.6516 0.952088 15.7311L5.36385 18.084ZM6.40385 16.836L9.45242 20.7991C9.41055 20.8313 9.35637 20.866 9.2926 20.8968C9.2289 20.9275 9.17052 20.9472 9.12452 20.9587L7.91185 16.108L6.69919 11.2573C5.4819 11.5616 4.35356 12.105 3.35529 12.8729L6.40385 16.836ZM7.91185 16.108L9.40324 20.8804C9.46828 20.8601 9.53705 20.848 9.62785 20.848V15.848V10.848C8.53999 10.848 7.46475 11.0093 6.42046 11.3356L7.91185 16.108ZM9.62785 15.848V20.848C9.65697 20.848 9.67029 20.8501 9.67094 20.8502C9.6713 20.8502 9.66576 20.8493 9.65731 20.8465C9.64888 20.8438 9.64517 20.8417 9.64794 20.8431C9.65099 20.8447 9.66627 20.8529 9.69376 20.873L12.6439 16.836L15.5939 12.799C13.8421 11.5189 11.805 10.848 9.62785 10.848V15.848ZM12.6439 16.836L9.69377 20.873C9.47224 20.7111 9.24961 20.4548 9.10876 20.146C8.98058 19.865 8.99585 19.7077 8.99585 19.8H13.9959H18.9959C18.9959 17.2132 18.0261 14.5764 15.5939 12.799L12.6439 16.836ZM13.9959 19.8H8.99585V30.98H13.9959H18.9959V19.8H13.9959ZM13.9959 30.98L17.4986 34.5481L31.6946 20.6121L28.1919 17.044L24.6891 13.4759L10.4931 27.4119L13.9959 30.98ZM28.1919 17.044L31.7274 20.5795C31.6476 20.6593 31.5495 20.7387 31.4363 20.8083C31.3235 20.8778 31.2158 20.9251 31.125 20.9554L29.5439 16.212L27.9627 11.4686C26.7188 11.8832 25.5958 12.569 24.6563 13.5085L28.1919 17.044ZM29.5439 16.212L31.2995 20.8936C31.3194 20.8862 31.3179 20.8885 31.2973 20.8924C31.2761 20.8963 31.245 20.9 31.2079 20.9V15.9V10.9C30.0139 10.9 28.8658 11.1263 27.7882 11.5304L29.5439 16.212ZM31.2079 15.9L31.5198 20.8903C31.4916 20.892 31.4338 20.8929 31.353 20.8821C31.2713 20.8712 31.18 20.8502 31.0862 20.8167L32.7679 16.108L34.4496 11.3993C33.2769 10.9805 32.0737 10.8361 30.8959 10.9097L31.2079 15.9ZM32.7679 16.108L31.4796 20.9392C31.3764 20.9117 31.1719 20.8324 30.9537 20.6538L34.1199 16.784L37.286 12.9142C36.3051 12.1116 35.1993 11.5816 34.0562 11.2768L32.7679 16.108ZM34.1199 16.784L30.839 20.557C30.7605 20.4888 30.6019 20.3208 30.4744 20.0435C30.3459 19.7642 30.3159 19.5195 30.3159 19.384H35.3159H40.3159C40.3159 16.8704 39.2701 14.6365 37.4007 13.011L34.1199 16.784ZM35.3159 19.384L30.3186 19.5506C30.3144 19.4252 30.3343 19.1933 30.4455 18.9232C30.556 18.6549 30.6994 18.488 30.7715 18.4192L34.2239 22.036L37.6762 25.6528C39.4536 23.9562 40.3959 21.7024 40.3131 19.2174L35.3159 19.384ZM34.2239 22.036L30.7615 18.4288L17.8135 30.8568L21.2759 34.464L24.7382 38.0712L37.6862 25.6432L34.2239 22.036ZM21.2759 34.464L17.7598 38.0189L32.0078 52.1109L35.5239 48.556L39.0399 45.0011L24.7919 30.9091L21.2759 34.464ZM35.5239 48.556L32.0487 52.1509C32.2208 52.3173 32.2216 52.367 32.1796 52.2787C32.1583 52.234 32.1323 52.1666 32.1125 52.0804C32.0927 51.9937 32.0839 51.9084 32.0839 51.832H37.0839H42.0839C42.0839 49.0008 40.777 46.6798 38.999 44.9611L35.5239 48.556ZM37.0839 51.832L32.0859 51.9748C32.0834 51.8866 32.0984 51.6043 32.2705 51.2536C32.4444 50.8994 32.6696 50.6977 32.7737 50.6233L35.6799 54.692L38.586 58.7607C40.9402 57.0791 42.163 54.5319 42.0818 51.6892L37.0839 51.832ZM35.6799 54.692L32.7737 50.6233C32.7114 50.6678 32.7469 50.6294 32.8762 50.5943C33.0138 50.557 33.1522 50.5523 33.2517 50.5651L32.6119 55.524L31.972 60.4829C34.4294 60.8 36.7006 60.1074 38.586 58.7607L35.6799 54.692ZM32.6119 55.524L33.0935 50.5472C33.1014 50.548 33.1256 50.5511 33.1615 50.561C33.1977 50.571 33.2361 50.5852 33.2729 50.603C33.3533 50.6417 33.3743 50.6714 33.3394 50.6365L29.8039 54.172L26.2683 57.7075C27.8463 59.2855 29.847 60.2798 32.1302 60.5008L32.6119 55.524ZM29.8039 54.172L33.3336 50.6306L17.5256 34.8746L13.9959 38.416L10.4661 41.9574L26.2741 57.7134L29.8039 54.172ZM13.9959 38.416H8.99585V51.26H13.9959H18.9959V38.416H13.9959ZM40.994 48.712L37.8203 44.8484L40.994 48.712ZM48.378 48.712L45.2043 52.5756L45.2374 52.6028L45.271 52.6295L48.378 48.712ZM48.378 55.212L45.3561 51.2285L45.279 51.287L45.2043 51.3484L48.378 55.212ZM40.994 55.212L44.1677 51.3484L44.1258 51.3139L44.0831 51.2804L40.994 55.212ZM39.538 51.988H44.538C44.538 51.8829 44.5545 51.9719 44.4711 52.1597C44.4312 52.2494 44.3787 52.3378 44.3174 52.4173C44.2568 52.496 44.2016 52.5478 44.1677 52.5756L40.994 48.712L37.8203 44.8484C35.5638 46.702 34.538 49.2814 34.538 51.988H39.538ZM40.994 48.712L44.1677 52.5756C44.1677 52.5756 44.1673 52.5759 44.1666 52.5765C44.1658 52.5771 44.1648 52.5778 44.1637 52.5785C44.1612 52.5802 44.1591 52.5815 44.1577 52.5822C44.154 52.5842 44.1613 52.5796 44.1859 52.5716C44.2343 52.556 44.3858 52.516 44.686 52.516V47.516V42.516C42.2634 42.516 39.8455 43.1848 37.8203 44.8484L40.994 48.712ZM44.686 47.516V52.516C44.9862 52.516 45.1377 52.556 45.1861 52.5716C45.2107 52.5796 45.2181 52.5842 45.2143 52.5822C45.213 52.5815 45.2108 52.5802 45.2083 52.5785C45.2072 52.5778 45.2062 52.5771 45.2054 52.5765C45.2047 52.5759 45.2043 52.5756 45.2043 52.5756L48.378 48.712L51.5517 44.8484C49.5265 43.1848 47.1086 42.516 44.686 42.516V47.516ZM48.378 48.712L45.271 52.6295C45.2442 52.6082 45.1913 52.5613 45.1299 52.4844C45.0677 52.4063 45.0114 52.3159 44.9671 52.2197C44.8736 52.0167 44.886 51.9061 44.886 51.988H49.886H54.886C54.886 49.2164 53.7928 46.6248 51.485 44.7945L48.378 48.712ZM49.886 51.988H44.886C44.886 52.072 44.873 51.9442 44.98 51.7156C45.0941 51.4716 45.2548 51.3054 45.3561 51.2285L48.378 55.212L51.3999 59.1955C53.7868 57.3847 54.886 54.7606 54.886 51.988H49.886ZM48.378 55.212L45.2043 51.3484C45.2043 51.3484 45.2047 51.3481 45.2054 51.3475C45.2062 51.3469 45.2072 51.3462 45.2083 51.3455C45.2108 51.3438 45.213 51.3425 45.2143 51.3418C45.2181 51.3398 45.2107 51.3444 45.1861 51.3524C45.1377 51.368 44.9862 51.408 44.686 51.408V56.408V61.408C47.1086 61.408 49.5265 60.7392 51.5517 59.0756L48.378 55.212ZM44.686 56.408V51.408C44.3858 51.408 44.2343 51.368 44.1859 51.3524C44.1613 51.3444 44.154 51.3398 44.1577 51.3418C44.1591 51.3425 44.1612 51.3438 44.1637 51.3455C44.1648 51.3462 44.1658 51.3469 44.1666 51.3475C44.1673 51.3481 44.1677 51.3484 44.1677 51.3484L40.994 55.212L37.8203 59.0756C39.8455 60.7392 42.2634 61.408 44.686 61.408V56.408ZM40.994 55.212L44.0831 51.2804C44.1321 51.3189 44.2019 51.383 44.2757 51.4761C44.3502 51.57 44.4123 51.673 44.4589 51.7761C44.5552 51.9893 44.538 52.0952 44.538 51.988H39.538H34.538C34.538 54.6938 35.5681 57.3075 37.9049 59.1436L40.994 55.212ZM63.6282 54.328L60.7822 50.217V50.217L63.6282 54.328ZM58.8962 55.004L60.3876 50.2316L60.2494 50.1884L60.1089 50.1533L58.8962 55.004ZM57.3882 54.276L60.4368 50.3129L60.4126 50.2943L60.3882 50.276L57.3882 54.276ZM56.3482 53.028L51.8761 55.2641L51.9055 55.3229L51.9365 55.3809L56.3482 53.028ZM56.3482 18.084L51.9365 15.7311L51.9055 15.7891L51.8761 15.8479L56.3482 18.084ZM57.3882 16.836L60.3882 20.836L60.4126 20.8177L60.4368 20.7991L57.3882 16.836ZM58.8962 16.108L60.1089 20.9587L60.2494 20.9236L60.3876 20.8804L58.8962 16.108ZM63.6282 16.836L60.6781 20.873L60.6781 20.873L63.6282 16.836ZM64.9802 30.98H59.9802V42.895L68.4829 34.5481L64.9802 30.98ZM79.1762 17.044L82.6789 20.6121L82.6954 20.5959L82.7118 20.5795L79.1762 17.044ZM80.5282 16.212L82.1094 20.9554L82.1972 20.9261L82.2838 20.8936L80.5282 16.212ZM82.1922 15.9V20.9H82.3483L82.5041 20.8903L82.1922 15.9ZM83.7522 16.108L82.0705 20.8167L82.2647 20.8861L82.4639 20.9392L83.7522 16.108ZM85.1042 16.784L88.3851 13.011L88.3285 12.9617L88.2704 12.9142L85.1042 16.784ZM86.3002 19.384H81.3002V19.4673L81.303 19.5506L86.3002 19.384ZM85.2082 22.036L81.7558 18.4192L81.7459 18.4288L85.2082 22.036ZM72.2602 34.464L68.7979 30.8568L65.0956 34.4103L68.7442 38.0189L72.2602 34.464ZM86.5082 48.556L82.9922 52.1109L83.0126 52.1311L83.0331 52.1509L86.5082 48.556ZM88.0682 51.832H83.0682V51.9034L83.0703 51.9748L88.0682 51.832ZM86.6642 54.692L83.758 50.6233V50.6233L86.6642 54.692ZM83.5962 55.524L84.2361 50.5651L84.1571 50.5549L84.0779 50.5472L83.5962 55.524ZM80.7882 54.172L84.3238 50.6365L84.3179 50.6306L80.7882 54.172ZM64.9802 38.416L68.5099 34.8746L59.9802 26.373V38.416H64.9802ZM64.9802 51.26H59.9802C59.9802 51.4582 59.9471 51.3483 60.0668 51.0767C60.1285 50.9368 60.222 50.7748 60.3554 50.6124C60.4892 50.4495 60.6374 50.3173 60.7822 50.217L63.6282 54.328L66.4743 58.439C69.1154 56.6105 69.9802 53.7813 69.9802 51.26H64.9802ZM63.6282 54.328L60.7822 50.217C60.7548 50.236 60.7373 50.2453 60.7294 50.2492C60.7216 50.253 60.7178 50.2542 60.7162 50.2547C60.7146 50.2552 60.7084 50.2571 60.6949 50.259C60.6812 50.2611 60.6545 50.264 60.6122 50.264V55.264V60.264C62.7256 60.264 64.7262 59.6492 66.4743 58.439L63.6282 54.328ZM60.6122 55.264V50.264C60.5214 50.264 60.4526 50.2519 60.3876 50.2316L58.8962 55.004L57.4049 59.7764C58.4491 60.1027 59.5244 60.264 60.6122 60.264V55.264ZM58.8962 55.004L60.1089 50.1533C60.1549 50.1648 60.2133 50.1845 60.277 50.2152C60.3407 50.246 60.3949 50.2807 60.4368 50.3129L57.3882 54.276L54.3397 58.2391C55.3379 59.007 56.4663 59.5504 57.6835 59.8547L58.8962 55.004ZM57.3882 54.276L60.3882 50.276C60.6312 50.4582 60.739 50.6356 60.76 50.6751L56.3482 53.028L51.9365 55.3809C52.5122 56.4604 53.3133 57.4698 54.3882 58.276L57.3882 54.276ZM56.3482 53.028L60.8204 50.7919C61.0076 51.1664 60.9842 51.3862 60.9842 51.26H55.9842H50.9842C50.9842 52.5204 51.2035 53.9189 51.8761 55.2641L56.3482 53.028ZM55.9842 51.26H60.9842V19.8H55.9842H50.9842V51.26H55.9842ZM55.9842 19.8H60.9842C60.9842 19.7538 60.9913 19.9782 60.8204 20.3201L56.3482 18.084L51.8761 15.8479C51.2198 17.1605 50.9842 18.5288 50.9842 19.8H55.9842ZM56.3482 18.084L60.76 20.4369C60.739 20.4764 60.6312 20.6538 60.3882 20.836L57.3882 16.836L54.3882 12.836C53.3133 13.6422 52.5122 14.6516 51.9365 15.7311L56.3482 18.084ZM57.3882 16.836L60.4368 20.7991C60.3949 20.8313 60.3407 20.866 60.277 20.8968C60.2133 20.9275 60.1549 20.9472 60.1089 20.9587L58.8962 16.108L57.6836 11.2573C56.4663 11.5616 55.3379 12.105 54.3397 12.8729L57.3882 16.836ZM58.8962 16.108L60.3876 20.8804C60.4527 20.8601 60.5214 20.848 60.6122 20.848V15.848V10.848C59.5244 10.848 58.4491 11.0093 57.4048 11.3356L58.8962 16.108ZM60.6122 15.848V20.848C60.6413 20.848 60.6547 20.8501 60.6553 20.8502C60.6557 20.8502 60.6501 20.8493 60.6417 20.8465C60.6333 20.8438 60.6295 20.8417 60.6323 20.8431C60.6354 20.8447 60.6506 20.8529 60.6781 20.873L63.6282 16.836L66.5783 12.799C64.8265 11.5189 62.7894 10.848 60.6122 10.848V15.848ZM63.6282 16.836L60.6781 20.873C60.4566 20.7111 60.234 20.4548 60.0931 20.146C59.965 19.865 59.9802 19.7077 59.9802 19.8H64.9802H69.9802C69.9802 17.2132 69.0105 14.5764 66.5783 12.799L63.6282 16.836ZM64.9802 19.8H59.9802V30.98H64.9802H69.9802V19.8H64.9802ZM64.9802 30.98L68.4829 34.5481L82.6789 20.6121L79.1762 17.044L75.6735 13.4759L61.4775 27.4119L64.9802 30.98ZM79.1762 17.044L82.7118 20.5795C82.6319 20.6593 82.5339 20.7387 82.4207 20.8083C82.3078 20.8778 82.2002 20.9251 82.1094 20.9554L80.5282 16.212L78.9471 11.4686C77.7032 11.8832 76.5802 12.569 75.6407 13.5085L79.1762 17.044ZM80.5282 16.212L82.2838 20.8936C82.3037 20.8862 82.3023 20.8885 82.2817 20.8924C82.2605 20.8963 82.2294 20.9 82.1922 20.9V15.9V10.9C80.9983 10.9 79.8502 11.1263 78.7726 11.5304L80.5282 16.212ZM82.1922 15.9L82.5041 20.8903C82.476 20.892 82.4182 20.8929 82.3374 20.8821C82.2556 20.8712 82.1644 20.8502 82.0705 20.8167L83.7522 16.108L85.4339 11.3993C84.2613 10.9805 83.0581 10.8361 81.8803 10.9097L82.1922 15.9ZM83.7522 16.108L82.4639 20.9392C82.3608 20.9117 82.1563 20.8324 81.938 20.6538L85.1042 16.784L88.2704 12.9142C87.2895 12.1116 86.1836 11.5816 85.0405 11.2768L83.7522 16.108ZM85.1042 16.784L81.8233 20.557C81.7448 20.4888 81.5863 20.3208 81.4588 20.0435C81.3303 19.7642 81.3002 19.5195 81.3002 19.384H86.3002H91.3002C91.3002 16.8704 90.2545 14.6365 88.3851 13.011L85.1042 16.784ZM86.3002 19.384L81.303 19.5506C81.2988 19.4252 81.3186 19.1933 81.4298 18.9232C81.5404 18.6549 81.6837 18.488 81.7559 18.4192L85.2082 22.036L88.6606 25.6528C90.438 23.9562 91.3803 21.7024 91.2975 19.2174L86.3002 19.384ZM85.2082 22.036L81.7459 18.4288L68.7979 30.8568L72.2602 34.464L75.7226 38.0712L88.6706 25.6432L85.2082 22.036ZM72.2602 34.464L68.7442 38.0189L82.9922 52.1109L86.5082 48.556L90.0242 45.0011L75.7762 30.9091L72.2602 34.464ZM86.5082 48.556L83.0331 52.1509C83.2052 52.3173 83.206 52.367 83.1639 52.2787C83.1427 52.234 83.1166 52.1666 83.0969 52.0804C83.077 51.9937 83.0682 51.9084 83.0682 51.832H88.0682H93.0682C93.0682 49.0008 91.7613 46.6798 89.9833 44.9611L86.5082 48.556ZM88.0682 51.832L83.0703 51.9748C83.0677 51.8866 83.0827 51.6043 83.2549 51.2536C83.4288 50.8994 83.654 50.6977 83.758 50.6233L86.6642 54.692L89.5704 58.7607C91.9246 57.0791 93.1474 54.5319 93.0662 51.6892L88.0682 51.832ZM86.6642 54.692L83.758 50.6233C83.6957 50.6678 83.7312 50.6294 83.8606 50.5943C83.9982 50.557 84.1366 50.5523 84.2361 50.5651L83.5962 55.524L82.9564 60.4829C85.4138 60.8 87.685 60.1074 89.5704 58.7607L86.6642 54.692ZM83.5962 55.524L84.0779 50.5472C84.0858 50.548 84.11 50.5511 84.1459 50.561C84.1821 50.571 84.2204 50.5852 84.2573 50.603C84.3376 50.6417 84.3587 50.6714 84.3238 50.6365L80.7882 54.172L77.2527 57.7075C78.8306 59.2855 80.8313 60.2798 83.1146 60.5008L83.5962 55.524ZM80.7882 54.172L84.3179 50.6306L68.5099 34.8746L64.9802 38.416L61.4505 41.9574L77.2585 57.7134L80.7882 54.172ZM64.9802 38.416H59.9802V51.26H64.9802H69.9802V38.416H64.9802Z" fill="white" mask="url(#path-2-outside-1_518_8)"/>
</svg>
