<svg width="203" height="57" viewBox="0 0 203 57" fill="none" xmlns="http://www.w3.org/2000/svg">
<path d="M178.735 2.5C181.709 2.50001 184.699 2.68524 187.707 3.05469L188.815 3.18262C191.369 3.49282 193.697 3.88462 195.791 4.3623L198.195 4.91113L197.68 7.32324L195.46 17.7031L194.936 20.1553L192.485 19.623C183.973 17.776 178.446 16.9199 175.675 16.9199C175.165 16.9199 174.782 16.9505 174.508 16.9941C174.403 17.0109 174.324 17.0286 174.268 17.043C174.276 17.0534 174.285 17.0643 174.294 17.0752C174.653 17.497 175.295 18.0599 176.328 18.75C178.297 20.025 181.807 21.4821 187.075 23.0664C190.894 24.1687 194.05 26.0007 196.381 28.6572H196.382C198.699 31.2579 199.955 34.2544 199.955 37.5801C199.955 40.6439 198.816 43.4646 196.756 45.9941C194.685 48.5466 191.714 50.4838 188.04 51.9102L188.001 51.9258C184.313 53.2867 180.171 53.9404 175.615 53.9404C171.621 53.9404 167.577 53.4776 163.487 52.5596L163.464 52.5537C159.43 51.6069 155.788 50.4449 152.551 49.0576L150.016 47.9717L151.345 45.5557L157.284 34.7549L158.454 32.6289L160.614 33.7344C167.234 37.1224 172.708 38.6797 177.115 38.6797C179.1 38.6797 180.504 38.3654 181.483 37.8926C181.049 37.6204 180.431 37.3015 179.583 36.9521C176.985 35.8822 173.767 34.8124 169.911 33.75L169.889 33.7441L169.867 33.7373C167.779 33.1204 165.525 31.9581 163.128 30.3604C160.652 28.7094 158.487 26.7655 156.646 24.5293L156.636 24.5176L156.627 24.5068C154.716 22.13 153.615 19.5136 153.615 16.7002C153.615 13.2917 155.385 10.4028 158.247 8.04883H158.248C162.943 4.19084 169.938 2.5 178.735 2.5ZM103.407 5.37012L107.067 27.3799L111.906 17.7383L112.614 16.3291L114.19 16.3604L120.25 16.4805L121.931 16.5137L122.534 18.082L125.649 26.1748L131.414 5.64453L131.924 3.82812L133.81 3.82031L147.55 3.75977L151.085 3.74414L149.922 7.08301L134.802 50.4629L134.224 52.1201L132.469 52.1396L121.549 52.2598L119.849 52.2783L119.206 50.7051L116.527 44.1436L114.493 50.8467L113.955 52.6201H96.5361L96.0576 50.7354L85.1377 7.71484L84.4229 4.89746L87.3154 4.6123L100.695 3.29199L103.023 3.0625L103.407 5.37012ZM41.6328 3.40039L41.6992 5.83203L42.8994 49.752L42.9697 52.3203H26.043L25.3633 50.8965L19.6709 38.9619L20.2764 49.6797L20.4248 52.3203H2.5V4.55078L5.10742 4.66211L19.0869 5.2627L20.7217 5.33203L21.3115 6.8584L25.3604 17.335V3.40039H41.6328ZM81.6279 4.17969V19.7998H62.7285V21.2197H80.3086V35.46H62.7285V35.6201H84.0879V52.3203H46.3281V4.17969H81.6279Z" fill="white" stroke="#7D6849" stroke-width="5"/>
</svg>
