<svg width="208" height="73" viewBox="0 0 208 73" fill="none" xmlns="http://www.w3.org/2000/svg">
<path d="M165.776 25.888C168.016 25.888 169.92 27.12 171.068 29.304H176.332V24.152H180.028V49.436H176.332V40.084H171.292C170.172 42.548 168.184 43.976 165.776 43.976C162.024 43.976 159.252 40.476 159.252 34.904C159.252 29.388 162.024 25.888 165.776 25.888ZM165.776 29.304C164.012 29.304 162.78 31.236 162.78 34.904C162.78 38.628 164.012 40.588 165.776 40.588C167.596 40.588 168.8 38.628 168.8 34.904C168.8 31.236 167.596 29.304 165.776 29.304ZM172.076 32.3C172.216 33.112 172.3 33.98 172.3 34.904C172.3 35.66 172.244 36.388 172.16 37.088H176.332V32.3H172.076ZM183.361 35.996H206.125V38.936H196.577V41.092H203.381V49.408H199.685V44.004H185.881V41.092H192.825V38.936H183.361V35.996ZM194.757 24.684C200.301 24.684 203.913 26.588 203.913 29.668C203.913 32.804 200.301 34.68 194.757 34.68C189.213 34.68 185.601 32.804 185.601 29.668C185.601 26.588 189.213 24.684 194.757 24.684ZM194.757 27.568C191.341 27.568 189.437 28.268 189.437 29.668C189.437 31.124 191.341 31.796 194.757 31.796C198.145 31.796 200.049 31.124 200.049 29.668C200.049 28.268 198.145 27.568 194.757 27.568Z" fill="#555555"/>
<mask id="path-2-outside-1_518_16" maskUnits="userSpaceOnUse" x="-0.952148" y="10" width="141" height="51" fill="black">
<rect fill="white" x="-0.952148" y="10" width="141" height="51"/>
<path d="M13.9439 51.26C13.9439 51.9533 13.8052 52.5427 13.5279 53.028C13.2505 53.548 12.9039 53.964 12.4879 54.276C12.0719 54.6227 11.6039 54.8653 11.0839 55.004C10.5639 55.1773 10.0439 55.264 9.52385 55.264C9.00385 55.264 8.46652 55.1773 7.91185 55.004C7.39185 54.8653 6.90652 54.6227 6.45585 54.276C6.03985 53.964 5.69319 53.548 5.41585 53.028C5.13852 52.5427 4.99985 51.9533 4.99985 51.26V18.812C4.99985 17.8067 5.27719 17.0613 5.83185 16.576C6.42119 16.0907 7.16652 15.848 8.06785 15.848H19.7159C21.7265 15.848 23.6332 16.0213 25.4359 16.368C27.2732 16.7147 28.8852 17.3213 30.2719 18.188C31.6585 19.0547 32.7505 20.1987 33.5479 21.62C34.3799 23.0413 34.7959 24.844 34.7959 27.028C34.7959 28.484 34.5879 29.8013 34.1719 30.98C33.7559 32.1587 33.1839 33.1987 32.4559 34.1C31.7279 35.0013 30.8785 35.7813 29.9079 36.44C28.9372 37.0987 27.9145 37.6013 26.8399 37.948L33.5999 49.024C34.2585 50.0293 34.5185 51.0693 34.3799 52.144C34.2412 53.2187 33.6172 54.068 32.5079 54.692C31.8839 55.0387 31.2599 55.2293 30.6359 55.264C30.0465 55.3333 29.4919 55.2813 28.9719 55.108C28.4865 54.9347 28.0359 54.6747 27.6199 54.328C27.2039 53.9813 26.8572 53.5827 26.5799 53.132L18.1039 38.936H13.9439V51.26ZM19.5079 32.696C21.4492 32.696 23.0092 32.3147 24.1879 31.552C25.3665 30.7893 25.9559 29.4373 25.9559 27.496C25.9559 25.52 25.3665 24.1507 24.1879 23.388C23.0439 22.6253 21.4839 22.244 19.5079 22.244H13.9439V32.696H19.5079ZM47.0106 45.02C47.0452 46.5107 47.6692 47.672 48.8826 48.504C50.1306 49.3013 51.8466 49.7 54.0306 49.7C55.0706 49.7 56.0586 49.5787 56.9946 49.336C57.9652 49.0933 58.7972 48.8507 59.4906 48.608C60.2186 48.3307 60.7039 48.1573 60.9466 48.088C61.8479 47.8107 62.5412 47.672 63.0266 47.672C64.1359 47.672 64.9679 48.1227 65.5226 49.024C65.8692 49.6133 66.0426 50.168 66.0426 50.688C66.0426 51.6933 65.5399 52.4907 64.5346 53.08C63.4599 53.7733 61.9692 54.3627 60.0626 54.848C58.1559 55.3333 56.0759 55.576 53.8226 55.576C50.7719 55.576 48.1026 55.1253 45.8146 54.224C43.5266 53.3227 41.7239 52.0573 40.4066 50.428C39.1239 48.7987 38.4132 46.9267 38.2746 44.812C38.2399 44.188 38.2226 43.304 38.2226 42.16C38.2226 40.9813 38.2399 40.0973 38.2746 39.508C38.3092 37.636 38.9506 35.8853 40.1986 34.256C41.4812 32.6267 43.2146 31.3267 45.3986 30.356C47.6172 29.3853 50.1132 28.9 52.8866 28.9C55.4172 28.9 57.7572 29.368 59.9066 30.304C62.0559 31.2053 63.7546 32.4707 65.0026 34.1C66.2852 35.6947 66.9266 37.48 66.9266 39.456C66.9266 41.64 66.3026 43.1133 65.0546 43.876C63.8066 44.6387 62.1252 45.02 60.0106 45.02H47.0106ZM57.0466 39.456C57.6706 39.456 58.0866 39.4213 58.2946 39.352C58.5026 39.2827 58.6066 39.092 58.6066 38.78C58.6066 37.6707 58.0519 36.752 56.9426 36.024C55.8332 35.2613 54.4639 34.88 52.8346 34.88C51.2052 34.88 49.8186 35.2267 48.6746 35.92C47.5652 36.6133 47.0106 37.5147 47.0106 38.624V39.456H57.0466ZM85.4313 29.004C87.3726 29.004 89.3139 29.368 91.2553 30.096V18.968C91.2553 17.72 91.6713 16.784 92.5033 16.16C93.3353 15.5013 94.3579 15.172 95.5713 15.172C96.8193 15.172 97.8766 15.5013 98.7433 16.16C99.6099 16.784 100.043 17.72 100.043 18.968V51.78C100.043 52.8893 99.6446 53.7387 98.8473 54.328C98.0846 54.952 97.0446 55.264 95.7273 55.264C94.7219 55.264 93.8899 55.108 93.2313 54.796C92.5726 54.5187 92.0353 54.0333 91.6193 53.34C89.8513 54.8307 87.7886 55.576 85.4313 55.576C82.6233 55.576 80.1446 55.1253 77.9953 54.224C75.8806 53.3573 74.2166 52.1093 73.0033 50.48C71.7899 48.8507 71.1659 46.9613 71.1313 44.812C71.0966 44.084 71.0793 43.0787 71.0793 41.796C71.0793 40.8947 71.0966 40.2187 71.1313 39.768C71.3739 36.336 72.7953 33.684 75.3953 31.812C78.0299 29.94 81.3753 29.004 85.4313 29.004ZM79.9193 44.864C80.0926 46.2853 80.6646 47.3947 81.6353 48.192C82.6406 48.9893 83.9059 49.388 85.4313 49.388C87.0606 49.388 88.3779 48.9893 89.3833 48.192C90.4233 47.3947 91.0126 46.2853 91.1513 44.864C91.2553 43.928 91.3073 43.044 91.3073 42.212C91.3073 41.3453 91.2553 40.496 91.1513 39.664C90.9779 38.2773 90.3886 37.2027 89.3833 36.44C88.3779 35.6773 87.0606 35.296 85.4313 35.296C82.1379 35.296 80.3006 36.596 79.9193 39.196C79.8153 40.2707 79.7633 41.2933 79.7633 42.264C79.7633 43.1653 79.8153 44.032 79.9193 44.864ZM120.013 29.004C121.955 29.004 123.896 29.368 125.837 30.096V18.968C125.837 17.72 126.253 16.784 127.085 16.16C127.917 15.5013 128.94 15.172 130.153 15.172C131.401 15.172 132.459 15.5013 133.325 16.16C134.192 16.784 134.625 17.72 134.625 18.968V51.78C134.625 52.8893 134.227 53.7387 133.429 54.328C132.667 54.952 131.627 55.264 130.309 55.264C129.304 55.264 128.472 55.108 127.813 54.796C127.155 54.5187 126.617 54.0333 126.201 53.34C124.433 54.8307 122.371 55.576 120.013 55.576C117.205 55.576 114.727 55.1253 112.577 54.224C110.463 53.3573 108.799 52.1093 107.585 50.48C106.372 48.8507 105.748 46.9613 105.713 44.812C105.679 44.084 105.661 43.0787 105.661 41.796C105.661 40.8947 105.679 40.2187 105.713 39.768C105.956 36.336 107.377 33.684 109.977 31.812C112.612 29.94 115.957 29.004 120.013 29.004ZM114.501 44.864C114.675 46.2853 115.247 47.3947 116.217 48.192C117.223 48.9893 118.488 49.388 120.013 49.388C121.643 49.388 122.96 48.9893 123.965 48.192C125.005 47.3947 125.595 46.2853 125.733 44.864C125.837 43.928 125.889 43.044 125.889 42.212C125.889 41.3453 125.837 40.496 125.733 39.664C125.56 38.2773 124.971 37.2027 123.965 36.44C122.96 35.6773 121.643 35.296 120.013 35.296C116.72 35.296 114.883 36.596 114.501 39.196C114.397 40.2707 114.345 41.2933 114.345 42.264C114.345 43.1653 114.397 44.032 114.501 44.864Z"/>
</mask>
<path d="M13.9439 51.26C13.9439 51.9533 13.8052 52.5427 13.5279 53.028C13.2505 53.548 12.9039 53.964 12.4879 54.276C12.0719 54.6227 11.6039 54.8653 11.0839 55.004C10.5639 55.1773 10.0439 55.264 9.52385 55.264C9.00385 55.264 8.46652 55.1773 7.91185 55.004C7.39185 54.8653 6.90652 54.6227 6.45585 54.276C6.03985 53.964 5.69319 53.548 5.41585 53.028C5.13852 52.5427 4.99985 51.9533 4.99985 51.26V18.812C4.99985 17.8067 5.27719 17.0613 5.83185 16.576C6.42119 16.0907 7.16652 15.848 8.06785 15.848H19.7159C21.7265 15.848 23.6332 16.0213 25.4359 16.368C27.2732 16.7147 28.8852 17.3213 30.2719 18.188C31.6585 19.0547 32.7505 20.1987 33.5479 21.62C34.3799 23.0413 34.7959 24.844 34.7959 27.028C34.7959 28.484 34.5879 29.8013 34.1719 30.98C33.7559 32.1587 33.1839 33.1987 32.4559 34.1C31.7279 35.0013 30.8785 35.7813 29.9079 36.44C28.9372 37.0987 27.9145 37.6013 26.8399 37.948L33.5999 49.024C34.2585 50.0293 34.5185 51.0693 34.3799 52.144C34.2412 53.2187 33.6172 54.068 32.5079 54.692C31.8839 55.0387 31.2599 55.2293 30.6359 55.264C30.0465 55.3333 29.4919 55.2813 28.9719 55.108C28.4865 54.9347 28.0359 54.6747 27.6199 54.328C27.2039 53.9813 26.8572 53.5827 26.5799 53.132L18.1039 38.936H13.9439V51.26ZM19.5079 32.696C21.4492 32.696 23.0092 32.3147 24.1879 31.552C25.3665 30.7893 25.9559 29.4373 25.9559 27.496C25.9559 25.52 25.3665 24.1507 24.1879 23.388C23.0439 22.6253 21.4839 22.244 19.5079 22.244H13.9439V32.696H19.5079ZM47.0106 45.02C47.0452 46.5107 47.6692 47.672 48.8826 48.504C50.1306 49.3013 51.8466 49.7 54.0306 49.7C55.0706 49.7 56.0586 49.5787 56.9946 49.336C57.9652 49.0933 58.7972 48.8507 59.4906 48.608C60.2186 48.3307 60.7039 48.1573 60.9466 48.088C61.8479 47.8107 62.5412 47.672 63.0266 47.672C64.1359 47.672 64.9679 48.1227 65.5226 49.024C65.8692 49.6133 66.0426 50.168 66.0426 50.688C66.0426 51.6933 65.5399 52.4907 64.5346 53.08C63.4599 53.7733 61.9692 54.3627 60.0626 54.848C58.1559 55.3333 56.0759 55.576 53.8226 55.576C50.7719 55.576 48.1026 55.1253 45.8146 54.224C43.5266 53.3227 41.7239 52.0573 40.4066 50.428C39.1239 48.7987 38.4132 46.9267 38.2746 44.812C38.2399 44.188 38.2226 43.304 38.2226 42.16C38.2226 40.9813 38.2399 40.0973 38.2746 39.508C38.3092 37.636 38.9506 35.8853 40.1986 34.256C41.4812 32.6267 43.2146 31.3267 45.3986 30.356C47.6172 29.3853 50.1132 28.9 52.8866 28.9C55.4172 28.9 57.7572 29.368 59.9066 30.304C62.0559 31.2053 63.7546 32.4707 65.0026 34.1C66.2852 35.6947 66.9266 37.48 66.9266 39.456C66.9266 41.64 66.3026 43.1133 65.0546 43.876C63.8066 44.6387 62.1252 45.02 60.0106 45.02H47.0106ZM57.0466 39.456C57.6706 39.456 58.0866 39.4213 58.2946 39.352C58.5026 39.2827 58.6066 39.092 58.6066 38.78C58.6066 37.6707 58.0519 36.752 56.9426 36.024C55.8332 35.2613 54.4639 34.88 52.8346 34.88C51.2052 34.88 49.8186 35.2267 48.6746 35.92C47.5652 36.6133 47.0106 37.5147 47.0106 38.624V39.456H57.0466ZM85.4313 29.004C87.3726 29.004 89.3139 29.368 91.2553 30.096V18.968C91.2553 17.72 91.6713 16.784 92.5033 16.16C93.3353 15.5013 94.3579 15.172 95.5713 15.172C96.8193 15.172 97.8766 15.5013 98.7433 16.16C99.6099 16.784 100.043 17.72 100.043 18.968V51.78C100.043 52.8893 99.6446 53.7387 98.8473 54.328C98.0846 54.952 97.0446 55.264 95.7273 55.264C94.7219 55.264 93.8899 55.108 93.2313 54.796C92.5726 54.5187 92.0353 54.0333 91.6193 53.34C89.8513 54.8307 87.7886 55.576 85.4313 55.576C82.6233 55.576 80.1446 55.1253 77.9953 54.224C75.8806 53.3573 74.2166 52.1093 73.0033 50.48C71.7899 48.8507 71.1659 46.9613 71.1313 44.812C71.0966 44.084 71.0793 43.0787 71.0793 41.796C71.0793 40.8947 71.0966 40.2187 71.1313 39.768C71.3739 36.336 72.7953 33.684 75.3953 31.812C78.0299 29.94 81.3753 29.004 85.4313 29.004ZM79.9193 44.864C80.0926 46.2853 80.6646 47.3947 81.6353 48.192C82.6406 48.9893 83.9059 49.388 85.4313 49.388C87.0606 49.388 88.3779 48.9893 89.3833 48.192C90.4233 47.3947 91.0126 46.2853 91.1513 44.864C91.2553 43.928 91.3073 43.044 91.3073 42.212C91.3073 41.3453 91.2553 40.496 91.1513 39.664C90.9779 38.2773 90.3886 37.2027 89.3833 36.44C88.3779 35.6773 87.0606 35.296 85.4313 35.296C82.1379 35.296 80.3006 36.596 79.9193 39.196C79.8153 40.2707 79.7633 41.2933 79.7633 42.264C79.7633 43.1653 79.8153 44.032 79.9193 44.864ZM120.013 29.004C121.955 29.004 123.896 29.368 125.837 30.096V18.968C125.837 17.72 126.253 16.784 127.085 16.16C127.917 15.5013 128.94 15.172 130.153 15.172C131.401 15.172 132.459 15.5013 133.325 16.16C134.192 16.784 134.625 17.72 134.625 18.968V51.78C134.625 52.8893 134.227 53.7387 133.429 54.328C132.667 54.952 131.627 55.264 130.309 55.264C129.304 55.264 128.472 55.108 127.813 54.796C127.155 54.5187 126.617 54.0333 126.201 53.34C124.433 54.8307 122.371 55.576 120.013 55.576C117.205 55.576 114.727 55.1253 112.577 54.224C110.463 53.3573 108.799 52.1093 107.585 50.48C106.372 48.8507 105.748 46.9613 105.713 44.812C105.679 44.084 105.661 43.0787 105.661 41.796C105.661 40.8947 105.679 40.2187 105.713 39.768C105.956 36.336 107.377 33.684 109.977 31.812C112.612 29.94 115.957 29.004 120.013 29.004ZM114.501 44.864C114.675 46.2853 115.247 47.3947 116.217 48.192C117.223 48.9893 118.488 49.388 120.013 49.388C121.643 49.388 122.96 48.9893 123.965 48.192C125.005 47.3947 125.595 46.2853 125.733 44.864C125.837 43.928 125.889 43.044 125.889 42.212C125.889 41.3453 125.837 40.496 125.733 39.664C125.56 38.2773 124.971 37.2027 123.965 36.44C122.96 35.6773 121.643 35.296 120.013 35.296C116.72 35.296 114.883 36.596 114.501 39.196C114.397 40.2707 114.345 41.2933 114.345 42.264C114.345 43.1653 114.397 44.032 114.501 44.864Z" fill="#19C8B9"/>
<path d="M13.5279 53.028L9.18664 50.5473L9.15043 50.6107L9.11609 50.6751L13.5279 53.028ZM12.4879 54.276L9.48785 50.276L9.38535 50.3529L9.28693 50.4349L12.4879 54.276ZM11.0839 55.004L9.79554 50.1728L9.64778 50.2122L9.50271 50.2606L11.0839 55.004ZM7.91185 55.004L9.40322 50.2316L9.30232 50.2001L9.20017 50.1728L7.91185 55.004ZM6.45585 54.276L9.50441 50.3129L9.48024 50.2943L9.45585 50.276L6.45585 54.276ZM5.41585 53.028L9.82762 50.6751L9.79327 50.6107L9.75707 50.5473L5.41585 53.028ZM5.83185 16.576L2.65332 12.7163L2.59559 12.7639L2.53932 12.8131L5.83185 16.576ZM25.4359 16.368L24.4916 21.278L24.5002 21.2797L24.5088 21.2813L25.4359 16.368ZM30.2719 18.188L32.9219 13.948H32.9218L30.2719 18.188ZM33.5479 21.62L29.1871 24.0662L29.2096 24.1063L29.2328 24.1459L33.5479 21.62ZM32.4559 34.1L36.3456 37.2417L36.3456 37.2417L32.4559 34.1ZM29.9079 36.44L32.7154 40.5774H32.7154L29.9079 36.44ZM26.8399 37.948L25.3048 33.1895L19.2667 35.1372L22.572 40.5528L26.8399 37.948ZM33.5999 49.024L29.332 51.6288L29.3737 51.6972L29.4175 51.7641L33.5999 49.024ZM34.3799 52.144L39.3387 52.7839L34.3799 52.144ZM32.5079 54.692L34.9361 59.0628L34.9476 59.0564L34.9592 59.0499L32.5079 54.692ZM30.6359 55.264L30.3585 50.2717L30.2047 50.2802L30.0516 50.2982L30.6359 55.264ZM28.9719 55.108L27.2902 59.8167L27.3403 59.8346L27.3907 59.8514L28.9719 55.108ZM27.6199 54.328L30.8208 50.4869L30.8208 50.4869L27.6199 54.328ZM26.5799 53.132L22.2868 55.6952L22.304 55.724L22.3216 55.7525L26.5799 53.132ZM18.1039 38.936L22.3969 36.3728L20.9419 33.936H18.1039V38.936ZM13.9439 38.936V33.936H8.94385V38.936H13.9439ZM24.1879 31.552L26.9041 35.7499L26.9041 35.7498L24.1879 31.552ZM24.1879 23.388L21.4144 27.5483L21.4428 27.5672L21.4716 27.5858L24.1879 23.388ZM13.9439 22.244V17.244H8.94385V22.244H13.9439ZM13.9439 32.696H8.94385V37.696H13.9439V32.696ZM13.9439 51.26H8.94385C8.94385 51.2902 8.94003 50.9789 9.18664 50.5473L13.5279 53.028L17.8691 55.5087C18.6703 54.1065 18.9439 52.6165 18.9439 51.26H13.9439ZM13.5279 53.028L9.11609 50.6751C9.13711 50.6356 9.2449 50.4582 9.48785 50.276L12.4879 54.276L15.4879 58.276C16.5628 57.4698 17.3639 56.4604 17.9396 55.3809L13.5279 53.028ZM12.4879 54.276L9.28693 50.4349C9.3487 50.3834 9.42817 50.3285 9.52327 50.2792C9.61845 50.2299 9.71188 50.1951 9.79554 50.1728L11.0839 55.004L12.3722 59.8352C13.5985 59.5081 14.7183 58.9258 15.6888 58.1171L12.4879 54.276ZM11.0839 55.004L9.50271 50.2606C9.49138 50.2644 9.48426 50.2663 9.48117 50.267C9.47811 50.2678 9.47843 50.2676 9.48186 50.267C9.48531 50.2665 9.49101 50.2657 9.49862 50.265C9.50626 50.2644 9.51478 50.264 9.52385 50.264V55.264V60.264C10.6097 60.264 11.6629 60.0814 12.665 59.7474L11.0839 55.004ZM9.52385 55.264V50.264C9.56517 50.264 9.53118 50.2716 9.40322 50.2316L7.91185 55.004L6.42048 59.7764C7.40186 60.0831 8.44254 60.264 9.52385 60.264V55.264ZM7.91185 55.004L9.20017 50.1728C9.27014 50.1915 9.33616 50.217 9.39392 50.2459C9.45108 50.2744 9.48792 50.3002 9.50441 50.3129L6.45585 54.276L3.4073 58.2391C4.35156 58.9655 5.42958 59.5168 6.62354 59.8352L7.91185 55.004ZM6.45585 54.276L9.45585 50.276C9.69881 50.4582 9.80659 50.6356 9.82762 50.6751L5.41585 53.028L1.00409 55.3809C1.57978 56.4604 2.3809 57.4698 3.45585 58.276L6.45585 54.276ZM5.41585 53.028L9.75707 50.5473C10.0037 50.9789 9.99985 51.2902 9.99985 51.26H4.99985H-0.000148177C-0.000148177 52.6165 0.273362 54.1065 1.07464 55.5087L5.41585 53.028ZM4.99985 51.26H9.99985V18.812H4.99985H-0.000148177V51.26H4.99985ZM4.99985 18.812H9.99985C9.99985 18.7541 10.0096 18.9319 9.89396 19.2427C9.76651 19.5852 9.52089 19.9919 9.12438 20.3389L5.83185 16.576L2.53932 12.8131C0.545069 14.5581 -0.000148177 16.9144 -0.000148177 18.812H4.99985ZM5.83185 16.576L9.01039 20.4356C8.80928 20.6013 8.58663 20.7173 8.38078 20.7844C8.18506 20.8481 8.06559 20.848 8.06785 20.848V15.848V10.848C6.22589 10.848 4.29351 11.3656 2.65332 12.7163L5.83185 16.576ZM8.06785 15.848V20.848H19.7159V15.848V10.848H8.06785V15.848ZM19.7159 15.848V20.848C21.4393 20.848 23.028 20.9966 24.4916 21.278L25.4359 16.368L26.3801 11.458C24.2384 11.0461 22.0137 10.848 19.7159 10.848V15.848ZM25.4359 16.368L24.5088 21.2813C25.8217 21.529 26.8327 21.9347 27.6219 22.428L30.2719 18.188L32.9218 13.948C30.9377 12.7079 28.7247 11.9003 26.3629 11.4547L25.4359 16.368ZM30.2719 18.188L27.6219 22.428C28.2993 22.8514 28.8019 23.3795 29.1871 24.0662L33.5479 21.62L37.9086 19.1737C36.6991 17.0178 35.0177 15.2579 32.9219 13.948L30.2719 18.188ZM33.5479 21.62L29.2328 24.1459C29.493 24.5904 29.7959 25.4511 29.7959 27.028H34.7959H39.7959C39.7959 24.2369 39.2667 21.4922 37.8629 19.0941L33.5479 21.62ZM34.7959 27.028H29.7959C29.7959 28.0087 29.656 28.7518 29.4569 29.3159L34.1719 30.98L38.8868 32.6441C39.5197 30.8509 39.7959 28.9593 39.7959 27.028H34.7959ZM34.1719 30.98L29.4569 29.3159C29.2151 30.001 28.91 30.5326 28.5661 30.9583L32.4559 34.1L36.3456 37.2417C37.4577 35.8647 38.2966 34.3163 38.8868 32.6441L34.1719 30.98ZM32.4559 34.1L28.5662 30.9583C28.1517 31.4714 27.6683 31.9172 27.1003 32.3026L29.9079 36.44L32.7154 40.5774C34.0887 39.6455 35.304 38.5312 36.3456 37.2417L32.4559 34.1ZM29.9079 36.44L27.1003 32.3026C26.5069 32.7053 25.9107 32.994 25.3048 33.1895L26.8399 37.948L28.3749 42.7065C29.9183 42.2087 31.3675 41.492 32.7154 40.5774L29.9079 36.44ZM26.8399 37.948L22.572 40.5528L29.332 51.6288L33.5999 49.024L37.8677 46.4192L31.1077 35.3432L26.8399 37.948ZM33.5999 49.024L29.4175 51.7641C29.477 51.8548 29.4593 51.8552 29.4381 51.7707C29.4282 51.7307 29.4203 51.6829 29.4173 51.6309C29.4143 51.5791 29.4169 51.5354 29.421 51.5041L34.3799 52.144L39.3387 52.7839C39.647 50.3945 39.0182 48.1704 37.7822 46.2839L33.5999 49.024ZM34.3799 52.144L29.421 51.5041C29.4568 51.2264 29.5746 50.904 29.7784 50.6266C29.9652 50.3724 30.1181 50.2995 30.0565 50.3341L32.5079 54.692L34.9592 59.0499C37.1722 57.805 38.9612 55.7101 39.3387 52.7839L34.3799 52.144ZM32.5079 54.692L30.0796 50.3212C30.0463 50.3398 30.0571 50.3296 30.1108 50.3132C30.1665 50.2962 30.2516 50.2776 30.3585 50.2717L30.6359 55.264L30.9132 60.2563C32.3926 60.1741 33.7455 59.7242 34.9361 59.0628L32.5079 54.692ZM30.6359 55.264L30.0516 50.2982C30.0833 50.2945 30.1502 50.29 30.2446 50.2988C30.3402 50.3078 30.4458 50.3288 30.553 50.3646L28.9719 55.108L27.3907 59.8514C28.6636 60.2757 29.9626 60.3777 31.2201 60.2298L30.6359 55.264ZM28.9719 55.108L30.6535 50.3993C30.6967 50.4147 30.7359 50.4333 30.7685 50.4521C30.8007 50.4707 30.818 50.4846 30.8208 50.4869L27.6199 54.328L24.4189 58.1691C25.2633 58.8727 26.2237 59.4358 27.2902 59.8167L28.9719 55.108ZM27.6199 54.328L30.8208 50.4869C30.813 50.4804 30.8145 50.4807 30.8209 50.4881C30.8238 50.4915 30.827 50.4954 30.8303 50.4999C30.8335 50.5043 30.8362 50.5083 30.8381 50.5115L26.5799 53.132L22.3216 55.7525C22.8895 56.6754 23.5965 57.4838 24.4189 58.1691L27.6199 54.328ZM26.5799 53.132L30.8729 50.5688L22.3969 36.3728L18.1039 38.936L13.8108 41.4992L22.2868 55.6952L26.5799 53.132ZM18.1039 38.936V33.936H13.9439V38.936V43.936H18.1039V38.936ZM13.9439 38.936H8.94385V51.26H13.9439H18.9439V38.936H13.9439ZM19.5079 32.696V37.696C22.0571 37.696 24.6619 37.2007 26.9041 35.7499L24.1879 31.552L21.4716 27.3541C21.3565 27.4286 20.8413 27.696 19.5079 27.696V32.696ZM24.1879 31.552L26.9041 35.7498C30.017 33.7356 30.9559 30.4196 30.9559 27.496H25.9559H20.9559C20.9559 27.9861 20.8782 28.0878 20.9304 27.9681C20.96 27.9 21.0202 27.7882 21.1254 27.6624C21.2319 27.535 21.3534 27.4306 21.4716 27.3541L24.1879 31.552ZM25.9559 27.496H30.9559C30.9559 24.5787 30.0417 21.2203 26.9041 19.1901L24.1879 23.388L21.4716 27.5858C21.3458 27.5044 21.2203 27.3953 21.1126 27.2654C21.0065 27.1375 20.9481 27.0263 20.9211 26.9636C20.8959 26.9051 20.9056 26.9066 20.9212 26.9952C20.937 27.0851 20.9559 27.247 20.9559 27.496H25.9559ZM24.1879 23.388L26.9614 19.2277C24.7099 17.7268 22.0594 17.244 19.5079 17.244V22.244V27.244C20.9083 27.244 21.3778 27.5239 21.4144 27.5483L24.1879 23.388ZM19.5079 22.244V17.244H13.9439V22.244V27.244H19.5079V22.244ZM13.9439 22.244H8.94385V32.696H13.9439H18.9439V22.244H13.9439ZM13.9439 32.696V37.696H19.5079V32.696V27.696H13.9439V32.696ZM47.0106 45.02V40.02H41.8929L42.0119 45.1362L47.0106 45.02ZM48.8826 48.504L46.0549 52.6276L46.122 52.6737L46.1906 52.7175L48.8826 48.504ZM56.9946 49.336L55.7819 44.4853L55.7608 44.4906L55.7398 44.496L56.9946 49.336ZM59.4906 48.608L61.1423 53.3273L61.2068 53.3047L61.2705 53.2804L59.4906 48.608ZM60.9466 48.088L62.3202 52.8956L62.3687 52.8817L62.417 52.8669L60.9466 48.088ZM65.5226 49.024L69.8322 46.4889L69.807 46.4459L69.7809 46.4035L65.5226 49.024ZM64.5346 53.08L62.006 48.7665L61.9138 48.8206L61.8239 48.8785L64.5346 53.08ZM60.0626 54.848L58.8292 50.0025H58.8292L60.0626 54.848ZM45.8146 54.224L47.6472 49.572V49.572L45.8146 54.224ZM40.4066 50.428L36.4779 53.5208L36.498 53.5463L36.5184 53.5716L40.4066 50.428ZM38.2746 44.812L33.2823 45.0893L33.2837 45.1143L33.2853 45.1392L38.2746 44.812ZM38.2746 39.508L43.2659 39.8016L43.2719 39.7012L43.2737 39.6006L38.2746 39.508ZM40.1986 34.256L36.2699 31.1632L36.2494 31.1893L36.2292 31.2156L40.1986 34.256ZM45.3986 30.356L43.3945 25.7752L43.3812 25.781L43.3679 25.7869L45.3986 30.356ZM59.9066 30.304L57.9102 34.8882L57.9415 34.9018L57.9729 34.915L59.9066 30.304ZM65.0026 34.1L61.0332 37.1404L61.0693 37.1875L61.1065 37.2338L65.0026 34.1ZM65.0546 43.876L62.4473 39.6096V39.6096L65.0546 43.876ZM58.2946 39.352L59.8757 44.0954H59.8757L58.2946 39.352ZM56.9426 36.024L54.1099 40.1442L54.1543 40.1747L54.1993 40.2042L56.9426 36.024ZM48.6746 35.92L46.0831 31.644L46.0537 31.6618L46.0246 31.68L48.6746 35.92ZM47.0106 39.456H42.0106V44.456H47.0106V39.456ZM47.0106 45.02L42.0119 45.1362C42.0834 48.2082 43.4946 50.872 46.0549 52.6276L48.8826 48.504L51.7102 44.3804C51.6904 44.3668 51.7141 44.3803 51.7595 44.4295C51.8064 44.4804 51.8607 44.5525 51.909 44.6424C51.9573 44.7322 51.9852 44.813 51.9996 44.871C52.0135 44.9268 52.0101 44.9422 52.0092 44.9038L47.0106 45.02ZM48.8826 48.504L46.1906 52.7175C48.5387 54.2176 51.3185 54.7 54.0306 54.7V49.7V44.7C52.3746 44.7 51.7225 44.385 51.5745 44.2905L48.8826 48.504ZM54.0306 49.7V54.7C55.4622 54.7 56.8739 54.5326 58.2494 54.176L56.9946 49.336L55.7398 44.496C55.2432 44.6247 54.679 44.7 54.0306 44.7V49.7ZM56.9946 49.336L58.2073 54.1867C59.2772 53.9192 60.2638 53.6348 61.1423 53.3273L59.4906 48.608L57.8388 43.8887C57.3307 44.0666 56.6533 44.2674 55.7819 44.4853L56.9946 49.336ZM59.4906 48.608L61.2705 53.2804C61.6166 53.1486 61.8845 53.0493 62.0823 52.9787C62.3049 52.8992 62.3615 52.8838 62.3202 52.8956L60.9466 48.088L59.573 43.2804C59.0884 43.4188 58.4008 43.6726 57.7106 43.9356L59.4906 48.608ZM60.9466 48.088L62.417 52.8669C62.756 52.7626 62.9857 52.7064 63.1232 52.6789C63.1892 52.6657 63.2156 52.6628 63.2078 52.6638C63.2021 52.6644 63.1377 52.672 63.0266 52.672V47.672V42.672C61.7703 42.672 60.4941 42.9959 59.4761 43.3091L60.9466 48.088ZM63.0266 47.672V52.672C62.8934 52.672 62.5332 52.6405 62.1012 52.4065C61.6585 52.1667 61.3905 51.8497 61.2643 51.6445L65.5226 49.024L69.7809 46.4035C68.2642 43.9389 65.7706 42.672 63.0266 42.672V47.672ZM65.5226 49.024L61.2129 51.5591C61.2461 51.6155 61.0426 51.2978 61.0426 50.688H66.0426H71.0426C71.0426 49.0382 70.4924 47.6112 69.8322 46.4889L65.5226 49.024ZM66.0426 50.688H61.0426C61.0426 50.3126 61.1501 49.8269 61.4359 49.3735C61.7008 48.9533 61.9784 48.7827 62.006 48.7665L64.5346 53.08L67.0632 57.3935C69.3094 56.0767 71.0426 53.7801 71.0426 50.688H66.0426ZM64.5346 53.08L61.8239 48.8785C61.3793 49.1654 60.4624 49.5868 58.8292 50.0025L60.0626 54.848L61.296 59.6935C63.476 59.1386 65.5406 58.3813 67.2452 57.2815L64.5346 53.08ZM60.0626 54.848L58.8292 50.0025C57.379 50.3717 55.7189 50.576 53.8226 50.576V55.576V60.576C56.4329 60.576 58.9328 60.295 61.296 59.6935L60.0626 54.848ZM53.8226 55.576V50.576C51.2535 50.576 49.2298 50.1954 47.6472 49.572L45.8146 54.224L43.9819 58.876C46.9753 60.0553 50.2903 60.576 53.8226 60.576V55.576ZM45.8146 54.224L47.6472 49.572C46.0227 48.932 44.9811 48.1333 44.2947 47.2844L40.4066 50.428L36.5184 53.5716C38.4667 55.9813 41.0304 57.7133 43.9819 58.876L45.8146 54.224ZM40.4066 50.428L44.3353 47.3352C43.6918 46.5179 43.338 45.6153 43.2639 44.4848L38.2746 44.812L33.2853 45.1392C33.4885 48.2381 34.556 51.0795 36.4779 53.5208L40.4066 50.428ZM38.2746 44.812L43.2669 44.5346C43.2399 44.0493 43.2226 43.2738 43.2226 42.16H38.2226H33.2226C33.2226 43.3342 33.2399 44.3267 33.2823 45.0893L38.2746 44.812ZM38.2226 42.16H43.2226C43.2226 41.0033 43.2402 40.2389 43.2659 39.8016L38.2746 39.508L33.2832 39.2144C33.2396 39.9557 33.2226 40.9594 33.2226 42.16H38.2226ZM38.2746 39.508L43.2737 39.6006C43.2867 38.8993 43.5033 38.1642 44.168 37.2964L40.1986 34.256L36.2292 31.2156C34.3979 33.6065 33.3318 36.3727 33.2754 39.4154L38.2746 39.508ZM40.1986 34.256L44.1273 37.3488C44.8348 36.45 45.8745 35.6161 47.4293 34.9251L45.3986 30.356L43.3679 25.7869C40.5546 27.0373 38.1276 28.8033 36.2699 31.1632L40.1986 34.256ZM45.3986 30.356L47.4027 34.9368C48.904 34.2799 50.7034 33.9 52.8866 33.9V28.9V23.9C49.5231 23.9 46.3305 24.4907 43.3945 25.7752L45.3986 30.356ZM52.8866 28.9V33.9C54.7856 33.9 56.4395 34.2477 57.9102 34.8882L59.9066 30.304L61.9029 25.7198C59.075 24.4883 56.0489 23.9 52.8866 23.9V28.9ZM59.9066 30.304L57.9729 34.915C59.4292 35.5257 60.3839 36.2927 61.0332 37.1404L65.0026 34.1L68.972 31.0596C67.1253 28.6487 64.6826 26.885 61.8402 25.693L59.9066 30.304ZM65.0026 34.1L61.1065 37.2338C61.7023 37.9745 61.9266 38.6632 61.9266 39.456H66.9266H71.9266C71.9266 36.2968 70.8681 33.4148 68.8986 30.9662L65.0026 34.1ZM66.9266 39.456H61.9266C61.9266 39.7682 61.904 39.9841 61.8808 40.1198C61.8577 40.2549 61.8381 40.2877 61.8545 40.249C61.8729 40.2057 61.9268 40.096 62.0398 39.9611C62.1556 39.8227 62.2972 39.7013 62.4473 39.6096L65.0546 43.876L67.6618 48.1424C71.0444 46.0753 71.9266 42.4558 71.9266 39.456H66.9266ZM65.0546 43.876L62.4473 39.6096C62.2595 39.7244 61.5923 40.02 60.0106 40.02V45.02V50.02C62.6582 50.02 65.3537 49.553 67.6618 48.1424L65.0546 43.876ZM60.0106 45.02V40.02H47.0106V45.02V50.02H60.0106V45.02ZM57.0466 39.456V44.456C57.5578 44.456 58.7795 44.4608 59.8757 44.0954L58.2946 39.352L56.7134 34.6086C56.8611 34.5594 56.984 34.5274 57.0707 34.5072C57.1591 34.4865 57.2298 34.4735 57.2776 34.4655C57.3691 34.4503 57.4193 34.4466 57.4113 34.4473C57.4073 34.4476 57.3752 34.4501 57.309 34.4523C57.2441 34.4544 57.1576 34.456 57.0466 34.456V39.456ZM58.2946 39.352L59.8757 44.0954C61.1665 43.6652 62.2542 42.7682 62.918 41.5513C63.5076 40.4705 63.6066 39.4305 63.6066 38.78H58.6066H53.6066C53.6066 38.4415 53.6536 37.6528 54.1391 36.7627C54.6989 35.7364 55.6307 34.9695 56.7134 34.6086L58.2946 39.352ZM58.6066 38.78H63.6066C63.6066 35.6375 61.885 33.2869 59.6859 31.8438L56.9426 36.024L54.1993 40.2042C54.2732 40.2528 54.0998 40.1574 53.9102 39.8433C53.7004 39.4957 53.6066 39.104 53.6066 38.78H58.6066ZM56.9426 36.024L59.7752 31.9038C57.6705 30.4568 55.2594 29.88 52.8346 29.88V34.88V39.88C53.6685 39.88 53.9959 40.0658 54.1099 40.1442L56.9426 36.024ZM52.8346 34.88V29.88C50.4908 29.88 48.163 30.3834 46.0831 31.644L48.6746 35.92L51.2661 40.196C51.4741 40.0699 51.9197 39.88 52.8346 39.88V34.88ZM48.6746 35.92L46.0246 31.68C43.7598 33.0955 42.0106 35.4579 42.0106 38.624H47.0106H52.0106C52.0106 38.9479 51.9164 39.3603 51.6849 39.7365C51.474 40.0791 51.2724 40.1926 51.3246 40.16L48.6746 35.92ZM47.0106 38.624H42.0106V39.456H47.0106H52.0106V38.624H47.0106ZM47.0106 39.456V44.456H57.0466V39.456V34.456H47.0106V39.456ZM91.2553 30.096L89.4996 34.7776L96.2553 37.311V30.096H91.2553ZM92.5033 16.16L95.5033 20.16L95.5555 20.1208L95.6068 20.0802L92.5033 16.16ZM98.7433 16.16L95.7178 20.1408L95.7693 20.1799L95.8217 20.2177L98.7433 16.16ZM98.8473 54.328L95.8753 50.3071L95.7763 50.3803L95.6811 50.4582L98.8473 54.328ZM93.2313 54.796L95.3717 50.2773L95.2726 50.2304L95.1715 50.1878L93.2313 54.796ZM91.6193 53.34L95.9067 50.7675L92.8856 45.7323L88.3963 49.5174L91.6193 53.34ZM77.9953 54.224L79.9289 49.613L79.9102 49.6052L79.8914 49.5975L77.9953 54.224ZM73.0033 50.48L68.993 53.4663V53.4663L73.0033 50.48ZM71.1313 44.812L76.1306 44.7314L76.1293 44.6527L76.1256 44.5742L71.1313 44.812ZM71.1313 39.768L76.1165 40.1515L76.1177 40.1361L76.1188 40.1207L71.1313 39.768ZM75.3953 31.812L72.4992 27.7361L72.4865 27.7452L72.4737 27.7543L75.3953 31.812ZM79.9193 44.864L84.8825 44.2587L84.8816 44.2513L84.8806 44.2438L79.9193 44.864ZM81.6353 48.192L78.4616 52.0556L78.4947 52.0828L78.5283 52.1095L81.6353 48.192ZM89.3833 48.192L86.3411 44.224L86.3085 44.249L86.2763 44.2745L89.3833 48.192ZM91.1513 44.864L86.1818 44.3118L86.1781 44.3451L86.1749 44.3785L91.1513 44.864ZM91.1513 39.664L96.1126 39.0438V39.0438L91.1513 39.664ZM89.3833 36.44L86.3613 40.4235V40.4235L89.3833 36.44ZM79.9193 39.196L74.9722 38.4704L74.9543 38.592L74.9425 38.7144L79.9193 39.196ZM85.4313 29.004V34.004C86.7333 34.004 88.0812 34.2457 89.4996 34.7776L91.2553 30.096L93.0109 25.4144C90.5466 24.4903 88.0119 24.004 85.4313 24.004V29.004ZM91.2553 30.096H96.2553V18.968H91.2553H86.2553V30.096H91.2553ZM91.2553 18.968H96.2553C96.2553 18.8942 96.2674 19.0657 96.1363 19.3607C95.9923 19.6847 95.7588 19.9684 95.5033 20.16L92.5033 16.16L89.5033 12.16C87.1538 13.9221 86.2553 16.5 86.2553 18.968H91.2553ZM92.5033 16.16L95.6068 20.0802C95.5815 20.1002 95.5498 20.1215 95.5138 20.1407C95.4779 20.1598 95.4473 20.1717 95.4269 20.1783C95.3836 20.1923 95.4186 20.172 95.5713 20.172V15.172V10.172C93.4011 10.172 91.2395 10.7833 89.3997 12.2398L92.5033 16.16ZM95.5713 15.172V20.172C95.7541 20.172 95.8228 20.1957 95.8133 20.1928C95.8097 20.1917 95.7949 20.1866 95.7735 20.1756C95.7519 20.1645 95.7326 20.152 95.7178 20.1408L98.7433 16.16L101.769 12.1792C99.9077 10.7648 97.7448 10.172 95.5713 10.172V15.172ZM98.7433 16.16L95.8217 20.2177C95.5828 20.0457 95.3387 19.7714 95.1809 19.4306C95.0357 19.1168 95.0433 18.9199 95.0433 18.968H100.043H105.043C105.043 16.4216 104.069 13.8333 101.665 12.1023L98.7433 16.16ZM100.043 18.968H95.0433V51.78H100.043H105.043V18.968H100.043ZM100.043 51.78H95.0433C95.0433 51.7329 95.0536 51.475 95.2181 51.1245C95.3915 50.755 95.6457 50.4769 95.8753 50.3071L98.8473 54.328L101.819 58.3489C104.057 56.6948 105.043 54.2583 105.043 51.78H100.043ZM98.8473 54.328L95.6811 50.4582C95.7655 50.3892 95.8477 50.3371 95.9192 50.3C95.9897 50.2634 96.0395 50.2466 96.0585 50.2409C96.0915 50.231 95.9992 50.264 95.7273 50.264V55.264V60.264C97.8089 60.264 100.096 59.7664 102.013 58.1978L98.8473 54.328ZM95.7273 55.264V50.264C95.4781 50.264 95.3327 50.2443 95.2707 50.2326C95.2102 50.2213 95.2569 50.2229 95.3717 50.2773L93.2313 54.796L91.0908 59.3147C92.6222 60.0401 94.246 60.264 95.7273 60.264V55.264ZM93.2313 54.796L95.1715 50.1878C95.3665 50.2699 95.5433 50.3849 95.6857 50.5135C95.8235 50.6379 95.8899 50.7395 95.9067 50.7675L91.6193 53.34L87.3318 55.9125C88.2192 57.3915 89.5274 58.6616 91.291 59.4042L93.2313 54.796ZM91.6193 53.34L88.3963 49.5174C87.549 50.2318 86.634 50.576 85.4313 50.576V55.576V60.576C88.9432 60.576 92.1535 59.4296 94.8422 57.1626L91.6193 53.34ZM85.4313 55.576V50.576C83.1543 50.576 81.3542 50.2107 79.9289 49.613L77.9953 54.224L76.0616 58.835C78.935 60.0399 82.0922 60.576 85.4313 60.576V55.576ZM77.9953 54.224L79.8914 49.5975C78.5097 49.0312 77.6187 48.3064 77.0135 47.4937L73.0033 50.48L68.993 53.4663C70.8145 55.9123 73.2515 57.6834 76.0991 58.8505L77.9953 54.224ZM73.0033 50.48L77.0135 47.4937C76.4639 46.7557 76.1494 45.8971 76.1306 44.7314L71.1313 44.812L66.1319 44.8926C66.1824 48.0256 67.1159 50.9456 68.993 53.4663L73.0033 50.48ZM71.1313 44.812L76.1256 44.5742C76.0965 43.963 76.0793 43.0491 76.0793 41.796H71.0793H66.0793C66.0793 43.1083 66.0967 44.205 66.1369 45.0498L71.1313 44.812ZM71.0793 41.796H76.0793C76.0793 40.9235 76.0971 40.4038 76.1165 40.1515L71.1313 39.768L66.146 39.3845C66.0961 40.0335 66.0793 40.8659 66.0793 41.796H71.0793ZM71.1313 39.768L76.1188 40.1207C76.2656 38.0443 77.0191 36.804 78.3168 35.8697L75.3953 31.812L72.4737 27.7543C68.5714 30.564 66.4822 34.6277 66.1437 39.4153L71.1313 39.768ZM75.3953 31.812L78.2913 35.8879C79.8859 34.7549 82.1466 34.004 85.4313 34.004V29.004V24.004C80.604 24.004 76.174 25.1251 72.4992 27.7361L75.3953 31.812ZM79.9193 44.864L74.956 45.4693C75.2615 47.9737 76.3573 50.3272 78.4616 52.0556L81.6353 48.192L84.809 44.3284C84.8214 44.3386 84.8439 44.3594 84.8691 44.3905C84.8943 44.4217 84.912 44.4506 84.9223 44.4706C84.9322 44.4898 84.9292 44.4889 84.9203 44.4589C84.9112 44.4279 84.8953 44.3638 84.8825 44.2587L79.9193 44.864ZM81.6353 48.192L78.5283 52.1095C80.5765 53.7339 82.999 54.388 85.4313 54.388V49.388V44.388C85.1035 44.388 84.9208 44.3453 84.8408 44.3201C84.7704 44.2979 84.7503 44.2809 84.7422 44.2745L81.6353 48.192ZM85.4313 49.388V54.388C87.8792 54.388 90.3857 53.7786 92.4902 52.1095L89.3833 48.192L86.2763 44.2745C86.3018 44.2543 86.2932 44.273 86.193 44.3033C86.0809 44.3373 85.8427 44.388 85.4313 44.388V49.388ZM89.3833 48.192L92.4254 52.16C94.67 50.4392 95.8679 48.0117 96.1276 45.3495L91.1513 44.864L86.1749 44.3785C86.1711 44.4171 86.1668 44.4449 86.1634 44.4628C86.1601 44.4807 86.1577 44.4891 86.1576 44.4892C86.1576 44.4892 86.1597 44.4819 86.1651 44.4686C86.1705 44.4552 86.1785 44.4373 86.1897 44.4162C86.2133 44.3718 86.2437 44.3269 86.2776 44.2872C86.3111 44.2481 86.3361 44.2278 86.3411 44.224L89.3833 48.192ZM91.1513 44.864L96.1207 45.4162C96.2424 44.3203 96.3073 43.2506 96.3073 42.212H91.3073H86.3073C86.3073 42.8373 86.2681 43.5357 86.1818 44.3118L91.1513 44.864ZM91.3073 42.212H96.3073C96.3073 41.1449 96.2432 40.0883 96.1126 39.0438L91.1513 39.664L86.1899 40.2842C86.2673 40.9037 86.3073 41.5457 86.3073 42.212H91.3073ZM91.1513 39.664L96.1126 39.0438C95.792 36.4787 94.6042 34.1248 92.4052 32.4565L89.3833 36.44L86.3613 40.4235C86.3478 40.4132 86.3185 40.3885 86.2832 40.3479C86.2476 40.3069 86.2176 40.263 86.1952 40.2222C86.1732 40.1821 86.1662 40.1589 86.1673 40.1624C86.1687 40.167 86.1799 40.2047 86.1899 40.2842L91.1513 39.664ZM89.3833 36.44L92.4052 32.4565C90.3063 30.8643 87.8323 30.296 85.4313 30.296V35.296V40.296C86.2889 40.296 86.4495 40.4904 86.3613 40.4235L89.3833 36.44ZM85.4313 35.296V30.296C83.207 30.296 80.7673 30.7233 78.6953 32.1894C76.4718 33.7626 75.3251 36.0638 74.9722 38.4704L79.9193 39.196L84.8663 39.9216C84.8867 39.7827 84.9018 39.8258 84.8242 39.9621C84.7381 40.1135 84.6079 40.2559 84.4712 40.3526C84.3492 40.439 84.3139 40.4242 84.4623 40.3866C84.6186 40.347 84.9258 40.296 85.4313 40.296V35.296ZM79.9193 39.196L74.9425 38.7144C74.8247 39.9316 74.7633 41.1158 74.7633 42.264H79.7633H84.7633C84.7633 41.4708 84.8058 40.6097 84.896 39.6776L79.9193 39.196ZM79.7633 42.264H74.7633C74.7633 43.3574 74.8263 44.4318 74.9579 45.4842L79.9193 44.864L84.8806 44.2438C84.8042 43.6322 84.7633 42.9733 84.7633 42.264H79.7633ZM125.837 30.096L124.082 34.7776L130.837 37.311V30.096H125.837ZM127.085 16.16L130.085 20.16L130.138 20.1208L130.189 20.0802L127.085 16.16ZM133.325 16.16L130.3 20.1408L130.351 20.1799L130.404 20.2177L133.325 16.16ZM133.429 54.328L130.457 50.3071L130.358 50.3803L130.263 50.4582L133.429 54.328ZM127.813 54.796L129.954 50.2773L129.855 50.2304L129.754 50.1878L127.813 54.796ZM126.201 53.34L130.489 50.7675L127.468 45.7323L122.978 49.5174L126.201 53.34ZM112.577 54.224L114.511 49.613L114.492 49.6052L114.473 49.5975L112.577 54.224ZM107.585 50.48L103.575 53.4663V53.4663L107.585 50.48ZM105.713 44.812L110.713 44.7314L110.711 44.6527L110.708 44.5742L105.713 44.812ZM105.713 39.768L110.699 40.1515L110.7 40.1361L110.701 40.1207L105.713 39.768ZM109.977 31.812L107.081 27.7361L107.068 27.7452L107.056 27.7543L109.977 31.812ZM114.501 44.864L119.465 44.2587L119.464 44.2513L119.463 44.2438L114.501 44.864ZM116.217 48.192L113.044 52.0556L113.077 52.0828L113.11 52.1095L116.217 48.192ZM123.965 48.192L120.923 44.224L120.891 44.249L120.858 44.2745L123.965 48.192ZM125.733 44.864L120.764 44.3118L120.76 44.3451L120.757 44.3785L125.733 44.864ZM125.733 39.664L130.695 39.0438V39.0438L125.733 39.664ZM123.965 36.44L120.943 40.4235V40.4235L123.965 36.44ZM114.501 39.196L109.554 38.4704L109.536 38.592L109.525 38.7144L114.501 39.196ZM120.013 29.004V34.004C121.315 34.004 122.663 34.2457 124.082 34.7776L125.837 30.096L127.593 25.4144C125.129 24.4903 122.594 24.004 120.013 24.004V29.004ZM125.837 30.096H130.837V18.968H125.837H120.837V30.096H125.837ZM125.837 18.968H130.837C130.837 18.8942 130.849 19.0657 130.718 19.3607C130.574 19.6847 130.341 19.9684 130.085 20.16L127.085 16.16L124.085 12.16C121.736 13.9221 120.837 16.5 120.837 18.968H125.837ZM127.085 16.16L130.189 20.0802C130.164 20.1002 130.132 20.1215 130.096 20.1407C130.06 20.1598 130.029 20.1717 130.009 20.1783C129.966 20.1923 130.001 20.172 130.153 20.172V15.172V10.172C127.983 10.172 125.822 10.7833 123.982 12.2398L127.085 16.16ZM130.153 15.172V20.172C130.336 20.172 130.405 20.1957 130.395 20.1928C130.392 20.1917 130.377 20.1866 130.356 20.1756C130.334 20.1645 130.315 20.152 130.3 20.1408L133.325 16.16L136.351 12.1792C134.49 10.7648 132.327 10.172 130.153 10.172V15.172ZM133.325 16.16L130.404 20.2177C130.165 20.0457 129.921 19.7714 129.763 19.4306C129.618 19.1168 129.625 18.9199 129.625 18.968H134.625H139.625C139.625 16.4216 138.651 13.8333 136.247 12.1023L133.325 16.16ZM134.625 18.968H129.625V51.78H134.625H139.625V18.968H134.625ZM134.625 51.78H129.625C129.625 51.7329 129.636 51.475 129.8 51.1245C129.974 50.755 130.228 50.4769 130.457 50.3071L133.429 54.328L136.401 58.3489C138.639 56.6948 139.625 54.2583 139.625 51.78H134.625ZM133.429 54.328L130.263 50.4582C130.348 50.3892 130.43 50.3371 130.501 50.3C130.572 50.2634 130.622 50.2466 130.641 50.2409C130.674 50.231 130.581 50.264 130.309 50.264V55.264V60.264C132.391 60.264 134.678 59.7664 136.595 58.1978L133.429 54.328ZM130.309 55.264V50.264C130.06 50.264 129.915 50.2443 129.853 50.2326C129.792 50.2213 129.839 50.2229 129.954 50.2773L127.813 54.796L125.673 59.3147C127.204 60.0401 128.828 60.264 130.309 60.264V55.264ZM127.813 54.796L129.754 50.1878C129.949 50.2699 130.125 50.3849 130.268 50.5135C130.406 50.6379 130.472 50.7395 130.489 50.7675L126.201 53.34L121.914 55.9125C122.801 57.3915 124.109 58.6616 125.873 59.4042L127.813 54.796ZM126.201 53.34L122.978 49.5174C122.131 50.2318 121.216 50.576 120.013 50.576V55.576V60.576C123.525 60.576 126.736 59.4296 129.424 57.1626L126.201 53.34ZM120.013 55.576V50.576C117.736 50.576 115.936 50.2107 114.511 49.613L112.577 54.224L110.644 58.835C113.517 60.0399 116.674 60.576 120.013 60.576V55.576ZM112.577 54.224L114.473 49.5975C113.092 49.0312 112.201 48.3064 111.596 47.4937L107.585 50.48L103.575 53.4663C105.397 55.9123 107.834 57.6834 110.681 58.8505L112.577 54.224ZM107.585 50.48L111.596 47.4937C111.046 46.7557 110.731 45.8971 110.713 44.7314L105.713 44.812L100.714 44.8926C100.764 48.0256 101.698 50.9456 103.575 53.4663L107.585 50.48ZM105.713 44.812L110.708 44.5742C110.679 43.963 110.661 43.0491 110.661 41.796H105.661H100.661C100.661 43.1083 100.679 44.205 100.719 45.0498L105.713 44.812ZM105.661 41.796H110.661C110.661 40.9235 110.679 40.4038 110.699 40.1515L105.713 39.768L100.728 39.3845C100.678 40.0335 100.661 40.8659 100.661 41.796H105.661ZM105.713 39.768L110.701 40.1207C110.848 38.0443 111.601 36.804 112.899 35.8697L109.977 31.812L107.056 27.7543C103.153 30.564 101.064 34.6277 100.726 39.4153L105.713 39.768ZM109.977 31.812L112.873 35.8879C114.468 34.7549 116.729 34.004 120.013 34.004V29.004V24.004C115.186 24.004 110.756 25.1251 107.081 27.7361L109.977 31.812ZM114.501 44.864L109.538 45.4693C109.843 47.9737 110.939 50.3272 113.044 52.0556L116.217 48.192L119.391 44.3284C119.403 44.3386 119.426 44.3594 119.451 44.3905C119.476 44.4217 119.494 44.4506 119.504 44.4706C119.514 44.4898 119.511 44.4889 119.502 44.4589C119.493 44.4279 119.477 44.3638 119.465 44.2587L114.501 44.864ZM116.217 48.192L113.11 52.1095C115.158 53.7339 117.581 54.388 120.013 54.388V49.388V44.388C119.686 44.388 119.503 44.3453 119.423 44.3201C119.352 44.2979 119.332 44.2809 119.324 44.2745L116.217 48.192ZM120.013 49.388V54.388C122.461 54.388 124.968 53.7786 127.072 52.1095L123.965 48.192L120.858 44.2745C120.884 44.2543 120.875 44.273 120.775 44.3033C120.663 44.3373 120.425 44.388 120.013 44.388V49.388ZM123.965 48.192L127.007 52.16C129.252 50.4392 130.45 48.0117 130.71 45.3495L125.733 44.864L120.757 44.3785C120.753 44.4171 120.749 44.4449 120.745 44.4628C120.742 44.4807 120.74 44.4891 120.74 44.4892C120.74 44.4892 120.742 44.4819 120.747 44.4686C120.753 44.4552 120.76 44.4373 120.772 44.4162C120.795 44.3718 120.826 44.3269 120.86 44.2872C120.893 44.2481 120.918 44.2278 120.923 44.224L123.965 48.192ZM125.733 44.864L130.703 45.4162C130.824 44.3203 130.889 43.2506 130.889 42.212H125.889H120.889C120.889 42.8373 120.85 43.5357 120.764 44.3118L125.733 44.864ZM125.889 42.212H130.889C130.889 41.1449 130.825 40.0883 130.695 39.0438L125.733 39.664L120.772 40.2842C120.849 40.9037 120.889 41.5457 120.889 42.212H125.889ZM125.733 39.664L130.695 39.0438C130.374 36.4787 129.186 34.1248 126.987 32.4565L123.965 36.44L120.943 40.4235C120.93 40.4132 120.9 40.3885 120.865 40.3479C120.83 40.3069 120.8 40.263 120.777 40.2222C120.755 40.1821 120.748 40.1589 120.749 40.1624C120.751 40.167 120.762 40.2047 120.772 40.2842L125.733 39.664ZM123.965 36.44L126.987 32.4565C124.888 30.8643 122.414 30.296 120.013 30.296V35.296V40.296C120.871 40.296 121.032 40.4904 120.943 40.4235L123.965 36.44ZM120.013 35.296V30.296C117.789 30.296 115.349 30.7233 113.277 32.1894C111.054 33.7626 109.907 36.0638 109.554 38.4704L114.501 39.196L119.448 39.9216C119.469 39.7827 119.484 39.8258 119.406 39.9621C119.32 40.1135 119.19 40.2559 119.053 40.3526C118.931 40.439 118.896 40.4242 119.044 40.3866C119.201 40.347 119.508 40.296 120.013 40.296V35.296ZM114.501 39.196L109.525 38.7144C109.407 39.9316 109.345 41.1158 109.345 42.264H114.345H119.345C119.345 41.4708 119.388 40.6097 119.478 39.6776L114.501 39.196ZM114.345 42.264H109.345C109.345 43.3574 109.408 44.4318 109.54 45.4842L114.501 44.864L119.463 44.2438C119.386 43.6322 119.345 42.9733 119.345 42.264H114.345Z" fill="white" mask="url(#path-2-outside-1_518_16)"/>
</svg>
