<svg width="490" height="73" viewBox="0 0 490 73" fill="none" xmlns="http://www.w3.org/2000/svg">
<path d="M371.578 26.28H389.918V28.688C389.918 31.824 389.918 35.38 388.938 40.784L385.186 40.392C386.11 35.688 386.166 32.188 386.166 29.276H371.578V26.28ZM369.254 43.36H377.262V34.736H380.986V43.36H392.046V46.384H369.254V43.36ZM405.123 24.684C410.667 24.684 414.279 26.644 414.279 29.752C414.279 32.524 411.451 34.372 406.943 34.736V36.5H416.491V39.468H393.727V36.5H403.191V34.736C398.767 34.344 395.967 32.496 395.967 29.752C395.967 26.644 399.579 24.684 405.123 24.684ZM405.123 27.596C401.735 27.596 399.803 28.296 399.803 29.752C399.803 31.208 401.735 31.908 405.123 31.908C408.511 31.908 410.415 31.208 410.415 29.752C410.415 28.296 408.511 27.596 405.123 27.596ZM396.247 41.148H413.747V49.408H410.051V44.088H396.247V41.148ZM439.311 47.336H434.131L432.591 45.684C431.051 47 429.119 47.952 426.683 47.952C419.879 47.952 419.459 42.38 419.459 41.54C419.459 40.812 419.795 37.676 422.791 35.548C421.867 34.568 420.943 33.364 420.943 31.516C420.943 29.192 422.903 26.112 426.683 26.112C430.435 26.112 432.535 29.052 432.535 31.516C432.535 33.616 431.275 35.128 429.063 36.472L432.423 40.084C432.927 39.272 433.403 38.376 433.851 37.564L437.127 39.384C436.595 40.364 435.951 41.624 435.083 42.856L439.311 47.336ZM423.211 41.54C423.211 42.128 423.379 44.2 426.683 44.2C427.971 44.2 429.063 43.724 429.987 42.996L425.535 38.264C423.435 39.384 423.211 41.092 423.211 41.54ZM424.695 31.516C424.695 32.3 425.451 32.832 426.375 33.728C428.195 32.86 428.783 32.3 428.783 31.516C428.783 30.592 428.111 29.864 426.683 29.864C425.115 29.864 424.695 30.648 424.695 31.516ZM443.328 26.28H461.668V28.688C461.668 31.824 461.668 35.38 460.688 40.784L456.936 40.392C457.86 35.688 457.916 32.188 457.916 29.276H443.328V26.28ZM441.004 43.36H449.012V34.736H452.736V43.36H463.796V46.384H441.004V43.36ZM474.941 24.824H478.777V25.608C478.777 28.352 481.465 31.46 487.121 32.244L485.721 35.156C481.465 34.512 478.469 32.608 476.873 30.088C475.305 32.664 472.281 34.596 467.997 35.24L466.597 32.328C472.281 31.516 474.941 28.408 474.941 25.608V24.824ZM465.449 36.556H488.269V39.496H479.057V43.696H475.305V39.496H465.449V36.556ZM468.081 41.568H471.805V45.992H485.749V48.988H468.081V41.568Z" fill="#555555"/>
<mask id="path-2-outside-1_518_15" maskUnits="userSpaceOnUse" x="-0.585938" y="10" width="350" height="51" fill="black">
<rect fill="white" x="-0.585938" y="10" width="350" height="51"/>
<path d="M19.8981 49.076C20.9381 49.076 21.9087 48.9893 22.8101 48.816C23.7461 48.6427 24.5434 48.3653 25.2021 47.984C25.8607 47.6027 26.3807 47.1173 26.7621 46.528C27.1434 45.9387 27.3341 45.2453 27.3341 44.448C27.3341 43.5467 27.1087 42.7667 26.6581 42.108C26.2421 41.4493 25.6701 40.8773 24.9421 40.392C24.2141 39.872 23.3821 39.4213 22.4461 39.04C21.5101 38.6587 20.5394 38.2947 19.5341 37.948C17.9741 37.3933 16.3621 36.804 14.6981 36.18C13.0687 35.5213 11.5781 34.7587 10.2261 33.892C8.90873 32.9907 7.81673 31.9333 6.95006 30.72C6.11806 29.5067 5.70206 28.0507 5.70206 26.352C5.70206 24.272 6.20473 22.556 7.21006 21.204C8.2154 19.8173 9.49806 18.7253 11.0581 17.928C12.6181 17.096 14.3687 16.5067 16.3101 16.16C18.2514 15.8133 20.1581 15.64 22.0301 15.64C22.9661 15.64 24.0061 15.692 25.1501 15.796C26.2941 15.8653 27.4034 16.004 28.4781 16.212C29.5874 16.42 30.6101 16.68 31.5461 16.992C32.5167 17.304 33.2621 17.6853 33.7821 18.136C34.1981 18.4827 34.4754 18.8987 34.6141 19.384C34.7874 19.8347 34.8741 20.2507 34.8741 20.632C34.8394 21.464 34.6314 22.1227 34.2501 22.608C33.8687 23.0587 33.4007 23.3707 32.8461 23.544C32.3261 23.7173 31.7367 23.7867 31.0781 23.752C30.4541 23.7173 29.8821 23.596 29.3621 23.388C28.0794 22.972 26.8661 22.6253 25.7221 22.348C24.5781 22.0707 23.3474 21.932 22.0301 21.932C19.9154 21.932 18.1647 22.244 16.7781 22.868C15.4261 23.4573 14.7501 24.4453 14.7501 25.832C14.7501 26.6293 14.9754 27.3227 15.4261 27.912C15.8767 28.5013 16.4661 29.0387 17.1941 29.524C17.9567 29.9747 18.8234 30.3907 19.7941 30.772C20.7994 31.1533 21.8394 31.5173 22.9141 31.864L25.7741 32.852C27.0914 33.3373 28.3741 33.892 29.6221 34.516C30.9047 35.14 32.0314 35.8853 33.0021 36.752C34.0074 37.6187 34.8047 38.624 35.3941 39.768C36.0181 40.912 36.3301 42.2467 36.3301 43.772C36.3301 45.7827 35.9314 47.5333 35.1341 49.024C34.3367 50.5147 33.2101 51.7453 31.7541 52.716C30.3327 53.6867 28.6341 54.3973 26.6581 54.848C24.6821 55.3333 22.5154 55.576 20.1581 55.576C16.6914 55.576 13.7621 55.16 11.3701 54.328C8.97806 53.496 7.2274 52.5253 6.11806 51.416C5.7714 51.1387 5.5114 50.8093 5.33806 50.428C5.16473 50.0467 5.06073 49.6653 5.02606 49.284C4.95673 48.66 5.02606 48.1053 5.23406 47.62C5.44206 47.1347 5.7194 46.736 6.06606 46.424C6.4474 46.112 6.8634 45.8867 7.31406 45.748C7.76473 45.5747 8.23273 45.488 8.71806 45.488C9.23806 45.488 9.75806 45.5747 10.2781 45.748C10.8327 45.9213 11.3007 46.164 11.6821 46.476C12.2367 46.8573 12.7741 47.204 13.2941 47.516C13.8141 47.828 14.3861 48.1053 15.0101 48.348C15.6341 48.556 16.3447 48.7293 17.1421 48.868C17.9394 49.0067 18.8581 49.076 19.8981 49.076ZM59.4526 53.86C57.5459 55.004 54.8593 55.576 51.3926 55.576C47.5099 55.576 44.6499 54.848 42.8126 53.392C41.0099 51.9707 40.0739 50.2027 40.0046 48.088C39.7966 45.072 40.9059 42.8187 43.3326 41.328C45.7939 39.8027 49.4513 39.04 54.3046 39.04H58.6726C58.6033 37.9307 58.0139 36.9773 56.9046 36.18C55.8299 35.348 54.3566 34.932 52.4846 34.932C50.4046 34.932 48.6193 35.244 47.1286 35.868C46.2619 36.2147 45.4993 36.388 44.8406 36.388C43.6966 36.388 42.8819 35.868 42.3966 34.828C42.1886 34.308 42.0846 33.8227 42.0846 33.372C42.0846 32.1933 42.6913 31.3093 43.9046 30.72C44.9793 30.1653 46.3139 29.732 47.9086 29.42C49.5379 29.0733 51.1326 28.9 52.6926 28.9C55.9859 28.9 58.7419 29.4027 60.9606 30.408C63.1793 31.3787 64.8086 32.6787 65.8486 34.308C66.9233 35.9027 67.4606 37.6707 67.4606 39.612V51.728C67.4606 52.8373 67.0793 53.6867 66.3166 54.276C65.5539 54.9 64.5139 55.212 63.1966 55.212C61.3939 55.212 60.1459 54.7613 59.4526 53.86ZM48.6886 47.256C48.6886 48.0187 49.0006 48.6253 49.6246 49.076C50.2486 49.5267 51.1153 49.752 52.2246 49.752C53.9233 49.752 55.4313 49.3533 56.7486 48.556C58.0659 47.7587 58.7246 46.8053 58.7246 45.696V44.656H54.1486C52.0686 44.656 50.6299 44.864 49.8326 45.28C49.0699 45.696 48.6886 46.3547 48.6886 47.256ZM89.3453 29.004C91.9453 29.004 94.3026 29.42 96.4173 30.252C98.5666 31.084 100.283 32.3147 101.565 33.944C102.848 35.5733 103.541 37.532 103.645 39.82V41.588V44.76C103.645 48.1573 102.415 50.8093 99.9533 52.716C97.4919 54.6227 94.1119 55.576 89.8133 55.576C88.5306 55.576 87.2133 55.368 85.8613 54.952C84.5439 54.536 83.6426 54.0507 83.1573 53.496C82.7413 54.0853 82.2386 54.5187 81.6493 54.796C81.0599 55.108 80.2106 55.264 79.1013 55.264C77.8186 55.264 76.7959 54.952 76.0333 54.328C75.2706 53.7387 74.8893 52.8893 74.8893 51.78V18.968C74.8893 17.72 75.3053 16.784 76.1373 16.16C77.0039 15.5013 78.0439 15.172 79.2573 15.172C80.5053 15.172 81.5453 15.5013 82.3773 16.16C83.2093 16.784 83.6253 17.72 83.6253 18.968V30.096C85.3586 29.368 87.2653 29.004 89.3453 29.004ZM83.7293 44.864C84.0066 47.88 85.8786 49.388 89.3453 49.388C90.8706 49.388 92.1186 48.9893 93.0893 48.192C94.0946 47.3947 94.6666 46.2853 94.8053 44.864C94.9093 44.032 94.9613 43.2 94.9613 42.368C94.9613 41.432 94.9093 40.4787 94.8053 39.508C94.6666 38.1213 94.1119 37.0813 93.1413 36.388C92.2053 35.66 90.9399 35.296 89.3453 35.296C87.7853 35.296 86.4853 35.6947 85.4453 36.492C84.4399 37.2547 83.8679 38.312 83.7293 39.664C83.6253 40.4267 83.5733 41.224 83.5733 42.056C83.5733 42.9227 83.6253 43.8587 83.7293 44.864ZM111.176 54.224C110.344 53.5653 109.928 52.5947 109.928 51.312V19.072C109.928 17.7893 110.344 16.8187 111.176 16.16C112.043 15.5013 113.083 15.172 114.296 15.172C115.51 15.172 116.55 15.5013 117.416 16.16C118.283 16.8187 118.716 17.7893 118.716 19.072V51.312C118.716 52.5947 118.283 53.5653 117.416 54.224C116.55 54.9173 115.51 55.264 114.296 55.264C113.083 55.264 112.043 54.9173 111.176 54.224ZM133.064 45.02C133.099 46.5107 133.723 47.672 134.936 48.504C136.184 49.3013 137.9 49.7 140.084 49.7C141.124 49.7 142.112 49.5787 143.048 49.336C144.019 49.0933 144.851 48.8507 145.544 48.608C146.272 48.3307 146.758 48.1573 147 48.088C147.902 47.8107 148.595 47.672 149.08 47.672C150.19 47.672 151.022 48.1227 151.576 49.024C151.923 49.6133 152.096 50.168 152.096 50.688C152.096 51.6933 151.594 52.4907 150.588 53.08C149.514 53.7733 148.023 54.3627 146.116 54.848C144.21 55.3333 142.13 55.576 139.876 55.576C136.826 55.576 134.156 55.1253 131.868 54.224C129.58 53.3227 127.778 52.0573 126.46 50.428C125.178 48.7987 124.467 46.9267 124.328 44.812C124.294 44.188 124.276 43.304 124.276 42.16C124.276 40.9813 124.294 40.0973 124.328 39.508C124.363 37.636 125.004 35.8853 126.252 34.256C127.535 32.6267 129.268 31.3267 131.452 30.356C133.671 29.3853 136.167 28.9 138.94 28.9C141.471 28.9 143.811 29.368 145.96 30.304C148.11 31.2053 149.808 32.4707 151.056 34.1C152.339 35.6947 152.98 37.48 152.98 39.456C152.98 41.64 152.356 43.1133 151.108 43.876C149.86 44.6387 148.179 45.02 146.064 45.02H133.064ZM143.1 39.456C143.724 39.456 144.14 39.4213 144.348 39.352C144.556 39.2827 144.66 39.092 144.66 38.78C144.66 37.6707 144.106 36.752 142.996 36.024C141.887 35.2613 140.518 34.88 138.888 34.88C137.259 34.88 135.872 35.2267 134.728 35.92C133.619 36.6133 133.064 37.5147 133.064 38.624V39.456H143.1ZM181.625 37.168C181.07 37.7227 180.048 38 178.557 38H161.293C158.589 38 157.237 36.9427 157.237 34.828C157.237 33.9267 157.532 33.1813 158.121 32.592C158.745 32.0027 159.802 31.708 161.293 31.708H178.557C181.192 31.708 182.509 32.7827 182.509 34.932C182.509 35.868 182.214 36.6133 181.625 37.168ZM218.705 29.94C217.526 31.6387 216.313 33.4933 215.065 35.504C213.852 37.5147 212.69 39.352 211.581 41.016C211.096 41.6747 210.576 42.1253 210.021 42.368C209.466 42.576 208.86 42.68 208.201 42.68C207.646 42.68 207.057 42.5587 206.433 42.316C205.809 42.0733 205.306 41.6227 204.925 40.964L197.905 29.68V51.26C197.905 52.6813 197.437 53.704 196.501 54.328C195.6 54.952 194.577 55.264 193.433 55.264C192.844 55.264 192.272 55.1773 191.717 55.004C191.197 54.8653 190.729 54.6227 190.313 54.276C189.897 53.964 189.55 53.548 189.273 53.028C189.03 52.5427 188.909 51.9533 188.909 51.26V19.748C188.909 18.4653 189.36 17.4947 190.261 16.836C191.197 16.1773 192.254 15.848 193.433 15.848C194.161 15.848 194.82 15.9 195.409 16.004C195.998 16.0733 196.536 16.2467 197.021 16.524C197.506 16.7667 197.974 17.1133 198.425 17.564C198.876 18.0147 199.326 18.5867 199.777 19.28L208.201 32.488L216.937 19.28C217.804 17.9973 218.67 17.1133 219.537 16.628C220.438 16.108 221.652 15.848 223.177 15.848C224.425 15.848 225.482 16.1773 226.349 16.836C227.216 17.4947 227.649 18.4653 227.649 19.748V51.26C227.649 51.9533 227.51 52.5427 227.233 53.028C226.99 53.548 226.661 53.964 226.245 54.276C225.829 54.6227 225.344 54.8653 224.789 55.004C224.269 55.1773 223.732 55.264 223.177 55.264C222.622 55.264 222.068 55.1773 221.513 55.004C220.993 54.8653 220.525 54.6227 220.109 54.276C219.693 53.964 219.346 53.548 219.069 53.028C218.826 52.5427 218.705 51.9533 218.705 51.26V29.94ZM252.269 53.86C250.362 55.004 247.676 55.576 244.209 55.576C240.326 55.576 237.466 54.848 235.629 53.392C233.826 51.9707 232.89 50.2027 232.821 48.088C232.613 45.072 233.722 42.8187 236.149 41.328C238.61 39.8027 242.268 39.04 247.121 39.04H251.489C251.42 37.9307 250.83 36.9773 249.721 36.18C248.646 35.348 247.173 34.932 245.301 34.932C243.221 34.932 241.436 35.244 239.945 35.868C239.078 36.2147 238.316 36.388 237.657 36.388C236.513 36.388 235.698 35.868 235.213 34.828C235.005 34.308 234.901 33.8227 234.901 33.372C234.901 32.1933 235.508 31.3093 236.721 30.72C237.796 30.1653 239.13 29.732 240.725 29.42C242.354 29.0733 243.949 28.9 245.509 28.9C248.802 28.9 251.558 29.4027 253.777 30.408C255.996 31.3787 257.625 32.6787 258.665 34.308C259.74 35.9027 260.277 37.6707 260.277 39.612V51.728C260.277 52.8373 259.896 53.6867 259.133 54.276C258.37 54.9 257.33 55.212 256.013 55.212C254.21 55.212 252.962 54.7613 252.269 53.86ZM241.505 47.256C241.505 48.0187 241.817 48.6253 242.441 49.076C243.065 49.5267 243.932 49.752 245.041 49.752C246.74 49.752 248.248 49.3533 249.565 48.556C250.882 47.7587 251.541 46.8053 251.541 45.696V44.656H246.965C244.885 44.656 243.446 44.864 242.649 45.28C241.886 45.696 241.505 46.3547 241.505 47.256ZM282.162 29.004C284.762 29.004 287.119 29.42 289.234 30.252C291.383 31.084 293.099 32.3147 294.382 33.944C295.664 35.5733 296.358 37.532 296.462 39.82V41.588V44.76C296.462 48.1573 295.231 50.8093 292.77 52.716C290.308 54.6227 286.928 55.576 282.63 55.576C281.347 55.576 280.03 55.368 278.678 54.952C277.36 54.536 276.459 54.0507 275.974 53.496C275.558 54.0853 275.055 54.5187 274.466 54.796C273.876 55.108 273.027 55.264 271.918 55.264C270.635 55.264 269.612 54.952 268.85 54.328C268.087 53.7387 267.706 52.8893 267.706 51.78V18.968C267.706 17.72 268.122 16.784 268.954 16.16C269.82 15.5013 270.86 15.172 272.074 15.172C273.322 15.172 274.362 15.5013 275.194 16.16C276.026 16.784 276.442 17.72 276.442 18.968V30.096C278.175 29.368 280.082 29.004 282.162 29.004ZM276.546 44.864C276.823 47.88 278.695 49.388 282.162 49.388C283.687 49.388 284.935 48.9893 285.906 48.192C286.911 47.3947 287.483 46.2853 287.622 44.864C287.726 44.032 287.778 43.2 287.778 42.368C287.778 41.432 287.726 40.4787 287.622 39.508C287.483 38.1213 286.928 37.0813 285.958 36.388C285.022 35.66 283.756 35.296 282.162 35.296C280.602 35.296 279.302 35.6947 278.262 36.492C277.256 37.2547 276.684 38.312 276.546 39.664C276.442 40.4267 276.39 41.224 276.39 42.056C276.39 42.9227 276.442 43.8587 276.546 44.864ZM310.545 45.02C310.579 46.5107 311.203 47.672 312.417 48.504C313.665 49.3013 315.381 49.7 317.565 49.7C318.605 49.7 319.593 49.5787 320.529 49.336C321.499 49.0933 322.331 48.8507 323.025 48.608C323.753 48.3307 324.238 48.1573 324.481 48.088C325.382 47.8107 326.075 47.672 326.561 47.672C327.67 47.672 328.502 48.1227 329.057 49.024C329.403 49.6133 329.577 50.168 329.577 50.688C329.577 51.6933 329.074 52.4907 328.069 53.08C326.994 53.7733 325.503 54.3627 323.597 54.848C321.69 55.3333 319.61 55.576 317.357 55.576C314.306 55.576 311.637 55.1253 309.349 54.224C307.061 53.3227 305.258 52.0573 303.941 50.428C302.658 48.7987 301.947 46.9267 301.809 44.812C301.774 44.188 301.757 43.304 301.757 42.16C301.757 40.9813 301.774 40.0973 301.809 39.508C301.843 37.636 302.485 35.8853 303.733 34.256C305.015 32.6267 306.749 31.3267 308.933 30.356C311.151 29.3853 313.647 28.9 316.421 28.9C318.951 28.9 321.291 29.368 323.441 30.304C325.59 31.2053 327.289 32.4707 328.537 34.1C329.819 35.6947 330.461 37.48 330.461 39.456C330.461 41.64 329.837 43.1133 328.589 43.876C327.341 44.6387 325.659 45.02 323.545 45.02H310.545ZM320.581 39.456C321.205 39.456 321.621 39.4213 321.829 39.352C322.037 39.2827 322.141 39.092 322.141 38.78C322.141 37.6707 321.586 36.752 320.477 36.024C319.367 35.2613 317.998 34.88 316.369 34.88C314.739 34.88 313.353 35.2267 312.209 35.92C311.099 36.6133 310.545 37.5147 310.545 38.624V39.456H320.581ZM336.797 54.224C335.965 53.5653 335.549 52.5947 335.549 51.312V19.072C335.549 17.7893 335.965 16.8187 336.797 16.16C337.664 15.5013 338.704 15.172 339.917 15.172C341.131 15.172 342.171 15.5013 343.037 16.16C343.904 16.8187 344.337 17.7893 344.337 19.072V51.312C344.337 52.5947 343.904 53.5653 343.037 54.224C342.171 54.9173 341.131 55.264 339.917 55.264C338.704 55.264 337.664 54.9173 336.797 54.224Z"/>
</mask>
<path d="M19.8981 49.076C20.9381 49.076 21.9087 48.9893 22.8101 48.816C23.7461 48.6427 24.5434 48.3653 25.2021 47.984C25.8607 47.6027 26.3807 47.1173 26.7621 46.528C27.1434 45.9387 27.3341 45.2453 27.3341 44.448C27.3341 43.5467 27.1087 42.7667 26.6581 42.108C26.2421 41.4493 25.6701 40.8773 24.9421 40.392C24.2141 39.872 23.3821 39.4213 22.4461 39.04C21.5101 38.6587 20.5394 38.2947 19.5341 37.948C17.9741 37.3933 16.3621 36.804 14.6981 36.18C13.0687 35.5213 11.5781 34.7587 10.2261 33.892C8.90873 32.9907 7.81673 31.9333 6.95006 30.72C6.11806 29.5067 5.70206 28.0507 5.70206 26.352C5.70206 24.272 6.20473 22.556 7.21006 21.204C8.2154 19.8173 9.49806 18.7253 11.0581 17.928C12.6181 17.096 14.3687 16.5067 16.3101 16.16C18.2514 15.8133 20.1581 15.64 22.0301 15.64C22.9661 15.64 24.0061 15.692 25.1501 15.796C26.2941 15.8653 27.4034 16.004 28.4781 16.212C29.5874 16.42 30.6101 16.68 31.5461 16.992C32.5167 17.304 33.2621 17.6853 33.7821 18.136C34.1981 18.4827 34.4754 18.8987 34.6141 19.384C34.7874 19.8347 34.8741 20.2507 34.8741 20.632C34.8394 21.464 34.6314 22.1227 34.2501 22.608C33.8687 23.0587 33.4007 23.3707 32.8461 23.544C32.3261 23.7173 31.7367 23.7867 31.0781 23.752C30.4541 23.7173 29.8821 23.596 29.3621 23.388C28.0794 22.972 26.8661 22.6253 25.7221 22.348C24.5781 22.0707 23.3474 21.932 22.0301 21.932C19.9154 21.932 18.1647 22.244 16.7781 22.868C15.4261 23.4573 14.7501 24.4453 14.7501 25.832C14.7501 26.6293 14.9754 27.3227 15.4261 27.912C15.8767 28.5013 16.4661 29.0387 17.1941 29.524C17.9567 29.9747 18.8234 30.3907 19.7941 30.772C20.7994 31.1533 21.8394 31.5173 22.9141 31.864L25.7741 32.852C27.0914 33.3373 28.3741 33.892 29.6221 34.516C30.9047 35.14 32.0314 35.8853 33.0021 36.752C34.0074 37.6187 34.8047 38.624 35.3941 39.768C36.0181 40.912 36.3301 42.2467 36.3301 43.772C36.3301 45.7827 35.9314 47.5333 35.1341 49.024C34.3367 50.5147 33.2101 51.7453 31.7541 52.716C30.3327 53.6867 28.6341 54.3973 26.6581 54.848C24.6821 55.3333 22.5154 55.576 20.1581 55.576C16.6914 55.576 13.7621 55.16 11.3701 54.328C8.97806 53.496 7.2274 52.5253 6.11806 51.416C5.7714 51.1387 5.5114 50.8093 5.33806 50.428C5.16473 50.0467 5.06073 49.6653 5.02606 49.284C4.95673 48.66 5.02606 48.1053 5.23406 47.62C5.44206 47.1347 5.7194 46.736 6.06606 46.424C6.4474 46.112 6.8634 45.8867 7.31406 45.748C7.76473 45.5747 8.23273 45.488 8.71806 45.488C9.23806 45.488 9.75806 45.5747 10.2781 45.748C10.8327 45.9213 11.3007 46.164 11.6821 46.476C12.2367 46.8573 12.7741 47.204 13.2941 47.516C13.8141 47.828 14.3861 48.1053 15.0101 48.348C15.6341 48.556 16.3447 48.7293 17.1421 48.868C17.9394 49.0067 18.8581 49.076 19.8981 49.076ZM59.4526 53.86C57.5459 55.004 54.8593 55.576 51.3926 55.576C47.5099 55.576 44.6499 54.848 42.8126 53.392C41.0099 51.9707 40.0739 50.2027 40.0046 48.088C39.7966 45.072 40.9059 42.8187 43.3326 41.328C45.7939 39.8027 49.4513 39.04 54.3046 39.04H58.6726C58.6033 37.9307 58.0139 36.9773 56.9046 36.18C55.8299 35.348 54.3566 34.932 52.4846 34.932C50.4046 34.932 48.6193 35.244 47.1286 35.868C46.2619 36.2147 45.4993 36.388 44.8406 36.388C43.6966 36.388 42.8819 35.868 42.3966 34.828C42.1886 34.308 42.0846 33.8227 42.0846 33.372C42.0846 32.1933 42.6913 31.3093 43.9046 30.72C44.9793 30.1653 46.3139 29.732 47.9086 29.42C49.5379 29.0733 51.1326 28.9 52.6926 28.9C55.9859 28.9 58.7419 29.4027 60.9606 30.408C63.1793 31.3787 64.8086 32.6787 65.8486 34.308C66.9233 35.9027 67.4606 37.6707 67.4606 39.612V51.728C67.4606 52.8373 67.0793 53.6867 66.3166 54.276C65.5539 54.9 64.5139 55.212 63.1966 55.212C61.3939 55.212 60.1459 54.7613 59.4526 53.86ZM48.6886 47.256C48.6886 48.0187 49.0006 48.6253 49.6246 49.076C50.2486 49.5267 51.1153 49.752 52.2246 49.752C53.9233 49.752 55.4313 49.3533 56.7486 48.556C58.0659 47.7587 58.7246 46.8053 58.7246 45.696V44.656H54.1486C52.0686 44.656 50.6299 44.864 49.8326 45.28C49.0699 45.696 48.6886 46.3547 48.6886 47.256ZM89.3453 29.004C91.9453 29.004 94.3026 29.42 96.4173 30.252C98.5666 31.084 100.283 32.3147 101.565 33.944C102.848 35.5733 103.541 37.532 103.645 39.82V41.588V44.76C103.645 48.1573 102.415 50.8093 99.9533 52.716C97.4919 54.6227 94.1119 55.576 89.8133 55.576C88.5306 55.576 87.2133 55.368 85.8613 54.952C84.5439 54.536 83.6426 54.0507 83.1573 53.496C82.7413 54.0853 82.2386 54.5187 81.6493 54.796C81.0599 55.108 80.2106 55.264 79.1013 55.264C77.8186 55.264 76.7959 54.952 76.0333 54.328C75.2706 53.7387 74.8893 52.8893 74.8893 51.78V18.968C74.8893 17.72 75.3053 16.784 76.1373 16.16C77.0039 15.5013 78.0439 15.172 79.2573 15.172C80.5053 15.172 81.5453 15.5013 82.3773 16.16C83.2093 16.784 83.6253 17.72 83.6253 18.968V30.096C85.3586 29.368 87.2653 29.004 89.3453 29.004ZM83.7293 44.864C84.0066 47.88 85.8786 49.388 89.3453 49.388C90.8706 49.388 92.1186 48.9893 93.0893 48.192C94.0946 47.3947 94.6666 46.2853 94.8053 44.864C94.9093 44.032 94.9613 43.2 94.9613 42.368C94.9613 41.432 94.9093 40.4787 94.8053 39.508C94.6666 38.1213 94.1119 37.0813 93.1413 36.388C92.2053 35.66 90.9399 35.296 89.3453 35.296C87.7853 35.296 86.4853 35.6947 85.4453 36.492C84.4399 37.2547 83.8679 38.312 83.7293 39.664C83.6253 40.4267 83.5733 41.224 83.5733 42.056C83.5733 42.9227 83.6253 43.8587 83.7293 44.864ZM111.176 54.224C110.344 53.5653 109.928 52.5947 109.928 51.312V19.072C109.928 17.7893 110.344 16.8187 111.176 16.16C112.043 15.5013 113.083 15.172 114.296 15.172C115.51 15.172 116.55 15.5013 117.416 16.16C118.283 16.8187 118.716 17.7893 118.716 19.072V51.312C118.716 52.5947 118.283 53.5653 117.416 54.224C116.55 54.9173 115.51 55.264 114.296 55.264C113.083 55.264 112.043 54.9173 111.176 54.224ZM133.064 45.02C133.099 46.5107 133.723 47.672 134.936 48.504C136.184 49.3013 137.9 49.7 140.084 49.7C141.124 49.7 142.112 49.5787 143.048 49.336C144.019 49.0933 144.851 48.8507 145.544 48.608C146.272 48.3307 146.758 48.1573 147 48.088C147.902 47.8107 148.595 47.672 149.08 47.672C150.19 47.672 151.022 48.1227 151.576 49.024C151.923 49.6133 152.096 50.168 152.096 50.688C152.096 51.6933 151.594 52.4907 150.588 53.08C149.514 53.7733 148.023 54.3627 146.116 54.848C144.21 55.3333 142.13 55.576 139.876 55.576C136.826 55.576 134.156 55.1253 131.868 54.224C129.58 53.3227 127.778 52.0573 126.46 50.428C125.178 48.7987 124.467 46.9267 124.328 44.812C124.294 44.188 124.276 43.304 124.276 42.16C124.276 40.9813 124.294 40.0973 124.328 39.508C124.363 37.636 125.004 35.8853 126.252 34.256C127.535 32.6267 129.268 31.3267 131.452 30.356C133.671 29.3853 136.167 28.9 138.94 28.9C141.471 28.9 143.811 29.368 145.96 30.304C148.11 31.2053 149.808 32.4707 151.056 34.1C152.339 35.6947 152.98 37.48 152.98 39.456C152.98 41.64 152.356 43.1133 151.108 43.876C149.86 44.6387 148.179 45.02 146.064 45.02H133.064ZM143.1 39.456C143.724 39.456 144.14 39.4213 144.348 39.352C144.556 39.2827 144.66 39.092 144.66 38.78C144.66 37.6707 144.106 36.752 142.996 36.024C141.887 35.2613 140.518 34.88 138.888 34.88C137.259 34.88 135.872 35.2267 134.728 35.92C133.619 36.6133 133.064 37.5147 133.064 38.624V39.456H143.1ZM181.625 37.168C181.07 37.7227 180.048 38 178.557 38H161.293C158.589 38 157.237 36.9427 157.237 34.828C157.237 33.9267 157.532 33.1813 158.121 32.592C158.745 32.0027 159.802 31.708 161.293 31.708H178.557C181.192 31.708 182.509 32.7827 182.509 34.932C182.509 35.868 182.214 36.6133 181.625 37.168ZM218.705 29.94C217.526 31.6387 216.313 33.4933 215.065 35.504C213.852 37.5147 212.69 39.352 211.581 41.016C211.096 41.6747 210.576 42.1253 210.021 42.368C209.466 42.576 208.86 42.68 208.201 42.68C207.646 42.68 207.057 42.5587 206.433 42.316C205.809 42.0733 205.306 41.6227 204.925 40.964L197.905 29.68V51.26C197.905 52.6813 197.437 53.704 196.501 54.328C195.6 54.952 194.577 55.264 193.433 55.264C192.844 55.264 192.272 55.1773 191.717 55.004C191.197 54.8653 190.729 54.6227 190.313 54.276C189.897 53.964 189.55 53.548 189.273 53.028C189.03 52.5427 188.909 51.9533 188.909 51.26V19.748C188.909 18.4653 189.36 17.4947 190.261 16.836C191.197 16.1773 192.254 15.848 193.433 15.848C194.161 15.848 194.82 15.9 195.409 16.004C195.998 16.0733 196.536 16.2467 197.021 16.524C197.506 16.7667 197.974 17.1133 198.425 17.564C198.876 18.0147 199.326 18.5867 199.777 19.28L208.201 32.488L216.937 19.28C217.804 17.9973 218.67 17.1133 219.537 16.628C220.438 16.108 221.652 15.848 223.177 15.848C224.425 15.848 225.482 16.1773 226.349 16.836C227.216 17.4947 227.649 18.4653 227.649 19.748V51.26C227.649 51.9533 227.51 52.5427 227.233 53.028C226.99 53.548 226.661 53.964 226.245 54.276C225.829 54.6227 225.344 54.8653 224.789 55.004C224.269 55.1773 223.732 55.264 223.177 55.264C222.622 55.264 222.068 55.1773 221.513 55.004C220.993 54.8653 220.525 54.6227 220.109 54.276C219.693 53.964 219.346 53.548 219.069 53.028C218.826 52.5427 218.705 51.9533 218.705 51.26V29.94ZM252.269 53.86C250.362 55.004 247.676 55.576 244.209 55.576C240.326 55.576 237.466 54.848 235.629 53.392C233.826 51.9707 232.89 50.2027 232.821 48.088C232.613 45.072 233.722 42.8187 236.149 41.328C238.61 39.8027 242.268 39.04 247.121 39.04H251.489C251.42 37.9307 250.83 36.9773 249.721 36.18C248.646 35.348 247.173 34.932 245.301 34.932C243.221 34.932 241.436 35.244 239.945 35.868C239.078 36.2147 238.316 36.388 237.657 36.388C236.513 36.388 235.698 35.868 235.213 34.828C235.005 34.308 234.901 33.8227 234.901 33.372C234.901 32.1933 235.508 31.3093 236.721 30.72C237.796 30.1653 239.13 29.732 240.725 29.42C242.354 29.0733 243.949 28.9 245.509 28.9C248.802 28.9 251.558 29.4027 253.777 30.408C255.996 31.3787 257.625 32.6787 258.665 34.308C259.74 35.9027 260.277 37.6707 260.277 39.612V51.728C260.277 52.8373 259.896 53.6867 259.133 54.276C258.37 54.9 257.33 55.212 256.013 55.212C254.21 55.212 252.962 54.7613 252.269 53.86ZM241.505 47.256C241.505 48.0187 241.817 48.6253 242.441 49.076C243.065 49.5267 243.932 49.752 245.041 49.752C246.74 49.752 248.248 49.3533 249.565 48.556C250.882 47.7587 251.541 46.8053 251.541 45.696V44.656H246.965C244.885 44.656 243.446 44.864 242.649 45.28C241.886 45.696 241.505 46.3547 241.505 47.256ZM282.162 29.004C284.762 29.004 287.119 29.42 289.234 30.252C291.383 31.084 293.099 32.3147 294.382 33.944C295.664 35.5733 296.358 37.532 296.462 39.82V41.588V44.76C296.462 48.1573 295.231 50.8093 292.77 52.716C290.308 54.6227 286.928 55.576 282.63 55.576C281.347 55.576 280.03 55.368 278.678 54.952C277.36 54.536 276.459 54.0507 275.974 53.496C275.558 54.0853 275.055 54.5187 274.466 54.796C273.876 55.108 273.027 55.264 271.918 55.264C270.635 55.264 269.612 54.952 268.85 54.328C268.087 53.7387 267.706 52.8893 267.706 51.78V18.968C267.706 17.72 268.122 16.784 268.954 16.16C269.82 15.5013 270.86 15.172 272.074 15.172C273.322 15.172 274.362 15.5013 275.194 16.16C276.026 16.784 276.442 17.72 276.442 18.968V30.096C278.175 29.368 280.082 29.004 282.162 29.004ZM276.546 44.864C276.823 47.88 278.695 49.388 282.162 49.388C283.687 49.388 284.935 48.9893 285.906 48.192C286.911 47.3947 287.483 46.2853 287.622 44.864C287.726 44.032 287.778 43.2 287.778 42.368C287.778 41.432 287.726 40.4787 287.622 39.508C287.483 38.1213 286.928 37.0813 285.958 36.388C285.022 35.66 283.756 35.296 282.162 35.296C280.602 35.296 279.302 35.6947 278.262 36.492C277.256 37.2547 276.684 38.312 276.546 39.664C276.442 40.4267 276.39 41.224 276.39 42.056C276.39 42.9227 276.442 43.8587 276.546 44.864ZM310.545 45.02C310.579 46.5107 311.203 47.672 312.417 48.504C313.665 49.3013 315.381 49.7 317.565 49.7C318.605 49.7 319.593 49.5787 320.529 49.336C321.499 49.0933 322.331 48.8507 323.025 48.608C323.753 48.3307 324.238 48.1573 324.481 48.088C325.382 47.8107 326.075 47.672 326.561 47.672C327.67 47.672 328.502 48.1227 329.057 49.024C329.403 49.6133 329.577 50.168 329.577 50.688C329.577 51.6933 329.074 52.4907 328.069 53.08C326.994 53.7733 325.503 54.3627 323.597 54.848C321.69 55.3333 319.61 55.576 317.357 55.576C314.306 55.576 311.637 55.1253 309.349 54.224C307.061 53.3227 305.258 52.0573 303.941 50.428C302.658 48.7987 301.947 46.9267 301.809 44.812C301.774 44.188 301.757 43.304 301.757 42.16C301.757 40.9813 301.774 40.0973 301.809 39.508C301.843 37.636 302.485 35.8853 303.733 34.256C305.015 32.6267 306.749 31.3267 308.933 30.356C311.151 29.3853 313.647 28.9 316.421 28.9C318.951 28.9 321.291 29.368 323.441 30.304C325.59 31.2053 327.289 32.4707 328.537 34.1C329.819 35.6947 330.461 37.48 330.461 39.456C330.461 41.64 329.837 43.1133 328.589 43.876C327.341 44.6387 325.659 45.02 323.545 45.02H310.545ZM320.581 39.456C321.205 39.456 321.621 39.4213 321.829 39.352C322.037 39.2827 322.141 39.092 322.141 38.78C322.141 37.6707 321.586 36.752 320.477 36.024C319.367 35.2613 317.998 34.88 316.369 34.88C314.739 34.88 313.353 35.2267 312.209 35.92C311.099 36.6133 310.545 37.5147 310.545 38.624V39.456H320.581ZM336.797 54.224C335.965 53.5653 335.549 52.5947 335.549 51.312V19.072C335.549 17.7893 335.965 16.8187 336.797 16.16C337.664 15.5013 338.704 15.172 339.917 15.172C341.131 15.172 342.171 15.5013 343.037 16.16C343.904 16.8187 344.337 17.7893 344.337 19.072V51.312C344.337 52.5947 343.904 53.5653 343.037 54.224C342.171 54.9173 341.131 55.264 339.917 55.264C338.704 55.264 337.664 54.9173 336.797 54.224Z" fill="#19C8B9"/>
<path d="M22.8101 48.816L21.8996 43.8996L21.8827 43.9027L21.8658 43.906L22.8101 48.816ZM25.2021 47.984L27.7072 52.3111L27.7072 52.3111L25.2021 47.984ZM26.7621 46.528L30.9599 49.2443L30.9599 49.2443L26.7621 46.528ZM26.6581 42.108L22.4306 44.778L22.4797 44.8556L22.5315 44.9314L26.6581 42.108ZM24.9421 40.392L22.0359 44.4607L22.1015 44.5075L22.1686 44.5522L24.9421 40.392ZM22.4461 39.04L20.5596 43.6705V43.6705L22.4461 39.04ZM19.5341 37.948L17.859 42.6591L17.8815 42.6671L17.9041 42.6749L19.5341 37.948ZM14.6981 36.18L12.8241 40.8155L12.883 40.8393L12.9424 40.8616L14.6981 36.18ZM10.2261 33.892L7.40264 38.0185L7.46457 38.0609L7.52773 38.1014L10.2261 33.892ZM6.95006 30.72L2.82642 33.5476L2.85353 33.5872L2.8814 33.6262L6.95006 30.72ZM7.21006 21.204L11.2224 24.1875L11.2404 24.1633L11.2581 24.1388L7.21006 21.204ZM11.0581 17.928L13.3336 22.3802L13.3725 22.3603L13.411 22.3398L11.0581 17.928ZM25.1501 15.796L24.6974 20.7755L24.7724 20.7823L24.8476 20.7868L25.1501 15.796ZM28.4781 16.212L27.528 21.1209L27.5423 21.1237L27.5566 21.1264L28.4781 16.212ZM31.5461 16.992L29.9649 21.7354L29.9904 21.7439L30.016 21.7521L31.5461 16.992ZM33.7821 18.136L30.5074 21.9144L30.544 21.9461L30.5811 21.9771L33.7821 18.136ZM34.6141 19.384L29.8064 20.7576L29.8675 20.9714L29.9473 21.1789L34.6141 19.384ZM34.8741 20.632L39.8697 20.8401L39.8741 20.7361V20.632H34.8741ZM34.2501 22.608L38.067 25.8377L38.1256 25.7685L38.1817 25.6971L34.2501 22.608ZM32.8461 23.544L31.3547 18.7716L31.3097 18.7857L31.2649 18.8006L32.8461 23.544ZM31.0781 23.752L30.8007 28.7443L30.808 28.7447L30.8153 28.7451L31.0781 23.752ZM29.3621 23.388L31.219 18.7456L31.0637 18.6835L30.9046 18.6319L29.3621 23.388ZM25.7221 22.348L24.5441 27.2073L24.5441 27.2073L25.7221 22.348ZM16.7781 22.868L18.776 27.4515L18.803 27.4397L18.8299 27.4276L16.7781 22.868ZM15.4261 27.912L19.3979 24.8747V24.8747L15.4261 27.912ZM17.1941 29.524L14.4206 33.6842L14.5335 33.7596L14.6504 33.8286L17.1941 29.524ZM19.7941 30.772L17.9658 35.4258L17.9932 35.4365L18.0208 35.447L19.7941 30.772ZM22.9141 31.864L24.5467 27.138L24.498 27.1213L24.4491 27.1055L22.9141 31.864ZM25.7741 32.852L27.5026 28.1603L27.4548 28.1427L27.4067 28.126L25.7741 32.852ZM29.6221 34.516L27.386 38.9881L27.4103 39.0003L27.4347 39.0122L29.6221 34.516ZM33.0021 36.752L29.672 40.4817L29.7044 40.5107L29.7374 40.5391L33.0021 36.752ZM35.3941 39.768L30.9492 42.0578L30.9763 42.1103L31.0046 42.1623L35.3941 39.768ZM35.1341 49.024L30.7251 46.6657V46.6657L35.1341 49.024ZM31.7541 52.716L28.9806 48.5557L28.9573 48.5712L28.9343 48.587L31.7541 52.716ZM26.6581 54.848L25.5463 49.9732L25.5058 49.9824L25.4654 49.9923L26.6581 54.848ZM11.3701 54.328L13.0127 49.6055H13.0127L11.3701 54.328ZM6.11806 51.416L9.6536 47.8805L9.45778 47.6847L9.24154 47.5117L6.11806 51.416ZM5.33806 50.428L0.78623 52.497L0.786231 52.497L5.33806 50.428ZM5.02606 49.284L10.0055 48.8313L10.001 48.7815L9.99548 48.7318L5.02606 49.284ZM5.23406 47.62L0.638338 45.6504L0.638337 45.6504L5.23406 47.62ZM6.06606 46.424L2.89987 42.5542L2.80875 42.6288L2.72124 42.7075L6.06606 46.424ZM7.31406 45.748L8.78449 50.5269L8.94865 50.4764L9.10896 50.4147L7.31406 45.748ZM10.2781 45.748L8.69692 50.4914L8.74167 50.5063L8.78669 50.5204L10.2781 45.748ZM11.6821 46.476L8.51588 50.3458L8.67742 50.478L8.84942 50.5962L11.6821 46.476ZM13.2941 47.516L10.7216 51.8035H10.7216L13.2941 47.516ZM15.0101 48.348L13.1978 53.008L13.3124 53.0526L13.4289 53.0914L15.0101 48.348ZM17.1421 48.868L16.2854 53.7941H16.2854L17.1421 48.868ZM19.8981 49.076V54.076C21.2139 54.076 22.5039 53.9665 23.7543 53.726L22.8101 48.816L21.8658 43.906C21.3136 44.0122 20.6622 44.076 19.8981 44.076V49.076ZM22.8101 48.816L23.7205 53.7324C25.0829 53.4801 26.4483 53.04 27.7072 52.3111L25.2021 47.984L22.6969 43.6569C22.6385 43.6907 22.4092 43.8052 21.8996 43.8996L22.8101 48.816ZM25.2021 47.984L27.7072 52.3111C28.9906 51.5681 30.1141 50.5515 30.9599 49.2443L26.7621 46.528L22.5642 43.8117C22.5991 43.7578 22.6389 43.7119 22.6745 43.6787C22.7088 43.6467 22.7224 43.6421 22.6969 43.6569L25.2021 47.984ZM26.7621 46.528L30.9599 49.2443C31.9335 47.7396 32.3341 46.0744 32.3341 44.448H27.3341H22.3341C22.3341 44.448 22.3341 44.4285 22.3387 44.3921C22.3434 44.3554 22.3526 44.3037 22.37 44.2402C22.4068 44.1064 22.4706 43.9565 22.5642 43.8117L26.7621 46.528ZM27.3341 44.448H32.3341C32.3341 42.6741 31.8761 40.8798 30.7846 39.2846L26.6581 42.108L22.5315 44.9314C22.4509 44.8136 22.394 44.6873 22.3615 44.5747C22.3304 44.4671 22.3341 44.4158 22.3341 44.448H27.3341ZM26.6581 42.108L30.8855 39.438C30.0512 38.117 28.9554 37.0583 27.7156 36.2317L24.9421 40.392L22.1686 44.5522C22.2807 44.627 22.3464 44.6854 22.3815 44.7205C22.4156 44.7546 22.4279 44.7737 22.4306 44.778L26.6581 42.108ZM24.9421 40.392L27.8483 36.3233C26.7656 35.55 25.5834 34.9192 24.3325 34.4095L22.4461 39.04L20.5596 43.6705C21.1807 43.9235 21.6625 44.194 22.0359 44.4607L24.9421 40.392ZM22.4461 39.04L24.3325 34.4095C23.3077 33.992 22.2513 33.5961 21.164 33.2211L19.5341 37.948L17.9041 42.6749C18.8275 42.9933 19.7124 43.3253 20.5596 43.6705L22.4461 39.04ZM19.5341 37.948L21.2091 33.2369C19.6779 32.6925 18.0928 32.113 16.4537 31.4984L14.6981 36.18L12.9424 40.8616C14.6313 41.495 16.2702 42.0942 17.859 42.6591L19.5341 37.948ZM14.6981 36.18L16.572 31.5444C15.2034 30.9912 13.9923 30.3671 12.9244 29.6826L10.2261 33.892L7.52773 38.1014C9.16385 39.1502 10.934 40.0515 12.8241 40.8155L14.6981 36.18ZM10.2261 33.892L13.0495 29.7655C12.1812 29.1714 11.5217 28.5179 11.0187 27.8138L6.95006 30.72L2.8814 33.6262C4.11179 35.3487 5.63622 36.8099 7.40264 38.0185L10.2261 33.892ZM6.95006 30.72L11.0737 27.8924C10.8972 27.6349 10.7021 27.202 10.7021 26.352H5.70206H0.702063C0.702063 28.8993 1.33896 31.3784 2.82642 33.5476L6.95006 30.72ZM5.70206 26.352H10.7021C10.7021 25.0901 10.9963 24.4916 11.2224 24.1875L7.21006 21.204L3.19775 18.2205C1.41318 20.6204 0.702063 23.4539 0.702063 26.352H5.70206ZM7.21006 21.204L11.2581 24.1388C11.7897 23.4056 12.4592 22.8271 13.3336 22.3802L11.0581 17.928L8.78251 13.4758C6.53694 14.6236 4.64111 16.229 3.16201 18.2692L7.21006 21.204ZM11.0581 17.928L13.411 22.3398C14.4595 21.7806 15.7039 21.3473 17.189 21.0821L16.3101 16.16L15.4311 11.2379C13.0336 11.666 10.7766 12.4114 8.70512 13.5162L11.0581 17.928ZM16.3101 16.16L17.189 21.0821C18.8556 20.7845 20.468 20.64 22.0301 20.64V15.64V10.64C19.8481 10.64 17.6472 10.8421 15.4311 11.2379L16.3101 16.16ZM22.0301 15.64V20.64C22.7856 20.64 23.6716 20.6822 24.6974 20.7755L25.1501 15.796L25.6027 10.8165C24.3406 10.7018 23.1465 10.64 22.0301 10.64V15.64ZM25.1501 15.796L24.8476 20.7868C25.7843 20.8436 26.6769 20.9562 27.528 21.1209L28.4781 16.212L29.4282 11.3031C28.1299 11.0518 26.8038 10.8871 25.4525 10.8052L25.1501 15.796ZM28.4781 16.212L27.5566 21.1264C28.4736 21.2983 29.2728 21.5047 29.9649 21.7354L31.5461 16.992L33.1272 12.2486C31.9473 11.8553 30.7012 11.5417 29.3995 11.2976L28.4781 16.212ZM31.5461 16.992L30.016 21.7521C30.2975 21.8426 30.4685 21.9186 30.5557 21.9632C30.6443 22.0086 30.6087 22.0022 30.5074 21.9144L33.7821 18.136L37.0567 14.3575C35.8433 13.3059 34.4069 12.6596 33.0761 12.2319L31.5461 16.992ZM33.7821 18.136L30.5811 21.9771C30.4502 21.868 30.2911 21.7054 30.1418 21.4815C29.9908 21.255 29.8778 21.0074 29.8064 20.7576L34.6141 19.384L39.4217 18.0104C38.9869 16.4886 38.1111 15.235 36.983 14.2949L33.7821 18.136ZM34.6141 19.384L29.9473 21.1789C29.9566 21.2029 29.8741 21.0035 29.8741 20.632H34.8741H39.8741C39.8741 19.4978 39.6182 18.4664 39.2808 17.5891L34.6141 19.384ZM34.8741 20.632L29.8784 20.4238C29.8724 20.5679 29.8597 20.1028 30.3185 19.5189L34.2501 22.608L38.1817 25.6971C39.4031 24.1426 39.8064 22.3601 39.8697 20.8401L34.8741 20.632ZM34.2501 22.608L30.4331 19.3783C30.53 19.2639 30.665 19.1361 30.8396 19.0197C31.0146 18.903 31.1928 18.8222 31.3547 18.7716L32.8461 23.544L34.3375 28.3164C35.8131 27.8552 37.0829 27.0007 38.067 25.8377L34.2501 22.608ZM32.8461 23.544L31.2649 18.8006C31.4458 18.7403 31.4985 18.7672 31.3409 18.7589L31.0781 23.752L30.8153 28.7451C31.9749 28.8061 33.2063 28.6944 34.4272 28.2874L32.8461 23.544ZM31.0781 23.752L31.3554 18.7597C31.2817 18.7556 31.2377 18.7479 31.2186 18.7438C31.2001 18.7399 31.2021 18.7388 31.219 18.7456L29.3621 23.388L27.5051 28.0304C28.5839 28.4619 29.6969 28.683 30.8007 28.7443L31.0781 23.752ZM29.3621 23.388L30.9046 18.6319C29.5186 18.1824 28.1829 17.7997 26.9001 17.4887L25.7221 22.348L24.5441 27.2073C25.5492 27.4509 26.6402 27.7616 27.8195 28.1441L29.3621 23.388ZM25.7221 22.348L26.9001 17.4888C25.3278 17.1076 23.6979 16.932 22.0301 16.932V21.932V26.932C22.9969 26.932 23.8283 27.0337 24.5441 27.2073L25.7221 22.348ZM22.0301 21.932V16.932C19.4665 16.932 16.9582 17.304 14.7262 18.3084L16.7781 22.868L18.8299 27.4276C19.3713 27.184 20.3643 26.932 22.0301 26.932V21.932ZM16.7781 22.868L14.7801 18.2845C13.4431 18.8673 12.1096 19.7966 11.1305 21.2276C10.1374 22.6791 9.75006 24.2951 9.75006 25.832H14.7501H19.7501C19.7501 25.9822 19.7007 26.4109 19.3836 26.8744C19.0805 27.3174 18.761 27.458 18.776 27.4515L16.7781 22.868ZM14.7501 25.832H9.75006C9.75006 27.6398 10.2855 29.4209 11.4543 30.9492L15.4261 27.912L19.3979 24.8747C19.51 25.0214 19.6089 25.2036 19.6742 25.4046C19.7382 25.6015 19.7501 25.7548 19.7501 25.832H14.7501ZM15.4261 27.912L11.4543 30.9492C12.2937 32.0469 13.3142 32.9467 14.4206 33.6842L17.1941 29.524L19.9676 25.3637C19.618 25.1307 19.4598 24.9557 19.3979 24.8747L15.4261 27.912ZM17.1941 29.524L14.6504 33.8286C15.6778 34.4357 16.7899 34.9638 17.9658 35.4258L19.7941 30.772L21.6223 26.1182C20.8569 25.8175 20.2357 25.5136 19.7377 25.2194L17.1941 29.524ZM19.7941 30.772L18.0208 35.447C19.1086 35.8596 20.2282 36.2513 21.3791 36.6225L22.9141 31.864L24.4491 27.1055C23.4505 26.7833 22.4902 26.447 21.5673 26.097L19.7941 30.772ZM22.9141 31.864L21.2815 36.59L24.1415 37.5779L25.7741 32.852L27.4067 28.126L24.5467 27.138L22.9141 31.864ZM25.7741 32.852L24.0455 37.5437C25.1908 37.9657 26.304 38.4471 27.386 38.9881L29.6221 34.516L31.8581 30.0439C30.4441 29.3369 28.992 28.709 27.5026 28.1603L25.7741 32.852ZM29.6221 34.516L27.4347 39.0122C28.3424 39.4538 29.0764 39.9499 29.672 40.4817L33.0021 36.752L36.3321 33.0223C34.9864 31.8208 33.467 30.8262 31.8094 30.0198L29.6221 34.516ZM33.0021 36.752L29.7374 40.5391C30.2725 41.0004 30.6629 41.5019 30.9492 42.0578L35.3941 39.768L39.8389 37.4782C38.9466 35.7461 37.7423 34.237 36.2668 32.9649L33.0021 36.752ZM35.3941 39.768L31.0046 42.1623C31.1646 42.4556 31.3301 42.94 31.3301 43.772H36.3301H41.3301C41.3301 41.5533 40.8715 39.3684 39.7835 37.3737L35.3941 39.768ZM36.3301 43.772H31.3301C31.3301 45.1153 31.0672 46.0262 30.7251 46.6657L35.1341 49.024L39.543 51.3823C40.7956 49.0404 41.3301 46.45 41.3301 43.772H36.3301ZM35.1341 49.024L30.7251 46.6657C30.3301 47.4042 29.7763 48.0252 28.9806 48.5557L31.7541 52.716L34.5276 56.8763C36.6438 55.4654 38.3433 53.6251 39.543 51.3823L35.1341 49.024ZM31.7541 52.716L28.9343 48.587C28.1136 49.1474 27.0177 49.6376 25.5463 49.9732L26.6581 54.848L27.7699 59.7228C30.2504 59.1571 32.5519 58.2259 34.5739 56.845L31.7541 52.716ZM26.6581 54.848L25.4654 49.9923C23.9356 50.3681 22.1754 50.576 20.1581 50.576V55.576V60.576C22.8554 60.576 25.4286 60.2986 27.8507 59.7037L26.6581 54.848ZM20.1581 55.576V50.576C17.059 50.576 14.7216 50.1999 13.0127 49.6055L11.3701 54.328L9.72746 59.0505C12.8025 60.1201 16.3238 60.576 20.1581 60.576V55.576ZM11.3701 54.328L13.0127 49.6055C10.9449 48.8863 9.99998 48.2269 9.6536 47.8805L6.11806 51.416L2.58253 54.9515C4.45481 56.8238 7.01126 58.1057 9.72746 59.0505L11.3701 54.328ZM6.11806 51.416L9.24154 47.5117C9.4709 47.6951 9.71856 47.9821 9.88989 48.359L5.33806 50.428L0.786231 52.497C1.30423 53.6366 2.07189 54.5822 2.99459 55.3203L6.11806 51.416ZM5.33806 50.428L9.88989 48.359C9.92705 48.4407 9.98483 48.6036 10.0055 48.8313L5.02606 49.284L0.0465965 49.7367C0.136631 50.7271 0.402409 51.6526 0.78623 52.497L5.33806 50.428ZM5.02606 49.284L9.99548 48.7318C10.0035 48.8039 10.0213 49.1427 9.82979 49.5896L5.23406 47.62L0.638337 45.6504C0.0308309 47.0679 -0.0900295 48.5161 0.056644 49.8362L5.02606 49.284ZM5.23406 47.62L9.82979 49.5896C9.79013 49.6821 9.66988 49.9074 9.41089 50.1405L6.06606 46.424L2.72124 42.7075C1.76891 43.5646 1.09399 44.5872 0.638338 45.6504L5.23406 47.62ZM6.06606 46.424L9.23225 50.2938C9.13542 50.373 8.98027 50.4667 8.78449 50.5269L7.31406 45.748L5.84363 40.9691C4.74652 41.3067 3.75937 41.851 2.89987 42.5542L6.06606 46.424ZM7.31406 45.748L9.10896 50.4147C8.98384 50.4628 8.84318 50.488 8.71806 50.488V45.488V40.488C7.62228 40.488 6.54562 40.6865 5.51917 41.0813L7.31406 45.748ZM8.71806 45.488V50.488C8.70899 50.488 8.70047 50.4876 8.69284 50.487C8.68522 50.4863 8.67952 50.4855 8.67607 50.485C8.67264 50.4844 8.67232 50.4842 8.67538 50.485C8.67847 50.4857 8.68559 50.4876 8.69692 50.4914L10.2781 45.748L11.8592 41.0046C10.8571 40.6706 9.80396 40.488 8.71806 40.488V45.488ZM10.2781 45.748L8.78669 50.5204C8.83812 50.5365 8.7103 50.5049 8.51588 50.3458L11.6821 46.476L14.8482 42.6062C13.8912 41.8231 12.8273 41.3062 11.7694 40.9756L10.2781 45.748ZM11.6821 46.476L8.84942 50.5962C9.47997 51.0297 10.1042 51.433 10.7216 51.8035L13.2941 47.516L15.8665 43.2285C15.444 42.975 14.9935 42.685 14.5147 42.3558L11.6821 46.476ZM13.2941 47.516L10.7216 51.8035C11.5075 52.275 12.3372 52.6733 13.1978 53.008L15.0101 48.348L16.8223 43.688C16.4349 43.5373 16.1206 43.381 15.8665 43.2285L13.2941 47.516ZM15.0101 48.348L13.4289 53.0914C14.3361 53.3938 15.2959 53.622 16.2854 53.7941L17.1421 48.868L17.9988 43.9419C17.3935 43.8367 16.9321 43.7182 16.5912 43.6046L15.0101 48.348ZM17.1421 48.868L16.2854 53.7941C17.4322 53.9935 18.6474 54.076 19.8981 54.076V49.076V44.076C19.0687 44.076 18.4466 44.0198 17.9988 43.9419L17.1421 48.868ZM59.4526 53.86L63.4157 50.8114L60.6998 47.2807L56.8801 49.5725L59.4526 53.86ZM42.8126 53.392L45.918 49.4733L45.9084 49.4657L42.8126 53.392ZM40.0046 48.088L45.0019 47.9242L44.999 47.834L44.9927 47.744L40.0046 48.088ZM43.3326 41.328L45.9497 45.5884L45.9581 45.5832L45.9664 45.578L43.3326 41.328ZM58.6726 39.04V44.04H63.9949L63.6629 38.7281L58.6726 39.04ZM56.9046 36.18L53.8437 40.1336L53.9141 40.1881L53.9864 40.2401L56.9046 36.18ZM47.1286 35.868L48.9855 40.5104L49.0225 40.4956L49.0593 40.4802L47.1286 35.868ZM42.3966 34.828L37.7542 36.685L37.8063 36.8153L37.8657 36.9424L42.3966 34.828ZM43.9046 30.72L46.0891 35.2175L46.1438 35.191L46.1978 35.1631L43.9046 30.72ZM47.9086 29.42L48.8687 34.327L48.909 34.3191L48.9491 34.3105L47.9086 29.42ZM60.9606 30.408L58.8969 34.9623L58.9266 34.9757L58.9565 34.9888L60.9606 30.408ZM65.8486 34.308L61.634 36.9982L61.6675 37.0506L61.7023 37.1023L65.8486 34.308ZM66.3166 54.276L63.2594 50.3196L63.2043 50.3621L63.1504 50.4062L66.3166 54.276ZM49.6246 49.076L46.6971 53.1294L46.6971 53.1294L49.6246 49.076ZM56.7486 48.556L59.3376 52.8335V52.8335L56.7486 48.556ZM58.7246 44.656H63.7246V39.656H58.7246V44.656ZM49.8326 45.28L47.5198 40.8471L47.4788 40.8684L47.4383 40.8905L49.8326 45.28ZM59.4526 53.86L56.8801 49.5725C56.0697 50.0588 54.4165 50.576 51.3926 50.576V55.576V60.576C55.302 60.576 59.0221 59.9492 62.0251 58.1475L59.4526 53.86ZM51.3926 55.576V50.576C47.9578 50.576 46.456 49.8996 45.918 49.4733L42.8126 53.392L39.7072 57.3107C42.8438 59.7964 47.0621 60.576 51.3926 60.576V55.576ZM42.8126 53.392L45.9084 49.4657C45.1515 48.8689 45.0185 48.4293 45.0019 47.9242L40.0046 48.088L35.0073 48.2518C35.1294 51.976 36.8683 55.0724 39.7168 57.3183L42.8126 53.392ZM40.0046 48.088L44.9927 47.744C44.9371 46.9368 45.0739 46.5324 45.1664 46.3444C45.2505 46.1737 45.4299 45.9077 45.9497 45.5884L43.3326 41.328L40.7155 37.0676C38.8086 38.239 37.22 39.845 36.1947 41.9276C35.178 43.9929 34.8641 46.2232 35.0164 48.432L40.0046 48.088ZM43.3326 41.328L45.9664 45.578C47.2673 44.7719 49.8218 44.04 54.3046 44.04V39.04V34.04C49.0807 34.04 44.3206 34.8335 40.6988 37.0779L43.3326 41.328ZM54.3046 39.04V44.04H58.6726V39.04V34.04H54.3046V39.04ZM58.6726 39.04L63.6629 38.7281C63.4787 35.782 61.8436 33.5724 59.8228 32.1199L56.9046 36.18L53.9864 40.2401C54.1203 40.3363 54.0442 40.3139 53.9256 40.1221C53.8659 40.0255 53.8062 39.9027 53.76 39.7582C53.7138 39.6136 53.69 39.4744 53.6823 39.3519L58.6726 39.04ZM56.9046 36.18L59.9655 32.2264C57.7367 30.5009 55.0526 29.932 52.4846 29.932V34.932V39.932C53.6606 39.932 53.9232 40.1951 53.8437 40.1336L56.9046 36.18ZM52.4846 34.932V29.932C49.9239 29.932 47.4483 30.3138 45.1979 31.2558L47.1286 35.868L49.0593 40.4802C49.7903 40.1742 50.8853 39.932 52.4846 39.932V34.932ZM47.1286 35.868L45.2716 31.2256C45.0364 31.3197 44.8812 31.3635 44.7985 31.3823C44.7151 31.4013 44.7353 31.388 44.8406 31.388V36.388V41.388C46.3414 41.388 47.7557 41.0023 48.9855 40.5104L47.1286 35.868ZM44.8406 36.388V31.388C45.0442 31.388 45.5279 31.4426 46.0618 31.7834C46.5946 32.1235 46.8448 32.5364 46.9275 32.7136L42.3966 34.828L37.8657 36.9424C38.4337 38.1596 39.3339 39.3525 40.6814 40.2126C42.0299 41.0734 43.493 41.388 44.8406 41.388V36.388ZM42.3966 34.828L47.039 32.971C47.0118 32.9032 47.0846 33.0527 47.0846 33.372H42.0846H37.0846C37.0846 34.5926 37.3654 35.7128 37.7542 36.685L42.3966 34.828ZM42.0846 33.372H47.0846C47.0846 33.6879 46.9869 34.181 46.6622 34.6542C46.3638 35.0889 46.064 35.2298 46.0891 35.2175L43.9046 30.72L41.7201 26.2225C40.5319 26.7996 39.322 27.6771 38.417 28.9958C37.4856 30.353 37.0846 31.8775 37.0846 33.372H42.0846ZM43.9046 30.72L46.1978 35.1631C46.7364 34.8851 47.5898 34.5772 48.8687 34.327L47.9086 29.42L46.9485 24.513C45.038 24.8868 43.2222 25.4455 41.6114 26.2769L43.9046 30.72ZM47.9086 29.42L48.9491 34.3105C50.2594 34.0317 51.5051 33.9 52.6926 33.9V28.9V23.9C50.7601 23.9 48.8165 24.1149 46.8681 24.5295L47.9086 29.42ZM52.6926 28.9V33.9C55.511 33.9 57.5123 34.3349 58.8969 34.9623L60.9606 30.408L63.0242 25.8537C59.9715 24.4705 56.4608 23.9 52.6926 23.9V28.9ZM60.9606 30.408L58.9565 34.9888C60.4972 35.6628 61.2479 36.3932 61.634 36.9982L65.8486 34.308L70.0632 31.6178C68.3693 28.9641 65.8614 27.0945 62.9647 25.8272L60.9606 30.408ZM65.8486 34.308L61.7023 37.1023C62.2149 37.8629 62.4606 38.6562 62.4606 39.612H67.4606H72.4606C72.4606 36.6852 71.6317 33.9424 69.9949 31.5137L65.8486 34.308ZM67.4606 39.612H62.4606V51.728H67.4606H72.4606V39.612H67.4606ZM67.4606 51.728H62.4606C62.4606 51.7099 62.4648 51.4797 62.6132 51.1491C62.7715 50.7966 63.0138 50.5093 63.2594 50.3196L66.3166 54.276L69.3738 58.2324C71.5571 56.5453 72.4606 54.121 72.4606 51.728H67.4606ZM66.3166 54.276L63.1504 50.4062C63.2348 50.3372 63.317 50.2851 63.3885 50.248C63.459 50.2114 63.5089 50.1946 63.5279 50.1889C63.5608 50.179 63.4685 50.212 63.1966 50.212V55.212V60.212C65.2782 60.212 67.5656 59.7144 69.4828 58.1458L66.3166 54.276ZM63.1966 55.212V50.212C62.9507 50.212 62.7823 50.1964 62.6793 50.1812C62.5761 50.1659 62.5597 50.1542 62.6068 50.1712C62.6566 50.1892 62.7777 50.2396 62.9341 50.3485C63.0948 50.4604 63.2643 50.6146 63.4157 50.8114L59.4526 53.86L55.4895 56.9086C57.5746 59.6192 60.7577 60.212 63.1966 60.212V55.212ZM48.6886 47.256H43.6886C43.6886 49.6418 44.7859 51.7491 46.6971 53.1294L49.6246 49.076L52.552 45.0226C52.7957 45.1986 53.121 45.5139 53.369 45.9963C53.6179 46.4802 53.6886 46.937 53.6886 47.256H48.6886ZM49.6246 49.076L46.6971 53.1294C48.4747 54.4132 50.5099 54.752 52.2246 54.752V49.752V44.752C51.9979 44.752 51.9393 44.7279 52.0008 44.7439C52.0712 44.7622 52.2862 44.8306 52.552 45.0226L49.6246 49.076ZM52.2246 49.752V54.752C54.739 54.752 57.1604 54.1513 59.3376 52.8335L56.7486 48.556L54.1596 44.2785C53.7022 44.5554 53.1075 44.752 52.2246 44.752V49.752ZM56.7486 48.556L59.3376 52.8335C61.506 51.5211 63.7246 49.1962 63.7246 45.696H58.7246H53.7246C53.7246 45.47 53.7595 45.2238 53.838 44.9778C53.916 44.7337 54.0208 44.54 54.1169 44.4008C54.2977 44.1392 54.4032 44.1311 54.1596 44.2785L56.7486 48.556ZM58.7246 45.696H63.7246V44.656H58.7246H53.7246V45.696H58.7246ZM58.7246 44.656V39.656H54.1486V44.656V49.656H58.7246V44.656ZM54.1486 44.656V39.656C52.0583 39.656 49.5033 39.8122 47.5198 40.8471L49.8326 45.28L52.1454 49.7129C51.9621 49.8086 51.8595 49.8328 51.8948 49.823C51.9241 49.8148 52.0272 49.7892 52.225 49.7605C52.6306 49.7019 53.2553 49.656 54.1486 49.656V44.656ZM49.8326 45.28L47.4383 40.8905C46.3684 41.4741 45.3596 42.3508 44.6475 43.5808C43.941 44.8011 43.6886 46.0886 43.6886 47.256H48.6886H53.6886C53.6886 47.5221 53.6269 48.0296 53.3017 48.5912C52.9709 49.1625 52.5341 49.5019 52.2269 49.6695L49.8326 45.28ZM96.4173 30.252L94.5867 34.9048L94.5995 34.9099L94.6123 34.9148L96.4173 30.252ZM101.565 33.944L97.6366 37.0368V37.0368L101.565 33.944ZM103.645 39.82H108.645V39.7064L108.64 39.593L103.645 39.82ZM99.9533 52.716L96.8913 48.7632V48.7633L99.9533 52.716ZM85.8613 54.952L84.3556 59.7199L84.3732 59.7255L84.3909 59.7309L85.8613 54.952ZM83.1573 53.496L86.9202 50.2035L82.7364 45.422L79.0724 50.6126L83.1573 53.496ZM81.6493 54.796L79.5203 50.2719L79.4138 50.322L79.3098 50.3771L81.6493 54.796ZM76.0333 54.328L79.1995 50.4582L79.1456 50.4141L79.0905 50.3716L76.0333 54.328ZM76.1373 16.16L79.1373 20.16L79.15 20.1504L79.1627 20.1408L76.1373 16.16ZM82.3773 16.16L79.2738 20.0802L79.325 20.1208L79.3773 20.16L82.3773 16.16ZM83.6253 30.096H78.6253V37.6191L85.5614 34.7059L83.6253 30.096ZM83.7293 44.864L88.7083 44.4062L88.7057 44.3778L88.7027 44.3495L83.7293 44.864ZM93.0893 48.192L89.9823 44.2745L89.9487 44.3012L89.9156 44.3284L93.0893 48.192ZM94.8053 44.864L89.8439 44.2438L89.8355 44.3111L89.8289 44.3785L94.8053 44.864ZM94.8053 39.508L89.8301 40.0055L89.8319 40.0231L89.8337 40.0407L94.8053 39.508ZM93.1413 36.388L90.0716 40.3348L90.1521 40.3974L90.2351 40.4567L93.1413 36.388ZM85.4453 36.492L88.4672 40.4755L88.4773 40.4678L88.4874 40.46L85.4453 36.492ZM83.7293 39.664L88.6834 40.3396L88.6947 40.257L88.7032 40.1741L83.7293 39.664ZM89.3453 29.004V34.004C91.4081 34.004 93.1328 34.3328 94.5867 34.9048L96.4173 30.252L98.2479 25.5992C95.4724 24.5072 92.4824 24.004 89.3453 24.004V29.004ZM96.4173 30.252L94.6123 34.9148C96.0214 35.4603 96.9685 36.1881 97.6366 37.0368L101.565 33.944L105.494 30.8512C103.597 28.4412 101.112 26.7077 98.2223 25.5892L96.4173 30.252ZM101.565 33.944L97.6366 37.0368C98.206 37.7601 98.5887 38.6879 98.6504 40.047L103.645 39.82L108.64 39.593C108.494 36.3761 107.49 33.3866 105.494 30.8512L101.565 33.944ZM103.645 39.82H98.6453V41.588H103.645H108.645V39.82H103.645ZM103.645 41.588H98.6453V44.76H103.645H108.645V41.588H103.645ZM103.645 44.76H98.6453C98.6453 46.7731 98.0074 47.8987 96.8913 48.7632L99.9533 52.716L103.015 56.6688C106.822 53.72 108.645 49.5416 108.645 44.76H103.645ZM99.9533 52.716L96.8913 48.7633C95.5862 49.7743 93.4189 50.576 89.8133 50.576V55.576V60.576C94.805 60.576 99.3977 59.4711 103.015 56.6687L99.9533 52.716ZM89.8133 55.576V50.576C89.0774 50.576 88.2559 50.4575 87.3317 50.1731L85.8613 54.952L84.3909 59.7309C86.1707 60.2785 87.9838 60.576 89.8133 60.576V55.576ZM85.8613 54.952L87.3669 50.1841C87.146 50.1143 86.9699 50.0502 86.8332 49.9947C86.6955 49.9388 86.6106 49.8967 86.5678 49.8736C86.5239 49.85 86.5412 49.8554 86.5993 49.899C86.657 49.9423 86.7767 50.0395 86.9202 50.2035L83.1573 53.496L79.3944 56.7885C80.811 58.4075 82.8104 59.2319 84.3556 59.7199L85.8613 54.952ZM83.1573 53.496L79.0724 50.6126C79.0797 50.6024 79.1201 50.5479 79.2036 50.4759C79.2891 50.4022 79.397 50.3299 79.5203 50.2719L81.6493 54.796L83.7783 59.3201C85.2324 58.6358 86.382 57.5979 87.2421 56.3794L83.1573 53.496ZM81.6493 54.796L79.3098 50.3771C79.4478 50.304 79.5539 50.2648 79.6118 50.246C79.6696 50.2272 79.6914 50.2248 79.667 50.2293C79.6431 50.2337 79.5852 50.2428 79.4876 50.2505C79.3903 50.2583 79.2627 50.264 79.1013 50.264V55.264V60.264C80.5491 60.264 82.3503 60.0823 83.9887 59.2149L81.6493 54.796ZM79.1013 55.264V50.264C78.859 50.264 78.7864 50.2339 78.8313 50.2476C78.8556 50.255 78.9068 50.2731 78.9757 50.3092C79.0453 50.3457 79.1223 50.3951 79.1995 50.4582L76.0333 54.328L72.8671 58.1978C74.7623 59.7484 77.0169 60.264 79.1013 60.264V55.264ZM76.0333 54.328L79.0905 50.3716C79.3361 50.5613 79.5784 50.8486 79.7366 51.201C79.8851 51.5317 79.8893 51.7619 79.8893 51.78H74.8893H69.8893C69.8893 54.173 70.7928 56.5973 72.976 58.2844L76.0333 54.328ZM74.8893 51.78H79.8893V18.968H74.8893H69.8893V51.78H74.8893ZM74.8893 18.968H79.8893C79.8893 18.8942 79.9014 19.0657 79.7703 19.3607C79.6264 19.6847 79.3928 19.9684 79.1373 20.16L76.1373 16.16L73.1373 12.16C70.7878 13.9221 69.8893 16.5 69.8893 18.968H74.8893ZM76.1373 16.16L79.1627 20.1408C79.1544 20.1471 79.1397 20.157 79.1202 20.1671C79.1007 20.1772 79.0849 20.1831 79.0767 20.1857C79.069 20.1882 79.0762 20.1851 79.1029 20.1812C79.1301 20.1772 79.1803 20.172 79.2573 20.172V15.172V10.172C77.0831 10.172 74.948 10.7837 73.1119 12.1792L76.1373 16.16ZM79.2573 15.172V20.172C79.4415 20.172 79.4966 20.1961 79.4638 20.1857C79.448 20.1807 79.4184 20.1697 79.3805 20.1497C79.3423 20.1295 79.3058 20.1056 79.2738 20.0802L82.3773 16.16L85.4808 12.2398C83.6161 10.7635 81.4252 10.172 79.2573 10.172V15.172ZM82.3773 16.16L79.3773 20.16C79.1218 19.9684 78.8882 19.6847 78.7442 19.3607C78.6131 19.0657 78.6253 18.8942 78.6253 18.968H83.6253H88.6253C88.6253 16.5 87.7268 13.9221 85.3773 12.16L82.3773 16.16ZM83.6253 18.968H78.6253V30.096H83.6253H88.6253V18.968H83.6253ZM83.6253 30.096L85.5614 34.7059C86.6196 34.2615 87.8592 34.004 89.3453 34.004V29.004V24.004C86.6713 24.004 84.0977 24.4745 81.6891 25.4861L83.6253 30.096ZM83.7293 44.864L78.7503 45.3218C78.9788 47.8064 79.9564 50.3397 82.2046 52.1508C84.3484 53.8777 86.962 54.388 89.3453 54.388V49.388V44.388C88.8289 44.388 88.5344 44.3305 88.4034 44.2935C88.2855 44.2602 88.3468 44.2576 88.4779 44.3632C88.5404 44.4135 88.601 44.4745 88.6535 44.5417C88.7055 44.6083 88.7367 44.6644 88.7525 44.6976C88.7827 44.7613 88.7347 44.6937 88.7083 44.4062L83.7293 44.864ZM89.3453 49.388V54.388C91.7711 54.388 94.2175 53.7358 96.263 52.0556L93.0893 48.192L89.9156 44.3284C89.94 44.3083 89.9514 44.3109 89.9038 44.3261C89.8448 44.345 89.6744 44.388 89.3453 44.388V49.388ZM93.0893 48.192L96.1963 52.1095C98.3898 50.3697 99.5276 47.9531 99.7817 45.3495L94.8053 44.864L89.8289 44.3785C89.8204 44.4658 89.809 44.5099 89.8062 44.5197C89.8038 44.5283 89.8087 44.5086 89.8283 44.4706C89.8483 44.4318 89.8759 44.3889 89.9095 44.3484C89.9428 44.3081 89.9704 44.2839 89.9823 44.2745L93.0893 48.192ZM94.8053 44.864L99.7667 45.4842C99.8962 44.4481 99.9613 43.4089 99.9613 42.368H94.9613H89.9613C89.9613 42.9911 89.9224 43.6159 89.8439 44.2438L94.8053 44.864ZM94.9613 42.368H99.9613C99.9613 41.2466 99.899 40.1154 99.7768 38.9753L94.8053 39.508L89.8337 40.0407C89.9196 40.8419 89.9613 41.6174 89.9613 42.368H94.9613ZM94.8053 39.508L99.7805 39.0105C99.5251 36.4569 98.391 33.9933 96.0475 32.3193L93.1413 36.388L90.2351 40.4567C90.1773 40.4154 90.1076 40.3556 90.0377 40.2761C89.9677 40.1965 89.9129 40.1149 89.8735 40.0409C89.7932 39.8903 89.8141 39.8452 89.8301 40.0055L94.8053 39.508ZM93.1413 36.388L96.211 32.4412C94.1376 30.8286 91.6706 30.296 89.3453 30.296V35.296V40.296C90.2093 40.296 90.273 40.4914 90.0716 40.3348L93.1413 36.388ZM89.3453 35.296V30.296C86.9018 30.296 84.4736 30.9366 82.4031 32.524L85.4453 36.492L88.4874 40.46C88.497 40.4527 88.6687 40.296 89.3453 40.296V35.296ZM85.4453 36.492L82.4233 32.5085C80.2227 34.178 79.0232 36.5423 78.7554 39.1539L83.7293 39.664L88.7032 40.1741C88.7141 40.0678 88.7255 40.115 88.66 40.2361C88.6295 40.2925 88.5918 40.3468 88.551 40.3939C88.5106 40.4404 88.4788 40.4667 88.4672 40.4755L85.4453 36.492ZM83.7293 39.664L78.7751 38.9884C78.6383 39.9921 78.5733 41.016 78.5733 42.056H83.5733H88.5733C88.5733 41.432 88.6123 40.8612 88.6834 40.3396L83.7293 39.664ZM83.5733 42.056H78.5733C78.5733 43.1199 78.637 44.2295 78.7558 45.3785L83.7293 44.864L88.7027 44.3495C88.6136 43.4878 88.5733 42.7254 88.5733 42.056H83.5733ZM111.176 54.224L114.3 50.3197L114.29 50.3117L114.28 50.3038L111.176 54.224ZM111.176 16.16L108.151 12.1792L108.112 12.2091L108.073 12.2398L111.176 16.16ZM117.416 16.16L120.442 12.1792V12.1792L117.416 16.16ZM117.416 54.224L114.391 50.2432L114.341 50.2808L114.293 50.3197L117.416 54.224ZM111.176 54.224L114.28 50.3038C114.512 50.4879 114.715 50.7497 114.836 51.0324C114.946 51.2878 114.928 51.4181 114.928 51.312H109.928H104.928C104.928 53.7683 105.79 56.3372 108.073 58.1442L111.176 54.224ZM109.928 51.312H114.928V19.072H109.928H104.928V51.312H109.928ZM109.928 19.072H114.928C114.928 18.9659 114.946 19.0962 114.836 19.3516C114.715 19.6343 114.512 19.8961 114.28 20.0802L111.176 16.16L108.073 12.2398C105.79 14.0468 104.928 16.6157 104.928 19.072H109.928ZM111.176 16.16L114.202 20.1408C114.193 20.1471 114.179 20.157 114.159 20.1671C114.14 20.1772 114.124 20.1831 114.116 20.1857C114.108 20.1882 114.115 20.1851 114.142 20.1812C114.169 20.1772 114.219 20.172 114.296 20.172V15.172V10.172C112.122 10.172 109.987 10.7837 108.151 12.1792L111.176 16.16ZM114.296 15.172V20.172C114.373 20.172 114.424 20.1772 114.451 20.1812C114.477 20.1851 114.485 20.1882 114.477 20.1857C114.469 20.1831 114.453 20.1772 114.433 20.1671C114.414 20.157 114.399 20.1471 114.391 20.1408L117.416 16.16L120.442 12.1792C118.606 10.7837 116.471 10.172 114.296 10.172V15.172ZM117.416 16.16L114.391 20.1408C114.173 19.9749 113.96 19.7205 113.826 19.4203C113.703 19.1459 113.716 18.9907 113.716 19.072H118.716H123.716C123.716 16.541 122.783 13.9586 120.442 12.1792L117.416 16.16ZM118.716 19.072H113.716V51.312H118.716H123.716V19.072H118.716ZM118.716 51.312H113.716C113.716 51.3933 113.703 51.2381 113.826 50.9637C113.96 50.6635 114.173 50.4091 114.391 50.2432L117.416 54.224L120.442 58.2048C122.783 56.4254 123.716 53.843 123.716 51.312H118.716ZM117.416 54.224L114.293 50.3197C114.3 50.3143 114.316 50.3026 114.34 50.2895C114.364 50.2763 114.387 50.2667 114.405 50.2606C114.423 50.2546 114.428 50.255 114.414 50.2571C114.399 50.2594 114.361 50.264 114.296 50.264V55.264V60.264C116.532 60.264 118.702 59.5983 120.54 58.1283L117.416 54.224ZM114.296 55.264V50.264C114.231 50.264 114.194 50.2594 114.179 50.2571C114.165 50.255 114.17 50.2546 114.187 50.2606C114.206 50.2667 114.229 50.2763 114.253 50.2895C114.277 50.3026 114.293 50.3143 114.3 50.3197L111.176 54.224L108.053 58.1283C109.89 59.5983 112.06 60.264 114.296 60.264V55.264ZM133.064 45.02V40.02H127.947L128.066 45.1362L133.064 45.02ZM134.936 48.504L132.109 52.6276L132.176 52.6737L132.244 52.7175L134.936 48.504ZM143.048 49.336L141.836 44.4853L141.815 44.4906L141.793 44.496L143.048 49.336ZM145.544 48.608L147.196 53.3273L147.26 53.3047L147.324 53.2804L145.544 48.608ZM147 48.088L148.374 52.8956L148.422 52.8817L148.471 52.8669L147 48.088ZM151.576 49.024L155.886 46.4889L155.861 46.4459L155.835 46.4035L151.576 49.024ZM150.588 53.08L148.06 48.7665L147.967 48.8206L147.878 48.8785L150.588 53.08ZM146.116 54.848L144.883 50.0025V50.0025L146.116 54.848ZM131.868 54.224L133.701 49.572V49.572L131.868 54.224ZM126.46 50.428L122.532 53.5208L122.552 53.5463L122.572 53.5716L126.46 50.428ZM124.328 44.812L119.336 45.0893L119.337 45.1143L119.339 45.1392L124.328 44.812ZM124.328 39.508L129.32 39.8016L129.326 39.7012L129.327 39.6006L124.328 39.508ZM126.252 34.256L122.324 31.1632L122.303 31.1893L122.283 31.2156L126.252 34.256ZM131.452 30.356L129.448 25.7752L129.435 25.781L129.422 25.7869L131.452 30.356ZM145.96 30.304L143.964 34.8882L143.995 34.9018L144.027 34.915L145.96 30.304ZM151.056 34.1L147.087 37.1404L147.123 37.1875L147.16 37.2338L151.056 34.1ZM151.108 43.876L148.501 39.6096L148.501 39.6096L151.108 43.876ZM144.348 39.352L145.929 44.0954V44.0954L144.348 39.352ZM142.996 36.024L140.164 40.1442L140.208 40.1747L140.253 40.2042L142.996 36.024ZM134.728 35.92L132.137 31.644L132.107 31.6618L132.078 31.68L134.728 35.92ZM133.064 39.456H128.064V44.456H133.064V39.456ZM133.064 45.02L128.066 45.1362C128.137 48.2082 129.548 50.872 132.109 52.6276L134.936 48.504L137.764 44.3804C137.744 44.3668 137.768 44.3803 137.813 44.4295C137.86 44.4804 137.914 44.5525 137.963 44.6424C138.011 44.7322 138.039 44.813 138.053 44.871C138.067 44.9268 138.064 44.9422 138.063 44.9038L133.064 45.02ZM134.936 48.504L132.244 52.7175C134.592 54.2176 137.372 54.7 140.084 54.7V49.7V44.7C138.428 44.7 137.776 44.385 137.628 44.2905L134.936 48.504ZM140.084 49.7V54.7C141.516 54.7 142.928 54.5326 144.303 54.176L143.048 49.336L141.793 44.496C141.297 44.6247 140.733 44.7 140.084 44.7V49.7ZM143.048 49.336L144.261 54.1867C145.331 53.9192 146.318 53.6348 147.196 53.3273L145.544 48.608L143.893 43.8887C143.384 44.0666 142.707 44.2674 141.836 44.4853L143.048 49.336ZM145.544 48.608L147.324 53.2804C147.67 53.1486 147.938 53.0493 148.136 52.9787C148.359 52.8992 148.415 52.8838 148.374 52.8956L147 48.088L145.627 43.2804C145.142 43.4188 144.454 43.6726 143.764 43.9356L145.544 48.608ZM147 48.088L148.471 52.8669C148.81 52.7626 149.039 52.7064 149.177 52.6789C149.243 52.6657 149.269 52.6628 149.261 52.6638C149.256 52.6644 149.191 52.672 149.08 52.672V47.672V42.672C147.824 42.672 146.548 42.9959 145.53 43.3091L147 48.088ZM149.08 47.672V52.672C148.947 52.672 148.587 52.6405 148.155 52.4065C147.712 52.1667 147.444 51.8497 147.318 51.6445L151.576 49.024L155.835 46.4035C154.318 43.9389 151.824 42.672 149.08 42.672V47.672ZM151.576 49.024L147.267 51.5591C147.3 51.6155 147.096 51.2978 147.096 50.688H152.096H157.096C157.096 49.0382 156.546 47.6112 155.886 46.4889L151.576 49.024ZM152.096 50.688H147.096C147.096 50.3126 147.204 49.8269 147.49 49.3735C147.755 48.9533 148.032 48.7827 148.06 48.7665L150.588 53.08L153.117 57.3935C155.363 56.0767 157.096 53.7801 157.096 50.688H152.096ZM150.588 53.08L147.878 48.8785C147.433 49.1654 146.516 49.5868 144.883 50.0025L146.116 54.848L147.35 59.6935C149.53 59.1386 151.594 58.3813 153.299 57.2815L150.588 53.08ZM146.116 54.848L144.883 50.0025C143.433 50.3717 141.773 50.576 139.876 50.576V55.576V60.576C142.487 60.576 144.987 60.295 147.35 59.6935L146.116 54.848ZM139.876 55.576V50.576C137.307 50.576 135.284 50.1954 133.701 49.572L131.868 54.224L130.036 58.876C133.029 60.0553 136.344 60.576 139.876 60.576V55.576ZM131.868 54.224L133.701 49.572C132.076 48.932 131.035 48.1333 130.348 47.2844L126.46 50.428L122.572 53.5716C124.52 55.9813 127.084 57.7133 130.036 58.876L131.868 54.224ZM126.46 50.428L130.389 47.3352C129.746 46.5179 129.392 45.6153 129.318 44.4848L124.328 44.812L119.339 45.1392C119.542 48.2381 120.61 51.0795 122.532 53.5208L126.46 50.428ZM124.328 44.812L129.321 44.5346C129.294 44.0493 129.276 43.2738 129.276 42.16H124.276H119.276C119.276 43.3342 119.294 44.3267 119.336 45.0893L124.328 44.812ZM124.276 42.16H129.276C129.276 41.0033 129.294 40.2389 129.32 39.8016L124.328 39.508L119.337 39.2144C119.293 39.9557 119.276 40.9594 119.276 42.16H124.276ZM124.328 39.508L129.327 39.6006C129.34 38.8993 129.557 38.1642 130.222 37.2964L126.252 34.256L122.283 31.2156C120.452 33.6065 119.385 36.3727 119.329 39.4154L124.328 39.508ZM126.252 34.256L130.181 37.3488C130.889 36.45 131.928 35.6161 133.483 34.9251L131.452 30.356L129.422 25.7869C126.608 27.0373 124.181 28.8033 122.324 31.1632L126.252 34.256ZM131.452 30.356L133.456 34.9368C134.958 34.2799 136.757 33.9 138.94 33.9V28.9V23.9C135.577 23.9 132.384 24.4907 129.448 25.7752L131.452 30.356ZM138.94 28.9V33.9C140.839 33.9 142.493 34.2477 143.964 34.8882L145.96 30.304L147.957 25.7198C145.129 24.4883 142.103 23.9 138.94 23.9V28.9ZM145.96 30.304L144.027 34.915C145.483 35.5257 146.438 36.2927 147.087 37.1404L151.056 34.1L155.026 31.0596C153.179 28.6487 150.736 26.885 147.894 25.693L145.96 30.304ZM151.056 34.1L147.16 37.2338C147.756 37.9745 147.98 38.6632 147.98 39.456H152.98H157.98C157.98 36.2968 156.922 33.4148 154.952 30.9662L151.056 34.1ZM152.98 39.456H147.98C147.98 39.7682 147.958 39.9841 147.935 40.1198C147.911 40.2549 147.892 40.2877 147.908 40.249C147.927 40.2057 147.981 40.096 148.093 39.9611C148.209 39.8227 148.351 39.7013 148.501 39.6096L151.108 43.876L153.716 48.1424C157.098 46.0753 157.98 42.4558 157.98 39.456H152.98ZM151.108 43.876L148.501 39.6096C148.313 39.7244 147.646 40.02 146.064 40.02V45.02V50.02C148.712 50.02 151.407 49.553 153.716 48.1424L151.108 43.876ZM146.064 45.02V40.02H133.064V45.02V50.02H146.064V45.02ZM143.1 39.456V44.456C143.612 44.456 144.833 44.4608 145.929 44.0954L144.348 39.352L142.767 34.6086C142.915 34.5594 143.038 34.5274 143.124 34.5072C143.213 34.4865 143.284 34.4735 143.331 34.4655C143.423 34.4503 143.473 34.4466 143.465 34.4473C143.461 34.4476 143.429 34.4501 143.363 34.4523C143.298 34.4544 143.211 34.456 143.1 34.456V39.456ZM144.348 39.352L145.929 44.0954C147.22 43.6652 148.308 42.7682 148.972 41.5513C149.561 40.4705 149.66 39.4305 149.66 38.78H144.66H139.66C139.66 38.4415 139.707 37.6528 140.193 36.7627C140.753 35.7364 141.684 34.9695 142.767 34.6086L144.348 39.352ZM144.66 38.78H149.66C149.66 35.6375 147.939 33.2869 145.74 31.8438L142.996 36.024L140.253 40.2042C140.327 40.2528 140.154 40.1574 139.964 39.8433C139.754 39.4957 139.66 39.104 139.66 38.78H144.66ZM142.996 36.024L145.829 31.9038C143.724 30.4568 141.313 29.88 138.888 29.88V34.88V39.88C139.722 39.88 140.05 40.0658 140.164 40.1442L142.996 36.024ZM138.888 34.88V29.88C136.545 29.88 134.217 30.3834 132.137 31.644L134.728 35.92L137.32 40.196C137.528 40.0699 137.973 39.88 138.888 39.88V34.88ZM134.728 35.92L132.078 31.68C129.813 33.0955 128.064 35.4579 128.064 38.624H133.064H138.064C138.064 38.9479 137.97 39.3603 137.739 39.7365C137.528 40.0791 137.326 40.1926 137.378 40.16L134.728 35.92ZM133.064 38.624H128.064V39.456H133.064H138.064V38.624H133.064ZM133.064 39.456V44.456H143.1V39.456V34.456H133.064V39.456ZM181.625 37.168L178.198 33.527L178.143 33.5789L178.089 33.6325L181.625 37.168ZM158.121 32.592L154.688 28.9569L154.636 29.006L154.585 29.0565L158.121 32.592ZM181.625 37.168L178.089 33.6325C178.608 33.1135 179.087 32.979 179.133 32.9663C179.169 32.9566 179.144 32.9666 179.039 32.9782C178.936 32.9896 178.778 33 178.557 33V38V43C180.311 43 183.118 42.746 185.161 40.7035L181.625 37.168ZM178.557 38V33H161.293V38V43H178.557V38ZM161.293 38V33C160.926 33 160.776 32.9625 160.78 32.9634C160.792 32.9665 161.026 33.0295 161.331 33.2684C161.662 33.5269 161.929 33.8783 162.09 34.2553C162.163 34.4274 162.201 34.5723 162.219 34.673C162.237 34.772 162.237 34.8275 162.237 34.828H157.237H152.237C152.237 37.0287 153.003 39.45 155.171 41.1456C157.105 42.6583 159.426 43 161.293 43V38ZM157.237 34.828H162.237C162.237 34.9286 162.219 35.1503 162.108 35.4313C161.994 35.7201 161.826 35.9583 161.656 36.1275L158.121 32.592L154.585 29.0565C152.977 30.6646 152.237 32.7198 152.237 34.828H157.237ZM158.121 32.592L161.554 36.2271C161.134 36.6241 160.766 36.7339 160.724 36.7455C160.699 36.7524 160.73 36.7418 160.831 36.7301C160.931 36.7186 161.082 36.708 161.293 36.708V31.708V26.708C159.392 26.708 156.721 27.0371 154.688 28.9569L158.121 32.592ZM161.293 31.708V36.708H178.557V31.708V26.708H161.293V31.708ZM178.557 31.708V36.708C178.892 36.708 179.009 36.7439 178.974 36.7343C178.928 36.7217 178.673 36.6435 178.36 36.3883C178.026 36.1157 177.777 35.7634 177.633 35.4127C177.503 35.0927 177.509 34.896 177.509 34.932H182.509H187.509C187.509 32.7872 186.802 30.3696 184.682 28.6397C182.756 27.0687 180.426 26.708 178.557 26.708V31.708ZM182.509 34.932H177.509C177.509 34.8746 177.519 34.6568 177.638 34.3547C177.764 34.037 177.963 33.7483 178.198 33.527L181.625 37.168L185.052 40.809C186.805 39.1591 187.509 37.0107 187.509 34.932H182.509ZM218.705 29.94H223.705V13.9634L214.597 27.0896L218.705 29.94ZM215.065 35.504L210.817 32.8672L210.8 32.8938L210.784 32.9207L215.065 35.504ZM211.581 41.016L215.606 43.982L215.676 43.8873L215.741 43.7895L211.581 41.016ZM210.021 42.368L211.777 47.0496L211.902 47.0025L212.025 46.9488L210.021 42.368ZM204.925 40.964L209.252 38.4588L209.212 38.3902L209.171 38.3228L204.925 40.964ZM197.905 29.68L202.151 27.0388L192.905 12.1776V29.68H197.905ZM196.501 54.328L193.728 50.1677L193.691 50.1921L193.655 50.217L196.501 54.328ZM191.717 55.004L193.208 50.2316L193.107 50.2001L193.005 50.1728L191.717 55.004ZM190.313 54.276L193.514 50.4349L193.416 50.3529L193.313 50.276L190.313 54.276ZM189.273 53.028L184.801 55.2641L184.83 55.3229L184.861 55.3809L189.273 53.028ZM190.261 16.836L187.384 12.747L187.347 12.7727L187.311 12.799L190.261 16.836ZM195.409 16.004L194.54 20.9279L194.682 20.9529L194.825 20.9697L195.409 16.004ZM197.021 16.524L194.54 20.8652L194.661 20.9341L194.785 20.9961L197.021 16.524ZM198.425 17.564L194.889 21.0995L194.89 21.0995L198.425 17.564ZM199.777 19.28L203.993 16.5913L203.981 16.5731L203.969 16.5551L199.777 19.28ZM208.201 32.488L203.985 35.1767L208.125 41.6667L212.371 35.2463L208.201 32.488ZM216.937 19.28L212.794 16.4807L212.78 16.5011L212.767 16.5217L216.937 19.28ZM219.537 16.628L221.98 20.9905L222.008 20.9749L222.036 20.9589L219.537 16.628ZM226.349 16.836L223.324 20.8168V20.8168L226.349 16.836ZM227.233 53.028L222.892 50.5473L222.789 50.7265L222.702 50.9136L227.233 53.028ZM226.245 54.276L223.245 50.276L223.143 50.3529L223.044 50.4349L226.245 54.276ZM224.789 55.004L223.576 50.1533L223.39 50.1999L223.208 50.2606L224.789 55.004ZM221.513 55.004L223.004 50.2316L222.904 50.2001L222.801 50.1728L221.513 55.004ZM220.109 54.276L223.31 50.4349L223.212 50.3529L223.109 50.276L220.109 54.276ZM219.069 53.028L214.597 55.2641L214.626 55.3229L214.657 55.3809L219.069 53.028ZM218.705 29.94L214.597 27.0896C213.364 28.8674 212.103 30.7942 210.817 32.8672L215.065 35.504L219.313 38.1408C220.523 36.1924 221.689 34.41 222.813 32.7904L218.705 29.94ZM215.065 35.504L210.784 32.9207C209.603 34.8778 208.482 36.6506 207.421 38.2425L211.581 41.016L215.741 43.7895C216.899 42.0534 218.1 40.1516 219.346 38.0873L215.065 35.504ZM211.581 41.016L207.556 38.05C207.415 38.2412 207.534 37.9985 208.017 37.7872L210.021 42.368L212.025 46.9488C213.617 46.2521 214.777 45.1081 215.606 43.982L211.581 41.016ZM210.021 42.368L208.265 37.6864C208.295 37.6754 208.31 37.6731 208.305 37.6739C208.3 37.6748 208.267 37.68 208.201 37.68V42.68V47.68C209.392 47.68 210.601 47.4904 211.777 47.0496L210.021 42.368ZM208.201 42.68V37.68C208.29 37.68 208.342 37.6898 208.351 37.6917C208.359 37.6934 208.325 37.687 208.245 37.656L206.433 42.316L204.621 46.976C205.706 47.3981 206.913 47.68 208.201 47.68V42.68ZM206.433 42.316L208.245 37.656C208.499 37.7546 208.733 37.9003 208.926 38.0732C209.113 38.2407 209.212 38.3899 209.252 38.4588L204.925 40.964L200.598 43.4692C201.466 44.9692 202.795 46.2659 204.621 46.976L206.433 42.316ZM204.925 40.964L209.171 38.3228L202.151 27.0388L197.905 29.68L193.66 32.3212L200.68 43.6052L204.925 40.964ZM197.905 29.68H192.905V51.26H197.905H202.905V29.68H197.905ZM197.905 51.26H192.905C192.905 51.4359 192.875 51.3023 193.007 51.0124C193.075 50.8645 193.175 50.7007 193.311 50.5412C193.447 50.3817 193.592 50.2578 193.728 50.1677L196.501 54.328L199.275 58.4883C201.97 56.6913 202.905 53.8556 202.905 51.26H197.905ZM196.501 54.328L193.655 50.217C193.634 50.2316 193.621 50.2385 193.615 50.2413C193.609 50.2441 193.605 50.2459 193.599 50.2476C193.593 50.2496 193.545 50.264 193.433 50.264V55.264V60.264C195.547 60.264 197.572 59.668 199.347 58.439L196.501 54.328ZM193.433 55.264V50.264C193.342 50.264 193.273 50.2519 193.208 50.2316L191.717 55.004L190.226 59.7764C191.27 60.1027 192.345 60.264 193.433 60.264V55.264ZM191.717 55.004L193.005 50.1728C193.089 50.1951 193.182 50.2299 193.278 50.2792C193.373 50.3285 193.452 50.3834 193.514 50.4349L190.313 54.276L187.112 58.1171C188.083 58.9258 189.202 59.5081 190.429 59.8352L191.717 55.004ZM190.313 54.276L193.313 50.276C193.556 50.4582 193.664 50.6356 193.685 50.6751L189.273 53.028L184.861 55.3809C185.437 56.4604 186.238 57.4698 187.313 58.276L190.313 54.276ZM189.273 53.028L193.745 50.7919C193.932 51.1664 193.909 51.3862 193.909 51.26H188.909H183.909C183.909 52.5204 184.128 53.9189 184.801 55.2641L189.273 53.028ZM188.909 51.26H193.909V19.748H188.909H183.909V51.26H188.909ZM188.909 19.748H193.909C193.909 19.6917 193.918 19.8713 193.782 20.1636C193.635 20.4794 193.413 20.7254 193.211 20.873L190.261 16.836L187.311 12.799C184.916 14.549 183.909 17.1418 183.909 19.748H188.909ZM190.261 16.836L193.139 20.925C193.196 20.8847 193.227 20.8737 193.243 20.8688C193.26 20.8634 193.315 20.848 193.433 20.848V15.848V10.848C191.257 10.848 189.188 11.4769 187.384 12.747L190.261 16.836ZM193.433 15.848V20.848C193.93 20.848 194.291 20.884 194.54 20.9279L195.409 16.004L196.278 11.0801C195.348 10.916 194.392 10.848 193.433 10.848V15.848ZM195.409 16.004L194.825 20.9697C194.813 20.9684 194.775 20.9626 194.719 20.9445C194.662 20.9262 194.601 20.8997 194.54 20.8652L197.021 16.524L199.502 12.1828C198.397 11.5516 197.209 11.1812 195.993 11.0382L195.409 16.004ZM197.021 16.524L194.785 20.9961C194.714 20.9607 194.754 20.9642 194.889 21.0995L198.425 17.564L201.961 14.0285C201.195 13.2625 200.299 12.5726 199.257 12.0519L197.021 16.524ZM198.425 17.564L194.89 21.0995C195.033 21.2434 195.271 21.5227 195.585 22.0049L199.777 19.28L203.969 16.5551C203.381 15.6506 202.718 14.7859 201.961 14.0285L198.425 17.564ZM199.777 19.28L195.561 21.9687L203.985 35.1767L208.201 32.488L212.417 29.7993L203.993 16.5913L199.777 19.28ZM208.201 32.488L212.371 35.2463L221.107 22.0383L216.937 19.28L212.767 16.5217L204.031 29.7297L208.201 32.488ZM216.937 19.28L221.08 22.0793C221.384 21.6293 221.63 21.3358 221.807 21.1554C221.986 20.9731 222.049 20.952 221.98 20.9905L219.537 16.628L217.094 12.2655C215.271 13.2864 213.878 14.8772 212.794 16.4807L216.937 19.28ZM219.537 16.628L222.036 20.9589C221.958 21.004 221.979 20.9732 222.171 20.932C222.365 20.8903 222.69 20.848 223.177 20.848V15.848V10.848C221.156 10.848 218.973 11.1809 217.038 12.2971L219.537 16.628ZM223.177 15.848V20.848C223.36 20.848 223.429 20.8717 223.419 20.8688C223.415 20.8677 223.401 20.8626 223.379 20.8516C223.358 20.8405 223.338 20.828 223.324 20.8168L226.349 16.836L229.374 12.8552C227.513 11.4408 225.351 10.848 223.177 10.848V15.848ZM226.349 16.836L223.324 20.8168C223.105 20.6509 222.892 20.3965 222.758 20.0963C222.636 19.8219 222.649 19.6667 222.649 19.748H227.649H232.649C232.649 17.217 231.716 14.6346 229.374 12.8552L226.349 16.836ZM227.649 19.748H222.649V51.26H227.649H232.649V19.748H227.649ZM227.649 51.26H222.649C222.649 51.2902 222.645 50.9789 222.892 50.5473L227.233 53.028L231.574 55.5087C232.376 54.1065 232.649 52.6165 232.649 51.26H227.649ZM227.233 53.028L222.702 50.9136C222.77 50.7674 222.937 50.5067 223.245 50.276L226.245 54.276L229.245 58.276C230.385 57.4213 231.21 56.3286 231.764 55.1424L227.233 53.028ZM226.245 54.276L223.044 50.4349C223.133 50.3609 223.231 50.2966 223.333 50.2459C223.434 50.1956 223.519 50.1677 223.576 50.1533L224.789 55.004L226.002 59.8547C227.245 59.5439 228.419 58.9725 229.446 58.1171L226.245 54.276ZM224.789 55.004L223.208 50.2606C223.205 50.2617 223.203 50.2622 223.202 50.2624C223.201 50.2626 223.201 50.2627 223.2 50.2628C223.199 50.2629 223.193 50.264 223.177 50.264V55.264V60.264C224.263 60.264 225.334 60.0927 226.37 59.7474L224.789 55.004ZM223.177 55.264V50.264C223.152 50.264 223.099 50.2613 223.004 50.2316L221.513 55.004L220.022 59.7764C221.036 60.0934 222.093 60.264 223.177 60.264V55.264ZM221.513 55.004L222.801 50.1728C222.885 50.1951 222.978 50.2299 223.074 50.2792C223.169 50.3285 223.248 50.3834 223.31 50.4349L220.109 54.276L216.908 58.1171C217.879 58.9258 218.998 59.5081 220.225 59.8352L221.513 55.004ZM220.109 54.276L223.109 50.276C223.352 50.4582 223.46 50.6356 223.481 50.6751L219.069 53.028L214.657 55.3809C215.233 56.4604 216.034 57.4698 217.109 58.276L220.109 54.276ZM219.069 53.028L223.541 50.7919C223.728 51.1664 223.705 51.3862 223.705 51.26H218.705H213.705C213.705 52.5204 213.924 53.9189 214.597 55.2641L219.069 53.028ZM218.705 51.26H223.705V29.94H218.705H213.705V51.26H218.705ZM252.269 53.86L256.232 50.8114L253.516 47.2807L249.697 49.5725L252.269 53.86ZM235.629 53.392L238.734 49.4733L238.725 49.4657L235.629 53.392ZM232.821 48.088L237.818 47.9242L237.815 47.834L237.809 47.744L232.821 48.088ZM236.149 41.328L238.766 45.5884L238.774 45.5832L238.783 45.578L236.149 41.328ZM251.489 39.04V44.04H256.811L256.479 38.7281L251.489 39.04ZM249.721 36.18L246.66 40.1336L246.731 40.1881L246.803 40.2401L249.721 36.18ZM239.945 35.868L241.802 40.5104L241.839 40.4956L241.876 40.4802L239.945 35.868ZM235.213 34.828L230.571 36.685L230.623 36.8153L230.682 36.9424L235.213 34.828ZM236.721 30.72L238.906 35.2175L238.96 35.191L239.014 35.1631L236.721 30.72ZM240.725 29.42L241.685 34.327L241.725 34.3191L241.766 34.3105L240.725 29.42ZM253.777 30.408L251.713 34.9623L251.743 34.9757L251.773 34.9888L253.777 30.408ZM258.665 34.308L254.45 36.9982L254.484 37.0506L254.519 37.1023L258.665 34.308ZM259.133 54.276L256.076 50.3196L256.021 50.3621L255.967 50.4062L259.133 54.276ZM242.441 49.076L239.514 53.1294V53.1294L242.441 49.076ZM249.565 48.556L252.154 52.8335V52.8335L249.565 48.556ZM251.541 44.656H256.541V39.656H251.541V44.656ZM242.649 45.28L240.336 40.8471L240.295 40.8684L240.255 40.8905L242.649 45.28ZM252.269 53.86L249.697 49.5725C248.886 50.0588 247.233 50.576 244.209 50.576V55.576V60.576C248.118 60.576 251.839 59.9492 254.841 58.1475L252.269 53.86ZM244.209 55.576V50.576C240.774 50.576 239.272 49.8996 238.734 49.4733L235.629 53.392L232.524 57.3107C235.66 59.7964 239.878 60.576 244.209 60.576V55.576ZM235.629 53.392L238.725 49.4657C237.968 48.8689 237.835 48.4293 237.818 47.9242L232.821 48.088L227.824 48.2518C227.946 51.976 229.685 55.0724 232.533 57.3183L235.629 53.392ZM232.821 48.088L237.809 47.744C237.753 46.9368 237.89 46.5324 237.983 46.3444C238.067 46.1737 238.246 45.9077 238.766 45.5884L236.149 41.328L233.532 37.0676C231.625 38.239 230.036 39.845 229.011 41.9276C227.994 43.9929 227.681 46.2232 227.833 48.432L232.821 48.088ZM236.149 41.328L238.783 45.578C240.084 44.7719 242.638 44.04 247.121 44.04V39.04V34.04C241.897 34.04 237.137 34.8335 233.515 37.0779L236.149 41.328ZM247.121 39.04V44.04H251.489V39.04V34.04H247.121V39.04ZM251.489 39.04L256.479 38.7281C256.295 35.782 254.66 33.5724 252.639 32.1199L249.721 36.18L246.803 40.2401C246.937 40.3363 246.861 40.3139 246.742 40.1221C246.682 40.0255 246.623 39.9027 246.576 39.7582C246.53 39.6136 246.506 39.4744 246.499 39.3519L251.489 39.04ZM249.721 36.18L252.782 32.2264C250.553 30.5009 247.869 29.932 245.301 29.932V34.932V39.932C246.477 39.932 246.74 40.1951 246.66 40.1336L249.721 36.18ZM245.301 34.932V29.932C242.74 29.932 240.265 30.3138 238.014 31.2558L239.945 35.868L241.876 40.4802C242.607 40.1742 243.702 39.932 245.301 39.932V34.932ZM239.945 35.868L238.088 31.2256C237.853 31.3197 237.698 31.3635 237.615 31.3823C237.532 31.4013 237.552 31.388 237.657 31.388V36.388V41.388C239.158 41.388 240.572 41.0023 241.802 40.5104L239.945 35.868ZM237.657 36.388V31.388C237.861 31.388 238.344 31.4426 238.878 31.7834C239.411 32.1235 239.661 32.5364 239.744 32.7136L235.213 34.828L230.682 36.9424C231.25 38.1596 232.15 39.3525 233.498 40.2126C234.846 41.0734 236.309 41.388 237.657 41.388V36.388ZM235.213 34.828L239.855 32.971C239.828 32.9032 239.901 33.0527 239.901 33.372H234.901H229.901C229.901 34.5926 230.182 35.7128 230.571 36.685L235.213 34.828ZM234.901 33.372H239.901C239.901 33.6879 239.803 34.181 239.479 34.6542C239.18 35.0889 238.88 35.2298 238.906 35.2175L236.721 30.72L234.536 26.2225C233.348 26.7996 232.138 27.6771 231.233 28.9958C230.302 30.353 229.901 31.8775 229.901 33.372H234.901ZM236.721 30.72L239.014 35.1631C239.553 34.8851 240.406 34.5772 241.685 34.327L240.725 29.42L239.765 24.513C237.854 24.8868 236.039 25.4455 234.428 26.2769L236.721 30.72ZM240.725 29.42L241.766 34.3105C243.076 34.0317 244.321 33.9 245.509 33.9V28.9V23.9C243.577 23.9 241.633 24.1149 239.684 24.5295L240.725 29.42ZM245.509 28.9V33.9C248.327 33.9 250.329 34.3349 251.713 34.9623L253.777 30.408L255.841 25.8537C252.788 24.4705 249.277 23.9 245.509 23.9V28.9ZM253.777 30.408L251.773 34.9888C253.314 35.6628 254.064 36.3932 254.45 36.9982L258.665 34.308L262.88 31.6178C261.186 28.9641 258.678 27.0945 255.781 25.8272L253.777 30.408ZM258.665 34.308L254.519 37.1023C255.031 37.8629 255.277 38.6562 255.277 39.612H260.277H265.277C265.277 36.6852 264.448 33.9424 262.811 31.5137L258.665 34.308ZM260.277 39.612H255.277V51.728H260.277H265.277V39.612H260.277ZM260.277 51.728H255.277C255.277 51.7099 255.281 51.4797 255.43 51.1491C255.588 50.7966 255.83 50.5093 256.076 50.3196L259.133 54.276L262.19 58.2324C264.374 56.5453 265.277 54.121 265.277 51.728H260.277ZM259.133 54.276L255.967 50.4062C256.051 50.3372 256.133 50.2851 256.205 50.248C256.275 50.2114 256.325 50.1946 256.344 50.1889C256.377 50.179 256.285 50.212 256.013 50.212V55.212V60.212C258.095 60.212 260.382 59.7144 262.299 58.1458L259.133 54.276ZM256.013 55.212V50.212C255.767 50.212 255.599 50.1964 255.496 50.1812C255.393 50.1659 255.376 50.1542 255.423 50.1712C255.473 50.1892 255.594 50.2396 255.75 50.3485C255.911 50.4604 256.081 50.6146 256.232 50.8114L252.269 53.86L248.306 56.9086C250.391 59.6192 253.574 60.212 256.013 60.212V55.212ZM241.505 47.256H236.505C236.505 49.6418 237.602 51.7491 239.514 53.1294L242.441 49.076L245.368 45.0226C245.612 45.1986 245.937 45.5139 246.185 45.9963C246.434 46.4802 246.505 46.937 246.505 47.256H241.505ZM242.441 49.076L239.514 53.1294C241.291 54.4132 243.326 54.752 245.041 54.752V49.752V44.752C244.814 44.752 244.756 44.7279 244.817 44.7439C244.888 44.7622 245.103 44.8306 245.368 45.0226L242.441 49.076ZM245.041 49.752V54.752C247.555 54.752 249.977 54.1513 252.154 52.8335L249.565 48.556L246.976 44.2785C246.519 44.5554 245.924 44.752 245.041 44.752V49.752ZM249.565 48.556L252.154 52.8335C254.322 51.5211 256.541 49.1962 256.541 45.696H251.541H246.541C246.541 45.47 246.576 45.2238 246.654 44.9778C246.732 44.7337 246.837 44.54 246.933 44.4008C247.114 44.1392 247.22 44.1311 246.976 44.2785L249.565 48.556ZM251.541 45.696H256.541V44.656H251.541H246.541V45.696H251.541ZM251.541 44.656V39.656H246.965V44.656V49.656H251.541V44.656ZM246.965 44.656V39.656C244.875 39.656 242.32 39.8122 240.336 40.8471L242.649 45.28L244.962 49.7129C244.778 49.8086 244.676 49.8328 244.711 49.823C244.74 49.8148 244.844 49.7892 245.041 49.7605C245.447 49.7019 246.072 49.656 246.965 49.656V44.656ZM242.649 45.28L240.255 40.8905C239.185 41.4741 238.176 42.3508 237.464 43.5808C236.757 44.8011 236.505 46.0886 236.505 47.256H241.505H246.505C246.505 47.5221 246.443 48.0296 246.118 48.5912C245.787 49.1625 245.351 49.5019 245.043 49.6695L242.649 45.28ZM289.234 30.252L287.403 34.9048L287.416 34.9099L287.429 34.9148L289.234 30.252ZM294.382 33.944L290.453 37.0368V37.0368L294.382 33.944ZM296.462 39.82H301.462V39.7064L301.457 39.593L296.462 39.82ZM292.77 52.716L289.708 48.7632V48.7633L292.77 52.716ZM278.678 54.952L277.172 59.7199L277.19 59.7255L277.207 59.7309L278.678 54.952ZM275.974 53.496L279.737 50.2035L275.553 45.422L271.889 50.6126L275.974 53.496ZM274.466 54.796L272.337 50.2719L272.23 50.322L272.126 50.3771L274.466 54.796ZM268.85 54.328L272.016 50.4582L271.962 50.4141L271.907 50.3716L268.85 54.328ZM268.954 16.16L271.954 20.16L271.966 20.1504L271.979 20.1408L268.954 16.16ZM275.194 16.16L272.09 20.0802L272.141 20.1208L272.194 20.16L275.194 16.16ZM276.442 30.096H271.442V37.6191L278.378 34.7059L276.442 30.096ZM276.546 44.864L281.525 44.4062L281.522 44.3778L281.519 44.3495L276.546 44.864ZM285.906 48.192L282.799 44.2745L282.765 44.3012L282.732 44.3284L285.906 48.192ZM287.622 44.864L282.66 44.2438L282.652 44.3111L282.645 44.3785L287.622 44.864ZM287.622 39.508L282.647 40.0055L282.648 40.0231L282.65 40.0407L287.622 39.508ZM285.958 36.388L282.888 40.3348L282.969 40.3974L283.051 40.4567L285.958 36.388ZM278.262 36.492L281.284 40.4755L281.294 40.4678L281.304 40.46L278.262 36.492ZM276.546 39.664L281.5 40.3396L281.511 40.257L281.52 40.1741L276.546 39.664ZM282.162 29.004V34.004C284.225 34.004 285.949 34.3328 287.403 34.9048L289.234 30.252L291.064 25.5992C288.289 24.5072 285.299 24.004 282.162 24.004V29.004ZM289.234 30.252L287.429 34.9148C288.838 35.4603 289.785 36.1881 290.453 37.0368L294.382 33.944L298.31 30.8512C296.413 28.4412 293.928 26.7077 291.039 25.5892L289.234 30.252ZM294.382 33.944L290.453 37.0368C291.022 37.7601 291.405 38.6879 291.467 40.047L296.462 39.82L301.457 39.593C301.31 36.3761 300.306 33.3866 298.31 30.8512L294.382 33.944ZM296.462 39.82H291.462V41.588H296.462H301.462V39.82H296.462ZM296.462 41.588H291.462V44.76H296.462H301.462V41.588H296.462ZM296.462 44.76H291.462C291.462 46.7731 290.824 47.8987 289.708 48.7632L292.77 52.716L295.832 56.6688C299.638 53.72 301.462 49.5416 301.462 44.76H296.462ZM292.77 52.716L289.708 48.7633C288.403 49.7743 286.235 50.576 282.63 50.576V55.576V60.576C287.621 60.576 292.214 59.4711 295.832 56.6687L292.77 52.716ZM282.63 55.576V50.576C281.894 50.576 281.072 50.4575 280.148 50.1731L278.678 54.952L277.207 59.7309C278.987 60.2785 280.8 60.576 282.63 60.576V55.576ZM278.678 54.952L280.183 50.1841C279.962 50.1143 279.786 50.0502 279.65 49.9947C279.512 49.9388 279.427 49.8967 279.384 49.8736C279.34 49.85 279.358 49.8554 279.416 49.899C279.473 49.9423 279.593 50.0395 279.737 50.2035L275.974 53.496L272.211 56.7885C273.627 58.4075 275.627 59.2319 277.172 59.7199L278.678 54.952ZM275.974 53.496L271.889 50.6126C271.896 50.6024 271.937 50.5479 272.02 50.4759C272.105 50.4022 272.213 50.3299 272.337 50.2719L274.466 54.796L276.595 59.3201C278.049 58.6358 279.198 57.5979 280.059 56.3794L275.974 53.496ZM274.466 54.796L272.126 50.3771C272.264 50.304 272.37 50.2648 272.428 50.246C272.486 50.2272 272.508 50.2248 272.483 50.2293C272.46 50.2337 272.402 50.2428 272.304 50.2505C272.207 50.2583 272.079 50.264 271.918 50.264V55.264V60.264C273.366 60.264 275.167 60.0823 276.805 59.2149L274.466 54.796ZM271.918 55.264V50.264C271.675 50.264 271.603 50.2339 271.648 50.2476C271.672 50.255 271.723 50.2731 271.792 50.3092C271.862 50.3457 271.939 50.3951 272.016 50.4582L268.85 54.328L265.684 58.1978C267.579 59.7484 269.833 60.264 271.918 60.264V55.264ZM268.85 54.328L271.907 50.3716C272.152 50.5613 272.395 50.8486 272.553 51.201C272.702 51.5317 272.706 51.7619 272.706 51.78H267.706H262.706C262.706 54.173 263.609 56.5973 265.792 58.2844L268.85 54.328ZM267.706 51.78H272.706V18.968H267.706H262.706V51.78H267.706ZM267.706 18.968H272.706C272.706 18.8942 272.718 19.0657 272.587 19.3607C272.443 19.6847 272.209 19.9684 271.954 20.16L268.954 16.16L265.954 12.16C263.604 13.9221 262.706 16.5 262.706 18.968H267.706ZM268.954 16.16L271.979 20.1408C271.971 20.1471 271.956 20.157 271.937 20.1671C271.917 20.1772 271.901 20.1831 271.893 20.1857C271.885 20.1882 271.893 20.1851 271.919 20.1812C271.946 20.1772 271.997 20.172 272.074 20.172V15.172V10.172C269.9 10.172 267.764 10.7837 265.928 12.1792L268.954 16.16ZM272.074 15.172V20.172C272.258 20.172 272.313 20.1961 272.28 20.1857C272.264 20.1807 272.235 20.1697 272.197 20.1497C272.159 20.1295 272.122 20.1056 272.09 20.0802L275.194 16.16L278.297 12.2398C276.432 10.7635 274.242 10.172 272.074 10.172V15.172ZM275.194 16.16L272.194 20.16C271.938 19.9684 271.705 19.6847 271.561 19.3607C271.43 19.0657 271.442 18.8942 271.442 18.968H276.442H281.442C281.442 16.5 280.543 13.9221 278.194 12.16L275.194 16.16ZM276.442 18.968H271.442V30.096H276.442H281.442V18.968H276.442ZM276.442 30.096L278.378 34.7059C279.436 34.2615 280.676 34.004 282.162 34.004V29.004V24.004C279.488 24.004 276.914 24.4745 274.506 25.4861L276.442 30.096ZM276.546 44.864L271.567 45.3218C271.795 47.8064 272.773 50.3397 275.021 52.1508C277.165 53.8777 279.778 54.388 282.162 54.388V49.388V44.388C281.645 44.388 281.351 44.3305 281.22 44.2935C281.102 44.2602 281.163 44.2576 281.294 44.3632C281.357 44.4135 281.417 44.4745 281.47 44.5417C281.522 44.6083 281.553 44.6644 281.569 44.6976C281.599 44.7613 281.551 44.6937 281.525 44.4062L276.546 44.864ZM282.162 49.388V54.388C284.587 54.388 287.034 53.7358 289.079 52.0556L285.906 48.192L282.732 44.3284C282.756 44.3083 282.768 44.3109 282.72 44.3261C282.661 44.345 282.491 44.388 282.162 44.388V49.388ZM285.906 48.192L289.013 52.1095C291.206 50.3697 292.344 47.9531 292.598 45.3495L287.622 44.864L282.645 44.3785C282.637 44.4658 282.625 44.5099 282.623 44.5197C282.62 44.5283 282.625 44.5086 282.645 44.4706C282.665 44.4318 282.692 44.3889 282.726 44.3484C282.759 44.3081 282.787 44.2839 282.799 44.2745L285.906 48.192ZM287.622 44.864L292.583 45.4842C292.713 44.4481 292.778 43.4089 292.778 42.368H287.778H282.778C282.778 42.9911 282.739 43.6159 282.66 44.2438L287.622 44.864ZM287.778 42.368H292.778C292.778 41.2466 292.715 40.1154 292.593 38.9753L287.622 39.508L282.65 40.0407C282.736 40.8419 282.778 41.6174 282.778 42.368H287.778ZM287.622 39.508L292.597 39.0105C292.342 36.4569 291.207 33.9933 288.864 32.3193L285.958 36.388L283.051 40.4567C282.994 40.4154 282.924 40.3556 282.854 40.2761C282.784 40.1965 282.729 40.1149 282.69 40.0409C282.61 39.8903 282.63 39.8452 282.647 40.0055L287.622 39.508ZM285.958 36.388L289.027 32.4412C286.954 30.8286 284.487 30.296 282.162 30.296V35.296V40.296C283.026 40.296 283.089 40.4914 282.888 40.3348L285.958 36.388ZM282.162 35.296V30.296C279.718 30.296 277.29 30.9366 275.22 32.524L278.262 36.492L281.304 40.46C281.313 40.4527 281.485 40.296 282.162 40.296V35.296ZM278.262 36.492L275.24 32.5085C273.039 34.178 271.84 36.5423 271.572 39.1539L276.546 39.664L281.52 40.1741C281.53 40.0678 281.542 40.115 281.476 40.2361C281.446 40.2925 281.408 40.3468 281.367 40.3939C281.327 40.4404 281.295 40.4667 281.284 40.4755L278.262 36.492ZM276.546 39.664L271.592 38.9884C271.455 39.9921 271.39 41.016 271.39 42.056H276.39H281.39C281.39 41.432 281.429 40.8612 281.5 40.3396L276.546 39.664ZM276.39 42.056H271.39C271.39 43.1199 271.453 44.2295 271.572 45.3785L276.546 44.864L281.519 44.3495C281.43 43.4878 281.39 42.7254 281.39 42.056H276.39ZM310.545 45.02V40.02H305.427L305.546 45.1362L310.545 45.02ZM312.417 48.504L309.589 52.6276L309.656 52.6737L309.725 52.7175L312.417 48.504ZM320.529 49.336L319.316 44.4853L319.295 44.4906L319.274 44.496L320.529 49.336ZM323.025 48.608L324.677 53.3273L324.741 53.3047L324.805 53.2804L323.025 48.608ZM324.481 48.088L325.854 52.8956L325.903 52.8817L325.951 52.8669L324.481 48.088ZM329.057 49.024L333.366 46.4889L333.341 46.4459L333.315 46.4035L329.057 49.024ZM328.069 53.08L325.54 48.7665L325.448 48.8206L325.358 48.8785L328.069 53.08ZM323.597 54.848L322.363 50.0025V50.0025L323.597 54.848ZM309.349 54.224L311.181 49.572V49.572L309.349 54.224ZM303.941 50.428L300.012 53.5208L300.032 53.5463L300.053 53.5716L303.941 50.428ZM301.809 44.812L296.816 45.0893L296.818 45.1143L296.819 45.1392L301.809 44.812ZM301.809 39.508L306.8 39.8016L306.806 39.7012L306.808 39.6006L301.809 39.508ZM303.733 34.256L299.804 31.1632L299.784 31.1893L299.763 31.2156L303.733 34.256ZM308.933 30.356L306.929 25.7752L306.915 25.781L306.902 25.7869L308.933 30.356ZM323.441 30.304L321.444 34.8882L321.476 34.9018L321.507 34.915L323.441 30.304ZM328.537 34.1L324.567 37.1404L324.603 37.1875L324.641 37.2338L328.537 34.1ZM328.589 43.876L325.982 39.6096V39.6096L328.589 43.876ZM321.829 39.352L323.41 44.0954V44.0954L321.829 39.352ZM320.477 36.024L317.644 40.1442L317.688 40.1747L317.733 40.2042L320.477 36.024ZM312.209 35.92L309.617 31.644L309.588 31.6618L309.559 31.68L312.209 35.92ZM310.545 39.456H305.545V44.456H310.545V39.456ZM310.545 45.02L305.546 45.1362C305.618 48.2082 307.029 50.872 309.589 52.6276L312.417 48.504L315.244 44.3804C315.225 44.3668 315.248 44.3803 315.294 44.4295C315.341 44.4804 315.395 44.5525 315.443 44.6424C315.491 44.7322 315.519 44.813 315.534 44.871C315.548 44.9268 315.544 44.9422 315.543 44.9038L310.545 45.02ZM312.417 48.504L309.725 52.7175C312.073 54.2176 314.853 54.7 317.565 54.7V49.7V44.7C315.909 44.7 315.257 44.385 315.109 44.2905L312.417 48.504ZM317.565 49.7V54.7C318.996 54.7 320.408 54.5326 321.784 54.176L320.529 49.336L319.274 44.496C318.777 44.6247 318.213 44.7 317.565 44.7V49.7ZM320.529 49.336L321.741 54.1867C322.811 53.9192 323.798 53.6348 324.677 53.3273L323.025 48.608L321.373 43.8887C320.865 44.0666 320.187 44.2674 319.316 44.4853L320.529 49.336ZM323.025 48.608L324.805 53.2804C325.151 53.1486 325.419 53.0493 325.616 52.9787C325.839 52.8992 325.896 52.8838 325.854 52.8956L324.481 48.088L323.107 43.2804C322.623 43.4188 321.935 43.6726 321.245 43.9356L323.025 48.608ZM324.481 48.088L325.951 52.8669C326.29 52.7626 326.52 52.7064 326.657 52.6789C326.723 52.6657 326.75 52.6628 326.742 52.6638C326.736 52.6644 326.672 52.672 326.561 52.672V47.672V42.672C325.305 42.672 324.028 42.9959 323.01 43.3091L324.481 48.088ZM326.561 47.672V52.672C326.428 52.672 326.067 52.6405 325.635 52.4065C325.193 52.1667 324.925 51.8497 324.798 51.6445L329.057 49.024L333.315 46.4035C331.798 43.9389 329.305 42.672 326.561 42.672V47.672ZM329.057 49.024L324.747 51.5591C324.78 51.6155 324.577 51.2978 324.577 50.688H329.577H334.577C334.577 49.0382 334.027 47.6112 333.366 46.4889L329.057 49.024ZM329.577 50.688H324.577C324.577 50.3126 324.684 49.8269 324.97 49.3735C325.235 48.9533 325.513 48.7827 325.54 48.7665L328.069 53.08L330.597 57.3935C332.844 56.0767 334.577 53.7801 334.577 50.688H329.577ZM328.069 53.08L325.358 48.8785C324.913 49.1654 323.997 49.5868 322.363 50.0025L323.597 54.848L324.83 59.6935C327.01 59.1386 329.075 58.3813 330.779 57.2815L328.069 53.08ZM323.597 54.848L322.363 50.0025C320.913 50.3717 319.253 50.576 317.357 50.576V55.576V60.576C319.967 60.576 322.467 60.295 324.83 59.6935L323.597 54.848ZM317.357 55.576V50.576C314.788 50.576 312.764 50.1954 311.181 49.572L309.349 54.224L307.516 58.876C310.51 60.0553 313.825 60.576 317.357 60.576V55.576ZM309.349 54.224L311.181 49.572C309.557 48.932 308.515 48.1333 307.829 47.2844L303.941 50.428L300.053 53.5716C302.001 55.9813 304.565 57.7133 307.516 58.876L309.349 54.224ZM303.941 50.428L307.869 47.3352C307.226 46.5179 306.872 45.6153 306.798 44.4848L301.809 44.812L296.819 45.1392C297.023 48.2381 298.09 51.0795 300.012 53.5208L303.941 50.428ZM301.809 44.812L306.801 44.5346C306.774 44.0493 306.757 43.2738 306.757 42.16H301.757H296.757C296.757 43.3342 296.774 44.3267 296.816 45.0893L301.809 44.812ZM301.757 42.16H306.757C306.757 41.0033 306.774 40.2389 306.8 39.8016L301.809 39.508L296.817 39.2144C296.774 39.9557 296.757 40.9594 296.757 42.16H301.757ZM301.809 39.508L306.808 39.6006C306.821 38.8993 307.037 38.1642 307.702 37.2964L303.733 34.256L299.763 31.2156C297.932 33.6065 296.866 36.3727 296.81 39.4154L301.809 39.508ZM303.733 34.256L307.661 37.3488C308.369 36.45 309.409 35.6161 310.963 34.9251L308.933 30.356L306.902 25.7869C304.089 27.0373 301.662 28.8033 299.804 31.1632L303.733 34.256ZM308.933 30.356L310.937 34.9368C312.438 34.2799 314.238 33.9 316.421 33.9V28.9V23.9C313.057 23.9 309.865 24.4907 306.929 25.7752L308.933 30.356ZM316.421 28.9V33.9C318.32 33.9 319.974 34.2477 321.444 34.8882L323.441 30.304L325.437 25.7198C322.609 24.4883 319.583 23.9 316.421 23.9V28.9ZM323.441 30.304L321.507 34.915C322.963 35.5257 323.918 36.2927 324.567 37.1404L328.537 34.1L332.506 31.0596C330.659 28.6487 328.217 26.885 325.374 25.693L323.441 30.304ZM328.537 34.1L324.641 37.2338C325.237 37.9745 325.461 38.6632 325.461 39.456H330.461H335.461C335.461 36.2968 334.402 33.4148 332.433 30.9662L328.537 34.1ZM330.461 39.456H325.461C325.461 39.7682 325.438 39.9841 325.415 40.1198C325.392 40.2549 325.372 40.2877 325.389 40.249C325.407 40.2057 325.461 40.096 325.574 39.9611C325.69 39.8227 325.831 39.7013 325.982 39.6096L328.589 43.876L331.196 48.1424C334.579 46.0753 335.461 42.4558 335.461 39.456H330.461ZM328.589 43.876L325.982 39.6096C325.794 39.7244 325.126 40.02 323.545 40.02V45.02V50.02C326.192 50.02 328.888 49.553 331.196 48.1424L328.589 43.876ZM323.545 45.02V40.02H310.545V45.02V50.02H323.545V45.02ZM320.581 39.456V44.456C321.092 44.456 322.314 44.4608 323.41 44.0954L321.829 39.352L320.248 34.6086C320.395 34.5594 320.518 34.5274 320.605 34.5072C320.693 34.4865 320.764 34.4735 320.812 34.4655C320.903 34.4503 320.953 34.4466 320.946 34.4473C320.941 34.4476 320.909 34.4501 320.843 34.4523C320.778 34.4544 320.692 34.456 320.581 34.456V39.456ZM321.829 39.352L323.41 44.0954C324.701 43.6652 325.788 42.7682 326.452 41.5513C327.042 40.4705 327.141 39.4305 327.141 38.78H322.141H317.141C317.141 38.4415 317.188 37.6528 317.673 36.7627C318.233 35.7364 319.165 34.9695 320.248 34.6086L321.829 39.352ZM322.141 38.78H327.141C327.141 35.6375 325.419 33.2869 323.22 31.8438L320.477 36.024L317.733 40.2042C317.807 40.2528 317.634 40.1574 317.444 39.8433C317.235 39.4957 317.141 39.104 317.141 38.78H322.141ZM320.477 36.024L323.309 31.9038C321.205 30.4568 318.794 29.88 316.369 29.88V34.88V39.88C317.203 39.88 317.53 40.0658 317.644 40.1442L320.477 36.024ZM316.369 34.88V29.88C314.025 29.88 311.697 30.3834 309.617 31.644L312.209 35.92L314.8 40.196C315.008 40.0699 315.454 39.88 316.369 39.88V34.88ZM312.209 35.92L309.559 31.68C307.294 33.0955 305.545 35.4579 305.545 38.624H310.545H315.545C315.545 38.9479 315.451 39.3603 315.219 39.7365C315.008 40.0791 314.807 40.1926 314.859 40.16L312.209 35.92ZM310.545 38.624H305.545V39.456H310.545H315.545V38.624H310.545ZM310.545 39.456V44.456H320.581V39.456V34.456H310.545V39.456ZM336.797 54.224L339.921 50.3197L339.911 50.3117L339.901 50.3038L336.797 54.224ZM336.797 16.16L333.772 12.1792L333.733 12.2091L333.694 12.2398L336.797 16.16ZM343.037 16.16L346.063 12.1792V12.1792L343.037 16.16ZM343.037 54.224L340.012 50.2432L339.963 50.2808L339.914 50.3197L343.037 54.224ZM336.797 54.224L339.901 50.3038C340.133 50.4879 340.336 50.7497 340.457 51.0324C340.567 51.2878 340.549 51.4181 340.549 51.312H335.549H330.549C330.549 53.7683 331.411 56.3372 333.694 58.1442L336.797 54.224ZM335.549 51.312H340.549V19.072H335.549H330.549V51.312H335.549ZM335.549 19.072H340.549C340.549 18.9659 340.567 19.0962 340.457 19.3516C340.336 19.6343 340.133 19.8961 339.901 20.0802L336.797 16.16L333.694 12.2398C331.411 14.0468 330.549 16.6157 330.549 19.072H335.549ZM336.797 16.16L339.823 20.1408C339.815 20.1471 339.8 20.157 339.78 20.1671C339.761 20.1772 339.745 20.1831 339.737 20.1857C339.729 20.1882 339.736 20.1851 339.763 20.1812C339.79 20.1772 339.84 20.172 339.917 20.172V15.172V10.172C337.743 10.172 335.608 10.7837 333.772 12.1792L336.797 16.16ZM339.917 15.172V20.172C339.994 20.172 340.045 20.1772 340.072 20.1812C340.099 20.1851 340.106 20.1882 340.098 20.1857C340.09 20.1831 340.074 20.1772 340.055 20.1671C340.035 20.157 340.02 20.1471 340.012 20.1408L343.037 16.16L346.063 12.1792C344.227 10.7837 342.092 10.172 339.917 10.172V15.172ZM343.037 16.16L340.012 20.1408C339.794 19.9749 339.581 19.7205 339.447 19.4203C339.324 19.1459 339.337 18.9907 339.337 19.072H344.337H349.337C349.337 16.541 348.404 13.9586 346.063 12.1792L343.037 16.16ZM344.337 19.072H339.337V51.312H344.337H349.337V19.072H344.337ZM344.337 51.312H339.337C339.337 51.3933 339.324 51.2381 339.447 50.9637C339.581 50.6635 339.794 50.4091 340.012 50.2432L343.037 54.224L346.063 58.2048C348.404 56.4254 349.337 53.843 349.337 51.312H344.337ZM343.037 54.224L339.914 50.3197C339.921 50.3143 339.937 50.3026 339.961 50.2895C339.985 50.2763 340.008 50.2667 340.026 50.2606C340.044 50.2546 340.049 50.255 340.035 50.2571C340.02 50.2594 339.982 50.264 339.917 50.264V55.264V60.264C342.153 60.264 344.323 59.5983 346.161 58.1283L343.037 54.224ZM339.917 55.264V50.264C339.852 50.264 339.815 50.2594 339.8 50.2571C339.786 50.255 339.791 50.2546 339.809 50.2606C339.827 50.2667 339.85 50.2763 339.874 50.2895C339.898 50.3026 339.914 50.3143 339.921 50.3197L336.797 54.224L333.674 58.1283C335.511 59.5983 337.682 60.264 339.917 60.264V55.264Z" fill="white" mask="url(#path-2-outside-1_518_15)"/>
</svg>
