<svg width="354" height="73" viewBox="0 0 354 73" fill="none" xmlns="http://www.w3.org/2000/svg">
<path d="M323.052 24.18H326.748V49.464H323.052V34.932H316.332V31.936H323.052V24.18ZM306.84 26.868H310.536V40.448C313.644 40.392 316.892 40.14 320.224 39.468L320.616 42.52C316.556 43.332 312.692 43.528 308.996 43.528H306.84V26.868ZM332.853 25.132H350.213V26.868C350.213 28.436 350.213 30.396 349.765 32.804H352.873V35.716H343.297V37.928H350.157V44.816H336.325V46.356H350.801V49.24H332.629V42.296H346.433V40.84H332.573V37.928H339.573V35.716H330.053V32.804H346.041C346.433 30.9 346.517 29.388 346.545 28.044H332.853V25.132Z" fill="#555555"/>
<mask id="path-2-outside-1_517_5" maskUnits="userSpaceOnUse" x="-0.259766" y="10" width="295" height="51" fill="black">
<rect fill="white" x="-0.259766" y="10" width="295" height="51"/>
<path d="M8.95223 22.192C7.49623 22.192 6.47357 21.88 5.88423 21.256C5.2949 20.5973 5.00023 19.8347 5.00023 18.968C5.00023 18.5867 5.05223 18.2227 5.15623 17.876C5.2949 17.4947 5.5029 17.1653 5.78023 16.888C6.09223 16.576 6.4909 16.3333 6.97623 16.16C7.49623 15.952 8.1549 15.848 8.95223 15.848H35.1602C36.6162 15.848 37.6389 16.1773 38.2282 16.836C38.8176 17.46 39.1122 18.2227 39.1122 19.124C39.1122 19.5053 39.0429 19.8867 38.9042 20.268C38.8002 20.6147 38.5922 20.9267 38.2802 21.204C38.0029 21.4813 37.6042 21.724 37.0842 21.932C36.5989 22.1053 35.9576 22.192 35.1602 22.192H26.6322V51.26C26.6322 51.9533 26.4936 52.5427 26.2162 53.028C25.9736 53.548 25.6442 53.964 25.2282 54.276C24.8122 54.6227 24.3269 54.8653 23.7722 55.004C23.2522 55.1773 22.7149 55.264 22.1602 55.264C21.5709 55.264 20.9989 55.1773 20.4442 55.004C19.9242 54.8653 19.4389 54.6227 18.9882 54.276C18.5722 53.964 18.2256 53.548 17.9482 53.028C17.7056 52.5427 17.5842 51.9533 17.5842 51.26V22.192H8.95223ZM51.3448 29.004C53.8062 29.004 56.1115 29.4547 58.2608 30.356C60.4102 31.2573 62.1608 32.5227 63.5128 34.152C64.8995 35.7813 65.6795 37.6533 65.8528 39.768C65.9222 40.808 65.9568 41.5707 65.9568 42.056C65.9568 42.6453 65.9222 43.564 65.8528 44.812C65.7142 46.9267 64.9862 48.7987 63.6688 50.428C62.3515 52.0573 60.6008 53.3227 58.4168 54.224C56.2675 55.1253 53.9102 55.576 51.3448 55.576C48.8142 55.576 46.4742 55.108 44.3248 54.172C42.2102 53.2707 40.4768 52.0053 39.1248 50.376C37.8075 48.7467 37.0622 46.892 36.8888 44.812C36.8542 44.2227 36.8368 43.3733 36.8368 42.264C36.8368 41.1547 36.8542 40.3227 36.8888 39.768C37.0622 37.6187 37.7902 35.7293 39.0728 34.1C40.3902 32.4707 42.1062 31.2227 44.2208 30.356C46.3702 29.4547 48.7448 29.004 51.3448 29.004ZM45.6248 44.864C45.6248 46.2507 46.1622 47.36 47.2368 48.192C48.3115 48.9893 49.6808 49.388 51.3448 49.388C52.9395 49.388 54.2568 48.9893 55.2968 48.192C56.3368 47.3947 56.9435 46.2853 57.1168 44.864C57.1862 44.3787 57.2208 43.6333 57.2208 42.628C57.2208 41.9 57.1862 40.912 57.1168 39.664C57.0128 38.2427 56.4408 37.168 55.4008 36.44C54.3955 35.6773 53.0435 35.296 51.3448 35.296C49.8195 35.296 48.5195 35.6947 47.4448 36.492C46.4048 37.2547 45.7982 38.312 45.6248 39.664C45.5208 40.5307 45.4688 41.4147 45.4688 42.316C45.4688 43.1827 45.5208 44.032 45.6248 44.864ZM71.4928 33.164C71.4928 31.916 71.9261 30.9627 72.7928 30.304C73.6595 29.6453 74.7168 29.316 75.9648 29.316C76.9355 29.316 77.7328 29.524 78.3568 29.94C79.0155 30.356 79.4661 30.876 79.7088 31.5C80.4715 30.564 81.3901 29.9227 82.4648 29.576C83.5395 29.1947 84.8221 29.004 86.3128 29.004C90.3688 29.004 93.5061 30.1827 95.7248 32.54C97.7008 30.1827 100.613 29.004 104.461 29.004C108.413 29.004 111.602 29.9573 114.029 31.864C116.455 33.7707 117.669 36.44 117.669 39.872V51.468C117.669 52.716 117.357 53.652 116.733 54.276C116.109 54.9347 114.982 55.264 113.353 55.264C112.001 55.264 110.909 54.9347 110.077 54.276C109.279 53.652 108.881 52.7507 108.881 51.572V39.768C108.881 38.3813 108.447 37.2893 107.581 36.492C106.714 35.6947 105.535 35.296 104.045 35.296C102.485 35.296 101.254 35.712 100.353 36.544C99.4861 37.376 99.0528 38.5027 99.0528 39.924V51.728C99.0528 52.9413 98.7061 53.8253 98.0128 54.38C97.3195 54.9693 96.1581 55.264 94.5288 55.264C93.1421 55.264 92.0675 54.952 91.3048 54.328C90.5768 53.7387 90.2128 52.8893 90.2128 51.78V39.768C90.2128 38.3813 89.7795 37.2893 88.9128 36.492C88.0461 35.6947 86.8848 35.296 85.4288 35.296C82.0661 35.296 80.3848 36.9947 80.3848 40.392V50.844C80.3848 52.3347 80.0208 53.444 79.2928 54.172C78.5995 54.9 77.4381 55.264 75.8088 55.264C74.4915 55.264 73.4341 54.952 72.6368 54.328C71.8741 53.7387 71.4928 52.8893 71.4928 51.78V33.164ZM147.76 37.168C147.205 37.7227 146.182 38 144.692 38H127.428C124.724 38 123.372 36.9427 123.372 34.828C123.372 33.9267 123.666 33.1813 124.256 32.592C124.88 32.0027 125.937 31.708 127.428 31.708H144.692C147.326 31.708 148.644 32.7827 148.644 34.932C148.644 35.868 148.349 36.6133 147.76 37.168ZM187.648 50.896C187.648 51.728 187.526 52.4213 187.284 52.976C187.041 53.5307 186.712 53.964 186.296 54.276C185.88 54.6227 185.412 54.8653 184.892 55.004C184.372 55.1773 183.834 55.264 183.28 55.264C182.136 55.264 181.113 55.0733 180.212 54.692C179.31 54.3453 178.6 53.7733 178.08 52.976L164.04 31.708V51.26C164.04 52.6813 163.589 53.704 162.688 54.328C161.786 54.952 160.781 55.264 159.672 55.264C159.082 55.264 158.51 55.1773 157.956 55.004C157.401 54.8653 156.898 54.6227 156.448 54.276C156.032 53.964 155.685 53.548 155.408 53.028C155.165 52.5427 155.044 51.9533 155.044 51.26V19.488C155.044 19.072 155.13 18.656 155.304 18.24C155.512 17.824 155.806 17.4427 156.188 17.096C156.569 16.7147 157.037 16.42 157.592 16.212C158.181 15.9693 158.874 15.848 159.672 15.848C160.4 15.848 161.041 15.9 161.596 16.004C162.15 16.108 162.653 16.2987 163.104 16.576C163.554 16.8187 163.988 17.1653 164.404 17.616C164.82 18.0667 165.253 18.6387 165.704 19.332L178.652 39.248V19.696C178.652 18.3787 179.12 17.408 180.056 16.784C181.026 16.16 182.101 15.848 183.28 15.848C183.834 15.848 184.372 15.9347 184.892 16.108C185.412 16.2467 185.88 16.472 186.296 16.784C186.712 17.096 187.041 17.4947 187.284 17.98C187.526 18.4653 187.648 19.0373 187.648 19.696V50.896ZM208.411 29.004C210.873 29.004 213.178 29.4547 215.327 30.356C217.477 31.2573 219.227 32.5227 220.579 34.152C221.966 35.7813 222.746 37.6533 222.919 39.768C222.989 40.808 223.023 41.5707 223.023 42.056C223.023 42.6453 222.989 43.564 222.919 44.812C222.781 46.9267 222.053 48.7987 220.735 50.428C219.418 52.0573 217.667 53.3227 215.483 54.224C213.334 55.1253 210.977 55.576 208.411 55.576C205.881 55.576 203.541 55.108 201.391 54.172C199.277 53.2707 197.543 52.0053 196.191 50.376C194.874 48.7467 194.129 46.892 193.955 44.812C193.921 44.2227 193.903 43.3733 193.903 42.264C193.903 41.1547 193.921 40.3227 193.955 39.768C194.129 37.6187 194.857 35.7293 196.139 34.1C197.457 32.4707 199.173 31.2227 201.287 30.356C203.437 29.4547 205.811 29.004 208.411 29.004ZM202.691 44.864C202.691 46.2507 203.229 47.36 204.303 48.192C205.378 48.9893 206.747 49.388 208.411 49.388C210.006 49.388 211.323 48.9893 212.363 48.192C213.403 47.3947 214.01 46.2853 214.183 44.864C214.253 44.3787 214.287 43.6333 214.287 42.628C214.287 41.9 214.253 40.912 214.183 39.664C214.079 38.2427 213.507 37.168 212.467 36.44C211.462 35.6773 210.11 35.296 208.411 35.296C206.886 35.296 205.586 35.6947 204.511 36.492C203.471 37.2547 202.865 38.312 202.691 39.664C202.587 40.5307 202.535 41.4147 202.535 42.316C202.535 43.1827 202.587 44.032 202.691 44.864ZM242.079 29.004C244.541 29.004 246.846 29.4547 248.995 30.356C251.145 31.2573 252.895 32.5227 254.247 34.152C255.634 35.7813 256.414 37.6533 256.587 39.768C256.657 40.808 256.691 41.5707 256.691 42.056C256.691 42.6453 256.657 43.564 256.587 44.812C256.449 46.9267 255.721 48.7987 254.403 50.428C253.086 52.0573 251.335 53.3227 249.151 54.224C247.002 55.1253 244.645 55.576 242.079 55.576C239.549 55.576 237.209 55.108 235.059 54.172C232.945 53.2707 231.211 52.0053 229.859 50.376C228.542 48.7467 227.797 46.892 227.623 44.812C227.589 44.2227 227.571 43.3733 227.571 42.264C227.571 41.1547 227.589 40.3227 227.623 39.768C227.797 37.6187 228.525 35.7293 229.807 34.1C231.125 32.4707 232.841 31.2227 234.955 30.356C237.105 29.4547 239.479 29.004 242.079 29.004ZM236.359 44.864C236.359 46.2507 236.897 47.36 237.971 48.192C239.046 48.9893 240.415 49.388 242.079 49.388C243.674 49.388 244.991 48.9893 246.031 48.192C247.071 47.3947 247.678 46.2853 247.851 44.864C247.921 44.3787 247.955 43.6333 247.955 42.628C247.955 41.9 247.921 40.912 247.851 39.664C247.747 38.2427 247.175 37.168 246.135 36.44C245.13 35.6773 243.778 35.296 242.079 35.296C240.554 35.296 239.254 35.6947 238.179 36.492C237.139 37.2547 236.533 38.312 236.359 39.664C236.255 40.5307 236.203 41.4147 236.203 42.316C236.203 43.1827 236.255 44.032 236.359 44.864ZM270.963 51.312C270.963 52.6293 270.547 53.6173 269.715 54.276C268.883 54.9347 267.843 55.264 266.595 55.264C265.382 55.264 264.342 54.9173 263.475 54.224C262.643 53.5653 262.227 52.5947 262.227 51.312V19.072C262.227 17.7893 262.643 16.8187 263.475 16.16C264.342 15.5013 265.382 15.172 266.595 15.172C267.843 15.172 268.883 15.5013 269.715 16.16C270.547 16.8187 270.963 17.7893 270.963 19.072V37.688L281.207 29.524C281.935 28.9347 282.767 28.64 283.703 28.64C284.709 28.64 285.61 28.9867 286.407 29.68C287.17 30.304 287.551 31.1013 287.551 32.072C287.551 32.6267 287.413 33.164 287.135 33.684C286.893 34.1693 286.529 34.6027 286.043 34.984L278.035 41.484L287.551 49.44C288.383 50.168 288.799 51.0347 288.799 52.04C288.799 52.5253 288.695 52.9933 288.487 53.444C288.279 53.9293 288.002 54.3453 287.655 54.692C286.893 55.3853 286.009 55.732 285.003 55.732C284.033 55.732 283.114 55.3853 282.247 54.692L270.963 45.176V51.312Z"/>
</mask>
<path d="M8.95223 22.192C7.49623 22.192 6.47357 21.88 5.88423 21.256C5.2949 20.5973 5.00023 19.8347 5.00023 18.968C5.00023 18.5867 5.05223 18.2227 5.15623 17.876C5.2949 17.4947 5.5029 17.1653 5.78023 16.888C6.09223 16.576 6.4909 16.3333 6.97623 16.16C7.49623 15.952 8.1549 15.848 8.95223 15.848H35.1602C36.6162 15.848 37.6389 16.1773 38.2282 16.836C38.8176 17.46 39.1122 18.2227 39.1122 19.124C39.1122 19.5053 39.0429 19.8867 38.9042 20.268C38.8002 20.6147 38.5922 20.9267 38.2802 21.204C38.0029 21.4813 37.6042 21.724 37.0842 21.932C36.5989 22.1053 35.9576 22.192 35.1602 22.192H26.6322V51.26C26.6322 51.9533 26.4936 52.5427 26.2162 53.028C25.9736 53.548 25.6442 53.964 25.2282 54.276C24.8122 54.6227 24.3269 54.8653 23.7722 55.004C23.2522 55.1773 22.7149 55.264 22.1602 55.264C21.5709 55.264 20.9989 55.1773 20.4442 55.004C19.9242 54.8653 19.4389 54.6227 18.9882 54.276C18.5722 53.964 18.2256 53.548 17.9482 53.028C17.7056 52.5427 17.5842 51.9533 17.5842 51.26V22.192H8.95223ZM51.3448 29.004C53.8062 29.004 56.1115 29.4547 58.2608 30.356C60.4102 31.2573 62.1608 32.5227 63.5128 34.152C64.8995 35.7813 65.6795 37.6533 65.8528 39.768C65.9222 40.808 65.9568 41.5707 65.9568 42.056C65.9568 42.6453 65.9222 43.564 65.8528 44.812C65.7142 46.9267 64.9862 48.7987 63.6688 50.428C62.3515 52.0573 60.6008 53.3227 58.4168 54.224C56.2675 55.1253 53.9102 55.576 51.3448 55.576C48.8142 55.576 46.4742 55.108 44.3248 54.172C42.2102 53.2707 40.4768 52.0053 39.1248 50.376C37.8075 48.7467 37.0622 46.892 36.8888 44.812C36.8542 44.2227 36.8368 43.3733 36.8368 42.264C36.8368 41.1547 36.8542 40.3227 36.8888 39.768C37.0622 37.6187 37.7902 35.7293 39.0728 34.1C40.3902 32.4707 42.1062 31.2227 44.2208 30.356C46.3702 29.4547 48.7448 29.004 51.3448 29.004ZM45.6248 44.864C45.6248 46.2507 46.1622 47.36 47.2368 48.192C48.3115 48.9893 49.6808 49.388 51.3448 49.388C52.9395 49.388 54.2568 48.9893 55.2968 48.192C56.3368 47.3947 56.9435 46.2853 57.1168 44.864C57.1862 44.3787 57.2208 43.6333 57.2208 42.628C57.2208 41.9 57.1862 40.912 57.1168 39.664C57.0128 38.2427 56.4408 37.168 55.4008 36.44C54.3955 35.6773 53.0435 35.296 51.3448 35.296C49.8195 35.296 48.5195 35.6947 47.4448 36.492C46.4048 37.2547 45.7982 38.312 45.6248 39.664C45.5208 40.5307 45.4688 41.4147 45.4688 42.316C45.4688 43.1827 45.5208 44.032 45.6248 44.864ZM71.4928 33.164C71.4928 31.916 71.9261 30.9627 72.7928 30.304C73.6595 29.6453 74.7168 29.316 75.9648 29.316C76.9355 29.316 77.7328 29.524 78.3568 29.94C79.0155 30.356 79.4661 30.876 79.7088 31.5C80.4715 30.564 81.3901 29.9227 82.4648 29.576C83.5395 29.1947 84.8221 29.004 86.3128 29.004C90.3688 29.004 93.5061 30.1827 95.7248 32.54C97.7008 30.1827 100.613 29.004 104.461 29.004C108.413 29.004 111.602 29.9573 114.029 31.864C116.455 33.7707 117.669 36.44 117.669 39.872V51.468C117.669 52.716 117.357 53.652 116.733 54.276C116.109 54.9347 114.982 55.264 113.353 55.264C112.001 55.264 110.909 54.9347 110.077 54.276C109.279 53.652 108.881 52.7507 108.881 51.572V39.768C108.881 38.3813 108.447 37.2893 107.581 36.492C106.714 35.6947 105.535 35.296 104.045 35.296C102.485 35.296 101.254 35.712 100.353 36.544C99.4861 37.376 99.0528 38.5027 99.0528 39.924V51.728C99.0528 52.9413 98.7061 53.8253 98.0128 54.38C97.3195 54.9693 96.1581 55.264 94.5288 55.264C93.1421 55.264 92.0675 54.952 91.3048 54.328C90.5768 53.7387 90.2128 52.8893 90.2128 51.78V39.768C90.2128 38.3813 89.7795 37.2893 88.9128 36.492C88.0461 35.6947 86.8848 35.296 85.4288 35.296C82.0661 35.296 80.3848 36.9947 80.3848 40.392V50.844C80.3848 52.3347 80.0208 53.444 79.2928 54.172C78.5995 54.9 77.4381 55.264 75.8088 55.264C74.4915 55.264 73.4341 54.952 72.6368 54.328C71.8741 53.7387 71.4928 52.8893 71.4928 51.78V33.164ZM147.76 37.168C147.205 37.7227 146.182 38 144.692 38H127.428C124.724 38 123.372 36.9427 123.372 34.828C123.372 33.9267 123.666 33.1813 124.256 32.592C124.88 32.0027 125.937 31.708 127.428 31.708H144.692C147.326 31.708 148.644 32.7827 148.644 34.932C148.644 35.868 148.349 36.6133 147.76 37.168ZM187.648 50.896C187.648 51.728 187.526 52.4213 187.284 52.976C187.041 53.5307 186.712 53.964 186.296 54.276C185.88 54.6227 185.412 54.8653 184.892 55.004C184.372 55.1773 183.834 55.264 183.28 55.264C182.136 55.264 181.113 55.0733 180.212 54.692C179.31 54.3453 178.6 53.7733 178.08 52.976L164.04 31.708V51.26C164.04 52.6813 163.589 53.704 162.688 54.328C161.786 54.952 160.781 55.264 159.672 55.264C159.082 55.264 158.51 55.1773 157.956 55.004C157.401 54.8653 156.898 54.6227 156.448 54.276C156.032 53.964 155.685 53.548 155.408 53.028C155.165 52.5427 155.044 51.9533 155.044 51.26V19.488C155.044 19.072 155.13 18.656 155.304 18.24C155.512 17.824 155.806 17.4427 156.188 17.096C156.569 16.7147 157.037 16.42 157.592 16.212C158.181 15.9693 158.874 15.848 159.672 15.848C160.4 15.848 161.041 15.9 161.596 16.004C162.15 16.108 162.653 16.2987 163.104 16.576C163.554 16.8187 163.988 17.1653 164.404 17.616C164.82 18.0667 165.253 18.6387 165.704 19.332L178.652 39.248V19.696C178.652 18.3787 179.12 17.408 180.056 16.784C181.026 16.16 182.101 15.848 183.28 15.848C183.834 15.848 184.372 15.9347 184.892 16.108C185.412 16.2467 185.88 16.472 186.296 16.784C186.712 17.096 187.041 17.4947 187.284 17.98C187.526 18.4653 187.648 19.0373 187.648 19.696V50.896ZM208.411 29.004C210.873 29.004 213.178 29.4547 215.327 30.356C217.477 31.2573 219.227 32.5227 220.579 34.152C221.966 35.7813 222.746 37.6533 222.919 39.768C222.989 40.808 223.023 41.5707 223.023 42.056C223.023 42.6453 222.989 43.564 222.919 44.812C222.781 46.9267 222.053 48.7987 220.735 50.428C219.418 52.0573 217.667 53.3227 215.483 54.224C213.334 55.1253 210.977 55.576 208.411 55.576C205.881 55.576 203.541 55.108 201.391 54.172C199.277 53.2707 197.543 52.0053 196.191 50.376C194.874 48.7467 194.129 46.892 193.955 44.812C193.921 44.2227 193.903 43.3733 193.903 42.264C193.903 41.1547 193.921 40.3227 193.955 39.768C194.129 37.6187 194.857 35.7293 196.139 34.1C197.457 32.4707 199.173 31.2227 201.287 30.356C203.437 29.4547 205.811 29.004 208.411 29.004ZM202.691 44.864C202.691 46.2507 203.229 47.36 204.303 48.192C205.378 48.9893 206.747 49.388 208.411 49.388C210.006 49.388 211.323 48.9893 212.363 48.192C213.403 47.3947 214.01 46.2853 214.183 44.864C214.253 44.3787 214.287 43.6333 214.287 42.628C214.287 41.9 214.253 40.912 214.183 39.664C214.079 38.2427 213.507 37.168 212.467 36.44C211.462 35.6773 210.11 35.296 208.411 35.296C206.886 35.296 205.586 35.6947 204.511 36.492C203.471 37.2547 202.865 38.312 202.691 39.664C202.587 40.5307 202.535 41.4147 202.535 42.316C202.535 43.1827 202.587 44.032 202.691 44.864ZM242.079 29.004C244.541 29.004 246.846 29.4547 248.995 30.356C251.145 31.2573 252.895 32.5227 254.247 34.152C255.634 35.7813 256.414 37.6533 256.587 39.768C256.657 40.808 256.691 41.5707 256.691 42.056C256.691 42.6453 256.657 43.564 256.587 44.812C256.449 46.9267 255.721 48.7987 254.403 50.428C253.086 52.0573 251.335 53.3227 249.151 54.224C247.002 55.1253 244.645 55.576 242.079 55.576C239.549 55.576 237.209 55.108 235.059 54.172C232.945 53.2707 231.211 52.0053 229.859 50.376C228.542 48.7467 227.797 46.892 227.623 44.812C227.589 44.2227 227.571 43.3733 227.571 42.264C227.571 41.1547 227.589 40.3227 227.623 39.768C227.797 37.6187 228.525 35.7293 229.807 34.1C231.125 32.4707 232.841 31.2227 234.955 30.356C237.105 29.4547 239.479 29.004 242.079 29.004ZM236.359 44.864C236.359 46.2507 236.897 47.36 237.971 48.192C239.046 48.9893 240.415 49.388 242.079 49.388C243.674 49.388 244.991 48.9893 246.031 48.192C247.071 47.3947 247.678 46.2853 247.851 44.864C247.921 44.3787 247.955 43.6333 247.955 42.628C247.955 41.9 247.921 40.912 247.851 39.664C247.747 38.2427 247.175 37.168 246.135 36.44C245.13 35.6773 243.778 35.296 242.079 35.296C240.554 35.296 239.254 35.6947 238.179 36.492C237.139 37.2547 236.533 38.312 236.359 39.664C236.255 40.5307 236.203 41.4147 236.203 42.316C236.203 43.1827 236.255 44.032 236.359 44.864ZM270.963 51.312C270.963 52.6293 270.547 53.6173 269.715 54.276C268.883 54.9347 267.843 55.264 266.595 55.264C265.382 55.264 264.342 54.9173 263.475 54.224C262.643 53.5653 262.227 52.5947 262.227 51.312V19.072C262.227 17.7893 262.643 16.8187 263.475 16.16C264.342 15.5013 265.382 15.172 266.595 15.172C267.843 15.172 268.883 15.5013 269.715 16.16C270.547 16.8187 270.963 17.7893 270.963 19.072V37.688L281.207 29.524C281.935 28.9347 282.767 28.64 283.703 28.64C284.709 28.64 285.61 28.9867 286.407 29.68C287.17 30.304 287.551 31.1013 287.551 32.072C287.551 32.6267 287.413 33.164 287.135 33.684C286.893 34.1693 286.529 34.6027 286.043 34.984L278.035 41.484L287.551 49.44C288.383 50.168 288.799 51.0347 288.799 52.04C288.799 52.5253 288.695 52.9933 288.487 53.444C288.279 53.9293 288.002 54.3453 287.655 54.692C286.893 55.3853 286.009 55.732 285.003 55.732C284.033 55.732 283.114 55.3853 282.247 54.692L270.963 45.176V51.312Z" fill="#19C8B9"/>
<path d="M5.88423 21.256L2.15803 24.59L2.20293 24.6402L2.24917 24.6891L5.88423 21.256ZM5.15623 17.876L0.457268 16.1673L0.408288 16.302L0.367104 16.4393L5.15623 17.876ZM5.78023 16.888L2.2447 13.3525H2.2447L5.78023 16.888ZM6.97623 16.16L8.65791 20.8687L8.74618 20.8372L8.8332 20.8024L6.97623 16.16ZM38.2282 16.836L34.502 20.17L34.5469 20.2202L34.5932 20.2691L38.2282 16.836ZM38.9042 20.268L34.2053 18.5593L34.1563 18.694L34.1151 18.8313L38.9042 20.268ZM38.2802 21.204L34.9584 17.467L34.8486 17.5646L34.7447 17.6685L38.2802 21.204ZM37.0842 21.932L38.7659 26.6407L38.8542 26.6092L38.9412 26.5744L37.0842 21.932ZM26.6322 22.192V17.192H21.6322V22.192H26.6322ZM26.2162 53.028L21.875 50.5473L21.7726 50.7265L21.6853 50.9136L26.2162 53.028ZM25.2282 54.276L22.2282 50.276L22.1257 50.3529L22.0273 50.4349L25.2282 54.276ZM23.7722 55.004L22.5596 50.1533L22.3733 50.1999L22.1911 50.2606L23.7722 55.004ZM20.4442 55.004L21.9356 50.2316L21.8347 50.2001L21.7325 50.1728L20.4442 55.004ZM18.9882 54.276L22.0368 50.3129L22.0126 50.2943L21.9882 50.276L18.9882 54.276ZM17.9482 53.028L13.4761 55.2641L13.5055 55.3229L13.5365 55.3809L17.9482 53.028ZM17.5842 22.192H22.5842V17.192H17.5842V22.192ZM8.95223 22.192V17.192C8.55292 17.192 8.45472 17.1459 8.55227 17.1756C8.66956 17.2114 9.08835 17.3666 9.5193 17.8229L5.88423 21.256L2.24917 24.6891C4.26355 26.822 7.02719 27.192 8.95223 27.192V22.192ZM5.88423 21.256L9.61044 17.922C9.68555 18.006 9.79799 18.1622 9.88523 18.388C9.97306 18.6153 10.0002 18.8225 10.0002 18.968H5.00023H0.000234604C0.000234604 21.0914 0.766327 23.0345 2.15803 24.59L5.88423 21.256ZM5.00023 18.968H10.0002C10.0002 19.0471 9.98852 19.1689 9.94537 19.3127L5.15623 17.876L0.367104 16.4393C0.115952 17.2764 0.000234604 18.1262 0.000234604 18.968H5.00023ZM5.15623 17.876L9.8552 19.5847C9.75305 19.8656 9.5731 20.1662 9.31577 20.4235L5.78023 16.888L2.2447 13.3525C1.4327 14.1645 0.83675 15.1237 0.457268 16.1673L5.15623 17.876ZM5.78023 16.888L9.31577 20.4235C9.02338 20.7159 8.75331 20.8346 8.65791 20.8687L6.97623 16.16L5.29455 11.4513C4.22849 11.832 3.16109 12.4361 2.2447 13.3525L5.78023 16.888ZM6.97623 16.16L8.8332 20.8024C8.75908 20.832 8.70354 20.8486 8.67171 20.857C8.63994 20.8654 8.62818 20.8667 8.64005 20.8648C8.65187 20.8629 8.68318 20.8586 8.73647 20.8548C8.78966 20.851 8.86101 20.848 8.95223 20.848V15.848V10.848C7.76718 10.848 6.42343 10.996 5.11927 11.5176L6.97623 16.16ZM8.95223 15.848V20.848H35.1602V15.848V10.848H8.95223V15.848ZM35.1602 15.848V20.848C35.5398 20.848 35.6111 20.8944 35.4866 20.8543C35.335 20.8055 34.9146 20.6311 34.502 20.17L38.2282 16.836L41.9544 13.502C39.9519 11.2639 37.1483 10.848 35.1602 10.848V15.848ZM38.2282 16.836L34.5932 20.2691C34.4648 20.1332 34.3253 19.9319 34.2272 19.678C34.1308 19.4284 34.1122 19.2265 34.1122 19.124H39.1122H44.1122C44.1122 17.0166 43.3765 15.0051 41.8633 13.4029L38.2282 16.836ZM39.1122 19.124H34.1122C34.1122 18.8861 34.1576 18.6903 34.2053 18.5593L38.9042 20.268L43.6032 21.9767C43.9282 21.083 44.1122 20.1245 44.1122 19.124H39.1122ZM38.9042 20.268L34.1151 18.8313C34.3163 18.1607 34.6858 17.7092 34.9584 17.467L38.2802 21.204L41.6021 24.941C42.4986 24.1441 43.2842 23.0686 43.6934 21.7047L38.9042 20.268ZM38.2802 21.204L34.7447 17.6685C34.9348 17.4784 35.095 17.3708 35.1735 17.323C35.2524 17.275 35.279 17.2689 35.2273 17.2896L37.0842 21.932L38.9412 26.5744C39.8413 26.2143 40.901 25.6543 41.8158 24.7395L38.2802 21.204ZM37.0842 21.932L35.4026 17.2233C35.4841 17.1942 35.5411 17.1797 35.5667 17.1738C35.5925 17.1678 35.5949 17.1686 35.5696 17.172C35.5148 17.1794 35.3841 17.192 35.1602 17.192V22.192V27.192C36.2521 27.192 37.5294 27.0823 38.7659 26.6407L37.0842 21.932ZM35.1602 22.192V17.192H26.6322V22.192V27.192H35.1602V22.192ZM26.6322 22.192H21.6322V51.26H26.6322H31.6322V22.192H26.6322ZM26.6322 51.26H21.6322C21.6322 51.2902 21.6284 50.9789 21.875 50.5473L26.2162 53.028L30.5574 55.5087C31.3587 54.1065 31.6322 52.6165 31.6322 51.26H26.6322ZM26.2162 53.028L21.6853 50.9136C21.7535 50.7674 21.9206 50.5067 22.2282 50.276L25.2282 54.276L28.2282 58.276C29.3678 57.4213 30.1936 56.3286 30.7472 55.1424L26.2162 53.028ZM25.2282 54.276L22.0273 50.4349C22.1161 50.3609 22.2147 50.2966 22.3162 50.2459C22.4168 50.1956 22.5019 50.1677 22.5596 50.1533L23.7722 55.004L24.9849 59.8547C26.2281 59.5439 27.4027 58.9725 28.4292 58.1171L25.2282 54.276ZM23.7722 55.004L22.1911 50.2606C22.1877 50.2617 22.1858 50.2622 22.185 50.2624C22.1843 50.2626 22.1837 50.2627 22.1831 50.2628C22.1826 50.2629 22.176 50.264 22.1602 50.264V55.264V60.264C23.2458 60.264 24.3174 60.0927 25.3534 59.7474L23.7722 55.004ZM22.1602 55.264V50.264C22.0694 50.264 22.0007 50.2519 21.9356 50.2316L20.4442 55.004L18.9529 59.7764C19.9971 60.1027 21.0724 60.264 22.1602 60.264V55.264ZM20.4442 55.004L21.7325 50.1728C21.8025 50.1915 21.8685 50.217 21.9263 50.2459C21.9835 50.2744 22.0203 50.3002 22.0368 50.3129L18.9882 54.276L15.9397 58.2391C16.8839 58.9655 17.962 59.5168 19.1559 59.8352L20.4442 55.004ZM18.9882 54.276L21.9882 50.276C22.2312 50.4582 22.339 50.6356 22.36 50.6751L17.9482 53.028L13.5365 55.3809C14.1122 56.4604 14.9133 57.4698 15.9882 58.276L18.9882 54.276ZM17.9482 53.028L22.4204 50.7919C22.6076 51.1664 22.5842 51.3862 22.5842 51.26H17.5842H12.5842C12.5842 52.5204 12.8035 53.9189 13.4761 55.2641L17.9482 53.028ZM17.5842 51.26H22.5842V22.192H17.5842H12.5842V51.26H17.5842ZM17.5842 22.192V17.192H8.95223V22.192V27.192H17.5842V22.192ZM58.2608 30.356L60.1945 25.745H60.1945L58.2608 30.356ZM63.5128 34.152L59.665 37.3449L59.6849 37.3689L59.7051 37.3926L63.5128 34.152ZM65.8528 39.768L70.8418 39.4354L70.8392 39.3974L70.8361 39.3595L65.8528 39.768ZM65.8528 44.812L70.8421 45.1392L70.8438 45.1143L70.8451 45.0893L65.8528 44.812ZM63.6688 50.428L59.7807 47.2844V47.2844L63.6688 50.428ZM58.4168 54.224L56.5094 49.6021L56.4963 49.6075L56.4832 49.613L58.4168 54.224ZM44.3248 54.172L46.3212 49.5878L46.3033 49.58L46.2853 49.5724L44.3248 54.172ZM39.1248 50.376L35.2367 53.5196L35.2567 53.5444L35.277 53.5689L39.1248 50.376ZM36.8888 44.812L31.8975 45.1056L31.901 45.1665L31.9061 45.2272L36.8888 44.812ZM36.8888 39.768L31.905 39.3661L31.9014 39.4111L31.8986 39.4561L36.8888 39.768ZM39.0728 34.1L35.1847 30.9564L35.1642 30.9817L35.1441 31.0072L39.0728 34.1ZM44.2208 30.356L46.1169 34.9825L46.1357 34.9748L46.1545 34.967L44.2208 30.356ZM45.6248 44.864H50.6248V44.5527L50.5862 44.2438L45.6248 44.864ZM47.2368 48.192L44.176 52.1456L44.2165 52.177L44.2576 52.2075L47.2368 48.192ZM55.2968 48.192L58.339 52.16V52.16L55.2968 48.192ZM57.1168 44.864L52.1671 44.1569L52.1598 44.2077L52.1536 44.2587L57.1168 44.864ZM57.1168 39.664L62.1091 39.3867L62.1067 39.3429L62.1035 39.2991L57.1168 39.664ZM55.4008 36.44L52.3789 40.4235L52.4551 40.4813L52.5335 40.5362L55.4008 36.44ZM47.4448 36.492L50.4016 40.524L50.4129 40.5158L50.4241 40.5075L47.4448 36.492ZM45.6248 39.664L40.6654 39.0282L40.6629 39.0482L40.6604 39.0683L45.6248 39.664ZM51.3448 29.004V34.004C53.18 34.004 54.8241 34.3366 56.3272 34.967L58.2608 30.356L60.1945 25.745C57.3989 24.5727 54.4323 24.004 51.3448 24.004V29.004ZM58.2608 30.356L56.3272 34.967C57.8098 35.5887 58.8779 36.3962 59.665 37.3449L63.5128 34.152L67.3606 30.9591C65.4438 28.6491 63.0105 26.9259 60.1945 25.745L58.2608 30.356ZM63.5128 34.152L59.7051 37.3926C60.4191 38.2315 60.7825 39.115 60.8695 40.1765L65.8528 39.768L70.8361 39.3595C70.5765 36.1916 69.3799 33.3312 67.3205 30.9114L63.5128 34.152ZM65.8528 39.768L60.8639 40.1006C60.9322 41.1254 60.9568 41.7478 60.9568 42.056H65.9568H70.9568C70.9568 41.3935 70.9121 40.4906 70.8418 39.4354L65.8528 39.768ZM65.9568 42.056H60.9568C60.9568 42.4983 60.9291 43.3007 60.8605 44.5347L65.8528 44.812L70.8451 45.0893C70.9152 43.8273 70.9568 42.7924 70.9568 42.056H65.9568ZM65.8528 44.812L60.8635 44.4848C60.7916 45.5822 60.4412 46.4675 59.7807 47.2844L63.6688 50.428L67.557 53.5716C69.5312 51.1298 70.6367 48.2712 70.8421 45.1392L65.8528 44.812ZM63.6688 50.428L59.7807 47.2844C59.0537 48.1836 58.0201 48.9787 56.5094 49.6021L58.4168 54.224L60.3243 58.8459C63.1816 57.6667 65.6493 55.9311 67.557 53.5716L63.6688 50.428ZM58.4168 54.224L56.4832 49.613C55.0052 50.2328 53.3133 50.576 51.3448 50.576V55.576V60.576C54.507 60.576 57.5298 60.0178 60.3505 58.835L58.4168 54.224ZM51.3448 55.576V50.576C49.4458 50.576 47.7919 50.2283 46.3212 49.5878L44.3248 54.172L42.3285 58.7562C45.1564 59.9877 48.1825 60.576 51.3448 60.576V55.576ZM44.3248 54.172L46.2853 49.5724C44.8386 48.9558 43.7737 48.1486 42.9726 47.1831L39.1248 50.376L35.277 53.5689C37.1799 55.8621 39.5817 57.5856 42.3643 58.7716L44.3248 54.172ZM39.1248 50.376L43.013 47.2324C42.3231 46.3791 41.9613 45.4741 41.8716 44.3968L36.8888 44.812L31.9061 45.2272C32.163 48.3099 33.2919 51.1143 35.2367 53.5196L39.1248 50.376ZM36.8888 44.812L41.8802 44.5184C41.8543 44.0774 41.8368 43.3444 41.8368 42.264H36.8368H31.8368C31.8368 43.4023 31.8541 44.3679 31.8975 45.1056L36.8888 44.812ZM36.8368 42.264H41.8368C41.8368 41.178 41.8545 40.4731 41.8791 40.0799L36.8888 39.768L31.8986 39.4561C31.8538 40.1722 31.8368 41.1314 31.8368 42.264H36.8368ZM36.8888 39.768L41.8727 40.1699C41.9702 38.9605 42.353 38.0166 43.0015 37.1928L39.0728 34.1L35.1441 31.0072C33.2274 33.442 32.1541 36.2768 31.905 39.3661L36.8888 39.768ZM39.0728 34.1L42.961 37.2436C43.7025 36.3265 44.708 35.5599 46.1169 34.9825L44.2208 30.356L42.3247 25.7295C39.5043 26.8854 37.0778 28.6148 35.1847 30.9564L39.0728 34.1ZM44.2208 30.356L46.1545 34.967C47.6244 34.3505 49.332 34.004 51.3448 34.004V29.004V24.004C48.1576 24.004 45.1159 24.5588 42.2872 25.745L44.2208 30.356ZM45.6248 44.864H40.6248C40.6248 47.7608 41.8494 50.3444 44.176 52.1456L47.2368 48.192L50.2977 44.2384C50.2959 44.237 50.3292 44.2627 50.3783 44.3218C50.4286 44.3824 50.482 44.4619 50.5277 44.5564C50.6272 44.7618 50.6248 44.8974 50.6248 44.864H45.6248ZM47.2368 48.192L44.2576 52.2075C46.3851 53.786 48.8732 54.388 51.3448 54.388V49.388V44.388C50.4885 44.388 50.2379 44.1927 50.2161 44.1765L47.2368 48.192ZM51.3448 49.388V54.388C53.7946 54.388 56.2498 53.7617 58.339 52.16L55.2968 48.192L52.2547 44.224C52.2361 44.2382 52.1923 44.2695 52.0805 44.3033C51.9591 44.3401 51.7275 44.388 51.3448 44.388V49.388ZM55.2968 48.192L58.339 52.16C60.5494 50.4654 61.7607 48.0877 62.0801 45.4693L57.1168 44.864L52.1536 44.2587C52.1432 44.3436 52.1309 44.3874 52.1274 44.3988C52.1242 44.4091 52.128 44.394 52.145 44.3629C52.1623 44.3313 52.1854 44.2976 52.2115 44.2674C52.2372 44.2376 52.255 44.2237 52.2547 44.224L55.2968 48.192ZM57.1168 44.864L62.0666 45.5711C62.1885 44.7175 62.2208 43.6782 62.2208 42.628H57.2208H52.2208C52.2208 43.5884 52.1838 44.0398 52.1671 44.1569L57.1168 44.864ZM57.2208 42.628H62.2208C62.2208 41.7651 62.1805 40.6718 62.1091 39.3867L57.1168 39.664L52.1245 39.9413C52.1918 41.1522 52.2208 42.0349 52.2208 42.628H57.2208ZM57.1168 39.664L62.1035 39.2991C61.905 36.5865 60.7006 34.0466 58.2681 32.3438L55.4008 36.44L52.5335 40.5362C52.4942 40.5086 52.4332 40.4591 52.3659 40.3839C52.2981 40.3081 52.2404 40.2244 52.1961 40.1412C52.1041 39.9683 52.1204 39.8952 52.1302 40.0289L57.1168 39.664ZM55.4008 36.44L58.4228 32.4565C56.2908 30.8392 53.7604 30.296 51.3448 30.296V35.296V40.296C52.3266 40.296 52.5002 40.5155 52.3789 40.4235L55.4008 36.44ZM51.3448 35.296V30.296C48.9031 30.296 46.5198 30.9524 44.4656 32.4765L47.4448 36.492L50.4241 40.5075C50.5192 40.4369 50.7359 40.296 51.3448 40.296V35.296ZM47.4448 36.492L44.488 32.46C42.275 34.0828 41.0018 36.4042 40.6654 39.0282L45.6248 39.664L50.5842 40.2998C50.5912 40.2457 50.5978 40.2305 50.593 40.2453C50.5879 40.2612 50.5741 40.2976 50.5467 40.3453C50.519 40.3935 50.4864 40.4377 50.4538 40.4738C50.4216 40.5093 50.4004 40.525 50.4016 40.524L47.4448 36.492ZM45.6248 39.664L40.6604 39.0683C40.532 40.1389 40.4688 41.222 40.4688 42.316H45.4688H50.4688C50.4688 41.6073 50.5097 40.9224 50.5892 40.2597L45.6248 39.664ZM45.4688 42.316H40.4688C40.4688 43.3831 40.5329 44.4397 40.6634 45.4842L45.6248 44.864L50.5862 44.2438C50.5088 43.6243 50.4688 42.9823 50.4688 42.316H45.4688ZM72.7928 30.304L69.7674 26.3232V26.3232L72.7928 30.304ZM78.3568 29.94L75.5833 34.1003L75.6347 34.1345L75.6868 34.1674L78.3568 29.94ZM79.7088 31.5L75.0488 33.3122L78.161 41.3151L83.585 34.6584L79.7088 31.5ZM82.4648 29.576L83.9998 34.3345L84.0687 34.3123L84.1368 34.2881L82.4648 29.576ZM95.7248 32.54L92.0838 35.9668L95.9411 40.0652L99.5567 35.752L95.7248 32.54ZM114.029 31.864L117.118 27.9324V27.9324L114.029 31.864ZM116.733 54.276L113.197 50.7405L113.149 50.7882L113.103 50.8373L116.733 54.276ZM110.077 54.276L113.18 50.3558L113.169 50.3471L113.158 50.3385L110.077 54.276ZM107.581 36.492L104.196 40.1717L104.196 40.1717L107.581 36.492ZM100.353 36.544L96.9614 32.87L96.9254 32.9032L96.8901 32.9371L100.353 36.544ZM98.0128 54.38L94.8893 50.4757L94.8312 50.5221L94.7746 50.5703L98.0128 54.38ZM91.3048 54.328L94.471 50.4582L94.4609 50.45L94.4508 50.4418L91.3048 54.328ZM88.9128 36.492L92.2981 32.8123V32.8123L88.9128 36.492ZM79.2928 54.172L75.7573 50.6365L75.7142 50.6796L75.6721 50.7237L79.2928 54.172ZM72.6368 54.328L75.7183 50.3905L75.7062 50.381L75.694 50.3716L72.6368 54.328ZM71.4928 33.164H76.4928C76.4928 33.1189 76.4995 33.2964 76.3696 33.582C76.2299 33.8895 76.0171 34.1336 75.8182 34.2848L72.7928 30.304L69.7674 26.3232C67.4631 28.0745 66.4928 30.6137 66.4928 33.164H71.4928ZM72.7928 30.304L75.8182 34.2848C75.8034 34.296 75.7841 34.3085 75.7626 34.3196C75.7412 34.3306 75.7264 34.3357 75.7227 34.3368C75.7133 34.3397 75.782 34.316 75.9648 34.316V29.316V24.316C73.7912 24.316 71.6284 24.9088 69.7674 26.3232L72.7928 30.304ZM75.9648 29.316V34.316C76.0976 34.316 76.1075 34.3306 76.0287 34.3101C75.9423 34.2875 75.7773 34.2296 75.5833 34.1003L78.3568 29.94L81.1303 25.7797C79.4745 24.6759 77.6349 24.316 75.9648 24.316V29.316ZM78.3568 29.94L75.6868 34.1674C75.6558 34.1478 75.545 34.072 75.4104 33.9167C75.2707 33.7556 75.1411 33.5495 75.0488 33.3122L79.7088 31.5L84.3688 29.6878C83.6774 27.9097 82.4368 26.6031 81.0268 25.7126L78.3568 29.94ZM79.7088 31.5L83.585 34.6584C83.7822 34.4163 83.908 34.3642 83.9998 34.3345L82.4648 29.576L80.9298 24.8175C78.8723 25.4812 77.1607 26.7117 75.8326 28.3416L79.7088 31.5ZM82.4648 29.576L84.1368 34.2881C84.5382 34.1457 85.2264 34.004 86.3128 34.004V29.004V24.004C84.4178 24.004 82.5407 24.2436 80.7928 24.8639L82.4648 29.576ZM86.3128 29.004V34.004C89.3618 34.004 91.0376 34.8553 92.0838 35.9668L95.7248 32.54L99.3658 29.1132C95.9746 25.5101 91.3758 24.004 86.3128 24.004V29.004ZM95.7248 32.54L99.5567 35.752C100.351 34.8046 101.688 34.004 104.461 34.004V29.004V24.004C99.5375 24.004 95.0508 25.5607 91.8929 29.328L95.7248 32.54ZM104.461 29.004V34.004C107.611 34.004 109.615 34.755 110.94 35.7956L114.029 31.864L117.118 27.9324C113.589 25.1597 109.215 24.004 104.461 24.004V29.004ZM114.029 31.864L110.94 35.7956C112.014 36.6394 112.669 37.7781 112.669 39.872H117.669H122.669C122.669 35.1019 120.897 30.9019 117.118 27.9324L114.029 31.864ZM117.669 39.872H112.669V51.468H117.669H122.669V39.872H117.669ZM117.669 51.468H112.669C112.669 51.6903 112.639 51.6812 112.691 51.5249C112.752 51.3443 112.898 51.0393 113.197 50.7405L116.733 54.276L120.268 57.8115C122.161 55.9191 122.669 53.4867 122.669 51.468H117.669ZM116.733 54.276L113.103 50.8373C113.554 50.3617 113.975 50.2302 114.017 50.2178C114.043 50.2103 114.006 50.2234 113.887 50.2376C113.77 50.2516 113.595 50.264 113.353 50.264V55.264V60.264C115.348 60.264 118.274 59.9196 120.363 57.7147L116.733 54.276ZM113.353 55.264V50.264C113.217 50.264 113.119 50.2557 113.055 50.247C112.992 50.2384 112.963 50.2299 112.964 50.23C112.965 50.2303 112.991 50.2383 113.034 50.2604C113.077 50.2828 113.128 50.3145 113.18 50.3558L110.077 54.276L106.973 58.1962C108.906 59.7267 111.188 60.264 113.353 60.264V55.264ZM110.077 54.276L113.158 50.3385C113.388 50.5183 113.61 50.788 113.752 51.1095C113.885 51.4081 113.881 51.5989 113.881 51.572H108.881H103.881C103.881 54.0041 104.78 56.4795 106.995 58.2135L110.077 54.276ZM108.881 51.572H113.881V39.768H108.881H103.881V51.572H108.881ZM108.881 39.768H113.881C113.881 37.2538 113.046 34.7255 110.966 32.8123L107.581 36.492L104.196 40.1717C104.144 40.1244 104.086 40.06 104.03 39.9795C103.975 39.899 103.935 39.8204 103.908 39.7532C103.854 39.6167 103.881 39.5944 103.881 39.768H108.881ZM107.581 36.492L110.966 32.8123C108.95 30.9575 106.443 30.296 104.045 30.296V35.296V40.296C104.35 40.296 104.462 40.3373 104.445 40.3314C104.435 40.328 104.399 40.3147 104.348 40.285C104.297 40.2548 104.244 40.2162 104.196 40.1717L107.581 36.492ZM104.045 35.296V30.296C101.582 30.296 99.0174 30.9721 96.9614 32.87L100.353 36.544L103.744 40.218C103.703 40.256 103.658 40.2885 103.616 40.3131C103.575 40.3373 103.55 40.3455 103.553 40.3447C103.561 40.342 103.703 40.296 104.045 40.296V35.296ZM100.353 36.544L96.8901 32.9371C94.8624 34.8837 94.0528 37.4109 94.0528 39.924H99.0528H104.053C104.053 39.7202 104.083 39.7066 104.045 39.8079C104.025 39.8577 103.995 39.9208 103.95 39.9882C103.905 40.0557 103.858 40.1106 103.815 40.1509L100.353 36.544ZM99.0528 39.924H94.0528V51.728H99.0528H104.053V39.924H99.0528ZM99.0528 51.728H94.0528C94.0528 51.8759 94.0296 51.7519 94.1379 51.4756C94.2613 51.161 94.5048 50.7833 94.8893 50.4757L98.0128 54.38L101.136 58.2843C103.411 56.4643 104.053 53.8687 104.053 51.728H99.0528ZM98.0128 54.38L94.7746 50.5703C94.9708 50.4035 95.1437 50.3057 95.2537 50.2532C95.3614 50.2019 95.416 50.1905 95.3921 50.1966C95.3685 50.2026 95.2883 50.2205 95.138 50.2364C94.9887 50.2522 94.788 50.264 94.5288 50.264V55.264V60.264C96.505 60.264 99.1724 59.9566 101.251 58.1897L98.0128 54.38ZM94.5288 55.264V50.264C94.3682 50.264 94.2526 50.2549 94.1761 50.2452C94.0998 50.2355 94.0697 50.2262 94.0769 50.2283C94.0849 50.2306 94.1317 50.245 94.2049 50.2823C94.2795 50.3203 94.3721 50.3773 94.471 50.4582L91.3048 54.328L88.1386 58.1978C90.0969 59.8 92.4506 60.264 94.5288 60.264V55.264ZM91.3048 54.328L94.4508 50.4418C94.7097 50.6514 94.9388 50.9463 95.0815 51.2794C95.2141 51.5888 95.2128 51.7906 95.2128 51.78H90.2128H85.2128C85.2128 54.0884 86.0369 56.4965 88.1588 58.2142L91.3048 54.328ZM90.2128 51.78H95.2128V39.768H90.2128H85.2128V51.78H90.2128ZM90.2128 39.768H95.2128C95.2128 37.2538 94.3776 34.7255 92.2981 32.8123L88.9128 36.492L85.5275 40.1717C85.4762 40.1244 85.4178 40.0599 85.3624 39.9795C85.3071 39.899 85.267 39.8204 85.2403 39.7532C85.1861 39.6167 85.2128 39.5944 85.2128 39.768H90.2128ZM88.9128 36.492L92.2981 32.8123C90.3031 30.9769 87.8286 30.296 85.4288 30.296V35.296V40.296C85.7043 40.296 85.797 40.3339 85.7684 40.3241C85.7534 40.319 85.7168 40.3046 85.6676 40.2756C85.6179 40.2463 85.5697 40.2104 85.5275 40.1717L88.9128 36.492ZM85.4288 35.296V30.296C82.9637 30.296 80.1993 30.9238 78.0922 33.0526C75.9944 35.1721 75.3848 37.9354 75.3848 40.392H80.3848H85.3848C85.3848 40.1716 85.3986 40.0095 85.4144 39.8977C85.4301 39.7862 85.4465 39.7344 85.4483 39.7291C85.4495 39.7254 85.4357 39.768 85.3931 39.8397C85.3721 39.8752 85.3454 39.9154 85.3122 39.9585C85.279 40.0016 85.2413 40.045 85.1994 40.0874C85.1575 40.1297 85.114 40.1683 85.0701 40.2028C85.0262 40.2373 84.9845 40.2656 84.947 40.2884C84.871 40.3345 84.8221 40.3516 84.8178 40.353C84.8152 40.3539 84.8584 40.3391 84.9609 40.3243C85.0638 40.3095 85.217 40.296 85.4288 40.296V35.296ZM80.3848 40.392H75.3848V50.844H80.3848H85.3848V40.392H80.3848ZM80.3848 50.844H75.3848C75.3848 51.199 75.3395 51.3007 75.361 51.2351C75.3736 51.1967 75.4058 51.112 75.4724 50.9999C75.5402 50.8858 75.6343 50.7595 75.7573 50.6365L79.2928 54.172L82.8283 57.7075C84.8444 55.6915 85.3848 53.0656 85.3848 50.844H80.3848ZM79.2928 54.172L75.6721 50.7237C76.0216 50.3568 76.3474 50.2383 76.4064 50.2199C76.4319 50.2119 76.4008 50.2241 76.2963 50.2377C76.1923 50.2513 76.0328 50.264 75.8088 50.264V55.264V60.264C77.9875 60.264 80.831 59.8069 82.9135 57.6203L79.2928 54.172ZM75.8088 55.264V50.264C75.5389 50.264 75.4329 50.2315 75.4429 50.2344C75.4497 50.2364 75.4836 50.2472 75.5363 50.2737C75.5897 50.3007 75.6527 50.3391 75.7183 50.3905L72.6368 54.328L69.5553 58.2655C71.4662 59.761 73.713 60.264 75.8088 60.264V55.264ZM72.6368 54.328L75.694 50.3716C75.9396 50.5613 76.1819 50.8486 76.3401 51.201C76.4886 51.5317 76.4928 51.7619 76.4928 51.78H71.4928H66.4928C66.4928 54.173 67.3963 56.5973 69.5796 58.2844L72.6368 54.328ZM71.4928 51.78H76.4928V33.164H71.4928H66.4928V51.78H71.4928ZM147.76 37.168L144.333 33.527L144.278 33.5789L144.224 33.6325L147.76 37.168ZM124.256 32.592L120.823 28.9569L120.771 29.006L120.72 29.0565L124.256 32.592ZM147.76 37.168L144.224 33.6325C144.743 33.1135 145.221 32.979 145.268 32.9663C145.304 32.9566 145.278 32.9666 145.174 32.9782C145.07 32.9896 144.913 33 144.692 33V38V43C146.446 43 149.253 42.746 151.295 40.7035L147.76 37.168ZM144.692 38V33H127.428V38V43H144.692V38ZM127.428 38V33C127.061 33 126.911 32.9625 126.915 32.9634C126.926 32.9665 127.16 33.0295 127.466 33.2684C127.796 33.5269 128.064 33.8783 128.225 34.2553C128.298 34.4274 128.335 34.5723 128.354 34.673C128.372 34.772 128.372 34.8275 128.372 34.828H123.372H118.372C118.372 37.0287 119.137 39.45 121.306 41.1456C123.24 42.6583 125.561 43 127.428 43V38ZM123.372 34.828H128.372C128.372 34.9286 128.354 35.1503 128.243 35.4313C128.128 35.7201 127.96 35.9583 127.791 36.1275L124.256 32.592L120.72 29.0565C119.112 30.6646 118.372 32.7198 118.372 34.828H123.372ZM124.256 32.592L127.689 36.2271C127.268 36.6241 126.901 36.7339 126.859 36.7455C126.834 36.7524 126.864 36.7418 126.965 36.7301C127.066 36.7186 127.217 36.708 127.428 36.708V31.708V26.708C125.526 26.708 122.855 27.0371 120.823 28.9569L124.256 32.592ZM127.428 31.708V36.708H144.692V31.708V26.708H127.428V31.708ZM144.692 31.708V36.708C145.027 36.708 145.144 36.7439 145.109 36.7343C145.062 36.7217 144.808 36.6435 144.495 36.3883C144.161 36.1157 143.912 35.7634 143.768 35.4127C143.637 35.0927 143.644 34.896 143.644 34.932H148.644H153.644C153.644 32.7872 152.937 30.3696 150.816 28.6397C148.891 27.0687 146.561 26.708 144.692 26.708V31.708ZM148.644 34.932H143.644C143.644 34.8746 143.654 34.6568 143.773 34.3547C143.899 34.037 144.098 33.7483 144.333 33.527L147.76 37.168L151.187 40.809C152.94 39.1591 153.644 37.0107 153.644 34.932H148.644ZM187.284 52.976L191.865 54.9801L191.865 54.9801L187.284 52.976ZM186.296 54.276L183.296 50.276L183.193 50.3529L183.095 50.4349L186.296 54.276ZM184.892 55.004L183.603 50.1728L183.456 50.2122L183.311 50.2606L184.892 55.004ZM180.212 54.692L182.16 50.0872L182.084 50.055L182.007 50.0253L180.212 54.692ZM178.08 52.976L182.268 50.2447L182.26 50.233L182.253 50.2214L178.08 52.976ZM164.04 31.708L168.213 28.9534L159.04 15.0583V31.708H164.04ZM162.688 54.328L159.842 50.217V50.217L162.688 54.328ZM157.956 55.004L159.447 50.2316L159.309 50.1884L159.168 50.1533L157.956 55.004ZM156.448 54.276L159.496 50.3129L159.472 50.2943L159.448 50.276L156.448 54.276ZM155.408 53.028L150.936 55.2641L150.965 55.3229L150.996 55.3809L155.408 53.028ZM155.304 18.24L150.832 16.0039L150.755 16.158L150.688 16.3169L155.304 18.24ZM156.188 17.096L159.551 20.7957L159.639 20.7157L159.723 20.6315L156.188 17.096ZM157.592 16.212L159.347 20.8936L159.422 20.8657L159.496 20.8354L157.592 16.212ZM163.104 16.576L160.483 20.8343L160.606 20.9099L160.733 20.9783L163.104 16.576ZM164.404 17.616L160.73 21.0074L164.404 17.616ZM165.704 19.332L161.512 22.0569L161.512 22.0573L165.704 19.332ZM178.652 39.248L174.46 41.9733L183.652 56.112V39.248H178.652ZM180.056 16.784L177.352 12.5781L177.317 12.6006L177.282 12.6237L180.056 16.784ZM184.892 16.108L183.311 20.8514L183.456 20.8998L183.604 20.9392L184.892 16.108ZM186.296 16.784L189.296 12.784L189.296 12.784L186.296 16.784ZM187.284 17.98L191.756 15.7439V15.7439L187.284 17.98ZM187.648 50.896H182.648C182.648 50.983 182.645 51.0496 182.641 51.0975C182.637 51.1455 182.633 51.1715 182.632 51.1781C182.629 51.1937 182.641 51.1137 182.703 50.9719L187.284 52.976L191.865 54.9801C192.467 53.604 192.648 52.1757 192.648 50.896H187.648ZM187.284 52.976L182.703 50.9719C182.749 50.867 182.915 50.5613 183.296 50.276L186.296 54.276L189.296 58.276C190.508 57.3667 191.333 56.1943 191.865 54.9801L187.284 52.976ZM186.296 54.276L183.095 50.4349C183.157 50.3834 183.236 50.3285 183.331 50.2792C183.426 50.2299 183.52 50.1951 183.603 50.1728L184.892 55.004L186.18 59.8352C187.406 59.5081 188.526 58.9258 189.497 58.1171L186.296 54.276ZM184.892 55.004L183.311 50.2606C183.307 50.2617 183.305 50.2622 183.305 50.2624C183.304 50.2626 183.303 50.2627 183.303 50.2628C183.302 50.2629 183.296 50.264 183.28 50.264V55.264V60.264C184.365 60.264 185.437 60.0927 186.473 59.7474L184.892 55.004ZM183.28 55.264V50.264C182.693 50.264 182.35 50.1675 182.16 50.0872L180.212 54.692L178.264 59.2968C179.876 59.9792 181.578 60.264 183.28 60.264V55.264ZM180.212 54.692L182.007 50.0253C182.007 50.0252 182.022 50.031 182.047 50.0457C182.073 50.0605 182.105 50.0811 182.138 50.1079C182.21 50.1662 182.253 50.2217 182.268 50.2447L178.08 52.976L173.892 55.7073C174.995 57.399 176.549 58.6405 178.417 59.3587L180.212 54.692ZM178.08 52.976L182.253 50.2214L168.213 28.9534L164.04 31.708L159.867 34.4626L173.907 55.7306L178.08 52.976ZM164.04 31.708H159.04V51.26H164.04H169.04V31.708H164.04ZM164.04 51.26H159.04C159.04 51.4582 159.007 51.3483 159.126 51.0767C159.188 50.9368 159.282 50.7748 159.415 50.6124C159.549 50.4495 159.697 50.3173 159.842 50.217L162.688 54.328L165.534 58.439C168.175 56.6105 169.04 53.7813 169.04 51.26H164.04ZM162.688 54.328L159.842 50.217C159.814 50.236 159.797 50.2453 159.789 50.2492C159.781 50.253 159.777 50.2542 159.776 50.2547C159.774 50.2552 159.768 50.2571 159.754 50.259C159.741 50.2611 159.714 50.264 159.672 50.264V55.264V60.264C161.785 60.264 163.786 59.6492 165.534 58.439L162.688 54.328ZM159.672 55.264V50.264C159.581 50.264 159.512 50.2519 159.447 50.2316L157.956 55.004L156.464 59.7764C157.509 60.1027 158.584 60.264 159.672 60.264V55.264ZM157.956 55.004L159.168 50.1533C159.214 50.1648 159.273 50.1845 159.337 50.2152C159.4 50.246 159.454 50.2807 159.496 50.3129L156.448 54.276L153.399 58.2391C154.398 59.007 155.526 59.5504 156.743 59.8547L157.956 55.004ZM156.448 54.276L159.448 50.276C159.691 50.4582 159.799 50.6356 159.82 50.6751L155.408 53.028L150.996 55.3809C151.572 56.4604 152.373 57.4698 153.448 58.276L156.448 54.276ZM155.408 53.028L159.88 50.7919C160.067 51.1664 160.044 51.3862 160.044 51.26H155.044H150.044C150.044 52.5204 150.263 53.9189 150.936 55.2641L155.408 53.028ZM155.044 51.26H160.044V19.488H155.044H150.044V51.26H155.044ZM155.044 19.488H160.044C160.044 19.7854 159.978 20.0209 159.919 20.1631L155.304 18.24L150.688 16.3169C150.283 17.2911 150.044 18.3586 150.044 19.488H155.044ZM155.304 18.24L159.776 20.4761C159.68 20.6688 159.577 20.7719 159.551 20.7957L156.188 17.096L152.824 13.3963C152.036 14.1134 151.344 14.9792 150.832 16.0039L155.304 18.24ZM156.188 17.096L159.723 20.6315C159.644 20.7112 159.562 20.7739 159.489 20.8202C159.417 20.8657 159.365 20.887 159.347 20.8936L157.592 16.212L155.836 11.5303C154.68 11.9641 153.586 12.6266 152.652 13.5605L156.188 17.096ZM157.592 16.212L159.496 20.8354C159.422 20.8656 159.39 20.8687 159.416 20.8641C159.443 20.8593 159.525 20.848 159.672 20.848V15.848V10.848C158.38 10.848 157.012 11.0434 155.688 11.5886L157.592 16.212ZM159.672 15.848V20.848C160.174 20.848 160.496 20.8849 160.674 20.9184L161.596 16.004L162.517 11.0896C161.586 10.9151 160.625 10.848 159.672 10.848V15.848ZM161.596 16.004L160.674 20.9184C160.676 20.9186 160.654 20.9145 160.616 20.9C160.577 20.8852 160.531 20.8636 160.483 20.8343L163.104 16.576L165.724 12.3177C164.718 11.6987 163.633 11.2989 162.517 11.0896L161.596 16.004ZM163.104 16.576L160.733 20.9783C160.672 20.9453 160.643 20.9218 160.643 20.9223C160.645 20.9234 160.675 20.9476 160.73 21.0074L164.404 17.616L168.078 14.2246C167.359 13.4454 166.498 12.725 165.474 12.1736L163.104 16.576ZM164.404 17.616L160.73 21.0074C160.902 21.1937 161.165 21.5243 161.512 22.0569L165.704 19.332L169.896 16.6071C169.341 15.7531 168.738 14.9396 168.078 14.2246L164.404 17.616ZM165.704 19.332L161.512 22.0573L174.46 41.9733L178.652 39.248L182.844 36.5227L169.896 16.6067L165.704 19.332ZM178.652 39.248H183.652V19.696H178.652H173.652V39.248H178.652ZM178.652 19.696H183.652C183.652 19.6251 183.664 19.8257 183.507 20.1515C183.335 20.5081 183.071 20.7828 182.829 20.9442L180.056 16.784L177.282 12.6237C174.701 14.3448 173.652 17.038 173.652 19.696H178.652ZM180.056 16.784L182.76 20.9899C182.906 20.896 183.038 20.848 183.28 20.848V15.848V10.848C181.164 10.848 179.147 11.424 177.352 12.5781L180.056 16.784ZM183.28 15.848V20.848C183.296 20.848 183.302 20.8491 183.303 20.8492C183.303 20.8493 183.304 20.8494 183.305 20.8496C183.305 20.8498 183.307 20.8503 183.311 20.8514L184.892 16.108L186.473 11.3646C185.437 11.0193 184.365 10.848 183.28 10.848V15.848ZM184.892 16.108L183.604 20.9392C183.571 20.9306 183.522 20.9143 183.464 20.886C183.405 20.8576 183.347 20.8227 183.296 20.784L186.296 16.784L189.296 12.784C188.35 12.0745 187.297 11.5745 186.18 11.2768L184.892 16.108ZM186.296 16.784L183.296 20.784C183.189 20.7042 183.088 20.6085 183 20.5014C182.912 20.395 182.851 20.2952 182.812 20.2161L187.284 17.98L191.756 15.7439C191.182 14.5954 190.36 13.5822 189.296 12.784L186.296 16.784ZM187.284 17.98L182.812 20.2161C182.641 19.8742 182.648 19.6498 182.648 19.696H187.648H192.648C192.648 18.4248 192.412 17.0565 191.756 15.7439L187.284 17.98ZM187.648 19.696H182.648V50.896H187.648H192.648V19.696H187.648ZM215.327 30.356L217.261 25.745V25.745L215.327 30.356ZM220.579 34.152L216.731 37.3449L216.751 37.3689L216.772 37.3926L220.579 34.152ZM222.919 39.768L227.908 39.4354L227.906 39.3974L227.903 39.3595L222.919 39.768ZM222.919 44.812L227.909 45.1392L227.91 45.1143L227.912 45.0893L222.919 44.812ZM220.735 50.428L216.847 47.2844L216.847 47.2844L220.735 50.428ZM215.483 54.224L213.576 49.6021L213.563 49.6075L213.55 49.613L215.483 54.224ZM201.391 54.172L203.388 49.5878L203.37 49.58L203.352 49.5724L201.391 54.172ZM196.191 50.376L192.303 53.5196L192.323 53.5444L192.343 53.5689L196.191 50.376ZM193.955 44.812L188.964 45.1056L188.967 45.1665L188.973 45.2272L193.955 44.812ZM193.955 39.768L188.971 39.3661L188.968 39.4111L188.965 39.4561L193.955 39.768ZM196.139 34.1L192.251 30.9564L192.231 30.9817L192.211 31.0072L196.139 34.1ZM201.287 30.356L203.183 34.9825L203.202 34.9748L203.221 34.967L201.287 30.356ZM202.691 44.864H207.691V44.5527L207.653 44.2438L202.691 44.864ZM204.303 48.192L201.242 52.1456L201.283 52.177L201.324 52.2075L204.303 48.192ZM212.363 48.192L215.405 52.16V52.16L212.363 48.192ZM214.183 44.864L209.233 44.1569L209.226 44.2077L209.22 44.2587L214.183 44.864ZM214.183 39.664L219.176 39.3867L219.173 39.3429L219.17 39.2991L214.183 39.664ZM212.467 36.44L209.445 40.4235L209.522 40.4813L209.6 40.5362L212.467 36.44ZM204.511 36.492L207.468 40.524L207.479 40.5158L207.49 40.5075L204.511 36.492ZM202.691 39.664L197.732 39.0282L197.729 39.0482L197.727 39.0683L202.691 39.664ZM208.411 29.004V34.004C210.246 34.004 211.891 34.3366 213.394 34.967L215.327 30.356L217.261 25.745C214.465 24.5727 211.499 24.004 208.411 24.004V29.004ZM215.327 30.356L213.394 34.967C214.876 35.5887 215.944 36.3962 216.731 37.3449L220.579 34.152L224.427 30.9591C222.51 28.6491 220.077 26.9259 217.261 25.745L215.327 30.356ZM220.579 34.152L216.772 37.3926C217.485 38.2315 217.849 39.115 217.936 40.1765L222.919 39.768L227.903 39.3595C227.643 36.1916 226.446 33.3312 224.387 30.9114L220.579 34.152ZM222.919 39.768L217.93 40.1006C217.999 41.1254 218.023 41.7478 218.023 42.056H223.023H228.023C228.023 41.3935 227.979 40.4906 227.908 39.4354L222.919 39.768ZM223.023 42.056H218.023C218.023 42.4983 217.995 43.3007 217.927 44.5347L222.919 44.812L227.912 45.0893C227.982 43.8273 228.023 42.7924 228.023 42.056H223.023ZM222.919 44.812L217.93 44.4848C217.858 45.5822 217.508 46.4675 216.847 47.2844L220.735 50.428L224.623 53.5716C226.598 51.1298 227.703 48.2712 227.909 45.1392L222.919 44.812ZM220.735 50.428L216.847 47.2844C216.12 48.1836 215.086 48.9787 213.576 49.6021L215.483 54.224L217.391 58.8459C220.248 57.6667 222.716 55.9311 224.623 53.5716L220.735 50.428ZM215.483 54.224L213.55 49.613C212.072 50.2328 210.38 50.576 208.411 50.576V55.576V60.576C211.573 60.576 214.596 60.0178 217.417 58.835L215.483 54.224ZM208.411 55.576V50.576C206.512 50.576 204.858 50.2283 203.388 49.5878L201.391 54.172L199.395 58.7562C202.223 59.9877 205.249 60.576 208.411 60.576V55.576ZM201.391 54.172L203.352 49.5724C201.905 48.9558 200.84 48.1486 200.039 47.1831L196.191 50.376L192.343 53.5689C194.246 55.8621 196.648 57.5856 199.431 58.7716L201.391 54.172ZM196.191 50.376L200.079 47.2324C199.389 46.3791 199.028 45.4741 198.938 44.3968L193.955 44.812L188.973 45.2272C189.229 48.3099 190.358 51.1143 192.303 53.5196L196.191 50.376ZM193.955 44.812L198.947 44.5184C198.921 44.0774 198.903 43.3444 198.903 42.264H193.903H188.903C188.903 43.4023 188.92 44.3679 188.964 45.1056L193.955 44.812ZM193.903 42.264H198.903C198.903 41.178 198.921 40.4731 198.945 40.0799L193.955 39.768L188.965 39.4561C188.92 40.1722 188.903 41.1314 188.903 42.264H193.903ZM193.955 39.768L198.939 40.1699C199.037 38.9605 199.419 38.0166 200.068 37.1928L196.139 34.1L192.211 31.0072C190.294 33.442 189.221 36.2768 188.971 39.3661L193.955 39.768ZM196.139 34.1L200.027 37.2436C200.769 36.3265 201.774 35.5599 203.183 34.9825L201.287 30.356L199.391 25.7295C196.571 26.8854 194.144 28.6148 192.251 30.9564L196.139 34.1ZM201.287 30.356L203.221 34.967C204.691 34.3505 206.398 34.004 208.411 34.004V29.004V24.004C205.224 24.004 202.182 24.5588 199.354 25.745L201.287 30.356ZM202.691 44.864H197.691C197.691 47.7608 198.916 50.3444 201.242 52.1456L204.303 48.192L207.364 44.2384C207.362 44.237 207.396 44.2627 207.445 44.3218C207.495 44.3824 207.548 44.4619 207.594 44.5564C207.694 44.7618 207.691 44.8974 207.691 44.864H202.691ZM204.303 48.192L201.324 52.2075C203.452 53.786 205.94 54.388 208.411 54.388V49.388V44.388C207.555 44.388 207.304 44.1927 207.282 44.1765L204.303 48.192ZM208.411 49.388V54.388C210.861 54.388 213.316 53.7617 215.405 52.16L212.363 48.192L209.321 44.224C209.303 44.2382 209.259 44.2695 209.147 44.3033C209.025 44.3401 208.794 44.388 208.411 44.388V49.388ZM212.363 48.192L215.405 52.16C217.616 50.4654 218.827 48.0877 219.146 45.4693L214.183 44.864L209.22 44.2587C209.21 44.3436 209.197 44.3874 209.194 44.3988C209.191 44.4091 209.194 44.394 209.211 44.3629C209.229 44.3313 209.252 44.2976 209.278 44.2674C209.304 44.2376 209.321 44.2237 209.321 44.224L212.363 48.192ZM214.183 44.864L219.133 45.5711C219.255 44.7175 219.287 43.6782 219.287 42.628H214.287H209.287C209.287 43.5884 209.25 44.0398 209.233 44.1569L214.183 44.864ZM214.287 42.628H219.287C219.287 41.7651 219.247 40.6718 219.176 39.3867L214.183 39.664L209.191 39.9413C209.258 41.1522 209.287 42.0349 209.287 42.628H214.287ZM214.183 39.664L219.17 39.2991C218.971 36.5865 217.767 34.0466 215.335 32.3438L212.467 36.44L209.6 40.5362C209.561 40.5086 209.5 40.4591 209.432 40.3839C209.364 40.3081 209.307 40.2244 209.262 40.1412C209.17 39.9683 209.187 39.8952 209.197 40.0289L214.183 39.664ZM212.467 36.44L215.489 32.4565C213.357 30.8392 210.827 30.296 208.411 30.296V35.296V40.296C209.393 40.296 209.567 40.5155 209.445 40.4235L212.467 36.44ZM208.411 35.296V30.296C205.969 30.296 203.586 30.9524 201.532 32.4765L204.511 36.492L207.49 40.5075C207.586 40.4369 207.802 40.296 208.411 40.296V35.296ZM204.511 36.492L201.554 32.46C199.341 34.0828 198.068 36.4042 197.732 39.0282L202.691 39.664L207.651 40.2998C207.658 40.2457 207.664 40.2305 207.659 40.2453C207.654 40.2612 207.64 40.2976 207.613 40.3453C207.585 40.3935 207.553 40.4377 207.52 40.4738C207.488 40.5093 207.467 40.525 207.468 40.524L204.511 36.492ZM202.691 39.664L197.727 39.0683C197.598 40.1389 197.535 41.222 197.535 42.316H202.535H207.535C207.535 41.6073 207.576 40.9224 207.656 40.2597L202.691 39.664ZM202.535 42.316H197.535C197.535 43.3831 197.599 44.4397 197.73 45.4842L202.691 44.864L207.653 44.2438C207.575 43.6243 207.535 42.9823 207.535 42.316H202.535ZM248.995 30.356L250.929 25.745V25.745L248.995 30.356ZM254.247 34.152L250.399 37.3449L250.419 37.3689L250.44 37.3926L254.247 34.152ZM256.587 39.768L261.576 39.4354L261.574 39.3974L261.57 39.3595L256.587 39.768ZM256.587 44.812L261.576 45.1392L261.578 45.1143L261.579 45.0893L256.587 44.812ZM254.403 50.428L250.515 47.2844L250.515 47.2844L254.403 50.428ZM249.151 54.224L247.244 49.6021L247.231 49.6075L247.218 49.613L249.151 54.224ZM235.059 54.172L237.056 49.5878L237.038 49.58L237.02 49.5724L235.059 54.172ZM229.859 50.376L225.971 53.5196L225.991 53.5444L226.011 53.5689L229.859 50.376ZM227.623 44.812L222.632 45.1056L222.635 45.1665L222.64 45.2272L227.623 44.812ZM227.623 39.768L222.639 39.3661L222.636 39.4111L222.633 39.4561L227.623 39.768ZM229.807 34.1L225.919 30.9564L225.899 30.9817L225.879 31.0072L229.807 34.1ZM234.955 30.356L236.851 34.9825L236.87 34.9748L236.889 34.967L234.955 30.356ZM236.359 44.864H241.359V44.5527L241.321 44.2438L236.359 44.864ZM237.971 48.192L234.91 52.1456L234.951 52.177L234.992 52.2075L237.971 48.192ZM246.031 48.192L249.073 52.16V52.16L246.031 48.192ZM247.851 44.864L242.901 44.1569L242.894 44.2077L242.888 44.2587L247.851 44.864ZM247.851 39.664L252.844 39.3867L252.841 39.3429L252.838 39.2991L247.851 39.664ZM246.135 36.44L243.113 40.4235L243.189 40.4813L243.268 40.5362L246.135 36.44ZM238.179 36.492L241.136 40.524L241.147 40.5158L241.158 40.5075L238.179 36.492ZM236.359 39.664L231.4 39.0282L231.397 39.0482L231.395 39.0683L236.359 39.664ZM242.079 29.004V34.004C243.914 34.004 245.558 34.3366 247.062 34.967L248.995 30.356L250.929 25.745C248.133 24.5727 245.167 24.004 242.079 24.004V29.004ZM248.995 30.356L247.062 34.967C248.544 35.5887 249.612 36.3962 250.399 37.3449L254.247 34.152L258.095 30.9591C256.178 28.6491 253.745 26.9259 250.929 25.745L248.995 30.356ZM254.247 34.152L250.44 37.3926C251.153 38.2315 251.517 39.115 251.604 40.1765L256.587 39.768L261.57 39.3595C261.311 36.1916 260.114 33.3312 258.055 30.9114L254.247 34.152ZM256.587 39.768L251.598 40.1006C251.667 41.1254 251.691 41.7478 251.691 42.056H256.691H261.691C261.691 41.3935 261.646 40.4906 261.576 39.4354L256.587 39.768ZM256.691 42.056H251.691C251.691 42.4983 251.663 43.3007 251.595 44.5347L256.587 44.812L261.579 45.0893C261.65 43.8273 261.691 42.7924 261.691 42.056H256.691ZM256.587 44.812L251.598 44.4848C251.526 45.5822 251.176 46.4675 250.515 47.2844L254.403 50.428L258.291 53.5716C260.266 51.1298 261.371 48.2712 261.576 45.1392L256.587 44.812ZM254.403 50.428L250.515 47.2844C249.788 48.1836 248.754 48.9787 247.244 49.6021L249.151 54.224L251.059 58.8459C253.916 57.6667 256.384 55.9311 258.291 53.5716L254.403 50.428ZM249.151 54.224L247.218 49.613C245.74 50.2328 244.048 50.576 242.079 50.576V55.576V60.576C245.241 60.576 248.264 60.0178 251.085 58.835L249.151 54.224ZM242.079 55.576V50.576C240.18 50.576 238.526 50.2283 237.056 49.5878L235.059 54.172L233.063 58.7562C235.891 59.9877 238.917 60.576 242.079 60.576V55.576ZM235.059 54.172L237.02 49.5724C235.573 48.9558 234.508 48.1486 233.707 47.1831L229.859 50.376L226.011 53.5689C227.914 55.8621 230.316 57.5856 233.099 58.7716L235.059 54.172ZM229.859 50.376L233.747 47.2324C233.057 46.3791 232.696 45.4741 232.606 44.3968L227.623 44.812L222.64 45.2272C222.897 48.3099 224.026 51.1143 225.971 53.5196L229.859 50.376ZM227.623 44.812L232.615 44.5184C232.589 44.0774 232.571 43.3444 232.571 42.264H227.571H222.571C222.571 43.4023 222.588 44.3679 222.632 45.1056L227.623 44.812ZM227.571 42.264H232.571C232.571 41.178 232.589 40.4731 232.613 40.0799L227.623 39.768L222.633 39.4561C222.588 40.1722 222.571 41.1314 222.571 42.264H227.571ZM227.623 39.768L232.607 40.1699C232.705 38.9605 233.087 38.0166 233.736 37.1928L229.807 34.1L225.879 31.0072C223.962 33.442 222.889 36.2768 222.639 39.3661L227.623 39.768ZM229.807 34.1L233.695 37.2436C234.437 36.3265 235.442 35.5599 236.851 34.9825L234.955 30.356L233.059 25.7295C230.239 26.8854 227.812 28.6148 225.919 30.9564L229.807 34.1ZM234.955 30.356L236.889 34.967C238.359 34.3505 240.066 34.004 242.079 34.004V29.004V24.004C238.892 24.004 235.85 24.5588 233.022 25.745L234.955 30.356ZM236.359 44.864H231.359C231.359 47.7608 232.584 50.3444 234.91 52.1456L237.971 48.192L241.032 44.2384C241.03 44.237 241.064 44.2627 241.113 44.3218C241.163 44.3824 241.216 44.4619 241.262 44.5564C241.362 44.7618 241.359 44.8974 241.359 44.864H236.359ZM237.971 48.192L234.992 52.2075C237.12 53.786 239.608 54.388 242.079 54.388V49.388V44.388C241.223 44.388 240.972 44.1927 240.95 44.1765L237.971 48.192ZM242.079 49.388V54.388C244.529 54.388 246.984 53.7617 249.073 52.16L246.031 48.192L242.989 44.224C242.97 44.2382 242.927 44.2695 242.815 44.3033C242.693 44.3401 242.462 44.388 242.079 44.388V49.388ZM246.031 48.192L249.073 52.16C251.284 50.4654 252.495 48.0877 252.814 45.4693L247.851 44.864L242.888 44.2587C242.878 44.3436 242.865 44.3874 242.862 44.3988C242.859 44.4091 242.862 44.394 242.879 44.3629C242.897 44.3313 242.92 44.2976 242.946 44.2674C242.972 44.2376 242.989 44.2237 242.989 44.224L246.031 48.192ZM247.851 44.864L252.801 45.5711C252.923 44.7175 252.955 43.6782 252.955 42.628H247.955H242.955C242.955 43.5884 242.918 44.0398 242.901 44.1569L247.851 44.864ZM247.955 42.628H252.955C252.955 41.7651 252.915 40.6718 252.844 39.3867L247.851 39.664L242.859 39.9413C242.926 41.1522 242.955 42.0349 242.955 42.628H247.955ZM247.851 39.664L252.838 39.2991C252.639 36.5865 251.435 34.0466 249.003 32.3438L246.135 36.44L243.268 40.5362C243.229 40.5086 243.168 40.4591 243.1 40.3839C243.032 40.3081 242.975 40.2244 242.93 40.1412C242.838 39.9683 242.855 39.8952 242.865 40.0289L247.851 39.664ZM246.135 36.44L249.157 32.4565C247.025 30.8392 244.495 30.296 242.079 30.296V35.296V40.296C243.061 40.296 243.235 40.5155 243.113 40.4235L246.135 36.44ZM242.079 35.296V30.296C239.637 30.296 237.254 30.9524 235.2 32.4765L238.179 36.492L241.158 40.5075C241.254 40.4369 241.47 40.296 242.079 40.296V35.296ZM238.179 36.492L235.222 32.46C233.009 34.0828 231.736 36.4042 231.4 39.0282L236.359 39.664L241.319 40.2998C241.326 40.2457 241.332 40.2305 241.327 40.2453C241.322 40.2612 241.308 40.2976 241.281 40.3453C241.253 40.3935 241.221 40.4377 241.188 40.4738C241.156 40.5093 241.135 40.525 241.136 40.524L238.179 36.492ZM236.359 39.664L231.395 39.0683C231.266 40.1389 231.203 41.222 231.203 42.316H236.203H241.203C241.203 41.6073 241.244 40.9224 241.324 40.2597L236.359 39.664ZM236.203 42.316H231.203C231.203 43.3831 231.267 44.4397 231.398 45.4842L236.359 44.864L241.321 44.2438C241.243 43.6243 241.203 42.9823 241.203 42.316H236.203ZM269.715 54.276L272.819 58.1962V58.1962L269.715 54.276ZM263.475 54.224L266.599 50.3197L266.589 50.3117L266.579 50.3038L263.475 54.224ZM263.475 16.16L260.45 12.1792L260.41 12.2091L260.372 12.2398L263.475 16.16ZM269.715 16.16L272.819 12.2398V12.2398L269.715 16.16ZM270.963 37.688H265.963V48.0664L274.079 41.5981L270.963 37.688ZM281.207 29.524L284.323 33.4341L284.338 33.4222L284.353 33.4102L281.207 29.524ZM286.407 29.68L283.126 33.453L283.183 33.5023L283.241 33.5498L286.407 29.68ZM287.135 33.684L282.723 31.3311L282.692 31.3891L282.663 31.4479L287.135 33.684ZM286.043 34.984L282.954 31.0524L282.923 31.0769L282.892 31.1019L286.043 34.984ZM278.035 41.484L274.884 37.6019L270.172 41.4269L274.828 45.3199L278.035 41.484ZM287.551 49.44L290.844 45.6771L290.801 45.6401L290.758 45.6041L287.551 49.44ZM288.487 53.444L283.947 51.3487L283.919 51.4112L283.891 51.4744L288.487 53.444ZM287.655 54.692L291.019 58.3917L291.107 58.3117L291.191 58.2275L287.655 54.692ZM282.247 54.692L279.024 58.5143L279.073 58.556L279.124 58.5963L282.247 54.692ZM270.963 45.176L274.187 41.3537L265.963 34.4188V45.176H270.963ZM270.963 51.312H265.963C265.963 51.4525 265.94 51.3442 266.043 51.1007C266.158 50.8269 266.36 50.5547 266.612 50.3558L269.715 54.276L272.819 58.1962C275.134 56.3629 275.963 53.7511 275.963 51.312H270.963ZM269.715 54.276L266.612 50.3558C266.644 50.3304 266.68 50.3065 266.718 50.2863C266.756 50.2663 266.786 50.2553 266.802 50.2503C266.834 50.2399 266.779 50.264 266.595 50.264V55.264V60.264C268.763 60.264 270.954 59.6725 272.819 58.1962L269.715 54.276ZM266.595 55.264V50.264C266.53 50.264 266.493 50.2594 266.478 50.2571C266.464 50.255 266.468 50.2546 266.486 50.2606C266.505 50.2667 266.528 50.2763 266.552 50.2895C266.576 50.3026 266.592 50.3143 266.599 50.3197L263.475 54.224L260.352 58.1283C262.189 59.5983 264.359 60.264 266.595 60.264V55.264ZM263.475 54.224L266.579 50.3038C266.811 50.4879 267.014 50.7497 267.135 51.0324C267.244 51.2878 267.227 51.4181 267.227 51.312H262.227H257.227C257.227 53.7683 258.089 56.3372 260.372 58.1442L263.475 54.224ZM262.227 51.312H267.227V19.072H262.227H257.227V51.312H262.227ZM262.227 19.072H267.227C267.227 18.9659 267.244 19.0962 267.135 19.3516C267.014 19.6343 266.811 19.8961 266.579 20.0802L263.475 16.16L260.372 12.2398C258.089 14.0468 257.227 16.6157 257.227 19.072H262.227ZM263.475 16.16L266.501 20.1408C266.492 20.1471 266.478 20.157 266.458 20.1671C266.439 20.1772 266.423 20.1831 266.415 20.1857C266.407 20.1882 266.414 20.1851 266.441 20.1812C266.468 20.1772 266.518 20.172 266.595 20.172V15.172V10.172C264.421 10.172 262.286 10.7837 260.45 12.1792L263.475 16.16ZM266.595 15.172V20.172C266.779 20.172 266.834 20.1961 266.802 20.1857C266.786 20.1807 266.756 20.1697 266.718 20.1497C266.68 20.1295 266.644 20.1056 266.612 20.0802L269.715 16.16L272.819 12.2398C270.954 10.7635 268.763 10.172 266.595 10.172V15.172ZM269.715 16.16L266.612 20.0802C266.379 19.8961 266.177 19.6343 266.055 19.3516C265.946 19.0962 265.963 18.9659 265.963 19.072H270.963H275.963C275.963 16.6157 275.101 14.0468 272.819 12.2398L269.715 16.16ZM270.963 19.072H265.963V37.688H270.963H275.963V19.072H270.963ZM270.963 37.688L274.079 41.5981L284.323 33.4341L281.207 29.524L278.091 25.6139L267.847 33.7779L270.963 37.688ZM281.207 29.524L284.353 33.4102C284.303 33.4511 284.198 33.5204 284.046 33.5741C283.895 33.6279 283.769 33.64 283.703 33.64V28.64V23.64C281.621 23.64 279.679 24.3284 278.061 25.6378L281.207 29.524ZM283.703 28.64V33.64C283.618 33.64 283.484 33.6227 283.338 33.5667C283.196 33.5122 283.126 33.4526 283.126 33.453L286.407 29.68L289.688 25.907C288.031 24.4664 285.98 23.64 283.703 23.64V28.64ZM286.407 29.68L283.241 33.5498C283.12 33.4505 282.916 33.2399 282.755 32.9033C282.592 32.5644 282.551 32.259 282.551 32.072H287.551H292.551C292.551 29.5754 291.476 27.3671 289.573 25.8102L286.407 29.68ZM287.551 32.072H282.551C282.551 31.9276 282.57 31.7809 282.606 31.6416C282.641 31.5038 282.687 31.399 282.723 31.3311L287.135 33.684L291.547 36.0369C292.186 34.8394 292.551 33.4986 292.551 32.072H287.551ZM287.135 33.684L282.663 31.4479C282.793 31.1876 282.939 31.0644 282.954 31.0524L286.043 34.984L289.132 38.9156C290.118 38.141 290.992 37.1511 291.607 35.9201L287.135 33.684ZM286.043 34.984L282.892 31.1019L274.884 37.6019L278.035 41.484L281.186 45.3661L289.194 38.8661L286.043 34.984ZM278.035 41.484L274.828 45.3199L284.344 53.2759L287.551 49.44L290.758 45.6041L281.242 37.6481L278.035 41.484ZM287.551 49.44L284.259 53.2029C284.241 53.1878 284.105 53.0608 283.98 52.7997C283.849 52.5267 283.799 52.2511 283.799 52.04H288.799H293.799C293.799 49.4389 292.639 47.2483 290.844 45.6771L287.551 49.44ZM288.799 52.04H283.799C283.799 51.7851 283.859 51.5396 283.947 51.3487L288.487 53.444L293.027 55.5393C293.531 54.4471 293.799 53.2656 293.799 52.04H288.799ZM288.487 53.444L283.891 51.4744C283.915 51.4205 283.983 51.2932 284.12 51.1565L287.655 54.692L291.191 58.2275C292.021 57.3974 292.644 56.4382 293.083 55.4136L288.487 53.444ZM287.655 54.692L284.292 50.9923C284.322 50.9648 284.424 50.8842 284.595 50.8171C284.768 50.7492 284.918 50.732 285.003 50.732V55.732V60.732C287.287 60.732 289.361 59.8984 291.019 58.3917L287.655 54.692ZM285.003 55.732V50.732C285.06 50.732 285.123 50.7372 285.187 50.7491C285.252 50.7609 285.307 50.7774 285.351 50.794C285.442 50.8281 285.447 50.8489 285.371 50.7877L282.247 54.692L279.124 58.5963C280.743 59.8919 282.737 60.732 285.003 60.732V55.732ZM282.247 54.692L285.471 50.8697L274.187 41.3537L270.963 45.176L267.74 48.9983L279.024 58.5143L282.247 54.692ZM270.963 45.176H265.963V51.312H270.963H275.963V45.176H270.963Z" fill="white" mask="url(#path-2-outside-1_517_5)"/>
</svg>
