<svg width="1038" height="93" viewBox="0 0 1038 93" fill="none" xmlns="http://www.w3.org/2000/svg">
<mask id="path-1-outside-1_910_86" maskUnits="userSpaceOnUse" x="-0.421021" y="-0.287994" width="1038" height="94" fill="black">
<rect fill="white" x="-0.421021" y="-0.287994" width="1038" height="94"/>
<path d="M3.99998 87.712V5.28H18.976L58.016 60.192V5.28H75.296V87.712H60.32L21.28 32.8V87.712H3.99998ZM89.875 87.712V5.28H107.155V87.712H89.875ZM121.75 87.712V5.28H136.726L175.766 60.192V5.28H193.046V87.712H178.07L139.03 32.8V87.712H121.75ZM227.849 87.712V18.592H202.505V5.28H270.345V18.592H245.129V87.712H227.849ZM279.875 87.712V5.28H339.011V18.72H297.155V39.84H334.275V53.152H297.155V74.4H339.011V87.712H279.875ZM351 87.712V5.28H365.976L405.016 60.192V5.28H422.296V87.712H407.32L368.28 32.8V87.712H351ZM436.875 87.712V5.28H471.435C483.808 5.28 493.11 8.48 499.339 14.88C505.654 21.1947 508.811 31.8613 508.811 46.88C508.811 61.0453 505.696 71.4133 499.467 77.984C493.323 84.4693 483.979 87.712 471.435 87.712H436.875ZM454.155 74.4H469.003C473.867 74.4 477.963 73.6747 481.291 72.224C484.619 70.688 487.094 67.9573 488.715 64.032C490.422 60.0213 491.275 54.304 491.275 46.88C491.275 39.456 490.507 33.7813 488.971 29.856C487.435 25.9307 485.046 23.2427 481.803 21.792C478.56 20.3413 474.294 19.616 469.003 19.616H454.155V74.4ZM558.379 88.992C531.67 88.992 518.315 74.9547 518.315 46.88C518.315 31.776 521.686 20.8533 528.427 14.112C535.168 7.37067 545.152 4 558.379 4C571.606 4 581.59 7.37067 588.331 14.112C595.072 20.8533 598.443 31.776 598.443 46.88C598.443 74.9547 585.088 88.992 558.379 88.992ZM558.379 74.272C566.144 74.272 571.819 72.0533 575.403 67.616C579.072 63.0933 580.907 56.1813 580.907 46.88C580.907 36.5547 579.072 29.3013 575.403 25.12C571.819 20.8533 566.144 18.72 558.379 18.72C550.614 18.72 544.896 20.8533 541.227 25.12C537.643 29.3013 535.851 36.5547 535.851 46.88C535.851 56.1813 537.643 63.0933 541.227 67.616C544.896 72.0533 550.614 74.272 558.379 74.272ZM638.625 87.712V5.28H655.905V40.224L687.649 5.28H707.489L677.665 38.688L709.025 87.712H690.593L666.913 49.696L655.905 61.6V87.712H638.625ZM750.129 88.992C723.42 88.992 710.065 74.9547 710.065 46.88C710.065 31.776 713.436 20.8533 720.177 14.112C726.918 7.37067 736.902 4 750.129 4C763.356 4 773.34 7.37067 780.081 14.112C786.822 20.8533 790.193 31.776 790.193 46.88C790.193 74.9547 776.838 88.992 750.129 88.992ZM750.129 74.272C757.894 74.272 763.569 72.0533 767.153 67.616C770.822 63.0933 772.657 56.1813 772.657 46.88C772.657 36.5547 770.822 29.3013 767.153 25.12C763.569 20.8533 757.894 18.72 750.129 18.72C742.364 18.72 736.646 20.8533 732.977 25.12C729.393 29.3013 727.601 36.5547 727.601 46.88C727.601 56.1813 729.393 63.0933 732.977 67.616C736.646 72.0533 742.364 74.272 750.129 74.272ZM802.25 87.712V5.28H841.802C851.274 5.28 858.229 7.79733 862.666 12.832C867.103 17.7813 869.322 24.48 869.322 32.928C869.322 38.4747 867.871 43.2533 864.97 47.264C862.154 51.2747 858.143 54.176 852.938 55.968C854.303 57.0773 855.37 58.272 856.138 59.552C856.991 60.832 857.845 62.5387 858.698 64.672L868.682 87.712H850.762L841.034 65.568C840.181 63.6907 839.242 62.368 838.218 61.6C837.194 60.832 835.487 60.448 833.098 60.448H819.53V87.712H802.25ZM819.53 46.112H837.322C841.845 46.112 845.386 45.1307 847.946 43.168C850.506 41.12 851.786 37.7067 851.786 32.928C851.786 28.32 850.677 24.9493 848.458 22.816C846.239 20.6827 842.869 19.616 838.346 19.616H819.53V46.112ZM881.375 87.712V5.28H940.511V18.72H898.655V39.84H935.775V53.152H898.655V74.4H940.511V87.712H881.375ZM949.94 87.712L981.428 5.28H1000.37L1031.73 87.712H1013.81L1006 67.872H975.668L967.988 87.712H949.94ZM978.228 54.56H1003.44L990.772 21.408L978.228 54.56Z"/>
</mask>
<path d="M3.99998 87.712H-2.00272e-05V91.712H3.99998V87.712ZM3.99998 5.28V1.28H-2.00272e-05V5.28H3.99998ZM18.976 5.28L22.236 2.96224L21.04 1.28H18.976V5.28ZM58.016 60.192L54.7559 62.5098L62.016 72.7215V60.192H58.016ZM58.016 5.28V1.28H54.016V5.28H58.016ZM75.296 5.28H79.296V1.28H75.296V5.28ZM75.296 87.712V91.712H79.296V87.712H75.296ZM60.32 87.712L57.0599 90.0298L58.2559 91.712H60.32V87.712ZM21.28 32.8L24.54 30.4822L17.28 20.2706V32.8H21.28ZM21.28 87.712V91.712H25.28V87.712H21.28ZM3.99998 87.712H7.99998V5.28H3.99998H-2.00272e-05V87.712H3.99998ZM3.99998 5.28V9.28H18.976V5.28V1.28H3.99998V5.28ZM18.976 5.28L15.7159 7.59776L54.7559 62.5098L58.016 60.192L61.276 57.8742L22.236 2.96224L18.976 5.28ZM58.016 60.192H62.016V5.28H58.016H54.016V60.192H58.016ZM58.016 5.28V9.28H75.296V5.28V1.28H58.016V5.28ZM75.296 5.28H71.296V87.712H75.296H79.296V5.28H75.296ZM75.296 87.712V83.712H60.32V87.712V91.712H75.296V87.712ZM60.32 87.712L63.58 85.3942L24.54 30.4822L21.28 32.8L18.0199 35.1178L57.0599 90.0298L60.32 87.712ZM21.28 32.8H17.28V87.712H21.28H25.28V32.8H21.28ZM21.28 87.712V83.712H3.99998V87.712V91.712H21.28V87.712ZM89.875 87.712H85.875V91.712H89.875V87.712ZM89.875 5.28V1.28H85.875V5.28H89.875ZM107.155 5.28H111.155V1.28H107.155V5.28ZM107.155 87.712V91.712H111.155V87.712H107.155ZM89.875 87.712H93.875V5.28H89.875H85.875V87.712H89.875ZM89.875 5.28V9.28H107.155V5.28V1.28H89.875V5.28ZM107.155 5.28H103.155V87.712H107.155H111.155V5.28H107.155ZM107.155 87.712V83.712H89.875V87.712V91.712H107.155V87.712ZM121.75 87.712H117.75V91.712H121.75V87.712ZM121.75 5.28V1.28H117.75V5.28H121.75ZM136.726 5.28L139.986 2.96224L138.79 1.28H136.726V5.28ZM175.766 60.192L172.506 62.5098L179.766 72.7215V60.192H175.766ZM175.766 5.28V1.28H171.766V5.28H175.766ZM193.046 5.28H197.046V1.28H193.046V5.28ZM193.046 87.712V91.712H197.046V87.712H193.046ZM178.07 87.712L174.81 90.0298L176.006 91.712H178.07V87.712ZM139.03 32.8L142.29 30.4822L135.03 20.2706V32.8H139.03ZM139.03 87.712V91.712H143.03V87.712H139.03ZM121.75 87.712H125.75V5.28H121.75H117.75V87.712H121.75ZM121.75 5.28V9.28H136.726V5.28V1.28H121.75V5.28ZM136.726 5.28L133.466 7.59776L172.506 62.5098L175.766 60.192L179.026 57.8742L139.986 2.96224L136.726 5.28ZM175.766 60.192H179.766V5.28H175.766H171.766V60.192H175.766ZM175.766 5.28V9.28H193.046V5.28V1.28H175.766V5.28ZM193.046 5.28H189.046V87.712H193.046H197.046V5.28H193.046ZM193.046 87.712V83.712H178.07V87.712V91.712H193.046V87.712ZM178.07 87.712L181.33 85.3942L142.29 30.4822L139.03 32.8L135.77 35.1178L174.81 90.0298L178.07 87.712ZM139.03 32.8H135.03V87.712H139.03H143.03V32.8H139.03ZM139.03 87.712V83.712H121.75V87.712V91.712H139.03V87.712ZM227.849 87.712H223.849V91.712H227.849V87.712ZM227.849 18.592H231.849V14.592H227.849V18.592ZM202.505 18.592H198.505V22.592H202.505V18.592ZM202.505 5.28V1.28H198.505V5.28H202.505ZM270.345 5.28H274.345V1.28H270.345V5.28ZM270.345 18.592V22.592H274.345V18.592H270.345ZM245.129 18.592V14.592H241.129V18.592H245.129ZM245.129 87.712V91.712H249.129V87.712H245.129ZM227.849 87.712H231.849V18.592H227.849H223.849V87.712H227.849ZM227.849 18.592V14.592H202.505V18.592V22.592H227.849V18.592ZM202.505 18.592H206.505V5.28H202.505H198.505V18.592H202.505ZM202.505 5.28V9.28H270.345V5.28V1.28H202.505V5.28ZM270.345 5.28H266.345V18.592H270.345H274.345V5.28H270.345ZM270.345 18.592V14.592H245.129V18.592V22.592H270.345V18.592ZM245.129 18.592H241.129V87.712H245.129H249.129V18.592H245.129ZM245.129 87.712V83.712H227.849V87.712V91.712H245.129V87.712ZM279.875 87.712H275.875V91.712H279.875V87.712ZM279.875 5.28V1.28H275.875V5.28H279.875ZM339.011 5.28H343.011V1.28H339.011V5.28ZM339.011 18.72V22.72H343.011V18.72H339.011ZM297.155 18.72V14.72H293.155V18.72H297.155ZM297.155 39.84H293.155V43.84H297.155V39.84ZM334.275 39.84H338.275V35.84H334.275V39.84ZM334.275 53.152V57.152H338.275V53.152H334.275ZM297.155 53.152V49.152H293.155V53.152H297.155ZM297.155 74.4H293.155V78.4H297.155V74.4ZM339.011 74.4H343.011V70.4H339.011V74.4ZM339.011 87.712V91.712H343.011V87.712H339.011ZM279.875 87.712H283.875V5.28H279.875H275.875V87.712H279.875ZM279.875 5.28V9.28H339.011V5.28V1.28H279.875V5.28ZM339.011 5.28H335.011V18.72H339.011H343.011V5.28H339.011ZM339.011 18.72V14.72H297.155V18.72V22.72H339.011V18.72ZM297.155 18.72H293.155V39.84H297.155H301.155V18.72H297.155ZM297.155 39.84V43.84H334.275V39.84V35.84H297.155V39.84ZM334.275 39.84H330.275V53.152H334.275H338.275V39.84H334.275ZM334.275 53.152V49.152H297.155V53.152V57.152H334.275V53.152ZM297.155 53.152H293.155V74.4H297.155H301.155V53.152H297.155ZM297.155 74.4V78.4H339.011V74.4V70.4H297.155V74.4ZM339.011 74.4H335.011V87.712H339.011H343.011V74.4H339.011ZM339.011 87.712V83.712H279.875V87.712V91.712H339.011V87.712ZM351 87.712H347V91.712H351V87.712ZM351 5.28V1.28H347V5.28H351ZM365.976 5.28L369.236 2.96224L368.04 1.28H365.976V5.28ZM405.016 60.192L401.756 62.5098L409.016 72.7215V60.192H405.016ZM405.016 5.28V1.28H401.016V5.28H405.016ZM422.296 5.28H426.296V1.28H422.296V5.28ZM422.296 87.712V91.712H426.296V87.712H422.296ZM407.32 87.712L404.06 90.0298L405.256 91.712H407.32V87.712ZM368.28 32.8L371.54 30.4822L364.28 20.2706V32.8H368.28ZM368.28 87.712V91.712H372.28V87.712H368.28ZM351 87.712H355V5.28H351H347V87.712H351ZM351 5.28V9.28H365.976V5.28V1.28H351V5.28ZM365.976 5.28L362.716 7.59776L401.756 62.5098L405.016 60.192L408.276 57.8742L369.236 2.96224L365.976 5.28ZM405.016 60.192H409.016V5.28H405.016H401.016V60.192H405.016ZM405.016 5.28V9.28H422.296V5.28V1.28H405.016V5.28ZM422.296 5.28H418.296V87.712H422.296H426.296V5.28H422.296ZM422.296 87.712V83.712H407.32V87.712V91.712H422.296V87.712ZM407.32 87.712L410.58 85.3942L371.54 30.4822L368.28 32.8L365.02 35.1178L404.06 90.0298L407.32 87.712ZM368.28 32.8H364.28V87.712H368.28H372.28V32.8H368.28ZM368.28 87.712V83.712H351V87.712V91.712H368.28V87.712ZM436.875 87.712H432.875V91.712H436.875V87.712ZM436.875 5.28V1.28H432.875V5.28H436.875ZM499.339 14.88L496.473 17.67L496.491 17.6893L496.511 17.7084L499.339 14.88ZM499.467 77.984L496.564 75.232L496.563 75.233L499.467 77.984ZM454.155 74.4H450.155V78.4H454.155V74.4ZM481.291 72.224L482.889 75.8908L482.928 75.8737L482.967 75.8558L481.291 72.224ZM488.715 64.032L485.034 62.4658L485.026 62.4853L485.018 62.505L488.715 64.032ZM481.803 21.792L483.436 18.1407H483.436L481.803 21.792ZM454.155 19.616V15.616H450.155V19.616H454.155ZM436.875 87.712H440.875V5.28H436.875H432.875V87.712H436.875ZM436.875 5.28V9.28H471.435V5.28V1.28H436.875V5.28ZM471.435 5.28V9.28C483.154 9.28 491.249 12.3031 496.473 17.67L499.339 14.88L502.205 12.0901C494.97 4.65688 484.462 1.28 471.435 1.28V5.28ZM499.339 14.88L496.511 17.7084C501.702 22.8997 504.811 32.241 504.811 46.88H508.811H512.811C512.811 31.4816 509.606 19.4897 502.167 12.0516L499.339 14.88ZM508.811 46.88H504.811C504.811 60.5785 501.782 69.7287 496.564 75.232L499.467 77.984L502.37 80.736C509.611 73.098 512.811 61.5122 512.811 46.88H508.811ZM499.467 77.984L496.563 75.233C491.438 80.6426 483.334 83.712 471.435 83.712V87.712V91.712C484.624 91.712 495.208 88.2961 502.371 80.735L499.467 77.984ZM471.435 87.712V83.712H436.875V87.712V91.712H471.435V87.712ZM454.155 74.4V78.4H469.003V74.4V70.4H454.155V74.4ZM469.003 74.4V78.4C474.24 78.4 478.917 77.6223 482.889 75.8908L481.291 72.224L479.693 68.5572C477.009 69.727 473.494 70.4 469.003 70.4V74.4ZM481.291 72.224L482.967 75.8558C487.354 73.8312 490.471 70.2574 492.412 65.559L488.715 64.032L485.018 62.505C483.716 65.6573 481.884 67.5448 479.615 68.5922L481.291 72.224ZM488.715 64.032L492.396 65.5982C494.411 60.8615 495.275 54.5164 495.275 46.88H491.275H487.275C487.275 54.0916 486.432 59.1812 485.034 62.4658L488.715 64.032ZM491.275 46.88H495.275C495.275 39.278 494.502 33.0146 492.696 28.3984L488.971 29.856L485.246 31.3136C486.512 34.5481 487.275 39.634 487.275 46.88H491.275ZM488.971 29.856L492.696 28.3984C490.854 23.6911 487.813 20.0986 483.436 18.1407L481.803 21.792L480.17 25.4433C482.278 26.3867 484.016 28.1702 485.246 31.3136L488.971 29.856ZM481.803 21.792L483.436 18.1407C479.492 16.376 474.605 15.616 469.003 15.616V19.616V23.616C473.982 23.616 477.629 24.3067 480.17 25.4433L481.803 21.792ZM469.003 19.616V15.616H454.155V19.616V23.616H469.003V19.616ZM454.155 19.616H450.155V74.4H454.155H458.155V19.616H454.155ZM528.427 14.112L525.599 11.2836V11.2836L528.427 14.112ZM588.331 14.112L591.159 11.2836V11.2836L588.331 14.112ZM575.403 67.616L572.297 65.0958L572.291 65.1027L575.403 67.616ZM575.403 25.12L572.34 27.6928L572.368 27.7259L572.396 27.7584L575.403 25.12ZM541.227 25.12L538.194 22.5118L538.19 22.5168L541.227 25.12ZM541.227 67.616L538.092 70.1003L538.118 70.133L538.144 70.1651L541.227 67.616ZM558.379 88.992V84.992C545.693 84.992 536.901 81.6684 531.229 75.7069C525.522 69.7081 522.315 60.3492 522.315 46.88H518.315H514.315C514.315 61.4855 517.785 73.1825 525.433 81.2211C533.116 89.297 544.355 92.992 558.379 92.992V88.992ZM518.315 46.88H522.315C522.315 32.2379 525.602 22.5939 531.255 16.9404L528.427 14.112L525.599 11.2836C517.769 19.1127 514.315 31.3141 514.315 46.88H518.315ZM528.427 14.112L531.255 16.9404C536.995 11.2008 545.795 8 558.379 8V4V0C544.51 0 533.342 3.54055 525.599 11.2836L528.427 14.112ZM558.379 4V8C570.963 8 579.763 11.2008 585.503 16.9404L588.331 14.112L591.159 11.2836C583.416 3.54055 572.248 0 558.379 0V4ZM588.331 14.112L585.503 16.9404C591.156 22.5939 594.443 32.2379 594.443 46.88H598.443H602.443C602.443 31.3141 598.989 19.1127 591.159 11.2836L588.331 14.112ZM598.443 46.88H594.443C594.443 60.3492 591.236 69.7081 585.529 75.7069C579.857 81.6684 571.065 84.992 558.379 84.992V88.992V92.992C572.403 92.992 583.642 89.297 591.325 81.2211C598.973 73.1825 602.443 61.4855 602.443 46.88H598.443ZM558.379 74.272V78.272C566.889 78.272 573.921 75.8166 578.515 70.1293L575.403 67.616L572.291 65.1027C569.717 68.2901 565.4 70.272 558.379 70.272V74.272ZM575.403 67.616L578.509 70.1362C583.013 64.5847 584.907 56.5864 584.907 46.88H580.907H576.907C576.907 55.7763 575.131 61.602 572.297 65.0958L575.403 67.616ZM580.907 46.88H584.907C584.907 36.3184 583.078 27.8014 578.409 22.4816L575.403 25.12L572.396 27.7584C575.067 30.8013 576.907 36.7909 576.907 46.88H580.907ZM575.403 25.12L578.466 22.5472C573.856 17.0598 566.84 14.72 558.379 14.72V18.72V22.72C565.449 22.72 569.782 24.6468 572.34 27.6928L575.403 25.12ZM558.379 18.72V14.72C549.911 14.72 542.881 17.0624 538.194 22.5118L541.227 25.12L544.26 27.7282C546.912 24.6442 551.316 22.72 558.379 22.72V18.72ZM541.227 25.12L538.19 22.5168C533.633 27.8329 531.851 36.3325 531.851 46.88H535.851H539.851C539.851 36.7769 541.653 30.7698 544.264 27.7232L541.227 25.12ZM535.851 46.88H531.851C531.851 56.5705 533.696 64.553 538.092 70.1003L541.227 67.616L544.362 65.1317C541.59 61.6337 539.851 55.7922 539.851 46.88H535.851ZM541.227 67.616L538.144 70.1651C542.816 75.8145 549.863 78.272 558.379 78.272V74.272V70.272C551.365 70.272 546.977 68.2922 544.31 65.0669L541.227 67.616ZM638.625 87.712H634.625V91.712H638.625V87.712ZM638.625 5.28V1.28H634.625V5.28H638.625ZM655.905 5.28H659.905V1.28H655.905V5.28ZM655.905 40.224H651.905V50.576L658.866 42.9136L655.905 40.224ZM687.649 5.28V1.28H685.879L684.688 2.59039L687.649 5.28ZM707.489 5.28L710.473 7.94383L716.422 1.28H707.489V5.28ZM677.665 38.688L674.681 36.0242L672.66 38.2876L674.295 40.8435L677.665 38.688ZM709.025 87.712V91.712H716.332L712.395 85.5565L709.025 87.712ZM690.593 87.712L687.198 89.8269L688.372 91.712H690.593V87.712ZM666.913 49.696L670.308 47.5811L667.536 43.1307L663.976 46.9803L666.913 49.696ZM655.905 61.6L652.968 58.8843L651.905 60.034V61.6H655.905ZM655.905 87.712V91.712H659.905V87.712H655.905ZM638.625 87.712H642.625V5.28H638.625H634.625V87.712H638.625ZM638.625 5.28V9.28H655.905V5.28V1.28H638.625V5.28ZM655.905 5.28H651.905V40.224H655.905H659.905V5.28H655.905ZM655.905 40.224L658.866 42.9136L690.61 7.96961L687.649 5.28L684.688 2.59039L652.944 37.5344L655.905 40.224ZM687.649 5.28V9.28H707.489V5.28V1.28H687.649V5.28ZM707.489 5.28L704.505 2.61617L674.681 36.0242L677.665 38.688L680.649 41.3518L710.473 7.94383L707.489 5.28ZM677.665 38.688L674.295 40.8435L705.655 89.8675L709.025 87.712L712.395 85.5565L681.035 36.5325L677.665 38.688ZM709.025 87.712V83.712H690.593V87.712V91.712H709.025V87.712ZM690.593 87.712L693.988 85.5972L670.308 47.5811L666.913 49.696L663.518 51.8109L687.198 89.8269L690.593 87.712ZM666.913 49.696L663.976 46.9803L652.968 58.8843L655.905 61.6L658.842 64.3157L669.85 52.4117L666.913 49.696ZM655.905 61.6H651.905V87.712H655.905H659.905V61.6H655.905ZM655.905 87.712V83.712H638.625V87.712V91.712H655.905V87.712ZM720.177 14.112L717.349 11.2836V11.2836L720.177 14.112ZM780.081 14.112L782.909 11.2836V11.2836L780.081 14.112ZM767.153 67.616L764.047 65.0958L764.041 65.1027L767.153 67.616ZM767.153 25.12L764.09 27.6928L764.118 27.7259L764.146 27.7584L767.153 25.12ZM732.977 25.12L729.944 22.5118L729.94 22.5168L732.977 25.12ZM732.977 67.616L729.842 70.1003L729.868 70.133L729.894 70.1651L732.977 67.616ZM750.129 88.992V84.992C737.443 84.992 728.651 81.6684 722.979 75.7069C717.272 69.7081 714.065 60.3492 714.065 46.88H710.065H706.065C706.065 61.4855 709.535 73.1825 717.183 81.2211C724.866 89.297 736.105 92.992 750.129 92.992V88.992ZM710.065 46.88H714.065C714.065 32.2379 717.352 22.5939 723.005 16.9404L720.177 14.112L717.349 11.2836C709.519 19.1127 706.065 31.3141 706.065 46.88H710.065ZM720.177 14.112L723.005 16.9404C728.745 11.2008 737.545 8 750.129 8V4V0C736.26 0 725.092 3.54055 717.349 11.2836L720.177 14.112ZM750.129 4V8C762.713 8 771.513 11.2008 777.253 16.9404L780.081 14.112L782.909 11.2836C775.166 3.54055 763.998 0 750.129 0V4ZM780.081 14.112L777.253 16.9404C782.906 22.5939 786.193 32.2379 786.193 46.88H790.193H794.193C794.193 31.3141 790.739 19.1127 782.909 11.2836L780.081 14.112ZM790.193 46.88H786.193C786.193 60.3492 782.986 69.7081 777.279 75.7069C771.607 81.6684 762.815 84.992 750.129 84.992V88.992V92.992C764.153 92.992 775.392 89.297 783.075 81.2211C790.723 73.1825 794.193 61.4855 794.193 46.88H790.193ZM750.129 74.272V78.272C758.639 78.272 765.671 75.8166 770.265 70.1293L767.153 67.616L764.041 65.1027C761.467 68.2901 757.15 70.272 750.129 70.272V74.272ZM767.153 67.616L770.259 70.1362C774.763 64.5847 776.657 56.5864 776.657 46.88H772.657H768.657C768.657 55.7763 766.881 61.602 764.047 65.0958L767.153 67.616ZM772.657 46.88H776.657C776.657 36.3184 774.828 27.8014 770.159 22.4816L767.153 25.12L764.146 27.7584C766.817 30.8013 768.657 36.7909 768.657 46.88H772.657ZM767.153 25.12L770.216 22.5472C765.606 17.0598 758.59 14.72 750.129 14.72V18.72V22.72C757.199 22.72 761.532 24.6468 764.09 27.6928L767.153 25.12ZM750.129 18.72V14.72C741.661 14.72 734.631 17.0624 729.944 22.5118L732.977 25.12L736.01 27.7282C738.662 24.6442 743.066 22.72 750.129 22.72V18.72ZM732.977 25.12L729.94 22.5168C725.383 27.8329 723.601 36.3325 723.601 46.88H727.601H731.601C731.601 36.7769 733.403 30.7698 736.014 27.7232L732.977 25.12ZM727.601 46.88H723.601C723.601 56.5705 725.446 64.553 729.842 70.1003L732.977 67.616L736.112 65.1317C733.34 61.6337 731.601 55.7922 731.601 46.88H727.601ZM732.977 67.616L729.894 70.1651C734.566 75.8145 741.613 78.272 750.129 78.272V74.272V70.272C743.115 70.272 738.727 68.2922 736.06 65.0669L732.977 67.616ZM802.25 87.712H798.25V91.712H802.25V87.712ZM802.25 5.28V1.28H798.25V5.28H802.25ZM862.666 12.832L859.665 15.4768L859.676 15.4895L859.688 15.5022L862.666 12.832ZM864.97 47.264L861.729 44.9195L861.713 44.9424L861.696 44.9655L864.97 47.264ZM852.938 55.968L851.636 52.1859L844.825 54.5304L850.416 59.0725L852.938 55.968ZM856.138 59.552L852.708 61.61L852.757 61.6916L852.81 61.7708L856.138 59.552ZM858.698 64.672L854.984 66.1576L855.005 66.2103L855.028 66.2624L858.698 64.672ZM868.682 87.712V91.712H874.775L872.352 86.1216L868.682 87.712ZM850.762 87.712L847.1 89.3208L848.15 91.712H850.762V87.712ZM841.034 65.568L844.696 63.9592L844.686 63.9359L844.675 63.9128L841.034 65.568ZM838.218 61.6L840.618 58.4V58.4L838.218 61.6ZM819.53 60.448V56.448H815.53V60.448H819.53ZM819.53 87.712V91.712H823.53V87.712H819.53ZM819.53 46.112H815.53V50.112H819.53V46.112ZM847.946 43.168L850.38 46.3424L850.412 46.3173L850.445 46.2915L847.946 43.168ZM848.458 22.816L851.23 19.9327V19.9327L848.458 22.816ZM819.53 19.616V15.616H815.53V19.616H819.53ZM802.25 87.712H806.25V5.28H802.25H798.25V87.712H802.25ZM802.25 5.28V9.28H841.802V5.28V1.28H802.25V5.28ZM841.802 5.28V9.28C850.613 9.28 856.259 11.6122 859.665 15.4768L862.666 12.832L865.667 10.1872C860.198 3.98242 851.935 1.28 841.802 1.28V5.28ZM862.666 12.832L859.688 15.5022C863.304 19.5354 865.322 25.1896 865.322 32.928H869.322H873.322C873.322 23.7704 870.903 16.0273 865.644 10.1618L862.666 12.832ZM869.322 32.928H865.322C865.322 37.7388 864.078 41.6722 861.729 44.9195L864.97 47.264L868.211 49.6085C871.664 44.8345 873.322 39.2105 873.322 32.928H869.322ZM864.97 47.264L861.696 44.9655C859.424 48.2023 856.147 50.6329 851.636 52.1859L852.938 55.968L854.24 59.7502C860.14 57.7191 864.884 54.3471 868.244 49.5625L864.97 47.264ZM852.938 55.968L850.416 59.0725C851.483 59.9396 852.218 60.7931 852.708 61.61L856.138 59.552L859.568 57.494C858.522 55.7509 857.124 54.2151 855.46 52.8635L852.938 55.968ZM856.138 59.552L852.81 61.7708C853.454 62.7376 854.188 64.1686 854.984 66.1576L858.698 64.672L862.412 63.1864C861.501 60.9087 860.528 58.9264 859.466 57.3332L856.138 59.552ZM858.698 64.672L855.028 66.2624L865.012 89.3024L868.682 87.712L872.352 86.1216L862.368 63.0816L858.698 64.672ZM868.682 87.712V83.712H850.762V87.712V91.712H868.682V87.712ZM850.762 87.712L854.424 86.1032L844.696 63.9592L841.034 65.568L837.372 67.1768L847.1 89.3208L850.762 87.712ZM841.034 65.568L844.675 63.9128C843.696 61.7589 842.411 59.7449 840.618 58.4L838.218 61.6L835.818 64.8C836.073 64.9911 836.665 65.6224 837.393 67.2232L841.034 65.568ZM838.218 61.6L840.618 58.4C838.519 56.8255 835.704 56.448 833.098 56.448V60.448V64.448C834.097 64.448 834.81 64.53 835.292 64.6384C835.784 64.7492 835.892 64.8552 835.818 64.8L838.218 61.6ZM833.098 60.448V56.448H819.53V60.448V64.448H833.098V60.448ZM819.53 60.448H815.53V87.712H819.53H823.53V60.448H819.53ZM819.53 87.712V83.712H802.25V87.712V91.712H819.53V87.712ZM819.53 46.112V50.112H837.322V46.112V42.112H819.53V46.112ZM837.322 46.112V50.112C842.379 50.112 846.889 49.0185 850.38 46.3424L847.946 43.168L845.512 39.9936C843.883 41.2428 841.311 42.112 837.322 42.112V46.112ZM847.946 43.168L850.445 46.2915C854.327 43.1855 855.786 38.3453 855.786 32.928H851.786H847.786C847.786 37.068 846.685 39.0545 845.447 40.0445L847.946 43.168ZM851.786 32.928H855.786C855.786 27.7701 854.551 23.1257 851.23 19.9327L848.458 22.816L845.686 25.6993C846.802 26.7729 847.786 28.8699 847.786 32.928H851.786ZM848.458 22.816L851.23 19.9327C847.98 16.8075 843.422 15.616 838.346 15.616V19.616V23.616C842.315 23.616 844.498 24.5578 845.686 25.6993L848.458 22.816ZM838.346 19.616V15.616H819.53V19.616V23.616H838.346V19.616ZM819.53 19.616H815.53V46.112H819.53H823.53V19.616H819.53ZM881.375 87.712H877.375V91.712H881.375V87.712ZM881.375 5.28V1.28H877.375V5.28H881.375ZM940.511 5.28H944.511V1.28H940.511V5.28ZM940.511 18.72V22.72H944.511V18.72H940.511ZM898.655 18.72V14.72H894.655V18.72H898.655ZM898.655 39.84H894.655V43.84H898.655V39.84ZM935.775 39.84H939.775V35.84H935.775V39.84ZM935.775 53.152V57.152H939.775V53.152H935.775ZM898.655 53.152V49.152H894.655V53.152H898.655ZM898.655 74.4H894.655V78.4H898.655V74.4ZM940.511 74.4H944.511V70.4H940.511V74.4ZM940.511 87.712V91.712H944.511V87.712H940.511ZM881.375 87.712H885.375V5.28H881.375H877.375V87.712H881.375ZM881.375 5.28V9.28H940.511V5.28V1.28H881.375V5.28ZM940.511 5.28H936.511V18.72H940.511H944.511V5.28H940.511ZM940.511 18.72V14.72H898.655V18.72V22.72H940.511V18.72ZM898.655 18.72H894.655V39.84H898.655H902.655V18.72H898.655ZM898.655 39.84V43.84H935.775V39.84V35.84H898.655V39.84ZM935.775 39.84H931.775V53.152H935.775H939.775V39.84H935.775ZM935.775 53.152V49.152H898.655V53.152V57.152H935.775V53.152ZM898.655 53.152H894.655V74.4H898.655H902.655V53.152H898.655ZM898.655 74.4V78.4H940.511V74.4V70.4H898.655V74.4ZM940.511 74.4H936.511V87.712H940.511H944.511V74.4H940.511ZM940.511 87.712V83.712H881.375V87.712V91.712H940.511V87.712ZM949.94 87.712L946.203 86.2846L944.13 91.712H949.94V87.712ZM981.428 5.28V1.28H978.674L977.691 3.85264L981.428 5.28ZM1000.37 5.28L1004.11 3.8577L1003.13 1.28H1000.37V5.28ZM1031.73 87.712V91.712H1037.53L1035.47 86.2897L1031.73 87.712ZM1013.81 87.712L1010.09 89.1768L1011.09 91.712H1013.81V87.712ZM1006 67.872L1009.73 66.4072L1008.73 63.872H1006V67.872ZM975.668 67.872V63.872H972.927L971.938 66.428L975.668 67.872ZM967.988 87.712V91.712H970.729L971.718 89.156L967.988 87.712ZM978.228 54.56L974.487 53.1444L972.438 58.56H978.228V54.56ZM1003.44 54.56V58.56H1009.26L1007.18 53.1318L1003.44 54.56ZM990.772 21.408L994.508 19.9798L990.753 10.1553L987.031 19.9924L990.772 21.408ZM949.94 87.712L953.677 89.1394L985.165 6.70736L981.428 5.28L977.691 3.85264L946.203 86.2846L949.94 87.712ZM981.428 5.28V9.28H1000.37V5.28V1.28H981.428V5.28ZM1000.37 5.28L996.633 6.70229L1027.99 89.1343L1031.73 87.712L1035.47 86.2897L1004.11 3.8577L1000.37 5.28ZM1031.73 87.712V83.712H1013.81V87.712V91.712H1031.73V87.712ZM1013.81 87.712L1017.53 86.2472L1009.73 66.4072L1006 67.872L1002.28 69.3368L1010.09 89.1768L1013.81 87.712ZM1006 67.872V63.872H975.668V67.872V71.872H1006V67.872ZM975.668 67.872L971.938 66.428L964.258 86.268L967.988 87.712L971.718 89.156L979.398 69.316L975.668 67.872ZM967.988 87.712V83.712H949.94V87.712V91.712H967.988V87.712ZM978.228 54.56V58.56H1003.44V54.56V50.56H978.228V54.56ZM1003.44 54.56L1007.18 53.1318L994.508 19.9798L990.772 21.408L987.036 22.8362L999.708 55.9882L1003.44 54.56ZM990.772 21.408L987.031 19.9924L974.487 53.1444L978.228 54.56L981.969 55.9756L994.513 22.8236L990.772 21.408Z" fill="white" mask="url(#path-1-outside-1_910_86)"/>
</svg>
