<svg width="492" height="48" viewBox="0 0 492 48" fill="none" xmlns="http://www.w3.org/2000/svg">
<mask id="path-1-outside-1_910_88" maskUnits="userSpaceOnUse" x="-0.728638" y="-0.76001" width="493" height="49" fill="black">
<rect fill="white" x="-0.728638" y="-0.76001" width="493" height="49"/>
<path d="M3.99996 43.24V4.59999H11.02L29.32 30.34V4.59999H37.42V43.24H30.4L12.1 17.5V43.24H3.99996ZM44.2539 43.24V4.59999H52.3539V43.24H44.2539ZM59.1953 43.24V4.59999H66.2153L84.5153 30.34V4.59999H92.6153V43.24H85.5953L67.2953 17.5V43.24H59.1953ZM108.929 43.24V10.84H97.0492V4.59999H128.849V10.84H117.029V43.24H108.929ZM133.316 43.24V4.59999H161.036V10.9H141.416V20.8H158.816V27.04H141.416V37H161.036V43.24H133.316ZM166.656 43.24V4.59999H173.676L191.976 30.34V4.59999H200.076V43.24H193.056L174.756 17.5V43.24H166.656ZM206.91 43.24V4.59999H223.11C228.91 4.59999 233.27 6.09999 236.19 9.09999C239.15 12.06 240.63 17.06 240.63 24.1C240.63 30.74 239.17 35.6 236.25 38.68C233.37 41.72 228.99 43.24 223.11 43.24H206.91ZM215.01 37H221.97C224.25 37 226.17 36.66 227.73 35.98C229.29 35.26 230.45 33.98 231.21 32.14C232.01 30.26 232.41 27.58 232.41 24.1C232.41 20.62 232.05 17.96 231.33 16.12C230.61 14.28 229.49 13.02 227.97 12.34C226.45 11.66 224.45 11.32 221.97 11.32H215.01V37ZM263.865 43.84C251.345 43.84 245.085 37.26 245.085 24.1C245.085 17.02 246.665 11.9 249.825 8.73999C252.985 5.57999 257.665 3.99999 263.865 3.99999C270.065 3.99999 274.745 5.57999 277.905 8.73999C281.065 11.9 282.645 17.02 282.645 24.1C282.645 37.26 276.385 43.84 263.865 43.84ZM263.865 36.94C267.505 36.94 270.165 35.9 271.845 33.82C273.565 31.7 274.425 28.46 274.425 24.1C274.425 19.26 273.565 15.86 271.845 13.9C270.165 11.9 267.505 10.9 263.865 10.9C260.225 10.9 257.545 11.9 255.825 13.9C254.145 15.86 253.305 19.26 253.305 24.1C253.305 28.46 254.145 31.7 255.825 33.82C257.545 35.9 260.225 36.94 263.865 36.94ZM301.48 43.24V4.59999H309.58V20.98L324.46 4.59999H333.76L319.78 20.26L334.48 43.24H325.84L314.74 25.42L309.58 31V43.24H301.48ZM353.748 43.84C341.228 43.84 334.968 37.26 334.968 24.1C334.968 17.02 336.548 11.9 339.708 8.73999C342.868 5.57999 347.548 3.99999 353.748 3.99999C359.948 3.99999 364.628 5.57999 367.788 8.73999C370.948 11.9 372.528 17.02 372.528 24.1C372.528 37.26 366.268 43.84 353.748 43.84ZM353.748 36.94C357.388 36.94 360.048 35.9 361.728 33.82C363.448 31.7 364.308 28.46 364.308 24.1C364.308 19.26 363.448 15.86 361.728 13.9C360.048 11.9 357.388 10.9 353.748 10.9C350.108 10.9 347.428 11.9 345.708 13.9C344.028 15.86 343.188 19.26 343.188 24.1C343.188 28.46 344.028 31.7 345.708 33.82C347.428 35.9 350.108 36.94 353.748 36.94ZM378.18 43.24V4.59999H396.72C401.16 4.59999 404.42 5.77999 406.5 8.13999C408.58 10.46 409.62 13.6 409.62 17.56C409.62 20.16 408.94 22.4 407.58 24.28C406.26 26.16 404.38 27.52 401.94 28.36C402.58 28.88 403.08 29.44 403.44 30.04C403.84 30.64 404.24 31.44 404.64 32.44L409.32 43.24H400.92L396.36 32.86C395.96 31.98 395.52 31.36 395.04 31C394.56 30.64 393.76 30.46 392.64 30.46H386.28V43.24H378.18ZM386.28 23.74H394.62C396.74 23.74 398.4 23.28 399.6 22.36C400.8 21.4 401.4 19.8 401.4 17.56C401.4 15.4 400.88 13.82 399.84 12.82C398.8 11.82 397.22 11.32 395.1 11.32H386.28V23.74ZM415.269 43.24V4.59999H442.989V10.9H423.369V20.8H440.769V27.04H423.369V37H442.989V43.24H415.269ZM447.409 43.24L462.169 4.59999H471.049L485.749 43.24H477.349L473.689 33.94H459.469L455.869 43.24H447.409ZM460.669 27.7H472.489L466.549 12.16L460.669 27.7Z"/>
</mask>
<path d="M3.99996 43.24H-4.37498e-05V47.24H3.99996V43.24ZM3.99996 4.59999V0.599987H-4.37498e-05V4.59999H3.99996ZM11.02 4.59999L14.28 2.28223L13.084 0.599987H11.02V4.59999ZM29.32 30.34L26.0599 32.6577L33.32 42.8694V30.34H29.32ZM29.32 4.59999V0.599987H25.32V4.59999H29.32ZM37.42 4.59999H41.42V0.599987H37.42V4.59999ZM37.42 43.24V47.24H41.42V43.24H37.42ZM30.4 43.24L27.1399 45.5577L28.3359 47.24H30.4V43.24ZM12.1 17.5L15.36 15.1822L8.09996 4.97054V17.5H12.1ZM12.1 43.24V47.24H16.1V43.24H12.1ZM3.99996 43.24H7.99996V4.59999H3.99996H-4.37498e-05V43.24H3.99996ZM3.99996 4.59999V8.59999H11.02V4.59999V0.599987H3.99996V4.59999ZM11.02 4.59999L7.7599 6.91775L26.0599 32.6577L29.32 30.34L32.58 28.0222L14.28 2.28223L11.02 4.59999ZM29.32 30.34H33.32V4.59999H29.32H25.32V30.34H29.32ZM29.32 4.59999V8.59999H37.42V4.59999V0.599987H29.32V4.59999ZM37.42 4.59999H33.42V43.24H37.42H41.42V4.59999H37.42ZM37.42 43.24V39.24H30.4V43.24V47.24H37.42V43.24ZM30.4 43.24L33.66 40.9222L15.36 15.1822L12.1 17.5L8.8399 19.8177L27.1399 45.5577L30.4 43.24ZM12.1 17.5H8.09996V43.24H12.1H16.1V17.5H12.1ZM12.1 43.24V39.24H3.99996V43.24V47.24H12.1V43.24ZM44.2539 43.24H40.2539V47.24H44.2539V43.24ZM44.2539 4.59999V0.599987H40.2539V4.59999H44.2539ZM52.3539 4.59999H56.3539V0.599987H52.3539V4.59999ZM52.3539 43.24V47.24H56.3539V43.24H52.3539ZM44.2539 43.24H48.2539V4.59999H44.2539H40.2539V43.24H44.2539ZM44.2539 4.59999V8.59999H52.3539V4.59999V0.599987H44.2539V4.59999ZM52.3539 4.59999H48.3539V43.24H52.3539H56.3539V4.59999H52.3539ZM52.3539 43.24V39.24H44.2539V43.24V47.24H52.3539V43.24ZM59.1953 43.24H55.1953V47.24H59.1953V43.24ZM59.1953 4.59999V0.599987H55.1953V4.59999H59.1953ZM66.2153 4.59999L69.4753 2.28223L68.2793 0.599987H66.2153V4.59999ZM84.5153 30.34L81.2552 32.6577L88.5153 42.8694V30.34H84.5153ZM84.5153 4.59999V0.599987H80.5153V4.59999H84.5153ZM92.6153 4.59999H96.6153V0.599987H92.6153V4.59999ZM92.6153 43.24V47.24H96.6153V43.24H92.6153ZM85.5953 43.24L82.3352 45.5577L83.5312 47.24H85.5953V43.24ZM67.2953 17.5L70.5553 15.1822L63.2953 4.97054V17.5H67.2953ZM67.2953 43.24V47.24H71.2953V43.24H67.2953ZM59.1953 43.24H63.1953V4.59999H59.1953H55.1953V43.24H59.1953ZM59.1953 4.59999V8.59999H66.2153V4.59999V0.599987H59.1953V4.59999ZM66.2153 4.59999L62.9552 6.91775L81.2552 32.6577L84.5153 30.34L87.7753 28.0222L69.4753 2.28223L66.2153 4.59999ZM84.5153 30.34H88.5153V4.59999H84.5153H80.5153V30.34H84.5153ZM84.5153 4.59999V8.59999H92.6153V4.59999V0.599987H84.5153V4.59999ZM92.6153 4.59999H88.6153V43.24H92.6153H96.6153V4.59999H92.6153ZM92.6153 43.24V39.24H85.5953V43.24V47.24H92.6153V43.24ZM85.5953 43.24L88.8553 40.9222L70.5553 15.1822L67.2953 17.5L64.0352 19.8177L82.3352 45.5577L85.5953 43.24ZM67.2953 17.5H63.2953V43.24H67.2953H71.2953V17.5H67.2953ZM67.2953 43.24V39.24H59.1953V43.24V47.24H67.2953V43.24ZM108.929 43.24H104.929V47.24H108.929V43.24ZM108.929 10.84H112.929V6.83999H108.929V10.84ZM97.0492 10.84H93.0492V14.84H97.0492V10.84ZM97.0492 4.59999V0.599987H93.0492V4.59999H97.0492ZM128.849 4.59999H132.849V0.599987H128.849V4.59999ZM128.849 10.84V14.84H132.849V10.84H128.849ZM117.029 10.84V6.83999H113.029V10.84H117.029ZM117.029 43.24V47.24H121.029V43.24H117.029ZM108.929 43.24H112.929V10.84H108.929H104.929V43.24H108.929ZM108.929 10.84V6.83999H97.0492V10.84V14.84H108.929V10.84ZM97.0492 10.84H101.049V4.59999H97.0492H93.0492V10.84H97.0492ZM97.0492 4.59999V8.59999H128.849V4.59999V0.599987H97.0492V4.59999ZM128.849 4.59999H124.849V10.84H128.849H132.849V4.59999H128.849ZM128.849 10.84V6.83999H117.029V10.84V14.84H128.849V10.84ZM117.029 10.84H113.029V43.24H117.029H121.029V10.84H117.029ZM117.029 43.24V39.24H108.929V43.24V47.24H117.029V43.24ZM133.316 43.24H129.316V47.24H133.316V43.24ZM133.316 4.59999V0.599987H129.316V4.59999H133.316ZM161.036 4.59999H165.036V0.599987H161.036V4.59999ZM161.036 10.9V14.9H165.036V10.9H161.036ZM141.416 10.9V6.89999H137.416V10.9H141.416ZM141.416 20.8H137.416V24.8H141.416V20.8ZM158.816 20.8H162.816V16.8H158.816V20.8ZM158.816 27.04V31.04H162.816V27.04H158.816ZM141.416 27.04V23.04H137.416V27.04H141.416ZM141.416 37H137.416V41H141.416V37ZM161.036 37H165.036V33H161.036V37ZM161.036 43.24V47.24H165.036V43.24H161.036ZM133.316 43.24H137.316V4.59999H133.316H129.316V43.24H133.316ZM133.316 4.59999V8.59999H161.036V4.59999V0.599987H133.316V4.59999ZM161.036 4.59999H157.036V10.9H161.036H165.036V4.59999H161.036ZM161.036 10.9V6.89999H141.416V10.9V14.9H161.036V10.9ZM141.416 10.9H137.416V20.8H141.416H145.416V10.9H141.416ZM141.416 20.8V24.8H158.816V20.8V16.8H141.416V20.8ZM158.816 20.8H154.816V27.04H158.816H162.816V20.8H158.816ZM158.816 27.04V23.04H141.416V27.04V31.04H158.816V27.04ZM141.416 27.04H137.416V37H141.416H145.416V27.04H141.416ZM141.416 37V41H161.036V37V33H141.416V37ZM161.036 37H157.036V43.24H161.036H165.036V37H161.036ZM161.036 43.24V39.24H133.316V43.24V47.24H161.036V43.24ZM166.656 43.24H162.656V47.24H166.656V43.24ZM166.656 4.59999V0.599987H162.656V4.59999H166.656ZM173.676 4.59999L176.936 2.28223L175.74 0.599987H173.676V4.59999ZM191.976 30.34L188.716 32.6577L195.976 42.8694V30.34H191.976ZM191.976 4.59999V0.599987H187.976V4.59999H191.976ZM200.076 4.59999H204.076V0.599987H200.076V4.59999ZM200.076 43.24V47.24H204.076V43.24H200.076ZM193.056 43.24L189.796 45.5577L190.992 47.24H193.056V43.24ZM174.756 17.5L178.016 15.1822L170.756 4.97054V17.5H174.756ZM174.756 43.24V47.24H178.756V43.24H174.756ZM166.656 43.24H170.656V4.59999H166.656H162.656V43.24H166.656ZM166.656 4.59999V8.59999H173.676V4.59999V0.599987H166.656V4.59999ZM173.676 4.59999L170.416 6.91775L188.716 32.6577L191.976 30.34L195.236 28.0222L176.936 2.28223L173.676 4.59999ZM191.976 30.34H195.976V4.59999H191.976H187.976V30.34H191.976ZM191.976 4.59999V8.59999H200.076V4.59999V0.599987H191.976V4.59999ZM200.076 4.59999H196.076V43.24H200.076H204.076V4.59999H200.076ZM200.076 43.24V39.24H193.056V43.24V47.24H200.076V43.24ZM193.056 43.24L196.316 40.9222L178.016 15.1822L174.756 17.5L171.496 19.8177L189.796 45.5577L193.056 43.24ZM174.756 17.5H170.756V43.24H174.756H178.756V17.5H174.756ZM174.756 43.24V39.24H166.656V43.24V47.24H174.756V43.24ZM206.91 43.24H202.91V47.24H206.91V43.24ZM206.91 4.59999V0.599987H202.91V4.59999H206.91ZM236.19 9.09999L233.324 11.8899L233.343 11.9093L233.362 11.9284L236.19 9.09999ZM236.25 38.68L233.347 35.928L233.346 35.929L236.25 38.68ZM215.01 37H211.01V41H215.01V37ZM227.73 35.98L229.328 39.6468L229.368 39.6297L229.406 39.6118L227.73 35.98ZM231.21 32.14L227.529 30.5738L227.521 30.5933L227.513 30.6129L231.21 32.14ZM227.97 12.34L229.604 8.68872V8.68871L227.97 12.34ZM215.01 11.32V7.31999H211.01V11.32H215.01ZM206.91 43.24H210.91V4.59999H206.91H202.91V43.24H206.91ZM206.91 4.59999V8.59999H223.11V4.59999V0.599987H206.91V4.59999ZM223.11 4.59999V8.59999C228.256 8.59999 231.409 9.92311 233.324 11.8899L236.19 9.09999L239.057 6.31004C235.131 2.27687 229.564 0.599987 223.11 0.599987V4.59999ZM236.19 9.09999L233.362 11.9284C235.198 13.765 236.63 17.4397 236.63 24.1H240.63H244.63C244.63 16.6803 243.102 10.355 239.019 6.27156L236.19 9.09999ZM240.63 24.1H236.63C236.63 30.2731 235.255 33.9153 233.347 35.928L236.25 38.68L239.153 41.432C243.085 37.2847 244.63 31.2069 244.63 24.1H240.63ZM236.25 38.68L233.346 35.929C231.485 37.8932 228.346 39.24 223.11 39.24V43.24V47.24C229.635 47.24 235.255 45.5468 239.154 41.431L236.25 38.68ZM223.11 43.24V39.24H206.91V43.24V47.24H223.11V43.24ZM215.01 37V41H221.97V37V33H215.01V37ZM221.97 37V41C224.623 41 227.124 40.6077 229.328 39.6468L227.73 35.98L226.132 32.3132C225.216 32.7123 223.877 33 221.97 33V37ZM227.73 35.98L229.406 39.6118C232.025 38.4032 233.828 36.2801 234.907 33.667L231.21 32.14L227.513 30.6129C227.072 31.6799 226.555 32.1168 226.054 32.3482L227.73 35.98ZM231.21 32.14L234.891 33.7062C236 31.1001 236.41 27.7924 236.41 24.1H232.41H228.41C228.41 27.3676 228.021 29.4199 227.529 30.5738L231.21 32.14ZM232.41 24.1H236.41C236.41 20.442 236.045 17.1933 235.055 14.6624L231.33 16.12L227.605 17.5776C228.055 18.7267 228.41 20.798 228.41 24.1H232.41ZM231.33 16.12L235.055 14.6624C234.029 12.0405 232.257 9.87592 229.604 8.68872L227.97 12.34L226.337 15.9913C226.723 16.1641 227.191 16.5195 227.605 17.5776L231.33 16.12ZM227.97 12.34L229.604 8.68871C227.381 7.69462 224.762 7.31999 221.97 7.31999V11.32V15.32C224.138 15.32 225.519 15.6254 226.337 15.9913L227.97 12.34ZM221.97 11.32V7.31999H215.01V11.32V15.32H221.97V11.32ZM215.01 11.32H211.01V37H215.01H219.01V11.32H215.01ZM249.825 8.73999L246.997 5.91156V5.91156L249.825 8.73999ZM277.905 8.73999L280.734 5.91156V5.91156L277.905 8.73999ZM271.845 33.82L268.739 31.2998L268.733 31.3066L271.845 33.82ZM271.845 13.9L268.782 16.4728L268.81 16.5059L268.839 16.5383L271.845 13.9ZM255.825 13.9L252.792 11.2918L252.788 11.2968L255.825 13.9ZM255.825 33.82L252.69 36.3043L252.716 36.337L252.743 36.369L255.825 33.82ZM263.865 43.84V39.84C258.274 39.84 254.802 38.3807 252.678 36.1479C250.518 33.8778 249.085 30.1118 249.085 24.1H245.085H241.085C241.085 31.2482 242.782 37.3522 246.882 41.6621C251.018 46.0093 256.936 47.84 263.865 47.84V43.84ZM245.085 24.1H249.085C249.085 17.4819 250.581 13.6406 252.654 11.5684L249.825 8.73999L246.997 5.91156C242.749 10.1594 241.085 16.5581 241.085 24.1H245.085ZM249.825 8.73999L252.654 11.5684C254.812 9.4101 258.307 7.99999 263.865 7.99999V3.99999V-1.14441e-05C257.023 -1.14441e-05 251.158 1.74987 246.997 5.91156L249.825 8.73999ZM263.865 3.99999V7.99999C269.423 7.99999 272.918 9.4101 275.077 11.5684L277.905 8.73999L280.734 5.91156C276.572 1.74987 270.708 -1.14441e-05 263.865 -1.14441e-05V3.99999ZM277.905 8.73999L275.077 11.5684C277.149 13.6406 278.645 17.4819 278.645 24.1H282.645H286.645C286.645 16.5581 284.981 10.1594 280.734 5.91156L277.905 8.73999ZM282.645 24.1H278.645C278.645 30.1118 277.212 33.8778 275.052 36.1479C272.928 38.3807 269.456 39.84 263.865 39.84V43.84V47.84C270.794 47.84 276.712 46.0093 280.848 41.6621C284.948 37.3522 286.645 31.2482 286.645 24.1H282.645ZM263.865 36.94V40.94C268.25 40.94 272.267 39.6632 274.957 36.3333L271.845 33.82L268.733 31.3066C268.063 32.1367 266.76 32.94 263.865 32.94V36.94ZM271.845 33.82L274.951 36.3402C277.506 33.1914 278.425 28.8651 278.425 24.1H274.425H270.425C270.425 28.0549 269.624 30.2086 268.739 31.2998L271.845 33.82ZM274.425 24.1H278.425C278.425 19.0238 277.571 14.36 274.852 11.2616L271.845 13.9L268.839 16.5383C269.56 17.36 270.425 19.4962 270.425 24.1H274.425ZM271.845 13.9L274.908 11.3272C272.203 8.10649 268.2 6.89999 263.865 6.89999V10.9V14.9C266.81 14.9 268.128 15.6935 268.782 16.4728L271.845 13.9ZM263.865 10.9V6.89999C259.523 6.89999 255.53 8.10908 252.792 11.2918L255.825 13.9L258.858 16.5081C259.561 15.6909 260.928 14.9 263.865 14.9V10.9ZM255.825 13.9L252.788 11.2968C250.135 14.3915 249.305 19.0378 249.305 24.1H253.305H257.305C257.305 19.4822 258.155 17.3284 258.862 16.5032L255.825 13.9ZM253.305 24.1H249.305C249.305 28.8491 250.198 33.1597 252.69 36.3043L255.825 33.82L258.96 31.3357C258.092 30.2403 257.305 28.0708 257.305 24.1H253.305ZM255.825 33.82L252.743 36.369C255.465 39.6611 259.474 40.94 263.865 40.94V36.94V32.94C260.976 32.94 259.625 32.1388 258.908 31.2709L255.825 33.82ZM301.48 43.24H297.48V47.24H301.48V43.24ZM301.48 4.59999V0.599987H297.48V4.59999H301.48ZM309.58 4.59999H313.58V0.599987H309.58V4.59999ZM309.58 20.98H305.58V31.332L312.541 23.6696L309.58 20.98ZM324.46 4.59999V0.599987H322.69L321.5 1.91038L324.46 4.59999ZM333.76 4.59999L336.744 7.26382L342.693 0.599987H333.76V4.59999ZM319.78 20.26L316.796 17.5962L314.776 19.8596L316.411 22.4155L319.78 20.26ZM334.48 43.24V47.24H341.788L337.85 41.0845L334.48 43.24ZM325.84 43.24L322.445 45.3548L323.619 47.24H325.84V43.24ZM314.74 25.42L318.136 23.3051L315.363 18.8547L311.804 22.7042L314.74 25.42ZM309.58 31L306.644 28.2842L305.58 29.434V31H309.58ZM309.58 43.24V47.24H313.58V43.24H309.58ZM301.48 43.24H305.48V4.59999H301.48H297.48V43.24H301.48ZM301.48 4.59999V8.59999H309.58V4.59999V0.599987H301.48V4.59999ZM309.58 4.59999H305.58V20.98H309.58H313.58V4.59999H309.58ZM309.58 20.98L312.541 23.6696L327.421 7.2896L324.46 4.59999L321.5 1.91038L306.62 18.2904L309.58 20.98ZM324.46 4.59999V8.59999H333.76V4.59999V0.599987H324.46V4.59999ZM333.76 4.59999L330.776 1.93615L316.796 17.5962L319.78 20.26L322.764 22.9238L336.744 7.26382L333.76 4.59999ZM319.78 20.26L316.411 22.4155L331.111 45.3955L334.48 43.24L337.85 41.0845L323.15 18.1045L319.78 20.26ZM334.48 43.24V39.24H325.84V43.24V47.24H334.48V43.24ZM325.84 43.24L329.236 41.1251L318.136 23.3051L314.74 25.42L311.345 27.5348L322.445 45.3548L325.84 43.24ZM314.74 25.42L311.804 22.7042L306.644 28.2842L309.58 31L312.517 33.7157L317.677 28.1357L314.74 25.42ZM309.58 31H305.58V43.24H309.58H313.58V31H309.58ZM309.58 43.24V39.24H301.48V43.24V47.24H309.58V43.24ZM339.708 8.73999L336.879 5.91156V5.91156L339.708 8.73999ZM367.788 8.73999L370.616 5.91156V5.91156L367.788 8.73999ZM361.728 33.82L358.622 31.2998L358.616 31.3066L361.728 33.82ZM361.728 13.9L358.665 16.4728L358.693 16.5059L358.721 16.5383L361.728 13.9ZM345.708 13.9L342.675 11.2918L342.671 11.2968L345.708 13.9ZM345.708 33.82L342.573 36.3043L342.599 36.337L342.625 36.369L345.708 33.82ZM353.748 43.84V39.84C348.157 39.84 344.685 38.3807 342.561 36.1479C340.401 33.8778 338.968 30.1118 338.968 24.1H334.968H330.968C330.968 31.2482 332.665 37.3522 336.765 41.6621C340.901 46.0093 346.819 47.84 353.748 47.84V43.84ZM334.968 24.1H338.968C338.968 17.4819 340.464 13.6406 342.536 11.5684L339.708 8.73999L336.879 5.91156C332.632 10.1594 330.968 16.5581 330.968 24.1H334.968ZM339.708 8.73999L342.536 11.5684C344.695 9.4101 348.19 7.99999 353.748 7.99999V3.99999V-1.14441e-05C346.906 -1.14441e-05 341.041 1.74987 336.879 5.91156L339.708 8.73999ZM353.748 3.99999V7.99999C359.306 7.99999 362.801 9.4101 364.96 11.5684L367.788 8.73999L370.616 5.91156C366.455 1.74987 360.59 -1.14441e-05 353.748 -1.14441e-05V3.99999ZM367.788 8.73999L364.96 11.5684C367.032 13.6406 368.528 17.4819 368.528 24.1H372.528H376.528C376.528 16.5581 374.864 10.1594 370.616 5.91156L367.788 8.73999ZM372.528 24.1H368.528C368.528 30.1118 367.095 33.8778 364.935 36.1479C362.811 38.3807 359.339 39.84 353.748 39.84V43.84V47.84C360.677 47.84 366.595 46.0093 370.731 41.6621C374.831 37.3522 376.528 31.2482 376.528 24.1H372.528ZM353.748 36.94V40.94C358.133 40.94 362.15 39.6632 364.84 36.3333L361.728 33.82L358.616 31.3066C357.946 32.1367 356.643 32.94 353.748 32.94V36.94ZM361.728 33.82L364.834 36.3402C367.389 33.1914 368.308 28.8651 368.308 24.1H364.308H360.308C360.308 28.0549 359.507 30.2086 358.622 31.2998L361.728 33.82ZM364.308 24.1H368.308C368.308 19.0238 367.453 14.36 364.734 11.2616L361.728 13.9L358.721 16.5383C359.442 17.36 360.308 19.4962 360.308 24.1H364.308ZM361.728 13.9L364.791 11.3272C362.085 8.10649 358.083 6.89999 353.748 6.89999V10.9V14.9C356.693 14.9 358.011 15.6935 358.665 16.4728L361.728 13.9ZM353.748 10.9V6.89999C349.405 6.89999 345.412 8.10908 342.675 11.2918L345.708 13.9L348.741 16.5081C349.444 15.6909 350.81 14.9 353.748 14.9V10.9ZM345.708 13.9L342.671 11.2968C340.018 14.3915 339.188 19.0378 339.188 24.1H343.188H347.188C347.188 19.4822 348.038 17.3284 348.745 16.5032L345.708 13.9ZM343.188 24.1H339.188C339.188 28.8491 340.081 33.1597 342.573 36.3043L345.708 33.82L348.843 31.3357C347.975 30.2403 347.188 28.0708 347.188 24.1H343.188ZM345.708 33.82L342.625 36.369C345.348 39.6611 349.357 40.94 353.748 40.94V36.94V32.94C350.859 32.94 349.508 32.1388 348.79 31.2709L345.708 33.82ZM378.18 43.24H374.18V47.24H378.18V43.24ZM378.18 4.59999V0.599987H374.18V4.59999H378.18ZM406.5 8.13999L403.499 10.7848L403.51 10.7975L403.521 10.8102L406.5 8.13999ZM407.58 24.28L404.339 21.9355L404.322 21.9584L404.306 21.9815L407.58 24.28ZM401.94 28.36L400.638 24.5778L393.827 26.9224L399.417 31.4644L401.94 28.36ZM403.44 30.04L400.01 32.098L400.059 32.1796L400.111 32.2588L403.44 30.04ZM404.64 32.44L400.926 33.9256L400.947 33.9783L400.969 34.0304L404.64 32.44ZM409.32 43.24V47.24H415.412L412.99 41.6496L409.32 43.24ZM400.92 43.24L397.257 44.8488L398.308 47.24H400.92V43.24ZM396.36 32.86L400.022 31.2512L400.012 31.2279L400.001 31.2048L396.36 32.86ZM395.04 31L397.44 27.8V27.8L395.04 31ZM386.28 30.46V26.46H382.28V30.46H386.28ZM386.28 43.24V47.24H390.28V43.24H386.28ZM386.28 23.74H382.28V27.74H386.28V23.74ZM399.6 22.36L402.033 25.5344L402.066 25.5093L402.098 25.4835L399.6 22.36ZM399.84 12.82L402.612 9.93666V9.93666L399.84 12.82ZM386.28 11.32V7.31999H382.28V11.32H386.28ZM378.18 43.24H382.18V4.59999H378.18H374.18V43.24H378.18ZM378.18 4.59999V8.59999H396.72V4.59999V0.599987H378.18V4.59999ZM396.72 4.59999V8.59999C400.499 8.59999 402.45 9.59489 403.499 10.7848L406.5 8.13999L409.5 5.49518C406.389 1.96508 401.82 0.599987 396.72 0.599987V4.59999ZM406.5 8.13999L403.521 10.8102C404.78 12.214 405.62 14.3096 405.62 17.56H409.62H413.62C413.62 12.8904 412.379 8.70593 409.478 5.46981L406.5 8.13999ZM409.62 17.56H405.62C405.62 19.4242 405.147 20.8188 404.339 21.9355L407.58 24.28L410.821 26.6245C412.733 23.9811 413.62 20.8958 413.62 17.56H409.62ZM407.58 24.28L404.306 21.9815C403.529 23.0876 402.383 23.9769 400.638 24.5778L401.94 28.36L403.242 32.1421C406.376 31.0631 408.99 29.2324 410.853 26.5785L407.58 24.28ZM401.94 28.36L399.417 31.4644C399.759 31.7423 399.928 31.9611 400.01 32.098L403.44 30.04L406.87 27.982C406.232 26.9189 405.4 26.0177 404.462 25.2555L401.94 28.36ZM403.44 30.04L400.111 32.2588C400.303 32.5456 400.583 33.0699 400.926 33.9256L404.64 32.44L408.354 30.9544C407.896 29.8101 407.377 28.7344 406.768 27.8212L403.44 30.04ZM404.64 32.44L400.969 34.0304L405.649 44.8304L409.32 43.24L412.99 41.6496L408.31 30.8496L404.64 32.44ZM409.32 43.24V39.24H400.92V43.24V47.24H409.32V43.24ZM400.92 43.24L404.582 41.6312L400.022 31.2512L396.36 32.86L392.697 34.4688L397.257 44.8488L400.92 43.24ZM396.36 32.86L400.001 31.2048C399.475 30.0482 398.689 28.7369 397.44 27.8L395.04 31L392.64 34.2C392.473 34.0753 392.426 33.992 392.468 34.05C392.507 34.1057 392.597 34.2477 392.718 34.5152L396.36 32.86ZM395.04 31L397.44 27.8C395.884 26.6335 393.976 26.46 392.64 26.46V30.46V34.46C392.814 34.46 392.948 34.4671 393.046 34.4763C393.145 34.4855 393.194 34.4957 393.202 34.4974C393.21 34.4994 393.158 34.4887 393.065 34.4492C392.97 34.4094 392.818 34.3335 392.64 34.2L395.04 31ZM392.64 30.46V26.46H386.28V30.46V34.46H392.64V30.46ZM386.28 30.46H382.28V43.24H386.28H390.28V30.46H386.28ZM386.28 43.24V39.24H378.18V43.24V47.24H386.28V43.24ZM386.28 23.74V27.74H394.62V23.74V19.74H386.28V23.74ZM394.62 23.74V27.74C397.274 27.74 399.903 27.1678 402.033 25.5344L399.6 22.36L397.166 19.1856C396.896 19.3922 396.206 19.74 394.62 19.74V23.74ZM399.6 22.36L402.098 25.4835C404.621 23.4655 405.4 20.4386 405.4 17.56H401.4H397.4C397.4 18.3414 397.293 18.8 397.204 19.0355C397.163 19.1468 397.128 19.2009 397.115 19.2193C397.108 19.2291 397.104 19.2334 397.103 19.2342C397.103 19.235 397.102 19.2355 397.101 19.2365L399.6 22.36ZM401.4 17.56H405.4C405.4 14.8501 404.754 11.9964 402.612 9.93666L399.84 12.82L397.067 15.7033C397.067 15.7034 397.068 15.7039 397.069 15.705C397.07 15.706 397.071 15.7079 397.074 15.7109C397.078 15.7167 397.087 15.7285 397.099 15.7484C397.123 15.7879 397.165 15.8677 397.21 16.0055C397.304 16.292 397.4 16.785 397.4 17.56H401.4ZM399.84 12.82L402.612 9.93666C400.541 7.94483 397.773 7.31999 395.1 7.31999V11.32V15.32C396.667 15.32 397.059 15.6951 397.067 15.7033L399.84 12.82ZM395.1 11.32V7.31999H386.28V11.32V15.32H395.1V11.32ZM386.28 11.32H382.28V23.74H386.28H390.28V11.32H386.28ZM415.27 43.24H411.27V47.24H415.27V43.24ZM415.27 4.59999V0.599987H411.27V4.59999H415.27ZM442.99 4.59999H446.99V0.599987H442.99V4.59999ZM442.99 10.9V14.9H446.99V10.9H442.99ZM423.369 10.9V6.89999H419.369V10.9H423.369ZM423.369 20.8H419.369V24.8H423.369V20.8ZM440.77 20.8H444.77V16.8H440.77V20.8ZM440.77 27.04V31.04H444.77V27.04H440.77ZM423.369 27.04V23.04H419.369V27.04H423.369ZM423.369 37H419.369V41H423.369V37ZM442.99 37H446.99V33H442.99V37ZM442.99 43.24V47.24H446.99V43.24H442.99ZM415.27 43.24H419.27V4.59999H415.27H411.27V43.24H415.27ZM415.27 4.59999V8.59999H442.99V4.59999V0.599987H415.27V4.59999ZM442.99 4.59999H438.99V10.9H442.99H446.99V4.59999H442.99ZM442.99 10.9V6.89999H423.369V10.9V14.9H442.99V10.9ZM423.369 10.9H419.369V20.8H423.369H427.369V10.9H423.369ZM423.369 20.8V24.8H440.77V20.8V16.8H423.369V20.8ZM440.77 20.8H436.77V27.04H440.77H444.77V20.8H440.77ZM440.77 27.04V23.04H423.369V27.04V31.04H440.77V27.04ZM423.369 27.04H419.369V37H423.369H427.369V27.04H423.369ZM423.369 37V41H442.99V37V33H423.369V37ZM442.99 37H438.99V43.24H442.99H446.99V37H442.99ZM442.99 43.24V39.24H415.27V43.24V47.24H442.99V43.24ZM447.409 43.24L443.673 41.8126L441.599 47.24H447.409V43.24ZM462.169 4.59999V0.599987H459.415L458.433 3.17263L462.169 4.59999ZM471.049 4.59999L474.788 3.1777L473.807 0.599987H471.049V4.59999ZM485.749 43.24V47.24H491.551L489.488 41.8177L485.749 43.24ZM477.349 43.24L473.627 44.7048L474.625 47.24H477.349V43.24ZM473.689 33.94L477.411 32.4752L476.414 29.94H473.689V33.94ZM459.469 33.94V29.94H456.728L455.739 32.496L459.469 33.94ZM455.869 43.24V47.24H458.61L459.6 44.684L455.869 43.24ZM460.669 27.7L456.928 26.2844L454.879 31.7H460.669V27.7ZM472.489 27.7V31.7H478.301L476.226 26.2718L472.489 27.7ZM466.549 12.16L470.286 10.7318L466.53 0.907269L462.808 10.7444L466.549 12.16ZM447.409 43.24L451.146 44.6674L465.906 6.02735L462.169 4.59999L458.433 3.17263L443.673 41.8126L447.409 43.24ZM462.169 4.59999V8.59999H471.049V4.59999V0.599987H462.169V4.59999ZM471.049 4.59999L467.311 6.02228L482.011 44.6623L485.749 43.24L489.488 41.8177L474.788 3.1777L471.049 4.59999ZM485.749 43.24V39.24H477.349V43.24V47.24H485.749V43.24ZM477.349 43.24L481.071 41.7752L477.411 32.4752L473.689 33.94L469.967 35.4048L473.627 44.7048L477.349 43.24ZM473.689 33.94V29.94H459.469V33.94V37.94H473.689V33.94ZM459.469 33.94L455.739 32.496L452.139 41.796L455.869 43.24L459.6 44.684L463.2 35.384L459.469 33.94ZM455.869 43.24V39.24H447.409V43.24V47.24H455.869V43.24ZM460.669 27.7V31.7H472.489V27.7V23.7H460.669V27.7ZM472.489 27.7L476.226 26.2718L470.286 10.7318L466.549 12.16L462.813 13.5882L468.753 29.1282L472.489 27.7ZM466.549 12.16L462.808 10.7444L456.928 26.2844L460.669 27.7L464.41 29.1156L470.29 13.5756L466.549 12.16Z" fill="white" mask="url(#path-1-outside-1_910_88)"/>
</svg>
