<svg width="733" height="68" viewBox="0 0 733 68" fill="none" xmlns="http://www.w3.org/2000/svg">
<mask id="path-1-outside-1_910_87" maskUnits="userSpaceOnUse" x="-0.592896" y="-0.140015" width="734" height="68" fill="black">
<rect fill="white" x="-0.592896" y="-0.140015" width="734" height="68"/>
<path d="M4 62.86V4.89998H14.53L41.98 43.51V4.89998H54.13V62.86H43.6L16.15 24.25V62.86H4ZM64.3809 62.86V4.89998H76.5309V62.86H64.3809ZM86.793 62.86V4.89998H97.323L124.773 43.51V4.89998H136.923V62.86H126.393L98.943 24.25V62.86H86.793ZM161.394 62.86V14.26H143.574V4.89998H191.274V14.26H173.544V62.86H161.394ZM197.975 62.86V4.89998H239.555V14.35H210.125V29.2H236.225V38.56H210.125V53.5H239.555V62.86H197.975ZM247.984 62.86V4.89998H258.514L285.964 43.51V4.89998H298.114V62.86H287.584L260.134 24.25V62.86H247.984ZM308.365 62.86V4.89998H332.665C341.365 4.89998 347.905 7.14998 352.285 11.65C356.725 16.09 358.945 23.59 358.945 34.15C358.945 44.11 356.755 51.4 352.375 56.02C348.055 60.58 341.485 62.86 332.665 62.86H308.365ZM320.515 53.5H330.955C334.375 53.5 337.255 52.99 339.595 51.97C341.935 50.89 343.675 48.97 344.815 46.21C346.015 43.39 346.615 39.37 346.615 34.15C346.615 28.93 346.075 24.94 344.995 22.18C343.915 19.42 342.235 17.53 339.955 16.51C337.675 15.49 334.675 14.98 330.955 14.98H320.515V53.5ZM393.798 63.76C375.018 63.76 365.628 53.89 365.628 34.15C365.628 23.53 367.998 15.85 372.738 11.11C377.478 6.36998 384.498 3.99998 393.798 3.99998C403.098 3.99998 410.118 6.36998 414.858 11.11C419.598 15.85 421.968 23.53 421.968 34.15C421.968 53.89 412.578 63.76 393.798 63.76ZM393.798 53.41C399.258 53.41 403.248 51.85 405.768 48.73C408.348 45.55 409.638 40.69 409.638 34.15C409.638 26.89 408.348 21.79 405.768 18.85C403.248 15.85 399.258 14.35 393.798 14.35C388.338 14.35 384.318 15.85 381.738 18.85C379.218 21.79 377.958 26.89 377.958 34.15C377.958 40.69 379.218 45.55 381.738 48.73C384.318 51.85 388.338 53.41 393.798 53.41ZM450.221 62.86V4.89998H462.371V29.47L484.691 4.89998H498.641L477.671 28.39L499.721 62.86H486.761L470.111 36.13L462.371 44.5V62.86H450.221ZM528.622 63.76C509.842 63.76 500.452 53.89 500.452 34.15C500.452 23.53 502.822 15.85 507.562 11.11C512.302 6.36998 519.322 3.99998 528.622 3.99998C537.922 3.99998 544.942 6.36998 549.682 11.11C554.422 15.85 556.792 23.53 556.792 34.15C556.792 53.89 547.402 63.76 528.622 63.76ZM528.622 53.41C534.082 53.41 538.072 51.85 540.592 48.73C543.172 45.55 544.462 40.69 544.462 34.15C544.462 26.89 543.172 21.79 540.592 18.85C538.072 15.85 534.082 14.35 528.622 14.35C523.162 14.35 519.142 15.85 516.562 18.85C514.042 21.79 512.782 26.89 512.782 34.15C512.782 40.69 514.042 45.55 516.562 48.73C519.142 51.85 523.162 53.41 528.622 53.41ZM565.27 62.86V4.89998H593.08C599.74 4.89998 604.63 6.66998 607.75 10.21C610.87 13.69 612.43 18.4 612.43 24.34C612.43 28.24 611.41 31.6 609.37 34.42C607.39 37.24 604.57 39.28 600.91 40.54C601.87 41.32 602.62 42.16 603.16 43.06C603.76 43.96 604.36 45.16 604.96 46.66L611.98 62.86H599.38L592.54 47.29C591.94 45.97 591.28 45.04 590.56 44.5C589.84 43.96 588.64 43.69 586.96 43.69H577.42V62.86H565.27ZM577.42 33.61H589.93C593.11 33.61 595.6 32.92 597.4 31.54C599.2 30.1 600.1 27.7 600.1 24.34C600.1 21.1 599.32 18.73 597.76 17.23C596.2 15.73 593.83 14.98 590.65 14.98H577.42V33.61ZM620.904 62.86V4.89998H662.484V14.35H633.054V29.2H659.154V38.56H633.054V53.5H662.484V62.86H620.904ZM669.114 62.86L691.254 4.89998H704.574L726.624 62.86H714.024L708.534 48.91H687.204L681.804 62.86H669.114ZM689.004 39.55H706.734L697.824 16.24L689.004 39.55Z"/>
</mask>
<path d="M4 62.86H-4.52995e-06V66.86H4V62.86ZM4 4.89998V0.899979H-4.52995e-06V4.89998H4ZM14.53 4.89998L17.7901 2.58222L16.5941 0.899979H14.53V4.89998ZM41.98 43.51L38.7199 45.8277L45.98 56.0394V43.51H41.98ZM41.98 4.89998V0.899979H37.98V4.89998H41.98ZM54.13 4.89998H58.13V0.899979H54.13V4.89998ZM54.13 62.86V66.86H58.13V62.86H54.13ZM43.6 62.86L40.3399 65.1777L41.5359 66.86H43.6V62.86ZM16.15 24.25L19.4101 21.9322L12.15 11.7205V24.25H16.15ZM16.15 62.86V66.86H20.15V62.86H16.15ZM4 62.86H8V4.89998H4H-4.52995e-06V62.86H4ZM4 4.89998V8.89998H14.53V4.89998V0.899979H4V4.89998ZM14.53 4.89998L11.2699 7.21774L38.7199 45.8277L41.98 43.51L45.2401 41.1922L17.7901 2.58222L14.53 4.89998ZM41.98 43.51H45.98V4.89998H41.98H37.98V43.51H41.98ZM41.98 4.89998V8.89998H54.13V4.89998V0.899979H41.98V4.89998ZM54.13 4.89998H50.13V62.86H54.13H58.13V4.89998H54.13ZM54.13 62.86V58.86H43.6V62.86V66.86H54.13V62.86ZM43.6 62.86L46.8601 60.5422L19.4101 21.9322L16.15 24.25L12.8899 26.5677L40.3399 65.1777L43.6 62.86ZM16.15 24.25H12.15V62.86H16.15H20.15V24.25H16.15ZM16.15 62.86V58.86H4V62.86V66.86H16.15V62.86ZM64.3809 62.86H60.3809V66.86H64.3809V62.86ZM64.3809 4.89998V0.899979H60.3809V4.89998H64.3809ZM76.5309 4.89998H80.5309V0.899979H76.5309V4.89998ZM76.5309 62.86V66.86H80.5309V62.86H76.5309ZM64.3809 62.86H68.3809V4.89998H64.3809H60.3809V62.86H64.3809ZM64.3809 4.89998V8.89998H76.5309V4.89998V0.899979H64.3809V4.89998ZM76.5309 4.89998H72.5309V62.86H76.5309H80.5309V4.89998H76.5309ZM76.5309 62.86V58.86H64.3809V62.86V66.86H76.5309V62.86ZM86.793 62.86H82.793V66.86H86.793V62.86ZM86.793 4.89998V0.899979H82.793V4.89998H86.793ZM97.323 4.89998L100.583 2.58222L99.387 0.899979H97.323V4.89998ZM124.773 43.51L121.513 45.8277L128.773 56.0394V43.51H124.773ZM124.773 4.89998V0.899979H120.773V4.89998H124.773ZM136.923 4.89998H140.923V0.899979H136.923V4.89998ZM136.923 62.86V66.86H140.923V62.86H136.923ZM126.393 62.86L123.133 65.1777L124.329 66.86H126.393V62.86ZM98.943 24.25L102.203 21.9322L94.943 11.7205V24.25H98.943ZM98.943 62.86V66.86H102.943V62.86H98.943ZM86.793 62.86H90.793V4.89998H86.793H82.793V62.86H86.793ZM86.793 4.89998V8.89998H97.323V4.89998V0.899979H86.793V4.89998ZM97.323 4.89998L94.0629 7.21774L121.513 45.8277L124.773 43.51L128.033 41.1922L100.583 2.58222L97.323 4.89998ZM124.773 43.51H128.773V4.89998H124.773H120.773V43.51H124.773ZM124.773 4.89998V8.89998H136.923V4.89998V0.899979H124.773V4.89998ZM136.923 4.89998H132.923V62.86H136.923H140.923V4.89998H136.923ZM136.923 62.86V58.86H126.393V62.86V66.86H136.923V62.86ZM126.393 62.86L129.653 60.5422L102.203 21.9322L98.943 24.25L95.6829 26.5677L123.133 65.1777L126.393 62.86ZM98.943 24.25H94.943V62.86H98.943H102.943V24.25H98.943ZM98.943 62.86V58.86H86.793V62.86V66.86H98.943V62.86ZM161.394 62.86H157.394V66.86H161.394V62.86ZM161.394 14.26H165.394V10.26H161.394V14.26ZM143.574 14.26H139.574V18.26H143.574V14.26ZM143.574 4.89998V0.899979H139.574V4.89998H143.574ZM191.274 4.89998H195.274V0.899979H191.274V4.89998ZM191.274 14.26V18.26H195.274V14.26H191.274ZM173.544 14.26V10.26H169.544V14.26H173.544ZM173.544 62.86V66.86H177.544V62.86H173.544ZM161.394 62.86H165.394V14.26H161.394H157.394V62.86H161.394ZM161.394 14.26V10.26H143.574V14.26V18.26H161.394V14.26ZM143.574 14.26H147.574V4.89998H143.574H139.574V14.26H143.574ZM143.574 4.89998V8.89998H191.274V4.89998V0.899979H143.574V4.89998ZM191.274 4.89998H187.274V14.26H191.274H195.274V4.89998H191.274ZM191.274 14.26V10.26H173.544V14.26V18.26H191.274V14.26ZM173.544 14.26H169.544V62.86H173.544H177.544V14.26H173.544ZM173.544 62.86V58.86H161.394V62.86V66.86H173.544V62.86ZM197.975 62.86H193.975V66.86H197.975V62.86ZM197.975 4.89998V0.899979H193.975V4.89998H197.975ZM239.555 4.89998H243.555V0.899979H239.555V4.89998ZM239.555 14.35V18.35H243.555V14.35H239.555ZM210.125 14.35V10.35H206.125V14.35H210.125ZM210.125 29.2H206.125V33.2H210.125V29.2ZM236.225 29.2H240.225V25.2H236.225V29.2ZM236.225 38.56V42.56H240.225V38.56H236.225ZM210.125 38.56V34.56H206.125V38.56H210.125ZM210.125 53.5H206.125V57.5H210.125V53.5ZM239.555 53.5H243.555V49.5H239.555V53.5ZM239.555 62.86V66.86H243.555V62.86H239.555ZM197.975 62.86H201.975V4.89998H197.975H193.975V62.86H197.975ZM197.975 4.89998V8.89998H239.555V4.89998V0.899979H197.975V4.89998ZM239.555 4.89998H235.555V14.35H239.555H243.555V4.89998H239.555ZM239.555 14.35V10.35H210.125V14.35V18.35H239.555V14.35ZM210.125 14.35H206.125V29.2H210.125H214.125V14.35H210.125ZM210.125 29.2V33.2H236.225V29.2V25.2H210.125V29.2ZM236.225 29.2H232.225V38.56H236.225H240.225V29.2H236.225ZM236.225 38.56V34.56H210.125V38.56V42.56H236.225V38.56ZM210.125 38.56H206.125V53.5H210.125H214.125V38.56H210.125ZM210.125 53.5V57.5H239.555V53.5V49.5H210.125V53.5ZM239.555 53.5H235.555V62.86H239.555H243.555V53.5H239.555ZM239.555 62.86V58.86H197.975V62.86V66.86H239.555V62.86ZM247.984 62.86H243.984V66.86H247.984V62.86ZM247.984 4.89998V0.899979H243.984V4.89998H247.984ZM258.514 4.89998L261.774 2.58222L260.578 0.899979H258.514V4.89998ZM285.964 43.51L282.704 45.8277L289.964 56.0394V43.51H285.964ZM285.964 4.89998V0.899979H281.964V4.89998H285.964ZM298.114 4.89998H302.114V0.899979H298.114V4.89998ZM298.114 62.86V66.86H302.114V62.86H298.114ZM287.584 62.86L284.324 65.1777L285.52 66.86H287.584V62.86ZM260.134 24.25L263.394 21.9322L256.134 11.7205V24.25H260.134ZM260.134 62.86V66.86H264.134V62.86H260.134ZM247.984 62.86H251.984V4.89998H247.984H243.984V62.86H247.984ZM247.984 4.89998V8.89998H258.514V4.89998V0.899979H247.984V4.89998ZM258.514 4.89998L255.254 7.21774L282.704 45.8277L285.964 43.51L289.224 41.1922L261.774 2.58222L258.514 4.89998ZM285.964 43.51H289.964V4.89998H285.964H281.964V43.51H285.964ZM285.964 4.89998V8.89998H298.114V4.89998V0.899979H285.964V4.89998ZM298.114 4.89998H294.114V62.86H298.114H302.114V4.89998H298.114ZM298.114 62.86V58.86H287.584V62.86V66.86H298.114V62.86ZM287.584 62.86L290.844 60.5422L263.394 21.9322L260.134 24.25L256.874 26.5677L284.324 65.1777L287.584 62.86ZM260.134 24.25H256.134V62.86H260.134H264.134V24.25H260.134ZM260.134 62.86V58.86H247.984V62.86V66.86H260.134V62.86ZM308.365 62.86H304.365V66.86H308.365V62.86ZM308.365 4.89998V0.899979H304.365V4.89998H308.365ZM352.285 11.65L349.419 14.4399L349.438 14.4593L349.457 14.4784L352.285 11.65ZM352.375 56.02L349.472 53.268L349.471 53.269L352.375 56.02ZM320.515 53.5H316.515V57.5H320.515V53.5ZM339.595 51.97L341.194 55.6368L341.233 55.6197L341.271 55.6018L339.595 51.97ZM344.815 46.21L341.135 44.6438L341.126 44.6633L341.118 44.6829L344.815 46.21ZM339.955 16.51L341.589 12.8587V12.8587L339.955 16.51ZM320.515 14.98V10.98H316.515V14.98H320.515ZM308.365 62.86H312.365V4.89998H308.365H304.365V62.86H308.365ZM308.365 4.89998V8.89998H332.665V4.89998V0.899979H308.365V4.89998ZM332.665 4.89998V8.89998C340.711 8.89998 346.044 10.9731 349.419 14.4399L352.285 11.65L355.152 8.86003C349.766 3.32687 342.019 0.899979 332.665 0.899979V4.89998ZM352.285 11.65L349.457 14.4784C352.773 17.795 354.945 23.9697 354.945 34.15H358.945H362.945C362.945 23.2103 360.677 14.385 355.114 8.82156L352.285 11.65ZM358.945 34.15H354.945C354.945 43.6431 352.841 49.7153 349.472 53.268L352.375 56.02L355.278 58.772C360.67 53.0847 362.945 44.5769 362.945 34.15H358.945ZM352.375 56.02L349.471 53.269C346.171 56.7532 340.841 58.86 332.665 58.86V62.86V66.86C342.13 66.86 349.94 64.4068 355.279 58.771L352.375 56.02ZM332.665 62.86V58.86H308.365V62.86V66.86H332.665V62.86ZM320.515 53.5V57.5H330.955V53.5V49.5H320.515V53.5ZM330.955 53.5V57.5C334.748 57.5 338.209 56.9376 341.194 55.6368L339.595 51.97L337.997 48.3032C336.301 49.0423 334.002 49.5 330.955 49.5V53.5ZM339.595 51.97L341.271 55.6018C344.67 54.0331 347.053 51.2701 348.512 47.737L344.815 46.21L341.118 44.6829C340.297 46.6699 339.2 47.7468 337.919 48.3381L339.595 51.97ZM344.815 46.21L348.496 47.7762C350.005 44.2301 350.615 39.5824 350.615 34.15H346.615H342.615C342.615 39.1576 342.026 42.5499 341.135 44.6438L344.815 46.21ZM346.615 34.15H350.615C350.615 28.752 350.071 24.1733 348.72 20.7224L344.995 22.18L341.27 23.6376C342.08 25.7067 342.615 29.108 342.615 34.15H346.615ZM344.995 22.18L348.72 20.7224C347.334 17.1805 345.002 14.3859 341.589 12.8587L339.955 16.51L338.322 20.1613C339.468 20.674 340.496 21.6595 341.27 23.6376L344.995 22.18ZM339.955 16.51L341.589 12.8587C338.607 11.5246 334.987 10.98 330.955 10.98V14.98V18.98C334.363 18.98 336.744 19.4554 338.322 20.1613L339.955 16.51ZM330.955 14.98V10.98H320.515V14.98V18.98H330.955V14.98ZM320.515 14.98H316.515V53.5H320.515H324.515V14.98H320.515ZM372.738 11.11L369.909 8.28156V8.28156L372.738 11.11ZM414.858 11.11L417.686 8.28156V8.28155L414.858 11.11ZM405.768 48.73L402.661 46.2098L402.656 46.2166L405.768 48.73ZM405.768 18.85L402.705 21.4228L402.733 21.4559L402.761 21.4883L405.768 18.85ZM381.738 18.85L378.705 16.2418L378.701 16.2468L381.738 18.85ZM381.738 48.73L378.603 51.2143L378.629 51.2469L378.655 51.279L381.738 48.73ZM393.798 63.76V59.76C385.077 59.76 379.257 57.4782 375.568 53.6004C371.844 49.6853 369.628 43.4518 369.628 34.15H365.628H361.628C361.628 44.5882 364.107 53.1597 369.772 59.1146C375.473 65.1068 383.739 67.76 393.798 67.76V63.76ZM365.628 34.15H369.628C369.628 23.9919 371.914 17.5906 375.566 13.9384L372.738 11.11L369.909 8.28156C364.081 14.1094 361.628 23.0681 361.628 34.15H365.628ZM372.738 11.11L375.566 13.9384C379.304 10.2001 385.14 7.99998 393.798 7.99998V3.99998V-1.90735e-05C383.855 -1.90735e-05 375.651 2.53987 369.909 8.28156L372.738 11.11ZM393.798 3.99998V7.99998C402.455 7.99998 408.291 10.2001 412.029 13.9384L414.858 11.11L417.686 8.28155C411.944 2.53987 403.74 -1.90735e-05 393.798 -1.90735e-05V3.99998ZM414.858 11.11L412.029 13.9384C415.681 17.5906 417.968 23.9919 417.968 34.15H421.968H425.968C425.968 23.0681 423.514 14.1094 417.686 8.28156L414.858 11.11ZM421.968 34.15H417.968C417.968 43.4518 415.752 49.6853 412.027 53.6004C408.338 57.4782 402.519 59.76 393.798 59.76V63.76V67.76C403.857 67.76 412.122 65.1068 417.823 59.1146C423.489 53.1597 425.968 44.5882 425.968 34.15H421.968ZM393.798 53.41V57.41C400.002 57.41 405.35 55.6132 408.879 51.2433L405.768 48.73L402.656 46.2166C401.146 48.0867 398.513 49.41 393.798 49.41V53.41ZM405.768 48.73L408.874 51.2501C412.289 47.0414 413.638 41.0951 413.638 34.15H409.638H405.638C405.638 40.2849 404.407 44.0586 402.661 46.2098L405.768 48.73ZM409.638 34.15H413.638C413.638 26.6538 412.353 20.29 408.774 16.2116L405.768 18.85L402.761 21.4883C404.342 23.29 405.638 27.1262 405.638 34.15H409.638ZM405.768 18.85L408.831 16.2772C405.285 12.0565 399.953 10.35 393.798 10.35V14.35V18.35C398.563 18.35 401.21 19.6435 402.705 21.4228L405.768 18.85ZM393.798 14.35V10.35C387.635 10.35 382.302 12.0591 378.705 16.2418L381.738 18.85L384.77 21.4581C386.333 19.6409 389.04 18.35 393.798 18.35V14.35ZM381.738 18.85L378.701 16.2468C375.208 20.3215 373.958 26.6678 373.958 34.15H377.958H381.958C381.958 27.1122 383.227 23.2584 384.775 21.4531L381.738 18.85ZM377.958 34.15H373.958C373.958 41.0791 375.271 47.0097 378.603 51.2143L381.738 48.73L384.873 46.2457C383.165 44.0903 381.958 40.3008 381.958 34.15H377.958ZM381.738 48.73L378.655 51.279C382.237 55.6111 387.587 57.41 393.798 57.41V53.41V49.41C389.089 49.41 386.398 48.0888 384.82 46.1809L381.738 48.73ZM450.221 62.86H446.221V66.86H450.221V62.86ZM450.221 4.89998V0.899979H446.221V4.89998H450.221ZM462.371 4.89998H466.371V0.899979H462.371V4.89998ZM462.371 29.47H458.371V39.822L465.331 32.1596L462.371 29.47ZM484.691 4.89998V0.899979H482.92L481.73 2.21037L484.691 4.89998ZM498.641 4.89998L501.625 7.56382L507.574 0.899979H498.641V4.89998ZM477.671 28.39L474.687 25.7261L472.666 27.9896L474.301 30.5454L477.671 28.39ZM499.721 62.86V66.86H507.028L503.09 60.7045L499.721 62.86ZM486.761 62.86L483.366 64.9748L484.54 66.86H486.761V62.86ZM470.111 36.13L473.506 34.0151L470.734 29.5647L467.174 33.4142L470.111 36.13ZM462.371 44.5L459.434 41.7842L458.371 42.934V44.5H462.371ZM462.371 62.86V66.86H466.371V62.86H462.371ZM450.221 62.86H454.221V4.89998H450.221H446.221V62.86H450.221ZM450.221 4.89998V8.89998H462.371V4.89998V0.899979H450.221V4.89998ZM462.371 4.89998H458.371V29.47H462.371H466.371V4.89998H462.371ZM462.371 29.47L465.331 32.1596L487.651 7.58959L484.691 4.89998L481.73 2.21037L459.41 26.7804L462.371 29.47ZM484.691 4.89998V8.89998H498.641V4.89998V0.899979H484.691V4.89998ZM498.641 4.89998L495.657 2.23615L474.687 25.7261L477.671 28.39L480.655 31.0538L501.625 7.56382L498.641 4.89998ZM477.671 28.39L474.301 30.5454L496.351 65.0154L499.721 62.86L503.09 60.7045L481.04 26.2345L477.671 28.39ZM499.721 62.86V58.86H486.761V62.86V66.86H499.721V62.86ZM486.761 62.86L490.156 60.7451L473.506 34.0151L470.111 36.13L466.716 38.2448L483.366 64.9748L486.761 62.86ZM470.111 36.13L467.174 33.4142L459.434 41.7842L462.371 44.5L465.307 47.2157L473.047 38.8457L470.111 36.13ZM462.371 44.5H458.371V62.86H462.371H466.371V44.5H462.371ZM462.371 62.86V58.86H450.221V62.86V66.86H462.371V62.86ZM507.562 11.11L504.734 8.28156V8.28156L507.562 11.11ZM549.682 11.11L552.51 8.28156V8.28155L549.682 11.11ZM540.592 48.73L537.486 46.2098L537.48 46.2166L540.592 48.73ZM540.592 18.85L537.529 21.4228L537.557 21.4559L537.585 21.4883L540.592 18.85ZM516.562 18.85L513.529 16.2418L513.525 16.2468L516.562 18.85ZM516.562 48.73L513.427 51.2143L513.453 51.2469L513.479 51.279L516.562 48.73ZM528.622 63.76V59.76C519.901 59.76 514.082 57.4782 510.392 53.6004C506.668 49.6853 504.452 43.4518 504.452 34.15H500.452H496.452C496.452 44.5882 498.931 53.1597 504.596 59.1146C510.297 65.1068 518.563 67.76 528.622 67.76V63.76ZM500.452 34.15H504.452C504.452 23.9919 506.738 17.5906 510.39 13.9384L507.562 11.11L504.734 8.28156C498.906 14.1094 496.452 23.0681 496.452 34.15H500.452ZM507.562 11.11L510.39 13.9384C514.129 10.2001 519.964 7.99998 528.622 7.99998V3.99998V-1.90735e-05C518.68 -1.90735e-05 510.475 2.53987 504.734 8.28156L507.562 11.11ZM528.622 3.99998V7.99998C537.28 7.99998 543.115 10.2001 546.854 13.9384L549.682 11.11L552.51 8.28155C546.769 2.53987 538.564 -1.90735e-05 528.622 -1.90735e-05V3.99998ZM549.682 11.11L546.854 13.9384C550.506 17.5906 552.792 23.9919 552.792 34.15H556.792H560.792C560.792 23.0681 558.338 14.1094 552.51 8.28156L549.682 11.11ZM556.792 34.15H552.792C552.792 43.4518 550.576 49.6853 546.851 53.6004C543.162 57.4782 537.343 59.76 528.622 59.76V63.76V67.76C538.681 67.76 546.947 65.1068 552.647 59.1146C558.313 53.1597 560.792 44.5882 560.792 34.15H556.792ZM528.622 53.41V57.41C534.827 57.41 540.174 55.6132 543.704 51.2433L540.592 48.73L537.48 46.2166C535.97 48.0867 533.337 49.41 528.622 49.41V53.41ZM540.592 48.73L543.698 51.2501C547.113 47.0414 548.462 41.0951 548.462 34.15H544.462H540.462C540.462 40.2849 539.231 44.0586 537.486 46.2098L540.592 48.73ZM544.462 34.15H548.462C548.462 26.6538 547.177 20.29 543.598 16.2116L540.592 18.85L537.585 21.4883C539.166 23.29 540.462 27.1262 540.462 34.15H544.462ZM540.592 18.85L543.655 16.2772C540.109 12.0565 534.777 10.35 528.622 10.35V14.35V18.35C533.387 18.35 536.035 19.6435 537.529 21.4228L540.592 18.85ZM528.622 14.35V10.35C522.459 10.35 517.126 12.0591 513.529 16.2418L516.562 18.85L519.595 21.4581C521.158 19.6409 523.864 18.35 528.622 18.35V14.35ZM516.562 18.85L513.525 16.2468C510.032 20.3215 508.782 26.6678 508.782 34.15H512.782H516.782C516.782 27.1122 518.052 23.2584 519.599 21.4531L516.562 18.85ZM512.782 34.15H508.782C508.782 41.0791 510.095 47.0097 513.427 51.2143L516.562 48.73L519.697 46.2457C517.989 44.0903 516.782 40.3008 516.782 34.15H512.782ZM516.562 48.73L513.479 51.279C517.062 55.6111 522.411 57.41 528.622 57.41V53.41V49.41C523.913 49.41 521.222 48.0888 519.645 46.1809L516.562 48.73ZM565.27 62.86H561.27V66.86H565.27V62.86ZM565.27 4.89998V0.899979H561.27V4.89998H565.27ZM607.75 10.21L604.749 12.8548L604.76 12.8675L604.771 12.8802L607.75 10.21ZM609.37 34.42L606.129 32.0755L606.112 32.0984L606.096 32.1215L609.37 34.42ZM600.91 40.54L599.607 36.7578L592.797 39.1024L598.387 43.6444L600.91 40.54ZM603.16 43.06L599.73 45.118L599.779 45.1996L599.831 45.2788L603.16 43.06ZM604.96 46.66L601.246 48.1455L601.267 48.1983L601.289 48.2504L604.96 46.66ZM611.98 62.86V66.86H618.072L615.65 61.2696L611.98 62.86ZM599.38 62.86L595.717 64.4688L596.768 66.86H599.38V62.86ZM592.54 47.29L596.202 45.6812L596.192 45.6579L596.181 45.6348L592.54 47.29ZM590.56 44.5L592.96 41.3V41.3L590.56 44.5ZM577.42 43.69V39.69H573.42V43.69H577.42ZM577.42 62.86V66.86H581.42V62.86H577.42ZM577.42 33.61H573.42V37.61H577.42V33.61ZM597.4 31.54L599.833 34.7144L599.866 34.6893L599.898 34.6635L597.4 31.54ZM597.76 17.23L600.532 14.3466V14.3466L597.76 17.23ZM577.42 14.98V10.98H573.42V14.98H577.42ZM565.27 62.86H569.27V4.89998H565.27H561.27V62.86H565.27ZM565.27 4.89998V8.89998H593.08V4.89998V0.899979H565.27V4.89998ZM593.08 4.89998V8.89998C599.079 8.89998 602.66 10.4849 604.749 12.8548L607.75 10.21L610.75 7.56518C606.599 2.85507 600.4 0.899979 593.08 0.899979V4.89998ZM607.75 10.21L604.771 12.8802C607.07 15.444 608.43 19.1096 608.43 24.34H612.43H616.43C616.43 17.6904 614.669 11.9359 610.728 7.5398L607.75 10.21ZM612.43 24.34H608.43C608.43 27.5042 607.616 30.0188 606.129 32.0755L609.37 34.42L612.61 36.7645C615.203 33.1811 616.43 28.9758 616.43 24.34H612.43ZM609.37 34.42L606.096 32.1215C604.659 34.1676 602.573 35.7369 599.607 36.7578L600.91 40.54L602.212 44.3221C606.566 42.8231 610.12 40.3124 612.643 36.7185L609.37 34.42ZM600.91 40.54L598.387 43.6444C599.049 44.1823 599.467 44.6811 599.73 45.118L603.16 43.06L606.589 41.002C605.772 39.6389 604.69 38.4577 603.432 37.4355L600.91 40.54ZM603.16 43.06L599.831 45.2788C600.223 45.8655 600.703 46.7899 601.246 48.1455L604.96 46.66L608.673 45.1744C608.016 43.5301 607.297 42.0544 606.488 40.8412L603.16 43.06ZM604.96 46.66L601.289 48.2504L608.309 64.4504L611.98 62.86L615.65 61.2696L608.63 45.0696L604.96 46.66ZM611.98 62.86V58.86H599.38V62.86V66.86H611.98V62.86ZM599.38 62.86L603.042 61.2512L596.202 45.6812L592.54 47.29L588.877 48.8988L595.717 64.4688L599.38 62.86ZM592.54 47.29L596.181 45.6348C595.455 44.0382 594.449 42.4169 592.96 41.3L590.56 44.5L588.16 47.7C588.113 47.6653 588.181 47.7045 588.333 47.9175C588.482 48.1282 588.676 48.4576 588.898 48.9452L592.54 47.29ZM590.56 44.5L592.96 41.3C591.164 39.9535 588.856 39.69 586.96 39.69V43.69V47.69C587.603 47.69 588.013 47.7434 588.241 47.7949C588.48 47.8487 588.385 47.8692 588.16 47.7L590.56 44.5ZM586.96 43.69V39.69H577.42V43.69V47.69H586.96V43.69ZM577.42 43.69H573.42V62.86H577.42H581.42V43.69H577.42ZM577.42 62.86V58.86H565.27V62.86V66.86H577.42V62.86ZM577.42 33.61V37.61H589.93V33.61V29.61H577.42V33.61ZM589.93 33.61V37.61C593.644 37.61 597.103 36.8078 599.833 34.7144L597.4 31.54L594.966 28.3656C594.096 29.0322 592.576 29.61 589.93 29.61V33.61ZM597.4 31.54L599.898 34.6635C603.021 32.1655 604.1 28.3386 604.1 24.34H600.1H596.1C596.1 27.0613 595.378 28.0345 594.901 28.4165L597.4 31.54ZM600.1 24.34H604.1C604.1 20.5501 603.194 16.9064 600.532 14.3466L597.76 17.23L594.987 20.1133C595.445 20.5536 596.1 21.6499 596.1 24.34H600.1ZM597.76 17.23L600.532 14.3466C597.94 11.8548 594.383 10.98 590.65 10.98V14.98V18.98C593.276 18.98 594.459 19.6051 594.987 20.1133L597.76 17.23ZM590.65 14.98V10.98H577.42V14.98V18.98H590.65V14.98ZM577.42 14.98H573.42V33.61H577.42H581.42V14.98H577.42ZM620.904 62.86H616.904V66.86H620.904V62.86ZM620.904 4.89998V0.899979H616.904V4.89998H620.904ZM662.484 4.89998H666.484V0.899979H662.484V4.89998ZM662.484 14.35V18.35H666.484V14.35H662.484ZM633.054 14.35V10.35H629.054V14.35H633.054ZM633.054 29.2H629.054V33.2H633.054V29.2ZM659.154 29.2H663.154V25.2H659.154V29.2ZM659.154 38.56V42.56H663.154V38.56H659.154ZM633.054 38.56V34.56H629.054V38.56H633.054ZM633.054 53.5H629.054V57.5H633.054V53.5ZM662.484 53.5H666.484V49.5H662.484V53.5ZM662.484 62.86V66.86H666.484V62.86H662.484ZM620.904 62.86H624.904V4.89998H620.904H616.904V62.86H620.904ZM620.904 4.89998V8.89998H662.484V4.89998V0.899979H620.904V4.89998ZM662.484 4.89998H658.484V14.35H662.484H666.484V4.89998H662.484ZM662.484 14.35V10.35H633.054V14.35V18.35H662.484V14.35ZM633.054 14.35H629.054V29.2H633.054H637.054V14.35H633.054ZM633.054 29.2V33.2H659.154V29.2V25.2H633.054V29.2ZM659.154 29.2H655.154V38.56H659.154H663.154V29.2H659.154ZM659.154 38.56V34.56H633.054V38.56V42.56H659.154V38.56ZM633.054 38.56H629.054V53.5H633.054H637.054V38.56H633.054ZM633.054 53.5V57.5H662.484V53.5V49.5H633.054V53.5ZM662.484 53.5H658.484V62.86H662.484H666.484V53.5H662.484ZM662.484 62.86V58.86H620.904V62.86V66.86H662.484V62.86ZM669.114 62.86L665.377 61.4326L663.304 66.86H669.114V62.86ZM691.254 4.89998V0.899979H688.5L687.517 3.47262L691.254 4.89998ZM704.574 4.89998L708.313 3.47769L707.332 0.899979H704.574V4.89998ZM726.624 62.86V66.86H732.425L730.363 61.4377L726.624 62.86ZM714.024 62.86L710.302 64.3248L711.3 66.86H714.024V62.86ZM708.534 48.91L712.256 47.4451L711.258 44.91H708.534V48.91ZM687.204 48.91V44.91H684.463L683.474 47.466L687.204 48.91ZM681.804 62.86V66.86H684.545L685.534 64.304L681.804 62.86ZM689.004 39.55L685.263 38.1344L683.214 43.55H689.004V39.55ZM706.734 39.55V43.55H712.545L710.47 38.1218L706.734 39.55ZM697.824 16.24L701.56 14.8118L697.805 4.98726L694.083 14.8244L697.824 16.24ZM669.114 62.86L672.851 64.2873L694.991 6.32734L691.254 4.89998L687.517 3.47262L665.377 61.4326L669.114 62.86ZM691.254 4.89998V8.89998H704.574V4.89998V0.899979H691.254V4.89998ZM704.574 4.89998L700.835 6.32227L722.885 64.2823L726.624 62.86L730.363 61.4377L708.313 3.47769L704.574 4.89998ZM726.624 62.86V58.86H714.024V62.86V66.86H726.624V62.86ZM714.024 62.86L717.746 61.3951L712.256 47.4451L708.534 48.91L704.812 50.3748L710.302 64.3248L714.024 62.86ZM708.534 48.91V44.91H687.204V48.91V52.91H708.534V48.91ZM687.204 48.91L683.474 47.466L678.074 61.416L681.804 62.86L685.534 64.304L690.934 50.354L687.204 48.91ZM681.804 62.86V58.86H669.114V62.86V66.86H681.804V62.86ZM689.004 39.55V43.55H706.734V39.55V35.55H689.004V39.55ZM706.734 39.55L710.47 38.1218L701.56 14.8118L697.824 16.24L694.088 17.6682L702.998 40.9782L706.734 39.55ZM697.824 16.24L694.083 14.8244L685.263 38.1344L689.004 39.55L692.745 40.9656L701.565 17.6556L697.824 16.24Z" fill="white" mask="url(#path-1-outside-1_910_87)"/>
</svg>
