<svg width="392" height="85" viewBox="0 0 392 85" fill="none" xmlns="http://www.w3.org/2000/svg">
<path d="M17.138 15.158C17.138 15.8473 17.0353 16.4047 16.83 16.83C16.6247 17.2553 16.3313 17.5853 15.95 17.82C15.5833 18.0547 15.1433 18.216 14.63 18.304C14.1313 18.392 13.5813 18.436 12.98 18.436H4.136C3.53467 18.436 2.98467 18.392 2.486 18.304C1.98733 18.216 1.54733 18.0547 1.166 17.82C0.799333 17.5853 0.513333 17.2553 0.308 16.83C0.102667 16.4047 0 15.8473 0 15.158C0 14.4833 0.102667 13.9333 0.308 13.508C0.513333 13.068 0.799333 12.7307 1.166 12.496C1.54733 12.2613 1.98733 12.1 2.486 12.012C2.98467 11.924 3.53467 11.88 4.136 11.88H12.98C13.5813 11.88 14.1313 11.924 14.63 12.012C15.1433 12.1 15.5833 12.2613 15.95 12.496C16.3313 12.7307 16.6247 13.068 16.83 13.508C17.0353 13.9333 17.138 14.4833 17.138 15.158ZM0 0.791999C0 0.528 0.0586667 0.33 0.176 0.198C0.293333 0.066 0.498667 0 0.792 0H16.346C16.6393 0 16.8447 0.066 16.962 0.198C17.0793 0.33 17.138 0.528 17.138 0.791999V6.358C17.138 6.622 17.0793 6.82 16.962 6.952C16.8447 7.084 16.6393 7.15 16.346 7.15H14.19C13.8967 7.15 13.6913 7.084 13.574 6.952C13.4567 6.82 13.398 6.622 13.398 6.358V6.094H0.792C0.528 6.094 0.33 6.03533 0.198 5.918C0.066 5.80067 0 5.59533 0 5.302V4.334C0 4.04067 0.066 3.83533 0.198 3.718C0.33 3.60067 0.528 3.542 0.792 3.542H13.398V2.552H0.792C0.498667 2.552 0.293333 2.486 0.176 2.354C0.0586667 2.222 0 2.024 0 1.76V0.791999ZM0.792 11.066C0.528 11.066 0.33 11.0073 0.198 10.89C0.066 10.7727 0 10.5673 0 10.274V9.306C0 9.01267 0.066 8.80733 0.198 8.69C0.33 8.57267 0.528 8.514 0.792 8.514H5.61V7.502C5.61 7.238 5.66867 7.04 5.786 6.908C5.90333 6.776 6.10867 6.71 6.402 6.71H8.536C8.82933 6.71 9.03467 6.776 9.152 6.908C9.26933 7.04 9.328 7.238 9.328 7.502V8.514H16.346C16.61 8.514 16.808 8.57267 16.94 8.69C17.072 8.80733 17.138 9.01267 17.138 9.306V10.274C17.138 10.5673 17.072 10.7727 16.94 10.89C16.808 11.0073 16.61 11.066 16.346 11.066H0.792ZM3.74 15.158C3.74 15.4513 3.806 15.642 3.938 15.73C4.08467 15.8327 4.29733 15.884 4.576 15.884H12.54C12.8333 15.884 13.046 15.8327 13.178 15.73C13.3247 15.642 13.398 15.4513 13.398 15.158C13.398 14.8647 13.3247 14.674 13.178 14.586C13.046 14.4833 12.8333 14.432 12.54 14.432H4.576C4.29733 14.432 4.08467 14.4833 3.938 14.586C3.806 14.674 3.74 14.8647 3.74 15.158Z" fill="#333333"/>
<path d="M19.9346 9.174C19.6706 9.174 19.4726 9.11533 19.3406 8.998C19.2086 8.88067 19.1426 8.67533 19.1426 8.382V7.524C19.1426 7.23067 19.2086 7.02533 19.3406 6.908C19.4726 6.79067 19.6706 6.732 19.9346 6.732H25.8526V5.94H19.9346C19.6412 5.94 19.4359 5.874 19.3186 5.742C19.2012 5.61 19.1426 5.412 19.1426 5.148V0.791999C19.1426 0.528 19.2012 0.33 19.3186 0.198C19.4359 0.066 19.6412 0 19.9346 0H35.4886C35.7819 0 35.9872 0.066 36.1046 0.198C36.2219 0.33 36.2806 0.528 36.2806 0.791999V1.54C36.2806 1.804 36.2219 2.002 36.1046 2.134C35.9872 2.266 35.7819 2.332 35.4886 2.332H22.9046V3.608H35.4886C35.7819 3.608 35.9872 3.674 36.1046 3.806C36.2219 3.938 36.2806 4.136 36.2806 4.4V5.148C36.2806 5.412 36.2219 5.61 36.1046 5.742C35.9872 5.874 35.7819 5.94 35.4886 5.94H29.5706V6.732H35.4886C35.7526 6.732 35.9506 6.79067 36.0826 6.908C36.2146 7.02533 36.2806 7.23067 36.2806 7.524V8.382C36.2806 8.67533 36.2146 8.88067 36.0826 8.998C35.9506 9.11533 35.7526 9.174 35.4886 9.174H19.9346ZM19.1426 13.838C19.1426 13.574 19.2012 13.376 19.3186 13.244C19.4359 13.112 19.6412 13.046 19.9346 13.046H32.5406V12.21H19.8246C19.3699 12.21 19.1426 11.9973 19.1426 11.572V10.604C19.1426 10.1787 19.3699 9.966 19.8246 9.966H35.4886C35.7819 9.966 35.9872 10.032 36.1046 10.164C36.2219 10.296 36.2806 10.494 36.2806 10.758V14.52C36.2806 14.784 36.2219 14.982 36.1046 15.114C35.9872 15.246 35.7819 15.312 35.4886 15.312H22.8826V16.214H35.5986C36.0532 16.214 36.2806 16.4267 36.2806 16.852V17.798C36.2806 18.2233 36.0532 18.436 35.5986 18.436H19.9346C19.6412 18.436 19.4359 18.37 19.3186 18.238C19.2012 18.106 19.1426 17.908 19.1426 17.644V13.838Z" fill="#333333"/>
<path d="M38.1312 4.532C38.1312 3.84267 38.2192 3.21933 38.3952 2.662C38.5712 2.10467 38.8572 1.628 39.2532 1.232C39.6492 0.836 40.1698 0.535333 40.8152 0.33C41.4605 0.11 42.2598 0 43.2132 0C44.1518 0 44.9438 0.11 45.5892 0.33C46.2492 0.535333 46.7772 0.836 47.1732 1.232C47.5692 1.628 47.8552 2.10467 48.0312 2.662C48.2072 3.21933 48.2952 3.84267 48.2952 4.532V13.464C48.2952 14.1533 48.2072 14.7767 48.0312 15.334C47.8552 15.8913 47.5692 16.368 47.1732 16.764C46.7772 17.16 46.2492 17.4607 45.5892 17.666C44.9438 17.886 44.1518 17.996 43.2132 17.996C42.2598 17.996 41.4605 17.886 40.8152 17.666C40.1698 17.4607 39.6492 17.16 39.2532 16.764C38.8572 16.368 38.5712 15.8913 38.3952 15.334C38.2192 14.7767 38.1312 14.1533 38.1312 13.464V4.532ZM41.8712 13.926C41.8712 14.4687 41.9665 14.894 42.1572 15.202C42.3478 15.51 42.6998 15.664 43.2132 15.664C43.7265 15.664 44.0785 15.51 44.2692 15.202C44.4598 14.894 44.5552 14.4687 44.5552 13.926V4.07C44.5552 3.52733 44.4598 3.102 44.2692 2.794C44.0785 2.486 43.7265 2.332 43.2132 2.332C42.6998 2.332 42.3478 2.486 42.1572 2.794C41.9665 3.102 41.8712 3.52733 41.8712 4.07V13.926ZM51.9912 18.436C51.6978 18.436 51.4925 18.37 51.3752 18.238C51.2578 18.106 51.1992 17.908 51.1992 17.644V0.791999C51.1992 0.528 51.2578 0.33 51.3752 0.198C51.4925 0.066 51.6978 0 51.9912 0H54.1472C54.4405 0 54.6458 0.066 54.7632 0.198C54.8805 0.33 54.9392 0.528 54.9392 0.791999V17.644C54.9392 17.908 54.8805 18.106 54.7632 18.238C54.6458 18.37 54.4405 18.436 54.1472 18.436H51.9912Z" fill="#333333"/>
<path d="M58.1317 18.436C57.8677 18.436 57.6697 18.3773 57.5377 18.26C57.4057 18.1427 57.3397 17.9373 57.3397 17.644V16.698C57.3397 16.4047 57.4057 16.1993 57.5377 16.082C57.6697 15.9647 57.8677 15.906 58.1317 15.906H60.9697V12.87C59.8697 12.6207 59.0044 12.166 58.3737 11.506C57.7577 10.846 57.4497 9.97333 57.4497 8.888V4.158C57.4497 3.48333 57.5744 2.88933 57.8237 2.376C58.0877 1.848 58.4544 1.408 58.9237 1.056C59.3931 0.704 59.9577 0.44 60.6177 0.263999C61.2777 0.0879997 62.0111 0 62.8177 0C63.6244 0 64.3577 0.0879997 65.0177 0.263999C65.6777 0.44 66.2424 0.704 66.7117 1.056C67.1811 1.408 67.5404 1.848 67.7897 2.376C68.0537 2.88933 68.1857 3.48333 68.1857 4.158V8.888C68.1857 9.97333 67.8704 10.846 67.2397 11.506C66.6237 12.166 65.7731 12.6207 64.6877 12.87V15.906H67.5257C67.7897 15.906 67.9877 15.9647 68.1197 16.082C68.2517 16.1993 68.3177 16.4047 68.3177 16.698V17.644C68.3177 17.9373 68.2517 18.1427 68.1197 18.26C67.9877 18.3773 67.7897 18.436 67.5257 18.436H58.1317ZM70.6937 18.436C70.4004 18.436 70.1951 18.37 70.0777 18.238C69.9604 18.106 69.9017 17.908 69.9017 17.644V0.791999C69.9017 0.528 69.9604 0.33 70.0777 0.198C70.1951 0.066 70.4004 0 70.6937 0H72.8497C73.1431 0 73.3484 0.066 73.4657 0.198C73.5831 0.33 73.6417 0.528 73.6417 0.791999V7.744H74.4557C74.7197 7.744 74.9177 7.80267 75.0497 7.92C75.1817 8.03733 75.2477 8.24267 75.2477 8.536V10.582C75.2477 10.8753 75.1817 11.0807 75.0497 11.198C74.9177 11.3153 74.7197 11.374 74.4557 11.374H73.6417V17.644C73.6417 17.908 73.5831 18.106 73.4657 18.238C73.3484 18.37 73.1431 18.436 72.8497 18.436H70.6937ZM64.5557 4.114C64.5557 3.806 64.5044 3.54933 64.4017 3.344C64.3137 3.13867 64.1891 2.97 64.0277 2.838C63.8664 2.706 63.6831 2.61067 63.4777 2.552C63.2724 2.49333 63.0524 2.464 62.8177 2.464C62.3484 2.464 61.9377 2.58867 61.5857 2.838C61.2484 3.08733 61.0797 3.51267 61.0797 4.114V8.932C61.0797 9.53333 61.2484 9.95867 61.5857 10.208C61.9377 10.4573 62.3484 10.582 62.8177 10.582C63.0524 10.582 63.2724 10.5527 63.4777 10.494C63.6831 10.4353 63.8664 10.34 64.0277 10.208C64.1891 10.076 64.3137 9.90733 64.4017 9.702C64.5044 9.49667 64.5557 9.24 64.5557 8.932V4.114Z" fill="#333333"/>
<path d="M82.5394 12.342C82.5394 12.078 82.598 11.88 82.7154 11.748C82.8327 11.616 83.038 11.55 83.3314 11.55H98.5554C98.8487 11.55 99.054 11.616 99.1714 11.748C99.2887 11.88 99.3474 12.078 99.3474 12.342V17.644C99.3474 17.908 99.2887 18.106 99.1714 18.238C99.054 18.37 98.8487 18.436 98.5554 18.436H83.3314C83.038 18.436 82.8327 18.37 82.7154 18.238C82.598 18.106 82.5394 17.908 82.5394 17.644V12.342ZM82.5394 0.791999C82.5394 0.528 82.598 0.33 82.7154 0.198C82.8327 0.066 83.038 0 83.3314 0H85.3554C85.6487 0 85.854 0.066 85.9714 0.198C86.0887 0.33 86.1474 0.528 86.1474 0.791999V2.618H88.9194V0.791999C88.9194 0.528 88.978 0.33 89.0954 0.198C89.2127 0.066 89.418 0 89.7114 0H91.7134C92.0067 0 92.212 0.066 92.3294 0.198C92.4467 0.33 92.5054 0.528 92.5054 0.791999V8.954C92.5054 9.218 92.4467 9.416 92.3294 9.548C92.212 9.68 92.0067 9.746 91.7134 9.746H83.3314C83.038 9.746 82.8327 9.68 82.7154 9.548C82.598 9.416 82.5394 9.218 82.5394 8.954V0.791999ZM95.5194 9.746C95.226 9.746 95.0207 9.68 94.9034 9.548C94.786 9.416 94.7274 9.218 94.7274 8.954V0.791999C94.7274 0.528 94.786 0.33 94.9034 0.198C95.0207 0.066 95.226 0 95.5194 0H97.6754C97.9687 0 98.174 0.066 98.2914 0.198C98.4087 0.33 98.4674 0.528 98.4674 0.791999V3.608H99.5014C99.7654 3.608 99.9634 3.66667 100.095 3.784C100.227 3.90133 100.293 4.10667 100.293 4.4V5.368C100.293 5.66133 100.227 5.86667 100.095 5.984C99.9634 6.10133 99.7654 6.16 99.5014 6.16H98.4674V8.954C98.4674 9.218 98.4087 9.416 98.2914 9.548C98.174 9.68 97.9687 9.746 97.6754 9.746H95.5194ZM86.2794 15.884H95.6074V14.102H86.2794V15.884ZM88.9194 7.194V5.148H86.1474V7.194H88.9194Z" fill="#333333"/>
<path d="M102.628 9.174C102.364 9.174 102.166 9.11533 102.034 8.998C101.902 8.88067 101.836 8.67533 101.836 8.382V7.524C101.836 7.23067 101.902 7.02533 102.034 6.908C102.166 6.79067 102.364 6.732 102.628 6.732H108.546V5.94H102.628C102.335 5.94 102.129 5.874 102.012 5.742C101.895 5.61 101.836 5.412 101.836 5.148V0.791999C101.836 0.528 101.895 0.33 102.012 0.198C102.129 0.066 102.335 0 102.628 0H118.182C118.475 0 118.681 0.066 118.798 0.198C118.915 0.33 118.974 0.528 118.974 0.791999V1.54C118.974 1.804 118.915 2.002 118.798 2.134C118.681 2.266 118.475 2.332 118.182 2.332H105.598V3.608H118.182C118.475 3.608 118.681 3.674 118.798 3.806C118.915 3.938 118.974 4.136 118.974 4.4V5.148C118.974 5.412 118.915 5.61 118.798 5.742C118.681 5.874 118.475 5.94 118.182 5.94H112.264V6.732H118.182C118.446 6.732 118.644 6.79067 118.776 6.908C118.908 7.02533 118.974 7.23067 118.974 7.524V8.382C118.974 8.67533 118.908 8.88067 118.776 8.998C118.644 9.11533 118.446 9.174 118.182 9.174H102.628ZM101.836 13.838C101.836 13.574 101.895 13.376 102.012 13.244C102.129 13.112 102.335 13.046 102.628 13.046H115.234V12.21H102.518C102.063 12.21 101.836 11.9973 101.836 11.572V10.604C101.836 10.1787 102.063 9.966 102.518 9.966H118.182C118.475 9.966 118.681 10.032 118.798 10.164C118.915 10.296 118.974 10.494 118.974 10.758V14.52C118.974 14.784 118.915 14.982 118.798 15.114C118.681 15.246 118.475 15.312 118.182 15.312H105.576V16.214H118.292C118.747 16.214 118.974 16.4267 118.974 16.852V17.798C118.974 18.2233 118.747 18.436 118.292 18.436H102.628C102.335 18.436 102.129 18.37 102.012 18.238C101.895 18.106 101.836 17.908 101.836 17.644V13.838Z" fill="#333333"/>
<path d="M131.033 6.028C131.033 6.70267 130.893 7.27467 130.615 7.744C130.336 8.21333 129.955 8.602 129.471 8.91C129.001 9.20333 128.451 9.416 127.821 9.548C127.19 9.68 126.523 9.746 125.819 9.746C125.129 9.746 124.469 9.68 123.839 9.548C123.208 9.416 122.651 9.20333 122.167 8.91C121.697 8.602 121.316 8.21333 121.023 7.744C120.744 7.27467 120.605 6.70267 120.605 6.028V3.718C120.605 3.04333 120.744 2.47133 121.023 2.002C121.316 1.53267 121.697 1.15133 122.167 0.857999C122.651 0.55 123.208 0.33 123.839 0.198C124.469 0.066 125.129 0 125.819 0C126.523 0 127.19 0.066 127.821 0.198C128.451 0.33 129.001 0.55 129.471 0.857999C129.955 1.15133 130.336 1.53267 130.615 2.002C130.893 2.47133 131.033 3.04333 131.033 3.718V6.028ZM127.403 3.894C127.403 3.39533 127.256 3.036 126.963 2.816C126.669 2.58133 126.288 2.464 125.819 2.464C125.349 2.464 124.968 2.58133 124.675 2.816C124.381 3.036 124.235 3.39533 124.235 3.894V5.852C124.235 6.35067 124.381 6.71733 124.675 6.952C124.968 7.172 125.349 7.282 125.819 7.282C126.288 7.282 126.669 7.172 126.963 6.952C127.256 6.71733 127.403 6.35067 127.403 5.852V3.894ZM134.685 11.946C134.391 11.946 134.186 11.88 134.069 11.748C133.951 11.616 133.893 11.418 133.893 11.154V0.791999C133.893 0.528 133.951 0.33 134.069 0.198C134.186 0.066 134.391 0 134.685 0H136.841C137.134 0 137.339 0.066 137.457 0.198C137.574 0.33 137.633 0.528 137.633 0.791999V11.154C137.633 11.418 137.574 11.616 137.457 11.748C137.339 11.88 137.134 11.946 136.841 11.946H134.685ZM138.073 17.644C138.073 17.908 138.014 18.106 137.897 18.238C137.779 18.37 137.574 18.436 137.281 18.436H121.617C121.323 18.436 121.118 18.37 121.001 18.238C120.883 18.106 120.825 17.908 120.825 17.644V12.43C120.825 12.166 120.883 11.968 121.001 11.836C121.118 11.704 121.323 11.638 121.617 11.638H123.773C124.066 11.638 124.271 11.704 124.389 11.836C124.506 11.968 124.565 12.166 124.565 12.43V15.884H137.281C137.574 15.884 137.779 15.95 137.897 16.082C138.014 16.214 138.073 16.412 138.073 16.676V17.644Z" fill="#333333"/>
<path d="M156.606 17.204C156.606 17.468 156.547 17.666 156.43 17.798C156.313 17.93 156.107 17.996 155.814 17.996H146.882C146.589 17.996 146.383 17.93 146.266 17.798C146.149 17.666 146.09 17.468 146.09 17.204V0.791999C146.09 0.528 146.149 0.33 146.266 0.198C146.383 0.066 146.589 0 146.882 0H149.038C149.331 0 149.537 0.066 149.654 0.198C149.771 0.33 149.83 0.528 149.83 0.791999V15.466H155.814C156.107 15.466 156.313 15.532 156.43 15.664C156.547 15.796 156.606 15.994 156.606 16.258V17.204ZM159.95 18.436C159.657 18.436 159.451 18.37 159.334 18.238C159.217 18.106 159.158 17.908 159.158 17.644V10.714H155.88C155.616 10.714 155.418 10.6553 155.286 10.538C155.154 10.4207 155.088 10.2153 155.088 9.922V7.876C155.088 7.58267 155.154 7.37733 155.286 7.26C155.418 7.14267 155.616 7.084 155.88 7.084H159.158V0.791999C159.158 0.528 159.217 0.33 159.334 0.198C159.451 0.066 159.657 0 159.95 0H162.106C162.399 0 162.605 0.066 162.722 0.198C162.839 0.33 162.898 0.528 162.898 0.791999V17.644C162.898 17.908 162.839 18.106 162.722 18.238C162.605 18.37 162.399 18.436 162.106 18.436H159.95Z" fill="#333333"/>
<path d="M165.387 13.838C165.387 13.574 165.445 13.376 165.563 13.244C165.68 13.112 165.885 13.046 166.179 13.046H178.785V12.21H166.069C165.614 12.21 165.387 11.9973 165.387 11.572V10.604C165.387 10.1787 165.614 9.966 166.069 9.966H172.097V9.174H166.179C165.915 9.174 165.717 9.11533 165.585 8.998C165.453 8.88067 165.387 8.67533 165.387 8.382V7.524C165.387 7.23067 165.453 7.02533 165.585 6.908C165.717 6.79067 165.915 6.732 166.179 6.732H181.733C181.997 6.732 182.195 6.79067 182.327 6.908C182.459 7.02533 182.525 7.23067 182.525 7.524V8.382C182.525 8.67533 182.459 8.88067 182.327 8.998C182.195 9.11533 181.997 9.174 181.733 9.174H175.815V9.966H181.733C182.026 9.966 182.231 10.032 182.349 10.164C182.466 10.296 182.525 10.494 182.525 10.758V14.52C182.525 14.784 182.466 14.982 182.349 15.114C182.231 15.246 182.026 15.312 181.733 15.312H169.127V16.214H181.843C182.297 16.214 182.525 16.4267 182.525 16.852V17.798C182.525 18.2233 182.297 18.436 181.843 18.436H166.179C165.885 18.436 165.68 18.37 165.563 18.238C165.445 18.106 165.387 17.908 165.387 17.644V13.838ZM165.387 0.791999C165.387 0.528 165.445 0.33 165.563 0.198C165.68 0.066 165.885 0 166.179 0H181.733C182.026 0 182.231 0.066 182.349 0.198C182.466 0.33 182.525 0.528 182.525 0.791999V5.17C182.525 5.434 182.466 5.632 182.349 5.764C182.231 5.896 182.026 5.962 181.733 5.962H179.577C179.283 5.962 179.078 5.896 178.961 5.764C178.843 5.632 178.785 5.434 178.785 5.17V2.552H166.179C165.885 2.552 165.68 2.486 165.563 2.354C165.445 2.222 165.387 2.024 165.387 1.76V0.791999Z" fill="#333333"/>
<path d="M195.287 8.888C195.287 9.56267 195.155 10.164 194.891 10.692C194.642 11.2053 194.283 11.638 193.813 11.99C193.344 12.342 192.779 12.606 192.119 12.782C191.459 12.958 190.726 13.046 189.919 13.046C189.113 13.046 188.379 12.958 187.719 12.782C187.059 12.606 186.495 12.342 186.025 11.99C185.556 11.638 185.189 11.2053 184.925 10.692C184.676 10.164 184.551 9.56267 184.551 8.888V4.158C184.551 3.48333 184.676 2.88933 184.925 2.376C185.189 1.848 185.556 1.408 186.025 1.056C186.495 0.704 187.059 0.44 187.719 0.263999C188.379 0.0879997 189.113 0 189.919 0C190.726 0 191.459 0.0879997 192.119 0.263999C192.779 0.44 193.344 0.704 193.813 1.056C194.283 1.408 194.642 1.848 194.891 2.376C195.155 2.88933 195.287 3.48333 195.287 4.158V8.888ZM191.657 4.114C191.657 3.806 191.606 3.54933 191.503 3.344C191.415 3.13867 191.291 2.97 191.129 2.838C190.968 2.706 190.785 2.61067 190.579 2.552C190.374 2.49333 190.154 2.464 189.919 2.464C189.45 2.464 189.039 2.58867 188.687 2.838C188.35 3.08733 188.181 3.51267 188.181 4.114V8.932C188.181 9.53333 188.35 9.95867 188.687 10.208C189.039 10.4573 189.45 10.582 189.919 10.582C190.154 10.582 190.374 10.5527 190.579 10.494C190.785 10.4353 190.968 10.34 191.129 10.208C191.291 10.076 191.415 9.90733 191.503 9.702C191.606 9.49667 191.657 9.24 191.657 8.932V4.114ZM185.233 18.436C184.969 18.436 184.771 18.3773 184.639 18.26C184.507 18.1427 184.441 17.9373 184.441 17.644V16.698C184.441 16.4047 184.507 16.1993 184.639 16.082C184.771 15.9647 184.969 15.906 185.233 15.906H194.627C194.891 15.906 195.089 15.9647 195.221 16.082C195.353 16.1993 195.419 16.4047 195.419 16.698V17.644C195.419 17.9373 195.353 18.1427 195.221 18.26C195.089 18.3773 194.891 18.436 194.627 18.436H185.233ZM198.235 18.436C197.942 18.436 197.737 18.37 197.619 18.238C197.502 18.106 197.443 17.908 197.443 17.644V0.791999C197.443 0.528 197.502 0.33 197.619 0.198C197.737 0.066 197.942 0 198.235 0H200.391C200.685 0 200.89 0.066 201.007 0.198C201.125 0.33 201.183 0.528 201.183 0.791999V17.644C201.183 17.908 201.125 18.106 201.007 18.238C200.89 18.37 200.685 18.436 200.391 18.436H198.235Z" fill="#333333"/>
<path d="M215.779 2.53V9.416C215.779 9.82667 215.845 10.23 215.977 10.626C216.109 11.0073 216.285 11.3667 216.505 11.704C216.725 12.0413 216.974 12.3567 217.253 12.65C217.532 12.9433 217.825 13.2 218.133 13.42C218.25 13.508 218.346 13.6253 218.419 13.772C218.507 13.904 218.551 14.0653 218.551 14.256V17.358C218.551 17.578 218.5 17.7027 218.397 17.732C218.294 17.776 218.17 17.7613 218.023 17.688C217.304 17.2773 216.586 16.72 215.867 16.016C215.148 15.3267 214.503 14.5933 213.931 13.816C213.344 14.608 212.699 15.3487 211.995 16.038C211.291 16.7273 210.58 17.2773 209.861 17.688C209.714 17.7613 209.59 17.776 209.487 17.732C209.384 17.7027 209.333 17.578 209.333 17.358V14.256C209.333 14.0653 209.37 13.904 209.443 13.772C209.531 13.6253 209.634 13.508 209.751 13.42C210.059 13.2 210.352 12.9433 210.631 12.65C210.91 12.3567 211.159 12.0413 211.379 11.704C211.599 11.3667 211.775 11.0073 211.907 10.626C212.039 10.23 212.105 9.82667 212.105 9.416V2.53H210.213C209.949 2.53 209.751 2.43467 209.619 2.244C209.487 2.05333 209.421 1.81133 209.421 1.518V0.791999C209.421 0.498666 209.487 0.293333 209.619 0.175999C209.751 0.0586663 209.949 0 210.213 0H217.627C217.891 0 218.089 0.0586663 218.221 0.175999C218.353 0.293333 218.419 0.498666 218.419 0.791999V1.738C218.419 2.03133 218.353 2.23667 218.221 2.354C218.089 2.47133 217.891 2.53 217.627 2.53H215.779ZM220.003 18.436C219.71 18.436 219.504 18.37 219.387 18.238C219.27 18.106 219.211 17.908 219.211 17.644V10.274H217.957C217.693 10.274 217.495 10.2153 217.363 10.098C217.231 9.98067 217.165 9.77533 217.165 9.482V7.436C217.165 7.14267 217.231 6.93733 217.363 6.82C217.495 6.70267 217.693 6.644 217.957 6.644H219.211V0.791999C219.211 0.528 219.27 0.33 219.387 0.198C219.504 0.066 219.71 0 220.003 0H221.653C221.946 0 222.152 0.066 222.269 0.198C222.386 0.33 222.445 0.528 222.445 0.791999V17.644C222.445 17.908 222.386 18.106 222.269 18.238C222.152 18.37 221.946 18.436 221.653 18.436H220.003ZM224.227 18.436C223.934 18.436 223.728 18.37 223.611 18.238C223.494 18.106 223.435 17.908 223.435 17.644V0.791999C223.435 0.528 223.494 0.33 223.611 0.198C223.728 0.066 223.934 0 224.227 0H225.877C226.17 0 226.376 0.066 226.493 0.198C226.61 0.33 226.669 0.528 226.669 0.791999V17.644C226.669 17.908 226.61 18.106 226.493 18.238C226.376 18.37 226.17 18.436 225.877 18.436H224.227Z" fill="#333333"/>
<path d="M235.889 2.53V9.416C235.889 9.82667 235.985 10.23 236.176 10.626C236.366 11.0073 236.608 11.374 236.902 11.726C237.21 12.078 237.539 12.4007 237.891 12.694C238.243 12.9873 238.581 13.244 238.904 13.464C239.182 13.6547 239.322 13.9333 239.322 14.3V17.38C239.322 17.6 239.27 17.7247 239.167 17.754C239.065 17.798 238.94 17.7833 238.794 17.71C237.928 17.2407 237.085 16.6907 236.264 16.06C235.442 15.444 234.702 14.696 234.042 13.816C233.382 14.696 232.641 15.444 231.82 16.06C230.998 16.6907 230.162 17.2407 229.311 17.71C229.165 17.7833 229.04 17.798 228.938 17.754C228.835 17.7247 228.783 17.6 228.783 17.38V14.3C228.783 13.9333 228.923 13.6547 229.202 13.464C229.524 13.244 229.862 12.9873 230.214 12.694C230.566 12.4007 230.888 12.078 231.182 11.726C231.49 11.374 231.739 11.0073 231.93 10.626C232.12 10.23 232.215 9.82667 232.215 9.416V2.53H229.355C229.091 2.53 228.894 2.47133 228.762 2.354C228.63 2.23667 228.564 2.03133 228.564 1.738V0.791999C228.564 0.498666 228.63 0.293333 228.762 0.175999C228.894 0.0586663 229.091 0 229.355 0H238.749C239.013 0 239.212 0.0586663 239.344 0.175999C239.476 0.293333 239.542 0.498666 239.542 0.791999V1.738C239.542 2.03133 239.476 2.23667 239.344 2.354C239.212 2.47133 239.013 2.53 238.749 2.53H235.889ZM241.764 18.436C241.47 18.436 241.265 18.37 241.148 18.238C241.03 18.106 240.971 17.908 240.971 17.644V0.791999C240.971 0.528 241.03 0.33 241.148 0.198C241.265 0.066 241.47 0 241.764 0H243.919C244.213 0 244.418 0.066 244.536 0.198C244.653 0.33 244.712 0.528 244.712 0.791999V7.744H245.965C246.229 7.744 246.427 7.80267 246.559 7.92C246.691 8.03733 246.758 8.24267 246.758 8.536V10.582C246.758 10.8753 246.691 11.0807 246.559 11.198C246.427 11.3153 246.229 11.374 245.965 11.374H244.712V17.644C244.712 17.908 244.653 18.106 244.536 18.238C244.418 18.37 244.213 18.436 243.919 18.436H241.764Z" fill="#333333"/>
<path d="M258.134 6.028C258.134 6.70267 257.995 7.27467 257.716 7.744C257.437 8.21333 257.056 8.602 256.572 8.91C256.103 9.20333 255.553 9.416 254.922 9.548C254.291 9.68 253.624 9.746 252.92 9.746C252.231 9.746 251.571 9.68 250.94 9.548C250.309 9.416 249.752 9.20333 249.268 8.91C248.799 8.602 248.417 8.21333 248.124 7.744C247.845 7.27467 247.706 6.70267 247.706 6.028V3.718C247.706 3.04333 247.845 2.47133 248.124 2.002C248.417 1.53267 248.799 1.15133 249.268 0.857999C249.752 0.55 250.309 0.33 250.94 0.198C251.571 0.066 252.231 0 252.92 0C253.624 0 254.291 0.066 254.922 0.198C255.553 0.33 256.103 0.55 256.572 0.857999C257.056 1.15133 257.437 1.53267 257.716 2.002C257.995 2.47133 258.134 3.04333 258.134 3.718V6.028ZM254.504 3.894C254.504 3.39533 254.357 3.036 254.064 2.816C253.771 2.58133 253.389 2.464 252.92 2.464C252.451 2.464 252.069 2.58133 251.776 2.816C251.483 3.036 251.336 3.39533 251.336 3.894V5.852C251.336 6.35067 251.483 6.71733 251.776 6.952C252.069 7.172 252.451 7.282 252.92 7.282C253.389 7.282 253.771 7.172 254.064 6.952C254.357 6.71733 254.504 6.35067 254.504 5.852V3.894ZM261.786 11.946C261.493 11.946 261.287 11.88 261.17 11.748C261.053 11.616 260.994 11.418 260.994 11.154V0.791999C260.994 0.528 261.053 0.33 261.17 0.198C261.287 0.066 261.493 0 261.786 0H263.942C264.235 0 264.441 0.066 264.558 0.198C264.675 0.33 264.734 0.528 264.734 0.791999V11.154C264.734 11.418 264.675 11.616 264.558 11.748C264.441 11.88 264.235 11.946 263.942 11.946H261.786ZM265.174 17.644C265.174 17.908 265.115 18.106 264.998 18.238C264.881 18.37 264.675 18.436 264.382 18.436H248.718C248.425 18.436 248.219 18.37 248.102 18.238C247.985 18.106 247.926 17.908 247.926 17.644V12.43C247.926 12.166 247.985 11.968 248.102 11.836C248.219 11.704 248.425 11.638 248.718 11.638H250.874C251.167 11.638 251.373 11.704 251.49 11.836C251.607 11.968 251.666 12.166 251.666 12.43V15.884H264.382C264.675 15.884 264.881 15.95 264.998 16.082C265.115 16.214 265.174 16.412 265.174 16.676V17.644Z" fill="#333333"/>
<path d="M277.35 18.436C276.763 18.436 276.213 18.392 275.7 18.304C275.201 18.216 274.768 18.0473 274.402 17.798C274.035 17.5633 273.742 17.2187 273.522 16.764C273.316 16.324 273.214 15.752 273.214 15.048C273.214 14.3733 273.316 13.8087 273.522 13.354C273.727 12.8993 274.013 12.54 274.38 12.276C274.761 12.012 275.201 11.8287 275.7 11.726C276.198 11.6087 276.748 11.55 277.35 11.55H286.172C286.773 11.55 287.323 11.6087 287.822 11.726C288.335 11.8287 288.775 12.012 289.142 12.276C289.523 12.54 289.816 12.8993 290.022 13.354C290.227 13.8087 290.33 14.3733 290.33 15.048C290.33 15.752 290.22 16.324 290 16.764C289.794 17.2187 289.508 17.5633 289.142 17.798C288.775 18.0473 288.335 18.216 287.822 18.304C287.308 18.392 286.758 18.436 286.172 18.436H277.35ZM278.846 9.592C278.596 9.40133 278.362 9.21067 278.142 9.02C277.922 8.82933 277.702 8.61667 277.482 8.382C277.276 8.14733 277.071 7.876 276.866 7.568C276.66 7.26 276.462 6.886 276.272 6.446C275.846 7.17933 275.384 7.766 274.886 8.206C274.387 8.646 273.852 9.05667 273.28 9.438C273.148 9.526 273.023 9.548 272.906 9.504C272.803 9.46 272.752 9.328 272.752 9.108V6.644C272.752 6.45333 272.781 6.30667 272.84 6.204C272.913 6.08667 273.023 5.95467 273.17 5.808C273.712 5.29467 274.072 4.708 274.248 4.048C274.438 3.37333 274.534 2.62533 274.534 1.804V0.791999C274.534 0.528 274.592 0.33 274.71 0.198C274.827 0.066 275.032 0 275.326 0H277.284C277.577 0 277.782 0.066 277.9 0.198C278.017 0.33 278.076 0.528 278.076 0.791999V1.804C278.076 2.09733 278.083 2.42733 278.098 2.794C278.127 3.146 278.171 3.50533 278.23 3.872C278.288 4.23867 278.362 4.59067 278.45 4.928C278.552 5.25067 278.684 5.52933 278.846 5.764C278.963 5.95467 279.044 6.05 279.088 6.05C279.132 6.03533 279.212 5.94 279.33 5.764C279.476 5.52933 279.601 5.25067 279.704 4.928C279.806 4.59067 279.887 4.23867 279.946 3.872C280.004 3.50533 280.041 3.146 280.056 2.794C280.085 2.42733 280.1 2.09733 280.1 1.804V0.791999C280.1 0.528 280.158 0.33 280.276 0.198C280.393 0.066 280.598 0 280.892 0H282.85C283.143 0 283.348 0.066 283.466 0.198C283.583 0.33 283.642 0.528 283.642 0.791999V1.804C283.642 2.62533 283.73 3.37333 283.906 4.048C284.096 4.708 284.463 5.29467 285.006 5.808C285.152 5.95467 285.255 6.08667 285.314 6.204C285.387 6.30667 285.424 6.45333 285.424 6.644V9.108C285.424 9.328 285.365 9.46 285.248 9.504C285.145 9.548 285.028 9.526 284.896 9.438C284.309 9.05667 283.759 8.646 283.246 8.206C282.747 7.766 282.292 7.17933 281.882 6.446C281.676 6.886 281.471 7.26 281.266 7.568C281.075 7.876 280.877 8.14733 280.672 8.382C280.466 8.61667 280.246 8.82933 280.012 9.02C279.792 9.21067 279.564 9.40133 279.33 9.592C279.168 9.73867 279.007 9.73867 278.846 9.592ZM287.052 9.746C286.758 9.746 286.553 9.68 286.436 9.548C286.318 9.416 286.26 9.218 286.26 8.954V0.791999C286.26 0.528 286.318 0.33 286.436 0.198C286.553 0.066 286.758 0 287.052 0H288.988C289.281 0 289.486 0.066 289.604 0.198C289.721 0.33 289.78 0.528 289.78 0.791999V3.608H290.154C290.418 3.608 290.616 3.66667 290.748 3.784C290.88 3.90133 290.946 4.10667 290.946 4.4V5.368C290.946 5.66133 290.88 5.86667 290.748 5.984C290.616 6.10133 290.418 6.16 290.154 6.16H289.78V8.954C289.78 9.218 289.721 9.416 289.604 9.548C289.486 9.68 289.281 9.746 288.988 9.746H287.052ZM285.732 15.884C286.304 15.884 286.59 15.598 286.59 15.026C286.59 14.7327 286.516 14.5053 286.37 14.344C286.238 14.1827 286.025 14.102 285.732 14.102H277.79C277.511 14.102 277.298 14.1827 277.152 14.344C277.02 14.5053 276.954 14.7327 276.954 15.026C276.954 15.598 277.232 15.884 277.79 15.884H285.732Z" fill="#333333"/>
<path d="M302.916 10.516V11.88H305.468C306.07 11.88 306.62 11.924 307.118 12.012C307.632 12.1 308.072 12.2613 308.438 12.496C308.82 12.7307 309.113 13.068 309.318 13.508C309.524 13.9333 309.626 14.4833 309.626 15.158C309.626 15.8473 309.524 16.4047 309.318 16.83C309.113 17.2553 308.82 17.5853 308.438 17.82C308.072 18.0547 307.632 18.216 307.118 18.304C306.62 18.392 306.07 18.436 305.468 18.436H296.624C296.023 18.436 295.473 18.392 294.974 18.304C294.476 18.216 294.036 18.0547 293.654 17.82C293.288 17.5853 293.002 17.2553 292.796 16.83C292.591 16.4047 292.488 15.8473 292.488 15.158C292.488 14.4833 292.591 13.9333 292.796 13.508C293.002 13.068 293.288 12.7307 293.654 12.496C294.036 12.2613 294.476 12.1 294.974 12.012C295.473 11.924 296.023 11.88 296.624 11.88H299.198V10.516H293.28C293.016 10.516 292.818 10.4573 292.686 10.34C292.554 10.2227 292.488 10.0173 292.488 9.724V8.756C292.488 8.46267 292.554 8.25733 292.686 8.14C292.818 8.02267 293.016 7.964 293.28 7.964H308.834C309.098 7.964 309.296 8.02267 309.428 8.14C309.56 8.25733 309.626 8.46267 309.626 8.756V9.724C309.626 10.0173 309.56 10.2227 309.428 10.34C309.296 10.4573 309.098 10.516 308.834 10.516H302.916ZM292.488 0.791999C292.488 0.528 292.547 0.33 292.664 0.198C292.782 0.066 292.987 0 293.28 0H308.834C309.128 0 309.333 0.066 309.45 0.198C309.568 0.33 309.626 0.528 309.626 0.791999V1.76C309.626 2.024 309.568 2.222 309.45 2.354C309.333 2.486 309.128 2.552 308.834 2.552H296.25V4.158H308.834C309.128 4.158 309.333 4.224 309.45 4.356C309.568 4.488 309.626 4.686 309.626 4.95V5.918C309.626 6.182 309.568 6.38 309.45 6.512C309.333 6.644 309.128 6.71 308.834 6.71H293.28C292.987 6.71 292.782 6.644 292.664 6.512C292.547 6.38 292.488 6.182 292.488 5.918V0.791999ZM296.228 15.158C296.228 15.4513 296.294 15.642 296.426 15.73C296.573 15.8327 296.786 15.884 297.064 15.884H305.028C305.322 15.884 305.534 15.8327 305.666 15.73C305.813 15.642 305.886 15.4513 305.886 15.158C305.886 14.8647 305.813 14.674 305.666 14.586C305.534 14.4833 305.322 14.432 305.028 14.432H297.064C296.786 14.432 296.573 14.4833 296.426 14.586C296.294 14.674 296.228 14.8647 296.228 15.158Z" fill="#333333"/>
<path d="M311.477 4.532C311.477 3.84267 311.565 3.21933 311.741 2.662C311.917 2.10467 312.203 1.628 312.599 1.232C312.995 0.836 313.516 0.535333 314.161 0.33C314.806 0.11 315.606 0 316.559 0C317.498 0 318.29 0.11 318.935 0.33C319.595 0.535333 320.123 0.836 320.519 1.232C320.915 1.628 321.201 2.10467 321.377 2.662C321.553 3.21933 321.641 3.84267 321.641 4.532V13.464C321.641 14.1533 321.553 14.7767 321.377 15.334C321.201 15.8913 320.915 16.368 320.519 16.764C320.123 17.16 319.595 17.4607 318.935 17.666C318.29 17.886 317.498 17.996 316.559 17.996C315.606 17.996 314.806 17.886 314.161 17.666C313.516 17.4607 312.995 17.16 312.599 16.764C312.203 16.368 311.917 15.8913 311.741 15.334C311.565 14.7767 311.477 14.1533 311.477 13.464V4.532ZM315.217 13.926C315.217 14.4687 315.312 14.894 315.503 15.202C315.694 15.51 316.046 15.664 316.559 15.664C317.072 15.664 317.424 15.51 317.615 15.202C317.806 14.894 317.901 14.4687 317.901 13.926V4.07C317.901 3.52733 317.806 3.102 317.615 2.794C317.424 2.486 317.072 2.332 316.559 2.332C316.046 2.332 315.694 2.486 315.503 2.794C315.312 3.102 315.217 3.52733 315.217 4.07V13.926ZM325.337 18.436C325.044 18.436 324.838 18.37 324.721 18.238C324.604 18.106 324.545 17.908 324.545 17.644V0.791999C324.545 0.528 324.604 0.33 324.721 0.198C324.838 0.066 325.044 0 325.337 0H327.493C327.786 0 327.992 0.066 328.109 0.198C328.226 0.33 328.285 0.528 328.285 0.791999V17.644C328.285 17.908 328.226 18.106 328.109 18.238C327.992 18.37 327.786 18.436 327.493 18.436H325.337Z" fill="#333333"/>
<path d="M347.258 17.204C347.258 17.468 347.2 17.666 347.082 17.798C346.965 17.93 346.76 17.996 346.466 17.996H337.534C337.241 17.996 337.036 17.93 336.918 17.798C336.801 17.666 336.742 17.468 336.742 17.204V0.791999C336.742 0.528 336.801 0.33 336.918 0.198C337.036 0.066 337.241 0 337.534 0H339.69C339.984 0 340.189 0.066 340.306 0.198C340.424 0.33 340.482 0.528 340.482 0.791999V15.466H346.466C346.76 15.466 346.965 15.532 347.082 15.664C347.2 15.796 347.258 15.994 347.258 16.258V17.204ZM350.602 18.436C350.309 18.436 350.104 18.37 349.986 18.238C349.869 18.106 349.81 17.908 349.81 17.644V10.714H346.532C346.268 10.714 346.07 10.6553 345.938 10.538C345.806 10.4207 345.74 10.2153 345.74 9.922V7.876C345.74 7.58267 345.806 7.37733 345.938 7.26C346.07 7.14267 346.268 7.084 346.532 7.084H349.81V0.791999C349.81 0.528 349.869 0.33 349.986 0.198C350.104 0.066 350.309 0 350.602 0H352.758C353.052 0 353.257 0.066 353.374 0.198C353.492 0.33 353.55 0.528 353.55 0.791999V17.644C353.55 17.908 353.492 18.106 353.374 18.238C353.257 18.37 353.052 18.436 352.758 18.436H350.602Z" fill="#333333"/>
<path d="M356.369 0.791999C356.369 0.528 356.428 0.33 356.545 0.198C356.662 0.066 356.868 0 357.161 0H372.055C372.348 0 372.554 0.066 372.671 0.198C372.788 0.33 372.847 0.528 372.847 0.791999V8.052C372.847 8.316 372.788 8.514 372.671 8.646C372.554 8.778 372.348 8.844 372.055 8.844H369.899C369.606 8.844 369.4 8.778 369.283 8.646C369.166 8.514 369.107 8.316 369.107 8.052V2.552H357.161C356.868 2.552 356.662 2.486 356.545 2.354C356.428 2.222 356.369 2.024 356.369 1.76V0.791999ZM366.467 13.244V17.644C366.467 17.908 366.408 18.106 366.291 18.238C366.174 18.37 365.968 18.436 365.675 18.436H363.541C363.248 18.436 363.042 18.37 362.925 18.238C362.808 18.106 362.749 17.908 362.749 17.644V13.244H357.051C356.787 13.244 356.589 13.1853 356.457 13.068C356.325 12.9507 356.259 12.7453 356.259 12.452V11.484C356.259 11.1907 356.325 10.9853 356.457 10.868C356.589 10.7507 356.787 10.692 357.051 10.692H372.165C372.429 10.692 372.627 10.7507 372.759 10.868C372.891 10.9853 372.957 11.1907 372.957 11.484V12.452C372.957 12.7453 372.891 12.9507 372.759 13.068C372.627 13.1853 372.429 13.244 372.165 13.244H366.467Z" fill="#333333"/>
<path d="M375.028 8.624C375.028 8.36 375.086 8.162 375.204 8.03C375.321 7.898 375.526 7.832 375.82 7.832H381.386V2.552H375.82C375.526 2.552 375.321 2.486 375.204 2.354C375.086 2.222 375.028 2.024 375.028 1.76V0.791999C375.028 0.528 375.086 0.33 375.204 0.198C375.321 0.066 375.526 0 375.82 0H384.334C384.627 0 384.832 0.066 384.95 0.198C385.067 0.33 385.126 0.528 385.126 0.791999V9.592C385.126 9.856 385.067 10.054 384.95 10.186C384.832 10.318 384.627 10.384 384.334 10.384H378.768V15.466H384.752C385.045 15.466 385.25 15.532 385.368 15.664C385.485 15.796 385.544 15.994 385.544 16.258V17.204C385.544 17.468 385.485 17.666 385.368 17.798C385.25 17.93 385.045 17.996 384.752 17.996H375.82C375.526 17.996 375.321 17.93 375.204 17.798C375.086 17.666 375.028 17.468 375.028 17.204V8.624ZM388.888 18.436C388.594 18.436 388.389 18.37 388.272 18.238C388.154 18.106 388.096 17.908 388.096 17.644V0.791999C388.096 0.528 388.154 0.33 388.272 0.198C388.389 0.066 388.594 0 388.888 0H391.044C391.337 0 391.542 0.066 391.66 0.198C391.777 0.33 391.836 0.528 391.836 0.791999V17.644C391.836 17.908 391.777 18.106 391.66 18.238C391.542 18.37 391.337 18.436 391.044 18.436H388.888Z" fill="#333333"/>
<path d="M72.7317 45.562C72.7317 45.298 72.7904 45.1 72.9077 44.968C73.0251 44.836 73.2304 44.77 73.5237 44.77H88.7477C89.0411 44.77 89.2464 44.836 89.3637 44.968C89.4811 45.1 89.5397 45.298 89.5397 45.562V50.644C89.5397 50.908 89.4811 51.106 89.3637 51.238C89.2464 51.37 89.0411 51.436 88.7477 51.436H73.5237C73.2304 51.436 73.0251 51.37 72.9077 51.238C72.7904 51.106 72.7317 50.908 72.7317 50.644V45.562ZM83.2477 40.502C83.2477 41.03 83.1524 41.4773 82.9617 41.844C82.7857 42.2107 82.5291 42.5187 82.1917 42.768C81.8544 43.0027 81.4437 43.1787 80.9597 43.296C80.4904 43.3987 79.9624 43.45 79.3757 43.45H76.6037C75.4304 43.45 74.4917 43.2227 73.7877 42.768C73.0837 42.2987 72.7317 41.5433 72.7317 40.502C72.7317 39.4607 73.0837 38.7127 73.7877 38.258C74.4917 37.7887 75.4304 37.554 76.6037 37.554H79.3757C79.9624 37.554 80.4904 37.6127 80.9597 37.73C81.4437 37.8327 81.8544 38.0087 82.1917 38.258C82.5291 38.4927 82.7857 38.7933 82.9617 39.16C83.1524 39.5267 83.2477 39.974 83.2477 40.502ZM85.7117 43.406C85.4184 43.406 85.2131 43.34 85.0957 43.208C84.9784 43.076 84.9197 42.878 84.9197 42.614V33.792C84.9197 33.528 84.9784 33.33 85.0957 33.198C85.2131 33.066 85.4184 33 85.7117 33H87.8677C88.1611 33 88.3664 33.066 88.4837 33.198C88.6011 33.33 88.6597 33.528 88.6597 33.792V36.608H89.6937C89.9577 36.608 90.1557 36.6667 90.2877 36.784C90.4197 36.9013 90.4857 37.1067 90.4857 37.4V38.368C90.4857 38.6613 90.4197 38.8667 90.2877 38.984C90.1557 39.1013 89.9577 39.16 89.6937 39.16H88.6597V42.614C88.6597 42.878 88.6011 43.076 88.4837 43.208C88.3664 43.34 88.1611 43.406 87.8677 43.406H85.7117ZM73.2817 36.828C73.0177 36.828 72.8197 36.7693 72.6877 36.652C72.5557 36.5347 72.4897 36.3293 72.4897 36.036V35.09C72.4897 34.7967 72.5557 34.5913 72.6877 34.474C72.8197 34.3567 73.0177 34.298 73.2817 34.298H76.1197V33.792C76.1197 33.528 76.1784 33.33 76.2957 33.198C76.4131 33.066 76.6184 33 76.9117 33H79.0677C79.3611 33 79.5664 33.066 79.6837 33.198C79.8011 33.33 79.8597 33.528 79.8597 33.792V34.298H82.6977C82.9617 34.298 83.1597 34.3567 83.2917 34.474C83.4237 34.5913 83.4897 34.7967 83.4897 35.09V36.036C83.4897 36.3293 83.4237 36.5347 83.2917 36.652C83.1597 36.7693 82.9617 36.828 82.6977 36.828H73.2817ZM76.4717 48.906H85.7997V47.3H76.4717V48.906ZM79.5077 40.502C79.5077 40.2087 79.4124 40.0107 79.2217 39.908C79.0457 39.8053 78.7817 39.754 78.4297 39.754H77.5497C77.1977 39.754 76.9264 39.8053 76.7357 39.908C76.5597 40.0107 76.4717 40.2087 76.4717 40.502C76.4717 40.7953 76.5597 40.9933 76.7357 41.096C76.9264 41.1987 77.1977 41.25 77.5497 41.25H78.4297C78.7817 41.25 79.0457 41.1987 79.2217 41.096C79.4124 40.9933 79.5077 40.7953 79.5077 40.502Z" fill="#333333"/>
<path d="M102.676 51.436C102.383 51.436 102.178 51.37 102.06 51.238C101.943 51.106 101.884 50.908 101.884 50.644V43.274H100.806C100.66 44.2273 100.462 45.078 100.212 45.826C99.9777 46.5593 99.677 47.2267 99.3103 47.828C98.9437 48.4147 98.5037 48.9427 97.9903 49.412C97.4917 49.896 96.9123 50.3507 96.2523 50.776C96.0617 50.8933 95.9517 50.9007 95.9223 50.798C95.9077 50.71 95.9003 50.5633 95.9003 50.358V47.454C95.9003 47.2927 95.9443 47.168 96.0323 47.08C96.1203 46.9773 96.2303 46.86 96.3623 46.728C96.6263 46.4493 96.861 46.1193 97.0663 45.738C97.2863 45.3567 97.4697 44.836 97.6163 44.176C97.763 43.5013 97.873 42.636 97.9463 41.58C98.0343 40.5093 98.0783 39.16 98.0783 37.532V35.442H96.8243V37.202C96.8243 39.138 96.7437 40.8027 96.5823 42.196C96.4357 43.5893 96.1717 44.7993 95.7903 45.826C95.4237 46.8527 94.925 47.7327 94.2943 48.466C93.6637 49.1847 92.879 49.8447 91.9403 50.446C91.7497 50.5633 91.6397 50.5707 91.6103 50.468C91.5957 50.38 91.5883 50.2333 91.5883 50.028V47.124C91.5883 46.9627 91.6323 46.838 91.7203 46.75C91.8083 46.6473 91.9183 46.53 92.0503 46.398C92.3143 46.1193 92.549 45.7893 92.7543 45.408C92.9743 45.0267 93.1577 44.506 93.3043 43.846C93.451 43.1713 93.561 42.306 93.6343 41.25C93.7223 40.1793 93.7663 38.83 93.7663 37.202V35.442H92.3803C92.1163 35.442 91.9183 35.3833 91.7863 35.266C91.6543 35.1487 91.5883 34.9433 91.5883 34.65V33.792C91.5883 33.4987 91.6543 33.2933 91.7863 33.176C91.9183 33.0587 92.1163 33 92.3803 33H100.344C100.638 33 100.843 33.066 100.96 33.198C101.078 33.33 101.136 33.528 101.136 33.792V37.532C101.136 37.9133 101.129 38.28 101.114 38.632C101.114 38.9693 101.107 39.3067 101.092 39.644H101.884V33.792C101.884 33.528 101.943 33.33 102.06 33.198C102.178 33.066 102.383 33 102.676 33H104.106C104.4 33 104.605 33.066 104.722 33.198C104.84 33.33 104.898 33.528 104.898 33.792V50.644C104.898 50.908 104.84 51.106 104.722 51.238C104.605 51.37 104.4 51.436 104.106 51.436H102.676ZM106.68 51.436C106.387 51.436 106.182 51.37 106.064 51.238C105.947 51.106 105.888 50.908 105.888 50.644V33.792C105.888 33.528 105.947 33.33 106.064 33.198C106.182 33.066 106.387 33 106.68 33H108.11C108.404 33 108.609 33.066 108.726 33.198C108.844 33.33 108.902 33.528 108.902 33.792V50.644C108.902 50.908 108.844 51.106 108.726 51.238C108.609 51.37 108.404 51.436 108.11 51.436H106.68Z" fill="#333333"/>
<path d="M117.14 48.004C117.14 47.8133 117.169 47.6887 117.228 47.63C117.301 47.5567 117.426 47.4833 117.602 47.41C118.57 47.0433 119.421 46.5813 120.154 46.024C120.887 45.4667 121.503 44.792 122.002 44C122.501 43.1933 122.875 42.262 123.124 41.206C123.373 40.1353 123.498 38.9107 123.498 37.532V35.552H117.932C117.668 35.552 117.47 35.4933 117.338 35.376C117.206 35.2587 117.14 35.0533 117.14 34.76V33.792C117.14 33.4987 117.206 33.2933 117.338 33.176C117.47 33.0587 117.668 33 117.932 33H126.446C126.739 33 126.945 33.066 127.062 33.198C127.179 33.33 127.238 33.528 127.238 33.792V37.532C127.238 39.3653 127.033 41.0007 126.622 42.438C126.211 43.8607 125.603 45.1147 124.796 46.2C123.989 47.2707 122.999 48.1873 121.826 48.95C120.653 49.7127 119.296 50.336 117.756 50.82C117.345 50.952 117.14 50.8127 117.14 50.402V48.004ZM130.12 51.436C129.827 51.436 129.621 51.37 129.504 51.238C129.387 51.106 129.328 50.908 129.328 50.644V33.792C129.328 33.528 129.387 33.33 129.504 33.198C129.621 33.066 129.827 33 130.12 33H132.276C132.569 33 132.775 33.066 132.892 33.198C133.009 33.33 133.068 33.528 133.068 33.792V40.744H134.322C134.586 40.744 134.784 40.8027 134.916 40.92C135.048 41.0373 135.114 41.2427 135.114 41.536V43.582C135.114 43.8753 135.048 44.0807 134.916 44.198C134.784 44.3153 134.586 44.374 134.322 44.374H133.068V50.644C133.068 50.908 133.009 51.106 132.892 51.238C132.775 51.37 132.569 51.436 132.276 51.436H130.12Z" fill="#333333"/>
<path d="M146.645 51.436C146.351 51.436 146.146 51.37 146.029 51.238C145.911 51.106 145.853 50.908 145.853 50.644V43.274H143.917C143.462 45.1807 142.677 46.75 141.563 47.982C140.448 49.1993 138.893 50.1453 136.899 50.82C136.488 50.952 136.283 50.8127 136.283 50.402V48.004C136.283 47.8133 136.312 47.6887 136.371 47.63C136.429 47.5567 136.554 47.4833 136.745 47.41C138.299 46.8233 139.407 45.7233 140.067 44.11C140.741 42.482 141.079 40.2893 141.079 37.532V35.552H137.075C136.811 35.552 136.613 35.4933 136.481 35.376C136.349 35.2587 136.283 35.0533 136.283 34.76V33.792C136.283 33.4987 136.349 33.2933 136.481 33.176C136.613 33.0587 136.811 33 137.075 33H143.697C143.99 33 144.195 33.066 144.313 33.198C144.43 33.33 144.489 33.528 144.489 33.792V37.532C144.489 38.28 144.467 38.984 144.423 39.644H145.853V33.792C145.853 33.528 145.911 33.33 146.029 33.198C146.146 33.066 146.351 33 146.645 33H148.295C148.588 33 148.793 33.066 148.911 33.198C149.028 33.33 149.087 33.528 149.087 33.792V50.644C149.087 50.908 149.028 51.106 148.911 51.238C148.793 51.37 148.588 51.436 148.295 51.436H146.645ZM150.869 51.436C150.575 51.436 150.37 51.37 150.253 51.238C150.135 51.106 150.077 50.908 150.077 50.644V33.792C150.077 33.528 150.135 33.33 150.253 33.198C150.37 33.066 150.575 33 150.869 33H152.519C152.812 33 153.017 33.066 153.135 33.198C153.252 33.33 153.311 33.528 153.311 33.792V50.644C153.311 50.908 153.252 51.106 153.135 51.238C153.017 51.37 152.812 51.436 152.519 51.436H150.869Z" fill="#333333"/>
<path d="M156.371 43.428C156.107 43.428 155.909 43.3693 155.777 43.252C155.645 43.1347 155.579 42.9293 155.579 42.636V41.8C155.579 41.5067 155.645 41.3013 155.777 41.184C155.909 41.0667 156.107 41.008 156.371 41.008H171.925C172.189 41.008 172.387 41.0667 172.519 41.184C172.651 41.3013 172.717 41.5067 172.717 41.8V42.636C172.717 42.9293 172.651 43.1347 172.519 43.252C172.387 43.3693 172.189 43.428 171.925 43.428H156.371ZM155.579 47.52C155.579 47.256 155.638 47.058 155.755 46.926C155.872 46.794 156.078 46.728 156.371 46.728H168.977V46.112H156.261C156.012 46.112 155.836 46.0753 155.733 46.002C155.63 45.9287 155.579 45.7747 155.579 45.54V44.682C155.579 44.4473 155.63 44.2933 155.733 44.22C155.836 44.1467 156.012 44.11 156.261 44.11H171.925C172.218 44.11 172.424 44.176 172.541 44.308C172.658 44.44 172.717 44.638 172.717 44.902V47.938C172.717 48.202 172.658 48.4 172.541 48.532C172.424 48.664 172.218 48.73 171.925 48.73H159.319V49.434H172.035C172.284 49.434 172.46 49.4707 172.563 49.544C172.666 49.6173 172.717 49.7713 172.717 50.006V50.864C172.717 51.0987 172.666 51.2527 172.563 51.326C172.46 51.3993 172.284 51.436 172.035 51.436H156.371C156.078 51.436 155.872 51.37 155.755 51.238C155.638 51.106 155.579 50.908 155.579 50.644V47.52ZM155.579 36.454C155.579 36.19 155.638 35.992 155.755 35.86C155.872 35.728 156.078 35.662 156.371 35.662H169.087V35.002H156.261C156.012 35.002 155.836 34.9653 155.733 34.892C155.63 34.8187 155.579 34.6647 155.579 34.43V33.572C155.579 33.3373 155.63 33.1833 155.733 33.11C155.836 33.0367 156.012 33 156.261 33H171.925C172.218 33 172.424 33.066 172.541 33.198C172.658 33.33 172.717 33.528 172.717 33.792V36.85C172.717 37.114 172.658 37.312 172.541 37.444C172.424 37.576 172.218 37.642 171.925 37.642H159.209V38.302H172.035C172.284 38.302 172.46 38.3387 172.563 38.412C172.666 38.4853 172.717 38.6393 172.717 38.874V39.688C172.717 39.9227 172.666 40.0767 172.563 40.15C172.46 40.2233 172.284 40.26 172.035 40.26H156.371C156.078 40.26 155.872 40.194 155.755 40.062C155.638 39.93 155.579 39.732 155.579 39.468V36.454Z" fill="#333333"/>
<path d="M184.761 39.732C184.203 39.732 183.683 39.666 183.199 39.534C182.729 39.402 182.319 39.204 181.967 38.94C181.615 38.6613 181.336 38.3093 181.131 37.884C180.94 37.4587 180.845 36.9527 180.845 36.366C180.845 35.794 180.94 35.2953 181.131 34.87C181.336 34.4447 181.615 34.0927 181.967 33.814C182.319 33.5353 182.729 33.33 183.199 33.198C183.683 33.066 184.211 33 184.783 33H194.045C194.617 33 195.137 33.066 195.607 33.198C196.091 33.33 196.509 33.5353 196.861 33.814C197.213 34.0927 197.484 34.4447 197.675 34.87C197.88 35.2953 197.983 35.794 197.983 36.366C197.983 36.9527 197.88 37.4587 197.675 37.884C197.484 38.3093 197.213 38.6613 196.861 38.94C196.509 39.204 196.091 39.402 195.607 39.534C195.137 39.666 194.624 39.732 194.067 39.732H184.761ZM191.273 43.736V46.464C191.273 46.728 191.214 46.926 191.097 47.058C190.979 47.19 190.774 47.256 190.481 47.256H188.347C188.053 47.256 187.848 47.19 187.731 47.058C187.613 46.926 187.555 46.728 187.555 46.464V43.736H181.637C181.373 43.736 181.175 43.6773 181.043 43.56C180.911 43.4427 180.845 43.2373 180.845 42.944V41.998C180.845 41.7047 180.911 41.4993 181.043 41.382C181.175 41.2647 181.373 41.206 181.637 41.206H197.191C197.455 41.206 197.653 41.2647 197.785 41.382C197.917 41.4993 197.983 41.7047 197.983 41.998V42.944C197.983 43.2373 197.917 43.4427 197.785 43.56C197.653 43.6773 197.455 43.736 197.191 43.736H191.273ZM197.983 50.644C197.983 50.908 197.924 51.106 197.807 51.238C197.689 51.37 197.484 51.436 197.191 51.436H181.637C181.343 51.436 181.138 51.37 181.021 51.238C180.903 51.106 180.845 50.908 180.845 50.644V46.31C180.845 46.046 180.903 45.848 181.021 45.716C181.138 45.584 181.343 45.518 181.637 45.518H183.793C184.086 45.518 184.291 45.584 184.409 45.716C184.526 45.848 184.585 46.046 184.585 46.31V48.906H197.191C197.484 48.906 197.689 48.972 197.807 49.104C197.924 49.236 197.983 49.434 197.983 49.698V50.644ZM193.539 37.18C193.876 37.18 194.111 37.1067 194.243 36.96C194.375 36.8133 194.441 36.6153 194.441 36.366C194.441 35.8233 194.14 35.552 193.539 35.552H185.289C184.687 35.552 184.387 35.8233 184.387 36.366C184.387 36.6153 184.453 36.8133 184.585 36.96C184.717 37.1067 184.951 37.18 185.289 37.18H193.539Z" fill="#333333"/>
<path d="M203.991 51.436C203.405 51.436 202.855 51.392 202.341 51.304C201.843 51.216 201.41 51.0473 201.043 50.798C200.677 50.5633 200.383 50.2187 200.163 49.764C199.958 49.324 199.855 48.752 199.855 48.048C199.855 47.3733 199.958 46.8087 200.163 46.354C200.369 45.8993 200.655 45.54 201.021 45.276C201.403 45.012 201.843 44.8287 202.341 44.726C202.84 44.6087 203.39 44.55 203.991 44.55H212.813C213.415 44.55 213.965 44.6087 214.463 44.726C214.977 44.8287 215.417 45.012 215.783 45.276C216.165 45.54 216.458 45.8993 216.663 46.354C216.869 46.8087 216.971 47.3733 216.971 48.048C216.971 48.752 216.861 49.324 216.641 49.764C216.436 50.2187 216.15 50.5633 215.783 50.798C215.417 51.0473 214.977 51.216 214.463 51.304C213.95 51.392 213.4 51.436 212.813 51.436H203.991ZM210.041 39.028C210.041 39.7027 209.902 40.2747 209.623 40.744C209.345 41.2133 208.963 41.602 208.479 41.91C208.01 42.2033 207.46 42.416 206.829 42.548C206.199 42.68 205.531 42.746 204.827 42.746C204.138 42.746 203.478 42.68 202.847 42.548C202.217 42.416 201.659 42.2033 201.175 41.91C200.706 41.602 200.325 41.2133 200.031 40.744C199.753 40.2747 199.613 39.7027 199.613 39.028V36.718C199.613 36.0433 199.753 35.4713 200.031 35.002C200.325 34.5327 200.706 34.1513 201.175 33.858C201.659 33.55 202.217 33.33 202.847 33.198C203.478 33.066 204.138 33 204.827 33C205.531 33 206.199 33.066 206.829 33.198C207.46 33.33 208.01 33.55 208.479 33.858C208.963 34.1513 209.345 34.5327 209.623 35.002C209.902 35.4713 210.041 36.0433 210.041 36.718V39.028ZM213.693 42.746C213.4 42.746 213.195 42.68 213.077 42.548C212.96 42.416 212.901 42.218 212.901 41.954V41.14H211.603C211.339 41.14 211.141 41.0813 211.009 40.964C210.877 40.8467 210.811 40.6413 210.811 40.348V39.38C210.811 39.0867 210.877 38.8813 211.009 38.764C211.141 38.6467 211.339 38.588 211.603 38.588H212.901V37.18H211.603C211.339 37.18 211.141 37.1213 211.009 37.004C210.877 36.8867 210.811 36.6813 210.811 36.388V35.42C210.811 35.1267 210.877 34.9213 211.009 34.804C211.141 34.6867 211.339 34.628 211.603 34.628H212.901V33.792C212.901 33.528 212.96 33.33 213.077 33.198C213.195 33.066 213.4 33 213.693 33H215.849C216.143 33 216.348 33.066 216.465 33.198C216.583 33.33 216.641 33.528 216.641 33.792V41.954C216.641 42.218 216.583 42.416 216.465 42.548C216.348 42.68 216.143 42.746 215.849 42.746H213.693ZM212.373 48.884C212.945 48.884 213.231 48.598 213.231 48.026C213.231 47.7327 213.158 47.5053 213.011 47.344C212.879 47.1827 212.667 47.102 212.373 47.102H204.431C204.153 47.102 203.94 47.1827 203.793 47.344C203.661 47.5053 203.595 47.7327 203.595 48.026C203.595 48.598 203.874 48.884 204.431 48.884H212.373ZM206.411 36.894C206.411 36.3953 206.265 36.036 205.971 35.816C205.678 35.5813 205.297 35.464 204.827 35.464C204.358 35.464 203.977 35.5813 203.683 35.816C203.39 36.036 203.243 36.3953 203.243 36.894V38.852C203.243 39.3507 203.39 39.7173 203.683 39.952C203.977 40.172 204.358 40.282 204.827 40.282C205.297 40.282 205.678 40.172 205.971 39.952C206.265 39.7173 206.411 39.3507 206.411 38.852V36.894Z" fill="#333333"/>
<path d="M218.976 43.296C218.976 42.6067 219.049 42.0053 219.196 41.492C219.357 40.9787 219.629 40.5533 220.01 40.216C220.391 39.8787 220.912 39.6293 221.572 39.468C222.232 39.292 223.061 39.204 224.058 39.204C225.055 39.204 225.877 39.292 226.522 39.468C227.182 39.6293 227.703 39.8787 228.084 40.216C228.48 40.5533 228.751 40.9787 228.898 41.492C229.059 42.0053 229.14 42.6067 229.14 43.296V46.904C229.14 47.5933 229.059 48.1947 228.898 48.708C228.751 49.2213 228.48 49.6467 228.084 49.984C227.703 50.3213 227.182 50.5707 226.522 50.732C225.877 50.908 225.055 50.996 224.058 50.996C223.061 50.996 222.232 50.908 221.572 50.732C220.912 50.5707 220.391 50.3213 220.01 49.984C219.629 49.6467 219.357 49.2213 219.196 48.708C219.049 48.1947 218.976 47.5933 218.976 46.904V43.296ZM231.956 51.436C231.663 51.436 231.457 51.37 231.34 51.238C231.223 51.106 231.164 50.908 231.164 50.644V33.792C231.164 33.528 231.223 33.33 231.34 33.198C231.457 33.066 231.663 33 231.956 33H234.112C234.405 33 234.611 33.066 234.728 33.198C234.845 33.33 234.904 33.528 234.904 33.792V40.744H236.158C236.422 40.744 236.62 40.8027 236.752 40.92C236.884 41.0373 236.95 41.2427 236.95 41.536V43.582C236.95 43.8753 236.884 44.0807 236.752 44.198C236.62 44.3153 236.422 44.374 236.158 44.374H234.904V50.644C234.904 50.908 234.845 51.106 234.728 51.238C234.611 51.37 234.405 51.436 234.112 51.436H231.956ZM219.35 37.268C219.086 37.268 218.888 37.2093 218.756 37.092C218.624 36.9747 218.558 36.7693 218.558 36.476V35.574C218.558 35.2807 218.624 35.0753 218.756 34.958C218.888 34.8407 219.086 34.782 219.35 34.782H222.188V33.792C222.188 33.528 222.247 33.33 222.364 33.198C222.481 33.066 222.687 33 222.98 33H225.136C225.429 33 225.635 33.066 225.752 33.198C225.869 33.33 225.928 33.528 225.928 33.792V34.782H228.766C229.03 34.782 229.228 34.8407 229.36 34.958C229.492 35.0753 229.558 35.2807 229.558 35.574V36.476C229.558 36.7693 229.492 36.9747 229.36 37.092C229.228 37.2093 229.03 37.268 228.766 37.268H219.35ZM222.716 46.926C222.716 47.19 222.723 47.432 222.738 47.652C222.767 47.872 222.826 48.0553 222.914 48.202C223.017 48.3487 223.156 48.466 223.332 48.554C223.508 48.6273 223.75 48.664 224.058 48.664C224.366 48.664 224.608 48.6273 224.784 48.554C224.96 48.466 225.092 48.3487 225.18 48.202C225.283 48.0553 225.341 47.872 225.356 47.652C225.385 47.432 225.4 47.19 225.4 46.926V43.274C225.4 43.01 225.385 42.768 225.356 42.548C225.341 42.328 225.283 42.1447 225.18 41.998C225.092 41.8513 224.96 41.7413 224.784 41.668C224.608 41.58 224.366 41.536 224.058 41.536C223.75 41.536 223.508 41.58 223.332 41.668C223.156 41.7413 223.017 41.8513 222.914 41.998C222.826 42.1447 222.767 42.328 222.738 42.548C222.723 42.768 222.716 43.01 222.716 43.274V46.926Z" fill="#333333"/>
<path d="M255.388 38.918C255.388 39.182 255.33 39.38 255.212 39.512C255.095 39.644 254.89 39.71 254.596 39.71H239.064C238.771 39.71 238.566 39.644 238.448 39.512C238.331 39.38 238.272 39.182 238.272 38.918V33.792C238.272 33.528 238.331 33.33 238.448 33.198C238.566 33.066 238.771 33 239.064 33H241.22C241.514 33 241.719 33.066 241.836 33.198C241.954 33.33 242.012 33.528 242.012 33.792V37.158H254.596C254.89 37.158 255.095 37.224 255.212 37.356C255.33 37.488 255.388 37.686 255.388 37.95V38.918ZM239.064 43.846C238.8 43.846 238.602 43.7873 238.47 43.67C238.338 43.5527 238.272 43.3473 238.272 43.054V42.108C238.272 41.8147 238.338 41.6093 238.47 41.492C238.602 41.3747 238.8 41.316 239.064 41.316H254.618C254.882 41.316 255.08 41.3747 255.212 41.492C255.344 41.6093 255.41 41.8147 255.41 42.108V43.054C255.41 43.3473 255.344 43.5527 255.212 43.67C255.08 43.7873 254.882 43.846 254.618 43.846H239.064ZM255.41 50.644C255.41 50.908 255.352 51.106 255.234 51.238C255.117 51.37 254.912 51.436 254.618 51.436H239.064C238.771 51.436 238.566 51.37 238.448 51.238C238.331 51.106 238.272 50.908 238.272 50.644V46.31C238.272 46.046 238.331 45.848 238.448 45.716C238.566 45.584 238.771 45.518 239.064 45.518H241.22C241.514 45.518 241.719 45.584 241.836 45.716C241.954 45.848 242.012 46.046 242.012 46.31V48.906H254.618C254.912 48.906 255.117 48.972 255.234 49.104C255.352 49.236 255.41 49.434 255.41 49.698V50.644Z" fill="#333333"/>
<path d="M277.97 51.436C277.677 51.436 277.471 51.37 277.354 51.238C277.237 51.106 277.178 50.908 277.178 50.644V44.374H276.188V50.644C276.188 50.908 276.129 51.106 276.012 51.238C275.895 51.37 275.689 51.436 275.396 51.436H273.746C273.453 51.436 273.247 51.37 273.13 51.238C273.013 51.106 272.954 50.908 272.954 50.644V33.792C272.954 33.528 273.013 33.33 273.13 33.198C273.247 33.066 273.453 33 273.746 33H275.396C275.689 33 275.895 33.066 276.012 33.198C276.129 33.33 276.188 33.528 276.188 33.792V40.744H277.178V33.792C277.178 33.528 277.237 33.33 277.354 33.198C277.471 33.066 277.677 33 277.97 33H279.62C279.913 33 280.119 33.066 280.236 33.198C280.353 33.33 280.412 33.528 280.412 33.792V50.644C280.412 50.908 280.353 51.106 280.236 51.238C280.119 51.37 279.913 51.436 279.62 51.436H277.97ZM263.384 48.004C263.384 47.8133 263.413 47.6887 263.472 47.63C263.531 47.5567 263.655 47.4833 263.846 47.41C264.902 47.014 265.745 46.3833 266.376 45.518C267.021 44.638 267.491 43.5087 267.784 42.13H264.396C264.132 42.13 263.934 42.0713 263.802 41.954C263.67 41.8367 263.604 41.6313 263.604 41.338V40.392C263.604 40.0987 263.67 39.8933 263.802 39.776C263.934 39.6587 264.132 39.6 264.396 39.6H268.114C268.158 38.9693 268.18 38.28 268.18 37.532V35.552H264.176C263.912 35.552 263.714 35.4933 263.582 35.376C263.45 35.2587 263.384 35.0533 263.384 34.76V33.792C263.384 33.4987 263.45 33.2933 263.582 33.176C263.714 33.0587 263.912 33 264.176 33H270.798C271.091 33 271.297 33.066 271.414 33.198C271.531 33.33 271.59 33.528 271.59 33.792V37.532C271.59 39.3653 271.458 41.0007 271.194 42.438C270.945 43.8607 270.519 45.1147 269.918 46.2C269.331 47.2707 268.554 48.1873 267.586 48.95C266.618 49.7127 265.423 50.336 264 50.82C263.589 50.952 263.384 50.8127 263.384 50.402V48.004Z" fill="#333333"/>
<path d="M282.527 37.444C282.527 37.18 282.585 36.982 282.703 36.85C282.82 36.718 283.025 36.652 283.319 36.652H288.775V35.398H283.319C283.025 35.398 282.82 35.332 282.703 35.2C282.585 35.068 282.527 34.87 282.527 34.606V33.792C282.527 33.528 282.585 33.33 282.703 33.198C282.82 33.066 283.025 33 283.319 33H291.723C292.016 33 292.221 33.066 292.339 33.198C292.456 33.33 292.515 33.528 292.515 33.792V38.302C292.515 38.566 292.456 38.764 292.339 38.896C292.221 39.028 292.016 39.094 291.723 39.094H286.267V40.348H291.723C292.016 40.348 292.221 40.414 292.339 40.546C292.456 40.678 292.515 40.876 292.515 41.14V41.954C292.515 42.218 292.456 42.416 292.339 42.548C292.221 42.68 292.016 42.746 291.723 42.746H283.319C283.025 42.746 282.82 42.68 282.703 42.548C282.585 42.416 282.527 42.218 282.527 41.954V37.444ZM282.527 45.342C282.527 45.078 282.585 44.88 282.703 44.748C282.82 44.616 283.025 44.55 283.319 44.55H298.543C298.836 44.55 299.041 44.616 299.159 44.748C299.276 44.88 299.335 45.078 299.335 45.342V50.644C299.335 50.908 299.276 51.106 299.159 51.238C299.041 51.37 298.836 51.436 298.543 51.436H296.387C296.093 51.436 295.888 51.37 295.771 51.238C295.653 51.106 295.595 50.908 295.595 50.644V47.102H283.319C283.025 47.102 282.82 47.036 282.703 46.904C282.585 46.772 282.527 46.574 282.527 46.31V45.342ZM296.387 42.746C296.093 42.746 295.888 42.68 295.771 42.548C295.653 42.416 295.595 42.218 295.595 41.954V33.792C295.595 33.528 295.653 33.33 295.771 33.198C295.888 33.066 296.093 33 296.387 33H298.543C298.836 33 299.041 33.066 299.159 33.198C299.276 33.33 299.335 33.528 299.335 33.792V41.954C299.335 42.218 299.276 42.416 299.159 42.548C299.041 42.68 298.836 42.746 298.543 42.746H296.387Z" fill="#333333"/>
<path d="M301.669 38.192C301.669 37.928 301.728 37.73 301.845 37.598C301.963 37.466 302.168 37.4 302.461 37.4H311.195C311.489 37.4 311.694 37.466 311.811 37.598C311.929 37.73 311.987 37.928 311.987 38.192V39.138C311.987 39.402 311.929 39.6 311.811 39.732C311.694 39.864 311.489 39.93 311.195 39.93H305.409V48.466H311.393C311.687 48.466 311.892 48.532 312.009 48.664C312.127 48.796 312.185 48.994 312.185 49.258V50.204C312.185 50.468 312.127 50.666 312.009 50.798C311.892 50.93 311.687 50.996 311.393 50.996H302.461C302.168 50.996 301.963 50.93 301.845 50.798C301.728 50.666 301.669 50.468 301.669 50.204V38.192ZM315.529 51.436C315.236 51.436 315.031 51.37 314.913 51.238C314.796 51.106 314.737 50.908 314.737 50.644V45.694H311.899C311.635 45.694 311.437 45.6353 311.305 45.518C311.173 45.4007 311.107 45.1953 311.107 44.902V42.856C311.107 42.5627 311.173 42.3573 311.305 42.24C311.437 42.1227 311.635 42.064 311.899 42.064H314.737V33.792C314.737 33.528 314.796 33.33 314.913 33.198C315.031 33.066 315.236 33 315.529 33H317.685C317.979 33 318.184 33.066 318.301 33.198C318.419 33.33 318.477 33.528 318.477 33.792V50.644C318.477 50.908 318.419 51.106 318.301 51.238C318.184 51.37 317.979 51.436 317.685 51.436H315.529ZM302.461 35.53C302.197 35.53 301.999 35.4713 301.867 35.354C301.735 35.2367 301.669 35.0313 301.669 34.738V33.792C301.669 33.4987 301.735 33.2933 301.867 33.176C301.999 33.0587 302.197 33 302.461 33H311.195C311.459 33 311.657 33.0587 311.789 33.176C311.921 33.2933 311.987 33.4987 311.987 33.792V34.738C311.987 35.0313 311.921 35.2367 311.789 35.354C311.657 35.4713 311.459 35.53 311.195 35.53H302.461Z" fill="#333333"/>
<path d="M322.308 51.436C322.014 51.436 321.809 51.37 321.692 51.238C321.575 51.106 321.516 50.908 321.516 50.644V48.598C321.516 48.334 321.575 48.136 321.692 48.004C321.809 47.872 322.014 47.806 322.308 47.806H324.244C324.537 47.806 324.742 47.872 324.86 48.004C324.977 48.136 325.036 48.334 325.036 48.598V50.644C325.036 50.908 324.977 51.106 324.86 51.238C324.742 51.37 324.537 51.436 324.244 51.436H322.308Z" fill="#333333"/>
<path d="M47.6201 79.838C47.6201 79.574 47.6788 79.376 47.7961 79.244C47.9134 79.112 48.1188 79.046 48.4121 79.046H61.0181V78.21H48.3021C47.8474 78.21 47.6201 77.9973 47.6201 77.572V76.604C47.6201 76.1787 47.8474 75.966 48.3021 75.966H54.3301V75.174H48.4121C48.1481 75.174 47.9501 75.1153 47.8181 74.998C47.6861 74.8807 47.6201 74.6753 47.6201 74.382V73.524C47.6201 73.2307 47.6861 73.0253 47.8181 72.908C47.9501 72.7907 48.1481 72.732 48.4121 72.732H63.9661C64.2301 72.732 64.4281 72.7907 64.5601 72.908C64.6921 73.0253 64.7581 73.2307 64.7581 73.524V74.382C64.7581 74.6753 64.6921 74.8807 64.5601 74.998C64.4281 75.1153 64.2301 75.174 63.9661 75.174H58.0481V75.966H63.9661C64.2595 75.966 64.4648 76.032 64.5821 76.164C64.6994 76.296 64.7581 76.494 64.7581 76.758V80.52C64.7581 80.784 64.6994 80.982 64.5821 81.114C64.4648 81.246 64.2595 81.312 63.9661 81.312H51.3601V82.214H64.0761C64.5308 82.214 64.7581 82.4267 64.7581 82.852V83.798C64.7581 84.2233 64.5308 84.436 64.0761 84.436H48.4121C48.1188 84.436 47.9134 84.37 47.7961 84.238C47.6788 84.106 47.6201 83.908 47.6201 83.644V79.838ZM47.6201 66.792C47.6201 66.528 47.6788 66.33 47.7961 66.198C47.9134 66.066 48.1188 66 48.4121 66H63.9661C64.2595 66 64.4648 66.066 64.5821 66.198C64.6994 66.33 64.7581 66.528 64.7581 66.792V67.54C64.7581 67.804 64.6994 68.002 64.5821 68.134C64.4648 68.266 64.2595 68.332 63.9661 68.332H51.3821V69.608H63.9661C64.2595 69.608 64.4648 69.674 64.5821 69.806C64.6994 69.938 64.7581 70.136 64.7581 70.4V71.148C64.7581 71.412 64.6994 71.61 64.5821 71.742C64.4648 71.874 64.2595 71.94 63.9661 71.94H48.4121C48.1188 71.94 47.9134 71.874 47.7961 71.742C47.6788 71.61 47.6201 71.412 47.6201 71.148V66.792Z" fill="#333333"/>
<path d="M83.3137 76.516V77.88H85.8657C86.4671 77.88 87.0171 77.924 87.5157 78.012C88.0291 78.1 88.4691 78.2613 88.8357 78.496C89.2171 78.7307 89.5104 79.068 89.7157 79.508C89.9211 79.9333 90.0237 80.4833 90.0237 81.158C90.0237 81.8473 89.9211 82.4047 89.7157 82.83C89.5104 83.2553 89.2171 83.5853 88.8357 83.82C88.4691 84.0547 88.0291 84.216 87.5157 84.304C87.0171 84.392 86.4671 84.436 85.8657 84.436H77.0217C76.4204 84.436 75.8704 84.392 75.3717 84.304C74.8731 84.216 74.4331 84.0547 74.0517 83.82C73.6851 83.5853 73.3991 83.2553 73.1937 82.83C72.9884 82.4047 72.8857 81.8473 72.8857 81.158C72.8857 80.4833 72.9884 79.9333 73.1937 79.508C73.3991 79.068 73.6851 78.7307 74.0517 78.496C74.4331 78.2613 74.8731 78.1 75.3717 78.012C75.8704 77.924 76.4204 77.88 77.0217 77.88H79.5957V76.516H73.6777C73.4137 76.516 73.2157 76.4573 73.0837 76.34C72.9517 76.2227 72.8857 76.0173 72.8857 75.724V74.756C72.8857 74.4627 72.9517 74.2573 73.0837 74.14C73.2157 74.0227 73.4137 73.964 73.6777 73.964H89.2317C89.4957 73.964 89.6937 74.0227 89.8257 74.14C89.9577 74.2573 90.0237 74.4627 90.0237 74.756V75.724C90.0237 76.0173 89.9577 76.2227 89.8257 76.34C89.6937 76.4573 89.4957 76.516 89.2317 76.516H83.3137ZM84.6997 68.53C85.3011 68.9113 86.0051 69.256 86.8117 69.564C87.6331 69.8573 88.5497 70.1287 89.5617 70.378C89.7377 70.422 89.8551 70.488 89.9137 70.576C89.9871 70.6493 90.0237 70.7813 90.0237 70.972V72.732C90.0237 73.0693 89.8184 73.2013 89.4077 73.128C88.8797 73.04 88.2857 72.908 87.6257 72.732C86.9804 72.556 86.3204 72.3507 85.6457 72.116C84.9857 71.8667 84.3404 71.6027 83.7097 71.324C83.0937 71.0453 82.5511 70.774 82.0817 70.51C82.0084 70.4807 81.9277 70.4513 81.8397 70.422C81.7517 70.378 81.6637 70.356 81.5757 70.356H81.3337C81.1431 70.356 80.9744 70.4073 80.8277 70.51C80.3584 70.774 79.8084 71.0453 79.1777 71.324C78.5617 71.6027 77.9164 71.8667 77.2417 72.116C76.5817 72.3507 75.9217 72.556 75.2617 72.732C74.6164 72.908 74.0297 73.04 73.5017 73.128C73.0911 73.2013 72.8857 73.0693 72.8857 72.732V70.972C72.8857 70.7813 72.9151 70.6493 72.9737 70.576C73.0471 70.488 73.1717 70.422 73.3477 70.378C74.3597 70.1287 75.2691 69.8573 76.0757 69.564C76.8971 69.256 77.6084 68.9113 78.2097 68.53H73.6777C73.4137 68.53 73.2157 68.4713 73.0837 68.354C72.9517 68.2367 72.8857 68.0313 72.8857 67.738V66.792C72.8857 66.4987 72.9517 66.2933 73.0837 66.176C73.2157 66.0587 73.4137 66 73.6777 66H89.2317C89.4957 66 89.6937 66.0587 89.8257 66.176C89.9577 66.2933 90.0237 66.4987 90.0237 66.792V67.738C90.0237 68.0313 89.9577 68.2367 89.8257 68.354C89.6937 68.4713 89.4957 68.53 89.2317 68.53H84.6997ZM76.6257 81.158C76.6257 81.4513 76.6917 81.642 76.8237 81.73C76.9704 81.8327 77.1831 81.884 77.4617 81.884H85.4257C85.7191 81.884 85.9317 81.8327 86.0637 81.73C86.2104 81.642 86.2837 81.4513 86.2837 81.158C86.2837 80.8647 86.2104 80.674 86.0637 80.586C85.9317 80.4833 85.7191 80.432 85.4257 80.432H77.4617C77.1831 80.432 76.9704 80.4833 76.8237 80.586C76.6917 80.674 76.6257 80.8647 76.6257 81.158Z" fill="#333333"/>
<path d="M114.937 74.052C114.937 74.316 114.879 74.514 114.761 74.646C114.644 74.778 114.439 74.844 114.145 74.844H99.2734C98.98 74.844 98.7747 74.778 98.6574 74.646C98.54 74.514 98.4814 74.316 98.4814 74.052V66.792C98.4814 66.528 98.54 66.33 98.6574 66.198C98.7747 66.066 98.98 66 99.2734 66H101.429C101.723 66 101.928 66.066 102.045 66.198C102.163 66.33 102.221 66.528 102.221 66.792V72.292H114.145C114.439 72.292 114.644 72.358 114.761 72.49C114.879 72.622 114.937 72.82 114.937 73.084V74.052ZM108.579 79.244V83.644C108.579 83.908 108.521 84.106 108.403 84.238C108.286 84.37 108.081 84.436 107.787 84.436H105.653C105.36 84.436 105.155 84.37 105.037 84.238C104.92 84.106 104.861 83.908 104.861 83.644V79.244H99.1634C98.8994 79.244 98.7014 79.1853 98.5694 79.068C98.4374 78.9507 98.3714 78.7453 98.3714 78.452V77.484C98.3714 77.1907 98.4374 76.9853 98.5694 76.868C98.7014 76.7507 98.8994 76.692 99.1634 76.692H114.277C114.541 76.692 114.739 76.7507 114.871 76.868C115.003 76.9853 115.069 77.1907 115.069 77.484V78.452C115.069 78.7453 115.003 78.9507 114.871 79.068C114.739 79.1853 114.541 79.244 114.277 79.244H108.579Z" fill="#333333"/>
<path d="M117.14 81.004C117.14 80.8133 117.169 80.6887 117.228 80.63C117.301 80.5567 117.426 80.4833 117.602 80.41C118.57 80.0433 119.421 79.5813 120.154 79.024C120.887 78.4667 121.503 77.792 122.002 77C122.501 76.1933 122.875 75.262 123.124 74.206C123.373 73.1353 123.498 71.9107 123.498 70.532V68.552H117.932C117.668 68.552 117.47 68.4933 117.338 68.376C117.206 68.2587 117.14 68.0533 117.14 67.76V66.792C117.14 66.4987 117.206 66.2933 117.338 66.176C117.47 66.0587 117.668 66 117.932 66H126.446C126.739 66 126.945 66.066 127.062 66.198C127.179 66.33 127.238 66.528 127.238 66.792V70.532C127.238 72.3653 127.033 74.0007 126.622 75.438C126.211 76.8607 125.603 78.1147 124.796 79.2C123.989 80.2707 122.999 81.1873 121.826 81.95C120.653 82.7127 119.296 83.336 117.756 83.82C117.345 83.952 117.14 83.8127 117.14 83.402V81.004ZM130.12 84.436C129.827 84.436 129.621 84.37 129.504 84.238C129.387 84.106 129.328 83.908 129.328 83.644V66.792C129.328 66.528 129.387 66.33 129.504 66.198C129.621 66.066 129.827 66 130.12 66H132.276C132.569 66 132.775 66.066 132.892 66.198C133.009 66.33 133.068 66.528 133.068 66.792V73.744H134.322C134.586 73.744 134.784 73.8027 134.916 73.92C135.048 74.0373 135.114 74.2427 135.114 74.536V76.582C135.114 76.8753 135.048 77.0807 134.916 77.198C134.784 77.3153 134.586 77.374 134.322 77.374H133.068V83.644C133.068 83.908 133.009 84.106 132.892 84.238C132.775 84.37 132.569 84.436 132.276 84.436H130.12Z" fill="#333333"/>
<path d="M146.344 84.436C145.757 84.436 145.222 84.3847 144.738 84.282C144.254 84.194 143.843 84.0253 143.506 83.776C143.168 83.5267 142.904 83.1893 142.714 82.764C142.523 82.3533 142.428 81.818 142.428 81.158C142.428 80.5273 142.516 79.9993 142.692 79.574C142.882 79.134 143.146 78.782 143.484 78.518C143.836 78.254 144.246 78.0633 144.716 77.946C145.2 77.8287 145.742 77.77 146.344 77.77H155.606C156.207 77.77 156.75 77.8287 157.234 77.946C157.718 78.0633 158.128 78.254 158.466 78.518C158.818 78.782 159.082 79.134 159.258 79.574C159.448 79.9993 159.544 80.5273 159.544 81.158C159.544 81.818 159.448 82.3533 159.258 82.764C159.067 83.1893 158.803 83.5267 158.466 83.776C158.128 84.0253 157.71 84.194 157.212 84.282C156.728 84.3847 156.192 84.436 155.606 84.436H146.344ZM152.922 73.502C152.922 74.03 152.826 74.4773 152.636 74.844C152.46 75.2107 152.203 75.5187 151.866 75.768C151.528 76.0027 151.118 76.1787 150.634 76.296C150.164 76.3987 149.636 76.45 149.05 76.45H146.278C145.104 76.45 144.166 76.2227 143.462 75.768C142.758 75.2987 142.406 74.5433 142.406 73.502C142.406 72.4607 142.758 71.7127 143.462 71.258C144.166 70.7887 145.104 70.554 146.278 70.554H149.05C149.636 70.554 150.164 70.6127 150.634 70.73C151.118 70.8327 151.528 71.0087 151.866 71.258C152.203 71.4927 152.46 71.7933 152.636 72.16C152.826 72.5267 152.922 72.974 152.922 73.502ZM156.266 76.406C155.972 76.406 155.767 76.34 155.65 76.208C155.532 76.076 155.474 75.878 155.474 75.614V74.8H154.506C154.242 74.8 154.044 74.7413 153.912 74.624C153.78 74.5067 153.714 74.3013 153.714 74.008V73.04C153.714 72.7467 153.78 72.5413 153.912 72.424C154.044 72.3067 154.242 72.248 154.506 72.248H155.474V70.84H154.506C154.242 70.84 154.044 70.7813 153.912 70.664C153.78 70.5467 153.714 70.3413 153.714 70.048V69.08C153.714 68.7867 153.78 68.5813 153.912 68.464C154.044 68.3467 154.242 68.288 154.506 68.288H155.474V66.792C155.474 66.528 155.532 66.33 155.65 66.198C155.767 66.066 155.972 66 156.266 66H158.422C158.715 66 158.92 66.066 159.038 66.198C159.155 66.33 159.214 66.528 159.214 66.792V75.614C159.214 75.878 159.155 76.076 159.038 76.208C158.92 76.34 158.715 76.406 158.422 76.406H156.266ZM142.956 69.828C142.692 69.828 142.494 69.7693 142.362 69.652C142.23 69.5347 142.164 69.3293 142.164 69.036V68.09C142.164 67.7967 142.23 67.5913 142.362 67.474C142.494 67.3567 142.692 67.298 142.956 67.298H145.794V66.792C145.794 66.528 145.852 66.33 145.97 66.198C146.087 66.066 146.292 66 146.586 66H148.742C149.035 66 149.24 66.066 149.358 66.198C149.475 66.33 149.534 66.528 149.534 66.792V67.298H152.372C152.636 67.298 152.834 67.3567 152.966 67.474C153.098 67.5913 153.164 67.7967 153.164 68.09V69.036C153.164 69.3293 153.098 69.5347 152.966 69.652C152.834 69.7693 152.636 69.828 152.372 69.828H142.956ZM155.056 81.884C155.29 81.884 155.474 81.8107 155.606 81.664C155.738 81.532 155.804 81.356 155.804 81.136C155.804 80.9013 155.738 80.7107 155.606 80.564C155.474 80.4027 155.29 80.322 155.056 80.322H146.894C146.674 80.322 146.498 80.4027 146.366 80.564C146.234 80.7107 146.168 80.9013 146.168 81.136C146.168 81.356 146.234 81.532 146.366 81.664C146.498 81.8107 146.674 81.884 146.894 81.884H155.056ZM149.182 73.502C149.182 73.2087 149.086 73.0107 148.896 72.908C148.72 72.8053 148.456 72.754 148.104 72.754H147.224C146.872 72.754 146.6 72.8053 146.41 72.908C146.234 73.0107 146.146 73.2087 146.146 73.502C146.146 73.7953 146.234 73.9933 146.41 74.096C146.6 74.1987 146.872 74.25 147.224 74.25H148.104C148.456 74.25 148.72 74.1987 148.896 74.096C149.086 73.9933 149.182 73.7953 149.182 73.502Z" fill="#333333"/>
<path d="M171.756 72.028C171.756 72.7027 171.617 73.2747 171.338 73.744C171.059 74.2133 170.678 74.602 170.194 74.91C169.725 75.2033 169.175 75.416 168.544 75.548C167.913 75.68 167.246 75.746 166.542 75.746C165.853 75.746 165.193 75.68 164.562 75.548C163.931 75.416 163.374 75.2033 162.89 74.91C162.421 74.602 162.039 74.2133 161.746 73.744C161.467 73.2747 161.328 72.7027 161.328 72.028V69.718C161.328 69.0433 161.467 68.4713 161.746 68.002C162.039 67.5327 162.421 67.1513 162.89 66.858C163.374 66.55 163.931 66.33 164.562 66.198C165.193 66.066 165.853 66 166.542 66C167.246 66 167.913 66.066 168.544 66.198C169.175 66.33 169.725 66.55 170.194 66.858C170.678 67.1513 171.059 67.5327 171.338 68.002C171.617 68.4713 171.756 69.0433 171.756 69.718V72.028ZM168.126 69.894C168.126 69.3953 167.979 69.036 167.686 68.816C167.393 68.5813 167.011 68.464 166.542 68.464C166.073 68.464 165.691 68.5813 165.398 68.816C165.105 69.036 164.958 69.3953 164.958 69.894V71.852C164.958 72.3507 165.105 72.7173 165.398 72.952C165.691 73.172 166.073 73.282 166.542 73.282C167.011 73.282 167.393 73.172 167.686 72.952C167.979 72.7173 168.126 72.3507 168.126 71.852V69.894ZM175.408 77.946C175.115 77.946 174.909 77.88 174.792 77.748C174.675 77.616 174.616 77.418 174.616 77.154V66.792C174.616 66.528 174.675 66.33 174.792 66.198C174.909 66.066 175.115 66 175.408 66H177.564C177.857 66 178.063 66.066 178.18 66.198C178.297 66.33 178.356 66.528 178.356 66.792V77.154C178.356 77.418 178.297 77.616 178.18 77.748C178.063 77.88 177.857 77.946 177.564 77.946H175.408ZM178.796 83.644C178.796 83.908 178.737 84.106 178.62 84.238C178.503 84.37 178.297 84.436 178.004 84.436H162.34C162.047 84.436 161.841 84.37 161.724 84.238C161.607 84.106 161.548 83.908 161.548 83.644V78.43C161.548 78.166 161.607 77.968 161.724 77.836C161.841 77.704 162.047 77.638 162.34 77.638H164.496C164.789 77.638 164.995 77.704 165.112 77.836C165.229 77.968 165.288 78.166 165.288 78.43V81.884H178.004C178.297 81.884 178.503 81.95 178.62 82.082C178.737 82.214 178.796 82.412 178.796 82.676V83.644Z" fill="#333333"/>
<path d="M187.797 68.53V75.416C187.797 75.8267 187.892 76.23 188.083 76.626C188.273 77.0073 188.515 77.374 188.809 77.726C189.117 78.078 189.447 78.4007 189.799 78.694C190.151 78.9873 190.488 79.244 190.811 79.464C191.089 79.6547 191.229 79.9333 191.229 80.3V83.38C191.229 83.6 191.177 83.7247 191.075 83.754C190.972 83.798 190.847 83.7833 190.701 83.71C189.835 83.2407 188.992 82.6907 188.171 82.06C187.349 81.444 186.609 80.696 185.949 79.816C185.289 80.696 184.548 81.444 183.727 82.06C182.905 82.6907 182.069 83.2407 181.219 83.71C181.072 83.7833 180.947 83.798 180.845 83.754C180.742 83.7247 180.691 83.6 180.691 83.38V80.3C180.691 79.9333 180.83 79.6547 181.109 79.464C181.431 79.244 181.769 78.9873 182.121 78.694C182.473 78.4007 182.795 78.078 183.089 77.726C183.397 77.374 183.646 77.0073 183.837 76.626C184.027 76.23 184.123 75.8267 184.123 75.416V68.53H181.263C180.999 68.53 180.801 68.4713 180.669 68.354C180.537 68.2367 180.471 68.0313 180.471 67.738V66.792C180.471 66.4987 180.537 66.2933 180.669 66.176C180.801 66.0587 180.999 66 181.263 66H190.657C190.921 66 191.119 66.0587 191.251 66.176C191.383 66.2933 191.449 66.4987 191.449 66.792V67.738C191.449 68.0313 191.383 68.2367 191.251 68.354C191.119 68.4713 190.921 68.53 190.657 68.53H187.797ZM194.551 84.436C194.257 84.436 194.052 84.37 193.935 84.238C193.817 84.106 193.759 83.908 193.759 83.644V66.792C193.759 66.528 193.817 66.33 193.935 66.198C194.052 66.066 194.257 66 194.551 66H196.707C197 66 197.205 66.066 197.323 66.198C197.44 66.33 197.499 66.528 197.499 66.792V83.644C197.499 83.908 197.44 84.106 197.323 84.238C197.205 84.37 197 84.436 196.707 84.436H194.551Z" fill="#333333"/>
<path d="M217.103 71.918C217.103 72.182 217.045 72.38 216.927 72.512C216.81 72.644 216.605 72.71 216.311 72.71H200.779C200.486 72.71 200.281 72.644 200.163 72.512C200.046 72.38 199.987 72.182 199.987 71.918V66.792C199.987 66.528 200.046 66.33 200.163 66.198C200.281 66.066 200.486 66 200.779 66H202.935C203.229 66 203.434 66.066 203.551 66.198C203.669 66.33 203.727 66.528 203.727 66.792V70.158H216.311C216.605 70.158 216.81 70.224 216.927 70.356C217.045 70.488 217.103 70.686 217.103 70.95V71.918ZM200.779 76.846C200.515 76.846 200.317 76.7873 200.185 76.67C200.053 76.5527 199.987 76.3473 199.987 76.054V75.108C199.987 74.8147 200.053 74.6093 200.185 74.492C200.317 74.3747 200.515 74.316 200.779 74.316H216.333C216.597 74.316 216.795 74.3747 216.927 74.492C217.059 74.6093 217.125 74.8147 217.125 75.108V76.054C217.125 76.3473 217.059 76.5527 216.927 76.67C216.795 76.7873 216.597 76.846 216.333 76.846H200.779ZM217.125 83.644C217.125 83.908 217.067 84.106 216.949 84.238C216.832 84.37 216.627 84.436 216.333 84.436H200.779C200.486 84.436 200.281 84.37 200.163 84.238C200.046 84.106 199.987 83.908 199.987 83.644V79.31C199.987 79.046 200.046 78.848 200.163 78.716C200.281 78.584 200.486 78.518 200.779 78.518H202.935C203.229 78.518 203.434 78.584 203.551 78.716C203.669 78.848 203.727 79.046 203.727 79.31V81.906H216.333C216.627 81.906 216.832 81.972 216.949 82.104C217.067 82.236 217.125 82.434 217.125 82.698V83.644Z" fill="#333333"/>
<path d="M225.099 79.904C225.099 79.64 225.158 79.442 225.275 79.31C225.392 79.178 225.598 79.112 225.891 79.112H238.167V78.298H225.781C225.326 78.298 225.099 78.0853 225.099 77.66V76.692C225.099 76.2667 225.326 76.054 225.781 76.054H241.115C241.408 76.054 241.614 76.12 241.731 76.252C241.848 76.384 241.907 76.582 241.907 76.846V80.586C241.907 80.85 241.848 81.048 241.731 81.18C241.614 81.312 241.408 81.378 241.115 81.378H228.839V82.214H241.225C241.68 82.214 241.907 82.4267 241.907 82.852V83.798C241.907 84.2233 241.68 84.436 241.225 84.436H225.891C225.598 84.436 225.392 84.37 225.275 84.238C225.158 84.106 225.099 83.908 225.099 83.644V79.904ZM235.307 70.928C235.307 71.6027 235.168 72.1747 234.889 72.644C234.61 73.1133 234.229 73.502 233.745 73.81C233.276 74.1033 232.726 74.316 232.095 74.448C231.464 74.58 230.797 74.646 230.093 74.646C229.404 74.646 228.744 74.58 228.113 74.448C227.482 74.316 226.925 74.1033 226.441 73.81C225.972 73.502 225.59 73.1133 225.297 72.644C225.018 72.1747 224.879 71.6027 224.879 70.928V69.718C224.879 69.0433 225.018 68.4713 225.297 68.002C225.59 67.5327 225.972 67.1513 226.441 66.858C226.925 66.55 227.482 66.33 228.113 66.198C228.744 66.066 229.404 66 230.093 66C230.797 66 231.464 66.066 232.095 66.198C232.726 66.33 233.276 66.55 233.745 66.858C234.229 67.1513 234.61 67.5327 234.889 68.002C235.168 68.4713 235.307 69.0433 235.307 69.718V70.928ZM238.079 74.646C237.786 74.646 237.58 74.58 237.463 74.448C237.346 74.316 237.287 74.118 237.287 73.854V66.792C237.287 66.528 237.346 66.33 237.463 66.198C237.58 66.066 237.786 66 238.079 66H240.235C240.528 66 240.734 66.066 240.851 66.198C240.968 66.33 241.027 66.528 241.027 66.792V68.948H242.061C242.325 68.948 242.523 69.0067 242.655 69.124C242.787 69.2413 242.853 69.4467 242.853 69.74V70.708C242.853 71.0013 242.787 71.2067 242.655 71.324C242.523 71.4413 242.325 71.5 242.061 71.5H241.027V73.854C241.027 74.118 240.968 74.316 240.851 74.448C240.734 74.58 240.528 74.646 240.235 74.646H238.079ZM231.677 69.894C231.677 69.3953 231.53 69.036 231.237 68.816C230.944 68.5813 230.562 68.464 230.093 68.464C229.624 68.464 229.242 68.5813 228.949 68.816C228.656 69.036 228.509 69.3953 228.509 69.894V70.752C228.509 71.2507 228.656 71.6173 228.949 71.852C229.242 72.072 229.624 72.182 230.093 72.182C230.562 72.182 230.944 72.072 231.237 71.852C231.53 71.6173 231.677 71.2507 231.677 70.752V69.894Z" fill="#333333"/>
<path d="M266.799 74.646C266.227 74.47 265.589 74.2207 264.885 73.898C264.181 73.5753 263.477 73.2013 262.773 72.776C262.069 72.3507 261.387 71.8887 260.727 71.39C260.081 70.8767 259.531 70.356 259.077 69.828C258.607 70.3707 258.05 70.8913 257.405 71.39C256.774 71.8887 256.107 72.3507 255.403 72.776C254.699 73.2013 253.995 73.5753 253.291 73.898C252.587 74.2207 251.949 74.47 251.377 74.646C251.23 74.69 251.105 74.7047 251.003 74.69C250.9 74.6607 250.849 74.536 250.849 74.316V71.874C250.849 71.6833 250.885 71.5073 250.959 71.346C251.032 71.1847 251.135 71.082 251.267 71.038C251.853 70.8327 252.462 70.5467 253.093 70.18C253.738 69.7987 254.332 69.4027 254.875 68.992C255.417 68.5667 255.879 68.156 256.261 67.76C256.657 67.364 256.906 67.0413 257.009 66.792C257.126 66.5133 257.214 66.3153 257.273 66.198C257.331 66.066 257.507 66 257.801 66H260.375C260.668 66 260.844 66.066 260.903 66.198C260.961 66.33 261.049 66.528 261.167 66.792C261.269 67.0413 261.511 67.364 261.893 67.76C262.289 68.156 262.758 68.5667 263.301 68.992C263.843 69.4027 264.43 69.7987 265.061 70.18C265.706 70.5467 266.322 70.8327 266.909 71.038C267.041 71.082 267.143 71.1847 267.217 71.346C267.29 71.5073 267.327 71.6833 267.327 71.874V74.316C267.327 74.536 267.275 74.6607 267.173 74.69C267.07 74.7047 266.945 74.69 266.799 74.646ZM260.947 79.244V83.644C260.947 83.908 260.888 84.106 260.771 84.238C260.653 84.37 260.448 84.436 260.155 84.436H258.021C257.727 84.436 257.522 84.37 257.405 84.238C257.287 84.106 257.229 83.908 257.229 83.644V79.244H251.531C251.267 79.244 251.069 79.1853 250.937 79.068C250.805 78.9507 250.739 78.7453 250.739 78.452V77.484C250.739 77.1907 250.805 76.9853 250.937 76.868C251.069 76.7507 251.267 76.692 251.531 76.692H266.645C266.909 76.692 267.107 76.7507 267.239 76.868C267.371 76.9853 267.437 77.1907 267.437 77.484V78.452C267.437 78.7453 267.371 78.9507 267.239 79.068C267.107 79.1853 266.909 79.244 266.645 79.244H260.947Z" fill="#333333"/>
<path d="M285.838 71.368C285.838 72.0427 285.699 72.6147 285.42 73.084C285.141 73.5533 284.76 73.942 284.276 74.25C283.807 74.5433 283.257 74.756 282.626 74.888C281.996 75.02 281.328 75.086 280.624 75.086C279.935 75.086 279.275 75.02 278.644 74.888C278.013 74.756 277.456 74.5433 276.972 74.25C276.503 73.942 276.122 73.5533 275.828 73.084C275.55 72.6147 275.41 72.0427 275.41 71.368V69.718C275.41 69.0433 275.55 68.4713 275.828 68.002C276.122 67.5327 276.503 67.1513 276.972 66.858C277.456 66.55 278.013 66.33 278.644 66.198C279.275 66.066 279.935 66 280.624 66C281.328 66 281.996 66.066 282.626 66.198C283.257 66.33 283.807 66.55 284.276 66.858C284.76 67.1513 285.141 67.5327 285.42 68.002C285.699 68.4713 285.838 69.0433 285.838 69.718V71.368ZM276.07 77.154C276.07 76.89 276.129 76.692 276.246 76.56C276.364 76.428 276.569 76.362 276.862 76.362H278.556C278.85 76.362 279.055 76.428 279.172 76.56C279.29 76.692 279.348 76.89 279.348 77.154V78.21H281.218V77.154C281.218 76.89 281.277 76.692 281.394 76.56C281.511 76.428 281.717 76.362 282.01 76.362H283.704C283.998 76.362 284.203 76.428 284.32 76.56C284.438 76.692 284.496 76.89 284.496 77.154V83.644C284.496 83.908 284.438 84.106 284.32 84.238C284.203 84.37 283.998 84.436 283.704 84.436H276.862C276.569 84.436 276.364 84.37 276.246 84.238C276.129 84.106 276.07 83.908 276.07 83.644V77.154ZM289.622 80.52C289.578 80.432 289.512 80.3807 289.424 80.366C289.336 80.3513 289.263 80.4027 289.204 80.52C288.823 81.268 288.332 81.95 287.73 82.566C287.144 83.1967 286.454 83.732 285.662 84.172C285.501 84.26 285.369 84.282 285.266 84.238C285.178 84.194 285.134 84.062 285.134 83.842V81.026C285.134 80.8353 285.171 80.674 285.244 80.542C285.332 80.41 285.435 80.2927 285.552 80.19C286.139 79.6767 286.579 79.1047 286.872 78.474C287.18 77.8433 287.408 77.264 287.554 76.736C287.584 76.604 287.664 76.5087 287.796 76.45C287.928 76.3913 288.09 76.362 288.28 76.362H290.546C290.737 76.362 290.898 76.3913 291.03 76.45C291.162 76.5087 291.243 76.604 291.272 76.736C291.346 77 291.434 77.2787 291.536 77.572C291.639 77.8653 291.771 78.166 291.932 78.474C292.094 78.7673 292.284 79.0607 292.504 79.354C292.724 79.6473 292.981 79.926 293.274 80.19C293.392 80.2927 293.487 80.41 293.56 80.542C293.648 80.674 293.692 80.8353 293.692 81.026V83.842C293.692 84.062 293.641 84.194 293.538 84.238C293.45 84.282 293.326 84.26 293.164 84.172C292.372 83.732 291.676 83.1967 291.074 82.566C290.488 81.95 290.004 81.268 289.622 80.52ZM289.49 75.086C289.197 75.086 288.992 75.02 288.874 74.888C288.757 74.756 288.698 74.558 288.698 74.294V71.72H287.4C287.136 71.72 286.938 71.6613 286.806 71.544C286.674 71.4267 286.608 71.2213 286.608 70.928V69.96C286.608 69.6667 286.674 69.4613 286.806 69.344C286.938 69.2267 287.136 69.168 287.4 69.168H288.698V66.792C288.698 66.528 288.757 66.33 288.874 66.198C288.992 66.066 289.197 66 289.49 66H291.646C291.94 66 292.145 66.066 292.262 66.198C292.38 66.33 292.438 66.528 292.438 66.792V74.294C292.438 74.558 292.38 74.756 292.262 74.888C292.145 75.02 291.94 75.086 291.646 75.086H289.49ZM282.208 69.894C282.208 69.3953 282.062 69.036 281.768 68.816C281.475 68.5813 281.094 68.464 280.624 68.464C280.155 68.464 279.774 68.5813 279.48 68.816C279.187 69.036 279.04 69.3953 279.04 69.894V71.192C279.04 71.6907 279.187 72.0573 279.48 72.292C279.774 72.512 280.155 72.622 280.624 72.622C281.094 72.622 281.475 72.512 281.768 72.292C282.062 72.0573 282.208 71.6907 282.208 71.192V69.894ZM281.218 82.016V80.63H279.348V82.016H281.218Z" fill="#333333"/>
<path d="M294.927 77.616C294.927 77.352 294.985 77.154 295.103 77.022C295.22 76.89 295.425 76.824 295.719 76.824H297.875C298.168 76.824 298.373 76.89 298.491 77.022C298.608 77.154 298.667 77.352 298.667 77.616V78.254H308.325V77.616C308.325 77.352 308.383 77.154 308.501 77.022C308.618 76.89 308.823 76.824 309.117 76.824H311.273C311.566 76.824 311.771 76.89 311.889 77.022C312.006 77.154 312.065 77.352 312.065 77.616V83.644C312.065 83.908 312.006 84.106 311.889 84.238C311.771 84.37 311.566 84.436 311.273 84.436H295.719C295.425 84.436 295.22 84.37 295.103 84.238C294.985 84.106 294.927 83.908 294.927 83.644V77.616ZM305.091 66C305.281 66 305.421 66.0367 305.509 66.11C305.597 66.1833 305.692 66.264 305.795 66.352C306.073 66.5867 306.425 66.8287 306.851 67.078C307.291 67.3273 307.767 67.5767 308.281 67.826C308.794 68.0607 309.329 68.288 309.887 68.508C310.459 68.7133 311.031 68.8967 311.603 69.058C311.779 69.102 311.896 69.168 311.955 69.256C312.028 69.3293 312.065 69.4613 312.065 69.652V71.61C312.065 71.962 311.859 72.094 311.449 72.006C310.833 71.874 310.195 71.7127 309.535 71.522C308.875 71.3167 308.222 71.0893 307.577 70.84C306.931 70.576 306.315 70.29 305.729 69.982C305.142 69.674 304.614 69.3513 304.145 69.014C304.071 68.9553 303.991 68.9187 303.903 68.904C303.815 68.8747 303.727 68.86 303.639 68.86H303.353C303.265 68.86 303.177 68.8747 303.089 68.904C303.001 68.9187 302.92 68.9553 302.847 69.014C302.377 69.3513 301.849 69.674 301.263 69.982C300.676 70.29 300.06 70.576 299.415 70.84C298.769 71.0893 298.117 71.3167 297.457 71.522C296.797 71.7127 296.159 71.874 295.543 72.006C295.132 72.094 294.927 71.962 294.927 71.61V69.652C294.927 69.4613 294.956 69.3293 295.015 69.256C295.088 69.168 295.213 69.102 295.389 69.058C295.961 68.8967 296.525 68.7133 297.083 68.508C297.655 68.288 298.197 68.0607 298.711 67.826C299.224 67.5913 299.693 67.3493 300.119 67.1C300.544 66.8507 300.903 66.6013 301.197 66.352C301.314 66.264 301.409 66.1833 301.483 66.11C301.571 66.0367 301.71 66 301.901 66H305.091ZM295.719 75.724C295.455 75.724 295.257 75.6653 295.125 75.548C294.993 75.4307 294.927 75.2253 294.927 74.932V74.074C294.927 73.7807 294.993 73.5753 295.125 73.458C295.257 73.3407 295.455 73.282 295.719 73.282H311.273C311.537 73.282 311.735 73.3407 311.867 73.458C311.999 73.5753 312.065 73.7807 312.065 74.074V74.932C312.065 75.2253 311.999 75.4307 311.867 75.548C311.735 75.6653 311.537 75.724 311.273 75.724H295.719ZM308.325 81.906V80.806H298.667V81.906H308.325Z" fill="#333333"/>
<path d="M324.431 83.204C324.431 83.468 324.373 83.666 324.255 83.798C324.138 83.93 323.933 83.996 323.639 83.996H314.707C314.414 83.996 314.209 83.93 314.091 83.798C313.974 83.666 313.915 83.468 313.915 83.204V66.792C313.915 66.528 313.974 66.33 314.091 66.198C314.209 66.066 314.414 66 314.707 66H316.863C317.157 66 317.362 66.066 317.479 66.198C317.597 66.33 317.655 66.528 317.655 66.792V81.466H323.639C323.933 81.466 324.138 81.532 324.255 81.664C324.373 81.796 324.431 81.994 324.431 82.258V83.204ZM327.775 84.436C327.482 84.436 327.277 84.37 327.159 84.238C327.042 84.106 326.983 83.908 326.983 83.644V66.792C326.983 66.528 327.042 66.33 327.159 66.198C327.277 66.066 327.482 66 327.775 66H329.931C330.225 66 330.43 66.066 330.547 66.198C330.665 66.33 330.723 66.528 330.723 66.792V83.644C330.723 83.908 330.665 84.106 330.547 84.238C330.43 84.37 330.225 84.436 329.931 84.436H327.775Z" fill="#333333"/>
<path d="M333.058 66.792C333.058 66.528 333.117 66.33 333.234 66.198C333.351 66.066 333.557 66 333.85 66H342.584C342.877 66 343.083 66.066 343.2 66.198C343.317 66.33 343.376 66.528 343.376 66.792V67.738C343.376 68.002 343.317 68.2 343.2 68.332C343.083 68.464 342.877 68.53 342.584 68.53H336.798V81.466H342.782C343.075 81.466 343.281 81.532 343.398 81.664C343.515 81.796 343.574 81.994 343.574 82.258V83.204C343.574 83.468 343.515 83.666 343.398 83.798C343.281 83.93 343.075 83.996 342.782 83.996H333.85C333.557 83.996 333.351 83.93 333.234 83.798C333.117 83.666 333.058 83.468 333.058 83.204V66.792ZM346.038 84.436C345.745 84.436 345.539 84.37 345.422 84.238C345.305 84.106 345.246 83.908 345.246 83.644V66.792C345.246 66.528 345.305 66.33 345.422 66.198C345.539 66.066 345.745 66 346.038 66H348.194C348.487 66 348.693 66.066 348.81 66.198C348.927 66.33 348.986 66.528 348.986 66.792V73.744H350.24C350.504 73.744 350.702 73.8027 350.834 73.92C350.966 74.0373 351.032 74.2427 351.032 74.536V76.582C351.032 76.8753 350.966 77.0807 350.834 77.198C350.702 77.3153 350.504 77.374 350.24 77.374H348.986V83.644C348.986 83.908 348.927 84.106 348.81 84.238C348.693 84.37 348.487 84.436 348.194 84.436H346.038Z" fill="#333333"/>
<path d="M353.697 84.436C353.403 84.436 353.198 84.37 353.081 84.238C352.963 84.106 352.904 83.908 352.904 83.644V81.598C352.904 81.334 352.963 81.136 353.081 81.004C353.198 80.872 353.403 80.806 353.697 80.806H355.633C355.926 80.806 356.131 80.872 356.249 81.004C356.366 81.136 356.424 81.334 356.424 81.598V83.644C356.424 83.908 356.366 84.106 356.249 84.238C356.131 84.37 355.926 84.436 355.633 84.436H353.697Z" fill="#333333"/>
</svg>
