<svg width="540" height="52" viewBox="0 0 540 52" fill="none" xmlns="http://www.w3.org/2000/svg">
<path d="M113.91 14.366C113.91 14.102 113.969 13.904 114.086 13.772C114.203 13.64 114.409 13.574 114.702 13.574H126.978V12.76H114.592C114.137 12.76 113.91 12.5473 113.91 12.122V11.154C113.91 10.7287 114.137 10.516 114.592 10.516H129.926C130.219 10.516 130.425 10.582 130.542 10.714C130.659 10.846 130.718 11.044 130.718 11.308V15.048C130.718 15.312 130.659 15.51 130.542 15.642C130.425 15.774 130.219 15.84 129.926 15.84H117.65V16.676H130.036C130.491 16.676 130.718 16.8887 130.718 17.314V18.26C130.718 18.6853 130.491 18.898 130.036 18.898H114.702C114.409 18.898 114.203 18.832 114.086 18.7C113.969 18.568 113.91 18.37 113.91 18.106V14.366ZM113.91 1.254C113.91 0.99 113.969 0.792001 114.086 0.660001C114.203 0.528001 114.409 0.462001 114.702 0.462001H123.436C123.729 0.462001 123.935 0.528001 124.052 0.660001C124.169 0.792001 124.228 0.99 124.228 1.254V2.2C124.228 2.464 124.169 2.662 124.052 2.794C123.935 2.926 123.729 2.992 123.436 2.992H117.65V6.578H123.634C123.927 6.578 124.133 6.644 124.25 6.776C124.367 6.908 124.426 7.106 124.426 7.37V8.316C124.426 8.58 124.367 8.778 124.25 8.91C124.133 9.042 123.927 9.108 123.634 9.108H114.702C114.409 9.108 114.203 9.042 114.086 8.91C113.969 8.778 113.91 8.58 113.91 8.316V1.254ZM126.89 9.108C126.597 9.108 126.391 9.042 126.274 8.91C126.157 8.778 126.098 8.58 126.098 8.316V1.254C126.098 0.99 126.157 0.792001 126.274 0.660001C126.391 0.528001 126.597 0.462001 126.89 0.462001H129.046C129.339 0.462001 129.545 0.528001 129.662 0.660001C129.779 0.792001 129.838 0.99 129.838 1.254V3.41H130.872C131.136 3.41 131.334 3.46867 131.466 3.586C131.598 3.70333 131.664 3.90867 131.664 4.202V5.17C131.664 5.46333 131.598 5.66867 131.466 5.786C131.334 5.90333 131.136 5.962 130.872 5.962H129.838V8.316C129.838 8.58 129.779 8.778 129.662 8.91C129.545 9.042 129.339 9.108 129.046 9.108H126.89Z" fill="#333333"/>
<path d="M133.053 9.086C133.053 8.822 133.111 8.624 133.229 8.492C133.346 8.36 133.551 8.294 133.845 8.294H139.411V3.014H133.845C133.551 3.014 133.346 2.948 133.229 2.816C133.111 2.684 133.053 2.486 133.053 2.222V1.254C133.053 0.99 133.111 0.792001 133.229 0.660001C133.346 0.528001 133.551 0.462001 133.845 0.462001H142.359C142.652 0.462001 142.857 0.528001 142.975 0.660001C143.092 0.792001 143.151 0.99 143.151 1.254V10.054C143.151 10.318 143.092 10.516 142.975 10.648C142.857 10.78 142.652 10.846 142.359 10.846H136.793V15.928H142.777C143.07 15.928 143.275 15.994 143.393 16.126C143.51 16.258 143.569 16.456 143.569 16.72V17.666C143.569 17.93 143.51 18.128 143.393 18.26C143.275 18.392 143.07 18.458 142.777 18.458H133.845C133.551 18.458 133.346 18.392 133.229 18.26C133.111 18.128 133.053 17.93 133.053 17.666V9.086ZM146.913 18.898C146.619 18.898 146.414 18.832 146.297 18.7C146.179 18.568 146.121 18.37 146.121 18.106V1.254C146.121 0.99 146.179 0.792001 146.297 0.660001C146.414 0.528001 146.619 0.462001 146.913 0.462001H149.069C149.362 0.462001 149.567 0.528001 149.685 0.660001C149.802 0.792001 149.861 0.99 149.861 1.254V18.106C149.861 18.37 149.802 18.568 149.685 18.7C149.567 18.832 149.362 18.898 149.069 18.898H146.913Z" fill="#333333"/>
<path d="M152.789 1.254C152.789 0.99 152.848 0.792001 152.965 0.660001C153.083 0.528001 153.288 0.462001 153.581 0.462001H168.255C168.549 0.462001 168.754 0.528001 168.871 0.660001C168.989 0.792001 169.047 0.99 169.047 1.254V12.298C169.047 12.562 168.989 12.76 168.871 12.892C168.754 13.024 168.549 13.09 168.255 13.09H166.099C165.806 13.09 165.601 13.024 165.483 12.892C165.366 12.76 165.307 12.562 165.307 12.298V3.014H153.581C153.288 3.014 153.083 2.948 152.965 2.816C152.848 2.684 152.789 2.486 152.789 2.222V1.254ZM153.361 18.898C153.097 18.898 152.899 18.8393 152.767 18.722C152.635 18.6047 152.569 18.3993 152.569 18.106V17.138C152.569 16.8447 152.635 16.6393 152.767 16.522C152.899 16.4047 153.097 16.346 153.361 16.346H157.739V9.284C157.739 9.02 157.798 8.822 157.915 8.69C158.033 8.558 158.238 8.492 158.531 8.492H160.665C160.959 8.492 161.164 8.558 161.281 8.69C161.399 8.822 161.457 9.02 161.457 9.284V16.346H168.475C168.739 16.346 168.937 16.4047 169.069 16.522C169.201 16.6393 169.267 16.8447 169.267 17.138V18.106C169.267 18.3993 169.201 18.6047 169.069 18.722C168.937 18.8393 168.739 18.898 168.475 18.898H153.361Z" fill="#333333"/>
<path d="M171.932 20.944C171.888 20.768 171.888 20.6507 171.932 20.592C171.976 20.5333 172.079 20.4747 172.24 20.416C172.621 20.284 172.937 20.0933 173.186 19.844C173.45 19.5947 173.582 19.2793 173.582 18.898H172.834C172.541 18.898 172.335 18.832 172.218 18.7C172.101 18.568 172.042 18.37 172.042 18.106V16.038C172.042 15.7887 172.101 15.598 172.218 15.466C172.335 15.334 172.541 15.268 172.834 15.268H174.77C175.063 15.268 175.269 15.334 175.386 15.466C175.503 15.598 175.562 15.796 175.562 16.06V17.622C175.562 18.2673 175.489 18.8247 175.342 19.294C175.21 19.7633 175.012 20.1667 174.748 20.504C174.499 20.856 174.191 21.1347 173.824 21.34C173.457 21.56 173.047 21.7287 172.592 21.846C172.401 21.89 172.269 21.89 172.196 21.846C172.137 21.802 172.093 21.6993 172.064 21.538L171.932 20.944Z" fill="#333333"/>
<path d="M197.917 18.898C197.623 18.898 197.418 18.832 197.301 18.7C197.183 18.568 197.125 18.37 197.125 18.106V1.254C197.125 0.99 197.183 0.792001 197.301 0.660001C197.418 0.528001 197.623 0.462001 197.917 0.462001H200.073C200.366 0.462001 200.571 0.528001 200.689 0.660001C200.806 0.792001 200.865 0.99 200.865 1.254V18.106C200.865 18.37 200.806 18.568 200.689 18.7C200.571 18.832 200.366 18.898 200.073 18.898H197.917ZM191.471 14.498V18.128C191.471 18.392 191.412 18.59 191.295 18.722C191.177 18.854 190.972 18.92 190.679 18.92H188.545C188.251 18.92 188.046 18.854 187.929 18.722C187.811 18.59 187.753 18.392 187.753 18.128V14.498H184.915C184.651 14.498 184.453 14.4393 184.321 14.322C184.189 14.2047 184.123 13.9993 184.123 13.706V12.76C184.123 12.4667 184.189 12.2613 184.321 12.144C184.453 12.0267 184.651 11.968 184.915 11.968H194.309C194.573 11.968 194.771 12.0267 194.903 12.144C195.035 12.2613 195.101 12.4667 195.101 12.76V13.706C195.101 13.9993 195.035 14.2047 194.903 14.322C194.771 14.4393 194.573 14.498 194.309 14.498H191.471ZM189.843 1.254C189.843 0.99 189.901 0.792001 190.019 0.660001C190.136 0.528001 190.341 0.462001 190.635 0.462001H194.309C194.602 0.462001 194.807 0.528001 194.925 0.660001C195.042 0.792001 195.101 0.99 195.101 1.254V2.2C195.101 2.464 195.042 2.662 194.925 2.794C194.807 2.926 194.602 2.992 194.309 2.992H193.363V7.678H194.309C194.602 7.678 194.807 7.744 194.925 7.876C195.042 8.008 195.101 8.206 195.101 8.47V9.416C195.101 9.68 195.042 9.878 194.925 10.01C194.807 10.142 194.602 10.208 194.309 10.208H190.635C190.341 10.208 190.136 10.142 190.019 10.01C189.901 9.878 189.843 9.68 189.843 9.416V1.254ZM184.233 1.254C184.233 0.99 184.291 0.792001 184.409 0.660001C184.526 0.528001 184.731 0.462001 185.025 0.462001H188.259C188.552 0.462001 188.757 0.528001 188.875 0.660001C188.992 0.792001 189.051 0.99 189.051 1.254V2.2C189.051 2.464 188.992 2.662 188.875 2.794C188.757 2.926 188.552 2.992 188.259 2.992H187.753V7.678H188.457C188.75 7.678 188.955 7.744 189.073 7.876C189.19 8.008 189.249 8.206 189.249 8.47V9.416C189.249 9.68 189.19 9.878 189.073 10.01C188.955 10.142 188.75 10.208 188.457 10.208H185.025C184.731 10.208 184.526 10.142 184.409 10.01C184.291 9.878 184.233 9.68 184.233 9.416V1.254Z" fill="#333333"/>
<path d="M203.793 1.254C203.793 0.99 203.852 0.792001 203.969 0.660001C204.087 0.528001 204.292 0.462001 204.585 0.462001H219.259C219.553 0.462001 219.758 0.528001 219.875 0.660001C219.993 0.792001 220.051 0.99 220.051 1.254V12.298C220.051 12.562 219.993 12.76 219.875 12.892C219.758 13.024 219.553 13.09 219.259 13.09H217.103C216.81 13.09 216.605 13.024 216.487 12.892C216.37 12.76 216.311 12.562 216.311 12.298V3.014H204.585C204.292 3.014 204.087 2.948 203.969 2.816C203.852 2.684 203.793 2.486 203.793 2.222V1.254ZM204.365 18.898C204.101 18.898 203.903 18.8393 203.771 18.722C203.639 18.6047 203.573 18.3993 203.573 18.106V17.138C203.573 16.8447 203.639 16.6393 203.771 16.522C203.903 16.4047 204.101 16.346 204.365 16.346H208.743V9.284C208.743 9.02 208.802 8.822 208.919 8.69C209.037 8.558 209.242 8.492 209.535 8.492H211.669C211.963 8.492 212.168 8.558 212.285 8.69C212.403 8.822 212.461 9.02 212.461 9.284V16.346H219.479C219.743 16.346 219.941 16.4047 220.073 16.522C220.205 16.6393 220.271 16.8447 220.271 17.138V18.106C220.271 18.3993 220.205 18.6047 220.073 18.722C219.941 18.8393 219.743 18.898 219.479 18.898H204.365Z" fill="#333333"/>
<path d="M222.936 20.944C222.892 20.768 222.892 20.6507 222.936 20.592C222.98 20.5333 223.082 20.4747 223.244 20.416C223.625 20.284 223.94 20.0933 224.19 19.844C224.454 19.5947 224.586 19.2793 224.586 18.898H223.838C223.544 18.898 223.339 18.832 223.222 18.7C223.104 18.568 223.046 18.37 223.046 18.106V16.038C223.046 15.7887 223.104 15.598 223.222 15.466C223.339 15.334 223.544 15.268 223.838 15.268H225.774C226.067 15.268 226.272 15.334 226.39 15.466C226.507 15.598 226.566 15.796 226.566 16.06V17.622C226.566 18.2673 226.492 18.8247 226.346 19.294C226.214 19.7633 226.016 20.1667 225.752 20.504C225.502 20.856 225.194 21.1347 224.828 21.34C224.461 21.56 224.05 21.7287 223.596 21.846C223.405 21.89 223.273 21.89 223.2 21.846C223.141 21.802 223.097 21.6993 223.068 21.538L222.936 20.944Z" fill="#333333"/>
<path d="M249.603 13.706V18.106C249.603 18.37 249.544 18.568 249.427 18.7C249.309 18.832 249.104 18.898 248.811 18.898H246.677C246.383 18.898 246.178 18.832 246.061 18.7C245.943 18.568 245.885 18.37 245.885 18.106V13.706H241.683V18.106C241.683 18.37 241.624 18.568 241.507 18.7C241.389 18.832 241.184 18.898 240.891 18.898H238.757C238.463 18.898 238.258 18.832 238.141 18.7C238.023 18.568 237.965 18.37 237.965 18.106V13.706H236.227C235.963 13.706 235.765 13.6473 235.633 13.53C235.501 13.4127 235.435 13.2073 235.435 12.914V11.946C235.435 11.6527 235.501 11.4473 235.633 11.33C235.765 11.2127 235.963 11.154 236.227 11.154H251.341C251.605 11.154 251.803 11.2127 251.935 11.33C252.067 11.4473 252.133 11.6527 252.133 11.946V12.914C252.133 13.2073 252.067 13.4127 251.935 13.53C251.803 13.6473 251.605 13.706 251.341 13.706H249.603ZM251.495 9.108C250.923 8.932 250.285 8.68267 249.581 8.36C248.877 8.03733 248.173 7.66333 247.469 7.238C246.765 6.81267 246.083 6.35067 245.423 5.852C244.777 5.33867 244.227 4.818 243.773 4.29C243.303 4.83267 242.746 5.35333 242.101 5.852C241.47 6.35067 240.803 6.81267 240.099 7.238C239.395 7.66333 238.691 8.03733 237.987 8.36C237.283 8.68267 236.645 8.932 236.073 9.108C235.926 9.152 235.801 9.16667 235.699 9.152C235.596 9.12267 235.545 8.998 235.545 8.778V6.336C235.545 6.14533 235.581 5.96933 235.655 5.808C235.728 5.64667 235.831 5.544 235.963 5.5C236.549 5.29467 237.158 5.00867 237.789 4.642C238.434 4.26067 239.028 3.86467 239.571 3.454C240.113 3.02867 240.575 2.618 240.957 2.222C241.353 1.826 241.602 1.50333 241.705 1.254C241.822 0.975333 241.91 0.777333 241.969 0.660001C242.027 0.528001 242.203 0.462001 242.497 0.462001H245.071C245.364 0.462001 245.54 0.528001 245.599 0.660001C245.657 0.792001 245.745 0.99 245.863 1.254C245.965 1.50333 246.207 1.826 246.589 2.222C246.985 2.618 247.454 3.02867 247.997 3.454C248.539 3.86467 249.126 4.26067 249.757 4.642C250.402 5.00867 251.018 5.29467 251.605 5.5C251.737 5.544 251.839 5.64667 251.913 5.808C251.986 5.96933 252.023 6.14533 252.023 6.336V8.778C252.023 8.998 251.971 9.12267 251.869 9.152C251.766 9.16667 251.641 9.152 251.495 9.108Z" fill="#333333"/>
<path d="M254.665 18.458C254.401 18.458 254.203 18.3993 254.071 18.282C253.939 18.1647 253.873 17.9593 253.873 17.666V16.72C253.873 16.4267 253.939 16.2213 254.071 16.104C254.203 15.9867 254.401 15.928 254.665 15.928H255.171V4.708C255.171 4.444 255.23 4.246 255.347 4.114C255.464 3.982 255.67 3.916 255.963 3.916H258.097C258.39 3.916 258.596 3.982 258.713 4.114C258.83 4.246 258.889 4.444 258.889 4.708V15.928H260.627V4.708C260.627 4.444 260.686 4.246 260.803 4.114C260.92 3.982 261.126 3.916 261.419 3.916H263.553C263.846 3.916 264.052 3.982 264.169 4.114C264.286 4.246 264.345 4.444 264.345 4.708V15.928H264.763C265.027 15.928 265.225 15.9867 265.357 16.104C265.489 16.2213 265.555 16.4267 265.555 16.72V17.666C265.555 17.9593 265.489 18.1647 265.357 18.282C265.225 18.3993 265.027 18.458 264.763 18.458H254.665ZM268.063 18.898C267.77 18.898 267.564 18.832 267.447 18.7C267.33 18.568 267.271 18.37 267.271 18.106V11.176H265.753C265.489 11.176 265.291 11.1173 265.159 11C265.027 10.8827 264.961 10.6773 264.961 10.384V8.338C264.961 8.04467 265.027 7.83933 265.159 7.722C265.291 7.60467 265.489 7.546 265.753 7.546H267.271V1.254C267.271 0.99 267.33 0.792001 267.447 0.660001C267.564 0.528001 267.77 0.462001 268.063 0.462001H270.219C270.512 0.462001 270.718 0.528001 270.835 0.660001C270.952 0.792001 271.011 0.99 271.011 1.254V18.106C271.011 18.37 270.952 18.568 270.835 18.7C270.718 18.832 270.512 18.898 270.219 18.898H268.063ZM254.775 2.992C254.511 2.992 254.313 2.93333 254.181 2.816C254.049 2.69867 253.983 2.49333 253.983 2.2V1.254C253.983 0.960667 254.049 0.755333 254.181 0.638C254.313 0.520667 254.511 0.462001 254.775 0.462001H264.653C264.917 0.462001 265.115 0.520667 265.247 0.638C265.379 0.755333 265.445 0.960667 265.445 1.254V2.2C265.445 2.49333 265.379 2.69867 265.247 2.816C265.115 2.93333 264.917 2.992 264.653 2.992H254.775Z" fill="#333333"/>
<path d="M273.346 1.254C273.346 0.99 273.404 0.792001 273.522 0.660001C273.639 0.528001 273.844 0.462001 274.138 0.462001H276.294C276.587 0.462001 276.792 0.528001 276.91 0.660001C277.027 0.792001 277.086 0.99 277.086 1.254V7.502H279.704V1.254C279.704 0.99 279.762 0.792001 279.88 0.660001C279.997 0.528001 280.202 0.462001 280.496 0.462001H282.652C282.945 0.462001 283.15 0.528001 283.268 0.660001C283.385 0.792001 283.444 0.99 283.444 1.254V17.666C283.444 17.93 283.385 18.128 283.268 18.26C283.15 18.392 282.945 18.458 282.652 18.458H274.138C273.844 18.458 273.639 18.392 273.522 18.26C273.404 18.128 273.346 17.93 273.346 17.666V1.254ZM287.206 18.898C286.912 18.898 286.707 18.832 286.59 18.7C286.472 18.568 286.414 18.37 286.414 18.106V11.176H284.896C284.632 11.176 284.434 11.1173 284.302 11C284.17 10.8827 284.104 10.6773 284.104 10.384V8.338C284.104 8.04467 284.17 7.83933 284.302 7.722C284.434 7.60467 284.632 7.546 284.896 7.546H286.414V1.254C286.414 0.99 286.472 0.792001 286.59 0.660001C286.707 0.528001 286.912 0.462001 287.206 0.462001H289.362C289.655 0.462001 289.86 0.528001 289.978 0.660001C290.095 0.792001 290.154 0.99 290.154 1.254V18.106C290.154 18.37 290.095 18.568 289.978 18.7C289.86 18.832 289.655 18.898 289.362 18.898H287.206ZM279.704 15.906V10.054H277.086V15.906H279.704Z" fill="#333333"/>
<path d="M300.936 15.092C300.731 15.092 300.57 15.1433 300.452 15.246C299.484 16.126 298.37 16.8593 297.108 17.446C295.847 18.0327 294.512 18.48 293.104 18.788C292.694 18.876 292.488 18.744 292.488 18.392V16.544C292.488 16.3533 292.518 16.214 292.576 16.126C292.65 16.0527 292.774 15.994 292.95 15.95C293.698 15.7593 294.388 15.5247 295.018 15.246C295.664 14.9673 296.236 14.6667 296.734 14.344C297.248 14.0213 297.68 13.6913 298.032 13.354C298.384 13.0167 298.648 12.6867 298.824 12.364C298.942 12.1293 299.184 12.012 299.55 12.012H302.564C302.931 12.012 303.173 12.1293 303.29 12.364C303.466 12.6867 303.73 13.0167 304.082 13.354C304.434 13.6913 304.86 14.0213 305.358 14.344C305.872 14.6667 306.444 14.9673 307.074 15.246C307.72 15.5247 308.416 15.7593 309.164 15.95C309.34 15.994 309.458 16.0527 309.516 16.126C309.59 16.214 309.626 16.3533 309.626 16.544V18.392C309.626 18.744 309.421 18.876 309.01 18.788C307.602 18.48 306.268 18.0327 305.006 17.446C303.745 16.8593 302.63 16.126 301.662 15.246C301.545 15.1433 301.384 15.092 301.178 15.092H300.936ZM302.498 10.076C301.633 9.75333 300.782 9.36467 299.946 8.91C299.125 8.44067 298.392 7.84667 297.746 7.128C297.116 7.84667 296.382 8.44067 295.546 8.91C294.71 9.36467 293.867 9.75333 293.016 10.076C292.855 10.1347 292.723 10.1493 292.62 10.12C292.532 10.0907 292.488 9.966 292.488 9.746V7.766C292.488 7.57533 292.518 7.40667 292.576 7.26C292.65 7.11333 292.76 7.00333 292.906 6.93C293.258 6.76867 293.61 6.57067 293.962 6.336C294.314 6.10133 294.637 5.83733 294.93 5.544C295.224 5.25067 295.458 4.928 295.634 4.576C295.825 4.224 295.92 3.84267 295.92 3.432V1.254C295.92 0.99 295.979 0.792001 296.096 0.660001C296.214 0.528001 296.419 0.462001 296.712 0.462001H298.802C299.096 0.462001 299.301 0.528001 299.418 0.660001C299.536 0.792001 299.594 0.99 299.594 1.254V3.432C299.594 3.84267 299.682 4.224 299.858 4.576C300.049 4.928 300.291 5.25067 300.584 5.544C300.878 5.83733 301.2 6.10133 301.552 6.336C301.919 6.57067 302.271 6.76867 302.608 6.93C302.755 7.00333 302.858 7.11333 302.916 7.26C302.99 7.40667 303.026 7.57533 303.026 7.766V9.746C303.026 9.966 302.975 10.0907 302.872 10.12C302.784 10.1493 302.66 10.1347 302.498 10.076ZM306.348 11.198C306.055 11.198 305.85 11.132 305.732 11C305.615 10.868 305.556 10.67 305.556 10.406V5.522H303.378C303.114 5.522 302.916 5.46333 302.784 5.346C302.652 5.22867 302.586 5.02333 302.586 4.73V3.762C302.586 3.46867 302.652 3.26333 302.784 3.146C302.916 3.02867 303.114 2.97 303.378 2.97H305.556V1.254C305.556 0.99 305.615 0.792001 305.732 0.660001C305.85 0.528001 306.055 0.462001 306.348 0.462001H308.504C308.798 0.462001 309.003 0.528001 309.12 0.660001C309.238 0.792001 309.296 0.99 309.296 1.254V10.406C309.296 10.67 309.238 10.868 309.12 11C309.003 11.132 308.798 11.198 308.504 11.198H306.348Z" fill="#333333"/>
<path d="M318.495 12.452C317.571 12.452 316.72 12.3127 315.943 12.034C315.18 11.7553 314.52 11.3593 313.963 10.846C313.406 10.3327 312.973 9.70933 312.665 8.976C312.357 8.228 312.203 7.392 312.203 6.468C312.203 5.544 312.357 4.708 312.665 3.96C312.973 3.212 313.406 2.58133 313.963 2.068C314.52 1.55467 315.18 1.15867 315.943 0.88C316.72 0.601334 317.571 0.462001 318.495 0.462001H322.191C323.115 0.462001 323.958 0.601334 324.721 0.88C325.498 1.15867 326.166 1.55467 326.723 2.068C327.28 2.58133 327.713 3.212 328.021 3.96C328.329 4.708 328.483 5.544 328.483 6.468C328.483 7.392 328.329 8.228 328.021 8.976C327.713 9.70933 327.28 10.3327 326.723 10.846C326.166 11.3593 325.498 11.7553 324.721 12.034C323.958 12.3127 323.115 12.452 322.191 12.452H318.495ZM321.817 9.922C322.272 9.922 322.675 9.834 323.027 9.658C323.394 9.482 323.702 9.24 323.951 8.932C324.2 8.60933 324.391 8.24267 324.523 7.832C324.655 7.40667 324.721 6.952 324.721 6.468C324.721 5.984 324.655 5.52933 324.523 5.104C324.391 4.67867 324.2 4.312 323.951 4.004C323.702 3.696 323.394 3.454 323.027 3.278C322.675 3.102 322.272 3.014 321.817 3.014H318.869C318.414 3.014 318.004 3.102 317.637 3.278C317.285 3.454 316.984 3.696 316.735 4.004C316.486 4.312 316.295 4.67867 316.163 5.104C316.031 5.52933 315.965 5.984 315.965 6.468C315.965 6.952 316.031 7.40667 316.163 7.832C316.295 8.24267 316.486 8.60933 316.735 8.932C316.984 9.24 317.285 9.482 317.637 9.658C318.004 9.834 318.414 9.922 318.869 9.922H321.817ZM312.797 18.898C312.533 18.898 312.335 18.8393 312.203 18.722C312.071 18.6047 312.005 18.3993 312.005 18.106V17.138C312.005 16.8447 312.071 16.6393 312.203 16.522C312.335 16.4047 312.533 16.346 312.797 16.346H327.911C328.175 16.346 328.373 16.4047 328.505 16.522C328.637 16.6393 328.703 16.8447 328.703 17.138V18.106C328.703 18.3993 328.637 18.6047 328.505 18.722C328.373 18.8393 328.175 18.898 327.911 18.898H312.797Z" fill="#333333"/>
<path d="M331.367 6.006C331.367 5.742 331.426 5.544 331.543 5.412C331.661 5.28 331.866 5.214 332.159 5.214H343.885V2.992H332.159C331.866 2.992 331.661 2.926 331.543 2.794C331.426 2.662 331.367 2.464 331.367 2.2V1.254C331.367 0.99 331.426 0.792001 331.543 0.660001C331.661 0.528001 331.866 0.462001 332.159 0.462001H346.833C347.127 0.462001 347.332 0.528001 347.449 0.660001C347.567 0.792001 347.625 0.99 347.625 1.254V6.974C347.625 7.238 347.567 7.436 347.449 7.568C347.332 7.7 347.127 7.766 346.833 7.766H335.085V9.878H346.833C347.127 9.878 347.332 9.944 347.449 10.076C347.567 10.208 347.625 10.406 347.625 10.67V11.638C347.625 11.902 347.567 12.1 347.449 12.232C347.332 12.364 347.127 12.43 346.833 12.43H341.355V16.346H347.053C347.317 16.346 347.515 16.4047 347.647 16.522C347.779 16.6393 347.845 16.8447 347.845 17.138V18.106C347.845 18.3993 347.779 18.6047 347.647 18.722C347.515 18.8393 347.317 18.898 347.053 18.898H331.939C331.675 18.898 331.477 18.8393 331.345 18.722C331.213 18.6047 331.147 18.3993 331.147 18.106V17.138C331.147 16.8447 331.213 16.6393 331.345 16.522C331.477 16.4047 331.675 16.346 331.939 16.346H337.637V12.43H332.159C331.866 12.43 331.661 12.364 331.543 12.232C331.426 12.1 331.367 11.902 331.367 11.638V6.006Z" fill="#333333"/>
<path d="M356.501 18.458C356.237 18.458 356.039 18.3993 355.907 18.282C355.775 18.1647 355.709 17.9593 355.709 17.666V16.72C355.709 16.4267 355.775 16.2213 355.907 16.104C356.039 15.9867 356.237 15.928 356.501 15.928H357.007V4.708C357.007 4.444 357.066 4.246 357.183 4.114C357.3 3.982 357.506 3.916 357.799 3.916H359.933C360.226 3.916 360.432 3.982 360.549 4.114C360.666 4.246 360.725 4.444 360.725 4.708V15.928H362.463V4.708C362.463 4.444 362.522 4.246 362.639 4.114C362.756 3.982 362.962 3.916 363.255 3.916H365.389C365.682 3.916 365.888 3.982 366.005 4.114C366.122 4.246 366.181 4.444 366.181 4.708V15.928H366.599C366.863 15.928 367.061 15.9867 367.193 16.104C367.325 16.2213 367.391 16.4267 367.391 16.72V17.666C367.391 17.9593 367.325 18.1647 367.193 18.282C367.061 18.3993 366.863 18.458 366.599 18.458H356.501ZM369.019 18.898C368.726 18.898 368.52 18.832 368.403 18.7C368.286 18.568 368.227 18.37 368.227 18.106V1.254C368.227 0.99 368.286 0.792001 368.403 0.660001C368.52 0.528001 368.726 0.462001 369.019 0.462001H371.175C371.468 0.462001 371.674 0.528001 371.791 0.660001C371.908 0.792001 371.967 0.99 371.967 1.254V8.206H373.221C373.485 8.206 373.683 8.26467 373.815 8.382C373.947 8.49933 374.013 8.70467 374.013 8.998V11.044C374.013 11.3373 373.947 11.5427 373.815 11.66C373.683 11.7773 373.485 11.836 373.221 11.836H371.967V18.106C371.967 18.37 371.908 18.568 371.791 18.7C371.674 18.832 371.468 18.898 371.175 18.898H369.019ZM356.611 2.992C356.347 2.992 356.149 2.93333 356.017 2.816C355.885 2.69867 355.819 2.49333 355.819 2.2V1.254C355.819 0.960667 355.885 0.755333 356.017 0.638C356.149 0.520667 356.347 0.462001 356.611 0.462001H366.489C366.753 0.462001 366.951 0.520667 367.083 0.638C367.215 0.755333 367.281 0.960667 367.281 1.254V2.2C367.281 2.49333 367.215 2.69867 367.083 2.816C366.951 2.93333 366.753 2.992 366.489 2.992H356.611Z" fill="#333333"/>
<path d="M386.094 6.49C386.094 7.16467 385.962 7.73667 385.698 8.206C385.448 8.67533 385.089 9.064 384.62 9.372C384.15 9.66533 383.586 9.878 382.926 10.01C382.266 10.142 381.532 10.208 380.726 10.208C379.919 10.208 379.186 10.142 378.526 10.01C377.866 9.878 377.301 9.66533 376.832 9.372C376.362 9.064 375.996 8.67533 375.732 8.206C375.482 7.73667 375.358 7.16467 375.358 6.49V4.18C375.358 3.50533 375.482 2.93333 375.732 2.464C375.996 1.99467 376.362 1.61333 376.832 1.32C377.301 1.012 377.866 0.792001 378.526 0.660001C379.186 0.528001 379.919 0.462001 380.726 0.462001C381.532 0.462001 382.266 0.528001 382.926 0.660001C383.586 0.792001 384.15 1.012 384.62 1.32C385.089 1.61333 385.448 1.99467 385.698 2.464C385.962 2.93333 386.094 3.50533 386.094 4.18V6.49ZM389.042 18.898C388.748 18.898 388.543 18.832 388.426 18.7C388.308 18.568 388.25 18.37 388.25 18.106V17.292H385.632C385.368 17.292 385.17 17.2333 385.038 17.116C384.906 16.9987 384.84 16.7933 384.84 16.5V15.532C384.84 15.2387 384.906 15.0333 385.038 14.916C385.17 14.7987 385.368 14.74 385.632 14.74H388.25V1.254C388.25 0.99 388.308 0.792001 388.426 0.660001C388.543 0.528001 388.748 0.462001 389.042 0.462001H391.198C391.491 0.462001 391.696 0.528001 391.814 0.660001C391.931 0.792001 391.99 0.99 391.99 1.254V18.106C391.99 18.37 391.931 18.568 391.814 18.7C391.696 18.832 391.491 18.898 391.198 18.898H389.042ZM382.596 13.838V18.128C382.596 18.392 382.537 18.59 382.42 18.722C382.302 18.854 382.097 18.92 381.804 18.92H379.67C379.376 18.92 379.171 18.854 379.054 18.722C378.936 18.59 378.878 18.392 378.878 18.128V13.838H376.04C375.776 13.838 375.578 13.7793 375.446 13.662C375.314 13.5447 375.248 13.3393 375.248 13.046V12.1C375.248 11.8067 375.314 11.6013 375.446 11.484C375.578 11.3667 375.776 11.308 376.04 11.308H385.434C385.698 11.308 385.896 11.3667 386.028 11.484C386.16 11.6013 386.226 11.8067 386.226 12.1V13.046C386.226 13.3393 386.16 13.5447 386.028 13.662C385.896 13.7793 385.698 13.838 385.434 13.838H382.596ZM382.464 4.576C382.464 4.268 382.412 4.01133 382.31 3.806C382.222 3.60067 382.097 3.432 381.936 3.3C381.774 3.168 381.591 3.07267 381.386 3.014C381.18 2.95533 380.96 2.926 380.726 2.926C380.256 2.926 379.846 3.05067 379.494 3.3C379.156 3.54933 378.988 3.97467 378.988 4.576V6.094C378.988 6.69533 379.156 7.12067 379.494 7.37C379.846 7.61933 380.256 7.744 380.726 7.744C380.96 7.744 381.18 7.71467 381.386 7.656C381.591 7.59733 381.774 7.502 381.936 7.37C382.097 7.238 382.222 7.06933 382.31 6.864C382.412 6.65867 382.464 6.402 382.464 6.094V4.576Z" fill="#333333"/>
<path d="M394.324 11.638C394.324 11.374 394.383 11.176 394.5 11.044C394.618 10.912 394.823 10.846 395.116 10.846H397.272C397.566 10.846 397.771 10.912 397.888 11.044C398.006 11.176 398.064 11.374 398.064 11.638V12.496H407.392V11.638C407.392 11.374 407.451 11.176 407.568 11.044C407.686 10.912 407.891 10.846 408.184 10.846H410.34C410.634 10.846 410.839 10.912 410.956 11.044C411.074 11.176 411.132 11.374 411.132 11.638V18.106C411.132 18.37 411.074 18.568 410.956 18.7C410.839 18.832 410.634 18.898 410.34 18.898H395.116C394.823 18.898 394.618 18.832 394.5 18.7C394.383 18.568 394.324 18.37 394.324 18.106V11.638ZM404.532 5.83C404.532 6.50467 404.393 7.07667 404.114 7.546C403.836 8.01533 403.454 8.404 402.97 8.712C402.501 9.00533 401.951 9.218 401.32 9.35C400.69 9.482 400.022 9.548 399.318 9.548C398.629 9.548 397.969 9.482 397.338 9.35C396.708 9.218 396.15 9.00533 395.666 8.712C395.197 8.404 394.816 8.01533 394.522 7.546C394.244 7.07667 394.104 6.50467 394.104 5.83V4.18C394.104 3.50533 394.244 2.93333 394.522 2.464C394.816 1.99467 395.197 1.61333 395.666 1.32C396.15 1.012 396.708 0.792001 397.338 0.660001C397.969 0.528001 398.629 0.462001 399.318 0.462001C400.022 0.462001 400.69 0.528001 401.32 0.660001C401.951 0.792001 402.501 1.012 402.97 1.32C403.454 1.61333 403.836 1.99467 404.114 2.464C404.393 2.93333 404.532 3.50533 404.532 4.18V5.83ZM408.184 9.548C407.891 9.548 407.686 9.482 407.568 9.35C407.451 9.218 407.392 9.02 407.392 8.756V6.182H406.094C405.83 6.182 405.632 6.12333 405.5 6.006C405.368 5.88867 405.302 5.68333 405.302 5.39V4.422C405.302 4.12867 405.368 3.92333 405.5 3.806C405.632 3.68867 405.83 3.63 406.094 3.63H407.392V1.254C407.392 0.99 407.451 0.792001 407.568 0.660001C407.686 0.528001 407.891 0.462001 408.184 0.462001H410.34C410.634 0.462001 410.839 0.528001 410.956 0.660001C411.074 0.792001 411.132 0.99 411.132 1.254V8.756C411.132 9.02 411.074 9.218 410.956 9.35C410.839 9.482 410.634 9.548 410.34 9.548H408.184ZM407.392 16.368V15.048H398.064V16.368H407.392ZM400.902 4.356C400.902 3.85733 400.756 3.498 400.462 3.278C400.169 3.04333 399.788 2.926 399.318 2.926C398.849 2.926 398.468 3.04333 398.174 3.278C397.881 3.498 397.734 3.85733 397.734 4.356V5.654C397.734 6.15267 397.881 6.51933 398.174 6.754C398.468 6.974 398.849 7.084 399.318 7.084C399.788 7.084 400.169 6.974 400.462 6.754C400.756 6.51933 400.902 6.15267 400.902 5.654V4.356Z" fill="#333333"/>
<path d="M414.963 13.706C414.669 13.706 414.464 13.64 414.347 13.508C414.229 13.376 414.171 13.178 414.171 12.914V0.792C414.171 0.528 414.229 0.33 414.347 0.198C414.464 0.066 414.669 0 414.963 0H416.877C417.17 0 417.375 0.066 417.493 0.198C417.61 0.33 417.669 0.528 417.669 0.792V12.914C417.669 13.178 417.61 13.376 417.493 13.508C417.375 13.64 417.17 13.706 416.877 13.706H414.963ZM414.963 18.656C414.669 18.656 414.464 18.59 414.347 18.458C414.229 18.326 414.171 18.128 414.171 17.864V15.818C414.171 15.554 414.229 15.356 414.347 15.224C414.464 15.092 414.669 15.026 414.963 15.026H416.899C417.192 15.026 417.397 15.092 417.515 15.224C417.632 15.356 417.691 15.554 417.691 15.818V17.864C417.691 18.128 417.632 18.326 417.515 18.458C417.397 18.59 417.192 18.656 416.899 18.656H414.963Z" fill="#333333"/>
<path d="M421.559 13.706C421.265 13.706 421.06 13.64 420.943 13.508C420.825 13.376 420.767 13.178 420.767 12.914V0.792C420.767 0.528 420.825 0.33 420.943 0.198C421.06 0.066 421.265 0 421.559 0H423.473C423.766 0 423.971 0.066 424.089 0.198C424.206 0.33 424.264 0.528 424.264 0.792V12.914C424.264 13.178 424.206 13.376 424.089 13.508C423.971 13.64 423.766 13.706 423.473 13.706H421.559ZM421.559 18.656C421.265 18.656 421.06 18.59 420.943 18.458C420.825 18.326 420.767 18.128 420.767 17.864V15.818C420.767 15.554 420.825 15.356 420.943 15.224C421.06 15.092 421.265 15.026 421.559 15.026H423.495C423.788 15.026 423.993 15.092 424.111 15.224C424.228 15.356 424.286 15.554 424.286 15.818V17.864C424.286 18.128 424.228 18.326 424.111 18.458C423.993 18.59 423.788 18.656 423.495 18.656H421.559Z" fill="#333333"/>
<path d="M0 34.254C0 33.99 0.0586667 33.792 0.176 33.66C0.293333 33.528 0.498667 33.462 0.792 33.462H9.526C9.81933 33.462 10.0247 33.528 10.142 33.66C10.2593 33.792 10.318 33.99 10.318 34.254V35.2C10.318 35.464 10.2593 35.662 10.142 35.794C10.0247 35.926 9.81933 35.992 9.526 35.992H3.74V48.928H9.724C10.0173 48.928 10.2227 48.994 10.34 49.126C10.4573 49.258 10.516 49.456 10.516 49.72V50.666C10.516 50.93 10.4573 51.128 10.34 51.26C10.2227 51.392 10.0173 51.458 9.724 51.458H0.792C0.498667 51.458 0.293333 51.392 0.176 51.26C0.0586667 51.128 0 50.93 0 50.666V34.254ZM12.98 51.898C12.6867 51.898 12.4813 51.832 12.364 51.7C12.2467 51.568 12.188 51.37 12.188 51.106V34.254C12.188 33.99 12.2467 33.792 12.364 33.66C12.4813 33.528 12.6867 33.462 12.98 33.462H15.136C15.4293 33.462 15.6347 33.528 15.752 33.66C15.8693 33.792 15.928 33.99 15.928 34.254V41.206H17.182C17.446 41.206 17.644 41.2647 17.776 41.382C17.908 41.4993 17.974 41.7047 17.974 41.998V44.044C17.974 44.3373 17.908 44.5427 17.776 44.66C17.644 44.7773 17.446 44.836 17.182 44.836H15.928V51.106C15.928 51.37 15.8693 51.568 15.752 51.7C15.6347 51.832 15.4293 51.898 15.136 51.898H12.98Z" fill="#333333"/>
<path d="M23.3006 51.898C22.7139 51.898 22.1639 51.854 21.6506 51.766C21.1519 51.678 20.7192 51.5093 20.3526 51.26C19.9859 51.0253 19.6926 50.6807 19.4726 50.226C19.2672 49.786 19.1646 49.214 19.1646 48.51C19.1646 47.8353 19.2672 47.2707 19.4726 46.816C19.6779 46.3613 19.9639 46.002 20.3306 45.738C20.7119 45.474 21.1519 45.2907 21.6506 45.188C22.1492 45.0707 22.6992 45.012 23.3006 45.012H32.1226C32.7239 45.012 33.2739 45.0707 33.7726 45.188C34.2859 45.2907 34.7259 45.474 35.0926 45.738C35.4739 46.002 35.7672 46.3613 35.9726 46.816C36.1779 47.2707 36.2806 47.8353 36.2806 48.51C36.2806 49.214 36.1706 49.786 35.9506 50.226C35.7452 50.6807 35.4592 51.0253 35.0926 51.26C34.7259 51.5093 34.2859 51.678 33.7726 51.766C33.2592 51.854 32.7092 51.898 32.1226 51.898H23.3006ZM29.3506 39.49C29.3506 40.1647 29.2112 40.7367 28.9326 41.206C28.6539 41.6753 28.2726 42.064 27.7886 42.372C27.3192 42.6653 26.7692 42.878 26.1386 43.01C25.5079 43.142 24.8406 43.208 24.1366 43.208C23.4472 43.208 22.7872 43.142 22.1566 43.01C21.5259 42.878 20.9686 42.6653 20.4846 42.372C20.0152 42.064 19.6339 41.6753 19.3406 41.206C19.0619 40.7367 18.9226 40.1647 18.9226 39.49V37.18C18.9226 36.5053 19.0619 35.9333 19.3406 35.464C19.6339 34.9947 20.0152 34.6133 20.4846 34.32C20.9686 34.012 21.5259 33.792 22.1566 33.66C22.7872 33.528 23.4472 33.462 24.1366 33.462C24.8406 33.462 25.5079 33.528 26.1386 33.66C26.7692 33.792 27.3192 34.012 27.7886 34.32C28.2726 34.6133 28.6539 34.9947 28.9326 35.464C29.2112 35.9333 29.3506 36.5053 29.3506 37.18V39.49ZM32.1226 43.208C31.8292 43.208 31.6239 43.142 31.5066 43.01C31.3892 42.878 31.3306 42.68 31.3306 42.416V34.254C31.3306 33.99 31.3892 33.792 31.5066 33.66C31.6239 33.528 31.8292 33.462 32.1226 33.462H34.2786C34.5719 33.462 34.7772 33.528 34.8946 33.66C35.0119 33.792 35.0706 33.99 35.0706 34.254V35.09H36.1046C36.3686 35.09 36.5666 35.1487 36.6986 35.266C36.8306 35.3833 36.8966 35.5887 36.8966 35.882V36.85C36.8966 37.1433 36.8306 37.3487 36.6986 37.466C36.5666 37.5833 36.3686 37.642 36.1046 37.642H35.0706V39.05H36.1046C36.3686 39.05 36.5666 39.1087 36.6986 39.226C36.8306 39.3433 36.8966 39.5487 36.8966 39.842V40.81C36.8966 41.1033 36.8306 41.3087 36.6986 41.426C36.5666 41.5433 36.3686 41.602 36.1046 41.602H35.0706V42.416C35.0706 42.68 35.0119 42.878 34.8946 43.01C34.7772 43.142 34.5719 43.208 34.2786 43.208H32.1226ZM31.6826 49.346C32.2546 49.346 32.5406 49.06 32.5406 48.488C32.5406 48.1947 32.4672 47.9673 32.3206 47.806C32.1886 47.6447 31.9759 47.564 31.6826 47.564H23.7406C23.4619 47.564 23.2492 47.6447 23.1026 47.806C22.9706 47.9673 22.9046 48.1947 22.9046 48.488C22.9046 49.06 23.1832 49.346 23.7406 49.346H31.6826ZM25.7206 37.356C25.7206 36.8573 25.5739 36.498 25.2806 36.278C24.9872 36.0433 24.6059 35.926 24.1366 35.926C23.6672 35.926 23.2859 36.0433 22.9926 36.278C22.6992 36.498 22.5526 36.8573 22.5526 37.356V39.314C22.5526 39.8127 22.6992 40.1793 22.9926 40.414C23.2859 40.634 23.6672 40.744 24.1366 40.744C24.6059 40.744 24.9872 40.634 25.2806 40.414C25.5739 40.1793 25.7206 39.8127 25.7206 39.314V37.356Z" fill="#333333"/>
<path d="M54.8732 51.106C54.8732 51.37 54.8145 51.568 54.6972 51.7C54.5798 51.832 54.3745 51.898 54.0812 51.898H39.0772C38.7838 51.898 38.5785 51.832 38.4612 51.7C38.3438 51.568 38.2852 51.37 38.2852 51.106V46.112C38.2852 45.848 38.3438 45.65 38.4612 45.518C38.5785 45.386 38.7838 45.32 39.0772 45.32H41.2332C41.5265 45.32 41.7318 45.386 41.8492 45.518C41.9665 45.65 42.0252 45.848 42.0252 46.112V49.346H54.0812C54.3745 49.346 54.5798 49.412 54.6972 49.544C54.8145 49.676 54.8732 49.874 54.8732 50.138V51.106ZM48.8012 40.964C48.8012 41.492 48.7058 41.9393 48.5152 42.306C48.3392 42.6727 48.0825 42.9807 47.7452 43.23C47.4078 43.4647 46.9972 43.6407 46.5132 43.758C46.0438 43.8607 45.5158 43.912 44.9292 43.912H42.1572C40.9838 43.912 40.0452 43.6847 39.3412 43.23C38.6372 42.7607 38.2852 42.0053 38.2852 40.964C38.2852 39.9227 38.6372 39.1747 39.3412 38.72C40.0452 38.2507 40.9838 38.016 42.1572 38.016H44.9292C45.5158 38.016 46.0438 38.0747 46.5132 38.192C46.9972 38.2947 47.4078 38.4707 47.7452 38.72C48.0825 38.9547 48.3392 39.2553 48.5152 39.622C48.7058 39.9887 48.8012 40.436 48.8012 40.964ZM51.2652 46.068C50.9718 46.068 50.7665 46.002 50.6492 45.87C50.5318 45.738 50.4732 45.54 50.4732 45.276V34.254C50.4732 33.99 50.5318 33.792 50.6492 33.66C50.7665 33.528 50.9718 33.462 51.2652 33.462H53.4212C53.7145 33.462 53.9198 33.528 54.0372 33.66C54.1545 33.792 54.2132 33.99 54.2132 34.254V37.95H55.2472C55.5112 37.95 55.7092 38.0087 55.8412 38.126C55.9732 38.2433 56.0392 38.4487 56.0392 38.742V39.71C56.0392 40.0033 55.9732 40.2087 55.8412 40.326C55.7092 40.4433 55.5112 40.502 55.2472 40.502H54.2132V45.276C54.2132 45.54 54.1545 45.738 54.0372 45.87C53.9198 46.002 53.7145 46.068 53.4212 46.068H51.2652ZM38.8352 37.29C38.5712 37.29 38.3732 37.2313 38.2412 37.114C38.1092 36.9967 38.0432 36.7913 38.0432 36.498V35.552C38.0432 35.2587 38.1092 35.0533 38.2412 34.936C38.3732 34.8187 38.5712 34.76 38.8352 34.76H41.6732V34.254C41.6732 33.99 41.7318 33.792 41.8492 33.66C41.9665 33.528 42.1718 33.462 42.4652 33.462H44.6212C44.9145 33.462 45.1198 33.528 45.2372 33.66C45.3545 33.792 45.4132 33.99 45.4132 34.254V34.76H48.2512C48.5152 34.76 48.7132 34.8187 48.8452 34.936C48.9772 35.0533 49.0432 35.2587 49.0432 35.552V36.498C49.0432 36.7913 48.9772 36.9967 48.8452 37.114C48.7132 37.2313 48.5152 37.29 48.2512 37.29H38.8352ZM45.0612 40.964C45.0612 40.6707 44.9658 40.4727 44.7752 40.37C44.5992 40.2673 44.3352 40.216 43.9832 40.216H43.1032C42.7512 40.216 42.4798 40.2673 42.2892 40.37C42.1132 40.4727 42.0252 40.6707 42.0252 40.964C42.0252 41.2573 42.1132 41.4553 42.2892 41.558C42.4798 41.6607 42.7512 41.712 43.1032 41.712H43.9832C44.3352 41.712 44.5992 41.6607 44.7752 41.558C44.9658 41.4553 45.0612 41.2573 45.0612 40.964Z" fill="#333333"/>
<path d="M63.3528 37.444C63.3528 36.872 63.4188 36.344 63.5508 35.86C63.6828 35.3613 63.9101 34.936 64.2328 34.584C64.5701 34.232 65.0174 33.9607 65.5748 33.77C66.1321 33.5647 66.8361 33.462 67.6868 33.462C68.5228 33.462 69.2194 33.5647 69.7768 33.77C70.3341 33.9607 70.7741 34.232 71.0968 34.584C71.4341 34.936 71.6688 35.3613 71.8008 35.86C71.9328 36.344 71.9988 36.872 71.9988 37.444V39.226C71.9988 39.798 71.9328 40.3333 71.8008 40.832C71.6688 41.316 71.4341 41.734 71.0968 42.086C70.7741 42.438 70.3341 42.7167 69.7768 42.922C69.2194 43.1127 68.5228 43.208 67.6868 43.208C66.8361 43.208 66.1321 43.1127 65.5748 42.922C65.0174 42.7167 64.5701 42.438 64.2328 42.086C63.9101 41.734 63.6828 41.316 63.5508 40.832C63.4188 40.3333 63.3528 39.798 63.3528 39.226V37.444ZM78.1368 43.208C77.8434 43.208 77.6381 43.142 77.5208 43.01C77.4034 42.878 77.3448 42.68 77.3448 42.416V39.424H76.3548V42.416C76.3548 42.68 76.2961 42.878 76.1788 43.01C76.0614 43.142 75.8561 43.208 75.5628 43.208H73.9128C73.6194 43.208 73.4141 43.142 73.2968 43.01C73.1794 42.878 73.1208 42.68 73.1208 42.416V34.254C73.1208 33.99 73.1794 33.792 73.2968 33.66C73.4141 33.528 73.6194 33.462 73.9128 33.462H75.5628C75.8561 33.462 76.0614 33.528 76.1788 33.66C76.2961 33.792 76.3548 33.99 76.3548 34.254V36.872H77.3448V34.254C77.3448 33.99 77.4034 33.792 77.5208 33.66C77.6381 33.528 77.8434 33.462 78.1368 33.462H79.7868C80.0801 33.462 80.2854 33.528 80.4028 33.66C80.5201 33.792 80.5788 33.99 80.5788 34.254V42.416C80.5788 42.68 80.5201 42.878 80.4028 43.01C80.2854 43.142 80.0801 43.208 79.7868 43.208H78.1368ZM63.5508 45.804C63.5508 45.54 63.6094 45.342 63.7268 45.21C63.8441 45.078 64.0494 45.012 64.3428 45.012H79.7868C80.0801 45.012 80.2854 45.078 80.4028 45.21C80.5201 45.342 80.5788 45.54 80.5788 45.804V51.106C80.5788 51.37 80.5201 51.568 80.4028 51.7C80.2854 51.832 80.0801 51.898 79.7868 51.898H77.6308C77.3375 51.898 77.1321 51.832 77.0148 51.7C76.8975 51.568 76.8388 51.37 76.8388 51.106V47.564H64.3428C64.0494 47.564 63.8441 47.498 63.7268 47.366C63.6094 47.234 63.5508 47.036 63.5508 46.772V45.804ZM66.7848 39.754C66.7848 40.1207 66.8654 40.3847 67.0268 40.546C67.1881 40.6927 67.4081 40.766 67.6868 40.766C67.9508 40.766 68.1634 40.6927 68.3248 40.546C68.4861 40.3847 68.5668 40.1207 68.5668 39.754V36.916C68.5668 36.5493 68.4861 36.2927 68.3248 36.146C68.1634 35.9847 67.9508 35.904 67.6868 35.904C67.4081 35.904 67.1881 35.9847 67.0268 36.146C66.8654 36.2927 66.7848 36.5493 66.7848 36.916V39.754Z" fill="#333333"/>
<path d="M99.9414 51.106C99.9414 51.37 99.8827 51.568 99.7654 51.7C99.648 51.832 99.4427 51.898 99.1494 51.898H83.4854C83.192 51.898 82.9867 51.832 82.8694 51.7C82.752 51.568 82.6934 51.37 82.6934 51.106V45.892C82.6934 45.628 82.752 45.43 82.8694 45.298C82.9867 45.166 83.192 45.1 83.4854 45.1H85.6414C85.9347 45.1 86.14 45.166 86.2574 45.298C86.3747 45.43 86.4334 45.628 86.4334 45.892V49.346H99.1494C99.4427 49.346 99.648 49.412 99.7654 49.544C99.8827 49.676 99.9414 49.874 99.9414 50.138V51.106ZM92.7034 43.736C91.838 43.4133 90.9874 43.0247 90.1514 42.57C89.33 42.1007 88.5967 41.5067 87.9514 40.788C87.3207 41.5067 86.5874 42.1007 85.7514 42.57C84.9154 43.0247 84.072 43.4133 83.2214 43.736C83.06 43.7947 82.928 43.8093 82.8254 43.78C82.7374 43.7507 82.6934 43.626 82.6934 43.406V41.426C82.6934 41.2353 82.7227 41.0667 82.7814 40.92C82.8547 40.7733 82.9647 40.6633 83.1114 40.59C83.4634 40.4287 83.8154 40.2307 84.1674 39.996C84.5194 39.7613 84.842 39.4973 85.1354 39.204C85.4287 38.9107 85.6634 38.588 85.8394 38.236C86.03 37.884 86.1254 37.5027 86.1254 37.092V34.254C86.1254 33.99 86.184 33.792 86.3014 33.66C86.4187 33.528 86.624 33.462 86.9174 33.462H89.0074C89.3007 33.462 89.506 33.528 89.6234 33.66C89.7407 33.792 89.7994 33.99 89.7994 34.254V37.092C89.7994 37.5027 89.8874 37.884 90.0634 38.236C90.254 38.588 90.496 38.9107 90.7894 39.204C91.0827 39.4973 91.4054 39.7613 91.7574 39.996C92.124 40.2307 92.476 40.4287 92.8134 40.59C92.96 40.6633 93.0627 40.7733 93.1214 40.92C93.1947 41.0667 93.2314 41.2353 93.2314 41.426V43.406C93.2314 43.626 93.18 43.7507 93.0774 43.78C92.9894 43.8093 92.8647 43.7947 92.7034 43.736ZM96.5534 45.408C96.26 45.408 96.0547 45.342 95.9374 45.21C95.82 45.078 95.7614 44.88 95.7614 44.616V41.822H94.6834C94.4194 41.822 94.2214 41.7633 94.0894 41.646C93.9574 41.5287 93.8914 41.3233 93.8914 41.03V40.062C93.8914 39.7687 93.9574 39.5633 94.0894 39.446C94.2214 39.3287 94.4194 39.27 94.6834 39.27H95.7614V37.862H94.6834C94.4194 37.862 94.2214 37.8033 94.0894 37.686C93.9574 37.5687 93.8914 37.3633 93.8914 37.07V36.102C93.8914 35.8087 93.9574 35.6033 94.0894 35.486C94.2214 35.3687 94.4194 35.31 94.6834 35.31H95.7614V34.254C95.7614 33.99 95.82 33.792 95.9374 33.66C96.0547 33.528 96.26 33.462 96.5534 33.462H98.7094C99.0027 33.462 99.208 33.528 99.3254 33.66C99.4427 33.792 99.5014 33.99 99.5014 34.254V44.616C99.5014 44.88 99.4427 45.078 99.3254 45.21C99.208 45.342 99.0027 45.408 98.7094 45.408H96.5534Z" fill="#333333"/>
<path d="M115.256 51.898C114.963 51.898 114.757 51.832 114.64 51.7C114.523 51.568 114.464 51.37 114.464 51.106V34.254C114.464 33.99 114.523 33.792 114.64 33.66C114.757 33.528 114.963 33.462 115.256 33.462H117.412C117.705 33.462 117.911 33.528 118.028 33.66C118.145 33.792 118.204 33.99 118.204 34.254V41.206H119.018C119.282 41.206 119.48 41.2647 119.612 41.382C119.744 41.4993 119.81 41.7047 119.81 41.998V44.044C119.81 44.3373 119.744 44.5427 119.612 44.66C119.48 44.7773 119.282 44.836 119.018 44.836H118.204V51.106C118.204 51.37 118.145 51.568 118.028 51.7C117.911 51.832 117.705 51.898 117.412 51.898H115.256ZM102.012 34.254C102.012 33.99 102.071 33.792 102.188 33.66C102.305 33.528 102.511 33.462 102.804 33.462H111.978C112.271 33.462 112.477 33.528 112.594 33.66C112.711 33.792 112.77 33.99 112.77 34.254V45.276C112.77 45.54 112.711 45.738 112.594 45.87C112.477 46.002 112.271 46.068 111.978 46.068H109.822C109.529 46.068 109.323 46.002 109.206 45.87C109.089 45.738 109.03 45.54 109.03 45.276V36.014H102.804C102.511 36.014 102.305 35.948 102.188 35.816C102.071 35.684 102.012 35.486 102.012 35.222V34.254ZM102.694 51.898C102.43 51.898 102.232 51.8393 102.1 51.722C101.968 51.6047 101.902 51.3993 101.902 51.106V50.16C101.902 49.8667 101.968 49.6613 102.1 49.544C102.232 49.4267 102.43 49.368 102.694 49.368H103.992V42.548C103.992 42.284 104.051 42.086 104.168 41.954C104.285 41.822 104.491 41.756 104.784 41.756H106.698C106.991 41.756 107.197 41.822 107.314 41.954C107.431 42.086 107.49 42.284 107.49 42.548V49.368H112.088C112.352 49.368 112.55 49.4267 112.682 49.544C112.814 49.6613 112.88 49.8667 112.88 50.16V51.106C112.88 51.3993 112.814 51.6047 112.682 51.722C112.55 51.8393 112.352 51.898 112.088 51.898H102.694Z" fill="#333333"/>
<path d="M127.102 37.994C127.102 37.3047 127.19 36.6813 127.366 36.124C127.542 35.5667 127.828 35.09 128.224 34.694C128.62 34.298 129.14 33.9973 129.786 33.792C130.431 33.572 131.23 33.462 132.184 33.462C133.122 33.462 133.914 33.572 134.56 33.792C135.22 33.9973 135.748 34.298 136.144 34.694C136.54 35.09 136.826 35.5667 137.002 36.124C137.178 36.6813 137.266 37.3047 137.266 37.994V46.926C137.266 47.6153 137.178 48.2387 137.002 48.796C136.826 49.3533 136.54 49.83 136.144 50.226C135.748 50.622 135.22 50.9227 134.56 51.128C133.914 51.348 133.122 51.458 132.184 51.458C131.23 51.458 130.431 51.348 129.786 51.128C129.14 50.9227 128.62 50.622 128.224 50.226C127.828 49.83 127.542 49.3533 127.366 48.796C127.19 48.2387 127.102 47.6153 127.102 46.926V37.994ZM140.082 51.898C139.788 51.898 139.583 51.832 139.466 51.7C139.348 51.568 139.29 51.37 139.29 51.106V34.254C139.29 33.99 139.348 33.792 139.466 33.66C139.583 33.528 139.788 33.462 140.082 33.462H142.238C142.531 33.462 142.736 33.528 142.854 33.66C142.971 33.792 143.03 33.99 143.03 34.254V41.206H144.284C144.548 41.206 144.746 41.2647 144.878 41.382C145.01 41.4993 145.076 41.7047 145.076 41.998V44.044C145.076 44.3373 145.01 44.5427 144.878 44.66C144.746 44.7773 144.548 44.836 144.284 44.836H143.03V51.106C143.03 51.37 142.971 51.568 142.854 51.7C142.736 51.832 142.531 51.898 142.238 51.898H140.082ZM130.842 47.388C130.842 47.9307 130.937 48.356 131.128 48.664C131.318 48.972 131.67 49.126 132.184 49.126C132.697 49.126 133.049 48.972 133.24 48.664C133.43 48.356 133.526 47.9307 133.526 47.388V37.532C133.526 36.9893 133.43 36.564 133.24 36.256C133.049 35.948 132.697 35.794 132.184 35.794C131.67 35.794 131.318 35.948 131.128 36.256C130.937 36.564 130.842 36.9893 130.842 37.532V47.388Z" fill="#333333"/>
<path d="M146.244 37.994C146.244 37.3047 146.332 36.6813 146.508 36.124C146.684 35.5667 146.97 35.09 147.366 34.694C147.762 34.298 148.283 33.9973 148.928 33.792C149.573 33.572 150.373 33.462 151.326 33.462C152.265 33.462 153.057 33.572 153.702 33.792C154.362 33.9973 154.89 34.298 155.286 34.694C155.682 35.09 155.968 35.5667 156.144 36.124C156.32 36.6813 156.408 37.3047 156.408 37.994V46.926C156.408 47.6153 156.32 48.2387 156.144 48.796C155.968 49.3533 155.682 49.83 155.286 50.226C154.89 50.622 154.362 50.9227 153.702 51.128C153.057 51.348 152.265 51.458 151.326 51.458C150.373 51.458 149.573 51.348 148.928 51.128C148.283 50.9227 147.762 50.622 147.366 50.226C146.97 49.83 146.684 49.3533 146.508 48.796C146.332 48.2387 146.244 47.6153 146.244 46.926V37.994ZM149.984 47.388C149.984 47.9307 150.079 48.356 150.27 48.664C150.461 48.972 150.813 49.126 151.326 49.126C151.839 49.126 152.191 48.972 152.382 48.664C152.573 48.356 152.668 47.9307 152.668 47.388V37.532C152.668 36.9893 152.573 36.564 152.382 36.256C152.191 35.948 151.839 35.794 151.326 35.794C150.813 35.794 150.461 35.948 150.27 36.256C150.079 36.564 149.984 36.9893 149.984 37.532V47.388ZM160.104 51.898C159.811 51.898 159.605 51.832 159.488 51.7C159.371 51.568 159.312 51.37 159.312 51.106V34.254C159.312 33.99 159.371 33.792 159.488 33.66C159.605 33.528 159.811 33.462 160.104 33.462H162.26C162.553 33.462 162.759 33.528 162.876 33.66C162.993 33.792 163.052 33.99 163.052 34.254V51.106C163.052 51.37 162.993 51.568 162.876 51.7C162.759 51.832 162.553 51.898 162.26 51.898H160.104Z" fill="#333333"/>
<path d="M165.387 45.804C165.387 45.54 165.445 45.342 165.563 45.21C165.68 45.078 165.885 45.012 166.179 45.012H181.623C181.916 45.012 182.121 45.078 182.239 45.21C182.356 45.342 182.415 45.54 182.415 45.804V51.106C182.415 51.37 182.356 51.568 182.239 51.7C182.121 51.832 181.916 51.898 181.623 51.898H166.179C165.885 51.898 165.68 51.832 165.563 51.7C165.445 51.568 165.387 51.37 165.387 51.106V45.804ZM165.387 37.598C165.387 37.334 165.445 37.136 165.563 37.004C165.68 36.872 165.885 36.806 166.179 36.806H171.921C172.214 36.806 172.419 36.872 172.537 37.004C172.654 37.136 172.713 37.334 172.713 37.598V38.434C172.713 38.698 172.654 38.896 172.537 39.028C172.419 39.16 172.214 39.226 171.921 39.226H169.017V40.788H172.119C172.412 40.788 172.617 40.854 172.735 40.986C172.852 41.118 172.911 41.316 172.911 41.58V42.416C172.911 42.68 172.852 42.878 172.735 43.01C172.617 43.142 172.412 43.208 172.119 43.208H166.179C165.885 43.208 165.68 43.142 165.563 43.01C165.445 42.878 165.387 42.68 165.387 42.416V37.598ZM175.749 43.208C175.455 43.208 175.25 43.142 175.133 43.01C175.015 42.878 174.957 42.68 174.957 42.416V39.424H174.055C173.791 39.424 173.593 39.3653 173.461 39.248C173.329 39.1307 173.263 38.9253 173.263 38.632V37.664C173.263 37.3707 173.329 37.1653 173.461 37.048C173.593 36.9307 173.791 36.872 174.055 36.872H174.957V34.254C174.957 33.99 175.015 33.792 175.133 33.66C175.25 33.528 175.455 33.462 175.749 33.462H177.399C177.692 33.462 177.897 33.528 178.015 33.66C178.132 33.792 178.191 33.99 178.191 34.254V42.416C178.191 42.68 178.132 42.878 178.015 43.01C177.897 43.142 177.692 43.208 177.399 43.208H175.749ZM179.973 43.208C179.679 43.208 179.474 43.142 179.357 43.01C179.239 42.878 179.181 42.68 179.181 42.416V34.254C179.181 33.99 179.239 33.792 179.357 33.66C179.474 33.528 179.679 33.462 179.973 33.462H181.623C181.916 33.462 182.121 33.528 182.239 33.66C182.356 33.792 182.415 33.99 182.415 34.254V42.416C182.415 42.68 182.356 42.878 182.239 43.01C182.121 43.142 181.916 43.208 181.623 43.208H179.973ZM166.179 35.882C165.915 35.882 165.717 35.8233 165.585 35.706C165.453 35.5887 165.387 35.3833 165.387 35.09V34.254C165.387 33.9607 165.453 33.7553 165.585 33.638C165.717 33.5207 165.915 33.462 166.179 33.462H171.921C172.185 33.462 172.383 33.5207 172.515 33.638C172.647 33.7553 172.713 33.9607 172.713 34.254V35.09C172.713 35.3833 172.647 35.5887 172.515 35.706C172.383 35.8233 172.185 35.882 171.921 35.882H166.179ZM169.127 49.346H178.675V47.564H169.127V49.346Z" fill="#333333"/>
<path d="M188.599 39.402C188.042 39.402 187.521 39.3653 187.037 39.292C186.568 39.204 186.157 39.05 185.805 38.83C185.453 38.61 185.175 38.3167 184.969 37.95C184.779 37.5687 184.683 37.0847 184.683 36.498C184.683 35.926 184.779 35.4493 184.969 35.068C185.175 34.672 185.453 34.3567 185.805 34.122C186.157 33.8873 186.568 33.7187 187.037 33.616C187.521 33.5133 188.049 33.462 188.621 33.462H197.883C198.455 33.462 198.976 33.5133 199.445 33.616C199.929 33.7187 200.347 33.8873 200.699 34.122C201.051 34.3567 201.323 34.672 201.513 35.068C201.719 35.4493 201.821 35.926 201.821 36.498C201.821 37.0847 201.719 37.5687 201.513 37.95C201.323 38.3167 201.051 38.61 200.699 38.83C200.347 39.05 199.929 39.204 199.445 39.292C198.976 39.3653 198.463 39.402 197.905 39.402H188.599ZM197.597 37.026C197.876 37.026 198.059 36.9673 198.147 36.85C198.235 36.7327 198.279 36.6007 198.279 36.454C198.279 36.2927 198.228 36.1533 198.125 36.036C198.023 35.904 197.847 35.838 197.597 35.838H188.907C188.658 35.838 188.482 35.904 188.379 36.036C188.277 36.1533 188.225 36.2927 188.225 36.454C188.225 36.6007 188.269 36.7327 188.357 36.85C188.445 36.9673 188.629 37.026 188.907 37.026H197.597ZM185.475 42.636C185.211 42.636 185.013 42.5773 184.881 42.46C184.749 42.3427 184.683 42.1373 184.683 41.844V40.986C184.683 40.6927 184.749 40.4873 184.881 40.37C185.013 40.2527 185.211 40.194 185.475 40.194H201.029C201.293 40.194 201.491 40.2527 201.623 40.37C201.755 40.4873 201.821 40.6927 201.821 40.986V41.844C201.821 42.1373 201.755 42.3427 201.623 42.46C201.491 42.5773 201.293 42.636 201.029 42.636H185.475ZM184.683 47.3C184.683 47.036 184.742 46.838 184.859 46.706C184.977 46.574 185.182 46.508 185.475 46.508H198.081V45.672H185.365C184.911 45.672 184.683 45.4593 184.683 45.034V44.066C184.683 43.6407 184.911 43.428 185.365 43.428H201.029C201.323 43.428 201.528 43.494 201.645 43.626C201.763 43.758 201.821 43.956 201.821 44.22V47.982C201.821 48.246 201.763 48.444 201.645 48.576C201.528 48.708 201.323 48.774 201.029 48.774H188.423V49.676H201.139C201.594 49.676 201.821 49.8887 201.821 50.314V51.26C201.821 51.6853 201.594 51.898 201.139 51.898H185.475C185.182 51.898 184.977 51.832 184.859 51.7C184.742 51.568 184.683 51.37 184.683 51.106V47.3Z" fill="#333333"/>
<path d="M219.805 51.172C218.94 50.7027 218.096 50.1527 217.275 49.522C216.454 48.906 215.713 48.158 215.053 47.278C214.393 48.158 213.652 48.906 212.831 49.522C212.01 50.1527 211.174 50.7027 210.323 51.172C210.176 51.2453 210.052 51.26 209.949 51.216C209.846 51.1867 209.795 51.062 209.795 50.842V47.762C209.795 47.3953 209.934 47.1167 210.213 46.926C210.536 46.706 210.873 46.4493 211.225 46.156C211.577 45.8627 211.9 45.54 212.193 45.188C212.501 44.836 212.75 44.4693 212.941 44.088C213.132 43.692 213.227 43.2887 213.227 42.878V34.254C213.227 33.99 213.286 33.792 213.403 33.66C213.52 33.528 213.726 33.462 214.019 33.462H216.109C216.402 33.462 216.608 33.528 216.725 33.66C216.842 33.792 216.901 33.99 216.901 34.254V42.878C216.901 43.2887 216.996 43.692 217.187 44.088C217.378 44.4693 217.62 44.836 217.913 45.188C218.221 45.54 218.551 45.8627 218.903 46.156C219.255 46.4493 219.592 46.706 219.915 46.926C220.194 47.1167 220.333 47.3953 220.333 47.762V50.842C220.333 51.062 220.282 51.1867 220.179 51.216C220.076 51.26 219.952 51.2453 219.805 51.172ZM222.775 51.898C222.482 51.898 222.276 51.832 222.159 51.7C222.042 51.568 221.983 51.37 221.983 51.106V34.254C221.983 33.99 222.042 33.792 222.159 33.66C222.276 33.528 222.482 33.462 222.775 33.462H224.931C225.224 33.462 225.43 33.528 225.547 33.66C225.664 33.792 225.723 33.99 225.723 34.254V41.206H226.977C227.241 41.206 227.439 41.2647 227.571 41.382C227.703 41.4993 227.769 41.7047 227.769 41.998V44.044C227.769 44.3373 227.703 44.5427 227.571 44.66C227.439 44.7773 227.241 44.836 226.977 44.836H225.723V51.106C225.723 51.37 225.664 51.568 225.547 51.7C225.43 51.832 225.224 51.898 224.931 51.898H222.775Z" fill="#333333"/>
<path d="M229.883 44.088C229.619 44.088 229.422 44.0293 229.29 43.912C229.158 43.7947 229.092 43.5893 229.092 43.296V42.328C229.092 42.0347 229.158 41.8293 229.29 41.712C229.422 41.5947 229.619 41.536 229.883 41.536H231.842V40.106C231.02 39.9447 230.353 39.6 229.839 39.072C229.341 38.544 229.092 37.796 229.092 36.828C229.092 36.256 229.187 35.7573 229.378 35.332C229.583 34.9067 229.862 34.5547 230.214 34.276C230.566 33.9973 230.976 33.792 231.445 33.66C231.929 33.528 232.457 33.462 233.029 33.462H242.292C242.864 33.462 243.384 33.528 243.854 33.66C244.338 33.792 244.755 33.9973 245.107 34.276C245.459 34.5547 245.731 34.9067 245.922 35.332C246.127 35.7573 246.23 36.256 246.23 36.828C246.23 37.796 245.973 38.544 245.46 39.072C244.961 39.6 244.301 39.9447 243.48 40.106V41.536H245.438C245.702 41.536 245.899 41.5947 246.031 41.712C246.163 41.8293 246.23 42.0347 246.23 42.328V43.296C246.23 43.5893 246.163 43.7947 246.031 43.912C245.899 44.0293 245.702 44.088 245.438 44.088H229.883ZM246.23 48.62C246.23 49.3093 246.127 49.8667 245.922 50.292C245.716 50.7173 245.423 51.0473 245.042 51.282C244.675 51.5167 244.235 51.678 243.721 51.766C243.223 51.854 242.673 51.898 242.072 51.898H233.227C232.626 51.898 232.076 51.854 231.577 51.766C231.079 51.678 230.639 51.5167 230.258 51.282C229.891 51.0473 229.605 50.7173 229.4 50.292C229.194 49.8667 229.092 49.3093 229.092 48.62C229.092 47.9453 229.194 47.3953 229.4 46.97C229.605 46.53 229.891 46.1927 230.258 45.958C230.639 45.7233 231.079 45.562 231.577 45.474C232.076 45.386 232.626 45.342 233.227 45.342H242.072C242.673 45.342 243.223 45.386 243.721 45.474C244.235 45.562 244.675 45.7233 245.042 45.958C245.423 46.1927 245.716 46.53 245.922 46.97C246.127 47.3953 246.23 47.9453 246.23 48.62ZM241.786 37.642C242.123 37.642 242.358 37.5687 242.49 37.422C242.622 37.2753 242.688 37.0773 242.688 36.828C242.688 36.2853 242.387 36.014 241.786 36.014H233.536C232.934 36.014 232.633 36.2853 232.633 36.828C232.633 37.0773 232.699 37.2753 232.831 37.422C232.963 37.5687 233.198 37.642 233.536 37.642H241.786ZM232.831 48.62C232.831 48.9133 232.897 49.104 233.029 49.192C233.176 49.2947 233.389 49.346 233.667 49.346H241.632C241.925 49.346 242.138 49.2947 242.27 49.192C242.416 49.104 242.49 48.9133 242.49 48.62C242.49 48.3267 242.416 48.136 242.27 48.048C242.138 47.9453 241.925 47.894 241.632 47.894H233.667C233.389 47.894 233.176 47.9453 233.029 48.048C232.897 48.136 232.831 48.3267 232.831 48.62ZM235.559 41.536H239.762V40.194H235.559V41.536Z" fill="#333333"/>
<path d="M248.08 43.758C248.08 43.0687 248.153 42.4673 248.3 41.954C248.461 41.4407 248.733 41.0153 249.114 40.678C249.495 40.3407 250.016 40.0913 250.676 39.93C251.336 39.754 252.165 39.666 253.162 39.666C254.159 39.666 254.981 39.754 255.626 39.93C256.286 40.0913 256.807 40.3407 257.188 40.678C257.584 41.0153 257.855 41.4407 258.002 41.954C258.163 42.4673 258.244 43.0687 258.244 43.758V47.366C258.244 48.0553 258.163 48.6567 258.002 49.17C257.855 49.6833 257.584 50.1087 257.188 50.446C256.807 50.7833 256.286 51.0327 255.626 51.194C254.981 51.37 254.159 51.458 253.162 51.458C252.165 51.458 251.336 51.37 250.676 51.194C250.016 51.0327 249.495 50.7833 249.114 50.446C248.733 50.1087 248.461 49.6833 248.3 49.17C248.153 48.6567 248.08 48.0553 248.08 47.366V43.758ZM261.06 51.898C260.767 51.898 260.561 51.832 260.444 51.7C260.327 51.568 260.268 51.37 260.268 51.106V34.254C260.268 33.99 260.327 33.792 260.444 33.66C260.561 33.528 260.767 33.462 261.06 33.462H263.216C263.509 33.462 263.715 33.528 263.832 33.66C263.949 33.792 264.008 33.99 264.008 34.254V41.206H265.262C265.526 41.206 265.724 41.2647 265.856 41.382C265.988 41.4993 266.054 41.7047 266.054 41.998V44.044C266.054 44.3373 265.988 44.5427 265.856 44.66C265.724 44.7773 265.526 44.836 265.262 44.836H264.008V51.106C264.008 51.37 263.949 51.568 263.832 51.7C263.715 51.832 263.509 51.898 263.216 51.898H261.06ZM248.454 37.73C248.19 37.73 247.992 37.6713 247.86 37.554C247.728 37.4367 247.662 37.2313 247.662 36.938V36.036C247.662 35.7427 247.728 35.5373 247.86 35.42C247.992 35.3027 248.19 35.244 248.454 35.244H251.292V34.254C251.292 33.99 251.351 33.792 251.468 33.66C251.585 33.528 251.791 33.462 252.084 33.462H254.24C254.533 33.462 254.739 33.528 254.856 33.66C254.973 33.792 255.032 33.99 255.032 34.254V35.244H257.87C258.134 35.244 258.332 35.3027 258.464 35.42C258.596 35.5373 258.662 35.7427 258.662 36.036V36.938C258.662 37.2313 258.596 37.4367 258.464 37.554C258.332 37.6713 258.134 37.73 257.87 37.73H248.454ZM251.82 47.388C251.82 47.652 251.827 47.894 251.842 48.114C251.871 48.334 251.93 48.5173 252.018 48.664C252.121 48.8107 252.26 48.928 252.436 49.016C252.612 49.0893 252.854 49.126 253.162 49.126C253.47 49.126 253.712 49.0893 253.888 49.016C254.064 48.928 254.196 48.8107 254.284 48.664C254.387 48.5173 254.445 48.334 254.46 48.114C254.489 47.894 254.504 47.652 254.504 47.388V43.736C254.504 43.472 254.489 43.23 254.46 43.01C254.445 42.79 254.387 42.6067 254.284 42.46C254.196 42.3133 254.064 42.2033 253.888 42.13C253.712 42.042 253.47 41.998 253.162 41.998C252.854 41.998 252.612 42.042 252.436 42.13C252.26 42.2033 252.121 42.3133 252.018 42.46C251.93 42.6067 251.871 42.79 251.842 43.01C251.827 43.23 251.82 43.472 251.82 43.736V47.388Z" fill="#333333"/>
<path d="M267.223 34.254C267.223 33.99 267.281 33.792 267.399 33.66C267.516 33.528 267.721 33.462 268.015 33.462H276.529C276.822 33.462 277.027 33.528 277.145 33.66C277.262 33.792 277.321 33.99 277.321 34.254V50.666C277.321 50.93 277.262 51.128 277.145 51.26C277.027 51.392 276.822 51.458 276.529 51.458H268.015C267.721 51.458 267.516 51.392 267.399 51.26C267.281 51.128 267.223 50.93 267.223 50.666V34.254ZM281.083 51.898C280.789 51.898 280.584 51.832 280.467 51.7C280.349 51.568 280.291 51.37 280.291 51.106V47.696H278.773C278.509 47.696 278.311 47.6373 278.179 47.52C278.047 47.4027 277.981 47.1973 277.981 46.904V44.858C277.981 44.5647 278.047 44.3593 278.179 44.242C278.311 44.1247 278.509 44.066 278.773 44.066H280.291V40.876H278.773C278.509 40.876 278.311 40.8173 278.179 40.7C278.047 40.5827 277.981 40.3773 277.981 40.084V38.038C277.981 37.7447 278.047 37.5393 278.179 37.422C278.311 37.3047 278.509 37.246 278.773 37.246H280.291V34.254C280.291 33.99 280.349 33.792 280.467 33.66C280.584 33.528 280.789 33.462 281.083 33.462H283.239C283.532 33.462 283.737 33.528 283.855 33.66C283.972 33.792 284.031 33.99 284.031 34.254V51.106C284.031 51.37 283.972 51.568 283.855 51.7C283.737 51.832 283.532 51.898 283.239 51.898H281.083ZM270.963 48.928H273.581V36.014H270.963V48.928Z" fill="#333333"/>
<path d="M300.87 51.15C300.152 50.7393 299.433 50.182 298.714 49.478C297.996 48.7887 297.35 48.0553 296.778 47.278C296.192 48.07 295.546 48.8107 294.842 49.5C294.138 50.1893 293.427 50.7393 292.708 51.15C292.562 51.2233 292.437 51.238 292.334 51.194C292.232 51.1647 292.18 51.04 292.18 50.82V47.718C292.18 47.5273 292.217 47.366 292.29 47.234C292.378 47.0873 292.481 46.97 292.598 46.882C292.906 46.662 293.2 46.4053 293.478 46.112C293.757 45.8187 294.006 45.5033 294.226 45.166C294.446 44.8287 294.622 44.4693 294.754 44.088C294.886 43.692 294.952 43.2887 294.952 42.878V34.254C294.952 33.99 295.011 33.792 295.128 33.66C295.246 33.528 295.451 33.462 295.744 33.462H297.834C298.128 33.462 298.333 33.528 298.45 33.66C298.568 33.792 298.626 33.99 298.626 34.254V42.878C298.626 43.2887 298.692 43.692 298.824 44.088C298.956 44.4693 299.132 44.8287 299.352 45.166C299.572 45.5033 299.822 45.8187 300.1 46.112C300.379 46.4053 300.672 46.662 300.98 46.882C301.098 46.97 301.193 47.0873 301.266 47.234C301.354 47.366 301.398 47.5273 301.398 47.718V50.82C301.398 51.04 301.347 51.1647 301.244 51.194C301.142 51.238 301.017 51.2233 300.87 51.15ZM302.85 51.898C302.557 51.898 302.352 51.832 302.234 51.7C302.117 51.568 302.058 51.37 302.058 51.106V43.736H301.024C300.76 43.736 300.562 43.6773 300.43 43.56C300.298 43.4427 300.232 43.2373 300.232 42.944V40.898C300.232 40.6047 300.298 40.3993 300.43 40.282C300.562 40.1647 300.76 40.106 301.024 40.106H302.058V34.254C302.058 33.99 302.117 33.792 302.234 33.66C302.352 33.528 302.557 33.462 302.85 33.462H304.5C304.794 33.462 304.999 33.528 305.116 33.66C305.234 33.792 305.292 33.99 305.292 34.254V51.106C305.292 51.37 305.234 51.568 305.116 51.7C304.999 51.832 304.794 51.898 304.5 51.898H302.85ZM307.074 51.898C306.781 51.898 306.576 51.832 306.458 51.7C306.341 51.568 306.282 51.37 306.282 51.106V34.254C306.282 33.99 306.341 33.792 306.458 33.66C306.576 33.528 306.781 33.462 307.074 33.462H308.724C309.018 33.462 309.223 33.528 309.34 33.66C309.458 33.792 309.516 33.99 309.516 34.254V51.106C309.516 51.37 309.458 51.568 309.34 51.7C309.223 51.832 309.018 51.898 308.724 51.898H307.074Z" fill="#333333"/>
<path d="M321.993 51.898C321.7 51.898 321.494 51.832 321.377 51.7C321.26 51.568 321.201 51.37 321.201 51.106V47.476H320.321C320.057 47.476 319.859 47.4173 319.727 47.3C319.595 47.1827 319.529 46.9773 319.529 46.684V44.638C319.529 44.3447 319.595 44.1393 319.727 44.022C319.859 43.9047 320.057 43.846 320.321 43.846H321.201V40.876H319.727C319.61 42.2547 319.382 43.494 319.045 44.594C318.708 45.694 318.238 46.6693 317.637 47.52C317.036 48.3707 316.288 49.104 315.393 49.72C314.513 50.3507 313.464 50.8713 312.247 51.282C311.836 51.414 311.631 51.2747 311.631 50.864V48.466C311.631 48.2753 311.66 48.1507 311.719 48.092C311.778 48.0187 311.902 47.9453 312.093 47.872C313.648 47.2853 314.755 46.1853 315.415 44.572C316.09 42.944 316.427 40.7513 316.427 37.994V36.014H312.423C312.159 36.014 311.961 35.9553 311.829 35.838C311.697 35.7207 311.631 35.5153 311.631 35.222V34.254C311.631 33.9607 311.697 33.7553 311.829 33.638C311.961 33.5207 312.159 33.462 312.423 33.462H319.045C319.338 33.462 319.544 33.528 319.661 33.66C319.778 33.792 319.837 33.99 319.837 34.254V37.246H321.201V34.254C321.201 33.99 321.26 33.792 321.377 33.66C321.494 33.528 321.7 33.462 321.993 33.462H323.643C323.936 33.462 324.142 33.528 324.259 33.66C324.376 33.792 324.435 33.99 324.435 34.254V51.106C324.435 51.37 324.376 51.568 324.259 51.7C324.142 51.832 323.936 51.898 323.643 51.898H321.993ZM326.217 51.898C325.924 51.898 325.718 51.832 325.601 51.7C325.484 51.568 325.425 51.37 325.425 51.106V34.254C325.425 33.99 325.484 33.792 325.601 33.66C325.718 33.528 325.924 33.462 326.217 33.462H327.867C328.16 33.462 328.366 33.528 328.483 33.66C328.6 33.792 328.659 33.99 328.659 34.254V51.106C328.659 51.37 328.6 51.568 328.483 51.7C328.366 51.832 328.16 51.898 327.867 51.898H326.217Z" fill="#333333"/>
<path d="M336.896 45.804C336.896 45.54 336.955 45.342 337.072 45.21C337.19 45.078 337.395 45.012 337.688 45.012H352.912C353.206 45.012 353.411 45.078 353.528 45.21C353.646 45.342 353.704 45.54 353.704 45.804V51.106C353.704 51.37 353.646 51.568 353.528 51.7C353.411 51.832 353.206 51.898 352.912 51.898H350.757C350.463 51.898 350.258 51.832 350.14 51.7C350.023 51.568 349.964 51.37 349.964 51.106V47.564H337.688C337.395 47.564 337.19 47.498 337.072 47.366C336.955 47.234 336.896 47.036 336.896 46.772V45.804ZM336.896 41.096C336.896 40.744 337.05 40.546 337.358 40.502C338.15 40.3993 338.891 40.2307 339.58 39.996C340.284 39.7467 340.9 39.4387 341.428 39.072C341.956 38.6907 342.374 38.2507 342.682 37.752C342.99 37.2387 343.144 36.6593 343.144 36.014H337.688C337.424 36.014 337.226 35.9553 337.094 35.838C336.962 35.7207 336.896 35.5153 336.896 35.222V34.254C336.896 33.9607 336.962 33.7553 337.094 33.638C337.226 33.5207 337.424 33.462 337.688 33.462H346.092C346.386 33.462 346.591 33.528 346.708 33.66C346.826 33.792 346.884 33.99 346.884 34.254V35.134C346.884 36.4833 346.62 37.642 346.092 38.61C345.564 39.5633 344.86 40.3627 343.98 41.008C343.1 41.6387 342.096 42.13 340.966 42.482C339.852 42.8193 338.7 43.0467 337.512 43.164C337.292 43.1933 337.131 43.186 337.028 43.142C336.94 43.0833 336.896 42.9513 336.896 42.746V41.096ZM349.876 43.208C349.583 43.208 349.378 43.142 349.26 43.01C349.143 42.878 349.084 42.68 349.084 42.416V34.254C349.084 33.99 349.143 33.792 349.26 33.66C349.378 33.528 349.583 33.462 349.876 33.462H352.032C352.326 33.462 352.531 33.528 352.648 33.66C352.766 33.792 352.824 33.99 352.824 34.254V37.07H353.858C354.122 37.07 354.32 37.1287 354.452 37.246C354.584 37.3633 354.65 37.5687 354.65 37.862V38.83C354.65 39.1233 354.584 39.3287 354.452 39.446C354.32 39.5633 354.122 39.622 353.858 39.622H352.824V42.416C352.824 42.68 352.766 42.878 352.648 43.01C352.531 43.142 352.326 43.208 352.032 43.208H349.876Z" fill="#333333"/>
<path d="M363.145 35.992V42.878C363.145 43.2887 363.24 43.692 363.431 44.088C363.622 44.4693 363.864 44.836 364.157 45.188C364.465 45.54 364.795 45.8627 365.147 46.156C365.499 46.4493 365.836 46.706 366.159 46.926C366.438 47.1167 366.577 47.3953 366.577 47.762V50.842C366.577 51.062 366.526 51.1867 366.423 51.216C366.32 51.26 366.196 51.2453 366.049 51.172C365.184 50.7027 364.34 50.1527 363.519 49.522C362.698 48.906 361.957 48.158 361.297 47.278C360.637 48.158 359.896 48.906 359.075 49.522C358.254 50.1527 357.418 50.7027 356.567 51.172C356.42 51.2453 356.296 51.26 356.193 51.216C356.09 51.1867 356.039 51.062 356.039 50.842V47.762C356.039 47.3953 356.178 47.1167 356.457 46.926C356.78 46.706 357.117 46.4493 357.469 46.156C357.821 45.8627 358.144 45.54 358.437 45.188C358.745 44.836 358.994 44.4693 359.185 44.088C359.376 43.692 359.471 43.2887 359.471 42.878V35.992H356.611C356.347 35.992 356.149 35.9333 356.017 35.816C355.885 35.6987 355.819 35.4933 355.819 35.2V34.254C355.819 33.9607 355.885 33.7553 356.017 33.638C356.149 33.5207 356.347 33.462 356.611 33.462H366.005C366.269 33.462 366.467 33.5207 366.599 33.638C366.731 33.7553 366.797 33.9607 366.797 34.254V35.2C366.797 35.4933 366.731 35.6987 366.599 35.816C366.467 35.9333 366.269 35.992 366.005 35.992H363.145ZM369.899 51.898C369.606 51.898 369.4 51.832 369.283 51.7C369.166 51.568 369.107 51.37 369.107 51.106V34.254C369.107 33.99 369.166 33.792 369.283 33.66C369.4 33.528 369.606 33.462 369.899 33.462H372.055C372.348 33.462 372.554 33.528 372.671 33.66C372.788 33.792 372.847 33.99 372.847 34.254V51.106C372.847 51.37 372.788 51.568 372.671 51.7C372.554 51.832 372.348 51.898 372.055 51.898H369.899Z" fill="#333333"/>
<path d="M375.776 39.006C375.776 38.742 375.834 38.544 375.952 38.412C376.069 38.28 376.274 38.214 376.568 38.214H388.294V35.992H376.568C376.274 35.992 376.069 35.926 375.952 35.794C375.834 35.662 375.776 35.464 375.776 35.2V34.254C375.776 33.99 375.834 33.792 375.952 33.66C376.069 33.528 376.274 33.462 376.568 33.462H391.242C391.535 33.462 391.74 33.528 391.858 33.66C391.975 33.792 392.034 33.99 392.034 34.254V39.974C392.034 40.238 391.975 40.436 391.858 40.568C391.74 40.7 391.535 40.766 391.242 40.766H379.494V42.878H391.242C391.535 42.878 391.74 42.944 391.858 43.076C391.975 43.208 392.034 43.406 392.034 43.67V44.638C392.034 44.902 391.975 45.1 391.858 45.232C391.74 45.364 391.535 45.43 391.242 45.43H385.764V49.346H391.462C391.726 49.346 391.924 49.4047 392.056 49.522C392.188 49.6393 392.254 49.8447 392.254 50.138V51.106C392.254 51.3993 392.188 51.6047 392.056 51.722C391.924 51.8393 391.726 51.898 391.462 51.898H376.348C376.084 51.898 375.886 51.8393 375.754 51.722C375.622 51.6047 375.556 51.3993 375.556 51.106V50.138C375.556 49.8447 375.622 49.6393 375.754 49.522C375.886 49.4047 376.084 49.346 376.348 49.346H382.046V45.43H376.568C376.274 45.43 376.069 45.364 375.952 45.232C375.834 45.1 375.776 44.902 375.776 44.638V39.006Z" fill="#333333"/>
<path d="M401.613 51.898C401.349 51.898 401.151 51.8393 401.019 51.722C400.887 51.6047 400.821 51.3993 400.821 51.106V50.138C400.821 49.8447 400.887 49.6393 401.019 49.522C401.151 49.4047 401.349 49.346 401.613 49.346H407.311V45.43H401.833C401.54 45.43 401.335 45.364 401.217 45.232C401.1 45.1 401.041 44.902 401.041 44.638V34.254C401.041 33.99 401.1 33.792 401.217 33.66C401.335 33.528 401.54 33.462 401.833 33.462H416.507C416.801 33.462 417.006 33.528 417.123 33.66C417.241 33.792 417.299 33.99 417.299 34.254V44.638C417.299 44.902 417.241 45.1 417.123 45.232C417.006 45.364 416.801 45.43 416.507 45.43H411.029V49.346H416.727C416.991 49.346 417.189 49.4047 417.321 49.522C417.453 49.6393 417.519 49.8447 417.519 50.138V51.106C417.519 51.3993 417.453 51.6047 417.321 51.722C417.189 51.8393 416.991 51.898 416.727 51.898H401.613ZM404.781 42.878H413.559V35.992H404.781V42.878Z" fill="#333333"/>
<path d="M419.59 46.024C419.59 45.76 419.649 45.562 419.766 45.43C419.883 45.298 420.089 45.232 420.382 45.232H435.606C435.899 45.232 436.104 45.298 436.222 45.43C436.339 45.562 436.398 45.76 436.398 46.024V51.106C436.398 51.37 436.339 51.568 436.222 51.7C436.104 51.832 435.899 51.898 435.606 51.898H420.382C420.089 51.898 419.883 51.832 419.766 51.7C419.649 51.568 419.59 51.37 419.59 51.106V46.024ZM430.106 40.964C430.106 41.492 430.011 41.9393 429.82 42.306C429.644 42.6727 429.387 42.9807 429.05 43.23C428.713 43.4647 428.302 43.6407 427.818 43.758C427.349 43.8607 426.821 43.912 426.234 43.912H423.462C422.289 43.912 421.35 43.6847 420.646 43.23C419.942 42.7607 419.59 42.0053 419.59 40.964C419.59 39.9227 419.942 39.1747 420.646 38.72C421.35 38.2507 422.289 38.016 423.462 38.016H426.234C426.821 38.016 427.349 38.0747 427.818 38.192C428.302 38.2947 428.713 38.4707 429.05 38.72C429.387 38.9547 429.644 39.2553 429.82 39.622C430.011 39.9887 430.106 40.436 430.106 40.964ZM433.45 43.868C433.157 43.868 432.951 43.802 432.834 43.67C432.716 43.538 432.658 43.34 432.658 43.076V40.282H431.36C431.096 40.282 430.898 40.2233 430.766 40.106C430.634 39.9887 430.568 39.7833 430.568 39.49V38.522C430.568 38.2287 430.634 38.0233 430.766 37.906C430.898 37.7887 431.096 37.73 431.36 37.73H432.658V34.254C432.658 33.99 432.716 33.792 432.834 33.66C432.951 33.528 433.157 33.462 433.45 33.462H435.606C435.899 33.462 436.104 33.528 436.222 33.66C436.339 33.792 436.398 33.99 436.398 34.254V43.076C436.398 43.34 436.339 43.538 436.222 43.67C436.104 43.802 435.899 43.868 435.606 43.868H433.45ZM420.14 37.29C419.876 37.29 419.678 37.2313 419.546 37.114C419.414 36.9967 419.348 36.7913 419.348 36.498V35.552C419.348 35.2587 419.414 35.0533 419.546 34.936C419.678 34.8187 419.876 34.76 420.14 34.76H422.978V34.254C422.978 33.99 423.037 33.792 423.154 33.66C423.271 33.528 423.477 33.462 423.77 33.462H425.926C426.219 33.462 426.425 33.528 426.542 33.66C426.659 33.792 426.718 33.99 426.718 34.254V34.76H429.556C429.82 34.76 430.018 34.8187 430.15 34.936C430.282 35.0533 430.348 35.2587 430.348 35.552V36.498C430.348 36.7913 430.282 36.9967 430.15 37.114C430.018 37.2313 429.82 37.29 429.556 37.29H420.14ZM423.33 49.368H432.658V47.762H423.33V49.368ZM426.366 40.964C426.366 40.6707 426.271 40.4727 426.08 40.37C425.904 40.2673 425.64 40.216 425.288 40.216H424.408C424.056 40.216 423.785 40.2673 423.594 40.37C423.418 40.4727 423.33 40.6707 423.33 40.964C423.33 41.2573 423.418 41.4553 423.594 41.558C423.785 41.6607 424.056 41.712 424.408 41.712H425.288C425.64 41.712 425.904 41.6607 426.08 41.558C426.271 41.4553 426.366 41.2573 426.366 40.964Z" fill="#333333"/>
<path d="M442.802 39.402C442.245 39.402 441.724 39.3653 441.24 39.292C440.771 39.204 440.36 39.05 440.008 38.83C439.656 38.61 439.378 38.3167 439.172 37.95C438.982 37.5687 438.886 37.0847 438.886 36.498C438.886 35.926 438.982 35.4493 439.172 35.068C439.378 34.672 439.656 34.3567 440.008 34.122C440.36 33.8873 440.771 33.7187 441.24 33.616C441.724 33.5133 442.252 33.462 442.824 33.462H452.086C452.658 33.462 453.179 33.5133 453.648 33.616C454.132 33.7187 454.55 33.8873 454.902 34.122C455.254 34.3567 455.526 34.672 455.716 35.068C455.922 35.4493 456.024 35.926 456.024 36.498C456.024 37.0847 455.922 37.5687 455.716 37.95C455.526 38.3167 455.254 38.61 454.902 38.83C454.55 39.05 454.132 39.204 453.648 39.292C453.179 39.3653 452.666 39.402 452.108 39.402H442.802ZM451.8 37.026C452.079 37.026 452.262 36.9673 452.35 36.85C452.438 36.7327 452.482 36.6007 452.482 36.454C452.482 36.2927 452.431 36.1533 452.328 36.036C452.226 35.904 452.05 35.838 451.8 35.838H443.11C442.861 35.838 442.685 35.904 442.582 36.036C442.48 36.1533 442.428 36.2927 442.428 36.454C442.428 36.6007 442.472 36.7327 442.56 36.85C442.648 36.9673 442.832 37.026 443.11 37.026H451.8ZM439.678 42.636C439.414 42.636 439.216 42.5773 439.084 42.46C438.952 42.3427 438.886 42.1373 438.886 41.844V40.986C438.886 40.6927 438.952 40.4873 439.084 40.37C439.216 40.2527 439.414 40.194 439.678 40.194H455.232C455.496 40.194 455.694 40.2527 455.826 40.37C455.958 40.4873 456.024 40.6927 456.024 40.986V41.844C456.024 42.1373 455.958 42.3427 455.826 42.46C455.694 42.5773 455.496 42.636 455.232 42.636H439.678ZM438.886 47.3C438.886 47.036 438.945 46.838 439.062 46.706C439.18 46.574 439.385 46.508 439.678 46.508H452.284V45.672H439.568C439.114 45.672 438.886 45.4593 438.886 45.034V44.066C438.886 43.6407 439.114 43.428 439.568 43.428H455.232C455.526 43.428 455.731 43.494 455.848 43.626C455.966 43.758 456.024 43.956 456.024 44.22V47.982C456.024 48.246 455.966 48.444 455.848 48.576C455.731 48.708 455.526 48.774 455.232 48.774H442.626V49.676H455.342C455.797 49.676 456.024 49.8887 456.024 50.314V51.26C456.024 51.6853 455.797 51.898 455.342 51.898H439.678C439.385 51.898 439.18 51.832 439.062 51.7C438.945 51.568 438.886 51.37 438.886 51.106V47.3Z" fill="#333333"/>
<path d="M477.858 51.898C477.565 51.898 477.359 51.832 477.242 51.7C477.125 51.568 477.066 51.37 477.066 51.106V44.176H475.988C475.724 44.176 475.526 44.1173 475.394 44C475.262 43.8827 475.196 43.6773 475.196 43.384V41.338C475.196 41.0447 475.262 40.8393 475.394 40.722C475.526 40.6047 475.724 40.546 475.988 40.546H477.066V34.254C477.066 33.99 477.125 33.792 477.242 33.66C477.359 33.528 477.565 33.462 477.858 33.462H480.014C480.307 33.462 480.513 33.528 480.63 33.66C480.747 33.792 480.806 33.99 480.806 34.254V51.106C480.806 51.37 480.747 51.568 480.63 51.7C480.513 51.832 480.307 51.898 480.014 51.898H477.858ZM469.938 34.254C469.938 33.99 469.997 33.792 470.114 33.66C470.231 33.528 470.437 33.462 470.73 33.462H474.624C474.917 33.462 475.123 33.528 475.24 33.66C475.357 33.792 475.416 33.99 475.416 34.254V35.2C475.416 35.464 475.357 35.662 475.24 35.794C475.123 35.926 474.917 35.992 474.624 35.992H473.458V48.928H474.822C475.115 48.928 475.321 48.994 475.438 49.126C475.555 49.258 475.614 49.456 475.614 49.72V50.666C475.614 50.93 475.555 51.128 475.438 51.26C475.321 51.392 475.115 51.458 474.822 51.458H470.73C470.437 51.458 470.231 51.392 470.114 51.26C469.997 51.128 469.938 50.93 469.938 50.666V34.254ZM463.998 34.254C463.998 33.99 464.057 33.792 464.174 33.66C464.291 33.528 464.497 33.462 464.79 33.462H468.464C468.757 33.462 468.963 33.528 469.08 33.66C469.197 33.792 469.256 33.99 469.256 34.254V35.2C469.256 35.464 469.197 35.662 469.08 35.794C468.963 35.926 468.757 35.992 468.464 35.992H467.518V48.928H468.662C468.955 48.928 469.161 48.994 469.278 49.126C469.395 49.258 469.454 49.456 469.454 49.72V50.666C469.454 50.93 469.395 51.128 469.278 51.26C469.161 51.392 468.955 51.458 468.662 51.458H464.79C464.497 51.458 464.291 51.392 464.174 51.26C464.057 51.128 463.998 50.93 463.998 50.666V34.254Z" fill="#333333"/>
<path d="M483.141 44.638C483.141 44.374 483.199 44.176 483.317 44.044C483.434 43.912 483.639 43.846 483.933 43.846H486.089C486.382 43.846 486.587 43.912 486.705 44.044C486.822 44.176 486.881 44.374 486.881 44.638V45.496H496.209V44.638C496.209 44.374 496.267 44.176 496.385 44.044C496.502 43.912 496.707 43.846 497.001 43.846H499.157C499.45 43.846 499.655 43.912 499.773 44.044C499.89 44.176 499.949 44.374 499.949 44.638V51.106C499.949 51.37 499.89 51.568 499.773 51.7C499.655 51.832 499.45 51.898 499.157 51.898H483.933C483.639 51.898 483.434 51.832 483.317 51.7C483.199 51.568 483.141 51.37 483.141 51.106V44.638ZM493.217 41.316C493.217 41.58 493.158 41.778 493.041 41.91C492.923 42.042 492.718 42.108 492.425 42.108H483.933C483.639 42.108 483.434 42.042 483.317 41.91C483.199 41.778 483.141 41.58 483.141 41.316V34.276C483.141 34.012 483.199 33.814 483.317 33.682C483.434 33.55 483.639 33.484 483.933 33.484H486.089C486.382 33.484 486.587 33.55 486.705 33.682C486.822 33.814 486.881 34.012 486.881 34.276V39.556H492.425C492.718 39.556 492.923 39.622 493.041 39.754C493.158 39.886 493.217 40.084 493.217 40.348V41.316ZM496.121 42.548C495.827 42.548 495.622 42.482 495.505 42.35C495.387 42.218 495.329 42.02 495.329 41.756V34.254C495.329 33.99 495.387 33.792 495.505 33.66C495.622 33.528 495.827 33.462 496.121 33.462H498.277C498.57 33.462 498.775 33.528 498.893 33.66C499.01 33.792 499.069 33.99 499.069 34.254V36.63H500.103C500.367 36.63 500.565 36.6887 500.697 36.806C500.829 36.9233 500.895 37.1287 500.895 37.422V38.39C500.895 38.6833 500.829 38.8887 500.697 39.006C500.565 39.1233 500.367 39.182 500.103 39.182H499.069V41.756C499.069 42.02 499.01 42.218 498.893 42.35C498.775 42.482 498.57 42.548 498.277 42.548H496.121ZM496.209 49.368V48.048H486.881V49.368H496.209Z" fill="#333333"/>
<path d="M512.799 50.666C512.799 50.93 512.741 51.128 512.623 51.26C512.506 51.392 512.301 51.458 512.007 51.458H503.075C502.782 51.458 502.577 51.392 502.459 51.26C502.342 51.128 502.283 50.93 502.283 50.666V34.254C502.283 33.99 502.342 33.792 502.459 33.66C502.577 33.528 502.782 33.462 503.075 33.462H505.231C505.525 33.462 505.73 33.528 505.847 33.66C505.965 33.792 506.023 33.99 506.023 34.254V48.928H512.007C512.301 48.928 512.506 48.994 512.623 49.126C512.741 49.258 512.799 49.456 512.799 49.72V50.666ZM516.143 51.898C515.85 51.898 515.645 51.832 515.527 51.7C515.41 51.568 515.351 51.37 515.351 51.106V34.254C515.351 33.99 515.41 33.792 515.527 33.66C515.645 33.528 515.85 33.462 516.143 33.462H518.299C518.593 33.462 518.798 33.528 518.915 33.66C519.033 33.792 519.091 33.99 519.091 34.254V51.106C519.091 51.37 519.033 51.568 518.915 51.7C518.798 51.832 518.593 51.898 518.299 51.898H516.143Z" fill="#333333"/>
<path d="M521.426 34.254C521.426 33.99 521.484 33.792 521.602 33.66C521.719 33.528 521.924 33.462 522.218 33.462H530.952C531.245 33.462 531.45 33.528 531.568 33.66C531.685 33.792 531.744 33.99 531.744 34.254V35.2C531.744 35.464 531.685 35.662 531.568 35.794C531.45 35.926 531.245 35.992 530.952 35.992H525.166V48.928H531.15C531.443 48.928 531.648 48.994 531.766 49.126C531.883 49.258 531.942 49.456 531.942 49.72V50.666C531.942 50.93 531.883 51.128 531.766 51.26C531.648 51.392 531.443 51.458 531.15 51.458H522.218C521.924 51.458 521.719 51.392 521.602 51.26C521.484 51.128 521.426 50.93 521.426 50.666V34.254ZM534.406 51.898C534.112 51.898 533.907 51.832 533.79 51.7C533.672 51.568 533.614 51.37 533.614 51.106V34.254C533.614 33.99 533.672 33.792 533.79 33.66C533.907 33.528 534.112 33.462 534.406 33.462H536.562C536.855 33.462 537.06 33.528 537.178 33.66C537.295 33.792 537.354 33.99 537.354 34.254V41.206H538.608C538.872 41.206 539.07 41.2647 539.202 41.382C539.334 41.4993 539.4 41.7047 539.4 41.998V44.044C539.4 44.3373 539.334 44.5427 539.202 44.66C539.07 44.7773 538.872 44.836 538.608 44.836H537.354V51.106C537.354 51.37 537.295 51.568 537.178 51.7C537.06 51.832 536.855 51.898 536.562 51.898H534.406Z" fill="#333333"/>
</svg>
