<svg width="44" height="21" viewBox="0 0 44 21" fill="none" xmlns="http://www.w3.org/2000/svg">
<rect width="44" height="21" rx="10.5" fill="#FA6973"/>
<path d="M6.924 6.264H11.76V7.32H8.232V12.3C9.9 12.288 11.064 12.228 12.372 11.976L12.504 13.044C11.028 13.332 9.744 13.392 7.764 13.392H6.924V6.264ZM13.992 5.28H15.3V15.996H13.992V10.116H11.208V9.048H13.992V5.28ZM16.8963 13.596H21.0603V11.508H17.9643V5.988H19.2723V7.728H24.1683V5.988H25.4763V11.508H22.3683V13.596H26.5683V14.676H16.8963V13.596ZM19.2723 8.772V10.452H24.1683V8.772H19.2723ZM34.8966 5.28H36.2166V15.96H34.8966V5.28ZM33.0606 6.396C33.0606 9.6 31.8486 12.288 28.1286 14.088L27.4446 13.044C30.2166 11.712 31.4766 9.9 31.7046 7.464H27.9726V6.396H33.0606Z" fill="white"/>
</svg>
