<svg width="28" height="20" viewBox="0 0 28 20" fill="none" xmlns="http://www.w3.org/2000/svg">
<path d="M11.1378 0.159495C11.5425 -0.0608545 12.105 -0.0525059 12.5023 0.182172L27.3664 8.91732C27.7501 9.14209 28 9.54666 28 9.9786C28 10.033 27.9966 10.0869 27.9897 10.1401C27.9828 10.1932 27.9723 10.2466 27.9588 10.2979C27.8775 10.6057 27.6794 10.8749 27.3918 11.0444L12.5651 19.7796C12.3666 19.8961 12.1107 19.9561 11.8538 19.9601C11.7253 19.9621 11.5962 19.9501 11.4742 19.9238C11.352 19.8975 11.2366 19.857 11.135 19.8022C10.7317 19.5819 10.3488 19.1686 10.3486 18.7165V16.0052C10.3486 15.7967 10.3086 15.5935 10.2343 15.4038C10.1685 15.236 10.0748 15.0798 9.95783 14.9394L9.9522 14.9312C9.95094 14.9297 9.94973 14.9282 9.94845 14.9267C9.93944 14.9158 9.93072 14.9046 9.92127 14.8941C9.92303 14.896 9.92422 14.8984 9.92596 14.9004C9.88426 14.8533 9.84003 14.808 9.79288 14.7652C9.78803 14.7609 9.78278 14.7569 9.77788 14.7525L9.78538 14.758C9.78139 14.7546 9.77713 14.7515 9.7732 14.748C9.77483 14.7495 9.77625 14.7511 9.77788 14.7525L9.62887 14.6328L9.45361 14.5231C9.03156 14.2927 8.52658 14.2416 8.05904 14.3852C7.3744 14.5966 6.72122 14.8765 6.10872 15.217L5.65698 15.4837C5.51165 15.5746 5.36876 15.6688 5.22868 15.7667C5.23374 15.7631 5.2386 15.7593 5.24367 15.7558C5.23621 15.761 5.22863 15.766 5.22118 15.7712C5.08716 15.865 4.95558 15.9625 4.82662 16.0624C4.83164 16.0585 4.83658 16.0545 4.84161 16.0506C4.82856 16.0606 4.81525 16.0704 4.80225 16.0805L4.7104 16.1549C4.23389 16.5353 3.79547 16.958 3.39831 17.4157C3.37722 17.44 3.35543 17.4638 3.33458 17.4883C3.33911 17.483 3.34317 17.4773 3.3477 17.472C3.32976 17.493 3.31111 17.5134 3.29335 17.5346C3.30661 17.5188 3.32121 17.504 3.33458 17.4883C3.31355 17.513 3.29257 17.5378 3.27179 17.5627C2.73403 18.2076 2.27794 18.9193 1.92221 19.6843C1.83286 19.8758 1.63799 20 1.42081 20C1.20372 20.0014 1.00744 19.8802 0.916589 19.6889C0.769969 19.3809 0.639221 19.0637 0.525773 18.7392L0.368322 18.2466C0.344435 18.164 0.321577 18.0807 0.299906 17.9972L0.238051 17.7432C0.0822322 17.0653 3.29979e-05 16.3605 0 15.6369C0 14.2728 0.309412 12.9737 0.862231 11.7946L1.0553 11.4063C1.18987 11.1505 1.33587 10.8999 1.49297 10.6571C2.73416 8.73894 4.65638 7.2459 6.89878 6.46731C6.85756 6.48162 6.81607 6.49514 6.77507 6.50994C6.82789 6.49081 6.88121 6.47293 6.9344 6.45461C6.95982 6.44588 6.98481 6.43594 7.01031 6.4274C7.14536 6.38201 7.28164 6.33951 7.41893 6.2995C7.46918 6.28486 7.52023 6.27262 7.57076 6.25868C7.64556 6.23805 7.72029 6.21695 7.79569 6.19791C7.81636 6.19268 7.83683 6.18668 7.85754 6.18158C7.8924 6.173 7.92754 6.16533 7.96251 6.15709C7.95869 6.15799 7.95509 6.15981 7.95127 6.16072C8.0412 6.13943 8.13142 6.11895 8.22212 6.09994C8.2087 6.10275 8.19522 6.10524 8.18182 6.10811C8.25003 6.09354 8.31844 6.07964 8.38707 6.06638C8.45496 6.05326 8.52309 6.04102 8.59138 6.02919C8.64538 6.01983 8.69927 6.00961 8.75351 6.00107C8.86856 5.9829 8.97972 5.95507 9.08622 5.91853C9.13963 5.9002 9.19179 5.87939 9.24274 5.85685L9.39175 5.78337C9.43143 5.76149 9.46928 5.73708 9.50703 5.71262C9.5276 5.69931 9.54798 5.68585 9.56795 5.6718C9.6893 5.58634 9.80021 5.48864 9.89691 5.37882C10.0031 5.25803 10.0929 5.12381 10.164 4.9797C10.2351 4.83571 10.2874 4.68171 10.3177 4.52072C10.338 4.41317 10.3486 4.30242 10.3486 4.18964V1.24345C10.3488 0.792805 10.7331 0.37843 11.1378 0.159495Z" fill="white"/>
</svg>
