<svg width="22" height="22" viewBox="0 0 22 22" fill="none" xmlns="http://www.w3.org/2000/svg">
<circle cx="11" cy="11" r="11" fill="#E60012"/>
<path d="M7.17629 12.8088C7.28919 12.9312 7.4423 13 7.60194 13C7.76159 13 7.9147 12.9312 8.0276 12.8088L11.0077 9.57598L13.9878 12.8088C14.1019 12.924 14.2527 12.9867 14.4086 12.9837C14.5644 12.9808 14.7131 12.9123 14.8234 12.7928C14.9337 12.6733 14.997 12.512 14.9999 12.343C15.0028 12.1739 14.9452 12.0102 14.8391 11.8863L11.4338 8.19124C11.3209 8.06879 11.1678 8 11.0081 8C10.8485 8 10.6954 8.06879 10.5825 8.19124L7.17629 11.8853C7.06341 12.0077 7 12.1738 7 12.347C7 12.5202 7.06341 12.6863 7.17629 12.8088Z" fill="white"/>
</svg>
