<svg width="28" height="20" viewBox="0 0 28 20" fill="none" xmlns="http://www.w3.org/2000/svg">
<path d="M16.8622 0.159495C16.4575 -0.0608545 15.895 -0.0525059 15.4977 0.182172L0.633552 8.91732C0.249851 9.14209 -4.04194e-07 9.54666 -4.04194e-07 9.9786C3.64987e-06 10.033 0.00344201 10.0869 0.0103089 10.1401C0.0172204 10.1932 0.0277065 10.2466 0.0412367 10.2979C0.122498 10.6057 0.320591 10.8749 0.608247 11.0444L15.4349 19.7796C15.6334 19.8961 15.8893 19.9561 16.1462 19.9601C16.2747 19.9621 16.4038 19.9501 16.5258 19.9238C16.648 19.8975 16.7634 19.857 16.865 19.8022C17.2683 19.5819 17.6512 19.1686 17.6514 18.7165V16.0052C17.6514 15.7967 17.6914 15.5935 17.7657 15.4038C17.8315 15.236 17.9252 15.0798 18.0422 14.9394L18.0478 14.9312C18.0491 14.9297 18.0503 14.9282 18.0515 14.9267C18.0606 14.9158 18.0693 14.9046 18.0787 14.8941C18.077 14.896 18.0758 14.8984 18.074 14.9004C18.1157 14.8533 18.16 14.808 18.2071 14.7652C18.212 14.7609 18.2172 14.7569 18.2221 14.7525L18.2146 14.758C18.2186 14.7546 18.2229 14.7515 18.2268 14.748C18.2252 14.7495 18.2237 14.7511 18.2221 14.7525L18.3711 14.6328L18.5464 14.5231C18.9684 14.2927 19.4734 14.2416 19.941 14.3852C20.6256 14.5966 21.2788 14.8765 21.8913 15.217L22.343 15.4837C22.4884 15.5746 22.6312 15.6688 22.7713 15.7667C22.7663 15.7631 22.7614 15.7593 22.7563 15.7558C22.7638 15.761 22.7714 15.766 22.7788 15.7712C22.9128 15.865 23.0444 15.9625 23.1734 16.0624C23.1684 16.0585 23.1634 16.0545 23.1584 16.0506C23.1714 16.0606 23.1848 16.0704 23.1978 16.0805L23.2896 16.1549C23.7661 16.5353 24.2045 16.958 24.6017 17.4157C24.6228 17.44 24.6446 17.4638 24.6654 17.4883C24.6609 17.483 24.6568 17.4773 24.6523 17.472C24.6702 17.493 24.6889 17.5134 24.7067 17.5346C24.6934 17.5188 24.6788 17.504 24.6654 17.4883C24.6864 17.513 24.7074 17.5378 24.7282 17.5627C25.266 18.2076 25.7221 18.9193 26.0778 19.6843C26.1671 19.8758 26.362 20 26.5792 20C26.7963 20.0014 26.9926 19.8802 27.0834 19.6889C27.23 19.3809 27.3608 19.0637 27.4742 18.7392L27.6317 18.2466C27.6556 18.164 27.6784 18.0807 27.7001 17.9972L27.7619 17.7432C27.9178 17.0653 28 16.3605 28 15.6369C28 14.2728 27.6906 12.9737 27.1378 11.7946L26.9447 11.4063C26.8101 11.1505 26.6641 10.8999 26.507 10.6571C25.2658 8.73894 23.3436 7.2459 21.1012 6.46731C21.1424 6.48162 21.1839 6.49514 21.2249 6.50994C21.1721 6.49081 21.1188 6.47293 21.0656 6.45461C21.0402 6.44588 21.0152 6.43594 20.9897 6.4274C20.8546 6.38201 20.7184 6.33951 20.5811 6.2995C20.5308 6.28486 20.4798 6.27262 20.4292 6.25868C20.3544 6.23805 20.2797 6.21695 20.2043 6.19791C20.1836 6.19268 20.1632 6.18668 20.1425 6.18158C20.1076 6.173 20.0725 6.16533 20.0375 6.15709C20.0413 6.15799 20.0449 6.15981 20.0487 6.16072C19.9588 6.13943 19.8686 6.11895 19.7779 6.09994C19.7913 6.10275 19.8048 6.10524 19.8182 6.10811C19.75 6.09354 19.6816 6.07964 19.6129 6.06638C19.545 6.05326 19.4769 6.04102 19.4086 6.02919C19.3546 6.01983 19.3007 6.00961 19.2465 6.00107C19.1314 5.9829 19.0203 5.95507 18.9138 5.91853C18.8604 5.9002 18.8082 5.87939 18.7573 5.85685L18.6082 5.78337C18.5686 5.76149 18.5307 5.73708 18.493 5.71262C18.4724 5.69931 18.452 5.68585 18.4321 5.6718C18.3107 5.58634 18.1998 5.48864 18.1031 5.37882C17.9969 5.25803 17.9071 5.12381 17.836 4.9797C17.7649 4.83571 17.7126 4.68171 17.6823 4.52072C17.662 4.41317 17.6514 4.30242 17.6514 4.18964V1.24345C17.6512 0.792805 17.2669 0.37843 16.8622 0.159495Z" fill="white"/>
</svg>
