<svg width="29" height="40" viewBox="0 0 29 40" fill="none" xmlns="http://www.w3.org/2000/svg">
<path d="M0 39.24V34.08C1.12 31.96 2.48 30.06 4.08 28.38C5.68 26.7 7.46 24.98 9.42 23.22C11.06 21.74 12.38 20.52 13.38 19.56C14.42 18.6 15.18 17.7 15.66 16.86C16.18 15.98 16.44 14.98 16.44 13.86C16.44 11.02 14.58 9.6 10.86 9.6C9.14 9.6 7.46 9.8 5.82 10.2C4.22 10.6 2.7 11.1 1.26 11.7V2.1C2.9 1.46 4.82 0.96 7.02 0.599999C9.22 0.2 11.44 0 13.68 0C18.48 0 22.06 1.14 24.42 3.42C26.78 5.66 27.96 8.68 27.96 12.48C27.96 14.28 27.74 15.84 27.3 17.16C26.9 18.44 26.26 19.62 25.38 20.7C24.5 21.78 23.36 22.94 21.96 24.18C20.72 25.26 19.5 26.34 18.3 27.42C17.1 28.5 16.14 29.56 15.42 30.6H28.32V39.24H0Z" fill="white"/>
</svg>
