<svg width="30" height="40" viewBox="0 0 30 40" fill="none" xmlns="http://www.w3.org/2000/svg">
<path d="M12.66 39.84C11.54 39.84 10.18 39.74 8.58 39.54C6.98 39.38 5.4 39.14 3.84 38.82C2.32 38.5 1.04 38.14 0 37.74V28.74C1.72 29.5 3.56 30.06 5.52 30.42C7.48 30.74 9.26 30.9 10.86 30.9C13.1 30.9 14.76 30.62 15.84 30.06C16.96 29.5 17.52 28.46 17.52 26.94C17.52 24.7 15.76 23.58 12.24 23.58H5.7L6.42 16.02H11.88C13.64 16.02 14.9 15.74 15.66 15.18C16.42 14.62 16.8 13.72 16.8 12.48C16.8 11.32 16.3 10.44 15.3 9.84C14.34 9.24 12.76 8.94 10.56 8.94C8.8 8.94 7.02 9.14 5.22 9.54C3.42 9.94 1.88 10.46 0.6 11.1V2.16C2.08 1.56 3.92 1.06 6.12 0.660002C8.32 0.220001 10.52 0 12.72 0C16.08 0 18.92 0.48 21.24 1.44C23.56 2.4 25.32 3.72 26.52 5.4C27.72 7.08 28.32 9 28.32 11.16C28.32 13 27.96 14.68 27.24 16.2C26.56 17.72 25.54 18.92 24.18 19.8C27.42 21.16 29.04 23.86 29.04 27.9C29.04 30.66 28.32 32.92 26.88 34.68C25.48 36.44 23.54 37.74 21.06 38.58C18.62 39.42 15.82 39.84 12.66 39.84Z" fill="white"/>
</svg>
