<svg width="29" height="40" viewBox="0 0 29 40" fill="none" xmlns="http://www.w3.org/2000/svg">
<path d="M12.36 39.24C11.24 39.24 9.92 39.16 8.4 39C6.92 38.88 5.44 38.68 3.96 38.4C2.52 38.08 1.26 37.68 0.18 37.2V28.14C1.14 28.58 2.24 28.96 3.48 29.28C4.76 29.6 6.04 29.84 7.32 30C8.6 30.16 9.68 30.24 10.56 30.24C12.76 30.24 14.36 29.9 15.36 29.22C16.4 28.54 16.92 27.46 16.92 25.98C16.92 24.58 16.56 23.58 15.84 22.98C15.12 22.34 13.76 22.02 11.76 22.02H0V16.86L1.02 0H26.04L25.26 8.64H10.68L10.32 14.16H14.7C19.38 14.16 22.84 15.2 25.08 17.28C27.32 19.36 28.44 22.4 28.44 26.4C28.44 30.24 27.1 33.34 24.42 35.7C21.78 38.06 17.76 39.24 12.36 39.24Z" fill="white"/>
</svg>
