<svg width="24" height="19" viewBox="0 0 24 19" fill="none" xmlns="http://www.w3.org/2000/svg">
<path fill-rule="evenodd" clip-rule="evenodd" d="M16.12 6.06674e-05C16.3945 -0.00292579 16.659 0.104453 16.8561 0.298865C17.0532 0.493278 17.167 0.759017 17.1727 1.03834V5.55237H17.2873C17.9889 5.5597 18.6593 5.84933 19.1519 6.35804C19.6444 6.86674 19.9193 7.55317 19.9164 8.26745V8.37849C19.9222 9.09469 19.6486 9.78397 19.1557 10.2951C18.6628 10.8062 17.9908 11.0973 17.2873 11.1047H17.1727V15.602C17.167 15.8814 17.0532 16.1471 16.8561 16.3415C16.659 16.5359 16.3945 16.6433 16.12 16.6403L10.3655 12.465H7.85092L8.46728 17.2511C8.45442 17.7263 8.2573 18.177 7.919 18.5047C7.5807 18.8324 7.12872 19.0105 6.66182 19.0001H5.75637C5.28947 19.0105 4.83749 18.8324 4.49919 18.5047C4.16089 18.177 3.96378 17.7263 3.95092 17.2511L3.33455 12.465H1.85637C1.34073 12.4377 0.85657 12.2041 0.509246 11.8152C0.161923 11.4263 -0.0204478 10.9135 0.00182444 10.3884V6.22975C-0.0190119 5.70503 0.163852 5.19304 0.510885 4.80446C0.857919 4.41588 1.34124 4.18193 1.85637 4.15319H10.3382L16.12 6.06674e-05ZM20.5927 11.5544C20.6249 11.5251 20.6624 11.5026 20.7032 11.4881C20.744 11.4736 20.7871 11.4675 20.8302 11.4701C20.8733 11.4727 20.9155 11.4839 20.9543 11.5031C20.9931 11.5224 21.0278 11.5492 21.0564 11.5822L23.3036 14.1418C23.3643 14.2059 23.3982 14.2915 23.3982 14.3805C23.3982 14.4696 23.3643 14.5551 23.3036 14.6193C23.2431 14.6772 23.163 14.709 23.08 14.7081C23.0346 14.7076 22.9899 14.6974 22.9485 14.6783C22.9072 14.6592 22.8703 14.6315 22.84 14.5971L20.5655 12.0375C20.508 11.9689 20.4787 11.8804 20.4838 11.7904C20.4889 11.7004 20.5279 11.6158 20.5927 11.5544ZM17.2873 6.89603H17.1727V9.72215H17.2873C17.4611 9.72143 17.633 9.68577 17.7933 9.61722C17.9535 9.54868 18.0989 9.4486 18.221 9.32272C18.3431 9.19685 18.4397 9.04766 18.505 8.88371C18.5704 8.71977 18.6033 8.54431 18.6018 8.36739V8.25634C18.6033 8.07916 18.5704 7.90343 18.5051 7.73917C18.4398 7.57492 18.3434 7.42536 18.2213 7.29904C18.0993 7.17272 17.954 7.07212 17.7937 7.00297C17.6334 6.93382 17.4613 6.89748 17.2873 6.89603ZM23.6746 7.77329C23.7562 7.78391 23.8312 7.82444 23.8855 7.88729C23.9399 7.95015 23.9699 8.03102 23.9699 8.11476C23.9699 8.1985 23.9399 8.27937 23.8855 8.34223C23.8312 8.40508 23.7562 8.44561 23.6746 8.45623H21.1273C21.0457 8.44561 20.9707 8.40508 20.9163 8.34223C20.8619 8.27937 20.832 8.1985 20.832 8.11476C20.832 8.03102 20.8619 7.95015 20.9163 7.88729C20.9707 7.82444 21.0457 7.78391 21.1273 7.77329H23.6746ZM22.8182 1.66575C22.8482 1.63401 22.8842 1.60877 22.9241 1.59152C22.9639 1.57428 23.0067 1.56539 23.05 1.56539C23.0933 1.56539 23.1361 1.57428 23.176 1.59152C23.2158 1.60877 23.2518 1.63401 23.2818 1.66575C23.3425 1.7299 23.3764 1.81547 23.3764 1.9045C23.3764 1.99354 23.3425 2.07911 23.2818 2.14325L21.0564 4.69731C21.0251 4.73191 20.9872 4.75961 20.9449 4.77871C20.9027 4.79781 20.8571 4.8079 20.8109 4.80836C20.73 4.80675 20.6524 4.77516 20.5927 4.71952C20.5317 4.65445 20.4977 4.56795 20.4977 4.478C20.4977 4.38804 20.5317 4.30154 20.5927 4.23647L22.8182 1.66575Z" fill="#E60012"/>
</svg>
