<svg width="24" height="24" viewBox="0 0 24 24" fill="none" xmlns="http://www.w3.org/2000/svg">
<g clip-path="url(#clip0_464_194)">
<path fill-rule="evenodd" clip-rule="evenodd" d="M22.575 7.8H16.2V1.425C16.2 0.675 15.6 0 14.775 0H9.15C8.4 0 7.725 0.6 7.725 1.425V7.8H1.425C0.675 7.8 0 8.4 0 9.225V14.85C0 15.6 0.6 16.275 1.425 16.275H7.8V22.65C7.8 23.4 8.4 24.075 9.225 24.075H14.85C15.6 24.075 16.275 23.475 16.275 22.65V16.275H22.65C23.4 16.275 24.075 15.675 24.075 14.85V9.225C24 8.4 23.4 7.8 22.575 7.8ZM5.625 12.675H2.85C2.475 12.675 2.175 12.375 2.175 12C2.175 11.625 2.475 11.325 2.85 11.325H5.7C6.075 11.325 6.375 11.625 6.375 12C6.375 12.375 6 12.675 5.625 12.675ZM12.675 21.15C12.675 21.525 12.375 21.825 12 21.825C11.625 21.825 11.325 21.525 11.325 21.15V18.3C11.325 17.925 11.625 17.625 12 17.625C12.375 17.625 12.675 17.925 12.675 18.3V21.15ZM12.675 5.625C12.675 6 12.375 6.3 12 6.3C11.625 6.3 11.325 6 11.325 5.625V2.85C11.325 2.475 11.625 2.175 12 2.175C12.375 2.175 12.675 2.475 12.675 2.85V5.625ZM21.15 12.675H18.3C17.925 12.675 17.625 12.375 17.625 12C17.625 11.625 17.925 11.325 18.3 11.325H21.15C21.525 11.325 21.825 11.625 21.825 12C21.9 12.375 21.6 12.675 21.15 12.675Z" fill="#E60012"/>
</g>
<defs>
<clipPath id="clip0_464_194">
<rect width="24" height="24" fill="white"/>
</clipPath>
</defs>
</svg>
