<svg width="222" height="40" viewBox="0 0 222 40" fill="none" xmlns="http://www.w3.org/2000/svg">
<path d="M150.016 16.42H161.412V19.36H153.74V30.336C157.296 30.308 159.844 30.14 162.672 29.608L163.036 32.632C159.676 33.276 156.652 33.388 152.06 33.388H150.016V16.42ZM166.312 14.18H170.008V39.464H166.312V25.856H160.236V22.86H166.312V14.18ZM173.313 33.444H182.833V28.88H175.693V15.748H179.389V19.584H189.973V15.748H193.669V28.88H186.557V33.444H196.133V36.468H173.313V33.444ZM179.389 22.496V25.94H189.973V22.496H179.389ZM215.033 14.18H218.785V39.38H215.033V14.18ZM211.309 16.756C211.309 24.512 208.761 30.812 199.745 35.152L197.813 32.212C204.225 29.132 206.941 25.268 207.473 19.724H199.157V16.756H211.309Z" fill="#555555"/>
<path d="M43.524 4.136L38.688 5.8L39.728 3.876V33.36L38.688 31.852L43.524 33.256V37H29.016V33.256L34.06 31.8L32.864 33.36V8.348L33.956 8.4L24.44 27.484L19.76 27.744L10.608 8.296H11.7V33.36L10.868 31.956L15.548 33.256V37H1.872V33.256L6.708 31.852L5.72 33.36V3.876L6.708 5.696L1.872 4.396V0.651997L14.82 0.391997L23.4 20.308H22.516L31.512 0.651997L43.524 0.391997V4.136ZM60.3334 8.608C64.4241 8.608 67.6134 9.82133 69.9014 12.248C72.1894 14.6747 73.3334 18.124 73.3334 22.596C73.3334 25.716 72.7787 28.4027 71.6694 30.656C70.5601 32.8747 68.9654 34.5907 66.8854 35.804C64.8054 37.0173 62.3094 37.624 59.3974 37.624C55.3067 37.624 52.1347 36.4107 49.8814 33.984C47.6627 31.5573 46.5534 28.108 46.5534 23.636C46.5534 20.516 47.0907 17.8467 48.1654 15.628C49.2747 13.3747 50.8521 11.6413 52.8974 10.428C54.9427 9.21467 57.4214 8.608 60.3334 8.608ZM59.9694 13.808C57.9934 13.808 56.5201 14.588 55.5494 16.148C54.5787 17.6733 54.0934 20.048 54.0934 23.272C54.0934 26.496 54.5614 28.836 55.4974 30.292C56.4334 31.7133 57.8547 32.424 59.7614 32.424C61.1481 32.424 62.2747 32.0773 63.1414 31.384C64.0081 30.6907 64.6667 29.6333 65.1174 28.212C65.5681 26.7907 65.7934 25.04 65.7934 22.96C65.7934 19.8053 65.3081 17.5 64.3374 16.044C63.3667 14.5533 61.9107 13.808 59.9694 13.808ZM76.4611 37V33.256L80.6731 32.06L79.9451 33.152V13.184L80.7771 14.432L76.4611 13.132V9.388L85.6131 8.972L86.5491 13.912L85.6131 13.704C87.1731 12.0747 88.7158 10.8267 90.2411 9.96C91.7665 9.05867 93.3958 8.608 95.1291 8.608C96.2385 8.608 97.4171 8.78133 98.6651 9.128L98.1971 18.592H93.9331L93.2051 13.132L93.8811 14.536C93.6731 14.4667 93.4478 14.4147 93.2051 14.38C92.9971 14.3453 92.7891 14.328 92.5811 14.328C91.5065 14.328 90.4318 14.6573 89.3571 15.316C88.3171 15.9747 87.4158 16.824 86.6531 17.864L87.2251 15.888V33.152L86.3931 32.06L91.5411 33.256V37H76.4611ZM112.816 37.624C110.285 37.624 108.066 37.104 106.16 36.064C104.253 34.9893 102.762 33.412 101.688 31.332C100.648 29.2173 100.128 26.652 100.128 23.636C100.128 20.516 100.682 17.8467 101.792 15.628C102.936 13.3747 104.53 11.6413 106.576 10.428C108.621 9.21467 111.03 8.608 113.804 8.608C116.508 8.608 118.709 9.14533 120.408 10.22C122.106 11.2947 123.354 12.768 124.152 14.64C124.949 16.4773 125.348 18.5573 125.348 20.88C125.348 21.4693 125.313 22.0587 125.244 22.648C125.209 23.2373 125.14 23.8613 125.036 24.52H106.004V20.204H118.796L117.86 20.88C117.894 19.4933 117.756 18.28 117.444 17.24C117.166 16.1653 116.681 15.3333 115.988 14.744C115.329 14.1547 114.41 13.86 113.232 13.86C111.88 13.86 110.788 14.2587 109.956 15.056C109.124 15.8187 108.517 16.8587 108.136 18.176C107.789 19.4933 107.616 20.9667 107.616 22.596C107.616 24.4333 107.841 26.08 108.292 27.536C108.742 28.992 109.47 30.136 110.476 30.968C111.516 31.8 112.868 32.216 114.532 32.216C115.71 32.216 116.976 32.008 118.328 31.592C119.714 31.1413 121.153 30.4827 122.644 29.616L125.088 33.516C123.077 34.9027 121.014 35.9427 118.9 36.636C116.82 37.2947 114.792 37.624 112.816 37.624Z" fill="#333333"/>
</svg>
