<svg width="296" height="43" viewBox="0 0 296 43" fill="none" xmlns="http://www.w3.org/2000/svg">
<path d="M198.84 31.7201H221.66V34.7161H212.028V42.8641H208.304V34.7161H198.84V31.7201ZM210.18 18.5041C215.584 18.5041 219.308 20.7161 219.308 24.1601C219.308 27.6321 215.584 29.8441 210.18 29.8441C204.776 29.8441 201.052 27.6321 201.052 24.1601C201.052 20.7161 204.776 18.5041 210.18 18.5041ZM210.18 21.4441C206.904 21.4441 204.888 22.3961 204.888 24.1601C204.888 25.9521 206.904 26.9041 210.18 26.9041C213.456 26.9041 215.5 25.9521 215.5 24.1601C215.5 22.3961 213.456 21.4441 210.18 21.4441ZM223.313 36.9841H246.133V40.0081H223.313V36.9841ZM225.889 19.2881H243.585V27.7721H229.613V30.4601H244.145V33.4561H225.917V24.8601H239.889V22.2561H225.889V19.2881ZM247.785 36.9001H257.305V32.3361H250.165V19.2041H253.861V23.0401H264.445V19.2041H268.141V32.3361H261.029V36.9001H270.605V39.9241H247.785V36.9001ZM253.861 25.9521V29.3961H264.445V25.9521H253.861ZM277.886 19.5681H281.61V23.1521C281.61 27.6601 283.29 32.2801 287.378 34.2681L285.138 37.2361C282.534 35.9201 280.77 33.5121 279.734 30.5441C278.67 33.7361 276.766 36.3121 273.938 37.6841L271.726 34.6601C276.01 32.6721 277.886 27.8281 277.886 23.1521V19.5681ZM288.274 17.6641H292.026V27.2961H295.638V30.4041H292.026V42.8641H288.274V17.6641Z" fill="#555555"/>
<path d="M22.568 4.10805L37.648 3.84805V7.59205L33.02 9.15205L33.852 7.28005V26.1561C33.852 27.9241 33.6787 29.5707 33.332 31.0961C33.02 32.5867 32.5 33.9561 31.772 35.2041C31.044 36.4174 30.108 37.4747 28.964 38.3761C27.82 39.2427 26.416 39.9187 24.752 40.4041C23.1227 40.8547 21.2333 41.0801 19.084 41.0801C16.2067 41.0801 13.8667 40.7334 12.064 40.0401C10.2613 39.3121 8.85733 38.3934 7.852 37.2841C6.84667 36.1401 6.11867 34.9267 5.668 33.6441C5.252 32.3267 4.992 31.0787 4.888 29.9001C4.81867 28.6867 4.784 27.6641 4.784 26.8321V7.33205L5.616 9.10005L0.936 7.85205V4.10805L16.016 3.84805V7.59205L11.492 9.15205L12.22 7.33205V26.8321C12.22 27.7334 12.2547 28.6174 12.324 29.4841C12.428 30.3161 12.6013 31.0961 12.844 31.8241C13.0867 32.5174 13.4507 33.1414 13.936 33.6961C14.456 34.2161 15.132 34.6321 15.964 34.9441C16.8307 35.2214 17.9053 35.3601 19.188 35.3601C20.5053 35.3601 21.5973 35.2041 22.464 34.8921C23.3307 34.5801 24.024 34.1467 24.544 33.5921C25.0987 33.0027 25.4973 32.3267 25.74 31.5641C26.0173 30.8014 26.1907 29.9694 26.26 29.0681C26.364 28.1321 26.416 27.1614 26.416 26.1561V7.28005L27.092 8.99605L22.568 7.85205V4.10805ZM40.1018 40.4561V36.7121L44.3138 35.5161L43.5858 36.6081V16.6401L44.4178 17.8881L40.1018 16.5881V12.8441L49.2538 12.4281L50.1898 17.3681L49.2538 17.1601C50.8138 15.5307 52.3564 14.2827 53.8817 13.4161C55.4071 12.5147 57.0364 12.0641 58.7698 12.0641C59.8791 12.0641 61.0578 12.2374 62.3058 12.5841L61.8378 22.0481H57.5738L56.8458 16.5881L57.5218 17.9921C57.3138 17.9227 57.0884 17.8707 56.8458 17.8361C56.6378 17.8014 56.4298 17.7841 56.2218 17.7841C55.1471 17.7841 54.0724 18.1134 52.9978 18.7721C51.9578 19.4307 51.0564 20.2801 50.2938 21.3201L50.8658 19.3441V36.6081L50.0338 35.5161L55.1818 36.7121V40.4561H40.1018ZM75.1043 41.0801C73.7523 41.0801 72.2963 40.9934 70.7363 40.8201C69.1763 40.6467 67.4949 40.3867 65.6923 40.0401V3.53605L66.8363 5.51205L62.2083 4.16005V0.416053L72.9723 5.17368e-05V17.1601L72.0883 16.0681C73.3363 14.8201 74.7056 13.8494 76.1963 13.1561C77.6869 12.4281 79.2643 12.0641 80.9283 12.0641C82.9389 12.0641 84.7069 12.6014 86.2323 13.6761C87.7576 14.7161 88.9536 16.2761 89.8203 18.3561C90.7216 20.4361 91.1723 23.0014 91.1723 26.0521C91.1723 28.2361 90.8949 30.2467 90.3403 32.0841C89.8203 33.8867 88.9363 35.4641 87.6883 36.8161C86.4749 38.1681 84.8283 39.2254 82.7483 39.9881C80.7029 40.7161 78.1549 41.0801 75.1043 41.0801ZM76.4043 35.8801C78.9003 35.8801 80.7203 35.0654 81.8643 33.4361C83.0083 31.8067 83.5803 29.5361 83.5803 26.6241C83.5803 24.7174 83.3549 23.0881 82.9043 21.7361C82.4536 20.3494 81.8296 19.2921 81.0323 18.5641C80.2349 17.8014 79.2469 17.4201 78.0683 17.4201C77.1669 17.4201 76.2136 17.6627 75.2083 18.1481C74.2029 18.6334 73.1629 19.3787 72.0883 20.3841L72.9723 18.1481V37.0241L72.0883 35.2561C73.7176 35.6721 75.1563 35.8801 76.4043 35.8801ZM108.169 12.0641C112.26 12.0641 115.449 13.2774 117.737 15.7041C120.025 18.1307 121.169 21.5801 121.169 26.0521C121.169 29.1721 120.615 31.8587 119.505 34.1121C118.396 36.3307 116.801 38.0467 114.721 39.2601C112.641 40.4734 110.145 41.0801 107.233 41.0801C103.143 41.0801 99.9707 39.8667 97.7173 37.4401C95.4987 35.0134 94.3893 31.5641 94.3893 27.0921C94.3893 23.9721 94.9267 21.3027 96.0013 19.0841C97.1107 16.8307 98.688 15.0974 100.733 13.8841C102.779 12.6707 105.257 12.0641 108.169 12.0641ZM107.805 17.2641C105.829 17.2641 104.356 18.0441 103.385 19.6041C102.415 21.1294 101.929 23.5041 101.929 26.7281C101.929 29.9521 102.397 32.2921 103.333 33.7481C104.269 35.1694 105.691 35.8801 107.597 35.8801C108.984 35.8801 110.111 35.5334 110.977 34.8401C111.844 34.1467 112.503 33.0894 112.953 31.6681C113.404 30.2467 113.629 28.4961 113.629 26.4161C113.629 23.2614 113.144 20.9561 112.173 19.5001C111.203 18.0094 109.747 17.2641 107.805 17.2641ZM132.305 19.7081C132.305 20.5054 132.652 21.1467 133.345 21.6321C134.038 22.1174 134.922 22.5334 135.997 22.8801C137.106 23.2267 138.268 23.5907 139.481 23.9721C140.729 24.3534 141.89 24.8561 142.965 25.4801C144.074 26.0694 144.976 26.8667 145.669 27.8721C146.362 28.8774 146.709 30.1774 146.709 31.7721C146.709 33.8174 146.154 35.5334 145.045 36.9201C143.936 38.3067 142.428 39.3467 140.521 40.0401C138.614 40.7334 136.465 41.0801 134.073 41.0801C132.686 41.0801 131.213 40.9587 129.653 40.7161C128.128 40.4734 126.55 40.1441 124.921 39.7281L125.233 31.8761H129.809L130.381 36.4521L129.757 35.5681C130.45 35.7761 131.213 35.9494 132.045 36.0881C132.877 36.1921 133.605 36.2441 134.229 36.2441C135.13 36.2441 135.962 36.1227 136.725 35.8801C137.522 35.6374 138.164 35.2907 138.649 34.8401C139.169 34.3547 139.429 33.7481 139.429 33.0201C139.429 32.1881 139.082 31.5294 138.389 31.0441C137.696 30.5587 136.794 30.1427 135.685 29.7961C134.61 29.4494 133.466 29.0854 132.253 28.7041C131.074 28.3227 129.93 27.8201 128.821 27.1961C127.746 26.5721 126.862 25.7401 126.169 24.7001C125.476 23.6601 125.129 22.3081 125.129 20.6441C125.129 18.6334 125.632 17.0041 126.637 15.7561C127.642 14.4734 128.977 13.5374 130.641 12.9481C132.34 12.3587 134.194 12.0641 136.205 12.0641C137.626 12.0641 139.134 12.2027 140.729 12.4801C142.324 12.7227 143.953 13.0867 145.617 13.5721L145.357 20.5401H140.729L139.897 16.4321L140.885 17.5241C139.256 17.0734 137.817 16.8481 136.569 16.8481C135.286 16.8481 134.246 17.1081 133.449 17.6281C132.686 18.1134 132.305 18.8067 132.305 19.7081ZM173.498 36.7641L172.51 35.3081L176.982 36.7121V40.4041L167.882 40.8721L166.894 35.8801L167.414 36.0361C166.027 37.7347 164.519 39.0001 162.89 39.8321C161.26 40.6641 159.579 41.0801 157.846 41.0801C155.627 41.0801 153.79 40.3694 152.334 38.9481C150.878 37.5267 150.15 35.4814 150.15 32.8121C150.15 30.8361 150.566 29.2761 151.398 28.1321C152.264 26.9534 153.512 26.1041 155.142 25.5841C156.771 25.0641 158.747 24.8041 161.07 24.8041H166.738L166.218 25.3761V21.9441C166.218 20.3147 165.819 19.1534 165.022 18.4601C164.259 17.7667 163.132 17.4201 161.642 17.4201C160.914 17.4201 160.134 17.4894 159.302 17.6281C158.47 17.7667 157.568 17.9747 156.598 18.2521L157.326 17.4721L156.65 21.6841H152.126L151.71 14.0921C154.067 13.3987 156.216 12.8961 158.158 12.5841C160.134 12.2374 161.936 12.0641 163.566 12.0641C166.79 12.0641 169.251 12.7574 170.95 14.1441C172.648 15.5307 173.498 17.6801 173.498 20.5921V36.7641ZM157.482 32.0841C157.482 33.3667 157.776 34.3201 158.366 34.9441C158.99 35.5334 159.77 35.8281 160.706 35.8281C161.572 35.8281 162.526 35.5681 163.566 35.0481C164.606 34.4934 165.594 33.7481 166.53 32.8121L166.218 34.0601V28.1321L166.738 28.6521H162.266C160.463 28.6521 159.215 28.9294 158.522 29.4841C157.828 30.0387 157.482 30.9054 157.482 32.0841Z" fill="#333333"/>
</svg>
