<svg width="207" height="43" viewBox="0 0 207 43" fill="none" xmlns="http://www.w3.org/2000/svg">
<path d="M176.788 17.6641H180.316V30.7401H176.788V17.6641ZM169.34 22.9841H171.832V18.1121H175.332V30.5721H171.832V25.9241H169.34V22.9841ZM159.288 19.0641H170.376V22.0041H166.764C166.764 24.4121 168.108 26.7081 171.188 27.8001L169.508 30.6281C167.324 29.9001 165.868 28.5281 165 26.7921C164.104 28.6681 162.564 30.1801 160.268 30.9921L158.504 28.1921C161.836 27.0161 163.18 24.4961 163.18 22.0041H159.288V19.0641ZM163.152 31.6081H180.316V38.3841H166.876V39.7281H181.128V42.5841H163.18V35.7241H176.648V34.4361H163.152V31.6081ZM199.357 17.6081H203.109V26.8761H206.693V29.9561H203.109V42.8921H199.357V17.6081ZM184.293 19.9601H196.053V22.9561H188.017V33.7641C191.545 33.7081 194.485 33.5401 197.677 32.9801L198.041 36.0601C194.233 36.7601 190.761 36.8441 186.421 36.8441H184.293V19.9601Z" fill="#555555"/>
<path d="M1.768 40.4561V35.5161L21.892 8.42405L22.672 9.30805H6.864L8.58 8.47605L7.384 14.3521H2.964V3.84805H30.004V8.78805L9.932 36.1401L9.672 34.9961H26.26L24.7 36.0881L25.74 29.9521H30.212L30.16 40.4561H1.768ZM46.4445 41.0801C43.9139 41.0801 41.6952 40.5601 39.7885 39.5201C37.8819 38.4454 36.3912 36.8681 35.3165 34.7881C34.2765 32.6734 33.7565 30.1081 33.7565 27.0921C33.7565 23.9721 34.3112 21.3027 35.4205 19.0841C36.5645 16.8307 38.1592 15.0974 40.2045 13.8841C42.2499 12.6707 44.6592 12.0641 47.4325 12.0641C50.1365 12.0641 52.3379 12.6014 54.0365 13.6761C55.7352 14.7507 56.9832 16.2241 57.7805 18.0961C58.5779 19.9334 58.9765 22.0134 58.9765 24.3361C58.9765 24.9254 58.9419 25.5147 58.8725 26.1041C58.8379 26.6934 58.7685 27.3174 58.6645 27.9761H39.6325V23.6601H52.4245L51.4885 24.3361C51.5232 22.9494 51.3845 21.7361 51.0725 20.6961C50.7952 19.6214 50.3099 18.7894 49.6165 18.2001C48.9579 17.6107 48.0392 17.3161 46.8605 17.3161C45.5085 17.3161 44.4165 17.7147 43.5845 18.5121C42.7525 19.2747 42.1459 20.3147 41.7645 21.6321C41.4179 22.9494 41.2445 24.4227 41.2445 26.0521C41.2445 27.8894 41.4699 29.5361 41.9205 30.9921C42.3712 32.4481 43.0992 33.5921 44.1045 34.4241C45.1445 35.2561 46.4965 35.6721 48.1605 35.6721C49.3392 35.6721 50.6045 35.4641 51.9565 35.0481C53.3432 34.5974 54.7819 33.9387 56.2725 33.0721L58.7165 36.9721C56.7059 38.3587 54.6432 39.3987 52.5285 40.0921C50.4485 40.7507 48.4205 41.0801 46.4445 41.0801ZM72.4356 36.1921L71.8636 35.5681L75.8676 36.7121V40.4561H61.6716V36.7121L65.6756 35.5681L65.1556 36.1921V4.73205L65.6236 5.25205L61.6716 4.16005V0.416053L72.4356 5.17368e-05V36.1921ZM88.7413 41.0801C86.7306 41.0801 84.9453 40.5601 83.3853 39.5201C81.8599 38.4454 80.6466 36.8681 79.7453 34.7881C78.8786 32.7081 78.4453 30.1774 78.4453 27.1961C78.4453 22.0654 79.7453 18.2694 82.3453 15.8081C84.9453 13.3121 88.6026 12.0641 93.3173 12.0641C94.0799 12.0641 94.8426 12.0987 95.6053 12.1681C96.3679 12.2374 97.1653 12.3587 97.9973 12.5321L96.6453 13.3641V4.78405L97.1653 5.51205L92.9013 4.10805V0.416053L103.925 5.17368e-05V36.4001L103.041 35.3601L107.409 36.7121V40.4041L98.2573 40.8201L97.3213 36.3481L98.0493 36.6081C96.5239 38.0987 94.9986 39.2254 93.4733 39.9881C91.9826 40.7161 90.4053 41.0801 88.7413 41.0801ZM91.5493 35.7241C92.4506 35.7241 93.4039 35.4814 94.4093 34.9961C95.4146 34.4761 96.4546 33.7307 97.5293 32.7601L96.6453 34.9441V16.2761L97.5293 17.9401C95.8999 17.4894 94.4266 17.2641 93.1093 17.2641C90.6479 17.2641 88.8453 18.0961 87.7013 19.7601C86.5919 21.3894 86.0373 23.6427 86.0373 26.5201C86.0373 28.3921 86.2626 30.0214 86.7133 31.4081C87.1639 32.7947 87.7879 33.8694 88.5853 34.6321C89.4173 35.3601 90.4053 35.7241 91.5493 35.7241ZM132.923 36.7641L131.935 35.3081L136.407 36.7121V40.4041L127.307 40.8721L126.319 35.8801L126.839 36.0361C125.453 37.7347 123.945 39.0001 122.315 39.8321C120.686 40.6641 119.005 41.0801 117.271 41.0801C115.053 41.0801 113.215 40.3694 111.759 38.9481C110.303 37.5267 109.575 35.4814 109.575 32.8121C109.575 30.8361 109.991 29.2761 110.823 28.1321C111.69 26.9534 112.938 26.1041 114.567 25.5841C116.197 25.0641 118.173 24.8041 120.495 24.8041H126.163L125.643 25.3761V21.9441C125.643 20.3147 125.245 19.1534 124.447 18.4601C123.685 17.7667 122.558 17.4201 121.067 17.4201C120.339 17.4201 119.559 17.4894 118.727 17.6281C117.895 17.7667 116.994 17.9747 116.023 18.2521L116.751 17.4721L116.075 21.6841H111.551L111.135 14.0921C113.493 13.3987 115.642 12.8961 117.583 12.5841C119.559 12.2374 121.362 12.0641 122.991 12.0641C126.215 12.0641 128.677 12.7574 130.375 14.1441C132.074 15.5307 132.923 17.6801 132.923 20.5921V36.7641ZM116.907 32.0841C116.907 33.3667 117.202 34.3201 117.791 34.9441C118.415 35.5334 119.195 35.8281 120.131 35.8281C120.998 35.8281 121.951 35.5681 122.991 35.0481C124.031 34.4934 125.019 33.7481 125.955 32.8121L125.643 34.0601V28.1321L126.163 28.6521H121.691C119.889 28.6521 118.641 28.9294 117.947 29.4841C117.254 30.0387 116.907 30.9054 116.907 32.0841Z" fill="#333333"/>
</svg>
