<svg width="225" height="53" viewBox="0 0 225 53" fill="none" xmlns="http://www.w3.org/2000/svg">
<path d="M178.044 19.9796H190.196V36.9756H178.044V19.9796ZM186.556 22.9196H181.712V34.0356H186.556V22.9196ZM194.032 17.7116H197.756V42.9956H194.032V17.7116ZM201.621 20.0356H215.537V23.0036H213.409V33.8116L216.237 33.5316L216.433 36.2196C211.365 37.1156 205.653 37.2276 201.369 37.2276L200.977 34.2036H203.749V23.0036H201.621V20.0356ZM217.329 17.7676H221.081V27.2596H224.693V30.3116H221.081V42.9676H217.329V17.7676ZM207.361 34.1196L209.825 34.0356V23.0036H207.361V34.1196Z" fill="#555555"/>
<path d="M43.524 7.69557L38.688 9.35957L39.728 7.43557V36.9196L38.688 35.4116L43.524 36.8156V40.5596H29.016V36.8156L34.06 35.3596L32.864 36.9196V11.9076L33.956 11.9596L24.44 31.0436L19.76 31.3036L10.608 11.8556H11.7V36.9196L10.868 35.5156L15.548 36.8156V40.5596H1.872V36.8156L6.708 35.4116L5.72 36.9196V7.43557L6.708 9.25557L1.872 7.95557V4.21157L14.82 3.95157L23.4 23.8676H22.516L31.512 4.21157L43.524 3.95157V7.69557ZM57.6704 36.2956L57.1504 35.6716L61.1544 36.8156V40.5596H46.9064V36.8156L50.9104 35.6716L50.3904 36.2956V17.3156L50.8584 17.7836L46.9064 16.6916V12.9476L57.6704 12.5836V36.2956ZM53.8224 8.52757C52.5398 8.52757 51.4998 8.16357 50.7024 7.43557C49.9398 6.70757 49.5584 5.66757 49.5584 4.31557C49.5584 2.85957 49.9571 1.7849 50.7544 1.09157C51.5864 0.363568 52.6264 -0.000431299 53.8744 -0.000431299C55.0878 -0.000431299 56.0931 0.363568 56.8904 1.09157C57.6878 1.7849 58.0864 2.84224 58.0864 4.26357C58.0864 5.6849 57.6704 6.75957 56.8384 7.48757C56.0411 8.1809 55.0358 8.52757 53.8224 8.52757ZM62.9931 52.5196V48.7756L67.4131 47.3196L66.4771 48.5676V17.0036L67.3091 17.9916L62.9931 16.6916V12.9476L72.1451 12.5316L72.9771 17.0556L72.1451 16.6396C73.7745 15.1836 75.3518 14.0742 76.8771 13.3116C78.4371 12.5489 80.0491 12.1676 81.7131 12.1676C83.7238 12.1676 85.4918 12.7049 87.0171 13.7796C88.5425 14.8196 89.7385 16.3796 90.6051 18.4596C91.5065 20.5049 91.9571 23.0182 91.9571 25.9996C91.9571 29.3622 91.3851 32.1702 90.2411 34.4236C89.0971 36.6769 87.4851 38.3756 85.4051 39.5196C83.3598 40.6289 80.9678 41.1836 78.2291 41.1836C77.3971 41.1836 76.5305 41.1142 75.6291 40.9756C74.7278 40.8716 73.7918 40.7156 72.8211 40.5076L73.7571 39.6756V48.5676L72.9771 47.4756L77.8131 48.7756V52.5196H62.9931ZM77.2931 36.0356C79.7545 36.0356 81.5398 35.2036 82.6491 33.5396C83.7931 31.8756 84.3651 29.6049 84.3651 26.7276C84.3651 24.8209 84.1398 23.1916 83.6891 21.8396C83.2385 20.4529 82.6145 19.3956 81.8171 18.6676C81.0198 17.9049 80.0318 17.5236 78.8531 17.5236C77.9518 17.5236 76.9985 17.7662 75.9931 18.2516C74.9878 18.7369 73.9478 19.4822 72.8731 20.4876L73.7571 18.5636V36.7116L72.8731 35.3076C74.5025 35.7929 75.9758 36.0356 77.2931 36.0356ZM94.5778 40.5596V36.8156L98.9458 35.5676L98.0618 36.6076V4.36757L98.9458 5.51157L94.5778 4.26357V0.519568L105.342 0.103567V17.5236L103.678 17.1596C105.342 15.4609 107.11 14.2129 108.982 13.4156C110.854 12.5836 112.639 12.1676 114.338 12.1676C115.898 12.1676 117.302 12.4969 118.55 13.1556C119.798 13.8142 120.769 14.8022 121.462 16.1196C122.19 17.4022 122.554 19.0316 122.554 21.0076V36.6076L121.878 35.5676L125.986 36.8156V40.5596H112.154V36.8156L116.106 35.6716L115.274 36.7636V22.5676C115.274 20.9036 114.893 19.6729 114.13 18.8756C113.367 18.0782 112.379 17.6796 111.166 17.6796C110.265 17.6796 109.242 17.9396 108.098 18.4596C106.989 18.9796 105.897 19.7596 104.822 20.7996L105.342 19.7076V36.7636L104.666 35.6716L108.462 36.8156V40.5596H94.5778ZM151.56 36.8676L150.572 35.4116L155.044 36.8156V40.5076L145.944 40.9756L144.956 35.9836L145.476 36.1396C144.089 37.8382 142.581 39.1036 140.952 39.9356C139.323 40.7676 137.641 41.1836 135.908 41.1836C133.689 41.1836 131.852 40.4729 130.396 39.0516C128.94 37.6302 128.212 35.5849 128.212 32.9156C128.212 30.9396 128.628 29.3796 129.46 28.2356C130.327 27.0569 131.575 26.2076 133.204 25.6876C134.833 25.1676 136.809 24.9076 139.132 24.9076H144.8L144.28 25.4796V22.0476C144.28 20.4182 143.881 19.2569 143.084 18.5636C142.321 17.8702 141.195 17.5236 139.704 17.5236C138.976 17.5236 138.196 17.5929 137.364 17.7316C136.532 17.8702 135.631 18.0782 134.66 18.3556L135.388 17.5756L134.712 21.7876H130.188L129.772 14.1956C132.129 13.5022 134.279 12.9996 136.22 12.6876C138.196 12.3409 139.999 12.1676 141.628 12.1676C144.852 12.1676 147.313 12.8609 149.012 14.2476C150.711 15.6342 151.56 17.7836 151.56 20.6956V36.8676ZM135.544 32.1876C135.544 33.4702 135.839 34.4236 136.428 35.0476C137.052 35.6369 137.832 35.9316 138.768 35.9316C139.635 35.9316 140.588 35.6716 141.628 35.1516C142.668 34.5969 143.656 33.8516 144.592 32.9156L144.28 34.1636V28.2356L144.8 28.7556H140.328C138.525 28.7556 137.277 29.0329 136.584 29.5876C135.891 30.1422 135.544 31.0089 135.544 32.1876Z" fill="#333333"/>
</svg>
