<svg width="459" height="58" viewBox="0 0 459 58" fill="none" xmlns="http://www.w3.org/2000/svg">
<mask id="path-1-outside-1_6098_89" maskUnits="userSpaceOnUse" x="-0.200195" y="-0.459961" width="459" height="58" fill="black">
<rect fill="white" x="-0.200195" y="-0.459961" width="459" height="58"/>
<path d="M34.6998 25.82C33.6198 22.74 32.3398 20.58 30.8598 19.34C29.3798 18.06 27.6598 17.42 25.6998 17.42C24.8998 17.42 23.9598 17.52 22.8798 17.72C20.7998 18.28 19.3398 19.78 18.4998 22.22C17.6598 24.66 17.2398 27.12 17.2398 29.6C17.2398 30.92 17.5398 32.36 18.1398 33.92C18.7398 35.44 19.7598 36.78 21.1998 37.94C22.6798 39.06 24.5798 39.62 26.8998 39.62C29.4198 39.62 31.7198 39.04 33.7998 37.88C35.8798 36.68 37.5598 35.22 38.8398 33.5L48.7998 38C46.3198 41.8 43.0998 45.06 39.1398 47.78C35.2198 50.5 30.8798 51.94 26.1198 52.1C19.1998 52.26 14.0598 50.2 10.6998 45.92C7.3798 41.6 5.4998 35.74 5.0598 28.34C5.0198 27.74 4.9998 26.88 4.9998 25.76C4.9998 19.36 6.6998 14.4 10.0998 10.88C13.4998 7.36004 19.0598 5.42004 26.7798 5.06004L28.0398 5.00004C31.5598 5.00004 34.6398 5.88004 37.2798 7.64004C39.9198 9.36004 42.0598 11.6 43.6998 14.36C45.3798 17.12 46.5998 20.12 47.3598 23.36L34.6998 25.82ZM72.3868 50.72H57.2068V6.02004H72.3868L72.3268 24.68H84.2668L84.2068 7.34004H95.6668V50.72H83.0668L82.2868 33.5H72.3268L72.3868 50.72ZM127.542 18.44L123.762 29.48L131.622 29.66L127.542 18.44ZM137.562 49.88L133.362 36.62L122.382 36.68L118.062 50.54H104.082C105.242 48.38 107.542 43.14 110.982 34.82C114.422 26.5 118.202 17.08 122.322 6.56004L134.142 7.22004L151.542 46.94L137.562 49.88ZM180.082 17.96C178.642 17.24 176.502 16.9 173.662 16.94V26.9C176.222 26.3 178.282 25.42 179.842 24.26C181.442 23.06 182.242 21.86 182.242 20.66C182.242 19.58 181.522 18.68 180.082 17.96ZM173.662 51.32H159.922V6.62004C163.122 6.18004 166.122 5.96004 168.922 5.96004C173.602 5.96004 177.882 6.48004 181.762 7.52004C185.682 8.52004 188.802 10 191.122 11.96C193.442 13.88 194.602 16.14 194.602 18.74C194.602 23.3 191.002 28.36 183.802 33.92L201.622 51.32H186.022C183.462 48.84 181.042 46.62 178.762 44.66C176.482 42.66 174.782 41.42 173.662 40.94V51.32ZM231.077 18.44L227.297 29.48L235.157 29.66L231.077 18.44ZM241.097 49.88L236.897 36.62L225.917 36.68L221.597 50.54H207.617C208.777 48.38 211.077 43.14 214.517 34.82C217.957 26.5 221.737 17.08 225.857 6.56004L237.677 7.22004L255.077 46.94L241.097 49.88ZM293.157 25.82C292.077 22.74 290.797 20.58 289.317 19.34C287.837 18.06 286.117 17.42 284.157 17.42C283.357 17.42 282.417 17.52 281.337 17.72C279.257 18.28 277.797 19.78 276.957 22.22C276.117 24.66 275.697 27.12 275.697 29.6C275.697 30.92 275.997 32.36 276.597 33.92C277.197 35.44 278.217 36.78 279.657 37.94C281.137 39.06 283.037 39.62 285.357 39.62C287.877 39.62 290.177 39.04 292.257 37.88C294.337 36.68 296.017 35.22 297.297 33.5L307.257 38C304.777 41.8 301.557 45.06 297.597 47.78C293.677 50.5 289.337 51.94 284.577 52.1C277.657 52.26 272.517 50.2 269.157 45.92C265.837 41.6 263.957 35.74 263.517 28.34C263.477 27.74 263.457 26.88 263.457 25.76C263.457 19.36 265.157 14.4 268.557 10.88C271.957 7.36004 277.517 5.42004 285.237 5.06004L286.497 5.00004C290.017 5.00004 293.097 5.88004 295.737 7.64004C298.377 9.36004 300.517 11.6 302.157 14.36C303.837 17.12 305.057 20.12 305.817 23.36L293.157 25.82ZM342.304 49.88H330.904V18.44L311.944 19.64V6.92004H358.744V17.12L342.304 17V49.88ZM363.535 6.92004H393.835V17.54H374.935V23.96H392.515V33.2H374.935V38.36H396.295V50.06H363.535V6.92004ZM424.828 17.96C423.388 17.24 421.248 16.9 418.408 16.94V26.9C420.968 26.3 423.028 25.42 424.588 24.26C426.188 23.06 426.988 21.86 426.988 20.66C426.988 19.58 426.268 18.68 424.828 17.96ZM418.408 51.32H404.668V6.62004C407.868 6.18004 410.868 5.96004 413.668 5.96004C418.348 5.96004 422.628 6.48004 426.508 7.52004C430.428 8.52004 433.548 10 435.868 11.96C438.188 13.88 439.348 16.14 439.348 18.74C439.348 23.3 435.748 28.36 428.548 33.92L446.368 51.32H430.768C428.208 48.84 425.788 46.62 423.508 44.66C421.228 42.66 419.528 41.42 418.408 40.94V51.32Z"/>
</mask>
<path d="M34.6998 25.82C33.6198 22.74 32.3398 20.58 30.8598 19.34C29.3798 18.06 27.6598 17.42 25.6998 17.42C24.8998 17.42 23.9598 17.52 22.8798 17.72C20.7998 18.28 19.3398 19.78 18.4998 22.22C17.6598 24.66 17.2398 27.12 17.2398 29.6C17.2398 30.92 17.5398 32.36 18.1398 33.92C18.7398 35.44 19.7598 36.78 21.1998 37.94C22.6798 39.06 24.5798 39.62 26.8998 39.62C29.4198 39.62 31.7198 39.04 33.7998 37.88C35.8798 36.68 37.5598 35.22 38.8398 33.5L48.7998 38C46.3198 41.8 43.0998 45.06 39.1398 47.78C35.2198 50.5 30.8798 51.94 26.1198 52.1C19.1998 52.26 14.0598 50.2 10.6998 45.92C7.3798 41.6 5.4998 35.74 5.0598 28.34C5.0198 27.74 4.9998 26.88 4.9998 25.76C4.9998 19.36 6.6998 14.4 10.0998 10.88C13.4998 7.36004 19.0598 5.42004 26.7798 5.06004L28.0398 5.00004C31.5598 5.00004 34.6398 5.88004 37.2798 7.64004C39.9198 9.36004 42.0598 11.6 43.6998 14.36C45.3798 17.12 46.5998 20.12 47.3598 23.36L34.6998 25.82ZM72.3868 50.72H57.2068V6.02004H72.3868L72.3268 24.68H84.2668L84.2068 7.34004H95.6668V50.72H83.0668L82.2868 33.5H72.3268L72.3868 50.72ZM127.542 18.44L123.762 29.48L131.622 29.66L127.542 18.44ZM137.562 49.88L133.362 36.62L122.382 36.68L118.062 50.54H104.082C105.242 48.38 107.542 43.14 110.982 34.82C114.422 26.5 118.202 17.08 122.322 6.56004L134.142 7.22004L151.542 46.94L137.562 49.88ZM180.082 17.96C178.642 17.24 176.502 16.9 173.662 16.94V26.9C176.222 26.3 178.282 25.42 179.842 24.26C181.442 23.06 182.242 21.86 182.242 20.66C182.242 19.58 181.522 18.68 180.082 17.96ZM173.662 51.32H159.922V6.62004C163.122 6.18004 166.122 5.96004 168.922 5.96004C173.602 5.96004 177.882 6.48004 181.762 7.52004C185.682 8.52004 188.802 10 191.122 11.96C193.442 13.88 194.602 16.14 194.602 18.74C194.602 23.3 191.002 28.36 183.802 33.92L201.622 51.32H186.022C183.462 48.84 181.042 46.62 178.762 44.66C176.482 42.66 174.782 41.42 173.662 40.94V51.32ZM231.077 18.44L227.297 29.48L235.157 29.66L231.077 18.44ZM241.097 49.88L236.897 36.62L225.917 36.68L221.597 50.54H207.617C208.777 48.38 211.077 43.14 214.517 34.82C217.957 26.5 221.737 17.08 225.857 6.56004L237.677 7.22004L255.077 46.94L241.097 49.88ZM293.157 25.82C292.077 22.74 290.797 20.58 289.317 19.34C287.837 18.06 286.117 17.42 284.157 17.42C283.357 17.42 282.417 17.52 281.337 17.72C279.257 18.28 277.797 19.78 276.957 22.22C276.117 24.66 275.697 27.12 275.697 29.6C275.697 30.92 275.997 32.36 276.597 33.92C277.197 35.44 278.217 36.78 279.657 37.94C281.137 39.06 283.037 39.62 285.357 39.62C287.877 39.62 290.177 39.04 292.257 37.88C294.337 36.68 296.017 35.22 297.297 33.5L307.257 38C304.777 41.8 301.557 45.06 297.597 47.78C293.677 50.5 289.337 51.94 284.577 52.1C277.657 52.26 272.517 50.2 269.157 45.92C265.837 41.6 263.957 35.74 263.517 28.34C263.477 27.74 263.457 26.88 263.457 25.76C263.457 19.36 265.157 14.4 268.557 10.88C271.957 7.36004 277.517 5.42004 285.237 5.06004L286.497 5.00004C290.017 5.00004 293.097 5.88004 295.737 7.64004C298.377 9.36004 300.517 11.6 302.157 14.36C303.837 17.12 305.057 20.12 305.817 23.36L293.157 25.82ZM342.304 49.88H330.904V18.44L311.944 19.64V6.92004H358.744V17.12L342.304 17V49.88ZM363.535 6.92004H393.835V17.54H374.935V23.96H392.515V33.2H374.935V38.36H396.295V50.06H363.535V6.92004ZM424.828 17.96C423.388 17.24 421.248 16.9 418.408 16.94V26.9C420.968 26.3 423.028 25.42 424.588 24.26C426.188 23.06 426.988 21.86 426.988 20.66C426.988 19.58 426.268 18.68 424.828 17.96ZM418.408 51.32H404.668V6.62004C407.868 6.18004 410.868 5.96004 413.668 5.96004C418.348 5.96004 422.628 6.48004 426.508 7.52004C430.428 8.52004 433.548 10 435.868 11.96C438.188 13.88 439.348 16.14 439.348 18.74C439.348 23.3 435.748 28.36 428.548 33.92L446.368 51.32H430.768C428.208 48.84 425.788 46.62 423.508 44.66C421.228 42.66 419.528 41.42 418.408 40.94V51.32Z" fill="white"/>
<path d="M34.6998 25.82L29.9815 27.4745L31.4114 31.5525L35.6535 30.7282L34.6998 25.82ZM30.8598 19.34L27.589 23.1219L27.6187 23.1475L27.6487 23.1726L30.8598 19.34ZM22.8798 17.72L21.9694 12.8036L21.7729 12.84L21.5799 12.892L22.8798 17.72ZM18.4998 22.22L13.7721 20.5925L18.4998 22.22ZM18.1398 33.92L13.4731 35.7149L13.481 35.7354L13.489 35.7559L18.1398 33.92ZM21.1998 37.94L18.0632 41.8338L18.1222 41.8813L18.1826 41.9271L21.1998 37.94ZM33.7998 37.88L36.2351 42.2469L36.2669 42.2291L36.2984 42.211L33.7998 37.88ZM38.8398 33.5L40.8985 28.9435L37.2312 27.2866L34.8286 30.515L38.8398 33.5ZM48.7998 38L52.987 40.7327L56.1762 35.8461L50.8585 33.4435L48.7998 38ZM39.1398 47.78L36.3089 43.6586L36.2991 43.6653L36.2894 43.6721L39.1398 47.78ZM26.1198 52.1L26.2354 57.0987L26.2616 57.0981L26.2878 57.0972L26.1198 52.1ZM10.6998 45.92L6.73532 48.9668L6.75102 48.9873L6.76694 49.0075L10.6998 45.92ZM5.0598 28.34L10.051 28.0433L10.0499 28.0254L10.0487 28.0074L5.0598 28.34ZM10.0998 10.88L6.5035 7.40634V7.40634L10.0998 10.88ZM26.7798 5.06004L27.0127 10.0546L27.0176 10.0544L26.7798 5.06004ZM28.0398 5.00003V3.43323e-05H27.9208L27.802 0.00569534L28.0398 5.00003ZM37.2798 7.64004L34.5063 11.8003L34.5283 11.8149L34.5504 11.8294L37.2798 7.64004ZM43.6998 14.36L39.4014 16.9142L39.415 16.937L39.4288 16.9598L43.6998 14.36ZM47.3598 23.36L48.3135 28.2682L53.4143 27.2771L52.2277 22.2182L47.3598 23.36ZM34.6998 25.82L39.4181 24.1656C38.2221 20.7548 36.5649 17.597 34.0709 15.5074L30.8598 19.34L27.6487 23.1726C28.1147 23.5631 29.0175 24.7253 29.9815 27.4745L34.6998 25.82ZM30.8598 19.34L34.1306 15.5582C31.7404 13.491 28.8588 12.42 25.6998 12.42V17.42V22.42C26.4608 22.42 27.0193 22.6291 27.589 23.1219L30.8598 19.34ZM25.6998 17.42V12.42C24.5054 12.42 23.2472 12.567 21.9694 12.8036L22.8798 17.72L23.7903 22.6364C24.6724 22.4731 25.2942 22.42 25.6998 22.42V17.42ZM22.8798 17.72L21.5799 12.892C17.5643 13.9731 15.0299 16.939 13.7721 20.5925L18.4998 22.22L23.2275 23.8476C23.4622 23.1658 23.6971 22.8662 23.8078 22.7525C23.8922 22.6657 23.9809 22.6016 24.1797 22.5481L22.8798 17.72ZM18.4998 22.22L13.7721 20.5925C12.7592 23.5347 12.2398 26.5439 12.2398 29.6H17.2398H22.2398C22.2398 27.6961 22.5604 25.7854 23.2275 23.8476L18.4998 22.22ZM17.2398 29.6H12.2398C12.2398 31.6729 12.709 33.7283 13.4731 35.7149L18.1398 33.92L22.8065 32.1251C22.3706 30.9918 22.2398 30.1672 22.2398 29.6H17.2398ZM18.1398 33.92L13.489 35.7559C14.447 38.1828 16.039 40.2032 18.0632 41.8338L21.1998 37.94L24.3365 34.0463C23.4806 33.3568 23.0326 32.6973 22.7906 32.0842L18.1398 33.92ZM21.1998 37.94L18.1826 41.9271C20.7286 43.8538 23.7673 44.62 26.8998 44.62V39.62V34.62C25.3923 34.62 24.631 34.2663 24.217 33.953L21.1998 37.94ZM26.8998 39.62V44.62C30.221 44.62 33.3671 43.8464 36.2351 42.2469L33.7998 37.88L31.3645 33.5132C30.0725 34.2337 28.6186 34.62 26.8998 34.62V39.62ZM33.7998 37.88L36.2984 42.211C38.8981 40.7111 41.1176 38.8143 42.851 36.4851L38.8398 33.5L34.8286 30.515C34.002 31.6258 32.8615 32.6489 31.3012 33.5491L33.7998 37.88ZM38.8398 33.5L36.7811 38.0566L46.7411 42.5566L48.7998 38L50.8585 33.4435L40.8985 28.9435L38.8398 33.5ZM48.7998 38L44.6126 35.2674C42.5103 38.4886 39.7625 41.2864 36.3089 43.6586L39.1398 47.78L41.9707 51.9015C46.4371 48.8336 50.1293 45.1115 52.987 40.7327L48.7998 38ZM39.1398 47.78L36.2894 43.6721C33.1579 45.845 29.7489 46.9752 25.9518 47.1029L26.1198 52.1L26.2878 57.0972C32.0107 56.9049 37.2817 55.1551 41.9902 51.888L39.1398 47.78ZM26.1198 52.1L26.0042 47.1014C20.1867 47.2359 16.7607 45.5432 14.6327 42.8326L10.6998 45.92L6.76694 49.0075C11.3589 54.8569 18.2129 57.2842 26.2354 57.0987L26.1198 52.1ZM10.6998 45.92L14.6643 42.8733C12.1379 39.5859 10.4525 34.7956 10.051 28.0433L5.0598 28.34L0.06862 28.6368C0.547129 36.6845 2.62174 43.6142 6.73532 48.9668L10.6998 45.92ZM5.0598 28.34L10.0487 28.0074C10.0199 27.5749 9.9998 26.8461 9.9998 25.76H4.9998H-0.000195265C-0.000195265 26.914 0.0197175 27.9052 0.070879 28.6726L5.0598 28.34ZM4.9998 25.76H9.9998C9.9998 20.2434 11.4474 16.6818 13.6961 14.3537L10.0998 10.88L6.5035 7.40634C1.95218 12.1183 -0.000195265 18.4767 -0.000195265 25.76H4.9998ZM10.0998 10.88L13.6961 14.3537C15.8169 12.1581 19.8589 10.3882 27.0127 10.0546L26.7798 5.06004L26.5469 0.065464C18.2607 0.451866 11.1827 2.56196 6.5035 7.40634L10.0998 10.88ZM26.7798 5.06004L27.0176 10.0544L28.2776 9.99438L28.0398 5.00003L27.802 0.00569534L26.542 0.0656967L26.7798 5.06004ZM28.0398 5.00003V10C30.6849 10 32.7763 10.6469 34.5063 11.8003L37.2798 7.64004L40.0533 3.47979C36.5033 1.11313 32.4347 3.43323e-05 28.0398 3.43323e-05V5.00003ZM37.2798 7.64004L34.5504 11.8294C36.5367 13.1235 38.1447 14.7992 39.4014 16.9142L43.6998 14.36L47.9982 11.8059C45.9749 8.40083 43.3029 5.59662 40.0092 3.45072L37.2798 7.64004ZM43.6998 14.36L39.4288 16.9598C40.8259 19.2549 41.8489 21.7607 42.4919 24.5019L47.3598 23.36L52.2277 22.2182C51.3507 18.4793 49.9338 14.9852 47.9708 11.7603L43.6998 14.36ZM47.3598 23.36L46.4061 18.4518L33.7461 20.9118L34.6998 25.82L35.6535 30.7282L48.3135 28.2682L47.3598 23.36ZM72.3868 50.72V55.72H77.4043L77.3868 50.7026L72.3868 50.72ZM57.2068 50.72H52.2068V55.72H57.2068V50.72ZM57.2068 6.02003V1.02003H52.2068V6.02003H57.2068ZM72.3868 6.02003L77.3868 6.03611L77.4029 1.02003H72.3868V6.02003ZM72.3268 24.68L67.3269 24.664L67.3107 29.68H72.3268V24.68ZM84.2668 24.68V29.68H89.2842L89.2668 24.6627L84.2668 24.68ZM84.2068 7.34004V2.34004H79.1895L79.2069 7.35734L84.2068 7.34004ZM95.6668 7.34004H100.667V2.34004H95.6668V7.34004ZM95.6668 50.72V55.72H100.667V50.72H95.6668ZM83.0668 50.72L78.072 50.9463L78.2882 55.72H83.0668V50.72ZM82.2868 33.5L87.2817 33.2738L87.0655 28.5H82.2868V33.5ZM72.3268 33.5V28.5H67.3094L67.3269 33.5175L72.3268 33.5ZM72.3868 50.72V45.72H57.2068V50.72V55.72H72.3868V50.72ZM57.2068 50.72H62.2068V6.02003H57.2068H52.2068V50.72H57.2068ZM57.2068 6.02003V11.02H72.3868V6.02003V1.02003H57.2068V6.02003ZM72.3868 6.02003L67.3869 6.00396L67.3269 24.664L72.3268 24.68L77.3268 24.6961L77.3868 6.03611L72.3868 6.02003ZM72.3268 24.68V29.68H84.2668V24.68V19.68H72.3268V24.68ZM84.2668 24.68L89.2668 24.6627L89.2068 7.32273L84.2068 7.34004L79.2069 7.35734L79.2669 24.6973L84.2668 24.68ZM84.2068 7.34004V12.34H95.6668V7.34004V2.34004H84.2068V7.34004ZM95.6668 7.34004H90.6668V50.72H95.6668H100.667V7.34004H95.6668ZM95.6668 50.72V45.72H83.0668V50.72V55.72H95.6668V50.72ZM83.0668 50.72L88.0617 50.4938L87.2817 33.2738L82.2868 33.5L77.292 33.7263L78.072 50.9463L83.0668 50.72ZM82.2868 33.5V28.5H72.3268V33.5V38.5H82.2868V33.5ZM72.3268 33.5L67.3269 33.5175L67.3869 50.7375L72.3868 50.72L77.3868 50.7026L77.3268 33.4826L72.3268 33.5ZM127.542 18.44L132.241 16.7313L127.4 3.41899L122.811 16.8204L127.542 18.44ZM123.762 29.48L119.031 27.8604L116.819 34.3223L123.647 34.4787L123.762 29.48ZM131.622 29.66L131.507 34.6587L138.821 34.8262L136.321 27.9513L131.622 29.66ZM137.562 49.88L132.795 51.3898L134.162 55.7044L138.591 54.773L137.562 49.88ZM133.362 36.62L138.128 35.1103L137.017 31.6L133.335 31.6201L133.362 36.62ZM122.382 36.68L122.355 31.6801L118.697 31.7001L117.608 35.1922L122.382 36.68ZM118.062 50.54V55.54H121.741L122.835 52.0279L118.062 50.54ZM104.082 50.54L99.6769 48.1744L95.7212 55.54H104.082V50.54ZM110.982 34.82L106.361 32.9096V32.9096L110.982 34.82ZM122.322 6.56004L122.601 1.56781L118.986 1.366L117.666 4.73671L122.322 6.56004ZM134.142 7.22004L138.722 5.21376L137.489 2.39912L134.421 2.22781L134.142 7.22004ZM151.542 46.94L152.571 51.833L158.59 50.5673L156.122 44.9338L151.542 46.94ZM127.542 18.44L122.811 16.8204L119.031 27.8604L123.762 29.48L128.492 31.0997L132.272 20.0597L127.542 18.44ZM123.762 29.48L123.647 34.4787L131.507 34.6587L131.622 29.66L131.736 24.6613L123.876 24.4813L123.762 29.48ZM131.622 29.66L136.321 27.9513L132.241 16.7313L127.542 18.44L122.843 20.1488L126.923 31.3688L131.622 29.66ZM137.562 49.88L142.328 48.3703L138.128 35.1103L133.362 36.62L128.595 38.1298L132.795 51.3898L137.562 49.88ZM133.362 36.62L133.335 31.6201L122.355 31.6801L122.382 36.68L122.409 41.68L133.389 41.62L133.362 36.62ZM122.382 36.68L117.608 35.1922L113.288 49.0522L118.062 50.54L122.835 52.0279L127.155 38.1679L122.382 36.68ZM118.062 50.54V45.54H104.082V50.54V55.54H118.062V50.54ZM104.082 50.54L108.487 52.9057C109.791 50.4766 112.193 44.977 115.602 36.7305L110.982 34.82L106.361 32.9096C102.891 41.303 100.692 46.2835 99.6769 48.1744L104.082 50.54ZM110.982 34.82L115.602 36.7305C119.057 28.3754 122.849 18.9256 126.978 8.38337L122.322 6.56004L117.666 4.73671C113.555 15.2345 109.787 24.6247 106.361 32.9096L110.982 34.82ZM122.322 6.56004L122.043 11.5523L133.863 12.2123L134.142 7.22004L134.421 2.22781L122.601 1.56781L122.322 6.56004ZM134.142 7.22004L129.562 9.22631L146.962 48.9463L151.542 46.94L156.122 44.9338L138.722 5.21376L134.142 7.22004ZM151.542 46.94L150.513 42.0471L136.533 44.9871L137.562 49.88L138.591 54.773L152.571 51.833L151.542 46.94ZM180.082 17.96L177.846 22.4322L180.082 17.96ZM173.662 16.94L173.591 11.9405L168.662 12.01V16.94H173.662ZM173.662 26.9H168.662V33.2074L174.803 31.7681L173.662 26.9ZM179.842 24.26L182.825 28.2723L182.833 28.2662L182.842 28.26L179.842 24.26ZM173.662 51.32V56.32H178.662V51.32H173.662ZM159.922 51.32H154.922V56.32H159.922V51.32ZM159.922 6.62004L159.241 1.66664L154.922 2.26049V6.62004H159.922ZM181.762 7.52004L180.467 12.3496L180.496 12.3574L180.526 12.3649L181.762 7.52004ZM191.122 11.96L187.895 15.7795L187.914 15.7958L187.934 15.812L191.122 11.96ZM183.802 33.92L180.746 29.9626L176.193 33.4786L180.309 37.4975L183.802 33.92ZM201.622 51.32V56.32H213.899L205.115 47.7426L201.622 51.32ZM186.022 51.32L182.543 54.9112L183.997 56.32H186.022V51.32ZM178.762 44.66L175.464 48.4188L175.483 48.4353L175.502 48.4516L178.762 44.66ZM173.662 40.94L175.631 36.3443L168.662 33.3573V40.94H173.662ZM180.082 17.96L182.318 13.4879C179.807 12.2325 176.707 11.8967 173.591 11.9405L173.662 16.94L173.732 21.9395C176.297 21.9034 177.476 22.2476 177.846 22.4322L180.082 17.96ZM173.662 16.94H168.662V26.9H173.662H178.662V16.94H173.662ZM173.662 26.9L174.803 31.7681C177.807 31.0639 180.559 29.9575 182.825 28.2723L179.842 24.26L176.858 20.2477C176.004 20.8826 174.636 21.5362 172.521 22.032L173.662 26.9ZM179.842 24.26L182.842 28.26C184.869 26.7395 187.242 24.2432 187.242 20.66H182.242H177.242C177.242 20.3941 177.288 20.161 177.348 19.9789C177.407 19.8032 177.469 19.7056 177.481 19.6865C177.493 19.6696 177.463 19.7177 177.356 19.8245C177.25 19.9308 177.085 20.0777 176.842 20.26L179.842 24.26ZM182.242 20.66H187.242C187.242 16.8319 184.521 14.5896 182.318 13.4879L180.082 17.96L177.846 22.4322C178.159 22.5887 178.031 22.5911 177.797 22.2985C177.669 22.1382 177.52 21.9026 177.408 21.5925C177.294 21.2785 177.242 20.9579 177.242 20.66H182.242ZM173.662 51.32V46.32H159.922V51.32V56.32H173.662V51.32ZM159.922 51.32H164.922V6.62004H159.922H154.922V51.32H159.922ZM159.922 6.62004L160.603 11.5734C163.611 11.1599 166.381 10.96 168.922 10.96V5.96004V0.960037C165.862 0.960037 162.633 1.20021 159.241 1.66664L159.922 6.62004ZM168.922 5.96004V10.96C173.235 10.96 177.072 11.4395 180.467 12.3496L181.762 7.52004L183.056 2.69052C178.691 1.52054 173.969 0.960037 168.922 0.960037V5.96004ZM181.762 7.52004L180.526 12.3649C183.945 13.2372 186.311 14.4415 187.895 15.7795L191.122 11.96L194.348 8.14061C191.292 5.55861 187.418 3.80286 182.998 2.6752L181.762 7.52004ZM191.122 11.96L187.934 15.812C189.309 16.95 189.602 17.8746 189.602 18.74H194.602H199.602C199.602 14.4055 197.574 10.8101 194.31 8.10807L191.122 11.96ZM194.602 18.74H189.602C189.602 20.7521 187.823 24.4976 180.746 29.9626L183.802 33.92L186.858 37.8774C194.181 32.2225 199.602 25.848 199.602 18.74H194.602ZM183.802 33.92L180.309 37.4975L198.129 54.8975L201.622 51.32L205.115 47.7426L187.295 30.3426L183.802 33.92ZM201.622 51.32V46.32H186.022V51.32V56.32H201.622V51.32ZM186.022 51.32L189.501 47.7288C186.882 45.1921 184.388 42.9036 182.021 40.8685L178.762 44.66L175.502 48.4516C177.695 50.3365 180.041 52.488 182.543 54.9112L186.022 51.32ZM178.762 44.66L182.059 40.9012C179.8 38.9195 177.565 37.1732 175.631 36.3443L173.662 40.94L171.692 45.5358C171.692 45.5357 171.791 45.5798 172.007 45.7112C172.215 45.8383 172.488 46.0199 172.83 46.2696C173.519 46.7722 174.393 47.4786 175.464 48.4188L178.762 44.66ZM173.662 40.94H168.662V51.32H173.662H178.662V40.94H173.662ZM231.077 18.44L235.776 16.7313L230.935 3.41899L226.347 16.8204L231.077 18.44ZM227.297 29.48L222.567 27.8604L220.354 34.3223L227.183 34.4787L227.297 29.48ZM235.157 29.66L235.043 34.6587L242.356 34.8262L239.856 27.9513L235.157 29.66ZM241.097 49.88L236.33 51.3898L237.697 55.7044L242.126 54.773L241.097 49.88ZM236.897 36.62L241.664 35.1103L240.552 31.6L236.87 31.6201L236.897 36.62ZM225.917 36.68L225.89 31.6801L222.232 31.7001L221.143 35.1922L225.917 36.68ZM221.597 50.54V55.54H225.276L226.37 52.0279L221.597 50.54ZM207.617 50.54L203.212 48.1744L199.256 55.54H207.617V50.54ZM214.517 34.82L209.896 32.9096V32.9096L214.517 34.82ZM225.857 6.56004L226.136 1.56781L222.521 1.366L221.201 4.73671L225.857 6.56004ZM237.677 7.22004L242.257 5.21376L241.024 2.39912L237.956 2.22781L237.677 7.22004ZM255.077 46.94L256.106 51.833L262.125 50.5673L259.657 44.9338L255.077 46.94ZM231.077 18.44L226.347 16.8204L222.567 27.8604L227.297 29.48L232.027 31.0997L235.807 20.0597L231.077 18.44ZM227.297 29.48L227.183 34.4787L235.043 34.6587L235.157 29.66L235.271 24.6613L227.411 24.4813L227.297 29.48ZM235.157 29.66L239.856 27.9513L235.776 16.7313L231.077 18.44L226.378 20.1488L230.458 31.3688L235.157 29.66ZM241.097 49.88L245.864 48.3703L241.664 35.1103L236.897 36.62L232.13 38.1298L236.33 51.3898L241.097 49.88ZM236.897 36.62L236.87 31.6201L225.89 31.6801L225.917 36.68L225.944 41.68L236.924 41.62L236.897 36.62ZM225.917 36.68L221.143 35.1922L216.823 49.0522L221.597 50.54L226.37 52.0279L230.69 38.1679L225.917 36.68ZM221.597 50.54V45.54H207.617V50.54V55.54H221.597V50.54ZM207.617 50.54L212.022 52.9057C213.326 50.4766 215.728 44.977 219.138 36.7305L214.517 34.82L209.896 32.9096C206.426 41.303 204.228 46.2835 203.212 48.1744L207.617 50.54ZM214.517 34.82L219.138 36.7305C222.592 28.3754 226.384 18.9256 230.513 8.38337L225.857 6.56004L221.201 4.73671C217.09 15.2345 213.322 24.6247 209.896 32.9096L214.517 34.82ZM225.857 6.56004L225.578 11.5523L237.398 12.2123L237.677 7.22004L237.956 2.22781L226.136 1.56781L225.857 6.56004ZM237.677 7.22004L233.097 9.22631L250.497 48.9463L255.077 46.94L259.657 44.9338L242.257 5.21376L237.677 7.22004ZM255.077 46.94L254.048 42.0471L240.068 44.9871L241.097 49.88L242.126 54.773L256.106 51.833L255.077 46.94ZM293.157 25.82L288.439 27.4745L289.868 31.5525L294.111 30.7282L293.157 25.82ZM289.317 19.34L286.046 23.1219L286.076 23.1475L286.106 23.1726L289.317 19.34ZM281.337 17.72L280.426 12.8036L280.23 12.84L280.037 12.892L281.337 17.72ZM276.957 22.22L272.229 20.5925L276.957 22.22ZM276.597 33.92L271.93 35.7149L271.938 35.7354L271.946 35.7559L276.597 33.92ZM279.657 37.94L276.52 41.8338L276.579 41.8813L276.64 41.9271L279.657 37.94ZM292.257 37.88L294.692 42.2469L294.724 42.2291L294.755 42.211L292.257 37.88ZM297.297 33.5L299.355 28.9435L295.688 27.2866L293.286 30.515L297.297 33.5ZM307.257 38L311.444 40.7327L314.633 35.8461L309.315 33.4435L307.257 38ZM297.597 47.78L294.766 43.6586L294.756 43.6653L294.746 43.6721L297.597 47.78ZM284.577 52.1L284.692 57.0987L284.719 57.0981L284.745 57.0972L284.577 52.1ZM269.157 45.92L265.192 48.9668L265.208 48.9873L265.224 49.0075L269.157 45.92ZM263.517 28.34L268.508 28.0433L268.507 28.0254L268.506 28.0074L263.517 28.34ZM268.557 10.88L264.961 7.40634V7.40634L268.557 10.88ZM285.237 5.06004L285.47 10.0546L285.475 10.0544L285.237 5.06004ZM286.497 5.00003V3.43323e-05H286.378L286.259 0.00569534L286.497 5.00003ZM295.737 7.64004L292.963 11.8003L292.985 11.8149L293.007 11.8294L295.737 7.64004ZM302.157 14.36L297.858 16.9142L297.872 16.937L297.886 16.9598L302.157 14.36ZM305.817 23.36L306.771 28.2682L311.871 27.2771L310.685 22.2182L305.817 23.36ZM293.157 25.82L297.875 24.1656C296.679 20.7548 295.022 17.597 292.528 15.5074L289.317 19.34L286.106 23.1726C286.572 23.5631 287.474 24.7253 288.439 27.4745L293.157 25.82ZM289.317 19.34L292.588 15.5582C290.197 13.491 287.316 12.42 284.157 12.42V17.42V22.42C284.918 22.42 285.476 22.6291 286.046 23.1219L289.317 19.34ZM284.157 17.42V12.42C282.962 12.42 281.704 12.567 280.426 12.8036L281.337 17.72L282.247 22.6364C283.129 22.4731 283.751 22.42 284.157 22.42V17.42ZM281.337 17.72L280.037 12.892C276.021 13.9731 273.487 16.939 272.229 20.5925L276.957 22.22L281.685 23.8476C281.919 23.1658 282.154 22.8662 282.265 22.7525C282.349 22.6657 282.438 22.6016 282.637 22.5481L281.337 17.72ZM276.957 22.22L272.229 20.5925C271.216 23.5347 270.697 26.5439 270.697 29.6H275.697H280.697C280.697 27.6961 281.017 25.7854 281.685 23.8476L276.957 22.22ZM275.697 29.6H270.697C270.697 31.6729 271.166 33.7283 271.93 35.7149L276.597 33.92L281.264 32.1251C280.828 30.9918 280.697 30.1672 280.697 29.6H275.697ZM276.597 33.92L271.946 35.7559C272.904 38.1828 274.496 40.2032 276.52 41.8338L279.657 37.94L282.793 34.0463C281.938 33.3568 281.49 32.6973 281.248 32.0842L276.597 33.92ZM279.657 37.94L276.64 41.9271C279.186 43.8538 282.224 44.62 285.357 44.62V39.62V34.62C283.849 34.62 283.088 34.2663 282.674 33.953L279.657 37.94ZM285.357 39.62V44.62C288.678 44.62 291.824 43.8464 294.692 42.2469L292.257 37.88L289.822 33.5132C288.53 34.2337 287.076 34.62 285.357 34.62V39.62ZM292.257 37.88L294.755 42.211C297.355 40.7111 299.575 38.8143 301.308 36.4851L297.297 33.5L293.286 30.515C292.459 31.6258 291.319 32.6489 289.758 33.5491L292.257 37.88ZM297.297 33.5L295.238 38.0566L305.198 42.5566L307.257 38L309.315 33.4435L299.355 28.9435L297.297 33.5ZM307.257 38L303.07 35.2674C300.967 38.4886 298.22 41.2864 294.766 43.6586L297.597 47.78L300.428 51.9015C304.894 48.8336 308.586 45.1115 311.444 40.7327L307.257 38ZM297.597 47.78L294.746 43.6721C291.615 45.845 288.206 46.9752 284.409 47.1029L284.577 52.1L284.745 57.0972C290.468 56.9049 295.739 55.1551 300.447 51.888L297.597 47.78ZM284.577 52.1L284.461 47.1014C278.644 47.2359 275.218 45.5432 273.09 42.8326L269.157 45.92L265.224 49.0075C269.816 54.8569 276.67 57.2842 284.692 57.0987L284.577 52.1ZM269.157 45.92L273.121 42.8733C270.595 39.5859 268.91 34.7956 268.508 28.0433L263.517 28.34L258.526 28.6368C259.004 36.6845 261.079 43.6142 265.192 48.9668L269.157 45.92ZM263.517 28.34L268.506 28.0074C268.477 27.5749 268.457 26.8461 268.457 25.76H263.457H258.457C258.457 26.914 258.477 27.9052 258.528 28.6726L263.517 28.34ZM263.457 25.76H268.457C268.457 20.2434 269.904 16.6818 272.153 14.3537L268.557 10.88L264.961 7.40634C260.409 12.1183 258.457 18.4767 258.457 25.76H263.457ZM268.557 10.88L272.153 14.3537C274.274 12.1581 278.316 10.3882 285.47 10.0546L285.237 5.06004L285.004 0.065464C276.718 0.451866 269.64 2.56196 264.961 7.40634L268.557 10.88ZM285.237 5.06004L285.475 10.0544L286.735 9.99438L286.497 5.00003L286.259 0.00569534L284.999 0.0656967L285.237 5.06004ZM286.497 5.00003V10C289.142 10 291.233 10.6469 292.963 11.8003L295.737 7.64004L298.51 3.47979C294.96 1.11313 290.892 3.43323e-05 286.497 3.43323e-05V5.00003ZM295.737 7.64004L293.007 11.8294C294.994 13.1235 296.602 14.7992 297.858 16.9142L302.157 14.36L306.455 11.8059C304.432 8.40083 301.76 5.59662 298.466 3.45072L295.737 7.64004ZM302.157 14.36L297.886 16.9598C299.283 19.2549 300.306 21.7607 300.949 24.5019L305.817 23.36L310.685 22.2182C309.808 18.4793 308.391 14.9852 306.428 11.7603L302.157 14.36ZM305.817 23.36L304.863 18.4518L292.203 20.9118L293.157 25.82L294.111 30.7282L306.771 28.2682L305.817 23.36ZM342.304 49.88V54.88H347.304V49.88H342.304ZM330.904 49.88H325.904V54.88H330.904V49.88ZM330.904 18.44H335.904V13.1136L330.588 13.45L330.904 18.44ZM311.944 19.64H306.944V24.9665L312.26 24.6301L311.944 19.64ZM311.944 6.92004V1.92004H306.944V6.92004H311.944ZM358.744 6.92004H363.744V1.92004H358.744V6.92004ZM358.744 17.12L358.707 22.1199L363.744 22.1567V17.12H358.744ZM342.304 17L342.34 12.0002L337.304 11.9634V17H342.304ZM342.304 49.88V44.88H330.904V49.88V54.88H342.304V49.88ZM330.904 49.88H335.904V18.44H330.904H325.904V49.88H330.904ZM330.904 18.44L330.588 13.45L311.628 14.65L311.944 19.64L312.26 24.6301L331.22 23.4301L330.904 18.44ZM311.944 19.64H316.944V6.92004H311.944H306.944V19.64H311.944ZM311.944 6.92004V11.92H358.744V6.92004V1.92004H311.944V6.92004ZM358.744 6.92004H353.744V17.12H358.744H363.744V6.92004H358.744ZM358.744 17.12L358.78 12.1202L342.34 12.0002L342.304 17L342.267 21.9999L358.707 22.1199L358.744 17.12ZM342.304 17H337.304V49.88H342.304H347.304V17H342.304ZM363.535 6.92004V1.92004H358.535V6.92004H363.535ZM393.835 6.92004H398.835V1.92004H393.835V6.92004ZM393.835 17.54V22.54H398.835V17.54H393.835ZM374.935 17.54V12.54H369.935V17.54H374.935ZM374.935 23.96H369.935V28.96H374.935V23.96ZM392.515 23.96H397.515V18.96H392.515V23.96ZM392.515 33.2V38.2H397.515V33.2H392.515ZM374.935 33.2V28.2H369.935V33.2H374.935ZM374.935 38.36H369.935V43.36H374.935V38.36ZM396.295 38.36H401.295V33.36H396.295V38.36ZM396.295 50.06V55.06H401.295V50.06H396.295ZM363.535 50.06H358.535V55.06H363.535V50.06ZM363.535 6.92004V11.92H393.835V6.92004V1.92004H363.535V6.92004ZM393.835 6.92004H388.835V17.54H393.835H398.835V6.92004H393.835ZM393.835 17.54V12.54H374.935V17.54V22.54H393.835V17.54ZM374.935 17.54H369.935V23.96H374.935H379.935V17.54H374.935ZM374.935 23.96V28.96H392.515V23.96V18.96H374.935V23.96ZM392.515 23.96H387.515V33.2H392.515H397.515V23.96H392.515ZM392.515 33.2V28.2H374.935V33.2V38.2H392.515V33.2ZM374.935 33.2H369.935V38.36H374.935H379.935V33.2H374.935ZM374.935 38.36V43.36H396.295V38.36V33.36H374.935V38.36ZM396.295 38.36H391.295V50.06H396.295H401.295V38.36H396.295ZM396.295 50.06V45.06H363.535V50.06V55.06H396.295V50.06ZM363.535 50.06H368.535V6.92004H363.535H358.535V50.06H363.535ZM424.828 17.96L422.592 22.4322L424.828 17.96ZM418.408 16.94L418.337 11.9405L413.408 12.01V16.94H418.408ZM418.408 26.9H413.408V33.2074L419.549 31.7681L418.408 26.9ZM424.588 24.26L427.571 28.2723L427.58 28.2662L427.588 28.26L424.588 24.26ZM418.408 51.32V56.32H423.408V51.32H418.408ZM404.668 51.32H399.668V56.32H404.668V51.32ZM404.668 6.62004L403.987 1.66664L399.668 2.26049V6.62004H404.668ZM426.508 7.52004L425.213 12.3496L425.242 12.3574L425.272 12.3649L426.508 7.52004ZM435.868 11.96L432.641 15.7795L432.66 15.7958L432.68 15.812L435.868 11.96ZM428.548 33.92L425.492 29.9626L420.939 33.4786L425.055 37.4975L428.548 33.92ZM446.368 51.32V56.32H458.645L449.861 47.7426L446.368 51.32ZM430.768 51.32L427.289 54.9112L428.743 56.32H430.768V51.32ZM423.508 44.66L420.211 48.4188L420.229 48.4353L420.248 48.4516L423.508 44.66ZM418.408 40.94L420.377 36.3443L413.408 33.3573V40.94H418.408ZM424.828 17.96L427.064 13.4879C424.553 12.2325 421.453 11.8967 418.337 11.9405L418.408 16.94L418.478 21.9395C421.043 21.9034 422.223 22.2476 422.592 22.4322L424.828 17.96ZM418.408 16.94H413.408V26.9H418.408H423.408V16.94H418.408ZM418.408 26.9L419.549 31.7681C422.554 31.0639 425.305 29.9575 427.571 28.2723L424.588 24.26L421.604 20.2477C420.75 20.8826 419.382 21.5362 417.267 22.032L418.408 26.9ZM424.588 24.26L427.588 28.26C429.615 26.7395 431.988 24.2432 431.988 20.66H426.988H421.988C421.988 20.3941 422.034 20.161 422.094 19.9789C422.153 19.8032 422.215 19.7056 422.228 19.6865C422.239 19.6696 422.209 19.7177 422.102 19.8245C421.996 19.9308 421.831 20.0777 421.588 20.26L424.588 24.26ZM426.988 20.66H431.988C431.988 16.8319 429.267 14.5896 427.064 13.4879L424.828 17.96L422.592 22.4322C422.905 22.5887 422.778 22.5911 422.543 22.2985C422.415 22.1382 422.267 21.9026 422.154 21.5925C422.04 21.2785 421.988 20.9579 421.988 20.66H426.988ZM418.408 51.32V46.32H404.668V51.32V56.32H418.408V51.32ZM404.668 51.32H409.668V6.62004H404.668H399.668V51.32H404.668ZM404.668 6.62004L405.349 11.5734C408.357 11.1599 411.127 10.96 413.668 10.96V5.96004V0.960037C410.608 0.960037 407.379 1.20021 403.987 1.66664L404.668 6.62004ZM413.668 5.96004V10.96C417.981 10.96 421.818 11.4395 425.213 12.3496L426.508 7.52004L427.802 2.69052C423.437 1.52054 418.715 0.960037 413.668 0.960037V5.96004ZM426.508 7.52004L425.272 12.3649C428.691 13.2372 431.057 14.4415 432.641 15.7795L435.868 11.96L439.095 8.14061C436.038 5.55861 432.164 3.80286 427.744 2.6752L426.508 7.52004ZM435.868 11.96L432.68 15.812C434.055 16.95 434.348 17.8746 434.348 18.74H439.348H444.348C444.348 14.4055 442.321 10.8101 439.056 8.10807L435.868 11.96ZM439.348 18.74H434.348C434.348 20.7521 432.569 24.4976 425.492 29.9626L428.548 33.92L431.604 37.8774C438.927 32.2225 444.348 25.848 444.348 18.74H439.348ZM428.548 33.92L425.055 37.4975L442.875 54.8975L446.368 51.32L449.861 47.7426L432.041 30.3426L428.548 33.92ZM446.368 51.32V46.32H430.768V51.32V56.32H446.368V51.32ZM430.768 51.32L434.247 47.7288C431.628 45.1921 429.135 42.9036 426.767 40.8685L423.508 44.66L420.248 48.4516C422.441 50.3365 424.787 52.488 427.289 54.9112L430.768 51.32ZM423.508 44.66L426.805 40.9012C424.546 38.9195 422.312 37.1732 420.377 36.3443L418.408 40.94L416.438 45.5358C416.438 45.5357 416.538 45.5798 416.753 45.7112C416.961 45.8383 417.234 46.0199 417.576 46.2696C418.265 46.7722 419.139 47.4786 420.211 48.4188L423.508 44.66ZM418.408 40.94H413.408V51.32H418.408H423.408V40.94H418.408Z" fill="#B99F65" mask="url(#path-1-outside-1_6098_89)"/>
</svg>
