<svg width="333" height="43" viewBox="0 0 333 43" fill="none" xmlns="http://www.w3.org/2000/svg">
<path d="M245.136 19.1676H249.112V20.9596C249.112 24.5996 252.08 28.5476 257.904 29.4996L256.308 32.6076C251.884 31.7396 248.72 29.3316 247.124 26.1676C245.5 29.3036 242.336 31.7676 237.94 32.6076L236.344 29.4996C242.112 28.5196 245.136 24.5156 245.136 20.9596V19.1676ZM235.84 36.8356H258.66V39.8876H235.84V36.8356ZM261.209 18.7196H273.081V21.6036H264.961V23.0596H272.549V25.8316H264.961V27.4276C269.021 27.3996 271.597 27.3156 274.565 26.8676L274.873 29.7236C271.485 30.2836 268.461 30.3116 263.337 30.3116H261.209V18.7196ZM276.441 17.7676H280.165V22.6116H283.469V25.6356H280.165V30.6756H276.441V17.7676ZM263.477 31.6836H280.165V38.4876H267.229V39.9716H280.893V42.7996H263.533V35.8556H276.497V34.5116H263.477V31.6836ZM298.393 20.1196C298.393 27.9596 296.377 34.5396 286.857 39.2716L284.925 36.3876C288.985 34.3436 291.505 32.0756 292.989 29.3316L285.597 30.0036L285.149 26.8676L294.165 26.3636C294.445 25.3276 294.613 24.2356 294.697 23.0876H286.437V20.1196H298.393ZM302.033 17.7396H305.785V42.9396H302.033V17.7396ZM311.89 19.7556H329.446V22.8076H315.586V29.3316H329.642V32.2716H311.89V19.7556ZM309.258 36.8916H332.078V39.9436H309.258V36.8916Z" fill="#555555"/>
<path d="M10.14 13.1556C10.14 14.1609 10.4867 14.9929 11.18 15.6516C11.8733 16.3102 12.7747 16.8822 13.884 17.3676C14.9933 17.8182 16.224 18.2689 17.576 18.7196C18.928 19.1356 20.2627 19.6209 21.58 20.1756C22.8973 20.6956 24.1107 21.3716 25.22 22.2036C26.364 23.0009 27.2653 24.0236 27.924 25.2716C28.6173 26.5196 28.964 28.0796 28.964 29.9516C28.964 32.5169 28.288 34.6316 26.936 36.2956C25.6187 37.9596 23.8507 39.2076 21.632 40.0396C19.4133 40.8369 16.952 41.2356 14.248 41.2356C12.4107 41.2356 10.5213 41.0449 8.58 40.6636C6.67333 40.3169 4.784 39.7796 2.912 39.0516L3.172 29.1716H7.488L8.58 35.4636L7.904 34.2156C8.944 34.7009 10.036 35.0822 11.18 35.3596C12.3587 35.6022 13.5027 35.7236 14.612 35.7236C15.8947 35.7236 17.0733 35.5502 18.148 35.2036C19.2227 34.8569 20.072 34.3196 20.696 33.5916C21.32 32.8636 21.632 31.9622 21.632 30.8876C21.632 29.8129 21.3027 28.9289 20.644 28.2356C19.9853 27.5422 19.084 26.9702 17.94 26.5196C16.8307 26.0342 15.6173 25.6009 14.3 25.2196C12.9827 24.8036 11.648 24.3356 10.296 23.8156C8.97867 23.2956 7.748 22.6369 6.604 21.8396C5.49467 21.0422 4.61067 20.0369 3.952 18.8236C3.29333 17.5756 2.964 16.0156 2.964 14.1436C2.964 11.6822 3.55333 9.67157 4.732 8.11157C5.91067 6.5169 7.50533 5.3209 9.516 4.52357C11.5267 3.72624 13.7973 3.32757 16.328 3.32757C18.1307 3.32757 20.0027 3.51824 21.944 3.89957C23.8853 4.2809 25.8267 4.8529 27.768 5.61557L27.196 14.7156H22.776L21.684 9.04757L22.516 9.87957C21.6493 9.5329 20.7133 9.2729 19.708 9.09957C18.7373 8.89157 17.7493 8.78757 16.744 8.78757C15.5653 8.78757 14.4733 8.94357 13.468 9.25557C12.4627 9.5329 11.648 10.0009 11.024 10.6596C10.4347 11.2836 10.14 12.1156 10.14 13.1556ZM32.0625 40.5596V36.8156L36.3785 35.5676L35.4945 36.9196V4.57557L36.0665 5.40757L32.0625 4.26357V0.519568L42.7745 0.103567V24.0236L41.5785 22.9316H48.2345L46.4665 23.7636L51.1465 16.6396L51.6665 17.4196L48.0265 16.6916V12.9996L60.7145 12.5836V16.2756L56.3465 17.2636L58.3225 16.1716L51.9265 25.6356L52.0305 23.7636L58.8945 36.7116L57.8025 35.7756L61.7545 36.8676V40.5596H53.3305L46.7265 27.2996L47.7665 27.7676H41.5785L42.7745 27.2996V36.9196L42.0465 35.5156L46.1025 36.8156V40.5596H32.0625ZM73.6121 41.1836C71.3241 41.1836 69.4001 40.4382 67.8401 38.9476C66.2801 37.4222 65.5001 35.1342 65.5001 32.0836V16.8996L66.1761 17.9396L62.0161 16.6916V12.9476L72.7801 12.5836V30.8876C72.7801 32.5169 73.1441 33.7302 73.8721 34.5276C74.6001 35.2902 75.5708 35.6716 76.7841 35.6716C77.7201 35.6716 78.7428 35.4289 79.8521 34.9436C80.9614 34.4236 82.0708 33.6262 83.1801 32.5516L82.7121 33.8516V16.7436L83.3881 17.9396L79.2281 16.6916V12.9476L89.9921 12.5836V36.7116L89.1081 35.4636L93.4241 36.8156V40.5076L84.3241 40.9236L83.3361 35.8276L84.3241 36.1916C82.6254 37.8556 80.8401 39.1036 78.9681 39.9356C77.0961 40.7676 75.3108 41.1836 73.6121 41.1836ZM106.104 36.2956L105.532 35.6716L109.536 36.8156V40.5596H95.3396V36.8156L99.3436 35.6716L98.8236 36.2956V4.83557L99.2916 5.35557L95.3396 4.26357V0.519568L106.104 0.103567V36.2956ZM122.201 36.2956L121.629 35.6716L125.633 36.8156V40.5596H111.437V36.8156L115.441 35.6716L114.921 36.2956V4.83557L115.389 5.35557L111.437 4.26357V0.519568L122.201 0.103567V36.2956ZM136.723 40.5596V36.8156L141.039 35.5676L140.155 36.9196V4.57557L140.727 5.40757L136.723 4.26357V0.519568L147.435 0.103567V24.0236L146.239 22.9316H152.895L151.127 23.7636L155.807 16.6396L156.327 17.4196L152.687 16.6916V12.9996L165.375 12.5836V16.2756L161.007 17.2636L162.983 16.1716L156.587 25.6356L156.691 23.7636L163.555 36.7116L162.463 35.7756L166.415 36.8676V40.5596H157.991L151.387 27.2996L152.427 27.7676H146.239L147.435 27.2996V36.9196L146.707 35.5156L150.763 36.8156V40.5596H136.723ZM178.377 36.2956L177.857 35.6716L181.861 36.8156V40.5596H167.613V36.8156L171.617 35.6716L171.097 36.2956V17.3156L171.565 17.7836L167.613 16.6916V12.9476L178.377 12.5836V36.2956ZM174.529 8.52757C173.247 8.52757 172.207 8.16357 171.409 7.43557C170.647 6.70757 170.265 5.66757 170.265 4.31557C170.265 2.85957 170.664 1.7849 171.461 1.09157C172.293 0.363568 173.333 -0.000431299 174.581 -0.000431299C175.795 -0.000431299 176.8 0.363568 177.597 1.09157C178.395 1.7849 178.793 2.84224 178.793 4.26357C178.793 5.6849 178.377 6.75957 177.545 7.48757C176.748 8.1809 175.743 8.52757 174.529 8.52757ZM194.62 41.1836C192.609 41.1836 190.824 40.6636 189.264 39.6236C187.739 38.5489 186.525 36.9716 185.624 34.8916C184.757 32.8116 184.324 30.2809 184.324 27.2996C184.324 22.1689 185.624 18.3729 188.224 15.9116C190.824 13.4156 194.481 12.1676 199.196 12.1676C199.959 12.1676 200.721 12.2022 201.484 12.2716C202.247 12.3409 203.044 12.4622 203.876 12.6356L202.524 13.4676V4.88757L203.044 5.61557L198.78 4.21157V0.519568L209.804 0.103567V36.5036L208.92 35.4636L213.288 36.8156V40.5076L204.136 40.9236L203.2 36.4516L203.928 36.7116C202.403 38.2022 200.877 39.3289 199.352 40.0916C197.861 40.8196 196.284 41.1836 194.62 41.1836ZM197.428 35.8276C198.329 35.8276 199.283 35.5849 200.288 35.0996C201.293 34.5796 202.333 33.8342 203.408 32.8636L202.524 35.0476V16.3796L203.408 18.0436C201.779 17.5929 200.305 17.3676 198.988 17.3676C196.527 17.3676 194.724 18.1996 193.58 19.8636C192.471 21.4929 191.916 23.7462 191.916 26.6236C191.916 28.4956 192.141 30.1249 192.592 31.5116C193.043 32.8982 193.667 33.9729 194.464 34.7356C195.296 35.4636 196.284 35.8276 197.428 35.8276Z" fill="#333333"/>
</svg>
