<svg width="250" height="43" viewBox="0 0 250 43" fill="none" xmlns="http://www.w3.org/2000/svg">
<path d="M178.044 19.9796H190.196V36.9756H178.044V19.9796ZM186.556 22.9196H181.712V34.0356H186.556V22.9196ZM194.032 17.7116H197.756V42.9956H194.032V17.7116ZM203.945 19.7556H221.501V22.8076H207.641V29.3316H221.697V32.2716H203.945V19.7556ZM201.313 36.8916H224.133V39.9436H201.313V36.8916ZM241.829 17.7116H245.581V27.2316H249.025V30.2836H245.581V42.9116H241.829V17.7116ZM226.541 20.1196H230.265V33.6996C233.401 33.6436 236.789 33.3356 240.261 32.6636L240.653 35.6876C236.481 36.5556 232.421 36.7796 228.725 36.7796H226.541V20.1196Z" fill="#555555"/>
<path d="M43.524 7.69557L38.688 9.35957L39.728 7.43557V36.9196L38.688 35.4116L43.524 36.8156V40.5596H29.016V36.8156L34.06 35.3596L32.864 36.9196V11.9076L33.956 11.9596L24.44 31.0436L19.76 31.3036L10.608 11.8556H11.7V36.9196L10.868 35.5156L15.548 36.8156V40.5596H1.872V36.8156L6.708 35.4116L5.72 36.9196V7.43557L6.708 9.25557L1.872 7.95557V4.21157L14.82 3.95157L23.4 23.8676H22.516L31.512 4.21157L43.524 3.95157V7.69557ZM57.6704 36.2956L57.1504 35.6716L61.1544 36.8156V40.5596H46.9064V36.8156L50.9104 35.6716L50.3904 36.2956V17.3156L50.8584 17.7836L46.9064 16.6916V12.9476L57.6704 12.5836V36.2956ZM53.8224 8.52757C52.5398 8.52757 51.4998 8.16357 50.7024 7.43557C49.9398 6.70757 49.5584 5.66757 49.5584 4.31557C49.5584 2.85957 49.9571 1.7849 50.7544 1.09157C51.5864 0.363568 52.6264 -0.000431299 53.8744 -0.000431299C55.0878 -0.000431299 56.0931 0.363568 56.8904 1.09157C57.6878 1.7849 58.0864 2.84224 58.0864 4.26357C58.0864 5.6849 57.6704 6.75957 56.8384 7.48757C56.0411 8.1809 55.0358 8.52757 53.8224 8.52757ZM73.9131 41.1836C71.9025 41.1836 70.1171 40.6636 68.5571 39.6236C67.0318 38.5489 65.8185 36.9716 64.9171 34.8916C64.0505 32.8116 63.6171 30.2809 63.6171 27.2996C63.6171 22.1689 64.9171 18.3729 67.5171 15.9116C70.1171 13.4156 73.7745 12.1676 78.4891 12.1676C79.2518 12.1676 80.0145 12.2022 80.7771 12.2716C81.5398 12.3409 82.3371 12.4622 83.1691 12.6356L81.8171 13.4676V4.88757L82.3371 5.61557L78.0731 4.21157V0.519568L89.0971 0.103567V36.5036L88.2131 35.4636L92.5811 36.8156V40.5076L83.4291 40.9236L82.4931 36.4516L83.2211 36.7116C81.6958 38.2022 80.1705 39.3289 78.6451 40.0916C77.1545 40.8196 75.5771 41.1836 73.9131 41.1836ZM76.7211 35.8276C77.6225 35.8276 78.5758 35.5849 79.5811 35.0996C80.5865 34.5796 81.6265 33.8342 82.7011 32.8636L81.8171 35.0476V16.3796L82.7011 18.0436C81.0718 17.5929 79.5985 17.3676 78.2811 17.3676C75.8198 17.3676 74.0171 18.1996 72.8731 19.8636C71.7638 21.4929 71.2091 23.7462 71.2091 26.6236C71.2091 28.4956 71.4345 30.1249 71.8851 31.5116C72.3358 32.8982 72.9598 33.9729 73.7571 34.7356C74.5891 35.4636 75.5771 35.8276 76.7211 35.8276ZM94.8439 40.5596V36.8156L99.2119 35.5676L98.3279 36.6076V16.7956L99.2119 17.9916L94.8439 16.6916V12.9476L103.996 12.5316L104.932 17.5236L103.996 17.1596C105.66 15.4609 107.428 14.2129 109.3 13.4156C111.172 12.5836 112.957 12.1676 114.656 12.1676C117.013 12.1676 118.972 12.9129 120.532 14.4036C122.092 15.8596 122.855 18.0782 122.82 21.0596V36.6076L122.144 35.5676L126.304 36.8156V40.5596H112.42V36.8156L116.372 35.6716L115.54 36.7636V22.6196C115.54 20.9209 115.159 19.6729 114.396 18.8756C113.668 18.0782 112.697 17.6796 111.484 17.6796C110.548 17.6796 109.525 17.9396 108.416 18.4596C107.307 18.9796 106.215 19.7596 105.14 20.7996L105.608 19.7076V36.7636L104.932 35.6716L108.728 36.8156V40.5596H94.8439ZM151.865 36.8676L150.877 35.4116L155.349 36.8156V40.5076L146.249 40.9756L145.261 35.9836L145.781 36.1396C144.394 37.8382 142.886 39.1036 141.257 39.9356C139.627 40.7676 137.946 41.1836 136.213 41.1836C133.994 41.1836 132.157 40.4729 130.701 39.0516C129.245 37.6302 128.517 35.5849 128.517 32.9156C128.517 30.9396 128.933 29.3796 129.765 28.2356C130.631 27.0569 131.879 26.2076 133.509 25.6876C135.138 25.1676 137.114 24.9076 139.437 24.9076H145.105L144.585 25.4796V22.0476C144.585 20.4182 144.186 19.2569 143.389 18.5636C142.626 17.8702 141.499 17.5236 140.009 17.5236C139.281 17.5236 138.501 17.5929 137.669 17.7316C136.837 17.8702 135.935 18.0782 134.965 18.3556L135.693 17.5756L135.017 21.7876H130.493L130.077 14.1956C132.434 13.5022 134.583 12.9996 136.525 12.6876C138.501 12.3409 140.303 12.1676 141.933 12.1676C145.157 12.1676 147.618 12.8609 149.317 14.2476C151.015 15.6342 151.865 17.7836 151.865 20.6956V36.8676ZM135.849 32.1876C135.849 33.4702 136.143 34.4236 136.733 35.0476C137.357 35.6369 138.137 35.9316 139.073 35.9316C139.939 35.9316 140.893 35.6716 141.933 35.1516C142.973 34.5969 143.961 33.8516 144.897 32.9156L144.585 34.1636V28.2356L145.105 28.7556H140.633C138.83 28.7556 137.582 29.0329 136.889 29.5876C136.195 30.1422 135.849 31.0089 135.849 32.1876Z" fill="#333333"/>
</svg>
