<svg width="233" height="40" viewBox="0 0 233 40" fill="none" xmlns="http://www.w3.org/2000/svg">
<path d="M200.856 14.3844H204.608V23.9884H208.08V27.0404H204.608V39.5844H200.856V14.3844ZM197.888 16.9884C197.888 24.6044 195.032 31.0444 186.632 35.2724L184.532 32.4724C190.356 29.4764 193.436 25.5564 194.08 19.9844H185.96V16.9884H197.888ZM212.141 15.1124H215.865V21.0764H229.557V24.0444H222.613V26.9844H232.133V29.9804H209.341V26.9844H218.861V24.0444H212.141V15.1124ZM211.973 31.4644H215.697V36.2244H229.781V39.1924H211.973V31.4644Z" fill="#555555"/>
<path d="M19.188 37.8564C15.7907 37.8564 12.8093 37.1458 10.244 35.7244C7.67867 34.3031 5.68533 32.2058 4.264 29.4324C2.87733 26.6591 2.184 23.2271 2.184 19.1364C2.184 15.1151 2.87733 11.6831 4.264 8.84042C5.68533 5.96309 7.71333 3.77909 10.348 2.28842C12.9827 0.763087 16.1547 0.000420809 19.864 0.000420809C21.8747 0.000420809 23.9547 0.225754 26.104 0.676421C28.288 1.12709 30.4893 1.82042 32.708 2.75642L32.188 12.0644H27.768L26.52 6.03242L27.664 7.07242C26.4507 6.65642 25.22 6.32709 23.972 6.08442C22.724 5.80709 21.5453 5.66842 20.436 5.66842C18.2867 5.66842 16.4493 6.17109 14.924 7.17642C13.3987 8.18175 12.22 9.67242 11.388 11.6484C10.5907 13.6244 10.192 16.0858 10.192 19.0324C10.192 23.1231 11.024 26.3298 12.688 28.6524C14.3867 30.9751 16.848 32.1364 20.072 32.1364C21.0427 32.1364 22.0653 32.0324 23.14 31.8244C24.2147 31.5818 25.324 31.2524 26.468 30.8364L25.584 32.3964V22.5164L26.78 23.8164L21.788 22.8284V18.9804L36.244 18.7204V22.6204L31.772 23.8164L32.5 22.5164V34.9444C30.108 35.9151 27.7853 36.6431 25.532 37.1284C23.2787 37.6138 21.164 37.8564 19.188 37.8564ZM61.982 33.5404L60.994 32.0844L65.466 33.4884V37.1804L56.366 37.6484L55.378 32.6564L55.898 32.8124C54.5113 34.5111 53.0033 35.7764 51.374 36.6084C49.7446 37.4404 48.0633 37.8564 46.33 37.8564C44.1113 37.8564 42.274 37.1458 40.818 35.7244C39.362 34.3031 38.634 32.2578 38.634 29.5884C38.634 27.6124 39.05 26.0524 39.882 24.9084C40.7486 23.7298 41.9966 22.8804 43.626 22.3604C45.2553 21.8404 47.2313 21.5804 49.554 21.5804H55.222L54.702 22.1524V18.7204C54.702 17.0911 54.3033 15.9298 53.506 15.2364C52.7433 14.5431 51.6166 14.1964 50.126 14.1964C49.398 14.1964 48.618 14.2658 47.786 14.4044C46.954 14.5431 46.0526 14.7511 45.082 15.0284L45.81 14.2484L45.134 18.4604H40.61L40.194 10.8684C42.5513 10.1751 44.7006 9.67242 46.642 9.36042C48.618 9.01375 50.4206 8.84042 52.05 8.84042C55.274 8.84042 57.7353 9.53375 59.434 10.9204C61.1326 12.3071 61.982 14.4564 61.982 17.3684V33.5404ZM45.966 28.8604C45.966 30.1431 46.2606 31.0964 46.85 31.7204C47.474 32.3098 48.254 32.6044 49.19 32.6044C50.0566 32.6044 51.01 32.3444 52.05 31.8244C53.09 31.2698 54.078 30.5244 55.014 29.5884L54.702 30.8364V24.9084L55.222 25.4284H50.75C48.9473 25.4284 47.6993 25.7058 47.006 26.2604C46.3126 26.8151 45.966 27.6818 45.966 28.8604ZM67.5744 37.2324V33.4884L71.9424 32.2404L71.0584 33.2804V13.4684L71.9424 14.6644L67.5744 13.3644V9.62042L76.7264 9.20442L77.6624 14.1964L76.7264 13.8324C78.3904 12.1338 80.1584 10.8858 82.0304 10.0884C83.9024 9.25642 85.6877 8.84042 87.3864 8.84042C89.7437 8.84042 91.7024 9.58575 93.2624 11.0764C94.8224 12.5324 95.5851 14.7511 95.5504 17.7324V33.2804L94.8744 32.2404L99.0344 33.4884V37.2324H85.1504V33.4884L89.1024 32.3444L88.2704 33.4364V19.2924C88.2704 17.5938 87.8891 16.3458 87.1264 15.5484C86.3984 14.7511 85.4277 14.3524 84.2144 14.3524C83.2784 14.3524 82.2557 14.6124 81.1464 15.1324C80.0371 15.6524 78.9451 16.4324 77.8704 17.4724L78.3384 16.3804V33.4364L77.6624 32.3444L81.4584 33.4884V37.2324H67.5744ZM114.923 8.84042C119.014 8.84042 122.203 10.0538 124.491 12.4804C126.779 14.9071 127.923 18.3564 127.923 22.8284C127.923 25.9484 127.369 28.6351 126.259 30.8884C125.15 33.1071 123.555 34.8231 121.475 36.0364C119.395 37.2498 116.899 37.8564 113.987 37.8564C109.897 37.8564 106.725 36.6431 104.471 34.2164C102.253 31.7898 101.143 28.3404 101.143 23.8684C101.143 20.7484 101.681 18.0791 102.755 15.8604C103.865 13.6071 105.442 11.8738 107.487 10.6604C109.533 9.44709 112.011 8.84042 114.923 8.84042ZM114.559 14.0404C112.583 14.0404 111.11 14.8204 110.139 16.3804C109.169 17.9058 108.683 20.2804 108.683 23.5044C108.683 26.7284 109.151 29.0684 110.087 30.5244C111.023 31.9458 112.445 32.6564 114.351 32.6564C115.738 32.6564 116.865 32.3098 117.731 31.6164C118.598 30.9231 119.257 29.8658 119.707 28.4444C120.158 27.0231 120.383 25.2724 120.383 23.1924C120.383 20.0378 119.898 17.7324 118.927 16.2764C117.957 14.7858 116.501 14.0404 114.559 14.0404ZM131.051 37.2324V33.4884L135.419 32.2404L134.535 33.2804V13.4684L135.419 14.6644L131.051 13.3644V9.62042L140.203 9.20442L141.139 14.1964L140.203 13.8324C141.867 12.1338 143.635 10.8858 145.507 10.0884C147.379 9.25642 149.164 8.84042 150.863 8.84042C153.22 8.84042 155.179 9.58575 156.739 11.0764C158.299 12.5324 159.062 14.7511 159.027 17.7324V33.2804L158.351 32.2404L162.511 33.4884V37.2324H148.627V33.4884L152.579 32.3444L151.747 33.4364V19.2924C151.747 17.5938 151.366 16.3458 150.603 15.5484C149.875 14.7511 148.904 14.3524 147.691 14.3524C146.755 14.3524 145.732 14.6124 144.623 15.1324C143.514 15.6524 142.422 16.4324 141.347 17.4724L141.815 16.3804V33.4364L141.139 32.3444L144.935 33.4884V37.2324H131.051Z" fill="#333333"/>
</svg>
