<svg width="179" height="43" viewBox="0 0 179 43" fill="none" xmlns="http://www.w3.org/2000/svg">
<path d="M148.06 17.7676H151.784V33.0276H148.06V17.7676ZM132.1 19.2516H143.72V26.9796H135.796V29.0796C139.94 29.0516 142.824 28.9116 146.044 28.3796L146.464 31.3476C142.768 31.9636 139.408 32.0756 134.34 32.0756H132.128V24.2076H140.024V22.1916H132.1V19.2516ZM143.328 33.4756C148.648 33.4756 151.952 35.2116 151.952 38.2076C151.952 41.2316 148.648 42.9676 143.328 42.9676C137.98 42.9676 134.676 41.2316 134.676 38.2076C134.676 35.2116 137.98 33.4756 143.328 33.4756ZM143.328 36.3596C140.052 36.3596 138.4 36.9476 138.4 38.2076C138.4 39.5236 140.052 40.1116 143.328 40.1116C146.548 40.1116 148.256 39.5236 148.256 38.2076C148.256 36.9476 146.548 36.3596 143.328 36.3596ZM157.861 19.8956H175.865V22.8076C175.865 26.4756 175.865 29.9756 174.661 35.4916L170.993 35.1556C171.469 33.1116 171.749 31.2636 171.917 29.5836L157.581 30.3116L157.133 27.3156L172.113 26.8396C172.169 25.4676 172.169 24.1516 172.169 22.8916H157.861V19.8956ZM155.313 36.9476H178.105V40.0276H155.313V36.9476Z" fill="#555555"/>
<path d="M23.504 29.5356H27.924V40.5596H1.872V36.8156L6.552 35.4636L5.72 36.9196V7.79957L6.552 9.20357L1.872 7.95557V4.21157L17.316 3.95157V7.69557L12.376 9.20357L13.156 7.79957V36.3476L12.012 35.2036H23.348L22.308 36.3996L23.504 29.5356ZM40.8111 36.2956L40.2911 35.6716L44.2951 36.8156V40.5596H30.0471V36.8156L34.0511 35.6716L33.5311 36.2956V17.3156L33.9991 17.7836L30.0471 16.6916V12.9476L40.8111 12.5836V36.2956ZM36.9631 8.52757C35.6804 8.52757 34.6404 8.16357 33.8431 7.43557C33.0804 6.70757 32.6991 5.66757 32.6991 4.31557C32.6991 2.85957 33.0977 1.7849 33.8951 1.09157C34.7271 0.363568 35.7671 -0.000431299 37.0151 -0.000431299C38.2284 -0.000431299 39.2337 0.363568 40.0311 1.09157C40.8284 1.7849 41.2271 2.84224 41.2271 4.26357C41.2271 5.6849 40.8111 6.75957 39.9791 7.48757C39.1817 8.1809 38.1764 8.52757 36.9631 8.52757ZM46.6018 40.5596V36.8156L50.9698 35.5676L50.0858 36.6076V16.7956L50.9698 17.9916L46.6018 16.6916V12.9476L55.7538 12.5316L56.6898 17.5236L55.7538 17.1596C57.4178 15.4609 59.1858 14.2129 61.0578 13.4156C62.9298 12.5836 64.7151 12.1676 66.4138 12.1676C68.7711 12.1676 70.7298 12.9129 72.2898 14.4036C73.8498 15.8596 74.6124 18.0782 74.5778 21.0596V36.6076L73.9018 35.5676L78.0618 36.8156V40.5596H64.1778V36.8156L68.1298 35.6716L67.2978 36.7636V22.6196C67.2978 20.9209 66.9164 19.6729 66.1538 18.8756C65.4258 18.0782 64.4551 17.6796 63.2418 17.6796C62.3058 17.6796 61.2831 17.9396 60.1738 18.4596C59.0644 18.9796 57.9724 19.7596 56.8978 20.7996L57.3658 19.7076V36.7636L56.6898 35.6716L60.4858 36.8156V40.5596H46.6018ZM79.3906 40.5596V36.8156L83.7066 35.5676L82.8226 36.9196V4.57557L83.3946 5.40757L79.3906 4.26357V0.519568L90.1026 0.103567V24.0236L88.9066 22.9316H95.5626L93.7946 23.7636L98.4746 16.6396L98.9946 17.4196L95.3546 16.6916V12.9996L108.043 12.5836V16.2756L103.675 17.2636L105.651 16.1716L99.2546 25.6356L99.3586 23.7636L106.223 36.7116L105.131 35.7756L109.083 36.8676V40.5596H100.659L94.0546 27.2996L95.0946 27.7676H88.9066L90.1026 27.2996V36.9196L89.3746 35.5156L93.4306 36.8156V40.5596H79.3906Z" fill="#333333"/>
</svg>
