<svg width="495" height="59" viewBox="0 0 495 59" fill="none" xmlns="http://www.w3.org/2000/svg">
<path d="M17.108 32.496C17.056 35.304 16.796 38.008 16.536 40.712C16.172 44.612 13.988 47.68 9.672 47.68C5.252 47.68 3.12 44.612 2.756 40.712C1.716 30.832 1.716 19.964 2.756 10.136C3.12 6.288 5.252 3.22 9.672 3.22C13.988 3.22 16.172 6.288 16.536 10.136C16.848 13.516 16.952 16.532 17.16 20.068C18.616 15.856 20.8 11.748 22.412 8.784C24.544 4.884 28.132 2.284 33.072 4.364C37.232 6.132 38.688 9.46 37.128 13.464C34.996 18.976 30.888 24.852 27.04 27.92C26.364 28.388 26.988 29.428 27.768 28.856C28.548 28.232 29.276 27.608 29.952 26.88C33.072 30.208 35.464 34.836 36.764 38.476C37.908 41.96 36.296 45.392 32.24 47.056C27.976 48.72 24.128 47.004 21.736 43C20.436 40.764 18.46 36.24 17.108 32.496ZM48.2609 17.156C44.7249 17.156 41.4489 14.556 41.4489 9.928C41.4489 5.612 44.7769 2.7 48.2609 2.7C52.0569 2.7 55.0729 6.34 55.0729 10.084C55.0729 13.932 52.2129 17.156 48.2609 17.156ZM41.2929 43.312C40.3049 37.176 40.3049 30.364 41.2929 24.228C41.6569 21.836 43.8409 19.86 48.2609 19.86C52.5249 19.86 54.6569 21.836 55.0729 24.228C56.1129 30.364 56.1129 37.176 55.0729 43.312C54.6569 45.756 52.5249 47.68 48.2609 47.68C43.8409 47.68 41.6569 45.756 41.2929 43.312ZM74.1739 38.06C74.0699 39.152 74.0179 40.192 73.9139 41.232C73.4979 45.132 71.3659 47.68 67.0499 47.68C62.6299 47.68 60.3419 45.132 59.9259 41.232C59.5619 37.8 59.4059 33.796 59.3019 30.364V21.056C59.3019 17.312 61.7979 14.816 65.5419 14.816C68.5059 14.816 71.5219 15.648 72.6139 17.988C69.9099 21.264 68.5579 25.06 68.9739 29.116C69.1299 30.364 70.5339 30.26 70.4819 29.22C70.0659 23.916 72.9779 18.352 76.3579 16.324C77.8659 15.44 79.5299 14.816 81.2459 14.816C84.1059 14.816 87.0699 15.752 88.9939 17.884C91.9059 21.056 92.1139 24.852 92.0619 29.012C92.0099 32.912 91.6459 37.592 90.8139 41.232C89.9299 45.132 87.9539 47.68 83.4299 47.68C78.8539 47.68 76.5139 45.132 76.0459 41.232C75.9419 40.348 75.8379 39.412 75.7859 38.476C75.7859 37.176 74.5379 37.02 74.1739 38.06ZM116.639 14.816L119.343 12.32C121.475 10.344 124.179 10.76 126.103 13.048C127.923 15.284 127.923 17.78 125.999 19.912L125.427 20.588C125.375 21.212 126.571 21.888 126.571 25.944C126.571 30.728 124.855 35.616 120.279 37.904C117.939 36.968 115.183 36.292 111.803 36.24C110.503 36.24 110.399 37.696 111.699 37.696C122.411 38.216 127.195 44.144 126.051 49.552C125.063 54.128 119.655 58.34 109.879 58.34C99.5312 58.34 94.9553 53.764 94.1233 48.668C93.4473 44.248 95.5273 39.36 99.3233 36.5C95.6313 34.264 94.0713 29.428 95.1113 24.852C96.3073 19.392 101.351 14.244 111.179 14.244C112.895 14.244 114.455 14.452 116.639 14.816ZM109.567 28.284C109.151 29.064 110.659 29.792 111.335 28.856C112.791 26.88 112.999 24.02 113.103 21.472C113.103 20.224 111.439 20.276 111.387 21.16C111.231 23.656 110.763 25.84 109.567 28.284ZM109.151 50.852C108.787 51.684 110.243 52.36 110.867 51.424C112.271 49.448 112.583 46.588 112.687 44.092C112.687 42.896 110.971 42.896 110.919 43.78C110.763 46.276 110.399 48.408 109.151 50.852ZM151.018 47.576C147.118 47.16 143.114 43.988 142.75 38.528C142.23 29.48 142.386 21.368 142.802 12.216C143.114 6.704 147.118 3.584 151.018 3.168C153.67 2.908 156.79 2.7 159.858 2.7C171.61 2.596 180.138 8.836 180.138 24.488C180.19 40.088 171.61 47.992 159.962 48.044C156.842 48.044 153.722 47.836 151.018 47.576ZM159.598 27.608C159.182 28.388 160.742 29.168 161.418 28.18C162.822 26.204 163.238 23.344 163.29 20.796C163.29 19.548 161.47 19.6 161.47 20.432C161.314 22.98 160.846 25.112 159.598 27.608ZM189.705 45.704C185.025 42.74 182.737 37.332 182.633 31.976C182.529 25.528 185.337 19.08 190.693 16.584C193.293 15.388 196.205 14.816 198.961 14.816C206.345 14.816 212.689 18.456 212.221 26.672C211.961 31.612 209.465 33.9 204.213 35.148C201.509 35.824 197.349 35.616 195.789 33.12C195.529 32.704 194.333 32.704 194.489 33.692C194.697 35.2 197.297 37.28 200.989 37.28C201.665 37.28 202.653 37.072 203.277 36.916C207.957 35.564 209.985 35.512 211.441 39.828C212.585 43.104 210.817 45.548 205.669 47.16C203.173 47.94 201.561 48.044 199.013 48.044C195.685 48.044 192.409 47.42 189.705 45.704ZM196.621 26.204C199.273 25.476 201.457 25.58 203.953 26.1C204.785 26.204 205.253 24.436 204.057 24.228C201.613 23.708 198.805 23.292 196.465 24.28C195.425 24.696 195.789 26.412 196.621 26.204ZM240.53 23.864C241.102 23.656 241.362 23.136 241.05 22.46C240.218 20.848 238.086 18.352 235.954 17.052C236.006 15.336 236.162 11.592 236.318 10.136C236.734 6.288 239.126 3.22 243.442 3.22C247.862 3.22 250.254 6.288 250.618 10.136C251.19 15.7 251.45 22.824 251.346 28.752C251.138 41.388 245.782 47.992 232.21 48.044C223.266 48.044 214.166 44.196 214.166 30.884C214.166 20.328 220.874 16.376 227.374 16.376C232.574 16.376 236.994 18.664 239.49 23.24C239.75 23.76 240.01 23.968 240.53 23.864ZM226.49 34.316C228.986 33.796 231.482 32.912 233.614 31.3C234.446 30.676 233.406 29.116 232.678 29.636C230.442 31.196 228.414 31.976 225.866 32.444C225.086 32.652 225.242 34.472 226.49 34.316ZM261.154 45.704C256.474 42.74 254.186 37.332 254.082 31.976C253.978 25.528 256.786 19.08 262.142 16.584C264.742 15.388 267.654 14.816 270.41 14.816C277.794 14.816 284.138 18.456 283.67 26.672C283.41 31.612 280.914 33.9 275.662 35.148C272.958 35.824 268.798 35.616 267.238 33.12C266.978 32.704 265.782 32.704 265.938 33.692C266.146 35.2 268.746 37.28 272.438 37.28C273.114 37.28 274.102 37.072 274.726 36.916C279.406 35.564 281.434 35.512 282.89 39.828C284.034 43.104 282.266 45.548 277.118 47.16C274.622 47.94 273.01 48.044 270.462 48.044C267.134 48.044 263.858 47.42 261.154 45.704ZM268.07 26.204C270.722 25.476 272.906 25.58 275.402 26.1C276.234 26.204 276.702 24.436 275.506 24.228C273.062 23.708 270.254 23.292 267.914 24.28C266.874 24.696 267.238 26.412 268.07 26.204ZM311.98 23.864C312.552 23.656 312.812 23.136 312.5 22.46C311.668 20.848 309.536 18.352 307.404 17.052C307.456 15.336 307.612 11.592 307.768 10.136C308.184 6.288 310.576 3.22 314.892 3.22C319.312 3.22 321.704 6.288 322.068 10.136C322.64 15.7 322.9 22.824 322.796 28.752C322.588 41.388 317.232 47.992 303.66 48.044C294.716 48.044 285.616 44.196 285.616 30.884C285.616 20.328 292.324 16.376 298.824 16.376C304.024 16.376 308.444 18.664 310.94 23.24C311.2 23.76 311.46 23.968 311.98 23.864ZM297.94 34.316C300.436 33.796 302.932 32.912 305.064 31.3C305.896 30.676 304.856 29.116 304.128 29.636C301.892 31.196 299.864 31.976 297.316 32.444C296.536 32.652 296.692 34.472 297.94 34.316ZM332.603 45.704C327.923 42.74 325.635 37.332 325.531 31.976C325.427 25.528 328.235 19.08 333.591 16.584C336.191 15.388 339.103 14.816 341.859 14.816C349.243 14.816 355.587 18.456 355.119 26.672C354.859 31.612 352.363 33.9 347.111 35.148C344.407 35.824 340.247 35.616 338.687 33.12C338.427 32.704 337.231 32.704 337.387 33.692C337.595 35.2 340.195 37.28 343.887 37.28C344.563 37.28 345.551 37.072 346.175 36.916C350.855 35.564 352.883 35.512 354.339 39.828C355.483 43.104 353.715 45.548 348.567 47.16C346.071 47.94 344.459 48.044 341.911 48.044C338.583 48.044 335.307 47.42 332.603 45.704ZM339.519 26.204C342.171 25.476 344.355 25.58 346.851 26.1C347.683 26.204 348.151 24.436 346.955 24.228C344.511 23.708 341.703 23.292 339.363 24.28C338.323 24.696 338.687 26.412 339.519 26.204Z" fill="#333333"/>
<path d="M394.336 25.664C394.336 32.72 391.088 37.312 382.604 39.748L381.204 36.808C384.648 35.884 386.944 34.624 388.372 33.084L381.708 33.56L381.232 30.676L389.968 30.396C390.164 29.808 390.304 29.22 390.36 28.604H382.492V25.664H394.336ZM398.032 24.208H401.756V39.02H398.032V24.208ZM393.244 39.44C398.564 39.44 401.896 41.288 401.896 44.424C401.896 47.588 398.564 49.408 393.244 49.408C387.952 49.408 384.62 47.588 384.62 44.424C384.62 41.288 387.952 39.44 393.244 39.44ZM393.244 42.324C389.996 42.324 388.344 42.996 388.344 44.424C388.344 45.852 389.996 46.552 393.244 46.552C396.492 46.552 398.172 45.852 398.172 44.424C398.172 42.996 396.492 42.324 393.244 42.324ZM428.958 24.18H432.682V49.464H428.958V24.18ZM413.278 26.42H425.458V29.416H416.974V40.364C421.37 40.336 424.114 40.224 427.138 39.636L427.446 42.688C424.058 43.388 420.894 43.472 415.462 43.472H413.278V26.42ZM453.43 24.18H457.154V49.464H453.43V24.18ZM437.75 26.42H449.93V29.416H441.446V40.364C445.842 40.336 448.586 40.224 451.61 39.636L451.918 42.688C448.53 43.388 445.366 43.472 439.934 43.472H437.75V26.42ZM477.903 24.18H481.627V49.464H477.903V24.18ZM462.223 26.42H474.403V29.416H465.919V40.364C470.315 40.336 473.059 40.224 476.083 39.636L476.391 42.688C473.003 43.388 469.839 43.472 464.407 43.472H462.223V26.42Z" fill="#555555"/>
</svg>
