<svg width="235" height="59" viewBox="0 0 235 59" fill="none" xmlns="http://www.w3.org/2000/svg">
<path d="M17.108 32.496C17.056 35.304 16.796 38.008 16.536 40.712C16.172 44.612 13.988 47.68 9.672 47.68C5.252 47.68 3.12 44.612 2.756 40.712C1.716 30.832 1.716 19.964 2.756 10.136C3.12 6.288 5.252 3.22 9.672 3.22C13.988 3.22 16.172 6.288 16.536 10.136C16.848 13.516 16.952 16.532 17.16 20.068C18.616 15.856 20.8 11.748 22.412 8.784C24.544 4.884 28.132 2.284 33.072 4.364C37.232 6.132 38.688 9.46 37.128 13.464C34.996 18.976 30.888 24.852 27.04 27.92C26.364 28.388 26.988 29.428 27.768 28.856C28.548 28.232 29.276 27.608 29.952 26.88C33.072 30.208 35.464 34.836 36.764 38.476C37.908 41.96 36.296 45.392 32.24 47.056C27.976 48.72 24.128 47.004 21.736 43C20.436 40.764 18.46 36.24 17.108 32.496ZM48.2609 17.156C44.7249 17.156 41.4489 14.556 41.4489 9.928C41.4489 5.612 44.7769 2.7 48.2609 2.7C52.0569 2.7 55.0729 6.34 55.0729 10.084C55.0729 13.932 52.2129 17.156 48.2609 17.156ZM41.2929 43.312C40.3049 37.176 40.3049 30.364 41.2929 24.228C41.6569 21.836 43.8409 19.86 48.2609 19.86C52.5249 19.86 54.6569 21.836 55.0729 24.228C56.1129 30.364 56.1129 37.176 55.0729 43.312C54.6569 45.756 52.5249 47.68 48.2609 47.68C43.8409 47.68 41.6569 45.756 41.2929 43.312ZM73.0819 16.012C71.3659 17.78 70.1699 20.172 69.9619 22.668C69.8059 23.916 70.8979 24.072 71.1579 22.98C72.5099 16.792 75.6819 14.4 80.4659 14.764C84.7819 15.076 86.2379 19.548 86.1859 22.46C86.1859 25.216 85.5619 30.052 80.5179 30.832C78.8539 31.092 76.9299 30.364 75.3179 29.064C74.5379 28.388 74.1219 29.064 74.1219 29.948C74.0179 33.692 73.8099 37.488 73.4459 41.18C73.0299 45.08 70.8979 48.148 66.5819 48.148C62.1619 48.148 59.9779 45.08 59.6659 41.18C59.0939 33.588 59.3539 26.048 59.4579 18.456C59.5099 16.74 60.3939 15.336 61.7459 15.128C62.8379 14.92 64.3459 14.816 65.9579 14.816C68.9739 14.816 72.1459 15.284 73.0819 16.012ZM99.1648 23.864C99.7368 23.968 99.9448 23.76 100.257 23.24C102.753 18.664 107.069 16.376 112.321 16.376C118.873 16.376 125.581 20.328 125.581 30.884C125.581 44.196 116.429 48.044 107.485 48.044C93.9128 48.044 88.5568 41.388 88.4008 28.752C88.2968 22.824 88.5568 15.7 89.1288 10.136C89.4928 6.288 91.8848 3.22 96.3048 3.22C100.621 3.22 103.013 6.288 103.377 10.136C103.533 11.592 103.741 15.336 103.793 17.052C101.609 18.352 99.5288 20.848 98.6968 22.46C98.3328 23.136 98.5928 23.656 99.1648 23.864ZM106.133 31.3C108.213 32.86 110.709 33.796 113.257 34.316C114.401 34.472 114.661 32.652 113.829 32.444C111.333 31.976 109.305 31.196 107.069 29.636C106.341 29.116 105.249 30.624 106.133 31.3ZM148.908 38.84C149.48 37.644 148.18 37.228 147.712 38.112C145.736 41.336 143.344 43 139.548 43C133.36 43 126.652 38.372 127.536 30.26L128.732 19.964C129.096 16.844 131.384 14.816 134.504 14.816H137.936C141.056 14.816 142.616 16.844 141.992 19.86L139.704 30.78C139.392 31.768 140.848 32.392 141.264 31.092L143.812 19.86C144.488 16.844 147.14 14.816 150.26 14.816H153.484C157.228 14.816 159.776 17.312 159.776 21.056L159.828 35.668C159.88 42.168 158.424 47.576 155.46 51.892C152.34 56.364 147.036 58.34 141.628 58.34C140.016 58.34 135.596 57.924 132.892 56.936C129.096 55.584 128.94 51.892 129.98 48.824C130.968 46.068 132.684 43.572 136.064 44.04C137.052 44.196 138.924 44.3 140.172 44.3C144.54 44.3 146.984 42.064 148.908 38.84Z" fill="#333333"/>
<path d="M193.636 26.588C193.636 34.4 191.648 40.868 182.604 45.628L180.56 42.8C184.424 40.756 186.832 38.516 188.26 35.8L181.176 36.416L180.728 33.308L189.38 32.832C189.66 31.796 189.828 30.704 189.94 29.528H182.072V26.588H193.636ZM198.172 24.208H201.924V49.408H198.172V36.836H193.58V33.812H198.172V24.208ZM222.505 24.152H226.229V49.436H222.505V24.152ZM206.517 26.168H210.213V32.244H215.281V26.168H218.949V43.556H206.517V26.168ZM210.213 35.128V40.588H215.281V35.128H210.213Z" fill="#555555"/>
</svg>
