<svg width="507" height="52" viewBox="0 0 507 52" fill="none" xmlns="http://www.w3.org/2000/svg">
<path d="M14.4 26.496C14.256 29.664 14.016 32.304 13.68 35.472C13.344 39.072 11.328 41.904 7.34402 41.904C3.26402 41.904 1.29602 39.072 0.960016 35.472C1.56164e-05 26.352 1.56164e-05 16.32 0.960016 7.24798C1.29602 3.69598 3.26402 0.863982 7.34402 0.863982C9.64802 0.863982 11.28 1.77598 12.336 3.21598C15.12 7.19998 17.856 13.152 20.112 18.144C20.448 18.768 20.928 18.768 21.264 18.144C23.52 13.152 26.208 7.19998 29.04 3.21598C30.048 1.77598 31.728 0.863982 34.032 0.863982C38.112 0.863982 40.032 3.69598 40.416 7.24798C41.328 16.32 41.328 26.352 40.416 35.472C40.032 39.072 38.112 41.904 34.032 41.904C30.048 41.904 28.032 39.072 27.696 35.472C27.36 32.304 27.12 29.664 26.976 26.496C28.032 24.192 28.8 22.464 29.376 20.304C29.664 19.2 28.512 18.96 28.272 19.872C27.168 23.328 25.344 27.168 23.664 30.24C22.32 32.688 19.056 32.688 17.712 30.24C16.032 27.168 14.208 23.328 13.104 19.872C12.864 18.96 11.712 19.2 12 20.304C12.576 22.464 13.344 24.192 14.4 26.496ZM43.8113 27.6C43.8593 18.24 50.0033 11.568 59.4593 11.568C69.0113 11.568 73.5713 19.68 73.5713 27.6C73.4753 35.616 67.8593 42.72 59.3153 42.72C50.3873 42.72 43.8113 36.24 43.8113 27.6ZM57.2513 30.288C56.8673 31.008 58.2593 31.728 58.9313 30.816C60.2273 28.896 60.5633 26.304 60.6113 23.904C60.6593 22.8 59.0273 22.848 58.9793 23.664C58.7873 26.016 58.4033 27.984 57.2513 30.288ZM88.7513 12.672C87.1673 14.304 86.0633 16.512 85.8713 18.816C85.7273 19.968 86.7353 20.112 86.9753 19.104C88.2233 13.392 91.1513 11.184 95.5673 11.52C99.5513 11.808 100.895 15.936 100.847 18.624C100.847 21.168 100.271 25.632 95.6153 26.352C94.0793 26.592 92.3033 25.92 90.8153 24.72C90.0953 24.096 89.7113 24.72 89.7113 25.536C89.6153 28.992 89.4233 32.496 89.0873 35.904C88.7033 39.504 86.7353 42.336 82.7513 42.336C78.6713 42.336 76.6553 39.504 76.3673 35.904C75.8393 28.896 76.0793 21.936 76.1753 14.928C76.2233 13.344 77.0393 12.048 78.2873 11.856C79.2953 11.664 80.6873 11.568 82.1753 11.568C84.9593 11.568 87.8873 12 88.7513 12.672ZM108.7 40.08C104.38 37.344 102.268 32.352 102.172 27.408C102.076 21.456 104.668 15.504 109.612 13.2C112.012 12.096 114.7 11.568 117.244 11.568C124.06 11.568 129.916 14.928 129.484 22.512C129.244 27.072 126.94 29.184 122.092 30.336C119.596 30.96 115.756 30.768 114.316 28.464C114.076 28.08 112.972 28.08 113.116 28.992C113.308 30.384 115.708 32.304 119.116 32.304C119.74 32.304 120.652 32.112 121.228 31.968C125.548 30.72 127.42 30.672 128.764 34.656C129.82 37.68 128.188 39.936 123.436 41.424C121.132 42.144 119.644 42.24 117.292 42.24C114.22 42.24 111.196 41.664 108.7 40.08ZM115.084 22.08C117.532 21.408 119.548 21.504 121.852 21.984C122.62 22.08 123.052 20.448 121.948 20.256C119.692 19.776 117.1 19.392 114.94 20.304C113.98 20.688 114.316 22.272 115.084 22.08ZM157.271 27.888C157.223 30.48 156.983 32.976 156.743 35.472C156.407 39.072 154.391 41.904 150.407 41.904C146.327 41.904 144.359 39.072 144.023 35.472C143.063 26.352 143.063 16.32 144.023 7.24798C144.359 3.69598 146.327 0.863982 150.407 0.863982C154.391 0.863982 156.407 3.69598 156.743 7.24798C157.031 10.368 157.127 13.152 157.319 16.416C158.663 12.528 160.679 8.73598 162.167 5.99998C164.135 2.39998 167.447 -1.81198e-05 172.007 1.91998C175.847 3.55198 177.191 6.62398 175.751 10.32C173.783 15.408 169.991 20.832 166.439 23.664C165.815 24.096 166.391 25.056 167.111 24.528C167.831 23.952 168.503 23.376 169.127 22.704C172.007 25.776 174.215 30.048 175.415 33.408C176.471 36.624 174.983 39.792 171.239 41.328C167.303 42.864 163.751 41.28 161.543 37.584C160.343 35.52 158.519 31.344 157.271 27.888ZM186.027 13.728C182.763 13.728 179.739 11.328 179.739 7.05598C179.739 3.07198 182.811 0.383983 186.027 0.383983C189.531 0.383983 192.315 3.74398 192.315 7.19998C192.315 10.752 189.675 13.728 186.027 13.728ZM179.595 37.872C178.683 32.208 178.683 25.92 179.595 20.256C179.931 18.048 181.947 16.224 186.027 16.224C189.963 16.224 191.931 18.048 192.315 20.256C193.275 25.92 193.275 32.208 192.315 37.872C191.931 40.128 189.963 41.904 186.027 41.904C181.947 41.904 179.931 40.128 179.595 37.872ZM208.939 12.672C207.355 14.304 206.251 16.512 206.059 18.816C205.915 19.968 206.923 20.112 207.163 19.104C208.411 13.392 211.339 11.184 215.755 11.52C219.739 11.808 221.083 15.936 221.035 18.624C221.035 21.168 220.459 25.632 215.803 26.352C214.267 26.592 212.491 25.92 211.003 24.72C210.283 24.096 209.899 24.72 209.899 25.536C209.803 28.992 209.611 32.496 209.275 35.904C208.891 39.504 206.923 42.336 202.939 42.336C198.859 42.336 196.843 39.504 196.555 35.904C196.027 28.896 196.267 21.936 196.363 14.928C196.411 13.344 197.227 12.048 198.475 11.856C199.483 11.664 200.875 11.568 202.363 11.568C205.147 11.568 208.075 12 208.939 12.672ZM233.015 19.92C233.543 20.016 233.735 19.824 234.023 19.344C236.327 15.12 240.311 13.008 245.159 13.008C251.207 13.008 257.399 16.656 257.399 26.4C257.399 38.688 248.951 42.24 240.695 42.24C228.167 42.24 223.223 36.096 223.079 24.432C222.983 18.96 223.223 12.384 223.751 7.24798C224.087 3.69598 226.295 0.863982 230.375 0.863982C234.359 0.863982 236.567 3.69598 236.903 7.24798C237.047 8.59198 237.239 12.048 237.287 13.632C235.271 14.832 233.351 17.136 232.583 18.624C232.247 19.248 232.487 19.728 233.015 19.92ZM239.447 26.784C241.367 28.224 243.671 29.088 246.023 29.568C247.079 29.712 247.319 28.032 246.551 27.84C244.247 27.408 242.375 26.688 240.311 25.248C239.639 24.768 238.631 26.16 239.447 26.784ZM278.932 33.744C279.46 32.64 278.26 32.256 277.828 33.072C276.004 36.048 273.796 37.584 270.292 37.584C264.58 37.584 258.388 33.312 259.204 25.824L260.308 16.32C260.644 13.44 262.756 11.568 265.636 11.568H268.804C271.684 11.568 273.124 13.44 272.548 16.224L270.436 26.304C270.148 27.216 271.492 27.792 271.876 26.592L274.228 16.224C274.852 13.44 277.3 11.568 280.18 11.568H283.156C286.612 11.568 288.964 13.872 288.964 17.328L289.012 30.816C289.06 36.816 287.716 41.808 284.98 45.792C282.1 49.92 277.204 51.744 272.212 51.744C270.724 51.744 266.644 51.36 264.148 50.448C260.644 49.2 260.5 45.792 261.46 42.96C262.372 40.416 263.956 38.112 267.076 38.544C267.988 38.688 269.716 38.784 270.868 38.784C274.9 38.784 277.156 36.72 278.932 33.744ZM317.441 28.752C317.345 31.152 317.201 33.312 316.961 35.424C316.529 39.024 314.609 41.856 310.625 41.856C306.545 41.856 304.625 39.024 304.241 35.424C303.761 31.344 303.521 26.112 303.521 21.312C303.521 16.512 303.617 12.192 304.097 8.15998C304.769 2.01598 312.641 0.431982 319.505 0.383983C330.017 0.335983 334.097 2.30398 334.097 7.67998C334.097 11.712 332.417 13.872 329.393 13.344C328.097 13.152 326.417 13.008 325.217 13.008C321.761 13.008 319.409 13.488 317.345 14.304C316.337 14.736 316.673 16.032 317.777 15.648C322.001 14.112 328.241 13.968 330.833 15.6C333.041 17.04 334.097 18.624 334.097 22.224C334.097 25.776 333.041 27.456 330.833 28.8C328.241 30.432 321.713 30.288 317.441 28.752ZM349.798 12.672C348.214 14.304 347.11 16.512 346.918 18.816C346.774 19.968 347.782 20.112 348.022 19.104C349.27 13.392 352.198 11.184 356.614 11.52C360.598 11.808 361.942 15.936 361.894 18.624C361.894 21.168 361.318 25.632 356.662 26.352C355.126 26.592 353.35 25.92 351.862 24.72C351.142 24.096 350.758 24.72 350.758 25.536C350.662 28.992 350.47 32.496 350.134 35.904C349.75 39.504 347.782 42.336 343.798 42.336C339.718 42.336 337.702 39.504 337.414 35.904C336.886 28.896 337.126 21.936 337.222 14.928C337.27 13.344 338.086 12.048 339.334 11.856C340.342 11.664 341.734 11.568 343.222 11.568C346.006 11.568 348.934 12 349.798 12.672ZM371.043 13.728C367.779 13.728 364.755 11.328 364.755 7.05598C364.755 3.07198 367.827 0.383983 371.043 0.383983C374.547 0.383983 377.331 3.74398 377.331 7.19998C377.331 10.752 374.691 13.728 371.043 13.728ZM364.611 37.872C363.699 32.208 363.699 25.92 364.611 20.256C364.947 18.048 366.963 16.224 371.043 16.224C374.979 16.224 376.947 18.048 377.331 20.256C378.291 25.92 378.291 32.208 377.331 37.872C376.947 40.128 374.979 41.904 371.043 41.904C366.963 41.904 364.947 40.128 364.611 37.872ZM387.09 40.08C382.77 37.344 380.658 32.352 380.562 27.408C380.466 21.456 383.058 15.504 388.002 13.2C390.402 12.096 393.09 11.568 395.634 11.568C402.45 11.568 408.306 14.928 407.874 22.512C407.634 27.072 405.33 29.184 400.482 30.336C397.986 30.96 394.146 30.768 392.706 28.464C392.466 28.08 391.362 28.08 391.506 28.992C391.698 30.384 394.098 32.304 397.506 32.304C398.13 32.304 399.042 32.112 399.618 31.968C403.938 30.72 405.81 30.672 407.154 34.656C408.21 37.68 406.578 39.936 401.826 41.424C399.522 42.144 398.034 42.24 395.682 42.24C392.61 42.24 389.586 41.664 387.09 40.08ZM393.474 22.08C395.922 21.408 397.938 21.504 400.242 21.984C401.01 22.08 401.442 20.448 400.338 20.256C398.082 19.776 395.49 19.392 393.33 20.304C392.37 20.688 392.706 22.272 393.474 22.08ZM424.119 33.024C424.023 34.032 423.975 34.992 423.879 35.952C423.495 39.552 421.527 41.904 417.543 41.904C413.463 41.904 411.351 39.552 410.967 35.952C410.631 32.784 410.487 29.088 410.391 25.92V17.328C410.391 13.872 412.695 11.568 416.151 11.568C418.887 11.568 421.671 12.336 422.679 14.496C420.183 17.52 418.935 21.024 419.319 24.768C419.463 25.92 420.759 25.824 420.711 24.864C420.327 19.968 423.015 14.832 426.135 12.96C427.527 12.144 429.063 11.568 430.647 11.568C433.287 11.568 436.023 12.432 437.799 14.4C440.487 17.328 440.679 20.832 440.631 24.672C440.583 28.272 440.247 32.592 439.479 35.952C438.663 39.552 436.839 41.904 432.663 41.904C428.439 41.904 426.279 39.552 425.847 35.952C425.751 35.136 425.655 34.272 425.607 33.408C425.607 32.208 424.455 32.064 424.119 33.024ZM466.725 19.92C467.253 19.728 467.493 19.248 467.205 18.624C466.437 17.136 464.469 14.832 462.501 13.632C462.549 12.048 462.693 8.59198 462.837 7.24798C463.221 3.69598 465.429 0.863982 469.413 0.863982C473.493 0.863982 475.701 3.69598 476.037 7.24798C476.565 12.384 476.805 18.96 476.709 24.432C476.517 36.096 471.573 42.192 459.045 42.24C450.789 42.24 442.389 38.688 442.389 26.4C442.389 16.656 448.581 13.008 454.581 13.008C459.381 13.008 463.461 15.12 465.765 19.344C466.005 19.824 466.245 20.016 466.725 19.92ZM453.765 29.568C456.069 29.088 458.373 28.272 460.341 26.784C461.109 26.208 460.149 24.768 459.477 25.248C457.413 26.688 455.541 27.408 453.189 27.84C452.469 28.032 452.613 29.712 453.765 29.568ZM494.93 33.36C495.266 34.128 496.418 33.696 495.986 32.88C494.498 29.952 491.618 26.592 486.866 25.776C482.354 24.96 479.522 23.088 479.522 19.008C479.522 14.496 484.994 11.568 492.242 11.568C497.666 11.568 505.682 13.344 505.298 18.768C505.058 22.272 502.226 23.424 499.394 23.424C497.282 23.424 495.602 22.368 494.066 21.168C492.386 19.872 491.33 18.96 489.65 17.376C489.026 16.8 488.21 17.616 488.786 18.096C490.706 20.016 493.874 23.04 499.874 25.248C503.378 26.496 506.642 29.232 506.258 34.128C505.826 39.264 499.922 42.24 492.962 42.24C485.858 42.24 480.194 39.264 479.33 33.936C478.706 30.192 480.146 26.592 485.33 26.592C490.322 26.592 492.914 30.048 494.93 33.36Z" fill="#333333"/>
</svg>
