<svg width="270" height="50" viewBox="0 0 270 50" fill="none" xmlns="http://www.w3.org/2000/svg">
<path d="M17.108 33.068C17.004 35.616 16.796 38.164 16.536 40.66C16.172 44.56 13.988 47.628 9.672 47.628C5.252 47.628 3.12 44.56 2.756 40.66C2.08 34.472 1.976 27.868 2.028 21.42C2.132 6.496 6.76 2.804 20.436 2.7C31.2 2.596 37.128 8.108 37.024 18.872C37.024 26.1 34.684 30.26 28.912 32.392C28.028 32.652 28.392 33.692 29.224 33.484C30.732 33.172 32.396 32.236 33.748 31.352C35.568 32.912 37.44 35.2 38.584 38.424C39.78 41.856 38.74 45.08 34.788 46.848C30.524 48.824 25.376 46.9 22.984 42.948C21.372 40.296 20.384 36.812 20.072 33.172C19.084 33.172 18.096 33.12 17.108 33.068ZM23.504 20.38C21.06 19.496 19.188 18.456 17.264 16.48C16.64 15.908 15.444 17.052 16.12 17.988C17.628 20.016 20.228 21.212 22.672 22.096C23.764 22.46 24.232 20.744 23.504 20.38ZM49.9874 17.156C46.4514 17.156 43.1754 14.556 43.1754 9.928C43.1754 5.612 46.5034 2.7 49.9874 2.7C53.7834 2.7 56.7994 6.34 56.7994 10.084C56.7994 13.932 53.9394 17.156 49.9874 17.156ZM43.0194 43.312C42.0314 37.176 42.0314 30.364 43.0194 24.228C43.3834 21.836 45.5674 19.86 49.9874 19.86C54.2514 19.86 56.3834 21.836 56.7994 24.228C57.8394 30.364 57.8394 37.176 56.7994 43.312C56.3834 45.756 54.2514 47.68 49.9874 47.68C45.5674 47.68 43.3834 45.756 43.0194 43.312ZM71.8445 23.864C72.4165 23.968 72.6245 23.76 72.9365 23.24C75.4325 18.664 79.7485 16.376 85.0005 16.376C91.5525 16.376 98.2605 20.328 98.2605 30.884C98.2605 44.196 89.1085 48.044 80.1645 48.044C66.5925 48.044 61.2365 41.388 61.0805 28.752C60.9765 22.824 61.2365 15.7 61.8085 10.136C62.1725 6.288 64.5645 3.22 68.9845 3.22C73.3005 3.22 75.6925 6.288 76.0565 10.136C76.2125 11.592 76.4205 15.336 76.4725 17.052C74.2885 18.352 72.2085 20.848 71.3765 22.46C71.0125 23.136 71.2725 23.656 71.8445 23.864ZM78.8125 31.3C80.8925 32.86 83.3885 33.796 85.9365 34.316C87.0805 34.472 87.3405 32.652 86.5085 32.444C84.0125 31.976 81.9845 31.196 79.7485 29.636C79.0205 29.116 77.9285 30.624 78.8125 31.3ZM100.112 32.184C100.164 22.044 106.82 14.816 117.064 14.816C127.412 14.816 132.352 23.604 132.352 32.184C132.248 40.868 126.164 48.564 116.908 48.564C107.236 48.564 100.112 41.544 100.112 32.184ZM114.672 35.096C114.256 35.876 115.764 36.656 116.492 35.668C117.896 33.588 118.26 30.78 118.312 28.18C118.364 26.984 116.596 27.036 116.544 27.92C116.336 30.468 115.92 32.6 114.672 35.096ZM148.797 16.012C147.081 17.78 145.885 20.172 145.677 22.668C145.521 23.916 146.613 24.072 146.873 22.98C148.225 16.792 151.397 14.4 156.181 14.764C160.497 15.076 161.953 19.548 161.901 22.46C161.901 25.216 161.277 30.052 156.233 30.832C154.569 31.092 152.645 30.364 151.033 29.064C150.253 28.388 149.837 29.064 149.837 29.948C149.733 33.692 149.525 37.488 149.161 41.18C148.745 45.08 146.613 48.148 142.297 48.148C137.877 48.148 135.693 45.08 135.381 41.18C134.809 33.588 135.069 26.048 135.173 18.456C135.225 16.74 136.109 15.336 137.461 15.128C138.553 14.92 140.061 14.816 141.673 14.816C144.689 14.816 147.861 15.284 148.797 16.012ZM178.936 38.06C178.832 39.152 178.78 40.192 178.676 41.232C178.26 45.132 176.128 47.68 171.812 47.68C167.392 47.68 165.104 45.132 164.688 41.232C164.324 37.8 164.168 33.796 164.064 30.364V21.056C164.064 17.312 166.56 14.816 170.304 14.816C173.268 14.816 176.284 15.648 177.376 17.988C174.672 21.264 173.32 25.06 173.736 29.116C173.892 30.364 175.296 30.26 175.244 29.22C174.828 23.916 177.74 18.352 181.12 16.324C182.628 15.44 184.292 14.816 186.008 14.816C188.868 14.816 191.832 15.752 193.756 17.884C196.668 21.056 196.876 24.852 196.824 29.012C196.772 32.912 196.408 37.592 195.576 41.232C194.692 45.132 192.716 47.68 188.192 47.68C183.616 47.68 181.276 45.132 180.808 41.232C180.704 40.348 180.6 39.412 180.548 38.476C180.548 37.176 179.3 37.02 178.936 38.06Z" fill="#333333"/>
<path d="M233.088 24.152H236.84V49.436H233.088V24.152ZM217.128 26.308H229.056V36.108H220.964V40.532C224.744 40.504 227.908 40.308 231.408 39.72L231.772 42.716C227.74 43.444 224.016 43.584 219.424 43.584H217.184V33.168H225.276V29.276H217.128V26.308ZM243.197 25.104H246.893V27.484H256.497V25.104H260.193V35.38H253.529V37.48H263.077V40.42H240.313V37.48H249.777V35.38H243.197V25.104ZM246.893 30.34V32.468H256.497V30.34H246.893ZM243.057 41.876H246.753V45.992H260.529V48.988H243.057V41.876Z" fill="#555555"/>
</svg>
