<svg width="461" height="47" viewBox="0 0 461 47" fill="none" xmlns="http://www.w3.org/2000/svg">
<path d="M64.1072 12.1175C72.3748 12.1176 77.107 15.0292 79.239 21.0608C81.059 26.1568 81.0065 34.3731 79.5505 40.7171C78.8745 43.7851 77.1063 45.3978 74.1423 45.3978C71.2306 45.3976 69.4626 43.941 68.8386 41.1331C66.4987 44.669 62.9111 45.8654 58.8552 45.8655C52.9274 45.8655 48.247 42.7455 48.2468 37.0257C48.2468 31.8258 52.2506 28.5492 57.5545 27.5091C62.3904 26.5211 65.7711 24.3376 67.4871 21.7376C68.1631 20.6976 66.6553 19.6578 65.9793 20.6458C63.9512 23.6097 59.8946 25.7933 55.4226 25.7933C51.3667 25.7932 49.2351 23.6613 49.2351 20.7493C49.2351 15.4973 56.0472 12.1175 64.1072 12.1175ZM111.801 0.521785C116.22 0.52197 118.612 3.58992 118.976 7.4378C119.548 13.0016 119.808 20.1253 119.704 26.053C119.496 38.689 114.14 45.293 100.568 45.345C91.6241 45.345 82.5242 41.4969 82.5242 28.1849C82.5244 17.6292 89.2323 13.6771 95.7322 13.6771C100.932 13.6771 105.352 15.9653 107.848 20.5413C108.108 21.0612 108.368 21.2693 108.888 21.1653C109.46 20.9573 109.72 20.4369 109.408 19.761C108.576 18.149 106.444 15.6528 104.312 14.3528C104.364 12.6368 104.521 8.89397 104.677 7.4378C105.093 3.5898 107.485 0.521785 111.801 0.521785ZM151.664 0.521785C156.084 0.52197 158.476 3.58992 158.84 7.4378C159.412 13.0016 159.671 20.1253 159.567 26.053C159.359 38.689 154.003 45.293 140.431 45.345C131.487 45.345 122.387 41.4969 122.387 28.1849C122.388 17.6292 129.096 13.6771 135.595 13.6771C140.795 13.6771 145.216 15.9653 147.712 20.5413C147.972 21.0612 148.232 21.2693 148.752 21.1653C149.324 20.9573 149.583 20.4369 149.271 19.761C148.439 18.149 146.307 15.6528 144.176 14.3528C144.228 12.6368 144.384 8.89397 144.54 7.4378C144.956 3.5898 147.348 0.521785 151.664 0.521785ZM200.873 12.1175C208.257 12.1175 214.6 15.7572 214.133 23.973C213.873 28.913 211.377 31.2015 206.125 32.4495C203.421 33.1255 199.261 32.9171 197.701 30.4212C197.441 30.0053 196.245 30.0055 196.401 30.9935C196.609 32.5015 199.209 34.5814 202.901 34.5814C203.577 34.5813 204.565 34.3731 205.189 34.2171C209.869 32.8652 211.897 32.8133 213.353 37.1292C214.497 40.4052 212.729 42.8492 207.581 44.4612C205.085 45.2412 203.473 45.345 200.925 45.345C197.597 45.345 194.321 44.7211 191.617 43.0052C186.937 40.0412 184.649 34.6335 184.545 29.2776C184.441 22.8296 187.249 16.3811 192.605 13.8851C195.205 12.6892 198.117 12.1175 200.873 12.1175ZM246.575 0.00127695C258.327 -0.102722 266.855 6.13736 266.855 21.7894C266.907 37.3892 258.327 45.2929 246.679 45.345C243.559 45.345 240.439 45.1373 237.735 44.8773C233.835 44.4612 229.832 41.2893 229.468 35.8294C228.948 26.7814 229.103 18.6689 229.519 9.5169C229.831 4.0052 233.835 0.885066 237.735 0.46905C240.387 0.209058 243.507 0.00128811 246.575 0.00127695ZM285.677 12.1175C293.061 12.1175 299.405 15.7572 298.937 23.973C298.677 28.913 296.181 31.2015 290.929 32.4495C288.225 33.1255 284.066 32.9171 282.506 30.4212C282.246 30.0053 281.05 30.0055 281.206 30.9935C281.414 32.5015 284.014 34.5814 287.706 34.5814C288.382 34.5813 289.37 34.3731 289.994 34.2171C294.674 32.8652 296.702 32.8133 298.158 37.1292C299.302 40.4052 297.534 42.8492 292.386 44.4612C289.89 45.2412 288.277 45.345 285.729 45.345C282.401 45.345 279.126 44.7211 276.422 43.0052C271.742 40.0412 269.453 34.6335 269.349 29.2776C269.245 22.8296 272.054 16.3811 277.41 13.8851C280.01 12.6892 282.922 12.1175 285.677 12.1175ZM317.263 12.1175C324.647 12.1175 330.991 15.7572 330.523 23.973C330.263 28.913 327.767 31.2015 322.515 32.4495C319.811 33.1255 315.652 32.9171 314.092 30.4212C313.831 30.0053 312.636 30.0055 312.792 30.9935C313 32.5015 315.6 34.5814 319.292 34.5814C319.968 34.5813 320.956 34.3731 321.58 34.2171C326.26 32.8652 328.288 32.8133 329.744 37.1292C330.888 40.4052 329.119 42.8492 323.971 44.4612C321.475 45.2412 319.863 45.345 317.315 45.345C313.987 45.345 310.711 44.7211 308.008 43.0052C303.328 40.0412 301.039 34.6335 300.935 29.2776C300.831 22.8296 303.64 16.3811 308.996 13.8851C311.596 12.6892 314.508 12.1175 317.263 12.1175ZM38.3543 0.521785C42.7742 0.521808 45.2183 3.58981 45.2703 7.4378C45.5302 17.2656 44.0226 28.6532 42.0466 38.013C41.1107 42.1209 38.8743 44.9817 34.9744 44.9817C32.3744 44.9817 30.7107 43.9411 29.6707 42.3812C27.0707 38.5332 25.0944 33.4895 23.2224 28.6536C22.9104 27.9776 22.3379 27.9776 22.0779 28.6536C20.206 33.5414 18.2305 38.5333 15.6306 42.3812C14.5386 43.9412 12.9779 44.9817 10.3259 44.9817C6.37411 44.9816 4.13863 42.1209 3.25465 38.013C1.22671 28.6532 -0.229899 17.2656 0.0300389 7.4378C0.134039 3.5898 2.5783 0.521785 6.8943 0.521785C11.2622 0.521827 12.9783 3.58983 13.8103 7.4378C14.5902 11.1817 15.2142 16.2773 15.7341 20.3851C14.9021 22.0491 14.5386 23.0375 13.9666 25.1175C13.6026 25.9495 14.5384 26.365 14.8504 25.637C16.3583 21.8411 17.5543 18.0968 19.4783 14.5608C20.9343 11.8574 24.3142 11.9093 25.7703 14.5608C26.6023 16.1208 27.6419 17.9414 28.5779 20.1253C28.3699 21.3212 28.2146 22.6731 28.0066 23.973C27.7986 24.909 28.9424 25.221 29.0984 24.181C29.8783 18.6173 30.2941 12.9495 31.49 7.4378C32.322 3.5898 34.0383 0.521785 38.3543 0.521785ZM170.779 0.521785C175.043 0.521955 177.227 3.58991 177.591 7.4378C178.371 15.0298 178.631 25.326 178.111 33.2298C181.751 33.5938 184.09 34.5294 184.091 38.637C184.091 44.2009 176.447 45.0337 171.195 44.9817C166.775 44.9297 164.174 41.913 163.81 38.013C162.822 28.1333 162.822 17.2655 163.81 7.4378C164.174 3.5898 166.359 0.521785 170.779 0.521785ZM66.7586 33.8528C67.7983 33.0209 66.499 31.7736 65.823 32.2933C63.847 33.9573 61.9745 35.0489 59.2185 35.7249C58.3868 35.9331 58.8029 37.5976 59.9988 37.4417C62.4948 37.1297 64.8346 35.4648 66.7586 33.8528ZM101.972 28.6009C102.804 27.9767 101.764 26.4179 101.036 26.9378C98.8001 28.4976 96.7721 29.2774 94.2244 29.7454C93.4444 29.9534 93.6004 31.7735 94.8484 31.6175C97.3443 31.0975 99.8405 30.2128 101.972 28.6009ZM141.836 28.6009C142.667 27.9767 141.627 26.4179 140.899 26.9378C138.663 28.4976 136.635 29.2774 134.088 29.7454C133.308 29.9534 133.464 31.7735 134.712 31.6175C137.208 31.0975 139.704 30.2128 141.836 28.6009ZM250.008 18.097C250.007 16.8493 248.187 16.9018 248.187 17.7337C248.031 20.2815 247.563 22.4136 246.315 24.9095C245.899 25.6894 247.459 26.4695 248.136 25.4817C249.54 23.5057 249.956 20.645 250.008 18.097ZM205.969 21.5296C203.525 21.0096 200.717 20.5934 198.377 21.5814C197.337 21.9975 197.701 23.7132 198.533 23.5052C201.185 22.7772 203.369 22.8817 205.865 23.4017C206.697 23.5054 207.164 21.7376 205.969 21.5296ZM290.773 21.5296C288.329 21.0096 285.521 20.5934 283.181 21.5814C282.142 21.9975 282.506 23.7132 283.338 23.5052C285.99 22.7772 288.174 22.8817 290.67 23.4017C291.502 23.5054 291.969 21.7376 290.773 21.5296ZM322.359 21.5296C319.915 21.0096 317.107 20.5934 314.767 21.5814C313.728 21.9975 314.092 23.7132 314.924 23.5052C317.576 22.7772 319.76 22.8817 322.256 23.4017C323.088 23.5054 323.555 21.7376 322.359 21.5296Z" fill="#333333"/>
<path d="M352.603 22.881C355.851 22.881 358.175 24.841 358.175 27.669C358.175 30.469 355.851 32.457 352.603 32.457C349.383 32.457 347.031 30.469 347.031 27.669C347.031 24.841 349.383 22.881 352.603 22.881ZM352.603 25.625C351.259 25.625 350.307 26.353 350.307 27.669C350.307 28.957 351.259 29.685 352.603 29.685C353.947 29.685 354.899 28.957 354.899 27.669C354.899 26.353 353.947 25.625 352.603 25.625ZM364.923 21.509H368.479V46.709H364.923V21.509ZM359.883 21.901H363.355V45.561H359.883V40.493H355.963V37.665H359.883V21.901ZM345.967 33.745C349.327 33.745 354.703 33.689 358.651 33.129L358.903 35.845C357.475 36.125 355.907 36.321 354.339 36.461V44.749H350.811V36.657C349.187 36.741 347.647 36.741 346.387 36.741L345.967 33.745ZM388.024 21.453H391.776V46.737H388.024V21.453ZM378.168 23.189C382.004 23.189 384.804 26.689 384.804 32.205C384.804 37.777 382.004 41.277 378.168 41.277C374.332 41.277 371.532 37.777 371.532 32.205C371.532 26.689 374.332 23.189 378.168 23.189ZM378.168 26.605C376.348 26.605 375.116 28.537 375.116 32.205C375.116 35.929 376.348 37.889 378.168 37.889C379.988 37.889 381.22 35.929 381.22 32.205C381.22 28.537 379.988 26.605 378.168 26.605ZM395.361 31.197H418.153V34.137H395.361V31.197ZM398.161 21.929H415.241V24.897H401.857V26.997H415.465V29.909H398.161V21.929ZM397.909 35.481H415.353V42.229H401.605V43.657H416.025V46.485H397.965V39.597H411.685V38.281H397.909V35.481ZM443.45 21.481H447.174V46.765H443.45V21.481ZM427.77 23.721H439.95V26.717H431.466V37.665C435.862 37.637 438.606 37.525 441.63 36.937L441.938 39.989C438.55 40.689 435.386 40.773 429.954 40.773H427.77V23.721Z" fill="#555555"/>
</svg>
