<svg width="180" height="50" viewBox="0 0 180 50" fill="none" xmlns="http://www.w3.org/2000/svg">
<path d="M22.984 48.044C6.448 48.044 1.508 37.904 1.508 25.372C1.508 12.892 6.448 2.7 22.984 2.7C27.716 2.7 31.616 3.428 34.528 5.04C38.636 7.12 38.74 11.696 36.816 15.128C34.84 18.716 30.836 21.212 26.728 19.132C25.844 18.664 24.596 18.3 22.984 18.3C18.044 18.3 16.12 21.628 16.12 25.32C16.12 29.116 18.044 32.444 22.984 32.444C24.596 32.444 25.844 32.08 26.728 31.612C30.94 29.48 35.048 32.184 36.92 35.876C38.74 39.36 38.48 43.624 34.528 45.756C31.616 47.316 27.716 48.044 22.984 48.044ZM39.936 32.184C39.988 22.044 46.644 14.816 56.888 14.816C67.236 14.816 72.176 23.604 72.176 32.184C72.072 40.868 65.988 48.564 56.732 48.564C47.06 48.564 39.936 41.544 39.936 32.184ZM54.496 35.096C54.08 35.876 55.588 36.656 56.316 35.668C57.72 33.588 58.084 30.78 58.136 28.18C58.188 26.984 56.42 27.036 56.368 27.92C56.16 30.468 55.744 32.6 54.496 35.096ZM74.061 32.184C74.113 22.044 80.769 14.816 91.013 14.816C101.361 14.816 106.301 23.604 106.301 32.184C106.197 40.868 100.113 48.564 90.857 48.564C81.185 48.564 74.061 41.544 74.061 32.184ZM88.621 35.096C88.205 35.876 89.713 36.656 90.441 35.668C91.845 33.588 92.209 30.78 92.261 28.18C92.313 26.984 90.545 27.036 90.493 27.92C90.285 30.468 89.869 32.6 88.621 35.096Z" fill="#333333"/>
<path d="M128.472 25.552H146.168V27.848C146.168 30.48 146.168 33.392 145.328 37.508H148.632V40.504H139.084V49.38H135.332V40.504H125.84V37.508H141.66C141.94 36.192 142.136 35.016 142.276 33.924L128.052 34.624L127.632 31.488L142.5 31.068C142.556 30.172 142.556 29.332 142.556 28.548H128.472V25.552ZM150.313 38.264H173.133V41.26H163.501V49.408H159.777V41.26H150.313V38.264ZM161.653 25.048C167.057 25.048 170.781 27.26 170.781 30.704C170.781 34.176 167.057 36.388 161.653 36.388C156.249 36.388 152.525 34.176 152.525 30.704C152.525 27.26 156.249 25.048 161.653 25.048ZM161.653 27.988C158.377 27.988 156.361 28.94 156.361 30.704C156.361 32.496 158.377 33.448 161.653 33.448C164.929 33.448 166.973 32.496 166.973 30.704C166.973 28.94 164.929 27.988 161.653 27.988Z" fill="#555555"/>
</svg>
