<svg width="495" height="59" viewBox="0 0 495 59" fill="none" xmlns="http://www.w3.org/2000/svg">
<path d="M10.608 47.576C6.708 47.16 2.704 43.988 2.34 38.528C1.82 29.48 1.976 21.368 2.392 12.216C2.704 6.704 6.708 3.584 10.608 3.168C13.26 2.908 16.38 2.7 19.448 2.7C31.2 2.596 39.728 8.836 39.728 24.488C39.78 40.088 31.2 47.992 19.552 48.044C16.432 48.044 13.312 47.836 10.608 47.576ZM19.188 27.608C18.772 28.388 20.332 29.168 21.008 28.18C22.412 26.204 22.828 23.344 22.88 20.796C22.88 19.548 21.06 19.6 21.06 20.432C20.904 22.98 20.436 25.112 19.188 27.608ZM62.7624 43.832C60.4224 47.368 56.8344 48.564 52.7784 48.564C46.8504 48.564 42.1704 45.444 42.1704 39.724C42.1704 34.524 46.1744 31.248 51.4784 30.208C56.3144 29.22 59.6944 27.036 61.4104 24.436C62.0864 23.396 60.5784 22.356 59.9024 23.344C57.8744 26.308 53.8184 28.492 49.3464 28.492C45.2904 28.492 43.1584 26.36 43.1584 23.448C43.1584 18.196 49.9704 14.816 58.0304 14.816C66.2984 14.816 71.0304 17.728 73.1624 23.76C74.9824 28.856 74.9304 37.072 73.4744 43.416C72.7984 46.484 71.0304 48.096 68.0664 48.096C65.1544 48.096 63.3864 46.64 62.7624 43.832ZM53.9224 40.14C56.4184 39.828 58.7584 38.164 60.6824 36.552C61.7224 35.72 60.4224 34.472 59.7464 34.992C57.7704 36.656 55.8984 37.748 53.1424 38.424C52.3104 38.632 52.7264 40.296 53.9224 40.14ZM91.0077 16.012C89.2917 17.78 88.0957 20.172 87.8877 22.668C87.7317 23.916 88.8237 24.072 89.0837 22.98C90.4357 16.792 93.6077 14.4 98.3917 14.764C102.708 15.076 104.164 19.548 104.112 22.46C104.112 25.216 103.488 30.052 98.4437 30.832C96.7797 31.092 94.8557 30.364 93.2437 29.064C92.4637 28.388 92.0477 29.064 92.0477 29.948C91.9437 33.692 91.7357 37.488 91.3717 41.18C90.9557 45.08 88.8237 48.148 84.5077 48.148C80.0877 48.148 77.9037 45.08 77.5917 41.18C77.0197 33.588 77.2797 26.048 77.3837 18.456C77.4357 16.74 78.3197 15.336 79.6717 15.128C80.7637 14.92 82.2717 14.816 83.8837 14.816C86.8997 14.816 90.0717 15.284 91.0077 16.012ZM121.043 21.836L127.647 16.168C129.831 14.244 133.211 14.504 135.551 17.156C137.735 19.6 138.047 23.032 136.123 25.216C134.927 26.568 133.679 27.92 132.483 29.116C130.975 30.676 129.415 31.82 128.063 32.548C127.179 33.12 128.011 34.368 128.947 33.796L131.911 31.664C133.471 33.432 135.187 35.564 136.643 37.436C138.515 39.828 138.047 43.364 135.551 45.704C133.003 48.148 129.571 48.304 127.439 46.172C125.307 44.04 122.811 41.44 120.679 39.1C120.679 39.568 120.627 41.232 120.575 41.7C120.159 45.288 117.455 47.732 113.607 47.68C109.915 47.68 107.055 45.236 106.847 41.7C106.119 30.884 106.119 19.912 106.847 9.096C107.055 5.612 109.967 3.22 113.659 3.22C117.455 3.22 120.315 5.664 120.575 9.096C120.835 13.36 120.991 17.572 121.043 21.836ZM167.878 32.496C167.826 35.304 167.566 38.008 167.306 40.712C166.942 44.612 164.758 47.68 160.442 47.68C156.022 47.68 153.89 44.612 153.526 40.712C152.486 30.832 152.486 19.964 153.526 10.136C153.89 6.288 156.022 3.22 160.442 3.22C164.758 3.22 166.942 6.288 167.306 10.136C167.618 13.516 167.722 16.532 167.93 20.068C169.386 15.856 171.57 11.748 173.182 8.784C175.314 4.884 178.902 2.284 183.842 4.364C188.002 6.132 189.458 9.46 187.898 13.464C185.766 18.976 181.658 24.852 177.81 27.92C177.134 28.388 177.758 29.428 178.538 28.856C179.318 28.232 180.046 27.608 180.722 26.88C183.842 30.208 186.234 34.836 187.534 38.476C188.678 41.96 187.066 45.392 183.01 47.056C178.746 48.72 174.898 47.004 172.506 43C171.206 40.764 169.23 36.24 167.878 32.496ZM206.154 38.06C206.05 39.152 205.998 40.192 205.894 41.232C205.478 45.132 203.346 47.68 199.03 47.68C194.61 47.68 192.322 45.132 191.906 41.232C191.542 37.8 191.386 33.796 191.282 30.364V21.056C191.282 17.312 193.778 14.816 197.522 14.816C200.486 14.816 203.502 15.648 204.594 17.988C201.89 21.264 200.538 25.06 200.954 29.116C201.11 30.364 202.514 30.26 202.462 29.22C202.046 23.916 204.958 18.352 208.338 16.324C209.846 15.44 211.51 14.816 213.226 14.816C216.086 14.816 219.05 15.752 220.974 17.884C223.886 21.056 224.094 24.852 224.042 29.012C223.99 32.912 223.626 37.592 222.794 41.232C221.91 45.132 219.934 47.68 215.41 47.68C210.834 47.68 208.494 45.132 208.026 41.232C207.922 40.348 207.818 39.412 207.766 38.476C207.766 37.176 206.518 37.02 206.154 38.06ZM234.476 17.156C230.94 17.156 227.664 14.556 227.664 9.928C227.664 5.612 230.992 2.7 234.476 2.7C238.272 2.7 241.288 6.34 241.288 10.084C241.288 13.932 238.428 17.156 234.476 17.156ZM227.508 43.312C226.52 37.176 226.52 30.364 227.508 24.228C227.872 21.836 230.056 19.86 234.476 19.86C238.74 19.86 240.872 21.836 241.288 24.228C242.328 30.364 242.328 37.176 241.288 43.312C240.872 45.756 238.74 47.68 234.476 47.68C230.056 47.68 227.872 45.756 227.508 43.312ZM267.409 14.816L270.113 12.32C272.245 10.344 274.949 10.76 276.873 13.048C278.693 15.284 278.693 17.78 276.769 19.912L276.197 20.588C276.145 21.212 277.341 21.888 277.341 25.944C277.341 30.728 275.625 35.616 271.049 37.904C268.709 36.968 265.953 36.292 262.573 36.24C261.273 36.24 261.169 37.696 262.469 37.696C273.181 38.216 277.965 44.144 276.821 49.552C275.833 54.128 270.425 58.34 260.649 58.34C250.301 58.34 245.725 53.764 244.893 48.668C244.217 44.248 246.297 39.36 250.093 36.5C246.401 34.264 244.841 29.428 245.881 24.852C247.077 19.392 252.121 14.244 261.949 14.244C263.665 14.244 265.225 14.452 267.409 14.816ZM260.337 28.284C259.921 29.064 261.429 29.792 262.105 28.856C263.561 26.88 263.769 24.02 263.873 21.472C263.873 20.224 262.209 20.276 262.157 21.16C262.001 23.656 261.533 25.84 260.337 28.284ZM259.921 50.852C259.557 51.684 261.013 52.36 261.637 51.424C263.041 49.448 263.353 46.588 263.457 44.092C263.457 42.896 261.741 42.896 261.689 43.78C261.533 46.276 261.169 48.408 259.921 50.852ZM295.939 32.496C295.783 35.252 295.627 38.008 295.367 40.712C294.951 44.612 292.819 47.68 288.503 47.68C284.083 47.68 282.003 44.612 281.587 40.712C281.223 37.28 281.067 33.9 280.963 30.468V28.648C280.911 22.72 281.275 15.128 281.639 9.564C282.003 4.26 284.187 3.168 288.295 3.168C292.299 3.168 294.431 4.26 294.951 9.564C295.107 11.072 295.263 14.504 295.315 16.272C293.339 17.78 292.195 19.34 291.207 21.628C290.687 22.928 291.883 23.5 292.403 22.564C292.923 21.472 293.599 20.432 294.327 19.392C296.563 16.324 299.631 14.816 302.959 14.816C309.667 14.816 312.995 20.484 313.047 27.296C313.099 32.08 312.787 35.876 312.267 40.712C311.903 44.612 309.719 47.68 305.403 47.68C300.983 47.68 298.903 44.612 298.487 40.712C298.175 38.008 298.019 35.356 297.915 32.652C297.811 32.028 297.343 31.768 296.927 31.768C296.511 31.768 296.095 32.028 295.939 32.496ZM319.907 30.26C318.711 30.26 317.671 29.896 316.943 29.48C315.227 28.492 314.447 26.568 314.447 23.812C314.447 19.704 316.579 18.612 320.063 17.988C320.115 17.312 320.115 16.636 320.167 15.96C320.583 10.656 322.715 9.564 326.823 9.564C330.827 9.564 332.959 10.656 333.479 15.96C333.479 16.012 333.479 16.064 333.479 16.116C335.663 16.012 337.847 16.168 339.095 16.896C340.811 17.884 341.591 19.86 341.591 22.616C341.591 26.62 339.511 28.128 335.819 28.544L334.415 28.7C334.415 29.948 334.363 31.092 334.207 32.028C331.815 32.652 329.839 34.628 329.267 36.032C328.955 36.916 330.047 37.228 330.359 36.604C331.607 34.212 333.999 32.756 336.391 32.964C339.459 33.172 342.371 35.512 342.007 40.868C341.695 45.496 336.703 48.044 331.087 48.044C321.051 48.044 320.219 41.284 319.907 31.04C319.907 30.78 319.907 30.52 319.907 30.26Z" fill="#333333"/>
<path d="M381.884 24.152H385.636V33.42H389.22V36.5H385.636V49.436H381.884V24.152ZM366.82 26.504H378.58V29.5H370.544V40.308C374.072 40.252 377.012 40.084 380.204 39.524L380.568 42.604C376.76 43.304 373.288 43.388 368.948 43.388H366.82V26.504ZM392.861 26.336H410.865V29.248C410.865 32.916 410.865 36.416 409.661 41.932L405.993 41.596C406.469 39.552 406.749 37.704 406.917 36.024L392.581 36.752L392.133 33.756L407.113 33.28C407.169 31.908 407.169 30.592 407.169 29.332H392.861V26.336ZM390.313 43.388H413.105V46.468H390.313V43.388ZM437.282 24.152H441.034V33.672H444.478V36.724H441.034V49.352H437.282V24.152ZM421.994 26.56H425.718V40.14C428.854 40.084 432.242 39.776 435.714 39.104L436.106 42.128C431.934 42.996 427.874 43.22 424.178 43.22H421.994V26.56ZM462.875 24.152H466.627V49.436H462.875V24.152ZM453.019 25.888C456.855 25.888 459.655 29.388 459.655 34.904C459.655 40.476 456.855 43.976 453.019 43.976C449.183 43.976 446.383 40.476 446.383 34.904C446.383 29.388 449.183 25.888 453.019 25.888ZM453.019 29.304C451.199 29.304 449.967 31.236 449.967 34.904C449.967 38.628 451.199 40.588 453.019 40.588C454.839 40.588 456.071 38.628 456.071 34.904C456.071 31.236 454.839 29.304 453.019 29.304ZM472.844 25.972H490.4V28.94H476.624V31.516H489.812V34.4H476.624V37.088H490.596V40.028H472.844V25.972ZM470.184 43.5H493.004V46.524H470.184V43.5Z" fill="#555555"/>
</svg>
