<svg width="203" height="57" viewBox="0 0 203 57" fill="none" xmlns="http://www.w3.org/2000/svg">
<mask id="path-1-outside-1_1387_257" maskUnits="userSpaceOnUse" x="-0.270264" y="-0.700195" width="203" height="58" fill="black">
<rect fill="white" x="-0.270264" y="-0.700195" width="203" height="58"/>
<path d="M17.7801 49.8198H5.00005V7.1598L18.98 7.7598L27.8601 30.7398V5.8998H39.2001L40.4001 49.8198H27.6201L16.46 26.4198L17.7801 49.8198ZM48.8282 6.6798H79.1282V17.2998H60.2282V23.7198H77.8082V32.9598H60.2282V38.1198H81.5882V49.8198H48.8282V6.6798ZM87.561 7.0998L100.941 5.7798L105.861 35.3598L114.141 18.8598L120.201 18.9798L126.021 34.0998L133.821 6.3198L147.561 6.2598L132.441 49.6398L121.521 49.7598L116.181 36.6798L112.101 50.1198H98.481L87.561 7.0998ZM193.015 17.1798C184.535 15.3398 178.755 14.4198 175.675 14.4198C174.475 14.4198 173.595 14.5598 173.035 14.8398C172.515 15.0798 172.095 15.4598 171.775 15.9798C171.615 16.1798 171.535 16.4598 171.535 16.8198C171.535 17.9798 172.675 19.3198 174.955 20.8398C177.235 22.3198 181.035 23.8598 186.355 25.4598C189.835 26.4598 192.555 28.0798 194.515 30.3198C196.475 32.5198 197.455 34.9398 197.455 37.5798C197.455 39.9798 196.575 42.2598 194.815 44.4198C193.095 46.5398 190.535 48.2598 187.135 49.5798C183.775 50.8198 179.935 51.4398 175.615 51.4398C171.815 51.4398 167.955 50.9998 164.035 50.1198C160.115 49.1998 156.615 48.0798 153.535 46.7598L159.475 35.9598C166.275 39.4398 172.155 41.1798 177.115 41.1798C180.075 41.1798 182.335 40.5598 183.895 39.3198C184.375 38.8798 184.615 38.4598 184.615 38.0598C184.615 36.8998 183.255 35.7598 180.535 34.6398C177.815 33.5198 174.495 32.4198 170.575 31.3398C168.815 30.8198 166.795 29.7998 164.515 28.2798C162.235 26.7598 160.255 24.9798 158.575 22.9398C156.935 20.8998 156.115 18.8198 156.115 16.6998C156.115 14.2598 157.355 12.0198 159.835 9.9798C163.875 6.6598 170.175 4.9998 178.735 4.9998C181.615 4.9998 184.515 5.1798 187.435 5.5398C190.355 5.8598 192.955 6.2798 195.235 6.7998L193.015 17.1798Z"/>
</mask>
<path d="M17.7801 49.8198H5.00005V7.1598L18.98 7.7598L27.8601 30.7398V5.8998H39.2001L40.4001 49.8198H27.6201L16.46 26.4198L17.7801 49.8198ZM48.8282 6.6798H79.1282V17.2998H60.2282V23.7198H77.8082V32.9598H60.2282V38.1198H81.5882V49.8198H48.8282V6.6798ZM87.561 7.0998L100.941 5.7798L105.861 35.3598L114.141 18.8598L120.201 18.9798L126.021 34.0998L133.821 6.3198L147.561 6.2598L132.441 49.6398L121.521 49.7598L116.181 36.6798L112.101 50.1198H98.481L87.561 7.0998ZM193.015 17.1798C184.535 15.3398 178.755 14.4198 175.675 14.4198C174.475 14.4198 173.595 14.5598 173.035 14.8398C172.515 15.0798 172.095 15.4598 171.775 15.9798C171.615 16.1798 171.535 16.4598 171.535 16.8198C171.535 17.9798 172.675 19.3198 174.955 20.8398C177.235 22.3198 181.035 23.8598 186.355 25.4598C189.835 26.4598 192.555 28.0798 194.515 30.3198C196.475 32.5198 197.455 34.9398 197.455 37.5798C197.455 39.9798 196.575 42.2598 194.815 44.4198C193.095 46.5398 190.535 48.2598 187.135 49.5798C183.775 50.8198 179.935 51.4398 175.615 51.4398C171.815 51.4398 167.955 50.9998 164.035 50.1198C160.115 49.1998 156.615 48.0798 153.535 46.7598L159.475 35.9598C166.275 39.4398 172.155 41.1798 177.115 41.1798C180.075 41.1798 182.335 40.5598 183.895 39.3198C184.375 38.8798 184.615 38.4598 184.615 38.0598C184.615 36.8998 183.255 35.7598 180.535 34.6398C177.815 33.5198 174.495 32.4198 170.575 31.3398C168.815 30.8198 166.795 29.7998 164.515 28.2798C162.235 26.7598 160.255 24.9798 158.575 22.9398C156.935 20.8998 156.115 18.8198 156.115 16.6998C156.115 14.2598 157.355 12.0198 159.835 9.9798C163.875 6.6598 170.175 4.9998 178.735 4.9998C181.615 4.9998 184.515 5.1798 187.435 5.5398C190.355 5.8598 192.955 6.2798 195.235 6.7998L193.015 17.1798Z" fill="white"/>
<path d="M17.7801 49.8198V54.8198H23.0701L22.7721 49.5382L17.7801 49.8198ZM5.00005 49.8198H4.88758e-05V54.8198H5.00005V49.8198ZM5.00005 7.1598L5.21444 2.1644L4.88162e-05 1.94061L4.88758e-05 7.1598H5.00005ZM18.98 7.7598L23.6439 5.95757L22.4643 2.90474L19.1944 2.7644L18.98 7.7598ZM27.8601 30.7398L23.1962 32.542L32.8601 30.7398H27.8601ZM27.8601 5.8998V0.899803H22.8601V5.8998H27.8601ZM39.2001 5.8998L44.1982 5.76324L44.0653 0.899803H39.2001V5.8998ZM40.4001 49.8198V54.8198H45.5385L45.3982 49.6832L40.4001 49.8198ZM27.6201 49.8198L23.107 51.9722L24.4651 54.8198H27.6201V49.8198ZM16.46 26.4198L20.9731 24.2674L11.468 26.7014L16.46 26.4198ZM17.7801 49.8198V44.8198H5.00005V49.8198V54.8198H17.7801V49.8198ZM5.00005 49.8198H10V7.1598H5.00005H4.88758e-05V49.8198H5.00005ZM5.00005 7.1598L4.78565 12.1552L18.7657 12.7552L18.98 7.7598L19.1944 2.7644L5.21444 2.1644L5.00005 7.1598ZM18.98 7.7598L14.3162 9.56204L23.1962 32.542L27.8601 30.7398L32.5239 28.9376L23.6439 5.95757L18.98 7.7598ZM27.8601 30.7398H32.8601V5.8998H27.8601H22.8601V30.7398H27.8601ZM27.8601 5.8998V10.8998H39.2001V5.8998V0.899803H27.8601V5.8998ZM39.2001 5.8998L34.2019 6.03637L35.4019 49.9564L40.4001 49.8198L45.3982 49.6832L44.1982 5.76324L39.2001 5.8998ZM40.4001 49.8198V44.8198H27.6201V49.8198V54.8198H40.4001V49.8198ZM27.6201 49.8198L32.1331 47.6674L20.9731 24.2674L16.46 26.4198L11.947 28.5722L23.107 51.9722L27.6201 49.8198ZM16.46 26.4198L11.468 26.7014L12.788 50.1014L17.7801 49.8198L22.7721 49.5382L21.4521 26.1382L16.46 26.4198ZM48.8282 6.6798V1.6798H43.8282V6.6798H48.8282ZM79.1282 6.6798H84.1282V1.6798H79.1282V6.6798ZM79.1282 17.2998V22.2998H84.1282V17.2998H79.1282ZM60.2282 17.2998V12.2998H55.2282V17.2998H60.2282ZM60.2282 23.7198H55.2282V28.7198H60.2282V23.7198ZM77.8082 23.7198H82.8082V18.7198H77.8082V23.7198ZM77.8082 32.9598V37.9598H82.8082V32.9598H77.8082ZM60.2282 32.9598V27.9598H55.2282V32.9598H60.2282ZM60.2282 38.1198H55.2282V43.1198H60.2282V38.1198ZM81.5882 38.1198H86.5882V33.1198H81.5882V38.1198ZM81.5882 49.8198V54.8198H86.5882V49.8198H81.5882ZM48.8282 49.8198H43.8282V54.8198H48.8282V49.8198ZM48.8282 6.6798V11.6798H79.1282V6.6798V1.6798H48.8282V6.6798ZM79.1282 6.6798H74.1282V17.2998H79.1282H84.1282V6.6798H79.1282ZM79.1282 17.2998V12.2998H60.2282V17.2998V22.2998H79.1282V17.2998ZM60.2282 17.2998H55.2282V23.7198H60.2282H65.2282V17.2998H60.2282ZM60.2282 23.7198V28.7198H77.8082V23.7198V18.7198H60.2282V23.7198ZM77.8082 23.7198H72.8082V32.9598H77.8082H82.8082V23.7198H77.8082ZM77.8082 32.9598V27.9598H60.2282V32.9598V37.9598H77.8082V32.9598ZM60.2282 32.9598H55.2282V38.1198H60.2282H65.2282V32.9598H60.2282ZM60.2282 38.1198V43.1198H81.5882V38.1198V33.1198H60.2282V38.1198ZM81.5882 38.1198H76.5882V49.8198H81.5882H86.5882V38.1198H81.5882ZM81.5882 49.8198V44.8198H48.8282V49.8198V54.8198H81.5882V49.8198ZM48.8282 49.8198H53.8282V6.6798H48.8282H43.8282V49.8198H48.8282ZM87.561 7.0998L87.0701 2.12396L81.2843 2.69476L82.7147 8.32997L87.561 7.0998ZM100.941 5.7798L105.873 4.95943L105.106 0.344666L100.45 0.803959L100.941 5.7798ZM105.861 35.3598L100.929 36.1802L103.447 51.3188L110.33 37.6024L105.861 35.3598ZM114.141 18.8598L114.24 13.8608L111.087 13.7983L109.672 16.6172L114.141 18.8598ZM120.201 18.9798L124.867 17.1837L123.66 14.0473L120.3 13.9808L120.201 18.9798ZM126.021 34.0998L121.355 35.8959L126.764 49.9493L130.835 35.4514L126.021 34.0998ZM133.821 6.3198L133.799 1.31985L130.027 1.33632L129.007 4.96818L133.821 6.3198ZM147.561 6.2598L152.282 7.90545L154.609 1.22898L147.539 1.25985L147.561 6.2598ZM132.441 49.6398L132.496 54.6395L136.007 54.6009L137.162 51.2854L132.441 49.6398ZM121.521 49.7598L116.892 51.6497L118.177 54.7969L121.576 54.7595L121.521 49.7598ZM116.181 36.6798L120.81 34.7899L115.487 21.7521L111.397 35.2274L116.181 36.6798ZM112.101 50.1198V55.1198H115.808L116.885 51.5722L112.101 50.1198ZM98.481 50.1198L93.6347 51.35L94.5916 55.1198H98.481V50.1198ZM87.561 7.0998L88.0519 12.0756L101.432 10.7556L100.941 5.7798L100.45 0.803959L87.0701 2.12396L87.561 7.0998ZM100.941 5.7798L96.0088 6.60017L100.929 36.1802L105.861 35.3598L110.793 34.5394L105.873 4.95943L100.941 5.7798ZM105.861 35.3598L110.33 37.6024L118.61 21.1024L114.141 18.8598L109.672 16.6172L101.392 33.1172L105.861 35.3598ZM114.141 18.8598L114.042 23.8588L120.102 23.9788L120.201 18.9798L120.3 13.9808L114.24 13.8608L114.141 18.8598ZM120.201 18.9798L115.535 20.7759L121.355 35.8959L126.021 34.0998L130.687 32.3037L124.867 17.1837L120.201 18.9798ZM126.021 34.0998L130.835 35.4514L138.635 7.67142L133.821 6.3198L129.007 4.96818L121.207 32.7482L126.021 34.0998ZM133.821 6.3198L133.843 11.3198L147.583 11.2598L147.561 6.2598L147.539 1.25985L133.799 1.31985L133.821 6.3198ZM147.561 6.2598L142.84 4.61416L127.72 47.9942L132.441 49.6398L137.162 51.2854L152.282 7.90545L147.561 6.2598ZM132.441 49.6398L132.386 44.6401L121.466 44.7601L121.521 49.7598L121.576 54.7595L132.496 54.6395L132.441 49.6398ZM121.521 49.7598L126.15 47.8699L120.81 34.7899L116.181 36.6798L111.552 38.5697L116.892 51.6497L121.521 49.7598ZM116.181 36.6798L111.397 35.2274L107.317 48.6674L112.101 50.1198L116.885 51.5722L120.965 38.1322L116.181 36.6798ZM112.101 50.1198V45.1198H98.481V50.1198V55.1198H112.101V50.1198ZM98.481 50.1198L103.327 48.8896L92.4073 5.86964L87.561 7.0998L82.7147 8.32997L93.6347 51.35L98.481 50.1198ZM193.015 17.1798L191.955 22.0661L196.856 23.1295L197.905 18.2255L193.015 17.1798ZM173.035 14.8398L175.13 19.3796L175.201 19.3469L175.271 19.3119L173.035 14.8398ZM171.775 15.9798L175.68 19.1033L175.872 18.8627L176.033 18.6003L171.775 15.9798ZM174.955 20.8398L172.182 25.0001L172.207 25.017L172.233 25.0337L174.955 20.8398ZM186.355 25.4598L184.915 30.2479L184.945 30.2568L184.974 30.2653L186.355 25.4598ZM194.515 30.3198L190.752 33.6123L190.767 33.6291L190.782 33.6458L194.515 30.3198ZM194.815 44.4198L190.939 41.2614L190.932 41.2696L194.815 44.4198ZM187.135 49.5798L188.866 54.2706L188.906 54.256L188.945 54.2409L187.135 49.5798ZM164.035 50.1198L162.893 54.9875L162.916 54.9931L162.94 54.9984L164.035 50.1198ZM153.535 46.7598L149.154 44.3502L146.496 49.1829L151.566 51.3555L153.535 46.7598ZM159.475 35.9598L161.753 31.5088L157.433 29.2979L155.094 33.5502L159.475 35.9598ZM183.895 39.3198L187.006 43.2339L187.144 43.1245L187.274 43.0056L183.895 39.3198ZM180.535 34.6398L182.439 30.0164V30.0164L180.535 34.6398ZM170.575 31.3398L169.158 36.1349L169.203 36.148L169.247 36.1602L170.575 31.3398ZM164.515 28.2798L161.742 32.4401V32.4401L164.515 28.2798ZM158.575 22.9398L154.678 26.0726L154.697 26.0956L154.716 26.1183L158.575 22.9398ZM159.835 9.9798L156.661 6.11684L156.659 6.11835L159.835 9.9798ZM187.435 5.5398L186.823 10.5022L186.857 10.5064L186.891 10.51L187.435 5.5398ZM195.235 6.7998L200.125 7.84552L201.156 3.02184L196.347 1.92498L195.235 6.7998ZM193.015 17.1798L194.075 12.2935C185.661 10.4677 179.372 9.4198 175.675 9.4198V14.4198V19.4198C178.138 19.4198 183.41 20.2119 191.955 22.0661L193.015 17.1798ZM175.675 14.4198V9.4198C174.285 9.4198 172.436 9.54944 170.799 10.3677L173.035 14.8398L175.271 19.3119C175.097 19.3993 174.969 19.4405 174.915 19.4561C174.86 19.4721 174.851 19.4706 174.901 19.4627C175.01 19.4454 175.254 19.4198 175.675 19.4198V14.4198ZM173.035 14.8398L170.94 10.3C169.465 10.9805 168.317 12.0587 167.517 13.3593L171.775 15.9798L176.033 18.6003C175.965 18.7123 175.852 18.861 175.685 19.0125C175.515 19.1658 175.325 19.2899 175.13 19.3796L173.035 14.8398ZM171.775 15.9798L167.871 12.8563C166.763 14.2411 166.535 15.7767 166.535 16.8198H171.535H176.535C176.535 17.1429 176.467 18.1185 175.68 19.1033L171.775 15.9798ZM171.535 16.8198H166.535C166.535 19.067 167.625 20.8096 168.582 21.9347C169.571 23.0972 170.845 24.1089 172.182 25.0001L174.955 20.8398L177.729 16.6796C177.277 16.3781 176.928 16.1168 176.666 15.898C176.401 15.6763 176.26 15.5268 176.199 15.4549C176.134 15.3789 176.204 15.4421 176.298 15.6491C176.399 15.8692 176.535 16.2742 176.535 16.8198H171.535ZM174.955 20.8398L172.233 25.0337C175.139 26.9201 179.511 28.6227 184.915 30.2479L186.355 25.4598L187.795 20.6717C182.559 19.0969 179.332 17.7195 177.678 16.6459L174.955 20.8398ZM186.355 25.4598L184.974 30.2653C187.733 31.058 189.55 32.2378 190.752 33.6123L194.515 30.3198L198.278 27.0273C195.561 23.9218 191.938 21.8616 187.736 20.6543L186.355 25.4598ZM194.515 30.3198L190.782 33.6458C192.028 35.0444 192.455 36.3112 192.455 37.5798H197.455H202.455C202.455 33.5684 200.923 29.9953 198.249 26.9938L194.515 30.3198ZM197.455 37.5798H192.455C192.455 38.6486 192.095 39.8428 190.939 41.2614L194.815 44.4198L198.691 47.5782C201.055 44.6768 202.455 41.311 202.455 37.5798H197.455ZM194.815 44.4198L190.932 41.2696C189.914 42.5246 188.178 43.8114 185.326 44.9188L187.135 49.5798L188.945 54.2409C192.893 52.7082 196.276 50.555 198.698 47.57L194.815 44.4198ZM187.135 49.5798L185.404 44.889C182.699 45.8872 179.463 46.4398 175.615 46.4398V51.4398V56.4398C180.408 56.4398 184.851 55.7524 188.866 54.2706L187.135 49.5798ZM175.615 51.4398V46.4398C172.204 46.4398 168.711 46.0451 165.13 45.2412L164.035 50.1198L162.94 54.9984C167.199 55.9545 171.426 56.4398 175.615 56.4398V51.4398ZM164.035 50.1198L165.178 45.2521C161.486 44.3857 158.271 43.3494 155.505 42.1641L153.535 46.7598L151.566 51.3555C154.96 52.8102 158.744 54.0139 162.893 54.9875L164.035 50.1198ZM153.535 46.7598L157.916 49.1694L163.856 38.3694L159.475 35.9598L155.094 33.5502L149.154 44.3502L153.535 46.7598ZM159.475 35.9598L157.197 40.4108C164.357 44.0748 171.049 46.1798 177.115 46.1798V41.1798V36.1798C173.261 36.1798 168.194 34.8048 161.753 31.5088L159.475 35.9598ZM177.115 41.1798V46.1798C180.678 46.1798 184.223 45.4467 187.006 43.2339L183.895 39.3198L180.784 35.4057C180.448 35.6729 179.472 36.1798 177.115 36.1798V41.1798ZM183.895 39.3198L187.274 43.0056C188.159 42.1942 189.615 40.5319 189.615 38.0598H184.615H179.615C179.615 37.2244 179.872 36.5818 180.094 36.1941C180.302 35.8301 180.498 35.6508 180.517 35.634L183.895 39.3198ZM184.615 38.0598H189.615C189.615 35.3602 188.015 33.5153 186.807 32.503C185.561 31.4583 184.005 30.6612 182.439 30.0164L180.535 34.6398L178.631 39.2632C179.177 39.488 179.592 39.6883 179.897 39.8574C180.209 40.0301 180.351 40.1395 180.383 40.1667C180.423 40.1999 180.252 40.0693 180.056 39.7385C179.841 39.3741 179.615 38.7937 179.615 38.0598H184.615ZM180.535 34.6398L182.439 30.0164C179.476 28.7962 175.951 27.6346 171.903 26.5194L170.575 31.3398L169.247 36.1602C173.039 37.205 176.155 38.2434 178.631 39.2632L180.535 34.6398ZM170.575 31.3398L171.992 26.5447C170.888 26.2186 169.336 25.4841 167.289 24.1196L164.515 28.2798L161.742 32.4401C164.255 34.1155 166.742 35.421 169.158 36.1349L170.575 31.3398ZM164.515 28.2798L167.289 24.1196C165.402 22.8616 163.792 21.4087 162.435 19.7613L158.575 22.9398L154.716 26.1183C156.719 28.5509 159.069 30.658 161.742 32.4401L164.515 28.2798ZM158.575 22.9398L162.472 19.807C161.374 18.4408 161.115 17.4329 161.115 16.6998H156.115H151.115C151.115 20.2067 152.497 23.3588 154.678 26.0726L158.575 22.9398ZM156.115 16.6998H161.115C161.115 16.1967 161.295 15.2533 163.012 13.8413L159.835 9.9798L156.659 6.11835C153.415 8.78634 151.115 12.3229 151.115 16.6998H156.115ZM159.835 9.9798L163.01 13.8428C165.74 11.5987 170.649 9.9998 178.735 9.9998V4.9998V-0.000198364C169.701 -0.000198364 162.01 1.72086 156.661 6.11684L159.835 9.9798ZM178.735 4.9998V9.9998C181.406 9.9998 184.102 10.1667 186.823 10.5022L187.435 5.5398L188.047 0.577374C184.928 0.192886 181.824 -0.000198364 178.735 -0.000198364V4.9998ZM187.435 5.5398L186.891 10.51C189.666 10.8142 192.071 11.2064 194.123 11.6746L195.235 6.7998L196.347 1.92498C193.84 1.35316 191.045 0.905434 187.98 0.569557L187.435 5.5398ZM195.235 6.7998L190.346 5.75409L188.126 16.1341L193.015 17.1798L197.905 18.2255L200.125 7.84552L195.235 6.7998Z" fill="#3C1ED2" mask="url(#path-1-outside-1_1387_257)"/>
</svg>
