<svg width="80" height="80" viewBox="0 0 80 80" fill="none" xmlns="http://www.w3.org/2000/svg">
<path d="M46.25 59.9883H33.75C31.6719 59.9883 30 58.3164 30 56.2383V29.9883H16.2969C13.5156 29.9883 12.125 26.6289 14.0938 24.6602L37.8594 0.878906C39.0312 -0.292969 40.9531 -0.292969 42.125 0.878906L65.9062 24.6602C67.875 26.6289 66.4844 29.9883 63.7031 29.9883H50V56.2383C50 58.3164 48.3281 59.9883 46.25 59.9883ZM80 58.7383V76.2383C80 78.3164 78.3281 79.9883 76.25 79.9883H3.75C1.67188 79.9883 0 78.3164 0 76.2383V58.7383C0 56.6602 1.67188 54.9883 3.75 54.9883H25V56.2383C25 61.0664 28.9219 64.9883 33.75 64.9883H46.25C51.0781 64.9883 55 61.0664 55 56.2383V54.9883H76.25C78.3281 54.9883 80 56.6602 80 58.7383ZM60.625 72.4883C60.625 70.7695 59.2188 69.3633 57.5 69.3633C55.7812 69.3633 54.375 70.7695 54.375 72.4883C54.375 74.207 55.7812 75.6133 57.5 75.6133C59.2188 75.6133 60.625 74.207 60.625 72.4883ZM70.625 72.4883C70.625 70.7695 69.2188 69.3633 67.5 69.3633C65.7812 69.3633 64.375 70.7695 64.375 72.4883C64.375 74.207 65.7812 75.6133 67.5 75.6133C69.2188 75.6133 70.625 74.207 70.625 72.4883Z" fill="#E60012"/>
</svg>
