<svg width="102" height="102" viewBox="0 0 102 102" fill="none" xmlns="http://www.w3.org/2000/svg">
<path d="M0 33.4696V30.2821C0 27.6415 2.14061 25.5009 4.78125 25.5009H76.5V15.9384C76.5 11.6817 81.6596 9.55499 84.6622 12.5574L100.6 28.4949C102.467 30.3622 102.467 33.3895 100.6 35.2566L84.6622 51.1941C81.6709 54.1848 76.5 52.0878 76.5 47.8134V38.2509H4.78125C2.14061 38.2509 0 36.1103 0 33.4696ZM97.2188 63.7509H25.5V54.1884C25.5 49.9422 20.3478 47.7974 17.3378 50.8074L1.40031 66.7449C-0.46677 68.6122 -0.46677 71.6395 1.40031 73.5066L17.3378 89.4441C20.3317 92.4378 25.5 90.334 25.5 86.0634V76.5009H97.2188C99.8594 76.5009 102 74.3603 102 71.7196V68.5321C102 65.8915 99.8594 63.7509 97.2188 63.7509Z" fill="#E60012"/>
</svg>
