<svg width="80" height="80" viewBox="0 0 80 80" fill="none" xmlns="http://www.w3.org/2000/svg">
<path d="M48 3.67988V36.9188C48 40.9986 44.68 44.3185 40.6 44.3185H4C1.8 44.3185 0 42.5186 0 40.3187V14.7595C0 6.59978 6.6 0 14.76 0H44.28C46.36 0 48 1.63995 48 3.67988Z" fill="#E60012"/>
<path d="M78 54.0005C79.12 54.0005 80 54.8805 80 56.0005V60.0003C80 66.6401 74.64 71.9999 68 71.9999C68 65.4002 62.6 60.0003 56 60.0003C49.4 60.0003 44 65.4002 44 71.9999H36C36 65.4002 30.6 60.0003 24 60.0003C17.4 60.0003 12 65.4002 12 71.9999C5.36 71.9999 0 66.6401 0 60.0003V52.0006C0 49.8007 1.8 48.0007 4 48.0007H42C47.52 48.0007 52 43.5209 52 38.0011V16.0018C52 13.8019 53.8 12.002 56 12.002H59.36C62.24 12.002 64.88 13.5619 66.32 16.0418L68.88 20.5217C69.24 21.1616 68.76 22.0016 68 22.0016C62.48 22.0016 58 26.4815 58 32.0013V44.0009C58 49.5207 62.48 54.0005 68 54.0005H78Z" fill="#E60012"/>
<path d="M23.9971 79.9995C28.4153 79.9995 31.9971 76.418 31.9971 71.9997C31.9971 67.5815 28.4153 64 23.9971 64C19.5788 64 15.9971 67.5815 15.9971 71.9997C15.9971 76.418 19.5788 79.9995 23.9971 79.9995Z" fill="#E60012"/>
<path d="M56 79.9995C60.4184 79.9995 64 76.418 64 71.9997C64 67.5815 60.4184 64 56 64C51.5816 64 48 67.5815 48 71.9997C48 76.418 51.5816 79.9995 56 79.9995Z" fill="#E60012"/>
<path d="M79.9971 42.1195V47.9993H67.9971C65.7971 47.9993 63.9971 46.1994 63.9971 43.9995V31.9999C63.9971 29.7999 65.7971 28 67.9971 28H73.1571L78.9571 38.1597C79.6371 39.3596 79.9971 40.7196 79.9971 42.1195Z" fill="#E60012"/>
</svg>
