<svg width="103" height="80" viewBox="0 0 103 80" fill="none" xmlns="http://www.w3.org/2000/svg">
<path d="M86.3519 67.375C86.3519 68.5893 85.5293 69.4643 84.3491 69.4643C83.1332 69.4643 82.3464 68.5357 82.3464 67.375C82.3464 66.2143 83.1332 65.2857 84.3491 65.2857C85.5293 65.2857 86.3519 66.2143 86.3519 67.375ZM30.7748 65.2857C29.5052 65.2857 28.772 66.2143 28.772 67.375C28.772 68.5357 29.5052 69.4643 30.7748 69.4643C31.9372 69.4643 32.724 68.5893 32.724 67.375C32.7061 66.2143 31.9372 65.2857 30.7748 65.2857ZM51.7861 65.2321C50.8205 65.2321 50.2304 65.8571 50.0873 66.7857H53.5028C53.3418 65.7679 52.716 65.2321 51.7861 65.2321ZM71.0629 65.2857C69.8469 65.2857 69.1137 66.2143 69.1137 67.375C69.1137 68.5357 69.8469 69.4643 71.0629 69.4643C72.2788 69.4643 73.0656 68.5893 73.0656 67.375C73.0656 66.2143 72.2788 65.2857 71.0629 65.2857ZM89.9998 69.9464C89.9998 70 90.0535 70.0357 90.0535 70.1429C90.0535 70.1964 89.9998 70.2321 89.9998 70.3393C89.9462 70.3929 89.9462 70.4286 89.9104 70.4821C89.8568 70.5357 89.821 70.5714 89.7137 70.5714C89.6601 70.625 89.6243 70.625 89.517 70.625C89.4634 70.625 89.4276 70.625 89.3203 70.5714C89.2667 70.5714 89.2309 70.5179 89.1773 70.4821C89.1236 70.4286 89.0879 70.3929 89.0879 70.3393C89.0342 70.25 89.0342 70.1964 89.0342 70.1429C89.0342 70.0536 89.0342 70 89.0879 69.9464C89.0879 69.8571 89.1415 69.8036 89.1773 69.75C89.2309 69.6964 89.2667 69.6964 89.3203 69.6607C89.4097 69.6071 89.4634 69.6071 89.517 69.6071C89.6064 69.6071 89.6601 69.6071 89.7137 69.6607C89.8031 69.7143 89.8568 69.7143 89.9104 69.75C89.9641 69.7857 89.9462 69.8571 89.9998 69.9464ZM89.6064 70.1964C89.6958 70.1964 89.6958 70.1429 89.7495 70.1429C89.8031 70.0893 89.8031 70.0536 89.8031 70C89.8031 69.9464 89.8031 69.9107 89.7495 69.8571C89.6958 69.8571 89.6601 69.8036 89.5528 69.8036H89.2667V70.4286H89.4097V70.1786H89.4634L89.6601 70.4286H89.8031L89.6064 70.1964ZM103 8.57143V71.4286C103 76.1607 99.1554 80 94.4167 80H8.58333C3.84462 80 0 76.1607 0 71.4286V8.57143C0 3.83929 3.84462 0 8.58333 0H94.4167C99.1554 0 103 3.83929 103 8.57143ZM11.4444 33.5C11.4444 47.1607 22.5491 58.2321 36.2109 58.2321C41.0748 58.2321 45.8493 56.7679 49.8906 54.1071C36.8547 43.5179 36.9441 23.5357 49.8906 12.9464C45.8493 10.2679 41.0748 8.82143 36.2109 8.82143C22.5491 8.80357 11.4444 19.8929 11.4444 33.5ZM51.5 52.9286C64.1068 43.1071 64.0531 23.9643 51.5 14.0893C38.9469 23.9643 38.8932 43.125 51.5 52.9286ZM26.054 66.5536C26.054 65 25.0347 63.9821 23.4253 63.9286C22.6028 63.9286 21.7266 64.1786 21.1365 65.0893C20.7073 64.3571 19.9741 63.9286 18.9549 63.9286C18.2753 63.9286 17.5958 64.1786 17.0594 64.8929V64.1071H15.5931V70.6607H17.0594C17.0594 67.2857 16.6123 65.2679 18.6688 65.2679C20.4927 65.2679 20.1351 67.0893 20.1351 70.6607H21.5477C21.5477 67.3929 21.1007 65.2679 23.1571 65.2679C24.9811 65.2679 24.6234 67.0536 24.6234 70.6607H26.0898V66.5536H26.054ZM34.083 64.1071H32.6703V64.8929C32.1875 64.3036 31.508 63.9286 30.5781 63.9286C28.7363 63.9286 27.3236 65.3929 27.3236 67.375C27.3236 69.375 28.7363 70.8214 30.5781 70.8214C31.508 70.8214 32.1875 70.4821 32.6703 69.8571V70.6786H34.083V64.1071ZM41.3252 68.6786C41.3252 66 37.2302 67.2143 37.2302 65.9643C37.2302 64.9464 39.3582 65.1071 40.5384 65.7679L41.1285 64.6071C39.4476 63.5179 35.7281 63.5357 35.7281 66.0714C35.7281 68.625 39.8231 67.5536 39.8231 68.75C39.8231 69.875 37.409 69.7857 36.1215 68.8929L35.4957 70.0179C37.4984 71.375 41.3252 71.0893 41.3252 68.6786ZM47.6554 70.3393L47.262 69.125C46.5825 69.5 45.0804 69.9107 45.0804 68.3929V65.4286H47.4229V64.1071H45.0804V62.1071H43.6141V64.1071H42.255V65.4107H43.6141V68.3929C43.6141 71.5357 46.7076 70.9643 47.6554 70.3393ZM50.0337 67.9464H54.9512C54.9512 65.0536 53.628 63.9107 51.8398 63.9107C49.9443 63.9107 48.5852 65.3214 48.5852 67.3571C48.5852 71.0179 52.6266 71.625 54.6293 69.8929L53.9498 68.8214C52.555 69.9643 50.445 69.8571 50.0337 67.9464ZM60.6019 64.1071C59.7793 63.75 58.5276 63.7857 57.8839 64.8929V64.1071H56.4175V70.6607H57.8839V66.9643C57.8839 64.8929 59.5826 65.1607 60.1727 65.4643L60.6019 64.1071ZM62.4974 67.375C62.4974 65.3393 64.5717 64.6786 66.199 65.875L66.8785 64.7143C64.8042 63.0893 61.0311 63.9821 61.0311 67.3929C61.0311 70.9286 65.0366 71.6429 66.8785 70.0714L66.199 68.9107C64.5538 70.0714 62.4974 69.375 62.4974 67.375ZM74.4247 64.1071H72.9583V64.8929C71.4741 62.9286 67.6116 64.0357 67.6116 67.375C67.6116 70.8036 71.6172 71.7857 72.9583 69.8571V70.6786H74.4247V64.1071ZM80.4509 64.1071C80.0217 63.8929 78.4839 63.5893 77.7328 64.8929V64.1071H76.3201V70.6607H77.7328V66.9643C77.7328 65 79.3422 65.125 80.0217 65.4643L80.4509 64.1071ZM87.6573 61.4464H86.2446V64.8929C84.7783 62.9464 80.8979 63.9821 80.8979 67.375C80.8979 70.8393 84.9214 71.7679 86.2446 69.8571V70.6786H87.6573V61.4464ZM89.0163 48.0357V48.8571H89.1594V48.0357H89.4991V47.8929H88.6766V48.0357H89.0163ZM90.1965 70.1429C90.1965 70.0536 90.1965 69.9464 90.1429 69.8571C90.0892 69.8036 90.0535 69.7143 89.9998 69.6607C89.9462 69.6071 89.8568 69.5714 89.8031 69.5179C89.7137 69.5179 89.6064 69.4643 89.517 69.4643C89.4634 69.4643 89.374 69.5179 89.2667 69.5179C89.1773 69.5714 89.1236 69.6071 89.07 69.6607C88.9806 69.7143 88.9269 69.8036 88.9269 69.8571C88.8733 69.9464 88.8733 70.0536 88.8733 70.1429C88.8733 70.1964 88.8733 70.2857 88.9269 70.3929C88.9269 70.4464 88.9806 70.5357 89.07 70.5893C89.1236 70.6429 89.1594 70.6786 89.2667 70.7321C89.3561 70.7857 89.4634 70.7857 89.517 70.7857C89.6064 70.7857 89.7137 70.7857 89.8031 70.7321C89.8568 70.6786 89.9462 70.6429 89.9998 70.5893C90.0535 70.5357 90.0892 70.4464 90.1429 70.3929C90.1965 70.2857 90.1965 70.1964 90.1965 70.1429ZM90.7688 47.875H90.5184L90.2323 48.5L89.9462 47.875H89.6958V48.8393H89.8389V48.1071L90.125 48.7321H90.3217L90.5721 48.1071V48.8393H90.7688V47.875ZM91.5556 33.5C91.5556 19.8929 80.4509 8.80357 66.7891 8.80357C61.9252 8.80357 57.1507 10.2679 53.1094 12.9286C66.0023 23.5179 66.199 43.5536 53.1094 54.0893C57.1507 56.7679 61.9609 58.2143 66.7891 58.2143C80.4509 58.2321 91.5556 47.1607 91.5556 33.5Z" fill="#E60012"/>
</svg>
