<svg width="114" height="80" viewBox="0 0 114 80" fill="none" xmlns="http://www.w3.org/2000/svg">
<path d="M75.8306 40.0055C72.8205 40.0055 69.9884 38.3984 68.4567 35.8271L57.0039 16.7919L45.569 35.8271C44.0195 38.4163 41.1874 40.0234 38.1773 40.0234C37.3758 40.0234 36.5743 39.9162 35.8084 39.6841L11.4068 32.6843V64.4692C11.4068 67.0941 13.188 69.3797 15.7172 70.0047L54.2254 79.6652C56.0421 80.1116 57.9479 80.1116 59.7469 79.6652L98.2907 70.0047C100.82 69.3619 102.601 67.0762 102.601 64.4692V32.6843L78.1995 39.6663C77.4336 39.8984 76.6321 40.0055 75.8306 40.0055ZM113.698 19.9704L104.525 1.6137C103.973 0.506587 102.779 -0.136253 101.55 0.024457L57.0039 5.72073L73.337 32.8807C74.0138 34.0057 75.3675 34.5414 76.6321 34.1843L111.881 24.0952C113.644 23.5774 114.499 21.6132 113.698 19.9704ZM9.48319 1.6137L0.310332 19.9704C-0.508991 21.6132 0.363766 23.5774 2.10928 24.0774L37.358 34.1664C38.6226 34.5235 39.9763 33.9878 40.6531 32.8629L57.0039 5.72073L12.4399 0.024457C11.2109 -0.118396 10.0353 0.506587 9.48319 1.6137Z" fill="#E60012"/>
</svg>
