<svg width="103" height="80" viewBox="0 0 103 80" fill="none" xmlns="http://www.w3.org/2000/svg">
<path d="M0 71.4284C0 76.1605 3.83928 79.9998 8.57141 79.9998H94.2855C99.0176 79.9998 102.857 76.1605 102.857 71.4284V39.9999H0V71.4284ZM34.2856 59.2856C34.2856 58.107 35.2499 57.1427 36.4285 57.1427H60.7142C61.8927 57.1427 62.857 58.107 62.857 59.2856V66.4284C62.857 67.607 61.8927 68.5713 60.7142 68.5713H36.4285C35.2499 68.5713 34.2856 67.607 34.2856 66.4284V59.2856ZM11.4285 59.2856C11.4285 58.107 12.3928 57.1427 13.5714 57.1427H26.4285C27.6071 57.1427 28.5714 58.107 28.5714 59.2856V66.4284C28.5714 67.607 27.6071 68.5713 26.4285 68.5713H13.5714C12.3928 68.5713 11.4285 67.607 11.4285 66.4284V59.2856ZM102.857 8.57141V17.1428H0V8.57141C0 3.83928 3.83928 0 8.57141 0H94.2855C99.0176 0 102.857 3.83928 102.857 8.57141Z" fill="black" fill-opacity="0.5"/>
<path d="M63.8251 17.9077L51.4276 30.3053L39.03 17.9077C37.5088 16.3864 35.0413 16.3864 33.52 17.9077L30.765 20.6627C29.2437 22.184 29.2437 24.6515 30.765 26.1728L43.1626 38.5703L30.765 50.9679C29.2437 52.4891 29.2437 54.9566 30.765 56.4779L33.52 59.2329C35.0413 60.7542 37.5088 60.7542 39.03 59.2329L51.4276 46.8353L63.8251 59.2329C65.3464 60.7542 67.8139 60.7542 69.3352 59.2329L72.0902 56.4779C73.6115 54.9566 73.6115 52.4891 72.0902 50.9679L59.6926 38.5703L72.0902 26.1728C73.6115 24.6515 73.6115 22.184 72.0902 20.6627L69.3352 17.9077C67.8139 16.3864 65.3464 16.3864 63.8251 17.9077Z" fill="#E60012"/>
</svg>
