<svg width="70" height="80" viewBox="0 0 70 80" fill="none" xmlns="http://www.w3.org/2000/svg">
<path d="M70 56.25V3.75C70 1.67188 68.3281 0 66.25 0H15C6.71875 0 0 6.71875 0 15V65C0 73.2812 6.71875 80 15 80H66.25C68.3281 80 70 78.3281 70 76.25V73.75C70 72.5781 69.4531 71.5156 68.6094 70.8281C67.9531 68.4219 67.9531 61.5625 68.6094 59.1562C69.4531 58.4844 70 57.4219 70 56.25ZM20 20.9375C20 20.4219 20.4219 20 20.9375 20H54.0625C54.5781 20 55 20.4219 55 20.9375V24.0625C55 24.5781 54.5781 25 54.0625 25H20.9375C20.4219 25 20 24.5781 20 24.0625V20.9375ZM20 30.9375C20 30.4219 20.4219 30 20.9375 30H54.0625C54.5781 30 55 30.4219 55 30.9375V34.0625C55 34.5781 54.5781 35 54.0625 35H20.9375C20.4219 35 20 34.5781 20 34.0625V30.9375ZM59.5938 70H15C12.2344 70 10 67.7656 10 65C10 62.25 12.25 60 15 60H59.5938C59.2969 62.6719 59.2969 67.3281 59.5938 70Z" fill="#E60012"/>
</svg>
