<svg width="70" height="80" viewBox="0 0 70 80" fill="none" xmlns="http://www.w3.org/2000/svg">
<path d="M40.8333 21.25V0H4.375C1.95052 0 0 1.67187 0 3.75V76.25C0 78.3281 1.95052 80 4.375 80H65.625C68.0495 80 70 78.3281 70 76.25V25H45.2083C42.8021 25 40.8333 23.3125 40.8333 21.25ZM11.6667 11.25C11.6667 10.5594 12.3193 10 13.125 10H27.7083C28.5141 10 29.1667 10.5594 29.1667 11.25V13.75C29.1667 14.4406 28.5141 15 27.7083 15H13.125C12.3193 15 11.6667 14.4406 11.6667 13.75V11.25ZM11.6667 21.25C11.6667 20.5594 12.3193 20 13.125 20H27.7083C28.5141 20 29.1667 20.5594 29.1667 21.25V23.75C29.1667 24.4406 28.5141 25 27.7083 25H13.125C12.3193 25 11.6667 24.4406 11.6667 23.75V21.25ZM46.8143 60H55.4167C57.0281 60 58.3333 61.1187 58.3333 62.5C58.3333 63.8813 57.0281 65 55.4167 65H46.8143C43.8156 65 41.1141 63.5719 39.7706 61.2719C39.2328 60.3469 38.2958 60.2531 37.9167 60.2531C37.5375 60.2531 36.6005 60.3453 36.0901 61.2203L34.6919 63.6172C34.4498 64.0325 34.0775 64.3817 33.6167 64.6257C33.1559 64.8696 32.6249 64.9987 32.0833 64.9984C32.0141 64.9984 31.9466 64.9953 31.8755 64.9906C30.6997 64.9203 29.688 64.2484 29.318 63.2891L26.25 55.4047L24.3159 60.3859C23.2422 63.1453 20.2362 65 16.8419 65H14.5833C12.9719 65 11.6667 63.8813 11.6667 62.5C11.6667 61.1187 12.9719 60 14.5833 60H16.8419C17.7224 60 18.5026 59.5187 18.7815 58.8031L22.0974 50.2656C22.699 48.7328 24.3651 47.7016 26.25 47.7016C28.1349 47.7016 29.801 48.7313 30.4008 50.2656L32.931 56.7719C36.5349 54.2422 42.7839 55.2562 44.9622 58.9844C45.3305 59.6187 46.0487 60 46.8143 60ZM68.724 16.4062L50.8776 1.09375C50.0573 0.390625 48.9453 0 47.7786 0H46.6667V20H70V19.0469C70 18.0625 69.5443 17.1094 68.724 16.4062Z" fill="#E60012"/>
</svg>
