<svg width="50" height="50" viewBox="0 0 50 50" fill="none" xmlns="http://www.w3.org/2000/svg">
<path d="M39.0237 4.66397C38.0808 3.68083 36.7775 3.125 35.4152 3.125H18.7617C16.0003 3.125 13.7617 5.36358 13.7617 8.125V41.7625C13.7617 44.5239 16.0003 46.7625 18.7617 46.7625H41.3492C44.1106 46.7625 46.3492 44.5239 46.3492 41.7625V14.3118C46.3492 13.0218 45.8507 11.7818 44.9577 10.8508L39.0237 4.66397Z" fill="white"/>
<path d="M13.5234 5.46875H3.53906V16.1359H34.9453V5.46875H13.5234Z" fill="#7A7B7C"/>
<path d="M35.1125 15.9543H3.74219V5.2793H35.1125V15.9543Z" fill="#DD2025"/>
<path d="M14.1438 7.08398H14.0969H13.7734H12.1016V14.584H13.7078V12.0543L14.0625 12.0746C14.4071 12.0687 14.7485 12.0069 15.0734 11.8918C15.3583 11.7938 15.6203 11.6391 15.8438 11.4371C16.0711 11.2446 16.2503 11.0017 16.3672 10.7277C16.5239 10.2723 16.5799 9.7882 16.5312 9.30898C16.5215 8.96665 16.4615 8.62761 16.3531 8.30273C16.2545 8.06821 16.1081 7.8568 15.9233 7.68194C15.7385 7.50709 15.5193 7.37262 15.2797 7.28711C15.0725 7.21211 14.8585 7.15768 14.6406 7.12461C14.4757 7.09916 14.3091 7.08558 14.1422 7.08398M13.8469 10.6684H13.7078V8.35586H14.0094C14.1425 8.34626 14.276 8.36669 14.4002 8.41564C14.5243 8.4646 14.6358 8.54082 14.7266 8.63867C14.9146 8.89026 15.015 9.19649 15.0125 9.51055C15.0125 9.89492 15.0125 10.2434 14.6656 10.4887C14.4157 10.6261 14.1313 10.6896 13.8469 10.6684Z" fill="#464648"/>
<path d="M19.5831 7.06389C19.4096 7.06389 19.2409 7.07639 19.1221 7.08108L18.7502 7.09046H17.5315V14.5905H18.9659C19.514 14.6055 20.0598 14.5126 20.5721 14.317C20.9845 14.1535 21.3496 13.8898 21.6346 13.5498C21.9117 13.2068 22.1107 12.8074 22.2174 12.3795C22.3402 11.8949 22.4001 11.3966 22.3956 10.8967C22.4259 10.3063 22.3802 9.7145 22.2596 9.13577C22.1452 8.70977 21.931 8.31716 21.6346 7.99046C21.4021 7.72665 21.1175 7.51385 20.7987 7.36546C20.5249 7.23876 20.2369 7.14539 19.9409 7.08733C19.8231 7.06788 19.7039 7.05899 19.5846 7.06077M19.3002 13.2123H19.144V8.42483H19.1643C19.4864 8.38777 19.8124 8.44589 20.1018 8.59202C20.3138 8.76128 20.4865 8.97452 20.6081 9.21702C20.7392 9.47223 20.8149 9.75234 20.8299 10.0389C20.844 10.3826 20.8299 10.6639 20.8299 10.8967C20.8363 11.1649 20.819 11.4331 20.7784 11.6983C20.7302 11.9705 20.6412 12.2339 20.5143 12.4795C20.3707 12.7079 20.1767 12.9003 19.9471 13.042C19.7543 13.1667 19.5261 13.2249 19.2971 13.2076" fill="#464648"/>
<path d="M27.2344 7.08984H23.4375V14.5898H25.0437V11.6148H27.075V10.2211H25.0437V8.48359H27.2312V7.08984" fill="#464648"/>
<path d="M34.0321 31.6486C34.0321 31.6486 39.0133 30.7455 39.0133 32.447C39.0133 34.1486 35.9274 33.4564 34.0321 31.6486ZM30.3493 31.7783C29.5579 31.9532 28.7866 32.2092 28.0477 32.5424L28.6727 31.1361C29.2977 29.7299 29.9461 27.8127 29.9461 27.8127C30.6919 29.0679 31.5597 30.2465 32.5368 31.3314C31.7999 31.4413 31.0697 31.5915 30.3493 31.7814V31.7783ZM28.3774 21.622C28.3774 20.1392 28.8571 19.7345 29.2305 19.7345C29.604 19.7345 30.0243 19.9142 30.0383 21.2017C29.9167 22.4964 29.6456 23.7726 29.2305 25.0049C28.662 23.9702 28.3677 22.8073 28.3758 21.6267L28.3774 21.622ZM21.1133 38.0533C19.5852 37.1392 24.318 34.3252 25.1758 34.2345C25.1712 34.2361 22.7133 39.0095 21.1133 38.0533ZM40.468 32.6486C40.4524 32.4924 40.3118 30.7627 37.2337 30.8361C35.9506 30.8154 34.6682 30.9059 33.4008 31.1064C32.1731 29.8695 31.1159 28.4744 30.2571 26.958C30.7981 25.3946 31.1256 23.7653 31.2305 22.1142C31.1852 20.2392 30.7368 19.1642 29.2993 19.1799C27.8618 19.1955 27.6524 20.4533 27.8415 22.3252C28.0267 23.5831 28.376 24.8112 28.8805 25.9783C28.8805 25.9783 28.2165 28.0455 27.3383 30.1017C26.4602 32.158 25.8602 33.2361 25.8602 33.2361C24.3332 33.7332 22.8957 34.4717 21.6024 35.4236C20.3149 36.622 19.7915 37.5424 20.4696 38.4627C21.054 39.2564 23.0993 39.4361 24.9274 37.0408C25.8987 35.8036 26.7861 34.5028 27.5836 33.147C27.5836 33.147 30.3712 32.383 31.2383 32.1736C32.1055 31.9642 33.154 31.7986 33.154 31.7986C33.154 31.7986 35.6993 34.3595 38.154 34.2689C40.6087 34.1783 40.4899 32.8017 40.4743 32.6517" fill="#DD2025"/>
<path d="M37.4277 3.24609V12.4227H46.2293L37.4277 3.24609Z" fill="#909090"/>
<path d="M37.5488 3.125V12.3016H46.3504L37.5488 3.125Z" fill="#F4F4F4"/>
<path d="M14.0246 6.96289H13.9777H13.6543H11.9824V14.4629H13.5949V11.9348L13.9512 11.9551C14.2958 11.9491 14.6372 11.8874 14.9621 11.7723C15.2469 11.6743 15.509 11.5196 15.7324 11.3176C15.9581 11.1246 16.1357 10.8817 16.2512 10.6082C16.4079 10.1527 16.4639 9.66867 16.4152 9.18945C16.4055 8.84712 16.3455 8.50808 16.2371 8.1832C16.1385 7.94868 15.9921 7.73727 15.8073 7.56241C15.6225 7.38756 15.4033 7.25309 15.1637 7.16758C14.9555 7.09185 14.7404 7.03689 14.5215 7.00352C14.3565 6.97806 14.19 6.96449 14.023 6.96289M13.7277 10.5473H13.5887V8.23477H13.8918C14.0249 8.22517 14.1584 8.2456 14.2826 8.29455C14.4067 8.3435 14.5183 8.41972 14.609 8.51758C14.797 8.76916 14.8974 9.0754 14.8949 9.38945C14.8949 9.77383 14.8949 10.1223 14.548 10.3676C14.2982 10.505 14.0137 10.5669 13.7293 10.5457" fill="white"/>
<path d="M19.4629 6.94475C19.2895 6.94475 19.1207 6.95725 19.002 6.96194L18.6348 6.97132H17.416V14.4713H18.8504C19.3986 14.4863 19.9443 14.3934 20.4566 14.1979C20.869 14.0343 21.2342 13.7707 21.5191 13.4307C21.7963 13.0877 21.9952 12.6883 22.102 12.2604C22.2247 11.7758 22.2846 11.2774 22.2801 10.7776C22.3104 10.1872 22.2647 9.59536 22.1441 9.01663C22.0297 8.59063 21.8155 8.19802 21.5191 7.87132C21.2866 7.60751 21.002 7.39471 20.6832 7.24632C20.4094 7.11962 20.1214 7.02625 19.8254 6.96819C19.7077 6.94874 19.5884 6.93985 19.4691 6.94163M19.1848 13.0932H19.0285V8.30569H19.0488C19.371 8.26863 19.6969 8.32675 19.9863 8.47288C20.1983 8.64214 20.371 8.85538 20.4926 9.09788C20.6238 9.35309 20.6994 9.6332 20.7145 9.91975C20.7285 10.2635 20.7145 10.5448 20.7145 10.7776C20.7208 11.0457 20.7036 11.314 20.6629 11.5791C20.6147 11.8514 20.5257 12.1148 20.3988 12.3604C20.2552 12.5887 20.0612 12.7812 19.8316 12.9229C19.6389 13.0476 19.4106 13.1057 19.1816 13.0885" fill="white"/>
<path d="M27.1133 6.9707H23.3164V14.4707H24.9227V11.4957H26.9539V10.102H24.9227V8.36445H27.1102V6.9707" fill="white"/>
</svg>
