<svg width="392" height="68" viewBox="0 0 392 68" fill="none" xmlns="http://www.w3.org/2000/svg">
<mask id="path-1-outside-1_815_2" maskUnits="userSpaceOnUse" x="-0.811523" y="-0.139648" width="392" height="68" fill="black">
<rect fill="white" x="-0.811523" y="-0.139648" width="392" height="68"/>
<path d="M23.7999 63.7604C20.0799 63.7604 16.5999 63.4904 13.3599 62.9504C10.1799 62.4104 7.41992 61.6304 5.07992 60.6104V49.9004C7.71992 50.9804 10.5699 51.8504 13.6299 52.5104C16.6899 53.1704 19.6899 53.5004 22.6299 53.5004C26.8299 53.5004 29.9199 53.1104 31.8999 52.3304C33.8799 51.5504 34.8699 49.7804 34.8699 47.0204C34.8699 45.2804 34.4499 43.9004 33.6099 42.8803C32.7699 41.8604 31.2999 40.9604 29.1999 40.1804C27.1599 39.3404 24.2499 38.4104 20.4699 37.3903C14.4099 35.7103 10.1499 33.6103 7.68992 31.0904C5.22992 28.5704 3.99992 25.0904 3.99992 20.6504C3.99992 15.3103 5.94992 11.2003 9.84992 8.32035C13.7499 5.44035 19.4199 4.00035 26.8599 4.00035C30.3399 4.00035 33.5799 4.24035 36.5799 4.72035C39.5799 5.20035 42.0099 5.77035 43.8699 6.43035V17.1404C38.9499 15.2803 33.8199 14.3503 28.4799 14.3503C24.6999 14.3503 21.7299 14.7703 19.5699 15.6103C17.4099 16.3903 16.3299 18.0703 16.3299 20.6504C16.3299 22.1503 16.7199 23.3503 17.4999 24.2503C18.2799 25.1503 19.5999 25.9603 21.4599 26.6804C23.3799 27.4004 26.0499 28.2103 29.4699 29.1103C34.2099 30.3704 37.8699 31.8704 40.4499 33.6103C43.0299 35.3504 44.7999 37.3304 45.7599 39.5504C46.7799 41.7704 47.2899 44.2604 47.2899 47.0204C47.2899 52.0604 45.3699 56.1104 41.5299 59.1704C37.6899 62.2304 31.7799 63.7604 23.7999 63.7604ZM81.1918 63.7604C73.2118 63.7604 66.8818 61.8404 62.2018 58.0004C57.5818 54.1004 55.2718 48.4604 55.2718 41.0804V4.90035H67.4218V40.1804C67.4218 44.6204 68.6218 47.9504 71.0218 50.1704C73.4218 52.3304 76.8118 53.4104 81.1918 53.4104C85.5718 53.4104 88.9318 52.3304 91.2718 50.1704C93.6718 47.9504 94.8718 44.6204 94.8718 40.1804V4.90035H107.022V41.0804C107.022 48.4604 104.712 54.1004 100.092 58.0004C95.4718 61.8404 89.1718 63.7604 81.1918 63.7604ZM116.806 62.8604V4.90035H143.986C148.546 4.90035 152.266 5.77035 155.146 7.51035C158.086 9.25035 160.276 11.6203 161.716 14.6204C163.156 17.6203 163.876 21.0403 163.876 24.8803C163.876 28.7803 163.036 32.2303 161.356 35.2304C159.736 38.2304 157.396 40.5704 154.336 42.2504C151.336 43.8704 147.766 44.6804 143.626 44.6804H128.956V62.8604H116.806ZM128.956 35.0504H141.106C144.586 35.0504 147.196 34.1504 148.936 32.3504C150.736 30.4904 151.636 28.0004 151.636 24.8803C151.636 21.5204 150.796 18.9703 149.116 17.2303C147.436 15.4304 144.916 14.5304 141.556 14.5304H128.956V35.0504ZM170.595 62.8604V4.90035H197.775C202.335 4.90035 206.055 5.77035 208.935 7.51035C211.875 9.25035 214.065 11.6203 215.505 14.6204C216.945 17.6203 217.665 21.0403 217.665 24.8803C217.665 28.7803 216.825 32.2303 215.145 35.2304C213.525 38.2304 211.185 40.5704 208.125 42.2504C205.125 43.8704 201.555 44.6804 197.415 44.6804H182.745V62.8604H170.595ZM182.745 35.0504H194.895C198.375 35.0504 200.985 34.1504 202.725 32.3504C204.525 30.4904 205.425 28.0004 205.425 24.8803C205.425 21.5204 204.585 18.9703 202.905 17.2303C201.225 15.4304 198.705 14.5304 195.345 14.5304H182.745V35.0504ZM250.754 63.7604C231.974 63.7604 222.584 53.8904 222.584 34.1504C222.584 23.5304 224.954 15.8503 229.694 11.1103C234.434 6.37035 241.454 4.00035 250.754 4.00035C260.054 4.00035 267.074 6.37035 271.814 11.1103C276.554 15.8503 278.924 23.5304 278.924 34.1504C278.924 53.8904 269.534 63.7604 250.754 63.7604ZM250.754 53.4104C256.214 53.4104 260.204 51.8504 262.724 48.7304C265.304 45.5504 266.594 40.6904 266.594 34.1504C266.594 26.8903 265.304 21.7903 262.724 18.8503C260.204 15.8503 256.214 14.3503 250.754 14.3503C245.294 14.3503 241.274 15.8503 238.694 18.8503C236.174 21.7903 234.914 26.8903 234.914 34.1504C234.914 40.6904 236.174 45.5504 238.694 48.7304C241.274 51.8504 245.294 53.4104 250.754 53.4104ZM287.401 62.8604V4.90035H315.211C321.871 4.90035 326.761 6.67035 329.881 10.2103C333.001 13.6903 334.561 18.4003 334.561 24.3403C334.561 28.2404 333.541 31.6004 331.501 34.4204C329.521 37.2403 326.701 39.2803 323.041 40.5404C324.001 41.3204 324.751 42.1604 325.291 43.0604C325.891 43.9604 326.491 45.1604 327.091 46.6604L334.111 62.8604H321.511L314.671 47.2904C314.071 45.9704 313.411 45.0404 312.691 44.5004C311.971 43.9604 310.771 43.6904 309.091 43.6904H299.551V62.8604H287.401ZM299.551 33.6103H312.061C315.241 33.6103 317.731 32.9203 319.531 31.5403C321.331 30.1004 322.231 27.7004 322.231 24.3403C322.231 21.1003 321.451 18.7303 319.891 17.2303C318.331 15.7304 315.961 14.9804 312.781 14.9804H299.551V33.6103ZM357.256 62.8604V14.2603H339.436V4.90035H387.136V14.2603H369.406V62.8604H357.256Z"/>
</mask>
<path d="M13.3599 62.9504L12.6903 66.8939L12.7023 66.8959L13.3599 62.9504ZM5.07992 60.6104H1.07992V63.2303L3.48158 64.2771L5.07992 60.6104ZM5.07992 49.9004L6.59445 46.1982L1.07992 43.9422V49.9004H5.07992ZM13.6299 52.5104L14.4733 48.6003V48.6003L13.6299 52.5104ZM31.8999 52.3304L30.4338 48.6087H30.4338L31.8999 52.3304ZM33.6099 42.8803L36.6976 40.3375H36.6976L33.6099 42.8803ZM29.1999 40.1804L27.6769 43.8791L27.7416 43.9057L27.8072 43.9301L29.1999 40.1804ZM20.4699 37.3904L19.4013 41.245L19.4146 41.2486L19.4278 41.2522L20.4699 37.3904ZM9.84992 8.32035L12.2261 11.5381L12.2261 11.5381L9.84992 8.32035ZM43.8699 6.43035H47.8699V3.60534L45.2076 2.66064L43.8699 6.43035ZM43.8699 17.1404L42.4554 20.8819L47.8699 22.9288V17.1404H43.8699ZM19.5699 15.6103L20.9285 19.3726L20.9743 19.356L21.0197 19.3384L19.5699 15.6103ZM17.4999 24.2504L14.4772 26.8701H14.4772L17.4999 24.2504ZM21.4599 26.6804L20.0159 30.4106L20.0356 30.4183L20.0554 30.4257L21.4599 26.6804ZM29.4699 29.1103L30.4975 25.2446L30.4879 25.2421L29.4699 29.1103ZM40.4499 33.6103L42.6865 30.2941L42.6865 30.2941L40.4499 33.6103ZM45.7599 39.5504L42.0885 41.138L42.1064 41.1794L42.1252 41.2203L45.7599 39.5504ZM41.5299 59.1704L44.0227 62.2986V62.2986L41.5299 59.1704ZM23.7999 63.7604V59.7604C20.2719 59.7604 17.0139 59.5042 14.0175 59.0048L13.3599 62.9504L12.7023 66.8959C16.186 67.4765 19.888 67.7604 23.7999 67.7604V63.7604ZM13.3599 62.9504L14.0296 59.0068C11.0896 58.5076 8.65515 57.8053 6.67826 56.9436L5.07992 60.6104L3.48158 64.2771C6.18469 65.4554 9.27028 66.3131 12.6903 66.8939L13.3599 62.9504ZM5.07992 60.6104H9.07992V49.9004H5.07992H1.07992V60.6104H5.07992ZM5.07992 49.9004L3.56539 53.6025C6.44242 54.7795 9.51912 55.7157 12.7866 56.4204L13.6299 52.5104L14.4733 48.6003C11.6207 47.985 8.99743 47.1812 6.59445 46.1982L5.07992 49.9004ZM13.6299 52.5104L12.7866 56.4204C16.1059 57.1364 19.3888 57.5004 22.6299 57.5004V53.5004V49.5004C19.9911 49.5004 17.2739 49.2043 14.4733 48.6003L13.6299 52.5104ZM22.6299 53.5004V57.5004C26.9398 57.5004 30.657 57.1192 33.366 56.052L31.8999 52.3304L30.4338 48.6087C29.1829 49.1015 26.72 49.5004 22.6299 49.5004V53.5004ZM31.8999 52.3304L33.366 56.052C35.1691 55.3417 36.6494 54.1031 37.6185 52.3705C38.5461 50.7119 38.8699 48.8478 38.8699 47.0204H34.8699H30.8699C30.8699 47.9529 30.6987 48.3538 30.6364 48.4652C30.6098 48.5128 30.5956 48.5231 30.5936 48.5249C30.5896 48.5283 30.5495 48.5631 30.4338 48.6087L31.8999 52.3304ZM34.8699 47.0204H38.8699C38.8699 44.6492 38.2919 42.2734 36.6976 40.3375L33.6099 42.8803L30.5222 45.4232C30.608 45.5273 30.8699 45.9115 30.8699 47.0204H34.8699ZM33.6099 42.8803L36.6976 40.3375C35.197 38.5153 32.949 37.3059 30.5927 36.4306L29.1999 40.1804L27.8072 43.9301C29.6508 44.6148 30.3429 45.2054 30.5222 45.4232L33.6099 42.8803ZM29.1999 40.1804L30.7229 36.4816C28.4507 35.546 25.3512 34.5645 21.512 33.5285L20.4699 37.3904L19.4278 41.2522C23.1486 42.2562 25.8691 43.1347 27.6769 43.8791L29.1999 40.1804ZM20.4699 37.3904L21.5385 33.5357C15.6989 31.9168 12.267 30.0528 10.5522 28.2962L7.68992 31.0904L4.82763 33.8845C8.03287 37.1679 13.121 39.5039 19.4013 41.245L20.4699 37.3904ZM7.68992 31.0904L10.5522 28.2962C8.99945 26.7056 7.99992 24.3319 7.99992 20.6503H3.99992H-7.80821e-05C-7.80821e-05 25.8488 1.46039 30.4351 4.82763 33.8845L7.68992 31.0904ZM3.99992 20.6503H7.99992C7.99992 16.4308 9.46154 13.5796 12.2261 11.5381L9.84992 8.32035L7.47375 5.10262C2.43831 8.82109 -7.80821e-05 14.1899 -7.80821e-05 20.6503H3.99992ZM9.84992 8.32035L12.2261 11.5381C15.1581 9.3729 19.8453 8.00035 26.8599 8.00035V4.00035V0.000347137C18.9945 0.000347137 12.3417 1.5078 7.47375 5.10262L9.84992 8.32035ZM26.8599 4.00035V8.00035C30.1581 8.00035 33.1845 8.22795 35.948 8.67011L36.5799 4.72035L37.2119 0.770588C33.9754 0.252747 30.5218 0.000347137 26.8599 0.000347137V4.00035ZM36.5799 4.72035L35.948 8.67011C38.8213 9.12985 40.9891 9.65249 42.5323 10.2001L43.8699 6.43035L45.2076 2.66064C43.0307 1.88821 40.3385 1.27085 37.2119 0.770588L36.5799 4.72035ZM43.8699 6.43035H39.8699V17.1404H43.8699H47.8699V6.43035H43.8699ZM43.8699 17.1404L45.2844 13.3988C39.9054 11.3653 34.2956 10.3503 28.4799 10.3503V14.3503V18.3503C33.3442 18.3503 37.9944 19.1954 42.4554 20.8819L43.8699 17.1404ZM28.4799 14.3503V10.3503C24.4771 10.3503 20.9424 10.7848 18.1201 11.8823L19.5699 15.6103L21.0197 19.3384C22.5174 18.7559 24.9227 18.3503 28.4799 18.3503V14.3503ZM19.5699 15.6103L18.2113 11.8481C16.4345 12.4898 14.8595 13.6056 13.7752 15.2923C12.7153 16.9411 12.3299 18.8143 12.3299 20.6503H16.3299H20.3299C20.3299 19.9064 20.4846 19.6496 20.5046 19.6184C20.5169 19.5993 20.5319 19.5797 20.5713 19.5499C20.6155 19.5163 20.7207 19.4476 20.9285 19.3726L19.5699 15.6103ZM16.3299 20.6503H12.3299C12.3299 22.8551 12.9165 25.0693 14.4772 26.8701L17.4999 24.2504L20.5227 21.6306C20.5036 21.6086 20.4662 21.561 20.4266 21.439C20.3831 21.3054 20.3299 21.0575 20.3299 20.6503H16.3299ZM17.4999 24.2504L14.4772 26.8701C15.8818 28.4908 17.9081 29.5947 20.0159 30.4106L21.4599 26.6804L22.9039 22.9501C21.2917 22.326 20.6781 21.8099 20.5227 21.6306L17.4999 24.2504ZM21.4599 26.6804L20.0554 30.4257C22.1606 31.2151 24.9801 32.065 28.452 32.9786L29.4699 29.1103L30.4879 25.2421C27.1197 24.3557 24.5992 23.5856 22.8644 22.935L21.4599 26.6804ZM29.4699 29.1103L28.4423 32.9761C32.9701 34.1797 36.1527 35.5369 38.2134 36.9266L40.4499 33.6103L42.6865 30.2941C39.5871 28.2038 35.4497 26.561 30.4975 25.2446L29.4699 29.1103ZM40.4499 33.6103L38.2134 36.9266C40.3392 38.3603 41.5076 39.7947 42.0885 41.138L45.7599 39.5504L49.4314 37.9627C48.0922 34.866 45.7207 32.3404 42.6865 30.2941L40.4499 33.6103ZM45.7599 39.5504L42.1252 41.2203C42.8751 42.8524 43.2899 44.7619 43.2899 47.0204H47.2899H51.2899C51.2899 43.7588 50.6848 40.6883 49.3946 37.8804L45.7599 39.5504ZM47.2899 47.0204H43.2899C43.2899 50.88 41.8958 53.7641 39.0371 56.0421L41.5299 59.1704L44.0227 62.2986C48.8441 58.4566 51.2899 53.2407 51.2899 47.0204H47.2899ZM41.5299 59.1704L39.0371 56.0421C36.2285 58.2802 31.3989 59.7604 23.7999 59.7604V63.7604V67.7604C32.1609 67.7604 39.1513 66.1805 44.0227 62.2986L41.5299 59.1704ZM62.2018 58.0004L59.6216 61.0569L59.6429 61.0749L59.6645 61.0926L62.2018 58.0004ZM55.2718 4.90034V0.900345H51.2718V4.90034H55.2718ZM67.4218 4.90034H71.4218V0.900345H67.4218V4.90034ZM71.0218 50.1703L68.3056 53.1068L68.3257 53.1253L68.3459 53.1435L71.0218 50.1703ZM91.2718 50.1703L93.9849 53.1096L93.988 53.1068L91.2718 50.1703ZM94.8718 4.90034V0.900345H90.8718V4.90034H94.8718ZM107.022 4.90034H111.022V0.900345H107.022V4.90034ZM100.092 58.0004L102.649 61.0765L102.66 61.0668L102.672 61.0569L100.092 58.0004ZM81.1918 63.7604V59.7604C73.8402 59.7604 68.5037 57.997 64.7391 54.9081L62.2018 58.0004L59.6645 61.0926C65.2599 65.6837 72.5834 67.7604 81.1918 67.7604V63.7604ZM62.2018 58.0004L64.782 54.9438C61.2592 51.97 59.2718 47.5667 59.2718 41.0804H55.2718H51.2718C51.2718 49.354 53.9044 56.2307 59.6216 61.0569L62.2018 58.0004ZM55.2718 41.0804H59.2718V4.90034H55.2718H51.2718V41.0804H55.2718ZM55.2718 4.90034V8.90034H67.4218V4.90034V0.900345H55.2718V4.90034ZM67.4218 4.90034H63.4218V40.1804H67.4218H71.4218V4.90034H67.4218ZM67.4218 40.1804H63.4218C63.4218 45.3204 64.8255 49.8877 68.3056 53.1068L71.0218 50.1703L73.738 47.234C72.4181 46.013 71.4218 43.9203 71.4218 40.1804H67.4218ZM71.0218 50.1703L68.3459 53.1435C71.7079 56.1693 76.1797 57.4104 81.1918 57.4104V53.4104V49.4104C77.4439 49.4104 75.1357 48.4914 73.6977 47.1972L71.0218 50.1703ZM81.1918 53.4104V57.4104C86.1963 57.4104 90.667 56.1723 93.9849 53.1096L91.2718 50.1703L88.5587 47.2311C87.1966 48.4884 84.9473 49.4104 81.1918 49.4104V53.4104ZM91.2718 50.1703L93.988 53.1068C97.4681 49.8877 98.8718 45.3204 98.8718 40.1804H94.8718H90.8718C90.8718 43.9203 89.8755 46.013 88.5556 47.234L91.2718 50.1703ZM94.8718 40.1804H98.8718V4.90034H94.8718H90.8718V40.1804H94.8718ZM94.8718 4.90034V8.90034H107.022V4.90034V0.900345H94.8718V4.90034ZM107.022 4.90034H103.022V41.0804H107.022H111.022V4.90034H107.022ZM107.022 41.0804H103.022C103.022 47.5667 101.034 51.97 97.5116 54.9438L100.092 58.0004L102.672 61.0569C108.389 56.2307 111.022 49.354 111.022 41.0804H107.022ZM100.092 58.0004L97.535 54.9242C93.8396 57.9957 88.5467 59.7604 81.1918 59.7604V63.7604V67.7604C89.7969 67.7604 97.104 65.685 102.649 61.0765L100.092 58.0004ZM116.806 62.8604H112.806V66.8604H116.806V62.8604ZM116.806 4.90034V0.900345H112.806V4.90034H116.806ZM155.146 7.51035L153.077 10.934L153.093 10.9434L153.108 10.9527L155.146 7.51035ZM161.716 14.6203L165.322 12.8894V12.8894L161.716 14.6203ZM161.356 35.2304L157.866 33.2759L157.851 33.3027L157.836 33.3298L161.356 35.2304ZM154.336 42.2504L156.236 45.77L156.249 45.7634L156.261 45.7567L154.336 42.2504ZM128.956 44.6804V40.6804H124.956V44.6804H128.956ZM128.956 62.8604V66.8604H132.956V62.8604H128.956ZM128.956 35.0504H124.956V39.0504H128.956V35.0504ZM148.936 32.3503L146.061 29.5687L146.06 29.5703L148.936 32.3503ZM149.116 17.2304L146.192 19.9596L146.215 19.9844L146.238 20.0087L149.116 17.2304ZM128.956 14.5303V10.5303H124.956V14.5303H128.956ZM116.806 62.8604H120.806V4.90034H116.806H112.806V62.8604H116.806ZM116.806 4.90034V8.90034H143.986V4.90034V0.900345H116.806V4.90034ZM143.986 4.90034V8.90034C148.067 8.90034 151.005 9.6822 153.077 10.934L155.146 7.51035L157.214 4.08669C153.526 1.8585 149.025 0.900345 143.986 0.900345V4.90034ZM155.146 7.51035L153.108 10.9527C155.387 12.3012 157.021 14.0842 158.11 16.3513L161.716 14.6203L165.322 12.8894C163.53 9.15652 160.784 6.19948 157.183 4.06804L155.146 7.51035ZM161.716 14.6203L158.11 16.3513C159.253 18.7338 159.876 21.5474 159.876 24.8803H163.876H167.876C167.876 20.5333 167.058 16.5069 165.322 12.8894L161.716 14.6203ZM163.876 24.8803H159.876C159.876 28.1893 159.169 30.9495 157.866 33.2759L161.356 35.2304L164.846 37.1848C166.903 33.5112 167.876 29.3714 167.876 24.8803H163.876ZM161.356 35.2304L157.836 33.3298C156.591 35.6353 154.813 37.4253 152.411 38.744L154.336 42.2504L156.261 45.7567C159.979 43.7154 162.88 40.8254 164.875 37.1309L161.356 35.2304ZM154.336 42.2504L152.435 38.7307C150.132 39.9746 147.243 40.6804 143.626 40.6804V44.6804V48.6804C148.288 48.6804 152.54 47.7661 156.236 45.77L154.336 42.2504ZM143.626 44.6804V40.6804H128.956V44.6804V48.6804H143.626V44.6804ZM128.956 44.6804H124.956V62.8604H128.956H132.956V44.6804H128.956ZM128.956 62.8604V58.8604H116.806V62.8604V66.8604H128.956V62.8604ZM128.956 35.0504V39.0504H141.106V35.0504V31.0504H128.956V35.0504ZM141.106 35.0504V39.0504C145.237 39.0504 149.063 37.9743 151.812 35.1304L148.936 32.3503L146.06 29.5703C145.329 30.3264 143.934 31.0504 141.106 31.0504V35.0504ZM148.936 32.3503L151.81 35.132C154.476 32.3776 155.636 28.8118 155.636 24.8803H151.636H147.636C147.636 27.1889 146.996 28.6031 146.061 29.5687L148.936 32.3503ZM151.636 24.8803H155.636C155.636 20.8922 154.634 17.1873 151.993 14.452L149.116 17.2304L146.238 20.0087C146.957 20.7534 147.636 22.1485 147.636 24.8803H151.636ZM149.116 17.2304L152.04 14.5011C149.359 11.6282 145.606 10.5303 141.556 10.5303V14.5303V18.5303C144.226 18.5303 145.513 19.2325 146.192 19.9596L149.116 17.2304ZM141.556 14.5303V10.5303H128.956V14.5303V18.5303H141.556V14.5303ZM128.956 14.5303H124.956V35.0504H128.956H132.956V14.5303H128.956ZM170.595 62.8604H166.595V66.8604H170.595V62.8604ZM170.595 4.90034V0.900345H166.595V4.90034H170.595ZM208.935 7.51035L206.866 10.934L206.882 10.9434L206.898 10.9527L208.935 7.51035ZM215.505 14.6203L219.111 12.8894V12.8894L215.505 14.6203ZM215.145 35.2304L211.655 33.2759L211.64 33.3027L211.625 33.3298L215.145 35.2304ZM208.125 42.2504L210.025 45.77L210.038 45.7634L210.05 45.7567L208.125 42.2504ZM182.745 44.6804V40.6804H178.745V44.6804H182.745ZM182.745 62.8604V66.8604H186.745V62.8604H182.745ZM182.745 35.0504H178.745V39.0504H182.745V35.0504ZM202.725 32.3503L199.85 29.5687L199.849 29.5703L202.725 32.3503ZM202.905 17.2304L199.981 19.9596L200.004 19.9844L200.027 20.0087L202.905 17.2304ZM182.745 14.5303V10.5303H178.745V14.5303H182.745ZM170.595 62.8604H174.595V4.90034H170.595H166.595V62.8604H170.595ZM170.595 4.90034V8.90034H197.775V4.90034V0.900345H170.595V4.90034ZM197.775 4.90034V8.90034C201.856 8.90034 204.794 9.6822 206.866 10.934L208.935 7.51035L211.003 4.08669C207.315 1.8585 202.814 0.900345 197.775 0.900345V4.90034ZM208.935 7.51035L206.898 10.9527C209.176 12.3012 210.811 14.0842 211.899 16.3513L215.505 14.6203L219.111 12.8894C217.319 9.15652 214.574 6.19948 210.972 4.06804L208.935 7.51035ZM215.505 14.6203L211.899 16.3513C213.042 18.7338 213.665 21.5474 213.665 24.8803H217.665H221.665C221.665 20.5333 220.847 16.5069 219.111 12.8894L215.505 14.6203ZM217.665 24.8803H213.665C213.665 28.1893 212.958 30.9495 211.655 33.2759L215.145 35.2304L218.635 37.1848C220.692 33.5112 221.665 29.3714 221.665 24.8803H217.665ZM215.145 35.2304L211.625 33.3298C210.38 35.6353 208.602 37.4253 206.2 38.744L208.125 42.2504L210.05 45.7567C213.768 43.7154 216.669 40.8254 218.664 37.1309L215.145 35.2304ZM208.125 42.2504L206.224 38.7307C203.921 39.9746 201.032 40.6804 197.415 40.6804V44.6804V48.6804C202.077 48.6804 206.329 47.7661 210.025 45.77L208.125 42.2504ZM197.415 44.6804V40.6804H182.745V44.6804V48.6804H197.415V44.6804ZM182.745 44.6804H178.745V62.8604H182.745H186.745V44.6804H182.745ZM182.745 62.8604V58.8604H170.595V62.8604V66.8604H182.745V62.8604ZM182.745 35.0504V39.0504H194.895V35.0504V31.0504H182.745V35.0504ZM194.895 35.0504V39.0504C199.027 39.0504 202.852 37.9743 205.601 35.1304L202.725 32.3503L199.849 29.5703C199.118 30.3264 197.723 31.0504 194.895 31.0504V35.0504ZM202.725 32.3503L205.599 35.132C208.265 32.3776 209.425 28.8118 209.425 24.8803H205.425H201.425C201.425 27.1889 200.785 28.6031 199.85 29.5687L202.725 32.3503ZM205.425 24.8803H209.425C209.425 20.8922 208.423 17.1873 205.782 14.452L202.905 17.2304L200.027 20.0087C200.746 20.7534 201.425 22.1485 201.425 24.8803H205.425ZM202.905 17.2304L205.829 14.5011C203.148 11.6282 199.395 10.5303 195.345 10.5303V14.5303V18.5303C198.015 18.5303 199.302 19.2325 199.981 19.9596L202.905 17.2304ZM195.345 14.5303V10.5303H182.745V14.5303V18.5303H195.345V14.5303ZM182.745 14.5303H178.745V35.0504H182.745H186.745V14.5303H182.745ZM229.694 11.1103L226.865 8.28192V8.28192L229.694 11.1103ZM271.814 11.1103L274.642 8.28192V8.28192L271.814 11.1103ZM262.724 48.7304L259.618 46.2102L259.612 46.217L262.724 48.7304ZM262.724 18.8503L259.661 21.4231L259.689 21.4562L259.717 21.4887L262.724 18.8503ZM238.694 18.8503L235.661 16.2422L235.657 16.2472L238.694 18.8503ZM238.694 48.7304L235.559 51.2147L235.585 51.2473L235.611 51.2794L238.694 48.7304ZM250.754 63.7604V59.7604C242.033 59.7604 236.214 57.4786 232.524 53.6008C228.8 49.6857 226.584 43.4522 226.584 34.1504H222.584H218.584C218.584 44.5885 221.063 53.16 226.728 59.1149C232.429 65.1071 240.695 67.7604 250.754 67.7604V63.7604ZM222.584 34.1504H226.584C226.584 23.9922 228.87 17.591 232.522 13.9388L229.694 11.1103L226.865 8.28192C221.038 14.1097 218.584 23.0685 218.584 34.1504H222.584ZM229.694 11.1103L232.522 13.9388C236.261 10.2005 242.096 8.00035 250.754 8.00035V4.00035V0.000347137C240.812 0.000347137 232.607 2.54023 226.865 8.28192L229.694 11.1103ZM250.754 4.00035V8.00035C259.411 8.00035 265.247 10.2005 268.985 13.9388L271.814 11.1103L274.642 8.28192C268.901 2.54023 260.696 0.000347137 250.754 0.000347137V4.00035ZM271.814 11.1103L268.985 13.9388C272.638 17.591 274.924 23.9922 274.924 34.1504H278.924H282.924C282.924 23.0685 280.47 14.1097 274.642 8.28192L271.814 11.1103ZM278.924 34.1504H274.924C274.924 43.4522 272.708 49.6857 268.983 53.6008C265.294 57.4786 259.475 59.7604 250.754 59.7604V63.7604V67.7604C260.813 67.7604 269.079 65.1071 274.779 59.1149C280.445 53.16 282.924 44.5885 282.924 34.1504H278.924ZM250.754 53.4104V57.4104C256.959 57.4104 262.306 55.6136 265.836 51.2437L262.724 48.7304L259.612 46.217C258.102 48.0871 255.469 49.4104 250.754 49.4104V53.4104ZM262.724 48.7304L265.83 51.2505C269.245 47.0417 270.594 41.0954 270.594 34.1504H266.594H262.594C262.594 40.2853 261.363 44.059 259.618 46.2102L262.724 48.7304ZM266.594 34.1504H270.594C270.594 26.6541 269.309 20.2904 265.73 16.212L262.724 18.8503L259.717 21.4887C261.298 23.2903 262.594 27.1266 262.594 34.1504H266.594ZM262.724 18.8503L265.787 16.2776C262.241 12.0569 256.909 10.3503 250.754 10.3503V14.3503V18.3503C255.519 18.3503 258.167 19.6438 259.661 21.4231L262.724 18.8503ZM250.754 14.3503V10.3503C244.591 10.3503 239.258 12.0594 235.661 16.2422L238.694 18.8503L241.727 21.4585C243.289 19.6413 245.996 18.3503 250.754 18.3503V14.3503ZM238.694 18.8503L235.657 16.2472C232.164 20.3219 230.914 26.6682 230.914 34.1504H234.914H238.914C238.914 27.1125 240.184 23.2588 241.731 21.4535L238.694 18.8503ZM234.914 34.1504H230.914C230.914 41.0795 232.227 47.01 235.559 51.2147L238.694 48.7304L241.829 46.246C240.121 44.0907 238.914 40.3012 238.914 34.1504H234.914ZM238.694 48.7304L235.611 51.2794C239.194 55.6115 244.543 57.4104 250.754 57.4104V53.4104V49.4104C246.045 49.4104 243.354 48.0892 241.776 46.1813L238.694 48.7304ZM287.401 62.8604H283.401V66.8604H287.401V62.8604ZM287.401 4.90034V0.900345H283.401V4.90034H287.401ZM329.882 10.2104L326.881 12.8552L326.892 12.8679L326.903 12.8805L329.882 10.2104ZM331.501 34.4204L328.261 32.0759L328.244 32.0987L328.228 32.1218L331.501 34.4204ZM323.041 40.5404L321.739 36.7582L314.929 39.1028L320.519 43.6448L323.041 40.5404ZM325.291 43.0603L321.862 45.1183L321.91 45.2L321.963 45.2792L325.291 43.0603ZM327.091 46.6604L323.378 48.1459L323.399 48.1987L323.421 48.2508L327.091 46.6604ZM334.111 62.8604V66.8604H340.204L337.782 61.2699L334.111 62.8604ZM321.511 62.8604L317.849 64.4692L318.9 66.8604H321.511V62.8604ZM314.671 47.2904L318.334 45.6815L318.323 45.6583L318.313 45.6351L314.671 47.2904ZM312.691 44.5004L315.091 41.3004V41.3003L312.691 44.5004ZM299.551 43.6903V39.6903H295.551V43.6903H299.551ZM299.551 62.8604V66.8604H303.551V62.8604H299.551ZM299.551 33.6103H295.551V37.6104H299.551V33.6103ZM319.531 31.5403L321.965 34.7148L321.998 34.6896L322.03 34.6638L319.531 31.5403ZM319.891 17.2304L322.664 14.347V14.347L319.891 17.2304ZM299.551 14.9804V10.9804H295.551V14.9804H299.551ZM287.401 62.8604H291.401V4.90034H287.401H283.401V62.8604H287.401ZM287.401 4.90034V8.90034H315.211V4.90034V0.900345H287.401V4.90034ZM315.211 4.90034V8.90034C321.211 8.90034 324.792 10.4853 326.881 12.8552L329.882 10.2104L332.882 7.56554C328.731 2.85544 322.532 0.900345 315.211 0.900345V4.90034ZM329.882 10.2104L326.903 12.8805C329.202 15.4444 330.561 19.11 330.561 24.3403H334.561H338.561C338.561 17.6907 336.801 11.9363 332.86 7.54017L329.882 10.2104ZM334.561 24.3403H330.561C330.561 27.5045 329.748 30.0192 328.261 32.0759L331.501 34.4204L334.742 36.7648C337.335 33.1815 338.561 28.9762 338.561 24.3403H334.561ZM331.501 34.4204L328.228 32.1218C326.791 34.168 324.705 35.7372 321.739 36.7582L323.041 40.5404L324.344 44.3225C328.698 42.8235 332.252 40.3127 334.775 36.7189L331.501 34.4204ZM323.041 40.5404L320.519 43.6448C321.181 44.1826 321.599 44.6814 321.862 45.1183L325.291 43.0603L328.721 41.0024C327.904 39.6393 326.822 38.4581 325.564 37.4359L323.041 40.5404ZM325.291 43.0603L321.963 45.2792C322.354 45.8659 322.835 46.7903 323.378 48.1459L327.091 46.6604L330.805 45.1748C330.148 43.5304 329.429 42.0548 328.62 40.8415L325.291 43.0603ZM327.091 46.6604L323.421 48.2508L330.441 64.4508L334.111 62.8604L337.782 61.2699L330.762 45.0699L327.091 46.6604ZM334.111 62.8604V58.8604H321.511V62.8604V66.8604H334.111V62.8604ZM321.511 62.8604L325.174 61.2515L318.334 45.6815L314.671 47.2904L311.009 48.8992L317.849 64.4692L321.511 62.8604ZM314.671 47.2904L318.313 45.6351C317.587 44.0386 316.581 42.4172 315.091 41.3004L312.691 44.5004L310.291 47.7003C310.245 47.6656 310.313 47.7049 310.464 47.9178C310.614 48.1286 310.808 48.458 311.03 48.9456L314.671 47.2904ZM312.691 44.5004L315.091 41.3003C313.296 39.9538 310.988 39.6903 309.091 39.6903V43.6903V47.6903C309.735 47.6903 310.145 47.7438 310.373 47.7953C310.612 47.8491 310.517 47.8695 310.292 47.7004L312.691 44.5004ZM309.091 43.6903V39.6903H299.551V43.6903V47.6903H309.091V43.6903ZM299.551 43.6903H295.551V62.8604H299.551H303.551V43.6903H299.551ZM299.551 62.8604V58.8604H287.401V62.8604V66.8604H299.551V62.8604ZM299.551 33.6103V37.6104H312.061V33.6103V29.6104H299.551V33.6103ZM312.061 33.6103V37.6104C315.776 37.6104 319.235 36.8082 321.965 34.7148L319.531 31.5403L317.098 28.3659C316.228 29.0325 314.707 29.6104 312.061 29.6104V33.6103ZM319.531 31.5403L322.03 34.6638C325.153 32.1658 326.231 28.339 326.231 24.3403H322.231H318.231C318.231 27.0617 317.51 28.0349 317.033 28.4169L319.531 31.5403ZM322.231 24.3403H326.231C326.231 20.5505 325.326 16.9068 322.664 14.347L319.891 17.2304L317.119 20.1137C317.577 20.5539 318.231 21.6502 318.231 24.3403H322.231ZM319.891 17.2304L322.664 14.347C320.072 11.8552 316.515 10.9804 312.781 10.9804V14.9804V18.9804C315.408 18.9804 316.591 19.6055 317.119 20.1137L319.891 17.2304ZM312.781 14.9804V10.9804H299.551V14.9804V18.9804H312.781V14.9804ZM299.551 14.9804H295.551V33.6103H299.551H303.551V14.9804H299.551ZM357.256 62.8604H353.256V66.8604H357.256V62.8604ZM357.256 14.2603H361.256V10.2603H357.256V14.2603ZM339.436 14.2603H335.436V18.2603H339.436V14.2603ZM339.436 4.90034V0.900345H335.436V4.90034H339.436ZM387.136 4.90034H391.136V0.900345H387.136V4.90034ZM387.136 14.2603V18.2603H391.136V14.2603H387.136ZM369.406 14.2603V10.2603H365.406V14.2603H369.406ZM369.406 62.8604V66.8604H373.406V62.8604H369.406ZM357.256 62.8604H361.256V14.2603H357.256H353.256V62.8604H357.256ZM357.256 14.2603V10.2603H339.436V14.2603V18.2603H357.256V14.2603ZM339.436 14.2603H343.436V4.90034H339.436H335.436V14.2603H339.436ZM339.436 4.90034V8.90034H387.136V4.90034V0.900345H339.436V4.90034ZM387.136 4.90034H383.136V14.2603H387.136H391.136V4.90034H387.136ZM387.136 14.2603V10.2603H369.406V14.2603V18.2603H387.136V14.2603ZM369.406 14.2603H365.406V62.8604H369.406H373.406V14.2603H369.406ZM369.406 62.8604V58.8604H357.256V62.8604V66.8604H369.406V62.8604Z" fill="white" mask="url(#path-1-outside-1_815_2)"/>
</svg>
