<svg width="260" height="44" viewBox="0 0 260 44" fill="none" xmlns="http://www.w3.org/2000/svg">
<mask id="path-1-outside-1_815_3" maskUnits="userSpaceOnUse" x="-0.374512" y="-0.759766" width="260" height="45" fill="black">
<rect fill="white" x="-0.374512" y="-0.759766" width="260" height="45"/>
<path d="M15.1998 41.8402C12.7198 41.8402 10.3998 41.6602 8.23979 41.3002C6.11979 40.9402 4.27979 40.4202 2.71979 39.7402V32.6002C4.47979 33.3202 6.37979 33.9002 8.41979 34.3402C10.4598 34.7802 12.4598 35.0002 14.4198 35.0002C17.2198 35.0002 19.2798 34.7402 20.5998 34.2202C21.9198 33.7002 22.5798 32.5202 22.5798 30.6802C22.5798 29.5202 22.2998 28.6002 21.7398 27.9202C21.1798 27.2402 20.1998 26.6402 18.7998 26.1202C17.4398 25.5602 15.4998 24.9402 12.9798 24.2602C8.93979 23.1402 6.09979 21.7402 4.45979 20.0602C2.81979 18.3802 1.99979 16.0602 1.99979 13.1002C1.99979 9.54023 3.29979 6.80023 5.89979 4.88023C8.49979 2.96023 12.2798 2.00023 17.2398 2.00023C19.5598 2.00023 21.7198 2.16023 23.7198 2.48023C25.7198 2.80023 27.3398 3.18023 28.5798 3.62023V10.7602C25.2998 9.52023 21.8798 8.90023 18.3198 8.90023C15.7998 8.90023 13.8198 9.18023 12.3798 9.74023C10.9398 10.2602 10.2198 11.3802 10.2198 13.1002C10.2198 14.1002 10.4798 14.9002 10.9998 15.5002C11.5198 16.1002 12.3998 16.6402 13.6398 17.1202C14.9198 17.6002 16.6998 18.1402 18.9798 18.7402C22.1398 19.5802 24.5798 20.5802 26.2998 21.7402C28.0198 22.9002 29.1998 24.2202 29.8398 25.7002C30.5198 27.1802 30.8598 28.8402 30.8598 30.6802C30.8598 34.0402 29.5798 36.7402 27.0198 38.7802C24.4598 40.8202 20.5198 41.8402 15.1998 41.8402ZM53.461 41.8402C48.141 41.8402 43.921 40.5602 40.801 38.0002C37.721 35.4002 36.181 31.6402 36.181 26.7202V2.60023H44.281V26.1202C44.281 29.0802 45.081 31.3002 46.681 32.7802C48.281 34.2202 50.541 34.9402 53.461 34.9402C56.381 34.9402 58.621 34.2202 60.181 32.7802C61.781 31.3002 62.581 29.0802 62.581 26.1202V2.60023H70.681V26.7202C70.681 31.6402 69.141 35.4002 66.061 38.0002C62.981 40.5602 58.781 41.8402 53.461 41.8402ZM77.2037 41.2402V2.60023H95.3237C98.3637 2.60023 100.844 3.18023 102.764 4.34023C104.724 5.50023 106.184 7.08023 107.144 9.08023C108.104 11.0802 108.584 13.3602 108.584 15.9202C108.584 18.5202 108.024 20.8202 106.904 22.8202C105.824 24.8202 104.264 26.3802 102.224 27.5002C100.224 28.5802 97.8437 29.1202 95.0837 29.1202H85.3037V41.2402H77.2037ZM85.3037 22.7002H93.4037C95.7237 22.7002 97.4637 22.1002 98.6237 20.9002C99.8237 19.6602 100.424 18.0002 100.424 15.9202C100.424 13.6802 99.8637 11.9802 98.7437 10.8202C97.6237 9.62023 95.9437 9.02023 93.7037 9.02023H85.3037V22.7002ZM113.063 41.2402V2.60023H131.183C134.223 2.60023 136.703 3.18023 138.623 4.34023C140.583 5.50023 142.043 7.08023 143.003 9.08023C143.963 11.0802 144.443 13.3602 144.443 15.9202C144.443 18.5202 143.883 20.8202 142.763 22.8202C141.683 24.8202 140.123 26.3802 138.083 27.5002C136.083 28.5802 133.703 29.1202 130.943 29.1202H121.163V41.2402H113.063ZM121.163 22.7002H129.263C131.583 22.7002 133.323 22.1002 134.483 20.9002C135.683 19.6602 136.283 18.0002 136.283 15.9202C136.283 13.6802 135.723 11.9802 134.603 10.8202C133.483 9.62023 131.803 9.02023 129.563 9.02023H121.163V22.7002ZM166.502 41.8402C153.982 41.8402 147.722 35.2602 147.722 22.1002C147.722 15.0202 149.302 9.90023 152.462 6.74023C155.622 3.58023 160.302 2.00023 166.502 2.00023C172.702 2.00023 177.382 3.58023 180.542 6.74023C183.702 9.90023 185.282 15.0202 185.282 22.1002C185.282 35.2602 179.022 41.8402 166.502 41.8402ZM166.502 34.9402C170.142 34.9402 172.802 33.9002 174.482 31.8202C176.202 29.7002 177.062 26.4602 177.062 22.1002C177.062 17.2602 176.202 13.8602 174.482 11.9002C172.802 9.90023 170.142 8.90023 166.502 8.90023C162.862 8.90023 160.182 9.90023 158.462 11.9002C156.782 13.8602 155.942 17.2602 155.942 22.1002C155.942 26.4602 156.782 29.7002 158.462 31.8202C160.182 33.9002 162.862 34.9402 166.502 34.9402ZM190.934 41.2402V2.60023H209.474C213.914 2.60023 217.174 3.78023 219.254 6.14023C221.334 8.46023 222.374 11.6002 222.374 15.5602C222.374 18.1602 221.694 20.4002 220.334 22.2802C219.014 24.1602 217.134 25.5202 214.694 26.3602C215.334 26.8802 215.834 27.4402 216.194 28.0402C216.594 28.6402 216.994 29.4402 217.394 30.4402L222.074 41.2402H213.674L209.114 30.8602C208.714 29.9802 208.274 29.3602 207.794 29.0002C207.314 28.6402 206.514 28.4602 205.394 28.4602H199.034V41.2402H190.934ZM199.034 21.7402H207.374C209.494 21.7402 211.154 21.2802 212.354 20.3602C213.554 19.4002 214.154 17.8002 214.154 15.5602C214.154 13.4002 213.634 11.8202 212.594 10.8202C211.554 9.82023 209.974 9.32023 207.854 9.32023H199.034V21.7402ZM237.504 41.2402V8.84023H225.624V2.60023H257.424V8.84023H245.604V41.2402H237.504Z"/>
</mask>
<path d="M8.23979 41.3002L7.90495 43.272L7.91099 43.273L8.23979 41.3002ZM2.71979 39.7402H0.719785V41.0502L1.92061 41.5736L2.71979 39.7402ZM2.71979 32.6002L3.47705 30.7491L0.719785 29.6212V32.6002H2.71979ZM8.41979 34.3402L8.84146 32.3852V32.3852L8.41979 34.3402ZM20.5998 34.2202L19.8667 32.3594H19.8667L20.5998 34.2202ZM21.7398 27.9202L23.2836 26.6488V26.6488L21.7398 27.9202ZM18.7998 26.1202L18.0383 27.9696L18.0706 27.9829L18.1034 27.9951L18.7998 26.1202ZM12.9798 24.2602L12.4455 26.1876L12.4587 26.1912L12.9798 24.2602ZM5.89979 4.88023L7.08787 6.4891H7.08787L5.89979 4.88023ZM28.5798 3.62023H30.5798V2.20773L29.2486 1.73538L28.5798 3.62023ZM28.5798 10.7602L27.8725 12.631L30.5798 13.6545V10.7602H28.5798ZM12.3798 9.74023L13.0591 11.6213L13.082 11.6131L13.1047 11.6042L12.3798 9.74023ZM10.9998 15.5002L9.48841 16.8101L9.48841 16.8101L10.9998 15.5002ZM13.6398 17.1202L12.9178 18.9854L12.9276 18.9892L12.9375 18.9929L13.6398 17.1202ZM18.9798 18.7402L19.4936 16.8074L19.4888 16.8061L18.9798 18.7402ZM26.2998 21.7402L27.4181 20.0821L27.4181 20.0821L26.2998 21.7402ZM29.8398 25.7002L28.0041 26.4941L28.013 26.5147L28.0224 26.5352L29.8398 25.7002ZM27.0198 38.7802L28.2662 40.3444H28.2662L27.0198 38.7802ZM15.1998 41.8402V39.8402C12.8158 39.8402 10.6068 39.6671 8.56858 39.3274L8.23979 41.3002L7.91099 43.273C10.1928 43.6533 12.6238 43.8402 15.1998 43.8402V41.8402ZM8.23979 41.3002L8.57461 39.3285C6.57461 38.9888 4.8974 38.5077 3.51896 37.9068L2.71979 39.7402L1.92061 41.5736C3.66217 42.3328 5.66496 42.8916 7.90496 43.272L8.23979 41.3002ZM2.71979 39.7402H4.71979V32.6002H2.71979H0.719785V39.7402H2.71979ZM2.71979 32.6002L1.96252 34.4513C3.84103 35.2198 5.85438 35.8329 7.99811 36.2953L8.41979 34.3402L8.84146 32.3852C6.90519 31.9676 5.11854 31.4207 3.47705 30.7491L2.71979 32.6002ZM8.41979 34.3402L7.99811 36.2953C10.1678 36.7632 12.3092 37.0002 14.4198 37.0002V35.0002V33.0002C12.6104 33.0002 10.7518 32.7972 8.84146 32.3852L8.41979 34.3402ZM14.4198 35.0002V37.0002C17.2747 37.0002 19.6483 36.7447 21.3328 36.0811L20.5998 34.2202L19.8667 32.3594C18.9113 32.7358 17.1648 33.0002 14.4198 33.0002V35.0002ZM20.5998 34.2202L21.3328 36.0811C22.3994 35.6609 23.2633 34.9353 23.8303 33.9215C24.3766 32.9448 24.5798 31.824 24.5798 30.6802H22.5798H20.5798C20.5798 31.3765 20.4529 31.7657 20.3393 31.9689C20.2463 32.1351 20.1202 32.2596 19.8667 32.3594L20.5998 34.2202ZM22.5798 30.6802H24.5798C24.5798 29.2047 24.2208 27.7867 23.2836 26.6488L21.7398 27.9202L20.1959 29.1916C20.3788 29.4137 20.5798 29.8358 20.5798 30.6802H22.5798ZM21.7398 27.9202L23.2836 26.6488C22.3933 25.5677 21.0243 24.813 19.4962 24.2454L18.7998 26.1202L18.1034 27.9951C19.3752 28.4675 19.9663 28.9128 20.1959 29.1916L21.7398 27.9202ZM18.7998 26.1202L19.5613 24.2709C18.0852 23.6631 16.0504 23.0173 13.5008 22.3293L12.9798 24.2602L12.4587 26.1912C14.9491 26.8632 16.7944 27.4574 18.0383 27.9696L18.7998 26.1202ZM12.9798 24.2602L13.5141 22.3329C9.58426 21.2435 7.15831 19.9615 5.89093 18.6632L4.45979 20.0602L3.02864 21.4573C5.04126 23.519 8.29531 25.037 12.4455 26.1875L12.9798 24.2602ZM4.45979 20.0602L5.89093 18.6632C4.70455 17.4478 3.99979 15.681 3.99979 13.1002H1.99979H-0.000214815C-0.000214815 16.4395 0.93502 19.3126 3.02864 21.4573L4.45979 20.0602ZM1.99979 13.1002H3.99979C3.99979 10.1005 5.05559 7.98986 7.08787 6.4891L5.89979 4.88023L4.7117 3.27137C1.54398 5.61061 -0.000214815 8.98 -0.000214815 13.1002H1.99979ZM5.89979 4.88023L7.08787 6.4891C9.20388 4.92651 12.4925 4.00023 17.2398 4.00023V2.00023V0.000232697C12.0671 0.000232697 7.79569 0.993958 4.7117 3.27137L5.89979 4.88023ZM17.2398 2.00023V4.00023C19.4689 4.00023 21.5221 4.15403 23.4038 4.45511L23.7198 2.48023L24.0358 0.505352C21.9175 0.166431 19.6507 0.000232697 17.2398 0.000232697V2.00023ZM23.7198 2.48023L23.4038 4.45511C25.3405 4.76498 26.8294 5.1213 27.911 5.50509L28.5798 3.62023L29.2486 1.73538C27.8502 1.23916 26.0991 0.835484 24.0358 0.505352L23.7198 2.48023ZM28.5798 3.62023H26.5798V10.7602H28.5798H30.5798V3.62023H28.5798ZM28.5798 10.7602L29.287 8.88946C25.7775 7.56269 22.1176 6.90023 18.3198 6.90023V8.90023V10.9002C21.6419 10.9002 24.822 11.4778 27.8725 12.631L28.5798 10.7602ZM18.3198 8.90023V6.90023C15.6884 6.90023 13.426 7.18744 11.6549 7.87622L12.3798 9.74023L13.1047 11.6042C14.2135 11.173 15.9112 10.9002 18.3198 10.9002V8.90023ZM12.3798 9.74023L11.7005 7.85912C10.6321 8.24494 9.70959 8.90535 9.07743 9.88872C8.45746 10.8531 8.21979 11.9672 8.21979 13.1002H10.2198H12.2198C12.2198 12.5133 12.3421 12.2073 12.4421 12.0517C12.53 11.9151 12.6875 11.7555 13.0591 11.6213L12.3798 9.74023ZM10.2198 13.1002H8.21979C8.21979 14.4526 8.57806 15.7597 9.48841 16.8101L10.9998 15.5002L12.5112 14.1904C12.3815 14.0408 12.2198 13.7479 12.2198 13.1002H10.2198ZM10.9998 15.5002L9.48841 16.8101C10.3207 17.7704 11.5539 18.4574 12.9178 18.9854L13.6398 17.1202L14.3618 15.2551C13.2457 14.8231 12.7189 14.43 12.5112 14.1904L10.9998 15.5002ZM13.6398 17.1202L12.9375 18.9929C14.3101 19.5076 16.1649 20.0676 18.4708 20.6744L18.9798 18.7402L19.4888 16.8061C17.2347 16.2129 15.5294 15.6928 14.342 15.2476L13.6398 17.1202ZM18.9798 18.7402L18.466 20.6731C21.5199 21.4849 23.7212 22.4135 25.1815 23.3984L26.2998 21.7402L27.4181 20.0821C25.4384 18.747 22.7597 17.6756 19.4936 16.8074L18.9798 18.7402ZM26.2998 21.7402L25.1815 23.3984C26.6744 24.4052 27.5536 25.4524 28.0041 26.4941L29.8398 25.7002L31.6755 24.9064C30.8459 22.9881 29.3652 21.3952 27.4181 20.0821L26.2998 21.7402ZM29.8398 25.7002L28.0224 26.5352C28.5674 27.7213 28.8598 29.091 28.8598 30.6802H30.8598H32.8598C32.8598 28.5895 32.4722 26.6392 31.6571 24.8652L29.8398 25.7002ZM30.8598 30.6802H28.8598C28.8598 33.4501 27.8427 35.5671 25.7734 37.2161L27.0198 38.7802L28.2662 40.3444C31.3169 37.9134 32.8598 34.6304 32.8598 30.6802H30.8598ZM27.0198 38.7802L25.7734 37.2161C23.7291 38.8452 20.3293 39.8402 15.1998 39.8402V41.8402V43.8402C20.7103 43.8402 25.1905 42.7953 28.2662 40.3444L27.0198 38.7802ZM40.801 38.0002L39.5109 39.5285L39.5216 39.5375L39.5324 39.5464L40.801 38.0002ZM36.181 2.60023V0.600231H34.181V2.60023H36.181ZM44.281 2.60023H46.281V0.600231H44.281V2.60023ZM46.681 32.7802L45.323 34.2484L45.333 34.2577L45.3431 34.2668L46.681 32.7802ZM60.181 32.7802L61.5376 34.2498L61.5391 34.2484L60.181 32.7802ZM62.581 2.60023V0.600231H60.581V2.60023H62.581ZM70.681 2.60023H72.681V0.600231H70.681V2.60023ZM66.061 38.0002L67.3394 39.5383L67.3453 39.5334L67.3511 39.5285L66.061 38.0002ZM53.461 41.8402V39.8402C48.4552 39.8402 44.732 38.6386 42.0697 36.4541L40.801 38.0002L39.5324 39.5464C43.1101 42.4819 47.8268 43.8402 53.461 43.8402V41.8402ZM40.801 38.0002L42.0911 36.472C39.5597 34.3351 38.181 31.1934 38.181 26.7202H36.181H34.181C34.181 32.0871 35.8823 36.4654 39.5109 39.5285L40.801 38.0002ZM36.181 26.7202H38.181V2.60023H36.181H34.181V26.7202H36.181ZM36.181 2.60023V4.60023H44.281V2.60023V0.600231H36.181V2.60023ZM44.281 2.60023H42.281V26.1202H44.281H46.281V2.60023H44.281ZM44.281 26.1202H42.281C42.281 29.4303 43.1829 32.2689 45.323 34.2484L46.681 32.7802L48.0391 31.312C46.9792 30.3316 46.281 28.7302 46.281 26.1202H44.281ZM46.681 32.7802L45.3431 34.2668C47.4241 36.1397 50.225 36.9402 53.461 36.9402V34.9402V32.9402C50.8571 32.9402 49.138 32.3008 48.019 31.2936L46.681 32.7802ZM53.461 34.9402V36.9402C56.6933 36.9402 59.4886 36.1412 61.5376 34.2498L60.181 32.7802L58.8245 31.3106C57.7534 32.2993 56.0688 32.9402 53.461 32.9402V34.9402ZM60.181 32.7802L61.5391 34.2484C63.6792 32.2689 64.581 29.4303 64.581 26.1202H62.581H60.581C60.581 28.7302 59.8829 30.3316 58.823 31.312L60.181 32.7802ZM62.581 26.1202H64.581V2.60023H62.581H60.581V26.1202H62.581ZM62.581 2.60023V4.60023H70.681V2.60023V0.600231H62.581V2.60023ZM70.681 2.60023H68.681V26.7202H70.681H72.681V2.60023H70.681ZM70.681 26.7202H68.681C68.681 31.1934 67.3023 34.3351 64.7709 36.472L66.061 38.0002L67.3511 39.5285C70.9798 36.4654 72.681 32.0871 72.681 26.7202H70.681ZM66.061 38.0002L64.7826 36.4622C62.1649 38.6379 58.4685 39.8402 53.461 39.8402V41.8402V43.8402C59.0936 43.8402 63.7972 42.4825 67.3394 39.5383L66.061 38.0002ZM77.2037 41.2402H75.2037V43.2402H77.2037V41.2402ZM77.2037 2.60023V0.600231H75.2037V2.60023H77.2037ZM102.764 4.34023L101.729 6.05206L101.737 6.05676L101.745 6.06139L102.764 4.34023ZM107.144 9.08023L108.947 8.21477V8.21477L107.144 9.08023ZM106.904 22.8202L105.159 21.843L105.151 21.8564L105.144 21.8699L106.904 22.8202ZM102.224 27.5002L103.174 29.2601L103.186 29.2534L102.224 27.5002ZM85.3037 29.1202V27.1202H83.3037V29.1202H85.3037ZM85.3037 41.2402V43.2402H87.3037V41.2402H85.3037ZM85.3037 22.7002H83.3037V24.7002H85.3037V22.7002ZM98.6237 20.9002L97.1865 19.5094L97.1857 19.5102L98.6237 20.9002ZM98.7437 10.8202L97.2816 12.1849L97.2931 12.1972L97.3049 12.2094L98.7437 10.8202ZM85.3037 9.02023V7.02023H83.3037V9.02023H85.3037ZM77.2037 41.2402H79.2037V2.60023H77.2037H75.2037V41.2402H77.2037ZM77.2037 2.60023V4.60023H95.3237V2.60023V0.600231H77.2037V2.60023ZM95.3237 2.60023V4.60023C98.1241 4.60023 100.213 5.13616 101.729 6.05206L102.764 4.34023L103.798 2.6284C101.474 1.22431 98.6033 0.600231 95.3237 0.600231V2.60023ZM102.764 4.34023L101.745 6.06139C103.374 7.02567 104.557 8.31215 105.341 9.9457L107.144 9.08023L108.947 8.21477C107.811 5.84832 106.073 3.9748 103.782 2.61908L102.764 4.34023ZM107.144 9.08023L105.341 9.9457C106.152 11.6369 106.584 13.6138 106.584 15.9202H108.584H110.584C110.584 13.1067 110.055 10.5235 108.947 8.21477L107.144 9.08023ZM108.584 15.9202H106.584C106.584 18.2247 106.09 20.1798 105.159 21.843L106.904 22.8202L108.649 23.7974C109.957 21.4607 110.584 18.8158 110.584 15.9202H108.584ZM106.904 22.8202L105.144 21.8699C104.251 23.5227 102.972 24.8077 101.261 25.7471L102.224 27.5002L103.186 29.2534C105.555 27.9528 107.396 26.1178 108.664 23.7705L106.904 22.8202ZM102.224 27.5002L101.273 25.7404C99.6217 26.6324 97.5824 27.1202 95.0837 27.1202V29.1202V31.1202C98.105 31.1202 100.826 30.5281 103.174 29.26L102.224 27.5002ZM95.0837 29.1202V27.1202H85.3037V29.1202V31.1202H95.0837V29.1202ZM85.3037 29.1202H83.3037V41.2402H85.3037H87.3037V29.1202H85.3037ZM85.3037 41.2402V39.2402H77.2037V41.2402V43.2402H85.3037V41.2402ZM85.3037 22.7002V24.7002H93.4037V22.7002V20.7002H85.3037V22.7002ZM93.4037 22.7002V24.7002C96.0495 24.7002 98.3971 24.0122 100.062 22.2903L98.6237 20.9002L97.1857 19.5102C96.5303 20.1883 95.3978 20.7002 93.4037 20.7002V22.7002ZM98.6237 20.9002L100.061 22.2911C101.694 20.6038 102.424 18.4059 102.424 15.9202H100.424H98.4237C98.4237 17.5945 97.9537 18.7166 97.1865 19.5094L98.6237 20.9002ZM100.424 15.9202H102.424C102.424 13.3662 101.783 11.0887 100.182 9.43104L98.7437 10.8202L97.3049 12.2094C97.9444 12.8718 98.4237 13.9943 98.4237 15.9202H100.424ZM98.7437 10.8202L100.206 9.4556C98.5851 7.71915 96.2887 7.02023 93.7037 7.02023V9.02023V11.0202C95.5987 11.0202 96.6623 11.5213 97.2816 12.1849L98.7437 10.8202ZM93.7037 9.02023V7.02023H85.3037V9.02023V11.0202H93.7037V9.02023ZM85.3037 9.02023H83.3037V22.7002H85.3037H87.3037V9.02023H85.3037ZM113.063 41.2402H111.063V43.2402H113.063V41.2402ZM113.063 2.60023V0.600231H111.063V2.60023H113.063ZM138.623 4.34023L137.589 6.05206L137.597 6.05676L137.604 6.06139L138.623 4.34023ZM143.003 9.08023L144.806 8.21477V8.21477L143.003 9.08023ZM142.763 22.8202L141.018 21.843L141.011 21.8564L141.003 21.8699L142.763 22.8202ZM138.083 27.5002L139.033 29.2601L139.046 29.2534L138.083 27.5002ZM121.163 29.1202V27.1202H119.163V29.1202H121.163ZM121.163 41.2402V43.2402H123.163V41.2402H121.163ZM121.163 22.7002H119.163V24.7002H121.163V22.7002ZM134.483 20.9002L133.046 19.5094L133.045 19.5102L134.483 20.9002ZM134.603 10.8202L133.141 12.1849L133.153 12.1972L133.164 12.2094L134.603 10.8202ZM121.163 9.02023V7.02023H119.163V9.02023H121.163ZM113.063 41.2402H115.063V2.60023H113.063H111.063V41.2402H113.063ZM113.063 2.60023V4.60023H131.183V2.60023V0.600231H113.063V2.60023ZM131.183 2.60023V4.60023C133.983 4.60023 136.073 5.13616 137.589 6.05206L138.623 4.34023L139.657 2.6284C137.333 1.22431 134.463 0.600231 131.183 0.600231V2.60023ZM138.623 4.34023L137.604 6.06139C139.234 7.02567 140.416 8.31215 141.2 9.9457L143.003 9.08023L144.806 8.21477C143.67 5.84832 141.932 3.9748 139.642 2.61908L138.623 4.34023ZM143.003 9.08023L141.2 9.9457C142.012 11.6369 142.443 13.6138 142.443 15.9202H144.443H146.443C146.443 13.1067 145.914 10.5235 144.806 8.21477L143.003 9.08023ZM144.443 15.9202H142.443C142.443 18.2247 141.949 20.1798 141.018 21.843L142.763 22.8202L144.508 23.7974C145.817 21.4607 146.443 18.8158 146.443 15.9202H144.443ZM142.763 22.8202L141.003 21.8699C140.111 23.5227 138.832 24.8077 137.121 25.7471L138.083 27.5002L139.046 29.2534C141.415 27.9528 143.255 26.1178 144.523 23.7705L142.763 22.8202ZM138.083 27.5002L137.133 25.7404C135.481 26.6324 133.442 27.1202 130.943 27.1202V29.1202V31.1202C133.964 31.1202 136.685 30.5281 139.033 29.26L138.083 27.5002ZM130.943 29.1202V27.1202H121.163V29.1202V31.1202H130.943V29.1202ZM121.163 29.1202H119.163V41.2402H121.163H123.163V29.1202H121.163ZM121.163 41.2402V39.2402H113.063V41.2402V43.2402H121.163V41.2402ZM121.163 22.7002V24.7002H129.263V22.7002V20.7002H121.163V22.7002ZM129.263 22.7002V24.7002C131.909 24.7002 134.257 24.0122 135.921 22.2903L134.483 20.9002L133.045 19.5102C132.39 20.1883 131.257 20.7002 129.263 20.7002V22.7002ZM134.483 20.9002L135.92 22.2911C137.553 20.6038 138.283 18.4059 138.283 15.9202H136.283H134.283C134.283 17.5945 133.813 18.7166 133.046 19.5094L134.483 20.9002ZM136.283 15.9202H138.283C138.283 13.3662 137.642 11.0887 136.042 9.43104L134.603 10.8202L133.164 12.2094C133.804 12.8718 134.283 13.9943 134.283 15.9202H136.283ZM134.603 10.8202L136.065 9.4556C134.445 7.71915 132.148 7.02023 129.563 7.02023V9.02023V11.0202C131.458 11.0202 132.522 11.5213 133.141 12.1849L134.603 10.8202ZM129.563 9.02023V7.02023H121.163V9.02023V11.0202H129.563V9.02023ZM121.163 9.02023H119.163V22.7002H121.163H123.163V9.02023H121.163ZM152.462 6.74023L151.048 5.32602V5.32602L152.462 6.74023ZM180.542 6.74023L181.957 5.32602V5.32602L180.542 6.74023ZM174.482 31.8202L172.929 30.5602L172.927 30.5636L174.482 31.8202ZM174.482 11.9002L172.951 13.1866L172.965 13.2032L172.979 13.2194L174.482 11.9002ZM158.462 11.9002L156.946 10.5962L156.944 10.5986L158.462 11.9002ZM158.462 31.8202L156.895 33.0624L156.908 33.0787L156.921 33.0948L158.462 31.8202ZM166.502 41.8402V39.8402C160.577 39.8402 156.494 38.2881 153.866 35.5267C151.222 32.7466 149.722 28.3961 149.722 22.1002H147.722H145.722C145.722 28.9643 147.353 34.4838 150.968 38.2838C154.601 42.1024 159.908 43.8402 166.502 43.8402V41.8402ZM147.722 22.1002H149.722C149.722 15.2512 151.261 10.7705 153.877 8.15445L152.462 6.74023L151.048 5.32602C147.344 9.02993 145.722 14.7893 145.722 22.1002H147.722ZM152.462 6.74023L153.877 8.15445C156.536 5.49529 160.624 4.00023 166.502 4.00023V2.00023V0.000232697C159.981 0.000232697 154.709 1.66517 151.048 5.32602L152.462 6.74023ZM166.502 2.00023V4.00023C172.381 4.00023 176.469 5.49529 179.128 8.15445L180.542 6.74023L181.957 5.32602C178.296 1.66517 173.024 0.000232697 166.502 0.000232697V2.00023ZM180.542 6.74023L179.128 8.15445C181.744 10.7705 183.282 15.2512 183.282 22.1002H185.282H187.282C187.282 14.7893 185.661 9.02993 181.957 5.32602L180.542 6.74023ZM185.282 22.1002H183.282C183.282 28.3961 181.783 32.7466 179.138 35.5267C176.511 38.2881 172.428 39.8402 166.502 39.8402V41.8402V43.8402C173.097 43.8402 178.404 42.1024 182.036 38.2838C185.652 34.4838 187.282 28.9643 187.282 22.1002H185.282ZM166.502 34.9402V36.9402C170.515 36.9402 173.854 35.7819 176.038 33.0769L174.482 31.8202L172.927 30.5636C171.751 32.0186 169.77 32.9402 166.502 32.9402V34.9402ZM174.482 31.8202L176.036 33.0803C178.173 30.4459 179.062 26.6628 179.062 22.1002H177.062H175.062C175.062 26.2577 174.232 28.9545 172.929 30.5602L174.482 31.8202ZM177.062 22.1002H179.062C179.062 17.1421 178.205 13.1102 175.986 10.5811L174.482 11.9002L172.979 13.2194C174.2 14.6102 175.062 17.3783 175.062 22.1002H177.062ZM174.482 11.9002L176.014 10.6138C173.821 8.00348 170.49 6.90023 166.502 6.90023V8.90023V10.9002C169.795 10.9002 171.784 11.797 172.951 13.1866L174.482 11.9002ZM166.502 8.90023V6.90023C162.511 6.90023 159.175 8.00478 156.946 10.5962L158.462 11.9002L159.979 13.2043C161.19 11.7957 163.214 10.9002 166.502 10.9002V8.90023ZM158.462 11.9002L156.944 10.5986C154.778 13.126 153.942 17.1491 153.942 22.1002H155.942H157.942C157.942 17.3713 158.787 14.5945 159.981 13.2018L158.462 11.9002ZM155.942 22.1002H153.942C153.942 26.6548 154.809 30.4301 156.895 33.0624L158.462 31.8202L160.03 30.5781C158.756 28.9704 157.942 26.2657 157.942 22.1002H155.942ZM158.462 31.8202L156.921 33.0948C159.142 35.7808 162.487 36.9402 166.502 36.9402V34.9402V32.9402C163.238 32.9402 161.223 32.0197 160.004 30.5457L158.462 31.8202ZM190.934 41.2402H188.934V43.2402H190.934V41.2402ZM190.934 2.60023V0.600231H188.934V2.60023H190.934ZM219.254 6.14023L217.754 7.46264L217.759 7.469L217.765 7.47532L219.254 6.14023ZM220.334 22.2802L218.714 21.108L218.705 21.1194L218.697 21.131L220.334 22.2802ZM214.694 26.3602L214.043 24.4692L210.638 25.6415L213.433 27.9125L214.694 26.3602ZM216.194 28.0402L214.479 29.0692L214.504 29.11L214.53 29.1496L216.194 28.0402ZM217.394 30.4402L215.537 31.183L215.548 31.2094L215.559 31.2354L217.394 30.4402ZM222.074 41.2402V43.2402H225.121L223.909 40.445L222.074 41.2402ZM213.674 41.2402L211.843 42.0446L212.368 43.2402H213.674V41.2402ZM209.114 30.8602L210.945 30.0558L210.94 30.0442L210.935 30.0326L209.114 30.8602ZM207.794 29.0002L208.994 27.4002V27.4002L207.794 29.0002ZM199.034 28.4602V26.4602H197.034V28.4602H199.034ZM199.034 41.2402V43.2402H201.034V41.2402H199.034ZM199.034 21.7402H197.034V23.7402H199.034V21.7402ZM212.354 20.3602L213.571 21.9474L213.587 21.9349L213.604 21.922L212.354 20.3602ZM212.594 10.8202L213.98 9.37857V9.37857L212.594 10.8202ZM199.034 9.32023V7.32023H197.034V9.32023H199.034ZM190.934 41.2402H192.934V2.60023H190.934H188.934V41.2402H190.934ZM190.934 2.60023V4.60023H209.474V2.60023V0.600231H190.934V2.60023ZM209.474 2.60023V4.60023C213.584 4.60023 216.189 5.68769 217.754 7.46264L219.254 6.14023L220.755 4.81783C218.159 1.87278 214.244 0.600231 209.474 0.600231V2.60023ZM219.254 6.14023L217.765 7.47532C219.434 9.33726 220.374 11.955 220.374 15.5602H222.374H224.374C224.374 11.2454 223.234 7.5832 220.743 4.80514L219.254 6.14023ZM222.374 15.5602H220.374C220.374 17.7923 219.798 19.6097 218.714 21.108L220.334 22.2802L221.955 23.4525C223.591 21.1908 224.374 18.5281 224.374 15.5602H222.374ZM220.334 22.2802L218.697 21.131C217.649 22.624 216.136 23.7487 214.043 24.4692L214.694 26.3602L215.345 28.2513C218.132 27.2918 220.379 25.6964 221.971 23.4295L220.334 22.2802ZM214.694 26.3602L213.433 27.9125C213.924 28.3114 214.258 28.7008 214.479 29.0692L216.194 28.0402L217.909 27.0112C217.41 26.1797 216.744 25.4491 215.955 24.808L214.694 26.3602ZM216.194 28.0402L214.53 29.1496C214.826 29.593 215.166 30.2552 215.537 31.183L217.394 30.4402L219.251 29.6975C218.822 28.6253 218.363 27.6875 217.858 26.9308L216.194 28.0402ZM217.394 30.4402L215.559 31.2354L220.239 42.0354L222.074 41.2402L223.909 40.445L219.229 29.645L217.394 30.4402ZM222.074 41.2402V39.2402H213.674V41.2402V43.2402H222.074V41.2402ZM213.674 41.2402L215.505 40.4358L210.945 30.0558L209.114 30.8602L207.283 31.6646L211.843 42.0446L213.674 41.2402ZM209.114 30.8602L210.935 30.0326C210.472 29.0144 209.859 28.0487 208.994 27.4002L207.794 29.0002L206.594 30.6002C206.69 30.6718 206.956 30.9461 207.293 31.6878L209.114 30.8602ZM207.794 29.0002L208.994 27.4002C207.976 26.637 206.623 26.4602 205.394 26.4602V28.4602V30.4602C205.856 30.4602 206.181 30.4982 206.395 30.5465C206.615 30.5958 206.647 30.6398 206.594 30.6002L207.794 29.0002ZM205.394 28.4602V26.4602H199.034V28.4602V30.4602H205.394V28.4602ZM199.034 28.4602H197.034V41.2402H199.034H201.034V28.4602H199.034ZM199.034 41.2402V39.2402H190.934V41.2402V43.2402H199.034V41.2402ZM199.034 21.7402V23.7402H207.374V21.7402V19.7402H199.034V21.7402ZM207.374 21.7402V23.7402C209.761 23.7402 211.906 23.2241 213.571 21.9474L212.354 20.3602L211.137 18.773C210.403 19.3363 209.227 19.7402 207.374 19.7402V21.7402ZM212.354 20.3602L213.604 21.922C215.465 20.433 216.154 18.1196 216.154 15.5602H214.154H212.154C212.154 17.4809 211.644 18.3675 211.105 18.7985L212.354 20.3602ZM214.154 15.5602H216.154C216.154 13.1253 215.571 10.9084 213.98 9.37857L212.594 10.8202L211.208 12.2619C211.697 12.732 212.154 13.6752 212.154 15.5602H214.154ZM212.594 10.8202L213.98 9.37857C212.425 7.88266 210.251 7.32023 207.854 7.32023V9.32023V11.3202C209.698 11.3202 210.684 11.7578 211.208 12.2619L212.594 10.8202ZM207.854 9.32023V7.32023H199.034V9.32023V11.3202H207.854V9.32023ZM199.034 9.32023H197.034V21.7402H199.034H201.034V9.32023H199.034ZM237.504 41.2402H235.504V43.2402H237.504V41.2402ZM237.504 8.84023H239.504V6.84023H237.504V8.84023ZM225.624 8.84023H223.624V10.8402H225.624V8.84023ZM225.624 2.60023V0.600231H223.624V2.60023H225.624ZM257.424 2.60023H259.424V0.600231H257.424V2.60023ZM257.424 8.84023V10.8402H259.424V8.84023H257.424ZM245.604 8.84023V6.84023H243.604V8.84023H245.604ZM245.604 41.2402V43.2402H247.604V41.2402H245.604ZM237.504 41.2402H239.504V8.84023H237.504H235.504V41.2402H237.504ZM237.504 8.84023V6.84023H225.624V8.84023V10.8402H237.504V8.84023ZM225.624 8.84023H227.624V2.60023H225.624H223.624V8.84023H225.624ZM225.624 2.60023V4.60023H257.424V2.60023V0.600231H225.624V2.60023ZM257.424 2.60023H255.424V8.84023H257.424H259.424V2.60023H257.424ZM257.424 8.84023V6.84023H245.604V8.84023V10.8402H257.424V8.84023ZM245.604 8.84023H243.604V41.2402H245.604H247.604V8.84023H245.604ZM245.604 41.2402V39.2402H237.504V41.2402V43.2402H245.604V41.2402Z" fill="white" mask="url(#path-1-outside-1_815_3)"/>
</svg>
