<svg width="553" height="93" viewBox="0 0 553 93" fill="none" xmlns="http://www.w3.org/2000/svg">
<mask id="path-1-outside-1_744_4" maskUnits="userSpaceOnUse" x="0" y="0" width="553" height="93" fill="black">
<rect fill="white" width="553" height="93"/>
<path d="M32.16 88.992C26.8693 88.992 21.92 88.608 17.312 87.84C12.7893 87.072 8.864 85.9627 5.536 84.512V69.28C9.29067 70.816 13.344 72.0533 17.696 72.992C22.048 73.9307 26.3147 74.4 30.496 74.4C36.4693 74.4 40.864 73.8453 43.68 72.736C46.496 71.6267 47.904 69.1093 47.904 65.184C47.904 62.7093 47.3067 60.7467 46.112 59.296C44.9173 57.8453 42.8267 56.5653 39.84 55.456C36.9387 54.2613 32.8 52.9387 27.424 51.488C18.8053 49.0987 12.7467 46.112 9.248 42.528C5.74933 38.944 4 33.9947 4 27.68C4 20.0853 6.77333 14.24 12.32 10.144C17.8667 6.048 25.9307 4 36.512 4C41.4613 4 46.0693 4.34133 50.336 5.024C54.6027 5.70667 58.0587 6.51734 60.704 7.456V22.688C53.7067 20.0427 46.4107 18.72 38.816 18.72C33.44 18.72 29.216 19.3173 26.144 20.512C23.072 21.6213 21.536 24.0107 21.536 27.68C21.536 29.8133 22.0907 31.52 23.2 32.8C24.3093 34.08 26.1867 35.232 28.832 36.256C31.5627 37.28 35.36 38.432 40.224 39.712C46.9653 41.504 52.1707 43.6373 55.84 46.112C59.5093 48.5867 62.0267 51.4027 63.392 54.56C64.8427 57.7173 65.568 61.2587 65.568 65.184C65.568 72.352 62.8373 78.112 57.376 82.464C51.9147 86.816 43.5093 88.992 32.16 88.992ZM113.784 88.992C102.435 88.992 93.432 86.2613 86.776 80.8C80.2053 75.2533 76.92 67.232 76.92 56.736V5.28H94.2V55.456C94.2 61.7707 95.9067 66.5067 99.32 69.664C102.733 72.736 107.555 74.272 113.784 74.272C120.013 74.272 124.792 72.736 128.12 69.664C131.533 66.5067 133.24 61.7707 133.24 55.456V5.28H150.52V56.736C150.52 67.232 147.235 75.2533 140.664 80.8C134.093 86.2613 125.133 88.992 113.784 88.992ZM164.435 87.712V5.28H203.091C209.576 5.28 214.867 6.51733 218.963 8.992C223.144 11.4667 226.259 14.8373 228.307 19.104C230.355 23.3707 231.379 28.2347 231.379 33.696C231.379 39.2427 230.184 44.1493 227.795 48.416C225.491 52.6827 222.163 56.0107 217.811 58.4C213.544 60.704 208.467 61.856 202.579 61.856H181.715V87.712H164.435ZM181.715 48.16H198.995C203.944 48.16 207.656 46.88 210.131 44.32C212.691 41.6747 213.971 38.1333 213.971 33.696C213.971 28.9173 212.776 25.2907 210.387 22.816C207.998 20.256 204.414 18.976 199.635 18.976H181.715V48.16ZM240.935 87.712V5.28H279.591C286.076 5.28 291.367 6.51733 295.463 8.992C299.644 11.4667 302.759 14.8373 304.807 19.104C306.855 23.3707 307.879 28.2347 307.879 33.696C307.879 39.2427 306.684 44.1493 304.295 48.416C301.991 52.6827 298.663 56.0107 294.311 58.4C290.044 60.704 284.967 61.856 279.079 61.856H258.215V87.712H240.935ZM258.215 48.16H275.495C280.444 48.16 284.156 46.88 286.631 44.32C289.191 41.6747 290.471 38.1333 290.471 33.696C290.471 28.9173 289.276 25.2907 286.887 22.816C284.498 20.256 280.914 18.976 276.135 18.976H258.215V48.16ZM354.939 88.992C328.23 88.992 314.875 74.9547 314.875 46.88C314.875 31.776 318.246 20.8533 324.987 14.112C331.728 7.37067 341.712 4 354.939 4C368.166 4 378.15 7.37067 384.891 14.112C391.632 20.8533 395.003 31.776 395.003 46.88C395.003 74.9547 381.648 88.992 354.939 88.992ZM354.939 74.272C362.704 74.272 368.379 72.0533 371.963 67.616C375.632 63.0933 377.467 56.1813 377.467 46.88C377.467 36.5547 375.632 29.3013 371.963 25.12C368.379 20.8533 362.704 18.72 354.939 18.72C347.174 18.72 341.456 20.8533 337.787 25.12C334.203 29.3013 332.411 36.5547 332.411 46.88C332.411 56.1813 334.203 63.0933 337.787 67.616C341.456 72.0533 347.174 74.272 354.939 74.272ZM407.06 87.712V5.28H446.612C456.084 5.28 463.039 7.79733 467.476 12.832C471.913 17.7813 474.132 24.48 474.132 32.928C474.132 38.4747 472.681 43.2533 469.78 47.264C466.964 51.2747 462.953 54.176 457.748 55.968C459.113 57.0773 460.18 58.272 460.948 59.552C461.801 60.832 462.655 62.5387 463.508 64.672L473.492 87.712H455.572L445.844 65.568C444.991 63.6907 444.052 62.368 443.028 61.6C442.004 60.832 440.297 60.448 437.908 60.448H424.34V87.712H407.06ZM424.34 46.112H442.132C446.655 46.112 450.196 45.1307 452.756 43.168C455.316 41.12 456.596 37.7067 456.596 32.928C456.596 28.32 455.487 24.9493 453.268 22.816C451.049 20.6827 447.679 19.616 443.156 19.616H424.34V46.112ZM506.409 87.712V18.592H481.065V5.28H548.905V18.592H523.689V87.712H506.409Z"/>
</mask>
<path d="M32.16 88.992C26.8693 88.992 21.92 88.608 17.312 87.84C12.7893 87.072 8.864 85.9627 5.536 84.512V69.28C9.29067 70.816 13.344 72.0533 17.696 72.992C22.048 73.9307 26.3147 74.4 30.496 74.4C36.4693 74.4 40.864 73.8453 43.68 72.736C46.496 71.6267 47.904 69.1093 47.904 65.184C47.904 62.7093 47.3067 60.7467 46.112 59.296C44.9173 57.8453 42.8267 56.5653 39.84 55.456C36.9387 54.2613 32.8 52.9387 27.424 51.488C18.8053 49.0987 12.7467 46.112 9.248 42.528C5.74933 38.944 4 33.9947 4 27.68C4 20.0853 6.77333 14.24 12.32 10.144C17.8667 6.048 25.9307 4 36.512 4C41.4613 4 46.0693 4.34133 50.336 5.024C54.6027 5.70667 58.0587 6.51734 60.704 7.456V22.688C53.7067 20.0427 46.4107 18.72 38.816 18.72C33.44 18.72 29.216 19.3173 26.144 20.512C23.072 21.6213 21.536 24.0107 21.536 27.68C21.536 29.8133 22.0907 31.52 23.2 32.8C24.3093 34.08 26.1867 35.232 28.832 36.256C31.5627 37.28 35.36 38.432 40.224 39.712C46.9653 41.504 52.1707 43.6373 55.84 46.112C59.5093 48.5867 62.0267 51.4027 63.392 54.56C64.8427 57.7173 65.568 61.2587 65.568 65.184C65.568 72.352 62.8373 78.112 57.376 82.464C51.9147 86.816 43.5093 88.992 32.16 88.992ZM113.784 88.992C102.435 88.992 93.432 86.2613 86.776 80.8C80.2053 75.2533 76.92 67.232 76.92 56.736V5.28H94.2V55.456C94.2 61.7707 95.9067 66.5067 99.32 69.664C102.733 72.736 107.555 74.272 113.784 74.272C120.013 74.272 124.792 72.736 128.12 69.664C131.533 66.5067 133.24 61.7707 133.24 55.456V5.28H150.52V56.736C150.52 67.232 147.235 75.2533 140.664 80.8C134.093 86.2613 125.133 88.992 113.784 88.992ZM164.435 87.712V5.28H203.091C209.576 5.28 214.867 6.51733 218.963 8.992C223.144 11.4667 226.259 14.8373 228.307 19.104C230.355 23.3707 231.379 28.2347 231.379 33.696C231.379 39.2427 230.184 44.1493 227.795 48.416C225.491 52.6827 222.163 56.0107 217.811 58.4C213.544 60.704 208.467 61.856 202.579 61.856H181.715V87.712H164.435ZM181.715 48.16H198.995C203.944 48.16 207.656 46.88 210.131 44.32C212.691 41.6747 213.971 38.1333 213.971 33.696C213.971 28.9173 212.776 25.2907 210.387 22.816C207.998 20.256 204.414 18.976 199.635 18.976H181.715V48.16ZM240.935 87.712V5.28H279.591C286.076 5.28 291.367 6.51733 295.463 8.992C299.644 11.4667 302.759 14.8373 304.807 19.104C306.855 23.3707 307.879 28.2347 307.879 33.696C307.879 39.2427 306.684 44.1493 304.295 48.416C301.991 52.6827 298.663 56.0107 294.311 58.4C290.044 60.704 284.967 61.856 279.079 61.856H258.215V87.712H240.935ZM258.215 48.16H275.495C280.444 48.16 284.156 46.88 286.631 44.32C289.191 41.6747 290.471 38.1333 290.471 33.696C290.471 28.9173 289.276 25.2907 286.887 22.816C284.498 20.256 280.914 18.976 276.135 18.976H258.215V48.16ZM354.939 88.992C328.23 88.992 314.875 74.9547 314.875 46.88C314.875 31.776 318.246 20.8533 324.987 14.112C331.728 7.37067 341.712 4 354.939 4C368.166 4 378.15 7.37067 384.891 14.112C391.632 20.8533 395.003 31.776 395.003 46.88C395.003 74.9547 381.648 88.992 354.939 88.992ZM354.939 74.272C362.704 74.272 368.379 72.0533 371.963 67.616C375.632 63.0933 377.467 56.1813 377.467 46.88C377.467 36.5547 375.632 29.3013 371.963 25.12C368.379 20.8533 362.704 18.72 354.939 18.72C347.174 18.72 341.456 20.8533 337.787 25.12C334.203 29.3013 332.411 36.5547 332.411 46.88C332.411 56.1813 334.203 63.0933 337.787 67.616C341.456 72.0533 347.174 74.272 354.939 74.272ZM407.06 87.712V5.28H446.612C456.084 5.28 463.039 7.79733 467.476 12.832C471.913 17.7813 474.132 24.48 474.132 32.928C474.132 38.4747 472.681 43.2533 469.78 47.264C466.964 51.2747 462.953 54.176 457.748 55.968C459.113 57.0773 460.18 58.272 460.948 59.552C461.801 60.832 462.655 62.5387 463.508 64.672L473.492 87.712H455.572L445.844 65.568C444.991 63.6907 444.052 62.368 443.028 61.6C442.004 60.832 440.297 60.448 437.908 60.448H424.34V87.712H407.06ZM424.34 46.112H442.132C446.655 46.112 450.196 45.1307 452.756 43.168C455.316 41.12 456.596 37.7067 456.596 32.928C456.596 28.32 455.487 24.9493 453.268 22.816C451.049 20.6827 447.679 19.616 443.156 19.616H424.34V46.112ZM506.409 87.712V18.592H481.065V5.28H548.905V18.592H523.689V87.712H506.409Z" stroke="white" stroke-width="8" mask="url(#path-1-outside-1_744_4)"/>
</svg>
