<svg width="146" height="132" viewBox="0 0 146 132" fill="none" xmlns="http://www.w3.org/2000/svg">
<path d="M131.4 10.2396C132.557 10.2547 133.662 10.722 134.48 11.5417C135.299 12.3614 135.765 13.4688 135.78 14.628V117.372C135.765 118.531 135.299 119.639 134.48 120.458C133.662 121.278 132.557 121.745 131.4 121.76H14.6C13.4431 121.745 12.3378 121.278 11.5196 120.458C10.7014 119.639 10.2351 118.531 10.22 117.372V14.628C10.2351 13.4688 10.7014 12.3614 11.5196 11.5417C12.3378 10.722 13.4431 10.2547 14.6 10.2396H131.4ZM131.4 0H14.6C10.7313 0.0113841 7.02436 1.5562 4.28879 4.29701C1.55322 7.03783 0.0113624 10.7519 0 14.628V117.372C0.0113624 121.248 1.55322 124.962 4.28879 127.703C7.02436 130.444 10.7313 131.989 14.6 132H131.4C135.269 131.989 138.976 130.444 141.711 127.703C144.447 124.962 145.989 121.248 146 117.372V14.628C145.989 10.7519 144.447 7.03783 141.711 4.29701C138.976 1.5562 135.269 0.0113841 131.4 0ZM56.7429 38.2441H46.5229C46.3293 38.2441 46.1436 38.3212 46.0067 38.4584C45.8698 38.5955 45.7929 38.7815 45.7929 38.9755V60.9175C45.7929 61.1115 45.8698 61.2975 46.0067 61.4347C46.1436 61.5718 46.3293 61.6489 46.5229 61.6489H56.7429C56.9365 61.6489 57.1222 61.5718 57.2591 61.4347C57.396 61.2975 57.4729 61.1115 57.4729 60.9175V38.9755C57.4729 38.7815 57.396 38.5955 57.2591 38.4584C57.1222 38.3212 56.9365 38.2441 56.7429 38.2441ZM99.4735 38.2441H89.2535C89.0598 38.2441 88.8742 38.3212 88.7373 38.4584C88.6004 38.5955 88.5235 38.7815 88.5235 38.9755V60.9175C88.5235 61.1115 88.6004 61.2975 88.7373 61.4347C88.8742 61.5718 89.0598 61.6489 89.2535 61.6489H99.4735C99.6671 61.6489 99.8527 61.5718 99.9896 61.4347C100.127 61.2975 100.203 61.1115 100.203 60.9175V38.9755C100.203 38.8794 100.185 38.7842 100.148 38.6955C100.111 38.6067 100.057 38.526 99.9894 38.4581C99.9215 38.3902 99.841 38.3363 99.7523 38.2996C99.6637 38.2629 99.5694 38.244 99.4735 38.2441ZM98.512 79.5192C98.3309 79.4681 98.137 79.4898 97.9715 79.5797C97.806 79.6696 97.682 79.8205 97.6258 80.0004C96.0337 85.0997 90.6375 95.3159 73.0044 95.3159C55.3515 95.3159 49.9576 85.0939 48.3683 79.9924C48.3123 79.8123 48.1883 79.6612 48.0229 79.5712C47.8574 79.4812 47.6634 79.4594 47.4821 79.5104L39.7368 81.6358C39.6429 81.6611 39.555 81.705 39.4782 81.7648C39.4015 81.8246 39.3374 81.8992 39.2898 81.9841C39.2422 82.0691 39.212 82.1627 39.201 82.2596C39.19 82.3564 39.1985 82.4544 39.2258 82.5479C42.5108 93.4509 53.0228 104.824 73.0058 104.824C92.9721 104.824 103.476 93.4574 106.77 82.5618C106.797 82.4683 106.806 82.3703 106.795 82.2735C106.784 82.1766 106.753 82.083 106.706 81.998C106.658 81.9131 106.594 81.8385 106.517 81.7787C106.441 81.7189 106.353 81.675 106.259 81.6497L98.512 79.5192Z" fill="#666666"/>
</svg>
