<svg width="205" height="135" viewBox="0 0 205 135" fill="none" xmlns="http://www.w3.org/2000/svg">
<path d="M112.337 51.4911C110.078 49.6117 98.3447 41.4922 90.4953 37.983C72.9239 30.1286 63.3076 30.0464 63.3076 30.0464C63.3076 30.0464 74.489 38.7995 84.1907 48.0681C90.3881 53.9384 96.0882 60.312 101.233 67.1235C104.537 71.9078 107.334 77.0451 107.806 79.0661L91.1111 90.6663C91.0198 90.7295 90.9485 90.8176 90.906 90.9201C90.8634 91.0227 90.8512 91.1353 90.871 91.2446C90.8907 91.3539 90.9415 91.4551 91.0172 91.5363C91.093 91.6175 91.1905 91.6752 91.2982 91.7024L138.155 103.657C138.237 103.678 138.321 103.681 138.404 103.666C138.486 103.651 138.565 103.618 138.633 103.57C138.702 103.521 138.759 103.459 138.801 103.386C138.843 103.313 138.868 103.232 138.876 103.149L143.242 55.6119C143.252 55.502 143.231 55.3916 143.18 55.2936C143.129 55.1956 143.052 55.1141 142.956 55.0587C142.861 55.0032 142.752 54.9761 142.642 54.9806C142.531 54.9851 142.425 55.021 142.334 55.0841L126.163 66.3183C123.672 63.2337 119.411 57.3791 112.337 51.4911Z" fill="#666666"/>
<path d="M188.933 65.6767H152.836L151.972 75.0909H171.149V125.586H75.5954V75.0909H93.9535C93.5304 74.4338 93.0879 73.7596 92.6079 73.0651C91.8758 72.0079 89.703 69.2306 86.5726 65.6767H57.7905C49.187 65.6767 41.7435 72.7455 41.7435 81.4668V119.158C41.7435 127.879 49.187 135 57.7905 135H188.933C197.536 135 205 128.243 205 119.521V81.8303C204.932 77.5829 203.221 73.5269 200.225 70.5147C197.228 67.5024 193.181 65.7683 188.933 65.6767ZM56.7126 76.7963C58.0242 76.7548 59.3183 77.1058 60.4291 77.8043C61.5399 78.5027 62.4168 79.5168 62.9474 80.7167C63.478 81.9165 63.6382 83.2474 63.4074 84.5388C63.1767 85.8302 62.5655 87.0233 61.6521 87.9653C60.7388 88.9072 59.5649 89.5551 58.2809 89.8258C56.9969 90.0966 55.6613 89.978 54.4452 89.4851C53.2291 88.9922 52.1879 88.1476 51.455 87.0594C50.7221 85.9712 50.3309 84.689 50.3316 83.3771C50.3053 81.6587 50.9627 80.0001 52.1592 78.766C53.3558 77.532 54.9936 76.8235 56.7126 76.7963ZM52.6923 106.199C52.2654 106.483 51.7637 106.635 51.2504 106.635C50.7372 106.635 50.2354 106.483 49.8085 106.199C49.4521 105.962 49.1598 105.641 48.9576 105.264C48.7554 104.887 48.6495 104.466 48.6495 104.038C48.6495 103.61 48.7554 103.189 48.9576 102.812C49.1598 102.435 49.4521 102.114 49.8085 101.877C50.2354 101.592 50.7372 101.44 51.2504 101.44C51.7637 101.44 52.2654 101.592 52.6923 101.877C53.0489 102.114 53.3414 102.435 53.5437 102.812C53.746 103.189 53.8519 103.61 53.8519 104.038C53.8519 104.466 53.746 104.887 53.5437 105.264C53.3414 105.641 53.0489 105.962 52.6923 106.199ZM58.8749 110.933C58.5656 111.397 58.1152 111.75 57.5903 111.938C57.0654 112.126 56.4938 112.141 55.96 111.979C55.4261 111.818 54.9585 111.489 54.6261 111.041C54.2937 110.593 54.1143 110.051 54.1143 109.493C54.1143 108.936 54.2937 108.393 54.6261 107.945C54.9585 107.497 55.4261 107.168 55.96 107.007C56.4938 106.845 57.0654 106.86 57.5903 107.048C58.1152 107.237 58.5656 107.589 58.8749 108.053C59.1607 108.479 59.3134 108.98 59.3134 109.493C59.3134 110.006 59.1607 110.508 58.8749 110.933ZM58.8749 100.023C58.5657 100.487 58.1153 100.839 57.5904 101.028C57.0654 101.216 56.4938 101.231 55.9599 101.069C55.4261 100.908 54.9583 100.579 54.6259 100.131C54.2935 99.6833 54.114 99.1405 54.114 98.5829C54.114 98.0253 54.2935 97.4825 54.6259 97.0348C54.9583 96.5871 55.4261 96.2581 55.9599 96.0967C56.4938 95.9352 57.0654 95.9498 57.5904 96.1382C58.1153 96.3267 58.5657 96.679 58.8749 97.1431C59.1605 97.5688 59.313 98.0699 59.313 98.5825C59.313 99.0952 59.1605 99.597 58.8749 100.023ZM63.6175 106.199C63.1903 106.483 62.6885 106.635 62.1752 106.635C61.6619 106.635 61.1601 106.483 60.7329 106.199C60.2692 105.889 59.9174 105.439 59.7294 104.914C59.5414 104.389 59.5272 103.818 59.6889 103.284C59.8505 102.751 60.1795 102.284 60.6272 101.951C61.0749 101.619 61.6176 101.44 62.1752 101.439C62.689 101.437 63.1916 101.589 63.6175 101.876C63.9741 102.113 64.2666 102.434 64.4689 102.811C64.6712 103.188 64.7771 103.61 64.7771 104.037C64.7771 104.465 64.6712 104.887 64.4689 105.264C64.2666 105.641 63.9741 105.962 63.6175 106.199ZM187.849 77.9536C188.158 77.4893 188.609 77.1369 189.134 76.9484C189.659 76.7599 190.231 76.7453 190.765 76.9068C191.299 77.0683 191.767 77.3973 192.099 77.8452C192.432 78.2931 192.612 78.836 192.612 79.3938C192.612 79.9516 192.432 80.4946 192.099 80.9424C191.767 81.3903 191.299 81.7194 190.765 81.8809C190.231 82.0424 189.659 82.0278 189.134 81.8393C188.609 81.6508 188.158 81.2983 187.849 80.8341C187.563 80.4081 187.411 79.9068 187.411 79.3938C187.411 78.8809 187.563 78.3795 187.849 77.9536ZM192.174 91.7447C191.864 92.2087 191.414 92.5609 190.889 92.7492C190.364 92.9376 189.793 92.9521 189.259 92.7906C188.725 92.6291 188.257 92.3002 187.925 91.8525C187.593 91.4047 187.413 90.862 187.413 90.3044C187.413 89.7469 187.593 89.2041 187.925 88.7564C188.257 88.3087 188.725 87.9797 189.259 87.8182C189.793 87.6567 190.364 87.6713 190.889 87.8596C191.414 88.048 191.864 88.4002 192.174 88.8642C192.459 89.2902 192.612 89.7916 192.612 90.3045C192.612 90.8175 192.459 91.3188 192.173 91.7447H192.174ZM181.948 84.8499C181.947 84.4218 182.052 84.0002 182.255 83.6228C182.457 83.2455 182.75 82.9244 183.107 82.6883C183.534 82.4034 184.036 82.2514 184.55 82.2514C185.063 82.2514 185.565 82.4034 185.992 82.6883C186.349 82.925 186.641 83.2462 186.843 83.6233C187.046 84.0004 187.151 84.4216 187.151 84.8495C187.151 85.2774 187.046 85.6987 186.843 86.0758C186.641 86.4529 186.349 86.774 185.992 87.0107C185.565 87.2957 185.063 87.4477 184.55 87.4477C184.036 87.4477 183.534 87.2957 183.107 87.0107C182.75 86.7749 182.457 86.4539 182.254 86.0768C182.052 85.6996 181.947 85.278 181.948 84.8499ZM190.011 112.094C188.7 112.135 187.406 111.784 186.295 111.086C185.184 110.387 184.307 109.373 183.777 108.174C183.246 106.974 183.086 105.643 183.317 104.351C183.547 103.06 184.159 101.867 185.072 100.925C185.985 99.983 187.159 99.3351 188.443 99.0644C189.727 98.7936 191.063 98.9122 192.279 99.4051C193.495 99.898 194.536 100.743 195.269 101.831C196.002 102.919 196.393 104.201 196.392 105.513C196.418 107.231 195.76 108.889 194.563 110.122C193.367 111.356 191.729 112.064 190.011 112.091L190.011 112.094ZM196.916 87.014C196.489 87.2992 195.987 87.4515 195.474 87.4515C194.961 87.4515 194.459 87.2992 194.032 87.014C193.675 86.7773 193.383 86.4561 193.181 86.0791C192.979 85.7021 192.873 85.281 192.873 84.8532C192.873 84.4254 192.979 84.0043 193.181 83.6273C193.383 83.2503 193.675 82.9291 194.032 82.6924C194.459 82.4075 194.961 82.2554 195.474 82.2554C195.987 82.2554 196.489 82.4075 196.916 82.6924C197.273 82.9291 197.565 83.2503 197.767 83.6273C197.969 84.0043 198.075 84.4254 198.075 84.8532C198.075 85.281 197.969 85.7021 197.767 86.0791C197.565 86.4561 197.273 86.7773 196.916 87.014Z" fill="#666666"/>
<path d="M73.15 52.0945H29.4354V8.18621H112.525V38.7531C115.661 40.8733 118.082 42.6519 119.045 43.4529C122.275 46.1497 125.303 49.0796 128.104 52.219L141.962 42.4185V14.0465C141.903 10.3532 140.414 6.82649 137.809 4.2072C135.204 1.5879 131.685 0.0799027 127.991 0H13.9538C10.2938 0.00937714 6.7831 1.45209 4.1746 4.01878C1.56609 6.58547 0.0674438 10.0718 0 13.7301V46.5042C0.0651899 50.1675 1.56168 53.6598 4.16939 56.2343C6.77709 58.8087 10.289 60.2608 13.9538 60.2799H81.6071C80.1469 58.7624 74.4256 53.2542 73.15 52.0945ZM128.928 40.3601C127.788 40.3956 126.664 40.0901 125.699 39.4828C124.734 38.8756 123.972 37.9941 123.511 36.9515C123.05 35.9088 122.911 34.7523 123.112 33.6302C123.313 32.508 123.844 31.4713 124.638 30.6528C125.431 29.8343 126.451 29.2712 127.567 29.0358C128.683 28.8003 129.843 28.9031 130.9 29.3311C131.957 29.7591 132.862 30.4927 133.499 31.4381C134.136 32.3834 134.477 33.4973 134.477 34.6373C134.5 36.1316 133.928 37.5739 132.887 38.647C131.847 39.7202 130.423 40.3364 128.928 40.3601ZM127.048 20.163C127.317 19.7591 127.709 19.4525 128.165 19.2884C128.622 19.1244 129.12 19.1117 129.584 19.2521C130.049 19.3926 130.456 19.6787 130.745 20.0683C131.034 20.4579 131.19 20.9302 131.19 21.4154C131.19 21.9006 131.034 22.3729 130.745 22.7625C130.456 23.152 130.049 23.4382 129.584 23.5787C129.12 23.7191 128.622 23.7064 128.165 23.5423C127.709 23.3783 127.317 23.0717 127.048 22.6678C126.799 22.2974 126.667 21.8613 126.667 21.4153C126.667 20.9692 126.8 20.5333 127.049 20.163H127.048ZM132.423 14.7955C132.795 14.5479 133.231 14.4158 133.677 14.4158C134.124 14.4158 134.56 14.5479 134.931 14.7955C135.241 15.0014 135.496 15.2807 135.671 15.6085C135.847 15.9363 135.939 16.3025 135.939 16.6745C135.939 17.0465 135.847 17.4127 135.671 17.7406C135.496 18.0684 135.241 18.3477 134.931 18.5536C134.56 18.8014 134.124 18.9336 133.677 18.9336C133.231 18.9336 132.795 18.8014 132.423 18.5536C132.114 18.3477 131.859 18.0684 131.684 17.7406C131.508 17.4127 131.416 17.0465 131.416 16.6745C131.416 16.3025 131.508 15.9363 131.684 15.6085C131.859 15.2807 132.114 15.0014 132.423 14.7955ZM127.048 10.678C127.317 10.2745 127.709 9.96818 128.165 9.80439C128.622 9.64059 129.119 9.62801 129.583 9.76849C130.047 9.90896 130.454 10.195 130.743 10.5844C131.032 10.9739 131.188 11.4459 131.188 11.9308C131.188 12.4158 131.032 12.8878 130.743 13.2772C130.454 13.6666 130.047 13.9527 129.583 14.0932C129.119 14.2336 128.622 14.2211 128.165 14.0573C127.709 13.8935 127.317 13.5872 127.048 13.1836C126.799 12.8129 126.666 12.3763 126.666 11.9296C126.666 11.4829 126.799 11.0463 127.048 10.6756V10.678ZM122.924 14.7955C123.296 14.5478 123.732 14.4156 124.178 14.4156C124.625 14.4156 125.061 14.5478 125.432 14.7955C125.742 15.0014 125.996 15.2807 126.172 15.6085C126.348 15.9363 126.44 16.3025 126.44 16.6745C126.44 17.0465 126.348 17.4127 126.172 17.7406C125.996 18.0684 125.742 18.3477 125.432 18.5536C125.061 18.8013 124.625 18.9334 124.178 18.9334C123.732 18.9334 123.296 18.8013 122.924 18.5536C122.614 18.3477 122.36 18.0684 122.184 17.7406C122.009 17.4127 121.917 17.0465 121.917 16.6745C121.917 16.3025 122.009 15.9363 122.184 15.6085C122.36 15.2807 122.614 15.0014 122.924 14.7955ZM13.0159 9.66958C14.5028 9.71647 15.913 10.3399 16.9482 11.408C17.9834 12.476 18.5623 13.9048 18.5623 15.392C18.5623 16.8792 17.9834 18.308 16.9482 19.3761C15.913 20.4441 14.5028 21.0676 13.0159 21.1145C11.529 21.0676 10.1187 20.4441 9.08351 19.3761C8.04831 18.308 7.46945 16.8792 7.46945 15.392C7.46945 13.9048 8.04831 12.476 9.08351 11.408C10.1187 10.3399 11.529 9.71647 13.0159 9.66958ZM9.51786 35.2366C9.14658 35.4843 8.71022 35.6165 8.26386 35.6165C7.8175 35.6165 7.38114 35.4843 7.00986 35.2366C6.69994 35.0308 6.44574 34.7515 6.26991 34.4236C6.09407 34.0958 6.00206 33.7296 6.00206 33.3576C6.00206 32.9856 6.09407 32.6194 6.26991 32.2916C6.44574 31.9637 6.69994 31.6844 7.00986 31.4786C7.38106 31.2307 7.81745 31.0984 8.26386 31.0984C8.71027 31.0984 9.14666 31.2307 9.51786 31.4786C9.82796 31.6843 10.0823 31.9636 10.2583 32.2914C10.4342 32.6193 10.5263 32.9855 10.5263 33.3576C10.5263 33.7297 10.4342 34.0959 10.2583 34.4238C10.0823 34.7517 9.82796 35.0309 9.51786 35.2366ZM14.8934 39.3533C14.6245 39.7569 14.2328 40.0633 13.7762 40.2272C13.3196 40.3911 12.8224 40.4038 12.3581 40.2633C11.8938 40.1229 11.487 39.8368 11.1979 39.4474C10.9088 39.058 10.7527 38.5859 10.7527 38.1009C10.7527 37.6159 10.9088 37.1438 11.1979 36.7544C11.487 36.365 11.8938 36.0789 12.3581 35.9385C12.8224 35.7981 13.3196 35.8107 13.7762 35.9746C14.2328 36.1385 14.6245 36.4449 14.8934 36.8485C15.1426 37.2186 15.2759 37.6544 15.2763 38.1005C15.2767 38.5466 15.1443 38.9828 14.8959 39.3533H14.8934ZM14.8934 29.8659C14.6245 30.2695 14.2328 30.5759 13.7762 30.7398C13.3196 30.9037 12.8224 30.9163 12.3581 30.7759C11.8938 30.6355 11.487 30.3494 11.1979 29.96C10.9088 29.5705 10.7527 29.0985 10.7527 28.6135C10.7527 28.1285 10.9088 27.6564 11.1979 27.267C11.487 26.8776 11.8938 26.5915 12.3581 26.4511C12.8224 26.3106 13.3196 26.3233 13.7762 26.4872C14.2328 26.6511 14.6245 26.9575 14.8934 27.3611C15.1424 27.7312 15.2755 28.1671 15.276 28.6131C15.2764 29.0592 15.1441 29.4953 14.8959 29.8659H14.8934ZM19.0178 35.2334C18.6464 35.4807 18.2101 35.6126 17.7638 35.6126C17.3176 35.6126 16.8813 35.4807 16.5098 35.2334C16.1999 35.0275 15.9457 34.7482 15.7699 34.4204C15.594 34.0926 15.502 33.7263 15.502 33.3543C15.502 32.9824 15.594 32.6161 15.7699 32.2883C15.9457 31.9605 16.1999 31.6812 16.5098 31.4753C16.8811 31.2277 17.3175 31.0956 17.7638 31.0956C18.2102 31.0956 18.6465 31.2277 19.0178 31.4753C19.3277 31.6812 19.5819 31.9605 19.7578 32.2883C19.9336 32.6161 20.0256 32.9824 20.0256 33.3543C20.0256 33.7263 19.9336 34.0926 19.7578 34.4204C19.5819 34.7482 19.3277 35.0275 19.0178 35.2334Z" fill="#666666"/>
</svg>
