<svg width="150" height="150" viewBox="0 0 150 150" fill="none" xmlns="http://www.w3.org/2000/svg">
<path d="M75 0C60.1664 0 45.6659 4.39867 33.3323 12.6398C20.9986 20.8809 11.3856 32.5943 5.70907 46.2987C0.0324951 60.0032 -1.45275 75.0832 1.44114 89.6318C4.33503 104.18 11.4781 117.544 21.967 128.033C32.456 138.522 45.8197 145.665 60.3682 148.559C74.9168 151.453 89.9968 149.967 103.701 144.291C117.406 138.614 129.119 129.001 137.36 116.668C145.601 104.334 150 89.8336 150 75C150 65.1508 148.06 55.3982 144.291 46.2987C140.522 37.1993 134.997 28.9314 128.033 21.967C121.069 15.0026 112.801 9.47813 103.701 5.70903C94.6018 1.93993 84.8492 0 75 0ZM75 138H74.9513C67.964 130.933 62.2241 122.733 57.975 113.749H92.0153C87.7664 122.733 82.0267 130.933 75.0398 138H75ZM54.1658 103.999C51.7043 96.1799 50.2974 88.0668 49.9823 79.875H100.007C99.6921 88.0668 98.2852 96.1799 95.8238 103.999H54.1658ZM75 12H75.0398C82.0267 19.0669 87.7663 27.2661 92.0153 36.2497H57.975C62.2242 27.2661 67.9641 19.0669 74.9513 12H75ZM95.8253 46.0005C98.2867 53.8201 99.6936 61.9332 100.009 70.125H49.9838C50.2989 61.9332 51.7058 53.8201 54.1673 46.0005H95.8275H95.8253ZM40.2263 70.125H12.207C12.8503 61.7004 15.1947 53.4936 19.0988 46.0005H43.944C41.759 53.8675 40.5111 61.9651 40.2263 70.125ZM12.207 79.875H40.2263C40.5111 88.0348 41.759 96.1325 43.944 103.999H19.0995C15.1952 96.5064 12.8505 88.2997 12.207 79.875ZM109.765 79.875H137.793C137.15 88.2996 134.805 96.5064 130.901 103.999H106.05C108.234 96.1323 109.481 88.0347 109.765 79.875ZM109.765 70.125C109.481 61.9653 108.234 53.8676 106.05 46.0005H130.904C134.808 53.4936 137.152 61.7004 137.795 70.125H109.765ZM124.619 36.2505H102.697C99.3784 28.1512 94.9347 20.5602 89.4968 13.7017C103.423 17.0166 115.808 24.968 124.619 36.2505ZM60.4943 13.704C55.0566 20.5618 50.6128 28.152 47.2943 36.2505H25.3808C34.1898 24.971 46.5713 17.0209 60.4935 13.7047L60.4943 13.704ZM25.3808 113.749H47.295C50.6136 121.848 55.0573 129.438 60.495 136.296C46.5722 132.98 34.1901 125.03 25.3808 113.749ZM89.496 136.298C94.9339 129.44 99.3777 121.849 102.696 113.749H124.619C115.807 125.032 103.422 132.983 89.4953 136.298H89.496Z" fill="#666666"/>
</svg>
