<svg width="160" height="160" viewBox="0 0 160 160" fill="none" xmlns="http://www.w3.org/2000/svg">
<path d="M119.361 15.7138L139.602 35.9564C145.389 41.7567 148.639 49.6158 148.639 57.8094C148.639 66.003 145.389 73.8621 139.602 79.6623L79.6606 139.601C76.7909 142.471 73.3841 144.747 69.6346 146.3C65.8851 147.853 61.8665 148.653 57.8081 148.653C53.7497 148.653 49.7311 147.853 45.9816 146.3C42.2321 144.747 38.8253 142.471 35.9556 139.601L15.7141 119.357L119.361 15.7138ZM119.361 0C119.146 4.59111e-05 118.94 0.0854808 118.788 0.237511L0.237332 118.784C0.0853679 118.936 0 119.142 0 119.357C0 119.572 0.0853679 119.778 0.237332 119.93L27.929 147.624C31.8525 151.548 36.5104 154.66 41.6367 156.784C46.763 158.907 52.2574 160 57.8061 160C63.3548 160 68.8491 158.907 73.9754 156.784C79.1017 154.66 83.7596 151.548 87.6831 147.624L147.624 87.6858C151.548 83.7622 154.66 79.1042 156.784 73.9778C158.907 68.8514 160 63.357 160 57.8082C160 52.2594 158.907 46.7649 156.784 41.6385C154.66 36.5121 151.548 31.8541 147.624 27.9305L119.934 0.239131C119.782 0.0871011 119.576 0.0016678 119.361 0.00162188V0ZM81.5801 104.748V104.372C81.5801 100.648 80.1005 97.0755 77.4668 94.4418C74.8332 91.808 71.2611 90.3284 67.5365 90.3284H67.1612C63.4366 90.3284 59.8645 91.808 57.2309 94.4418C54.5972 97.0755 53.1176 100.648 53.1176 104.372V104.748C53.1176 108.472 54.5972 112.044 57.2309 114.678C59.8645 117.312 63.4366 118.792 67.1612 118.792H67.5365C71.2611 118.792 74.8332 117.312 77.4668 114.678C80.1005 112.044 81.5801 108.472 81.5801 104.748ZM97.844 64.7486C99.7851 64.7486 101.647 63.9775 103.019 62.6049C104.392 61.2324 105.163 59.3707 105.163 57.4296C105.163 55.4885 104.392 53.6269 103.019 52.2543C101.647 50.8817 99.7851 50.1106 97.844 50.1106C95.9029 50.1106 94.0413 50.8817 92.6687 52.2543C91.2962 53.6269 90.5251 55.4885 90.5251 57.4296C90.5251 59.3707 91.2962 61.2324 92.6687 62.6049C94.0413 63.9775 95.9029 64.7486 97.844 64.7486ZM118.175 64.7486C120.116 64.7486 121.977 63.9775 123.35 62.6049C124.722 61.2324 125.494 59.3707 125.494 57.4296C125.494 55.4885 124.722 53.6269 123.35 52.2543C121.977 50.8817 120.116 50.1106 118.175 50.1106C116.234 50.1106 114.372 50.8817 112.999 52.2543C111.627 53.6269 110.856 55.4885 110.856 57.4296C110.856 58.3908 111.045 59.3425 111.413 60.2305C111.78 61.1186 112.319 61.9255 112.999 62.6052C113.678 63.2849 114.485 63.8241 115.373 64.192C116.261 64.5599 117.213 64.7494 118.174 64.7495L118.175 64.7486ZM97.844 85.0797C99.7851 85.0797 101.647 84.3086 103.019 82.936C104.392 81.5634 105.163 79.7018 105.163 77.7606C105.163 75.8195 104.392 73.9579 103.019 72.5853C101.647 71.2127 99.7851 70.4416 97.844 70.4416C95.9029 70.4416 94.0413 71.2127 92.6687 72.5853C91.2962 73.9579 90.5251 75.8195 90.5251 77.7606C90.525 78.7219 90.7142 79.6738 91.082 80.5619C91.4499 81.4501 91.989 82.257 92.6687 82.9368C93.3484 83.6165 94.1554 84.1557 95.0435 84.5235C95.9316 84.8913 96.8835 85.0806 97.8448 85.0805L97.844 85.0797ZM118.175 85.0797C120.116 85.0797 121.977 84.3086 123.35 82.936C124.722 81.5634 125.494 79.7018 125.494 77.7606C125.494 75.8195 124.722 73.9579 123.35 72.5853C121.977 71.2127 120.116 70.4416 118.175 70.4416C116.234 70.4416 114.372 71.2127 112.999 72.5853C111.627 73.9579 110.856 75.8195 110.856 77.7606C110.856 79.7016 111.627 81.5631 112.999 82.9357C114.371 84.3083 116.234 85.0795 118.175 85.0797Z" fill="#666666"/>
</svg>
