<svg width="205" height="107" viewBox="0 0 205 107" fill="none" xmlns="http://www.w3.org/2000/svg">
<path d="M204.014 34.3929H189.231V0.955357C189.231 0.701981 189.127 0.458982 188.942 0.279818C188.757 0.100653 188.507 0 188.245 0L0.985577 0C0.724186 0 0.4735 0.100653 0.288669 0.279818C0.103837 0.458982 0 0.701981 0 0.955357L0 106.045C0 106.298 0.103837 106.541 0.288669 106.72C0.4735 106.899 0.724186 107 0.985577 107H188.245C188.507 107 188.757 106.899 188.942 106.72C189.127 106.541 189.231 106.298 189.231 106.045V72.6071H204.014C204.276 72.6071 204.527 72.5065 204.711 72.3273C204.896 72.1482 205 71.9052 205 71.6518V35.3482C205 35.0948 204.896 34.8518 204.711 34.6727C204.527 34.4935 204.276 34.3929 204.014 34.3929ZM175.433 93.625H13.7981V13.375H175.433V93.625Z" fill="white"/>
<path d="M204.014 34.3929H189.231V0.955357C189.231 0.701981 189.127 0.458982 188.942 0.279818C188.757 0.100653 188.507 0 188.245 0L0.985577 0C0.724186 0 0.4735 0.100653 0.288669 0.279818C0.103837 0.458982 0 0.701981 0 0.955357L0 106.045C0 106.298 0.103837 106.541 0.288669 106.72C0.4735 106.899 0.724186 107 0.985577 107H188.245C188.507 107 188.757 106.899 188.942 106.72C189.127 106.541 189.231 106.298 189.231 106.045V72.6071H204.014C204.276 72.6071 204.527 72.5065 204.711 72.3273C204.896 72.1482 205 71.9052 205 71.6518V35.3482C205 35.0948 204.896 34.8518 204.711 34.6727C204.527 34.4935 204.276 34.3929 204.014 34.3929ZM175.433 93.625H13.7981V13.375H175.433V93.625Z" fill="#666666"/>
</svg>
