<svg width="204" height="145" viewBox="0 0 204 145" fill="none" xmlns="http://www.w3.org/2000/svg">
<path d="M91.5438 109.6H0.460244C0.338894 109.6 0.222454 109.648 0.136259 109.733C0.0500652 109.818 0.00109325 109.934 1.76907e-08 110.055V125.524C-0.000219931 130.682 2.05053 135.629 5.70114 139.276C9.35174 142.923 14.3032 144.973 19.4662 144.973H72.5311C75.0884 144.973 77.6207 144.47 79.9833 143.492C82.3459 142.514 84.4926 141.081 86.3009 139.275C88.1091 137.468 89.5434 135.324 90.522 132.963C91.5005 130.603 92.0041 128.073 92.004 125.519V110.055C92.0029 109.934 91.9539 109.818 91.8677 109.733C91.7815 109.648 91.6651 109.6 91.5438 109.6ZM50.6086 115.813C51.3363 115.813 52.0477 116.029 52.6527 116.433C53.2577 116.837 53.7292 117.411 54.0075 118.083C54.2858 118.755 54.3585 119.494 54.2163 120.207C54.0741 120.92 53.7234 121.575 53.2086 122.088C52.6939 122.602 52.0381 122.952 51.3243 123.094C50.6104 123.235 49.8706 123.162 49.1983 122.884C48.5261 122.605 47.9516 122.134 47.5475 121.529C47.1435 120.925 46.928 120.214 46.9283 119.487C46.9284 119.004 47.0237 118.526 47.2087 118.08C47.3937 117.635 47.6649 117.229 48.0066 116.888C48.3484 116.547 48.7541 116.277 49.2005 116.092C49.647 115.907 50.1254 115.813 50.6086 115.813ZM23.5512 135.421C21.9406 135.423 20.3658 134.947 19.026 134.054C17.6863 133.161 16.6417 131.891 16.0245 130.404C15.4072 128.918 15.2451 127.283 15.5585 125.704C15.8719 124.126 16.6467 122.676 17.7851 121.538C18.9235 120.4 20.3742 119.624 21.9537 119.31C23.5333 118.995 25.1707 119.156 26.659 119.771C28.1472 120.386 29.4193 121.429 30.3145 122.766C31.2097 124.104 31.6877 125.677 31.688 127.286C31.6885 128.354 31.4785 129.411 31.0699 130.398C30.6613 131.385 30.062 132.282 29.3065 133.037C28.5509 133.793 27.6537 134.392 26.6662 134.801C25.6788 135.21 24.6203 135.421 23.5512 135.421ZM42.7994 130.962C42.0713 130.962 41.3596 130.746 40.7544 130.342C40.1491 129.938 39.6774 129.364 39.3989 128.692C39.1204 128.02 39.0478 127.28 39.19 126.567C39.3323 125.854 39.6832 125.199 40.1982 124.685C40.7132 124.171 41.3693 123.821 42.0834 123.679C42.7975 123.538 43.5376 123.611 44.2101 123.89C44.8825 124.169 45.457 124.64 45.861 125.245C46.265 125.85 46.4803 126.562 46.4797 127.289C46.4797 127.772 46.3843 128.25 46.1992 128.696C46.014 129.142 45.7425 129.548 45.4004 129.889C45.0583 130.23 44.6521 130.501 44.2053 130.685C43.7584 130.869 43.2795 130.964 42.796 130.963L42.7994 130.962ZM50.6119 138.765C49.8839 138.766 49.172 138.551 48.5663 138.147C47.9607 137.743 47.4884 137.169 47.2094 136.498C46.9303 135.826 46.857 135.087 46.9986 134.373C47.1402 133.66 47.4905 133.004 48.0051 132.49C48.5196 131.975 49.1754 131.625 49.8894 131.483C50.6034 131.341 51.3435 131.413 52.0162 131.691C52.6889 131.97 53.2639 132.441 53.6684 133.046C54.0729 133.65 54.2889 134.361 54.2889 135.088C54.2882 136.063 53.9003 136.998 53.2102 137.687C52.5202 138.377 51.5845 138.764 50.6086 138.765H50.6119ZM58.4153 130.962C57.6873 130.962 56.9756 130.746 56.3703 130.342C55.765 129.938 55.2933 129.364 55.0149 128.692C54.7364 128.02 54.6637 127.28 54.806 126.567C54.9483 125.854 55.2991 125.199 55.8141 124.685C56.3292 124.171 56.9852 123.821 57.6994 123.679C58.4135 123.538 59.1536 123.611 59.826 123.89C60.4984 124.169 61.073 124.64 61.477 125.245C61.881 125.85 62.0963 126.562 62.0956 127.289C62.0954 127.772 61.9999 128.25 61.8147 128.696C61.6294 129.142 61.358 129.547 61.0159 129.888C60.6738 130.23 60.2677 130.5 59.821 130.684C59.3742 130.869 58.8954 130.963 58.412 130.963L58.4153 130.962ZM203.54 109.6H112.456C112.396 109.6 112.336 109.612 112.28 109.635C112.224 109.658 112.174 109.692 112.131 109.734C112.088 109.777 112.054 109.828 112.031 109.884C112.008 109.939 111.996 109.999 111.996 110.059V125.523C111.997 130.681 114.049 135.629 117.701 139.276C121.352 142.924 126.305 144.973 131.469 144.973H184.534C187.09 144.973 189.622 144.47 191.984 143.492C194.345 142.515 196.491 141.082 198.299 139.276C200.107 137.47 201.541 135.326 202.519 132.967C203.497 130.607 204 128.078 204 125.524V110.055C203.999 109.934 203.95 109.818 203.864 109.733C203.778 109.648 203.661 109.6 203.54 109.6ZM153.396 135.424C151.785 135.424 150.21 134.948 148.871 134.054C147.532 133.161 146.487 131.89 145.871 130.404C145.254 128.918 145.093 127.282 145.407 125.704C145.721 124.126 146.496 122.676 147.635 121.538C148.774 120.4 150.225 119.626 151.805 119.312C153.384 118.998 155.022 119.159 156.51 119.775C157.998 120.391 159.269 121.434 160.164 122.772C161.059 124.109 161.536 125.682 161.536 127.291C161.535 129.448 160.677 131.515 159.151 133.039C157.624 134.564 155.554 135.42 153.396 135.42V135.424ZM172.645 130.971C170.614 130.971 169.748 129.324 169.748 127.291C169.748 125.259 170.614 123.618 172.645 123.618C173.6 123.65 174.504 124.051 175.168 124.737C175.831 125.422 176.202 126.339 176.203 127.292C176.203 128.246 175.832 129.162 175.168 129.848C174.505 130.534 173.6 130.935 172.646 130.967L172.645 130.971ZM180.449 138.768C179.721 138.768 179.01 138.552 178.405 138.148C177.8 137.744 177.328 137.17 177.05 136.498C176.772 135.827 176.699 135.087 176.841 134.374C176.983 133.661 177.334 133.007 177.849 132.493C178.363 131.979 179.019 131.629 179.733 131.487C180.447 131.346 181.187 131.419 181.859 131.697C182.531 131.976 183.106 132.447 183.51 133.052C183.914 133.656 184.129 134.367 184.129 135.094C184.128 136.068 183.739 137.002 183.049 137.69C182.359 138.378 181.424 138.765 180.449 138.764V138.768ZM180.449 123.169C179.721 123.169 179.01 122.952 178.405 122.548C177.8 122.144 177.329 121.569 177.051 120.897C176.773 120.225 176.701 119.486 176.843 118.773C176.985 118.06 177.336 117.406 177.851 116.892C178.366 116.378 179.021 116.028 179.735 115.887C180.449 115.745 181.189 115.818 181.861 116.096C182.534 116.375 183.108 116.846 183.512 117.45C183.917 118.055 184.132 118.766 184.132 119.493C184.132 119.975 184.036 120.453 183.851 120.899C183.666 121.345 183.394 121.75 183.052 122.091C182.71 122.432 182.304 122.702 181.857 122.887C181.411 123.071 180.932 123.166 180.449 123.165V123.169ZM188.261 130.971C187.534 130.971 186.822 130.756 186.217 130.352C185.612 129.948 185.14 129.374 184.861 128.702C184.583 128.031 184.51 127.292 184.651 126.579C184.793 125.866 185.143 125.21 185.658 124.696C186.172 124.182 186.828 123.831 187.541 123.689C188.255 123.547 188.995 123.619 189.667 123.897C190.34 124.175 190.915 124.646 191.32 125.25C191.725 125.854 191.941 126.564 191.942 127.291C191.941 128.266 191.553 129.2 190.863 129.89C190.173 130.579 189.238 130.966 188.262 130.967L188.261 130.971ZM183.943 77.4397C184.355 77.4396 184.761 77.3399 185.126 77.1493C185.491 76.9586 185.805 76.6826 186.04 76.3448C186.275 76.0069 186.425 75.6172 186.477 75.209C186.529 74.8007 186.481 74.386 186.338 74.0001L172.446 36.5788L166.715 77.4364H183.944L183.943 77.4397ZM19.0516 87.3235H158.875C159.25 87.3234 159.612 87.1878 159.895 86.9418C160.178 86.6959 160.363 86.356 160.415 85.9848L172.262 1.77116C172.293 1.55084 172.276 1.32644 172.213 1.11313C172.15 0.899817 172.042 0.702553 171.895 0.534662C171.749 0.366771 171.569 0.232163 171.366 0.139926C171.163 0.0476893 170.943 -2.75639e-05 170.721 2.69557e-07H30.8977C30.5223 -0.000220499 30.1595 0.135173 29.8762 0.381208C29.5928 0.627243 29.4081 0.967324 29.3561 1.33872L17.51 85.5524C17.479 85.7727 17.4958 85.9971 17.559 86.2104C17.6223 86.4237 17.7307 86.621 17.8768 86.7889C18.0229 86.9568 18.2034 87.0914 18.4061 87.1836C18.6088 87.2758 18.8289 87.3236 19.0516 87.3235ZM40.4351 9.98741H158.812L149.338 77.3378H30.9607L40.4351 9.98741Z" fill="#666666"/>
</svg>
