<svg width="168" height="178" viewBox="0 0 168 178" fill="none" xmlns="http://www.w3.org/2000/svg">
<path d="M128.743 178H138.557C138.794 178 139.021 177.906 139.188 177.739C139.355 177.572 139.449 177.346 139.449 177.11V115.487H134.733C138.407 113.056 141.198 109.51 142.693 105.373C144.189 101.237 144.309 96.7296 143.037 92.5194C141.764 88.3093 139.166 84.6198 135.628 81.9974C132.089 79.3749 127.798 77.9588 123.39 77.9588C118.981 77.9588 114.69 79.3749 111.152 81.9974C107.613 84.6198 105.015 88.3093 103.742 92.5194C102.47 96.7296 102.59 101.237 104.086 105.373C105.581 109.51 108.373 113.056 112.046 115.487H107.33V177.11C107.33 177.346 107.424 177.572 107.591 177.739C107.758 177.906 107.985 178 108.222 178H118.036C118.273 178 118.5 177.906 118.667 177.739C118.835 177.572 118.929 177.346 118.929 177.11V156.64H127.851V177.11C127.851 177.346 127.945 177.572 128.112 177.739C128.279 177.906 128.506 178 128.743 178Z" fill="#666666"/>
<path d="M167.108 115.486H79.6714C79.1786 115.486 78.7792 115.885 78.7792 116.376V126.166C78.7792 126.658 79.1786 127.056 79.6714 127.056H167.108C167.601 127.056 168 126.658 168 126.166V116.376C168 115.885 167.601 115.486 167.108 115.486Z" fill="#666666"/>
<path d="M166.246 52.8079H107.042C111.159 48.2752 113.868 42.648 114.841 36.6093C115.814 30.5705 115.009 24.3798 112.524 18.7884C110.039 13.1971 105.98 8.44552 100.84 5.1104C95.7003 1.77529 89.7006 0 83.5691 0C77.4376 0 71.4379 1.77529 66.2981 5.1104C61.1584 8.44552 57.0996 13.1971 54.6143 18.7884C52.129 24.3798 51.324 30.5705 52.2972 36.6093C53.2703 42.648 55.9797 48.2752 60.0965 52.8079H0.892208C0.65558 52.8079 0.428642 52.9017 0.261321 53.0686C0.0939995 53.2355 0 53.4619 0 53.6979V91.9677C0 92.2037 0.0939995 92.4301 0.261321 92.597C0.428642 92.7639 0.65558 92.8577 0.892208 92.8577H48.7726V177.021C48.7726 177.257 48.8666 177.483 49.0339 177.65C49.2012 177.817 49.4281 177.911 49.6648 177.911H98.4471C98.4257 177.644 98.407 177.382 98.407 177.11V166.341H87.7005V138.751C87.7005 138.515 87.6065 138.289 87.4392 138.122C87.2718 137.955 87.0449 137.861 86.8083 137.861H79.6706C79.434 137.861 79.2071 137.955 79.0397 138.122C78.8724 138.289 78.7784 138.515 78.7784 138.751V166.341H60.3713V82.1777C60.3713 81.9417 60.2773 81.7153 60.1099 81.5484C59.9426 81.3815 59.7157 81.2878 59.479 81.2878H11.5987V64.3779H155.54V81.2878H147.274C149.771 84.7341 151.484 88.6826 152.294 92.8577H166.246C166.483 92.8577 166.71 92.7639 166.877 92.597C167.044 92.4301 167.138 92.2037 167.138 91.9677V53.6979C167.138 53.4619 167.044 53.2355 166.877 53.0686C166.71 52.9017 166.483 52.8079 166.246 52.8079ZM83.5696 11.5709C87.54 11.5709 91.4212 12.7454 94.7225 14.9457C98.0237 17.1461 100.597 20.2735 102.116 23.9326C103.636 27.5917 104.033 31.618 103.259 35.5025C102.484 39.3869 100.572 42.955 97.7645 45.7555C94.957 48.5561 91.38 50.4632 87.4859 51.2359C83.5918 52.0086 79.5555 51.612 75.8873 50.0964C72.2191 48.5807 69.0839 46.0141 66.8781 42.721C64.6722 39.428 63.4949 35.5563 63.4949 31.5958C63.501 26.2868 65.618 21.1969 69.3814 17.4428C73.1448 13.6888 78.2473 11.577 83.5696 11.5709Z" fill="#666666"/>
</svg>
