<svg width="190" height="138" viewBox="0 0 190 138" fill="none" xmlns="http://www.w3.org/2000/svg">
<path d="M189.784 107.959C188.753 95.3615 186.256 82.8658 184.248 70.4093C182.258 58.087 180.241 45.6085 177.155 33.5275C175.783 28.1345 174.346 23.5172 170.753 19.2571C170.391 18.8551 169.972 18.511 169.51 18.2362C168.543 16.6856 167.576 12.8096 166.617 11.2447C161.79 3.76755 151.114 1.76299 143.193 0.737242C138.78 0.170257 134.092 -0.746303 129.891 1.10598C127.413 2.11256 124.981 5.60067 122.54 6.70303C121.02 6.66951 119.51 6.64174 118.017 6.60726C105.259 6.29503 92.483 6.31993 79.7255 6.46934C75.6537 6.51723 71.5363 6.54501 67.4001 6.63503C65.0054 5.55087 62.62 2.0867 60.1936 1.1031C55.9847 -0.750136 51.2951 0.167385 46.8921 0.73437C38.9595 1.76011 28.2943 3.76467 23.4676 11.2418C22.5194 12.802 21.5423 16.6827 20.5745 18.2333C20.1139 18.5097 19.6951 18.8536 19.3315 19.2543C17.4765 21.3149 16.0225 23.7205 15.0479 26.3416C11.0498 38.0443 9.20761 50.6549 7.08914 62.8259C4.92401 75.2287 2.71315 87.7359 1.11637 100.233C-0.256437 111.061 -1.92321 124.636 6.63465 132.992C10.3098 136.585 15.5238 138.739 20.5988 137.662C26.4484 136.424 29.9574 131.716 32.8131 126.715C35.7146 121.639 38.1746 116.322 40.6888 111.032C43.0546 106.066 45.7283 99.2662 51.6861 98.1696C55.0113 97.5595 58.6957 97.8822 62.104 97.8822H132.083C137.675 97.8822 141.866 98.227 145.265 103.29C148.82 108.597 151.067 114.836 153.96 120.529C158.769 129.978 165.825 142.097 178.104 136.642C189.168 131.724 190.678 118.835 189.784 107.959ZM41.6547 53.2944C39.5353 53.2931 37.4639 52.6468 35.7025 51.4373C33.941 50.2278 32.5686 48.5095 31.7588 46.4995C30.949 44.4895 30.7381 42.2783 31.1529 40.1453C31.5677 38.0124 32.5895 36.0536 34.0891 34.5166C35.5887 32.9796 37.4988 31.9336 39.5777 31.5107C41.6566 31.0878 43.8111 31.307 45.7686 32.1407C47.726 32.9744 49.3987 34.3851 50.5749 36.1944C51.7512 38.0037 52.3782 40.1303 52.3767 42.3053C52.3761 43.7494 52.0983 45.1793 51.559 46.5132C51.0198 47.8471 50.2298 49.059 49.2341 50.0795C48.2384 51.1 47.0565 51.9091 45.756 52.4608C44.4555 53.0124 43.0619 53.2957 41.6547 53.2944ZM79.6518 73.2079V76.3368C79.6498 76.7465 79.4897 77.1388 79.2065 77.4276C78.9233 77.7164 78.5401 77.8783 78.1408 77.8778C75.6995 77.8689 73.2584 77.8657 70.8177 77.8682C70.7128 77.8608 70.608 77.8838 70.5152 77.9346C70.4224 77.9854 70.3455 78.062 70.2932 78.1556C70.2309 78.2648 70.1959 78.3882 70.1915 78.5147C70.1915 81.0154 70.2008 83.5256 70.2008 86.0301C70.2008 86.4388 70.0426 86.8308 69.761 87.1198C69.4794 87.4088 69.0975 87.5712 68.6992 87.5712H62.6014C62.2031 87.5712 61.8212 87.4088 61.5396 87.1198C61.258 86.8308 61.0998 86.4388 61.0998 86.0301C61.0998 83.5256 61.1091 81.0154 61.1091 78.5147C61.1043 78.3883 61.0693 78.265 61.0074 78.1556C60.9578 78.0615 60.8826 77.9842 60.791 77.9332C60.6993 77.8822 60.5952 77.8596 60.4913 77.8682C58.0412 77.8682 55.5974 77.8714 53.1597 77.8778C52.9625 77.8778 52.7673 77.838 52.5851 77.7605C52.4029 77.6831 52.2374 77.5696 52.0979 77.4265C51.9585 77.2834 51.8479 77.1135 51.7724 76.9265C51.697 76.7396 51.6581 76.5392 51.6581 76.3368V70.0741C51.6594 69.6666 51.8182 69.2763 52.0998 68.9889C52.3814 68.7016 52.7626 68.5407 53.1597 68.5417C55.6005 68.5462 58.0443 68.5494 60.4913 68.5513C60.6013 68.5474 60.7088 68.5165 60.8049 68.4613C60.9038 68.4111 60.9857 68.3316 61.0399 68.233C61.0942 68.1345 61.1183 68.0215 61.1091 67.9087C61.1091 65.3984 61.0998 62.8977 61.0998 60.3885C61.0998 59.9797 61.258 59.5878 61.5396 59.2988C61.8212 59.0098 62.2031 58.8474 62.6014 58.8474C64.6371 58.8525 66.6697 58.8525 68.6992 58.8474C69.0963 58.8474 69.4773 59.0089 69.7587 59.2964C70.0401 59.584 70.1991 59.9742 70.2008 60.3817C70.2008 62.891 70.1915 65.3917 70.1915 67.902C70.1908 67.9865 70.2066 68.0704 70.2379 68.1486C70.2691 68.2269 70.3152 68.298 70.3735 68.3578C70.4318 68.4176 70.501 68.4649 70.5773 68.497C70.6535 68.5291 70.7353 68.5452 70.8177 68.5446C73.259 68.5395 75.7001 68.5363 78.1408 68.535C78.539 68.5335 78.9214 68.6939 79.2046 68.9811C79.4878 69.2682 79.6486 69.6589 79.6518 70.0674V73.2011V73.2079ZM120.053 84.2066C117.934 84.2072 115.862 83.5628 114.099 82.3548C112.337 81.1469 110.963 79.4298 110.151 77.4205C109.34 75.4113 109.127 73.2002 109.54 71.0669C109.953 68.9336 110.973 66.9738 112.471 65.4355C113.97 63.8973 115.879 62.8495 117.957 62.4247C120.036 61.9999 122.191 62.2173 124.149 63.0492C126.107 63.8812 127.781 65.2904 128.959 67.0986C130.136 68.9068 130.765 71.0328 130.766 73.2079C130.765 76.1234 129.636 78.9193 127.627 80.981C125.618 83.0427 122.894 84.2015 120.053 84.2028V84.2066ZM131.355 49.5219C129.964 49.5219 128.603 49.0983 127.446 48.3047C126.288 47.5111 125.386 46.3831 124.854 45.0634C124.321 43.7437 124.182 42.2915 124.453 40.8905C124.725 39.4895 125.395 38.2026 126.379 37.1926C127.363 36.1825 128.617 35.4946 129.982 35.216C131.348 34.9373 132.763 35.0803 134.049 35.6269C135.335 36.1736 136.434 37.0993 137.207 38.287C137.98 39.4747 138.393 40.8711 138.393 42.2995C138.392 44.2144 137.65 46.0506 136.331 47.4043C135.011 48.758 133.221 49.5183 131.355 49.518V49.5219ZM146.242 62.7388C144.85 62.7382 143.49 62.3142 142.334 61.5205C141.177 60.7268 140.276 59.599 139.744 58.2796C139.212 56.9603 139.073 55.5087 139.345 54.1084C139.617 52.7081 140.288 51.4219 141.272 50.4126C142.256 49.4033 143.51 48.7162 144.874 48.4381C146.239 48.16 147.653 48.3034 148.938 48.8502C150.224 49.397 151.322 50.3226 152.095 51.51C152.867 52.6975 153.28 54.0934 153.279 55.5212C153.277 57.4357 152.534 59.271 151.214 60.6235C149.894 61.9761 148.104 62.7352 146.239 62.734L146.242 62.7388ZM146.242 36.305C144.85 36.305 143.489 35.8814 142.332 35.0878C141.174 34.2942 140.272 33.1662 139.74 31.8465C139.207 30.5268 139.068 29.0746 139.339 27.6736C139.611 26.2726 140.281 24.9857 141.265 23.9757C142.25 22.9656 143.503 22.2778 144.869 21.9991C146.234 21.7204 147.649 21.8634 148.935 22.4101C150.221 22.9567 151.32 23.8824 152.093 25.0701C152.866 26.2578 153.279 27.6542 153.279 29.0827C153.277 30.9975 152.535 32.8332 151.215 34.1863C149.894 35.5394 148.105 36.2991 146.239 36.2983L146.242 36.305ZM161.118 49.5219C159.727 49.5219 158.366 49.0983 157.209 48.3047C156.051 47.5111 155.149 46.3831 154.617 45.0634C154.084 43.7437 153.945 42.2915 154.216 40.8905C154.488 39.4895 155.158 38.2026 156.142 37.1926C157.126 36.1825 158.38 35.4946 159.746 35.216C161.111 34.9373 162.526 35.0803 163.812 35.6269C165.098 36.1736 166.197 37.0993 166.97 38.287C167.743 39.4747 168.156 40.8711 168.156 42.2995C168.157 43.248 167.975 44.1872 167.622 45.0636C167.268 45.9399 166.75 46.7361 166.096 47.4066C165.442 48.077 164.666 48.6086 163.812 48.971C162.958 49.3333 162.043 49.5192 161.118 49.518V49.5219Z" fill="#666666"/>
</svg>
