<svg width="125" height="125" viewBox="0 0 125 125" fill="none" xmlns="http://www.w3.org/2000/svg">
<path d="M84.4932 90.6339C85.587 89.7808 86.5789 88.7889 88.5632 86.8045L113.297 62.0708C113.894 61.4733 113.621 60.4433 112.822 60.1658C109.903 59.1533 106.104 57.2514 102.552 53.6989C98.9995 50.1464 97.0976 46.3483 96.0851 43.4288C95.8076 42.6299 94.7776 42.3562 94.1801 42.9541L69.4464 67.6876C67.462 69.672 66.4701 70.6639 65.617 71.7576C64.6107 73.0483 63.7476 74.4439 63.0439 75.9214C62.447 77.1733 62.0032 78.5045 61.1164 81.1664L59.9695 84.6058L58.1464 90.0745L56.437 95.2026C56.0007 96.5126 56.3414 97.9564 57.3176 98.9333C58.2945 99.9095 59.7382 100.25 61.0482 99.8139L66.1764 98.1045L71.6451 96.2814L75.0845 95.1345C77.7457 94.2476 79.0776 93.8039 80.3295 93.207C81.807 92.5033 83.2026 91.6401 84.4932 90.6339Z" fill="#E60012"/>
<path d="M121.039 54.3262C126.319 49.0471 126.319 40.4882 121.039 35.2092C115.76 29.9302 107.202 29.9302 101.922 35.2092L101.127 36.0044C100.36 36.7717 100.012 37.8435 100.204 38.9116C100.325 39.5835 100.548 40.5658 100.955 41.7379C101.768 44.0821 103.304 47.1593 106.197 50.0519C109.089 52.945 112.167 54.4806 114.51 55.2938C115.683 55.7006 116.665 55.9238 117.337 56.0444C118.405 56.2363 119.477 55.8887 120.244 55.1212L121.039 54.3262Z" fill="#E60012"/>
<path fill-rule="evenodd" clip-rule="evenodd" d="M7.32231 7.32231C-7.45058e-07 14.6447 0 26.4297 0 50V75C0 98.57 -7.45058e-07 110.356 7.32231 117.677C14.6447 125 26.4298 125 50 125H62.5C86.07 125 97.8556 125 105.177 117.677C112.382 110.472 112.498 98.9475 112.5 76.1256L94.8856 93.74C93.1994 95.4269 91.8187 96.8087 90.2594 98.0256C88.4319 99.4506 86.455 100.672 84.3631 101.669C82.5775 102.52 80.7244 103.137 78.4613 103.891L64.0131 108.707C59.3344 110.266 54.1763 109.049 50.6888 105.561C47.2019 102.074 45.9838 96.9156 47.5438 92.2369L49.2531 87.1094L52.2225 78.2006L52.3594 77.7894C53.1131 75.5262 53.73 73.6725 54.5806 71.8869C55.5775 69.795 56.7994 67.8181 58.225 65.9912C59.4412 64.4313 60.8231 63.0506 62.5106 61.3644L87.5506 36.3242L94.5 29.3752L95.295 28.5801C99.7663 24.1088 105.627 21.8738 111.487 21.875C110.542 15.4341 108.713 10.8579 105.177 7.32231C97.8556 7.45058e-07 86.07 0 62.5 0H50C26.4298 0 14.6447 7.45058e-07 7.32231 7.32231ZM26.5625 43.75C26.5625 41.1612 28.6612 39.0625 31.25 39.0625H71.875C74.4638 39.0625 76.5625 41.1612 76.5625 43.75C76.5625 46.3388 74.4638 48.4375 71.875 48.4375H31.25C28.6612 48.4375 26.5625 46.3388 26.5625 43.75ZM26.5625 68.75C26.5625 66.1612 28.6612 64.0625 31.25 64.0625H46.875C49.4637 64.0625 51.5625 66.1612 51.5625 68.75C51.5625 71.3387 49.4637 73.4375 46.875 73.4375H31.25C28.6612 73.4375 26.5625 71.3387 26.5625 68.75ZM26.5625 93.75C26.5625 91.1612 28.6612 89.0625 31.25 89.0625H40.625C43.2138 89.0625 45.3125 91.1612 45.3125 93.75C45.3125 96.3387 43.2138 98.4375 40.625 98.4375H31.25C28.6612 98.4375 26.5625 96.3387 26.5625 93.75Z" fill="#E60012"/>
</svg>
