<svg width="112" height="124" viewBox="0 0 112 124" fill="none" xmlns="http://www.w3.org/2000/svg">
<path d="M40.3037 0C35.167 0 31.0029 4.16407 31.0029 9.30076V15.5013C31.0029 20.6379 35.167 24.802 40.3037 24.802H71.3065C76.443 24.802 80.6073 20.6379 80.6073 15.5013V9.30076C80.6073 4.16407 76.443 0 71.3065 0H40.3037Z" fill="#E60012"/>
<path fill-rule="evenodd" clip-rule="evenodd" d="M21.7019 12.6289C13.9022 13.0665 8.97826 14.3094 5.44829 17.8393C0 23.2876 0 32.0564 0 49.5941V86.7973C0 104.335 0 113.104 5.44829 118.552C10.8966 124 19.6655 124 37.2033 124H74.4065C91.9442 124 100.713 124 106.161 118.552C111.61 113.104 111.61 104.335 111.61 86.7973V49.5941C111.61 32.0564 111.61 23.2876 106.161 17.8393C102.631 14.3094 97.7076 13.0665 89.9079 12.6289V15.5021C89.9079 25.7754 81.5799 34.1036 71.3063 34.1036H40.3035C30.0302 34.1036 21.7019 25.7754 21.7019 15.5021V12.6289ZM24.8022 48.0547C22.2339 48.0547 20.1518 50.1369 20.1518 52.7051C20.1518 55.2734 22.2339 57.3555 24.8022 57.3555H27.9025C30.4708 57.3555 32.5529 55.2734 32.5529 52.7051C32.5529 50.1369 30.4708 48.0547 27.9025 48.0547H24.8022ZM46.5041 48.0547C43.9358 48.0547 41.8537 50.1369 41.8537 52.7051C41.8537 55.2734 43.9358 57.3555 46.5041 57.3555H86.8076C89.3759 57.3555 91.458 55.2734 91.458 52.7051C91.458 50.1369 89.3759 48.0547 86.8076 48.0547H46.5041ZM24.8022 69.7565C22.2339 69.7565 20.1518 71.8386 20.1518 74.4069C20.1518 76.9751 22.2339 79.0573 24.8022 79.0573H27.9025C30.4708 79.0573 32.5529 76.9751 32.5529 74.4069C32.5529 71.8386 30.4708 69.7565 27.9025 69.7565H24.8022ZM46.5041 69.7565C43.9358 69.7565 41.8537 71.8386 41.8537 74.4069C41.8537 76.9751 43.9358 79.0573 46.5041 79.0573H86.8076C89.3759 79.0573 91.458 76.9751 91.458 74.4069C91.458 71.8386 89.3759 69.7565 86.8076 69.7565H46.5041ZM24.8022 91.4583C22.2339 91.4583 20.1518 93.5404 20.1518 96.1086C20.1518 98.6769 22.2339 100.759 24.8022 100.759H27.9025C30.4708 100.759 32.5529 98.6769 32.5529 96.1086C32.5529 93.5404 30.4708 91.4583 27.9025 91.4583H24.8022ZM46.5041 91.4583C43.9358 91.4583 41.8537 93.5404 41.8537 96.1086C41.8537 98.6769 43.9358 100.759 46.5041 100.759H86.8076C89.3759 100.759 91.458 98.6769 91.458 96.1086C91.458 93.5404 89.3759 91.4583 86.8076 91.4583H46.5041Z" fill="#E60012"/>
</svg>
