<svg width="125" height="125" viewBox="0 0 125 125" fill="none" xmlns="http://www.w3.org/2000/svg">
<path d="M88.7317 0H36.3306C13.5693 0 0 13.5625 0 36.3125V88.625C0 111.438 13.5693 125 36.3306 125H88.6692C111.431 125 125 111.438 125 88.6875V36.3125C125.062 13.5625 111.493 0 88.7317 0ZM101.801 68.1875C101.801 69.4375 101.738 70.6875 101.613 71.875C100.488 85.125 92.6712 91.75 78.289 91.75H76.288C75.0374 91.75 73.8493 92.3125 73.1615 93.3125L67.2835 101.187C64.6572 104.687 60.4676 104.687 57.8413 101.187L51.9634 93.3125C51.3381 92.5 49.8999 91.75 48.8368 91.75H46.8358C31.1405 91.75 23.3241 87.875 23.3241 68.25V48.5C23.3241 34.125 29.9524 26.3125 43.209 25.1875C44.2721 25.0625 45.5227 25 46.8358 25H78.289C93.9843 25 101.801 32.875 101.801 48.5V68.1875Z" fill="#E60012"/>
</svg>
