<svg width="50" height="50" viewBox="0 0 50 50" fill="none" xmlns="http://www.w3.org/2000/svg">
<path d="M38.9426 6.10814L33.9424 3.4716C29.5533 1.15721 27.3587 0 24.9979 0C22.6371 0 20.4425 1.15721 16.0533 3.4716L15.249 3.89571L37.5573 16.7044L47.5994 11.6593C45.9838 9.8209 43.3772 8.44642 38.9426 6.10814Z" fill="#E3DC69"/>
<path d="M49.3707 14.9824L39.3744 20.0045V27.6323C39.3744 28.6728 38.5349 29.5164 37.4994 29.5164C36.4638 29.5164 35.6243 28.6728 35.6243 27.6323V21.8885L26.874 26.2846V49.9998C28.6688 49.5506 30.7111 48.4737 33.9435 46.7693L38.9436 44.1329C44.3231 41.2962 47.0126 39.8782 48.5062 37.3297C49.9997 34.7812 49.9997 31.6097 49.9997 25.2672V24.9733C49.9997 20.219 49.9997 17.2464 49.3707 14.9824Z" fill="#E3DC69"/>
<path d="M23.1257 49.9998V26.2846L0.62912 14.9824C2.23524e-07 17.2464 0 20.219 0 24.9733V25.2672C0 31.6097 -1.49016e-07 34.7812 1.49355 37.3297C2.98707 39.8782 5.67673 41.2962 11.056 44.1329L16.0562 46.7693C19.2887 48.4737 21.3309 49.5506 23.1257 49.9998Z" fill="#E3DC69"/>
<path d="M2.39746 11.6606L24.9989 23.0156L33.5272 18.731L11.3099 5.97461L11.0542 6.10943C6.61974 8.44771 4.01304 9.82219 2.39746 11.6606Z" fill="#E3DC69"/>
</svg>
