<svg width="150" height="190" viewBox="0 0 150 190" fill="none" xmlns="http://www.w3.org/2000/svg">
<path d="M75 1.5C115.479 1.5 148.5 37.1669 148.5 81.4287C148.5 92.3051 144.161 104.45 137.45 116.642C130.752 128.81 121.766 140.892 112.645 151.606C103.527 162.317 94.3005 171.63 87.1465 178.26C83.5687 181.575 80.5203 184.21 78.2715 186.008C77.1442 186.909 76.2359 187.585 75.5732 188.028C75.3406 188.184 75.1493 188.3 75 188.386C74.8507 188.3 74.6594 188.184 74.4268 188.028C73.7641 187.585 72.8558 186.909 71.7285 186.008C69.4797 184.21 66.4313 181.575 62.8535 178.26C55.6995 171.63 46.4733 162.317 37.3555 151.606C28.2339 140.892 19.2478 128.81 12.5498 116.642C5.83891 104.45 1.50004 92.3051 1.5 81.4287C1.5 37.1669 34.5208 1.5 75 1.5Z" fill="#EEF2FD" stroke="#6284C4" stroke-width="3"/>
</svg>
