<svg width="50" height="50" viewBox="0 0 50 50" fill="none" xmlns="http://www.w3.org/2000/svg">
<path d="M13.6328 32.2754C13.6328 29.514 11.3942 27.2754 8.63281 27.2754H5C2.23858 27.2754 0 29.514 0 32.2754V35.9082C0 38.6696 2.23858 40.9082 5 40.9082H8.63281C11.3942 40.9082 13.6328 38.6696 13.6328 35.9082V32.2754ZM31.8164 18.6328C31.8164 15.8714 29.5778 13.6328 26.8164 13.6328H23.1836C20.4222 13.6328 18.1836 15.8714 18.1836 18.6328V35.9082C18.1836 38.6696 20.4222 40.9082 23.1836 40.9082H26.8164C29.5778 40.9082 31.8164 38.6696 31.8164 35.9082V18.6328ZM41.3672 0C38.6058 0 36.3672 2.23858 36.3672 5V35.9082C36.3672 38.6696 38.6058 40.9082 41.3672 40.9082H45C47.7614 40.9082 50 38.6696 50 35.9082V5C50 2.23858 47.7614 0 45 0H41.3672ZM0 47.7295C0 48.9835 1.01654 50 2.27051 50H47.7295C48.9835 50 50 48.9835 50 47.7295C50 46.4755 48.9835 45.459 47.7295 45.459H2.27051C1.01654 45.459 0 46.4755 0 47.7295Z" fill="#8EAB51"/>
</svg>
