<svg width="50" height="50" viewBox="0 0 50 50" fill="none" xmlns="http://www.w3.org/2000/svg">
<path d="M33.7973 36.254C34.2348 35.9128 34.6316 35.516 35.4253 34.7223L45.3188 24.8287C45.5578 24.5897 45.4483 24.1777 45.1288 24.0667C43.9611 23.6617 42.4418 22.901 41.0208 21.48C39.5998 20.059 38.8391 18.5397 38.4341 17.3719C38.3231 17.0523 37.9111 16.9429 37.6721 17.182L27.7786 27.0755C26.9848 27.8692 26.5881 28.266 26.2468 28.7035C25.8443 29.2197 25.499 29.778 25.2175 30.369C24.9788 30.8698 24.8013 31.4023 24.4465 32.467L23.9878 33.8428L23.2585 36.0303L22.5748 38.0815C22.4003 38.6055 22.5365 39.183 22.927 39.5738C23.3178 39.9643 23.8953 40.1005 24.4193 39.926L26.4706 39.2423L28.6581 38.513L30.0338 38.0543C31.0983 37.6995 31.6311 37.522 32.1318 37.2833C32.7228 37.0018 33.2811 36.6565 33.7973 36.254Z" fill="#6284C4"/>
<path d="M48.4173 21.7305C50.529 19.6189 50.529 16.1953 48.4173 14.0837C46.3058 11.9721 42.8823 11.9721 40.7705 14.0837L40.4525 14.4018C40.1455 14.7087 40.0065 15.1374 40.0833 15.5647C40.1315 15.8334 40.2208 16.2263 40.3835 16.6952C40.7088 17.6329 41.323 18.8638 42.4803 20.0208C43.6373 21.178 44.8683 21.7923 45.8058 22.1175C46.2748 22.2803 46.6675 22.3695 46.9363 22.4178C47.3635 22.4945 47.7923 22.3555 48.0993 22.0485L48.4173 21.7305Z" fill="#6284C4"/>
<path fill-rule="evenodd" clip-rule="evenodd" d="M2.92893 2.92894C-2.98024e-07 5.8579 0 10.5719 0 20.0001V30.0001C0 39.4282 -2.98024e-07 44.1424 2.92893 47.0712C5.85789 50.0002 10.5719 50.0002 20 50.0002H25.0001C34.4281 50.0002 39.1423 50.0002 42.0711 47.0712C44.9531 44.1892 44.9993 39.5792 45.0001 30.4504L37.9543 37.4961C37.2798 38.1709 36.7276 38.7237 36.1038 39.2104C35.3728 39.7804 34.5821 40.2692 33.7453 40.6679C33.0311 41.0082 32.2898 41.2552 31.3846 41.5564L25.6053 43.4829C23.7338 44.1067 21.6705 43.6197 20.2755 42.2247C18.8808 40.8297 18.3935 38.7664 19.0175 36.8949L19.7013 34.8439L20.889 31.2804L20.9438 31.1159C21.2453 30.2106 21.492 29.4691 21.8323 28.7549C22.231 27.9181 22.7198 27.1274 23.29 26.3966C23.7765 25.7726 24.3293 25.2204 25.0043 24.5458L35.0203 14.5298L37.8001 11.7501L38.1181 11.4321C39.9066 9.64356 42.2508 8.74956 44.5951 8.75004C44.2168 6.17365 43.4853 4.34319 42.0711 2.92894C39.1423 2.98024e-07 34.4281 0 25.0001 0H20C10.5719 0 5.85789 2.98024e-07 2.92893 2.92894ZM10.625 17.5001C10.625 16.4645 11.4645 15.6251 12.5 15.6251H28.7501C29.7856 15.6251 30.6251 16.4645 30.6251 17.5001C30.6251 18.5356 29.7856 19.3751 28.7501 19.3751H12.5C11.4645 19.3751 10.625 18.5356 10.625 17.5001ZM10.625 27.5001C10.625 26.4646 11.4645 25.6251 12.5 25.6251H18.75C19.7855 25.6251 20.625 26.4646 20.625 27.5001C20.625 28.5356 19.7855 29.3751 18.75 29.3751H12.5C11.4645 29.3751 10.625 28.5356 10.625 27.5001ZM10.625 37.5002C10.625 36.4646 11.4645 35.6251 12.5 35.6251H16.25C17.2856 35.6251 18.125 36.4646 18.125 37.5002C18.125 38.5357 17.2856 39.3752 16.25 39.3752H12.5C11.4645 39.3752 10.625 38.5357 10.625 37.5002Z" fill="#6284C4"/>
</svg>
