<svg width="125" height="125" viewBox="0 0 125 125" fill="none" xmlns="http://www.w3.org/2000/svg">
<path d="M75 5.75V57.6875C75 64.0625 69.8125 69.25 63.4375 69.25H6.25C2.8125 69.25 0 66.4375 0 63V23.0625C0 10.3125 10.3125 0 23.0625 0H69.1875C72.4375 0 75 2.5625 75 5.75Z" fill="#E60012"/>
<path d="M121.875 84.375C123.625 84.375 125 85.75 125 87.5V93.75C125 104.125 116.625 112.5 106.25 112.5C106.25 102.187 97.8125 93.75 87.5 93.75C77.1875 93.75 68.75 102.187 68.75 112.5H56.25C56.25 102.187 47.8125 93.75 37.5 93.75C27.1875 93.75 18.75 102.187 18.75 112.5C8.375 112.5 0 104.125 0 93.75V81.25C0 77.8125 2.8125 75 6.25 75H65.625C74.25 75 81.25 68 81.25 59.375V25C81.25 21.5625 84.0625 18.75 87.5 18.75H92.75C97.25 18.75 101.375 21.1875 103.625 25.0625L107.625 32.0625C108.187 33.0625 107.437 34.375 106.25 34.375C97.625 34.375 90.625 41.375 90.625 50V68.75C90.625 77.375 97.625 84.375 106.25 84.375H121.875Z" fill="#E60012"/>
<path d="M37.5 125C44.4036 125 50 119.404 50 112.5C50 105.596 44.4036 100 37.5 100C30.5964 100 25 105.596 25 112.5C25 119.404 30.5964 125 37.5 125Z" fill="#E60012"/>
<path d="M87.5 125C94.4037 125 100 119.404 100 112.5C100 105.596 94.4037 100 87.5 100C80.5962 100 75 105.596 75 112.5C75 119.404 80.5962 125 87.5 125Z" fill="#E60012"/>
<path d="M125 65.8125V75H106.25C102.812 75 100 72.1875 100 68.75V50C100 46.5625 102.812 43.75 106.25 43.75H114.313L123.375 59.625C124.437 61.5 125 63.625 125 65.8125Z" fill="#E60012"/>
</svg>
