<svg width="50" height="50" viewBox="0 0 50 50" fill="none" xmlns="http://www.w3.org/2000/svg">
<path d="M30 2.3V23.075C30 25.625 27.925 27.7 25.375 27.7H2.5C1.125 27.7 0 26.575 0 25.2V9.225C0 4.125 4.125 0 9.225 0H27.675C28.975 0 30 1.025 30 2.3Z" fill="#44A0BD"/>
<path d="M48.75 33.75C49.45 33.75 50 34.3 50 35V37.5C50 41.65 46.65 45 42.5 45C42.5 40.875 39.125 37.5 35 37.5C30.875 37.5 27.5 40.875 27.5 45H22.5C22.5 40.875 19.125 37.5 15 37.5C10.875 37.5 7.5 40.875 7.5 45C3.35 45 0 41.65 0 37.5V32.5C0 31.125 1.125 30 2.5 30H26.25C29.7 30 32.5 27.2 32.5 23.75V10C32.5 8.625 33.625 7.5 35 7.5H37.1C38.9 7.5 40.55 8.475 41.45 10.025L43.05 12.825C43.275 13.225 42.975 13.75 42.5 13.75C39.05 13.75 36.25 16.55 36.25 20V27.5C36.25 30.95 39.05 33.75 42.5 33.75H48.75Z" fill="#44A0BD"/>
<path d="M14.998 50.001C17.7595 50.001 19.998 47.7625 19.998 45.001C19.998 42.2395 17.7595 40.001 14.998 40.001C12.2366 40.001 9.99805 42.2395 9.99805 45.001C9.99805 47.7625 12.2366 50.001 14.998 50.001Z" fill="#44A0BD"/>
<path d="M35 50.001C37.7615 50.001 40 47.7625 40 45.001C40 42.2395 37.7615 40.001 35 40.001C32.2385 40.001 30 42.2395 30 45.001C30 47.7625 32.2385 50.001 35 50.001Z" fill="#44A0BD"/>
<path d="M49.998 26.326V30.001H42.498C41.123 30.001 39.998 28.876 39.998 27.501V20.001C39.998 18.626 41.123 17.501 42.498 17.501H45.723L49.348 23.851C49.773 24.601 49.998 25.451 49.998 26.326Z" fill="#44A0BD"/>
</svg>
