<svg width="125" height="125" viewBox="0 0 125 125" fill="none" xmlns="http://www.w3.org/2000/svg">
<path d="M97.361 15.2703L84.861 8.67896C73.8885 2.89301 68.4022 0 62.5003 0C56.5985 0 51.1122 2.89301 40.1397 8.67896L38.1289 9.73923L93.8978 41.7608L119.002 29.1481C114.963 24.5521 108.447 21.1159 97.361 15.2703Z" fill="#E60012"/>
<path d="M123.427 37.457L98.4375 50.0122V69.0816C98.4375 71.6829 96.3387 73.7917 93.75 73.7917C91.1612 73.7917 89.0625 71.6829 89.0625 69.0816V54.7221L67.1875 65.7124V125C71.6744 123.877 76.78 121.185 84.8606 116.924L97.3606 110.333C110.809 103.241 117.532 99.696 121.266 93.3248C125 86.9537 125 79.025 125 63.1689V62.4341C125 50.5483 125 43.1169 123.427 37.457Z" fill="#E60012"/>
<path d="M57.8125 125V65.7124L1.57275 37.457C5.58794e-07 43.1169 0 50.5483 0 62.4341V63.1689C0 79.025 -3.72529e-07 86.9537 3.73375 93.3248C7.46744 99.696 14.1914 103.241 27.6392 110.333L40.1393 116.924C48.2202 121.185 53.3256 123.877 57.8125 125Z" fill="#E60012"/>
<path d="M5.99805 29.1485L62.5 57.5358L83.82 46.8244L28.2785 14.9336L27.6393 15.2706C16.5534 21.1163 10.0369 24.5525 5.99805 29.1485Z" fill="#E60012"/>
</svg>
