<svg width="369" height="48" viewBox="0 0 369 48" fill="none" xmlns="http://www.w3.org/2000/svg">
<path d="M285.448 18.5599C285.448 26.3999 283.432 32.9799 273.912 37.7119L271.98 34.8279C276.04 32.7839 278.56 30.5159 280.044 27.7719L272.652 28.4439L272.204 25.3079L281.22 24.8039C281.5 23.7679 281.668 22.6759 281.752 21.5279H273.492V18.5599H285.448ZM289.088 16.1799H292.84V41.3799H289.088V16.1799Z" fill="#555555"/>
<path d="M298.861 18.0839H302.585V26.9599H316.725V29.9279H309.585V35.5839H319.133V38.5799H296.313V35.5839H305.833V29.9279H298.861V18.0839Z" fill="#555555"/>
<path d="M338.033 16.2079H341.785V41.4079H338.033V16.2079ZM321.345 18.4759H335.513V21.4439H333.357V32.2519C334.393 32.1679 335.429 32.0559 336.437 31.9439L336.661 34.6319C331.369 35.5559 325.573 35.6399 321.037 35.6679L320.701 32.6439H323.501V21.4439H321.345V18.4759ZM327.085 32.5599L329.773 32.4759V21.4439H327.085V32.5599Z" fill="#555555"/>
<path d="M356.654 17.4119C362.058 17.4119 366.09 20.1839 366.09 24.3839C366.09 28.1359 362.954 30.7119 358.502 31.2719V35.4439H368.078V38.4679H345.258V35.4439H354.778V31.2719C350.354 30.7119 347.218 28.1359 347.218 24.3839C347.218 20.1839 351.25 17.4119 356.654 17.4119ZM356.654 20.3519C353.238 20.3519 350.886 21.8639 350.886 24.3839C350.886 26.9319 353.238 28.4159 356.654 28.4159C360.042 28.4159 362.394 26.9319 362.394 24.3839C362.394 21.8639 360.042 20.3519 356.654 20.3519Z" fill="#555555"/>
<path fill-rule="evenodd" clip-rule="evenodd" d="M43.8465 34.9524L27.8678 23.0476L40.7078 9.42857L27.202 0.761904L17.1201 16.8571L15.8837 2.7619L0 4.19047L5.80182 45.7143L19.593 44.5714L18.4517 31.4286L31.7673 45.0476L43.8465 34.9524ZM54.8795 44.1905L61.5373 10.0952L44.7977 6.57143L42.7052 45.2381L54.8795 44.1905ZM105.859 41.4286L105.955 1.42857L89.1197 2.85714L91.022 24.0952L75.9943 2.95238L60.7764 7.90476L67.1489 46.6667L81.2255 45.5238L79.3232 28L93.59 45.3333L105.859 41.4286ZM147.709 40.2857L150.277 20L138.673 8.09524L120.887 5.71429L107.476 20.9524L111.471 41.2381L130.208 47.9048L147.709 40.2857ZM138.102 28.4762L130.874 35.4286L122.694 32.1905L122.504 22.381L132.776 19.0476L138.102 28.4762ZM188.226 25.7143L191.46 10.8571L175.862 0L150.752 3.52381L154.081 45.2381L167.777 44.2857L167.587 32.1905L178.715 33.4286L188.226 25.7143ZM175.006 22.9524L167.492 24L167.302 11.5238L176.623 14.381L175.006 22.9524ZM202.778 44.1905L209.341 10.0952L192.601 6.57143L190.509 45.2381L202.778 44.1905ZM248.432 40.2857L251 20L239.396 8.09524L221.61 5.71429L208.105 21.0476L212.099 41.3333L230.836 48L248.432 40.2857ZM238.826 28.4762L231.597 35.4286L223.418 32.1905L223.227 22.381L233.499 19.0476L238.826 28.4762Z" fill="#333333"/>
</svg>
