<svg width="273" height="48" viewBox="0 0 273 48" fill="none" xmlns="http://www.w3.org/2000/svg">
<path d="M227.472 22.552H245.168V24.848C245.168 27.48 245.168 30.392 244.328 34.508H247.632V37.504H238.084V46.38H234.332V37.504H224.84V34.508H240.66C240.94 33.192 241.136 32.016 241.276 30.924L227.052 31.624L226.632 28.488L241.5 28.068C241.556 27.172 241.556 26.332 241.556 25.548H227.472V22.552Z" fill="#555555"/>
<path d="M249.621 23.476H263.537V26.444H261.409V37.252L264.237 36.972L264.433 39.66C259.365 40.556 253.653 40.668 249.369 40.668L248.977 37.644H251.749V26.444H249.621V23.476ZM265.329 21.208H269.081V30.7H272.693V33.752H269.081V46.408H265.329V21.208ZM255.361 37.56L257.825 37.476V26.444H255.361V37.56Z" fill="#555555"/>
<path fill-rule="evenodd" clip-rule="evenodd" d="M43.8843 35.0219L27.8917 22.998L40.7429 9.35189L27.2254 0.667991L17.1349 16.8907L15.8973 2.7674L0 4.1988L5.80681 45.8052L19.6099 44.66L18.4676 31.4911L31.7947 45.1372L43.8843 35.0219ZM80.9146 40.2704L83.4848 19.9443L71.9664 8.11133L54.1652 5.72565L40.7429 20.994L44.741 41.2247L63.4942 47.9046L80.9146 40.2704ZM71.3 28.4374L64.0653 35.4036L55.8787 32.159L55.6883 22.33L65.9692 18.9901L71.3 28.4374ZM123.276 40.2704L125.846 19.9443L114.232 8.11133L96.4312 5.72565L83.0089 20.994L87.007 41.3201L105.76 48L123.276 40.2704ZM113.566 28.4374L106.331 35.4036L98.1447 32.159L98.0495 22.4254L108.33 19.0855L113.566 28.4374ZM163.828 25.7654L167.065 10.8787L151.453 0L126.322 3.53082L129.654 45.328L143.362 44.3738L143.171 32.2545L154.309 33.495L163.828 25.7654ZM150.596 22.9026L143.076 23.9523L142.886 11.4513L152.215 14.3141L150.596 22.9026ZM204 44.4692L193.053 8.49304L172.586 5.63022L161.163 42.8469L175.347 45.9006L176.965 38.0755L187.341 37.0258L189.055 46.0915L204 44.4692ZM185.628 27.8648L179.154 27.1968L181.058 17.9404L183.819 18.3221L185.628 27.8648Z" fill="#333333"/>
</svg>
