<svg width="256" height="47" viewBox="0 0 256 47" fill="none" xmlns="http://www.w3.org/2000/svg">
<path d="M188.444 20.992H206.028V28.58H192.28V30.54H206.644V33.48H188.472V25.78H202.248V23.932H188.444V20.992ZM185.84 35.272H208.66V38.24H199.056V45.436H195.332V38.24H185.84V35.272Z" fill="#555555"/>
<path d="M227.477 20.152H231.229V45.436H227.477V20.152ZM217.621 21.888C221.457 21.888 224.257 25.388 224.257 30.904C224.257 36.476 221.457 39.976 217.621 39.976C213.785 39.976 210.985 36.476 210.985 30.904C210.985 25.388 213.785 21.888 217.621 21.888ZM217.621 25.304C215.801 25.304 214.569 27.236 214.569 30.904C214.569 34.628 215.801 36.588 217.621 36.588C219.441 36.588 220.673 34.628 220.673 30.904C220.673 27.236 219.441 25.304 217.621 25.304Z" fill="#555555"/>
<path d="M235.541 22.588H249.709V25.668H244.529V26.928C244.529 30.988 246.489 35.328 250.745 37.092L248.701 40.032C245.817 38.8 243.829 36.364 242.709 33.368C241.589 36.616 239.601 39.332 236.633 40.676L234.533 37.736C238.789 35.804 240.749 31.184 240.749 26.928V25.668H235.541V22.588ZM251.949 20.208H255.673V45.408H251.949V20.208Z" fill="#555555"/>
<path fill-rule="evenodd" clip-rule="evenodd" d="M36.8879 43.3119L37.3621 26.1006L18.2069 31.8692L17.6379 2.93159L0 5.10664L5.97414 45.5815L36.8879 43.3119ZM69.2241 44.6358L77.2845 34.9899L80.4138 14.658L64.5776 11.7264L63.5345 31.491L53.8621 33.0986L57.3707 7.56539L39.4483 6.05231L37.7414 36.2193L47.4138 44.6358H69.2241ZM93.5 44.163L100.043 10.3078L83.4483 6.80885L81.3621 45.2032L93.5 44.163ZM144.517 39.4346L143.664 18.8189L122.422 20.6157L122.517 31.9638L131.526 28.6539L132.664 31.491L124.603 34.6117L116.448 30.4507L116.922 18.9135L123.371 12.8612L134.94 17.9678L140.345 5.20121L125.172 0L108.009 4.44467L98.7155 19.2918L104.69 40.7586L123.086 47L144.517 39.4346ZM158.457 44.163L165 10.3078L148.31 6.80885L146.224 45.2032L158.457 44.163Z" fill="#333333"/>
</svg>
