<svg width="290" height="48" viewBox="0 0 290 48" fill="none" xmlns="http://www.w3.org/2000/svg">
<path d="M218.596 23.532H230.692V40.304H218.596V23.532ZM227.024 26.472H222.264V37.336H227.024V26.472ZM233.884 21.208H237.636V30.644H241.22V33.724H237.636V46.408H233.884V21.208Z" fill="#555555"/>
<path d="M259.561 21.152H263.313V46.436H259.561V21.152ZM243.601 23.308H255.529V33.108H247.437V37.532C251.217 37.504 254.381 37.308 257.881 36.72L258.245 39.716C254.213 40.444 250.489 40.584 245.897 40.584H243.657V30.168H251.749V26.276H243.601V23.308Z" fill="#555555"/>
<path d="M278.181 22.412C283.585 22.412 287.617 25.184 287.617 29.384C287.617 33.136 284.481 35.712 280.029 36.272V40.444H289.605V43.468H266.785V40.444H276.305V36.272C271.881 35.712 268.745 33.136 268.745 29.384C268.745 25.184 272.777 22.412 278.181 22.412ZM278.181 25.352C274.765 25.352 272.413 26.864 272.413 29.384C272.413 31.932 274.765 33.416 278.181 33.416C281.569 33.416 283.921 31.932 283.921 29.384C283.921 26.864 281.569 25.352 278.181 25.352Z" fill="#555555"/>
<path fill-rule="evenodd" clip-rule="evenodd" d="M53.3025 45.8052L47.9627 5.72565L37.1878 4.19881L30.0363 15.3638L26.4129 2.67197L15.2565 1.0497L0 37.6938L15.2565 44.66L21.6452 23.666L27.8432 34.0676L36.6157 25.67L36.711 47.2366L53.3025 45.8052ZM95.1626 44.3738L84.197 8.39761L63.696 5.53479L52.2536 42.7515L66.4613 45.8052L68.0823 37.9801L78.4758 36.9304L80.1922 45.996L95.1626 44.3738ZM76.7594 27.8648L70.2754 27.1968L72.1825 17.9404L74.9477 18.3221L76.7594 27.8648ZM136.927 39.507L124.245 29.2008L131.302 24.4294L134.544 10.8787L118.906 0L93.7323 3.53082L97.0697 45.328L110.801 44.3738L110.61 31.3002L121.385 46.664L136.927 39.507ZM118.047 22.33L110.515 23.9523L110.324 11.4513L119.668 14.3141L118.047 22.33ZM148.751 44.2783L155.426 10.1153L138.644 6.58449L136.546 45.328L148.751 44.2783ZM194.425 40.2704L197 19.9443L185.367 8.01591L167.536 5.63022L153.996 20.994L158 41.3201L176.785 48L194.425 40.2704ZM184.795 28.4374L177.548 35.4036L169.348 32.159L169.157 22.33L179.455 18.9901L184.795 28.4374Z" fill="#333333"/>
</svg>
