<svg width="265" height="48" viewBox="0 0 265 48" fill="none" xmlns="http://www.w3.org/2000/svg">
<path d="M196.052 23.4201H207.448V26.3601H199.776V37.3361C203.332 37.3081 205.88 37.1401 208.708 36.6081L209.072 39.6321C205.712 40.2761 202.688 40.3881 198.096 40.3881H196.052V23.4201ZM212.348 21.1801H216.044V46.4641H212.348V32.8561H206.272V29.8601H212.348V21.1801Z" fill="#555555"/>
<path d="M219.349 40.4441H228.869V35.8801H221.729V22.7481H225.425V26.5841H236.009V22.7481H239.705V35.8801H232.593V40.4441H242.169V43.4681H219.349V40.4441ZM225.425 29.4961V32.9401H236.009V29.4961H225.425Z" fill="#555555"/>
<path d="M261.07 21.1801H264.822V46.3801H261.07V21.1801ZM257.346 23.7561C257.346 31.5121 254.798 37.8121 245.782 42.1521L243.85 39.2121C250.262 36.1321 252.978 32.2681 253.51 26.7241H245.194V23.7561H257.346Z" fill="#555555"/>
<path d="M170.358 4.78672L169.021 17.6574L151.382 14.826L150.138 20.0838L164.454 19.3292L163.199 29.8288L150.285 29.1139L151.698 34.2192L168.762 31.043L171.592 43.4124L139.45 44.745L132.855 29.5508L136.191 3.22984L170.358 4.78672Z" fill="#333333"/>
<path fill-rule="evenodd" clip-rule="evenodd" d="M53.2015 45.7781L47.8718 5.80557L37.1173 4.28281L29.9794 15.418L26.3628 2.76005L15.2276 1.14211L0 37.6884L15.2276 44.636L21.6042 23.698L27.7904 34.0718L36.5463 25.6966L36.6414 47.2056L53.2015 45.7781ZM136.668 39.4967L124.01 29.218L131.053 24.4594L134.289 10.9449L118.68 0.0952148L93.5546 3.6166L96.8857 45.3022L110.591 44.3505L110.4 31.3118L121.155 46.6346L136.668 39.4967ZM117.824 22.3656L110.305 23.9835L110.115 11.5159L119.442 14.3711L117.824 22.3656Z" fill="#333333"/>
<path fill-rule="evenodd" clip-rule="evenodd" d="M91.7465 40.2581L94.3162 19.9863L82.7051 8.08976L64.9078 5.71045L51.3933 21.0332L55.3906 41.305L74.1396 47.9671L91.7465 40.2581ZM82.1341 28.4567L74.9009 35.4043L66.7161 32.1684L66.5257 22.3657L76.8044 19.0346L82.1341 28.4567Z" fill="#333333"/>
</svg>
