<svg width="255" height="45" viewBox="0 0 255 45" fill="none" xmlns="http://www.w3.org/2000/svg">
<path d="M226.088 18.2079H229.84V43.4079H226.088V18.2079ZM209.4 20.4759H223.568V23.4439H221.412V34.2519C222.448 34.1679 223.484 34.0559 224.492 33.9439L224.716 36.6319C219.424 37.5559 213.628 37.6399 209.092 37.6679L208.756 34.6439H211.556V23.4439H209.4V20.4759ZM215.14 34.5599L217.828 34.4759V23.4439H215.14V34.5599Z" fill="#555555"/>
<path d="M250.505 18.1799H254.229V43.3799H250.505V18.1799ZM234.237 22.2679H239.389V18.7679H243.141V22.2679H248.237V25.2079H243.141V25.9919C243.141 29.5759 245.073 33.6919 249.245 35.4839L247.257 38.3399C244.429 37.1639 242.441 34.8119 241.321 31.9559C240.229 34.9799 238.241 37.4999 235.329 38.7599L233.369 35.9039C237.513 34.0279 239.389 29.7719 239.389 25.9919V25.2079H234.237V22.2679Z" fill="#555555"/>
<path fill-rule="evenodd" clip-rule="evenodd" d="M35.1073 24.1208L38.1518 10.2013L23.5 0L0 3.24153L3.13968 42.3305L15.9838 41.4725L15.7935 30.1271L26.2591 31.2712L35.1073 24.1208ZM22.7389 21.4513L15.6984 22.4047L15.5081 10.678L24.2611 13.3475L22.7389 21.4513ZM68.9777 42.8072L67.5506 31.8432L52.5182 33.178L51.7571 28.6017L62.8887 30.2225L64.7915 21.1653L52.3279 20.7839L53.8502 16.3983L68.8826 20.3072L71.0708 9.24788L41.5769 5.05297L36.5344 27.6483L40.9109 41.2818L68.9777 42.8072ZM109.318 41.5678L99.0425 7.91314L79.919 5.24365L69.3583 39.947L82.583 42.8072L84.1053 35.4661L93.7146 34.5127L95.332 42.9979L109.318 41.5678ZM92.1923 26.0275L86.1032 25.3602L87.9109 16.6843L90.4798 16.9703L92.1923 26.0275ZM148.802 36.3242L141.951 25.0742L133.579 32.2246L124.065 28.9831L123.494 19.7352L131.01 13.6335L140.81 19.0678L146.423 6.95975L131.296 0.858051L116.358 5.05297L106.939 17.8284L112.743 38.9936L132.532 45L148.802 36.3242ZM187.715 41.4725L188 2.28814L172.016 3.14619L173.443 17.2564H164.024L162.217 2.1928L146.518 5.05297L154.796 43.7606L167.069 41.6631L165.642 29.6504L174.585 27.4576L176.107 42.3305L187.715 41.4725Z" fill="#333333"/>
</svg>
