<svg width="435" height="48" viewBox="0 0 435 48" fill="none" xmlns="http://www.w3.org/2000/svg">
<path d="M338.336 34.6121H347.856V30.9161H340.94V22.3201H354.912V19.7161H340.912V16.7761H358.608V25.2321H344.636V27.9481H359.168V30.9161H351.58V34.6121H361.156V37.6081H338.336V34.6121Z" fill="#555555"/>
<path d="M363.313 16.3001H376.949V19.2401H372.105C372.385 21.6201 374.121 23.9721 377.873 24.9801L376.165 27.8921C373.337 27.1361 371.405 25.5121 370.257 23.4681C369.137 25.7921 367.121 27.6121 364.097 28.4521L362.305 25.5401C366.225 24.4481 367.989 21.8721 368.269 19.2401H363.313V16.3001ZM378.909 15.2081H382.633V20.0801H385.937V23.0761H382.633V28.0601H378.909V15.2081ZM365.945 29.0401H382.633V35.8441H369.697V37.3281H383.389V40.1561H366.001V33.2121H378.965V31.8401H365.945V29.0401Z" fill="#555555"/>
<path d="M404.529 15.1521H408.281V40.4361H404.529V15.1521ZM388.569 17.3081H400.497V27.1081H392.405V31.5321C396.185 31.5041 399.349 31.3081 402.849 30.7201L403.213 33.7161C399.181 34.4441 395.457 34.5841 390.865 34.5841H388.625V24.1681H396.717V20.2761H388.569V17.3081Z" fill="#555555"/>
<path d="M427.798 15.1521H431.55V24.6721H434.994V27.7241H431.55V40.3521H427.798V15.1521ZM412.51 17.5601H416.234V31.1401C419.37 31.0841 422.758 30.7761 426.23 30.1041L426.622 33.1281C422.45 33.9961 418.39 34.2201 414.694 34.2201H412.51V17.5601Z" fill="#555555"/>
<path d="M27.3145 46.0635L16.6552 30.9311L16.8455 43.7794L3.23587 44.7311L0 3.42621L24.9352 0L40.4483 10.7545L37.2125 24.1738L30.2649 28.9325L42.8277 39.2111L27.4097 46.2539L27.3145 46.0635ZM25.6014 14.1807L16.3697 11.3255L16.56 23.698L24.0787 22.08L25.6014 14.1807Z" fill="#333333"/>
<path d="M64.3367 47.396L45.778 40.8291L41.7808 20.7477L55.1049 5.61523L72.7119 7.99455L84.1326 19.796L81.5629 39.8774L64.3367 47.396ZM66.9063 18.7491L56.7229 22.0801L56.9132 31.7877L65.0029 35.0236L72.1408 28.076L66.9063 18.7491Z" fill="#333333"/>
<path d="M99.5506 45.6829L85.4651 36.5463L91.8416 25.9822L105.261 34.2622L108.782 29.218L86.1313 18.3684L94.4113 3.80696L112.589 0.66626L126.675 7.70903L120.679 19.0346L108.592 11.6111L105.737 16.3697L128.959 27.6953L120.584 43.6843L99.6458 45.7781L99.5506 45.6829Z" fill="#333333"/>
<path d="M154.941 45.4925L153.228 36.4511L142.949 37.4028L141.331 45.2069L127.246 42.2566L138.571 5.4248L158.843 8.27998L169.693 43.8745L154.846 45.4925H154.941ZM149.802 18.0828L147.137 17.7021L145.233 26.8386L151.705 27.5048L149.802 18.0828Z" fill="#333333"/>
<path d="M174.737 45.2071L168.836 4.75879L186.348 2.56982L186.919 31.3119L205.953 25.6016L205.478 42.8278L174.737 45.2071Z" fill="#333333"/>
<path d="M208.333 44.7313L210.427 6.37671L226.987 9.89809L220.42 43.6844L208.333 44.7313Z" fill="#333333"/>
<path d="M261.344 44.9215L247.163 27.6953L249.067 45.0167L235.076 46.1588L228.795 7.70904L243.927 2.76006L258.774 23.698L256.871 2.66489L273.526 1.2373V40.9243C273.431 40.9243 261.344 44.9215 261.344 44.9215Z" fill="#333333"/>
<path d="M302.744 45.4925L301.031 36.4511L290.752 37.4028L289.134 45.2069L275.049 42.2566L286.374 5.4248L306.646 8.27998L317.496 43.8745L302.649 45.4925H302.744ZM297.51 18.0828L294.845 17.7021L292.941 26.8386L299.413 27.5048L297.51 18.0828Z" fill="#333333"/>
</svg>
