<svg width="194" height="57" viewBox="0 0 194 57" fill="none" xmlns="http://www.w3.org/2000/svg">
<path d="M169.735 2.5C172.709 2.50001 175.699 2.68524 178.707 3.05469L179.815 3.18262C182.369 3.49282 184.697 3.88462 186.791 4.3623L189.195 4.91113L188.68 7.32324L186.46 17.7031L185.936 20.1553L183.485 19.623C174.973 17.776 169.446 16.9199 166.675 16.9199C166.165 16.9199 165.782 16.9505 165.508 16.9941C165.403 17.0109 165.324 17.0286 165.268 17.043C165.276 17.0534 165.285 17.0643 165.294 17.0752C165.653 17.497 166.295 18.0599 167.328 18.75C169.297 20.025 172.807 21.4821 178.075 23.0664C181.894 24.1687 185.05 26.0007 187.381 28.6572H187.382C189.699 31.2579 190.955 34.2544 190.955 37.5801C190.955 40.6439 189.816 43.4646 187.756 45.9941C185.685 48.5466 182.714 50.4838 179.04 51.9102L179.001 51.9258C175.313 53.2867 171.171 53.9404 166.615 53.9404C162.621 53.9404 158.577 53.4776 154.487 52.5596L154.464 52.5537C150.43 51.6069 146.788 50.4449 143.551 49.0576L141.016 47.9717L142.345 45.5557L148.284 34.7549L149.454 32.6289L151.614 33.7344C158.234 37.1224 163.708 38.6797 168.115 38.6797C170.1 38.6797 171.504 38.3654 172.483 37.8926C172.049 37.6204 171.431 37.3015 170.583 36.9521C167.985 35.8822 164.767 34.8124 160.911 33.75L160.889 33.7441L160.867 33.7373C158.779 33.1204 156.525 31.9581 154.128 30.3604C151.652 28.7094 149.487 26.7655 147.646 24.5293L147.636 24.5176L147.627 24.5068C145.716 22.13 144.615 19.5136 144.615 16.7002C144.615 13.2917 146.385 10.4028 149.247 8.04883H149.248C153.943 4.19084 160.938 2.5 169.735 2.5ZM97.4072 5.37012L101.067 27.3799L105.906 17.7383L106.614 16.3291L108.19 16.3604L114.25 16.4805L115.931 16.5137L116.534 18.082L119.649 26.1748L125.414 5.64453L125.924 3.82812L127.81 3.82031L141.55 3.75977L145.085 3.74414L143.922 7.08301L128.802 50.4629L128.224 52.1201L126.469 52.1396L115.549 52.2598L113.849 52.2783L113.206 50.7051L110.527 44.1436L108.493 50.8467L107.955 52.6201H90.5361L90.0576 50.7354L79.1377 7.71484L78.6279 5.70508V19.7998H59.7285V21.2197H77.3086V35.46H59.7285V35.6201H81.0879V52.3203H43.3281V4.17969H78.6279V4.87793L81.3154 4.6123L94.6953 3.29199L97.0234 3.0625L97.4072 5.37012ZM41.6328 3.40039L41.6992 5.83203L42.8994 49.752L42.9697 52.3203H26.043L25.3633 50.8965L19.6709 38.9619L20.2764 49.6797L20.4248 52.3203H2.5V4.55078L5.10742 4.66211L19.0869 5.2627L20.7217 5.33203L21.3115 6.8584L25.3604 17.335V3.40039H41.6328Z" fill="white" stroke="#FF2B31" stroke-width="5"/>
</svg>
