<svg width="260" height="48" viewBox="0 0 260 48" fill="none" xmlns="http://www.w3.org/2000/svg">
<path d="M213.84 40.4441H218.796V34.3121C216.92 33.1081 215.8 31.3441 215.8 29.1601C215.8 25.0161 219.804 22.3561 225.236 22.3561C230.668 22.3561 234.672 25.0161 234.672 29.1601C234.672 31.3441 233.552 33.1081 231.676 34.3121V40.4441H236.66V43.4681H213.84V40.4441ZM225.236 25.2681C221.764 25.2681 219.468 26.6961 219.468 29.1601C219.468 31.6241 221.764 33.0521 225.236 33.0521C228.68 33.0521 230.976 31.6241 230.976 29.1601C230.976 26.6961 228.68 25.2681 225.236 25.2681ZM222.548 40.4441H227.924V35.7121C227.084 35.8521 226.188 35.9361 225.236 35.9361C224.284 35.9361 223.388 35.8521 222.548 35.7121V40.4441Z" fill="#555555"/>
<path d="M244.361 23.1121H248.141V26.6961C248.141 31.3721 250.045 35.9921 254.357 37.8401L252.201 40.8641C249.345 39.5761 247.413 37.1401 246.293 34.0881C245.201 37.3921 243.185 40.0521 240.161 41.4521L237.949 38.3721C242.373 36.4681 244.361 31.6241 244.361 26.6961V23.1121ZM255.477 21.1521H259.201V46.4361H255.477V21.1521Z" fill="#555555"/>
<path fill-rule="evenodd" clip-rule="evenodd" d="M31.215 45.4183L29.9778 31.4582L49.392 10.9004L35.1169 2.86853L24.6484 19.3147L18.4625 0L0 6.0239L16.7495 30.7888L13.8945 44.4621L31.215 45.4183ZM83.8427 40.3506L86.4122 19.9841L74.8969 8.03187L57.1006 5.64143L43.5868 21.0359L47.5838 41.3068L66.3318 48L83.8427 40.3506ZM74.2308 28.494L66.998 35.4741L58.8136 32.2231L58.7184 22.3745L68.9965 19.0279L74.2308 28.494ZM120.863 44.2709L129.333 28.0159L105.922 16.5418L108.777 11.761L120.958 19.3147L126.954 7.84064L112.774 0.669322L94.5015 3.8247L86.1267 18.5498L109.062 29.5458L105.541 34.7092L92.0271 26.2948L85.5557 37.004L99.8309 46.2789L120.863 44.2709ZM171.016 44.4621L171.397 2.39044L154.362 3.34661L155.885 18.5498H145.797L143.798 2.39044L126.858 5.35458L135.709 46.8526L148.842 44.6534L147.224 31.745L156.836 29.4502L158.454 45.4183L171.016 44.4621ZM186.433 44.3665L193 10.1355L176.25 6.59761L174.252 45.3227L186.433 44.3665Z" fill="#333333"/>
</svg>
