<svg width="20" height="20" viewBox="0 0 20 20" fill="none" xmlns="http://www.w3.org/2000/svg">
<path fill-rule="evenodd" clip-rule="evenodd" d="M10.3276 0.24961C10.4524 0.0624025 10.702 0 10.9516 0L16.8175 0.124805C17.0671 0.124805 17.2543 0.24961 17.4415 0.374415L19.6256 2.5585C19.8128 2.74571 19.8752 2.93292 19.8752 3.18253L20 9.04836C20 9.29797 19.9376 9.54758 19.7504 9.73479L9.76599 19.7192C9.39158 20.0936 8.82995 20.0936 8.45554 19.7192L0.280811 11.5445C-0.0936038 11.17 -0.0936038 10.6084 0.280811 10.234L10.3276 0.24961ZM14.5086 2.80811C13.7598 3.55694 13.7598 4.74259 14.5086 5.49142C15.2574 6.24025 16.4431 6.24025 17.1919 5.49142C17.9407 4.74259 17.9407 3.55694 17.1919 2.80811C16.4431 2.05928 15.195 2.05928 14.5086 2.80811Z" fill="#E60012"/>
</svg>
