<svg width="20" height="16" viewBox="0 0 20 16" fill="none" xmlns="http://www.w3.org/2000/svg">
<path fill-rule="evenodd" clip-rule="evenodd" d="M13.4502 5.1087e-05C13.6792 -0.00246376 13.8999 0.087958 14.0644 0.25167C14.2289 0.415381 14.3238 0.639155 14.3286 0.874371V4.67556H14.4242C15.0096 4.68173 15.5689 4.92563 15.9799 5.354C16.3909 5.78236 16.6203 6.3604 16.6178 6.96188V7.05539C16.6227 7.65848 16.3944 8.23892 15.9832 8.66931C15.5719 9.0997 15.0112 9.34489 14.4242 9.35106H14.3286V13.1382C14.3238 13.3734 14.2289 13.5972 14.0644 13.7609C13.8999 13.9246 13.6792 14.0151 13.4502 14.0125L8.64874 10.4966H6.55065L7.06494 14.5268C7.05421 14.927 6.88974 15.3065 6.60746 15.5825C6.32519 15.8585 5.94807 16.0084 5.5585 15.9996H4.803C4.41343 16.0084 4.03631 15.8585 3.75404 15.5825C3.47177 15.3065 3.3073 14.927 3.29657 14.5268L2.78229 10.4966H1.54892C1.11868 10.4735 0.714706 10.2769 0.424905 9.94941C0.135105 9.62192 -0.0170612 9.1901 0.00152228 8.74792V5.24597C-0.0158632 4.80411 0.136715 4.37297 0.426273 4.04576C0.715831 3.71854 1.11911 3.52154 1.54892 3.49733H8.62599L13.4502 5.1087e-05ZM17.1822 9.72978C17.209 9.7051 17.2403 9.68612 17.2744 9.67393C17.3084 9.66174 17.3444 9.65658 17.3803 9.65876C17.4163 9.66093 17.4515 9.67039 17.4839 9.68659C17.5163 9.70279 17.5452 9.72541 17.569 9.75316L19.4441 11.9086C19.4947 11.9626 19.523 12.0346 19.523 12.1096C19.523 12.1846 19.4947 12.2566 19.4441 12.3107C19.3936 12.3594 19.3268 12.3862 19.2575 12.3855C19.2197 12.385 19.1823 12.3764 19.1478 12.3603C19.1133 12.3442 19.0825 12.321 19.0573 12.292L17.1594 10.1365C17.1115 10.0788 17.0871 10.0043 17.0913 9.92847C17.0955 9.85268 17.1281 9.7815 17.1822 9.72978ZM14.4242 5.80703H14.3286V8.18686H14.4242C14.5692 8.18625 14.7127 8.15622 14.8464 8.0985C14.9801 8.04078 15.1013 7.9565 15.2033 7.85051C15.3052 7.74451 15.3857 7.61888 15.4402 7.48083C15.4948 7.34277 15.5222 7.19502 15.521 7.04604V6.95253C15.5222 6.80333 15.4948 6.65534 15.4403 6.51703C15.3858 6.37871 15.3054 6.25277 15.2035 6.1464C15.1017 6.04003 14.9804 5.95531 14.8467 5.89708C14.713 5.83885 14.5694 5.80825 14.4242 5.80703ZM19.7536 6.54576C19.8217 6.5547 19.8843 6.58883 19.9296 6.64176C19.975 6.69469 20 6.76279 20 6.8333C20 6.90382 19.975 6.97192 19.9296 7.02485C19.8843 7.07778 19.8217 7.11191 19.7536 7.12085H17.6282C17.5601 7.11191 17.4975 7.07778 17.4522 7.02485C17.4068 6.97192 17.3818 6.90382 17.3818 6.8333C17.3818 6.76279 17.4068 6.69469 17.4522 6.64176C17.4975 6.58883 17.5601 6.5547 17.6282 6.54576H19.7536ZM19.0391 1.4027C19.0641 1.37598 19.0942 1.35472 19.1274 1.34019C19.1606 1.32567 19.1964 1.31819 19.2325 1.31819C19.2686 1.31819 19.3043 1.32567 19.3376 1.34019C19.3708 1.35472 19.4009 1.37598 19.4259 1.4027C19.4765 1.45672 19.5048 1.52877 19.5048 1.60375C19.5048 1.67872 19.4765 1.75078 19.4259 1.8048L17.569 3.95553C17.5429 3.98466 17.5113 4.00799 17.4761 4.02407C17.4408 4.04015 17.4028 4.04865 17.3642 4.04904C17.2967 4.04768 17.232 4.02108 17.1822 3.97423C17.1313 3.91944 17.1029 3.8466 17.1029 3.77085C17.1029 3.6951 17.1313 3.62226 17.1822 3.56746L19.0391 1.4027Z" fill="#E60012"/>
</svg>
