<svg width="20" height="20" viewBox="0 0 20 20" fill="none" xmlns="http://www.w3.org/2000/svg">
<path fill-rule="evenodd" clip-rule="evenodd" d="M11.8117 12.0287C11.2494 12.0287 11.1869 11.0481 11.1869 9.80603C11.1869 8.56393 11.1869 7.51795 11.8117 7.58333C12.3739 7.6487 12.4988 8.49856 12.4988 9.74065C12.4364 11.0481 12.3739 12.0287 11.8117 12.0287ZM8.18833 12.0287C7.62609 12.0287 7.56362 10.9827 7.56362 9.80603C7.56362 8.56393 7.68856 7.71407 8.2508 7.6487C8.87551 7.58333 8.87551 8.6293 8.87551 9.8714C8.81304 11.0481 8.75057 12.0287 8.18833 12.0287ZM19.9954 7.6487C19.9329 7.45258 19.1208 7.25646 16.497 6.92959C14.8728 6.73347 13.311 6.60272 13.2485 6.60272C13.1236 6.60272 12.9986 6.47198 12.9361 6.34123C12.5613 5.29525 12.124 4.1839 11.6867 3.2033C10.6872 0.719109 10.2499 0 9.93752 0C9.68764 0 9.31281 0.719109 8.18833 3.26868C7.50115 4.83764 6.93891 6.4066 6.93891 6.4066C6.87643 6.53735 6.75149 6.6681 6.62655 6.6681C6.62655 6.6681 5.06477 6.73347 3.44051 6.92959C0.879193 7.19109 0.0670669 7.38721 0.00459562 7.58333C-0.0578756 7.84482 0.504366 8.43318 2.44097 10.329C3.62793 11.5057 4.87735 12.5517 4.87735 12.5517C5.0023 12.6171 5.0023 12.7478 5.0023 12.8132V12.8786C5.0023 12.8786 4.62747 14.5129 4.25264 16.2126C3.87781 18.1738 3.56546 19.7428 3.81534 19.9389C4.06523 20.2004 4.93982 19.6121 7.06385 18.37C8.50069 17.5201 9.81258 16.6049 9.87505 16.6049C10 16.5395 10.1249 16.5395 10.2499 16.6049C10.2499 16.6049 11.6242 17.5201 12.9986 18.37C15.1226 19.6774 15.9348 20.135 16.2471 19.9389C16.497 19.7428 16.2471 18.5661 15.8098 16.2126C15.4975 14.5129 15.0602 12.8786 15.0602 12.8786V12.8132C15.0602 12.6825 15.1226 12.6171 15.1851 12.5517C15.1851 12.5517 16.3721 11.5057 17.6215 10.3944C19.4956 8.49856 20.0579 7.84482 19.9954 7.6487Z" fill="#E60012"/>
</svg>
