<svg width="20" height="20" viewBox="0 0 20 20" fill="none" xmlns="http://www.w3.org/2000/svg">
<g clip-path="url(#clip0_449_185)">
<mask id="mask0_449_185" style="mask-type:luminance" maskUnits="userSpaceOnUse" x="0" y="0" width="20" height="20">
<path d="M20 0H0V20H20V0Z" fill="white"/>
</mask>
<g mask="url(#mask0_449_185)">
<path fill-rule="evenodd" clip-rule="evenodd" d="M10.1689 13.498H19.6822C19.7666 13.4979 19.8502 13.5144 19.9282 13.5466C20.0061 13.5788 20.077 13.6261 20.1367 13.6858C20.1963 13.7454 20.2436 13.8163 20.2759 13.8943C20.3081 13.9723 20.3246 14.0558 20.3244 14.1402V14.1602C20.3246 14.2446 20.3081 14.3282 20.2759 14.4062C20.2436 14.4841 20.1963 14.555 20.1367 14.6147C20.077 14.6743 20.0061 14.7216 19.9282 14.7539C19.8502 14.7861 19.7666 14.8026 19.6822 14.8024H10.1689C10.0845 14.8026 10.0009 14.7861 9.92295 14.7539C9.84496 14.7216 9.77411 14.6743 9.71444 14.6147C9.65478 14.555 9.60748 14.4841 9.57525 14.4062C9.54303 14.3282 9.52652 14.2446 9.52667 14.1602V14.1402C9.52652 14.0558 9.54303 13.9723 9.57525 13.8943C9.60748 13.8163 9.65478 13.7454 9.71444 13.6858C9.77411 13.6261 9.84496 13.5788 9.92295 13.5466C10.0009 13.5144 10.0845 13.4979 10.1689 13.498ZM10.1756 18.6758H19.6756C19.8475 18.6761 20.0122 18.7446 20.1337 18.8662C20.2551 18.9879 20.3233 19.1528 20.3233 19.3247V19.348C20.3233 19.5199 20.2551 19.6848 20.1337 19.8064C20.0122 19.9281 19.8475 19.9966 19.6756 19.9969H10.1756C10.0038 19.9966 9.83925 19.9283 9.71783 19.8068C9.59641 19.6854 9.52807 19.5208 9.52778 19.3491V19.3258C9.52778 19.1539 9.59599 18.989 9.71744 18.8673C9.83889 18.7457 10.0037 18.6761 10.1756 18.6758ZM1.33333 -0.324219H18.9867C19.3403 -0.324219 19.6794 -0.183743 19.9295 0.0663055C20.1795 0.316354 20.32 0.655493 20.32 1.00911V10.0213C20.32 10.375 20.1795 10.7141 19.9295 10.9641C19.6794 11.2142 19.3403 11.3547 18.9867 11.3547H1.33333C0.979711 11.3547 0.640573 11.2142 0.390524 10.9641C0.140476 10.7141 0 10.375 0 10.0213L0 1.00911C0 0.655493 0.140476 0.316354 0.390524 0.0663055C0.640573 -0.183743 0.979711 -0.324219 1.33333 -0.324219ZM1.33333 13.5147H5.57778C5.9314 13.5147 6.27054 13.6551 6.52059 13.9052C6.77064 14.1552 6.91111 14.4944 6.91111 14.848V18.6591C6.91111 19.0127 6.77064 19.3519 6.52059 19.6019C6.27054 19.852 5.9314 19.9924 5.57778 19.9924H1.33333C0.979711 19.9924 0.640573 19.852 0.390524 19.6019C0.140476 19.3519 0 19.0127 0 18.6591L0 14.848C0 14.4944 0.140476 14.1552 0.390524 13.9052C0.640573 13.6551 0.979711 13.5147 1.33333 13.5147ZM10.1711 16.0891H19.6711C19.8428 16.0894 20.0074 16.1577 20.1288 16.2792C20.2503 16.4006 20.3186 16.5652 20.3189 16.7369V16.7436C20.3189 16.9155 20.2507 17.0803 20.1292 17.202C20.0078 17.3237 19.843 17.3922 19.6711 17.3924H10.1756C10.0038 17.3922 9.83925 17.3238 9.71783 17.2024C9.59641 17.081 9.52807 16.9164 9.52778 16.7447V16.738C9.52778 16.5664 9.59587 16.4018 9.71711 16.2803C9.83836 16.1589 10.0028 16.0905 10.1744 16.0902L10.1711 16.0891Z" fill="#E60012"/>
</g>
</g>
<defs>
<clipPath id="clip0_449_185">
<rect width="20" height="20" fill="white"/>
</clipPath>
</defs>
</svg>
