<svg width="20" height="20" viewBox="0 0 20 20" fill="none" xmlns="http://www.w3.org/2000/svg">
<path fill-rule="evenodd" clip-rule="evenodd" d="M18.8125 6.43689H13.5V1.17597C13.5 0.557039 13 0 12.3125 0H7.625C7 0 6.4375 0.495146 6.4375 1.17597V6.43689H1.1875C0.5625 6.43689 0 6.93204 0 7.61286V12.2549C0 12.8738 0.5 13.4308 1.1875 13.4308H6.5V18.6917C6.5 19.3107 7 19.8677 7.6875 19.8677H12.375C13 19.8677 13.5625 19.3726 13.5625 18.6917V13.4308H18.875C19.5 13.4308 20.0625 12.9357 20.0625 12.2549V7.61286C20 6.93204 19.5 6.43689 18.8125 6.43689ZM4.6875 10.46H2.375C2.0625 10.46 1.8125 10.2124 1.8125 9.90291C1.8125 9.59345 2.0625 9.34587 2.375 9.34587H4.75C5.0625 9.34587 5.3125 9.59345 5.3125 9.90291C5.3125 10.2124 5 10.46 4.6875 10.46ZM10.5625 17.4539C10.5625 17.7634 10.3125 18.0109 10 18.0109C9.6875 18.0109 9.4375 17.7634 9.4375 17.4539V15.1019C9.4375 14.7925 9.6875 14.5449 10 14.5449C10.3125 14.5449 10.5625 14.7925 10.5625 15.1019V17.4539ZM10.5625 4.64199C10.5625 4.95146 10.3125 5.19903 10 5.19903C9.6875 5.19903 9.4375 4.95146 9.4375 4.64199V2.35194C9.4375 2.04248 9.6875 1.7949 10 1.7949C10.3125 1.7949 10.5625 2.04248 10.5625 2.35194V4.64199ZM17.625 10.46H15.25C14.9375 10.46 14.6875 10.2124 14.6875 9.90291C14.6875 9.59345 14.9375 9.34587 15.25 9.34587H17.625C17.9375 9.34587 18.1875 9.59345 18.1875 9.90291C18.25 10.2124 18 10.46 17.625 10.46Z" fill="#E60012"/>
</svg>
