<svg width="48" height="52" viewBox="0 0 48 52" fill="none" xmlns="http://www.w3.org/2000/svg">
<path fill-rule="evenodd" clip-rule="evenodd" d="M22.9092 0C35.5616 0 45.8184 10.1856 45.8184 22.7501C45.8184 28.9656 43.3051 34.5957 39.2367 38.7018L47.0414 46.4524C48.3195 47.7216 48.3195 49.7789 47.0414 51.0481C45.7634 52.3173 43.6917 52.3173 42.4136 51.0481L33.976 42.6691C30.6949 44.4707 26.9238 45.5002 22.9092 45.5002C10.2568 45.5002 0 35.3146 0 22.7501C0 10.1856 10.2568 0 22.9092 0ZM22.9092 6.50003C13.8718 6.50003 6.54549 13.7754 6.54549 22.7501C6.54549 31.7248 13.8718 39.0002 22.9092 39.0002C31.9466 39.0002 39.2729 31.7248 39.2729 22.7501C39.2729 13.7754 31.9466 6.50003 22.9092 6.50003Z" fill="#E60012"/>
</svg>
