<svg width="157" height="44" viewBox="0 0 157 44" fill="none" xmlns="http://www.w3.org/2000/svg">
<mask id="path-1-outside-1_819_3" maskUnits="userSpaceOnUse" x="-0.318359" y="-0.76001" width="157" height="45" fill="black">
<rect fill="white" x="-0.318359" y="-0.76001" width="157" height="45"/>
<path d="M2.00008 41.24V2.59999H9.02008L27.3201 28.34V2.59999H35.4201V41.24H28.4001L10.1001 15.5V41.24H2.00008ZM42.254 41.24V2.59999H69.974V8.89999H50.354V18.8H67.754V25.04H50.354V35H69.974V41.24H42.254ZM83.3938 41.24L74.3938 2.59999H82.3738L88.1938 28.7L94.4938 7.63999V2.59999H101.094L108.534 28.76L114.534 2.59999H122.454L113.514 41.24H105.834L98.7538 16.52L91.1338 41.24H83.3938ZM138.922 41.84C136.442 41.84 134.122 41.66 131.962 41.3C129.842 40.94 128.002 40.42 126.442 39.74V32.6C128.202 33.32 130.102 33.9 132.142 34.34C134.182 34.78 136.182 35 138.142 35C140.942 35 143.002 34.74 144.322 34.22C145.642 33.7 146.302 32.52 146.302 30.68C146.302 29.52 146.022 28.6 145.462 27.92C144.902 27.24 143.922 26.64 142.522 26.12C141.162 25.56 139.222 24.94 136.702 24.26C132.662 23.14 129.822 21.74 128.182 20.06C126.542 18.38 125.722 16.06 125.722 13.1C125.722 9.53999 127.022 6.79999 129.622 4.87999C132.222 2.95999 136.002 1.99999 140.962 1.99999C143.282 1.99999 145.442 2.15999 147.442 2.47999C149.442 2.79999 151.062 3.17999 152.302 3.61999V10.76C149.022 9.51999 145.602 8.89999 142.042 8.89999C139.522 8.89999 137.542 9.17999 136.102 9.73999C134.662 10.26 133.942 11.38 133.942 13.1C133.942 14.1 134.202 14.9 134.722 15.5C135.242 16.1 136.122 16.64 137.362 17.12C138.642 17.6 140.422 18.14 142.702 18.74C145.862 19.58 148.302 20.58 150.022 21.74C151.742 22.9 152.922 24.22 153.562 25.7C154.242 27.18 154.582 28.84 154.582 30.68C154.582 34.04 153.302 36.74 150.742 38.78C148.182 40.82 144.242 41.84 138.922 41.84Z"/>
</mask>
<path d="M2.00008 41.24H7.82013e-05V43.24H2.00008V41.24ZM2.00008 2.59999V0.599987H7.82013e-05V2.59999H2.00008ZM9.02008 2.59999L10.6501 1.44111L10.0521 0.599987H9.02008V2.59999ZM27.3201 28.34L25.69 29.4989L29.3201 34.6047V28.34H27.3201ZM27.3201 2.59999V0.599987H25.3201V2.59999H27.3201ZM35.4201 2.59999H37.4201V0.599987H35.4201V2.59999ZM35.4201 41.24V43.24H37.4201V41.24H35.4201ZM28.4001 41.24L26.7701 42.3989L27.368 43.24H28.4001V41.24ZM10.1001 15.5L11.7301 14.3411L8.10008 9.23526V15.5H10.1001ZM10.1001 41.24V43.24H12.1001V41.24H10.1001ZM2.00008 41.24H4.00008V2.59999H2.00008H7.82013e-05V41.24H2.00008ZM2.00008 2.59999V4.59999H9.02008V2.59999V0.599987H2.00008V2.59999ZM9.02008 2.59999L7.39005 3.75887L25.69 29.4989L27.3201 28.34L28.9501 27.1811L10.6501 1.44111L9.02008 2.59999ZM27.3201 28.34H29.3201V2.59999H27.3201H25.3201V28.34H27.3201ZM27.3201 2.59999V4.59999H35.4201V2.59999V0.599987H27.3201V2.59999ZM35.4201 2.59999H33.4201V41.24H35.4201H37.4201V2.59999H35.4201ZM35.4201 41.24V39.24H28.4001V41.24V43.24H35.4201V41.24ZM28.4001 41.24L30.0301 40.0811L11.7301 14.3411L10.1001 15.5L8.47005 16.6589L26.7701 42.3989L28.4001 41.24ZM10.1001 15.5H8.10008V41.24H10.1001H12.1001V15.5H10.1001ZM10.1001 41.24V39.24H2.00008V41.24V43.24H10.1001V41.24ZM42.254 41.24H40.254V43.24H42.254V41.24ZM42.254 2.59999V0.599987H40.254V2.59999H42.254ZM69.974 2.59999H71.974V0.599987H69.974V2.59999ZM69.974 8.89999V10.9H71.974V8.89999H69.974ZM50.354 8.89999V6.89999H48.354V8.89999H50.354ZM50.354 18.8H48.354V20.8H50.354V18.8ZM67.754 18.8H69.754V16.8H67.754V18.8ZM67.754 25.04V27.04H69.754V25.04H67.754ZM50.354 25.04V23.04H48.354V25.04H50.354ZM50.354 35H48.354V37H50.354V35ZM69.974 35H71.974V33H69.974V35ZM69.974 41.24V43.24H71.974V41.24H69.974ZM42.254 41.24H44.254V2.59999H42.254H40.254V41.24H42.254ZM42.254 2.59999V4.59999H69.974V2.59999V0.599987H42.254V2.59999ZM69.974 2.59999H67.974V8.89999H69.974H71.974V2.59999H69.974ZM69.974 8.89999V6.89999H50.354V8.89999V10.9H69.974V8.89999ZM50.354 8.89999H48.354V18.8H50.354H52.354V8.89999H50.354ZM50.354 18.8V20.8H67.754V18.8V16.8H50.354V18.8ZM67.754 18.8H65.754V25.04H67.754H69.754V18.8H67.754ZM67.754 25.04V23.04H50.354V25.04V27.04H67.754V25.04ZM50.354 25.04H48.354V35H50.354H52.354V25.04H50.354ZM50.354 35V37H69.974V35V33H50.354V35ZM69.974 35H67.974V41.24H69.974H71.974V35H69.974ZM69.974 41.24V39.24H42.254V41.24V43.24H69.974V41.24ZM83.3938 41.24L81.446 41.6937L81.8061 43.24H83.3938V41.24ZM74.3938 2.59999V0.599987H71.8745L72.446 3.05368L74.3938 2.59999ZM82.3738 2.59999L84.3259 2.1647L83.977 0.599987H82.3738V2.59999ZM88.1938 28.7L86.2418 29.1353L87.9114 36.6227L90.1099 29.2732L88.1938 28.7ZM94.4938 7.63999L96.4099 8.21318L96.4938 7.93273V7.63999H94.4938ZM94.4938 2.59999V0.599987H92.4938V2.59999H94.4938ZM101.094 2.59999L103.018 2.05288L102.604 0.599987H101.094V2.59999ZM108.534 28.76L106.61 29.3071L110.483 29.2071L108.534 28.76ZM114.534 2.59999V0.599987H112.941L112.584 2.15288L114.534 2.59999ZM122.454 2.59999L124.402 3.05081L124.969 0.599987H122.454V2.59999ZM113.514 41.24V43.24H115.104L115.462 41.6908L113.514 41.24ZM105.834 41.24L103.911 41.7907L104.326 43.24H105.834V41.24ZM98.7538 16.52L100.677 15.9693L98.8243 9.50207L96.8426 15.9308L98.7538 16.52ZM91.1338 41.24V43.24H92.6102L93.0451 41.8291L91.1338 41.24ZM83.3938 41.24L85.3417 40.7863L76.3417 2.14629L74.3938 2.59999L72.446 3.05368L81.446 41.6937L83.3938 41.24ZM74.3938 2.59999V4.59999H82.3738V2.59999V0.599987H74.3938V2.59999ZM82.3738 2.59999L80.4218 3.03527L86.2418 29.1353L88.1938 28.7L90.1459 28.2647L84.3259 2.1647L82.3738 2.59999ZM88.1938 28.7L90.1099 29.2732L96.4099 8.21318L94.4938 7.63999L92.5777 7.0668L86.2777 28.1268L88.1938 28.7ZM94.4938 7.63999H96.4938V2.59999H94.4938H92.4938V7.63999H94.4938ZM94.4938 2.59999V4.59999H101.094V2.59999V0.599987H94.4938V2.59999ZM101.094 2.59999L99.1701 3.1471L106.61 29.3071L108.534 28.76L110.458 28.2129L103.018 2.05288L101.094 2.59999ZM108.534 28.76L110.483 29.2071L116.483 3.04709L114.534 2.59999L112.584 2.15288L106.584 28.3129L108.534 28.76ZM114.534 2.59999V4.59999H122.454V2.59999V0.599987H114.534V2.59999ZM122.454 2.59999L120.505 2.14916L111.565 40.7892L113.514 41.24L115.462 41.6908L124.402 3.05081L122.454 2.59999ZM113.514 41.24V39.24H105.834V41.24V43.24H113.514V41.24ZM105.834 41.24L107.757 40.6893L100.677 15.9693L98.7538 16.52L96.8311 17.0707L103.911 41.7907L105.834 41.24ZM98.7538 16.52L96.8426 15.9308L89.2226 40.6508L91.1338 41.24L93.0451 41.8291L100.665 17.1091L98.7538 16.52ZM91.1338 41.24V39.24H83.3938V41.24V43.24H91.1338V41.24ZM131.962 41.3L131.627 43.2718L131.633 43.2728L131.962 41.3ZM126.442 39.74H124.442V41.0499L125.643 41.5734L126.442 39.74ZM126.442 32.6L127.199 30.7489L124.442 29.6209V32.6H126.442ZM132.142 34.34L132.564 32.3849V32.3849L132.142 34.34ZM144.322 34.22L143.589 32.3592V32.3592L144.322 34.22ZM145.462 27.92L147.006 26.6486V26.6486L145.462 27.92ZM142.522 26.12L141.76 27.9693L141.793 27.9827L141.826 27.9948L142.522 26.12ZM136.702 24.26L136.168 26.1873L136.181 26.1909L136.702 24.26ZM129.622 4.87999L130.81 6.48886V6.48886L129.622 4.87999ZM152.302 3.61999H154.302V2.20749L152.971 1.73513L152.302 3.61999ZM152.302 10.76L151.595 12.6308L154.302 13.6542V10.76H152.302ZM136.102 9.73999L136.781 11.6211L136.804 11.6128L136.827 11.604L136.102 9.73999ZM134.722 15.5L133.211 16.8098V16.8099L134.722 15.5ZM137.362 17.12L136.64 18.9851L136.65 18.9889L136.66 18.9926L137.362 17.12ZM142.702 18.74L143.216 16.8071L143.211 16.8058L142.702 18.74ZM150.022 21.74L151.14 20.0818V20.0818L150.022 21.74ZM153.562 25.7L151.726 26.4938L151.735 26.5145L151.745 26.535L153.562 25.7ZM150.742 38.78L151.988 40.3441V40.3441L150.742 38.78ZM138.922 41.84V39.84C136.538 39.84 134.329 39.6669 132.291 39.3272L131.962 41.3L131.633 43.2728C133.915 43.6531 136.346 43.84 138.922 43.84V41.84ZM131.962 41.3L132.297 39.3282C130.297 38.9886 128.62 38.5075 127.241 37.9066L126.442 39.74L125.643 41.5734C127.384 42.3325 129.387 42.8914 131.627 43.2718L131.962 41.3ZM126.442 39.74H128.442V32.6H126.442H124.442V39.74H126.442ZM126.442 32.6L125.685 34.4511C127.563 35.2196 129.577 35.8327 131.72 36.295L132.142 34.34L132.564 32.3849C130.627 31.9673 128.841 31.4204 127.199 30.7489L126.442 32.6ZM132.142 34.34L131.72 36.295C133.89 36.763 136.031 37 138.142 37V35V33C136.333 33 134.474 32.797 132.564 32.3849L132.142 34.34ZM138.142 35V37C140.997 37 143.37 36.7444 145.055 36.0808L144.322 34.22L143.589 32.3592C142.633 32.7356 140.887 33 138.142 33V35ZM144.322 34.22L145.055 36.0808C146.122 35.6607 146.985 34.9351 147.552 33.9213C148.099 32.9445 148.302 31.8237 148.302 30.68H146.302H144.302C144.302 31.3763 144.175 31.7655 144.061 31.9687C143.968 32.1349 143.842 32.2593 143.589 32.3592L144.322 34.22ZM146.302 30.68H148.302C148.302 29.2044 147.943 27.7865 147.006 26.6486L145.462 27.92L143.918 29.1914C144.101 29.4135 144.302 29.8356 144.302 30.68H146.302ZM145.462 27.92L147.006 26.6486C146.115 25.5674 144.747 24.8128 143.218 24.2451L142.522 26.12L141.826 27.9948C143.097 28.4672 143.688 28.9125 143.918 29.1914L145.462 27.92ZM142.522 26.12L143.283 24.2706C141.807 23.6628 139.773 23.017 137.223 22.3291L136.702 24.26L136.181 26.1909C138.671 26.8629 140.517 27.4571 141.76 27.9693L142.522 26.12ZM136.702 24.26L137.236 22.3327C133.306 21.2432 130.88 19.9612 129.613 18.6629L128.182 20.06L126.751 21.4571C128.763 23.5188 132.017 25.0368 136.168 26.1873L136.702 24.26ZM128.182 20.06L129.613 18.6629C128.427 17.4476 127.722 15.6808 127.722 13.1H125.722H123.722C123.722 16.4392 124.657 19.3124 126.751 21.4571L128.182 20.06ZM125.722 13.1H127.722C127.722 10.1002 128.778 7.98962 130.81 6.48886L129.622 4.87999L128.434 3.27112C125.266 5.61036 123.722 8.97976 123.722 13.1H125.722ZM129.622 4.87999L130.81 6.48886C132.926 4.92626 136.215 3.99999 140.962 3.99999V1.99999V-1.14441e-05C135.789 -1.14441e-05 131.518 0.993713 128.434 3.27112L129.622 4.87999ZM140.962 1.99999V3.99999C143.191 3.99999 145.244 4.15379 147.126 4.45487L147.442 2.47999L147.758 0.505108C145.64 0.166187 143.373 -1.14441e-05 140.962 -1.14441e-05V1.99999ZM147.442 2.47999L147.126 4.45487C149.063 4.76474 150.552 5.12106 151.633 5.50484L152.302 3.61999L152.971 1.73513C151.572 1.23892 149.821 0.835239 147.758 0.505108L147.442 2.47999ZM152.302 3.61999H150.302V10.76H152.302H154.302V3.61999H152.302ZM152.302 10.76L153.009 8.88921C149.5 7.56245 145.84 6.89999 142.042 6.89999V8.89999V10.9C145.364 10.9 148.544 11.4775 151.595 12.6308L152.302 10.76ZM142.042 8.89999V6.89999C139.411 6.89999 137.148 7.1872 135.377 7.87598L136.102 9.73999L136.827 11.604C137.936 11.1728 139.633 10.9 142.042 10.9V8.89999ZM136.102 9.73999L135.423 7.85888C134.354 8.2447 133.432 8.90511 132.8 9.88847C132.18 10.8529 131.942 11.967 131.942 13.1H133.942H135.942C135.942 12.513 136.064 12.2071 136.164 12.0515C136.252 11.9149 136.41 11.7553 136.781 11.6211L136.102 9.73999ZM133.942 13.1H131.942C131.942 14.4524 132.3 15.7595 133.211 16.8098L134.722 15.5L136.233 14.1901C136.104 14.0405 135.942 13.7476 135.942 13.1H133.942ZM134.722 15.5L133.211 16.8099C134.043 17.7702 135.276 18.4572 136.64 18.9851L137.362 17.12L138.084 15.2549C136.968 14.8228 136.441 14.4298 136.233 14.1901L134.722 15.5ZM137.362 17.12L136.66 18.9926C138.032 19.5074 139.887 20.0673 142.193 20.6741L142.702 18.74L143.211 16.8058C140.957 16.2127 139.252 15.6926 138.064 15.2473L137.362 17.12ZM142.702 18.74L142.188 20.6729C145.242 21.4847 147.443 22.4133 148.904 23.3981L150.022 21.74L151.14 20.0818C149.161 18.7467 146.482 17.6753 143.216 16.8071L142.702 18.74ZM150.022 21.74L148.904 23.3981C150.397 24.405 151.276 25.4522 151.726 26.4938L153.562 25.7L155.398 24.9062C154.568 22.9878 153.087 21.395 151.14 20.0818L150.022 21.74ZM153.562 25.7L151.745 26.535C152.29 27.721 152.582 29.0908 152.582 30.68H154.582H156.582C156.582 28.5892 156.194 26.6389 155.379 24.865L153.562 25.7ZM154.582 30.68H152.582C152.582 33.4498 151.565 35.5669 149.496 37.2159L150.742 38.78L151.988 40.3441C155.039 37.9131 156.582 34.6302 156.582 30.68H154.582ZM150.742 38.78L149.496 37.2159C147.451 38.8449 144.051 39.84 138.922 39.84V41.84V43.84C144.432 43.84 148.913 42.7951 151.988 40.3441L150.742 38.78Z" fill="white" mask="url(#path-1-outside-1_819_3)"/>
</svg>
