<svg width="334" height="93" viewBox="0 0 334 93" fill="none" xmlns="http://www.w3.org/2000/svg">
<mask id="path-1-outside-1_449_246" maskUnits="userSpaceOnUse" x="-0.546021" y="-0.287964" width="335" height="94" fill="black">
<rect fill="white" x="-0.546021" y="-0.287964" width="335" height="94"/>
<path d="M3.99998 87.712V5.28003H18.976L58.016 60.192V5.28003H75.296V87.712H60.32L21.28 32.8V87.712H3.99998ZM89.875 87.712V5.28003H149.011V18.72H107.155V39.84H144.275V53.152H107.155V74.4H149.011V87.712H89.875ZM177.64 87.712L158.44 5.28003H175.464L187.88 60.96L201.32 16.032V5.28003H215.4L231.272 61.088L244.072 5.28003H260.968L241.896 87.712H225.512L210.408 34.976L194.152 87.712H177.64ZM296.1 88.992C290.809 88.992 285.86 88.608 281.252 87.84C276.729 87.072 272.804 85.9627 269.476 84.512V69.28C273.231 70.816 277.284 72.0534 281.636 72.992C285.988 73.9307 290.255 74.4 294.436 74.4C300.409 74.4 304.804 73.8454 307.62 72.736C310.436 71.6267 311.844 69.1094 311.844 65.184C311.844 62.7094 311.247 60.7467 310.052 59.296C308.857 57.8454 306.767 56.5654 303.78 55.456C300.879 54.2614 296.74 52.9387 291.364 51.488C282.745 49.0987 276.687 46.112 273.188 42.528C269.689 38.944 267.94 33.9947 267.94 27.68C267.94 20.0854 270.713 14.24 276.26 10.144C281.807 6.04803 289.871 4.00003 300.452 4.00003C305.401 4.00003 310.009 4.34136 314.276 5.02403C318.543 5.7067 321.999 6.51737 324.644 7.45603V22.688C317.647 20.0427 310.351 18.72 302.756 18.72C297.38 18.72 293.156 19.3174 290.084 20.512C287.012 21.6214 285.476 24.0107 285.476 27.68C285.476 29.8134 286.031 31.52 287.14 32.8C288.249 34.08 290.127 35.232 292.772 36.256C295.503 37.28 299.3 38.432 304.164 39.712C310.905 41.504 316.111 43.6374 319.78 46.112C323.449 48.5867 325.967 51.4027 327.332 54.56C328.783 57.7174 329.508 61.2587 329.508 65.184C329.508 72.352 326.777 78.112 321.316 82.464C315.855 86.816 307.449 88.992 296.1 88.992Z"/>
</mask>
<path d="M3.99998 87.712H-2.00272e-05V91.712H3.99998V87.712ZM3.99998 5.28003V1.28003H-2.00272e-05V5.28003H3.99998ZM18.976 5.28003L22.236 2.96227L21.04 1.28003H18.976V5.28003ZM58.016 60.192L54.7559 62.5098L62.016 72.7215V60.192H58.016ZM58.016 5.28003V1.28003H54.016V5.28003H58.016ZM75.296 5.28003H79.296V1.28003H75.296V5.28003ZM75.296 87.712V91.712H79.296V87.712H75.296ZM60.32 87.712L57.0599 90.0298L58.2559 91.712H60.32V87.712ZM21.28 32.8L24.54 30.4823L17.28 20.2706V32.8H21.28ZM21.28 87.712V91.712H25.28V87.712H21.28ZM3.99998 87.712H7.99998V5.28003H3.99998H-2.00272e-05V87.712H3.99998ZM3.99998 5.28003V9.28003H18.976V5.28003V1.28003H3.99998V5.28003ZM18.976 5.28003L15.7159 7.59779L54.7559 62.5098L58.016 60.192L61.276 57.8743L22.236 2.96227L18.976 5.28003ZM58.016 60.192H62.016V5.28003H58.016H54.016V60.192H58.016ZM58.016 5.28003V9.28003H75.296V5.28003V1.28003H58.016V5.28003ZM75.296 5.28003H71.296V87.712H75.296H79.296V5.28003H75.296ZM75.296 87.712V83.712H60.32V87.712V91.712H75.296V87.712ZM60.32 87.712L63.58 85.3943L24.54 30.4823L21.28 32.8L18.0199 35.1178L57.0599 90.0298L60.32 87.712ZM21.28 32.8H17.28V87.712H21.28H25.28V32.8H21.28ZM21.28 87.712V83.712H3.99998V87.712V91.712H21.28V87.712ZM89.875 87.712H85.875V91.712H89.875V87.712ZM89.875 5.28003V1.28003H85.875V5.28003H89.875ZM149.011 5.28003H153.011V1.28003H149.011V5.28003ZM149.011 18.72V22.72H153.011V18.72H149.011ZM107.155 18.72V14.72H103.155V18.72H107.155ZM107.155 39.84H103.155V43.84H107.155V39.84ZM144.275 39.84H148.275V35.84H144.275V39.84ZM144.275 53.152V57.152H148.275V53.152H144.275ZM107.155 53.152V49.152H103.155V53.152H107.155ZM107.155 74.4H103.155V78.4H107.155V74.4ZM149.011 74.4H153.011V70.4H149.011V74.4ZM149.011 87.712V91.712H153.011V87.712H149.011ZM89.875 87.712H93.875V5.28003H89.875H85.875V87.712H89.875ZM89.875 5.28003V9.28003H149.011V5.28003V1.28003H89.875V5.28003ZM149.011 5.28003H145.011V18.72H149.011H153.011V5.28003H149.011ZM149.011 18.72V14.72H107.155V18.72V22.72H149.011V18.72ZM107.155 18.72H103.155V39.84H107.155H111.155V18.72H107.155ZM107.155 39.84V43.84H144.275V39.84V35.84H107.155V39.84ZM144.275 39.84H140.275V53.152H144.275H148.275V39.84H144.275ZM144.275 53.152V49.152H107.155V53.152V57.152H144.275V53.152ZM107.155 53.152H103.155V74.4H107.155H111.155V53.152H107.155ZM107.155 74.4V78.4H149.011V74.4V70.4H107.155V74.4ZM149.011 74.4H145.011V87.712H149.011H153.011V74.4H149.011ZM149.011 87.712V83.712H89.875V87.712V91.712H149.011V87.712ZM177.64 87.712L173.744 88.6194L174.465 91.712H177.64V87.712ZM158.44 5.28003V1.28003H153.401L154.544 6.18742L158.44 5.28003ZM175.464 5.28003L179.368 4.40945L178.67 1.28003H175.464V5.28003ZM187.88 60.96L183.976 61.8306L187.315 76.8054L191.712 62.1064L187.88 60.96ZM201.32 16.032L205.152 17.1784L205.32 16.6175V16.032H201.32ZM201.32 5.28003V1.28003H197.32V5.28003H201.32ZM215.4 5.28003L219.247 4.18581L218.421 1.28003H215.4V5.28003ZM231.272 61.088L227.425 62.1823L235.171 61.9822L231.272 61.088ZM244.072 5.28003V1.28003H240.886L240.173 4.38582L244.072 5.28003ZM260.968 5.28003L264.865 6.18168L265.999 1.28003H260.968V5.28003ZM241.896 87.712V91.712H245.076L245.793 88.6137L241.896 87.712ZM225.512 87.712L221.667 88.8134L222.497 91.712H225.512V87.712ZM210.408 34.976L214.253 33.8747L210.549 20.9402L206.585 33.7977L210.408 34.976ZM194.152 87.712V91.712H197.105L197.974 88.8903L194.152 87.712ZM177.64 87.712L181.536 86.8046L162.336 4.37264L158.44 5.28003L154.544 6.18742L173.744 88.6194L177.64 87.712ZM158.44 5.28003V9.28003H175.464V5.28003V1.28003H158.44V5.28003ZM175.464 5.28003L171.56 6.1506L183.976 61.8306L187.88 60.96L191.784 60.0895L179.368 4.40945L175.464 5.28003ZM187.88 60.96L191.712 62.1064L205.152 17.1784L201.32 16.032L197.488 14.8857L184.048 59.8136L187.88 60.96ZM201.32 16.032H205.32V5.28003H201.32H197.32V16.032H201.32ZM201.32 5.28003V9.28003H215.4V5.28003V1.28003H201.32V5.28003ZM215.4 5.28003L211.553 6.37425L227.425 62.1823L231.272 61.088L235.119 59.9938L219.247 4.18581L215.4 5.28003ZM231.272 61.088L235.171 61.9822L247.971 6.17424L244.072 5.28003L240.173 4.38582L227.373 60.1938L231.272 61.088ZM244.072 5.28003V9.28003H260.968V5.28003V1.28003H244.072V5.28003ZM260.968 5.28003L257.071 4.37838L237.999 86.8104L241.896 87.712L245.793 88.6137L264.865 6.18168L260.968 5.28003ZM241.896 87.712V83.712H225.512V87.712V91.712H241.896V87.712ZM225.512 87.712L229.357 86.6107L214.253 33.8747L210.408 34.976L206.563 36.0774L221.667 88.8134L225.512 87.712ZM210.408 34.976L206.585 33.7977L190.329 86.5337L194.152 87.712L197.974 88.8903L214.23 36.1543L210.408 34.976ZM194.152 87.712V83.712H177.64V87.712V91.712H194.152V87.712ZM281.252 87.84L280.582 91.7836L280.594 91.7856L281.252 87.84ZM269.476 84.512H265.476V87.1319L267.878 88.1788L269.476 84.512ZM269.476 69.28L270.991 65.5778L265.476 63.3219V69.28H269.476ZM281.636 72.992L282.479 69.082V69.082L281.636 72.992ZM307.62 72.736L306.154 69.0144V69.0144L307.62 72.736ZM310.052 59.296L313.14 56.7532V56.7532L310.052 59.296ZM303.78 55.456L302.257 59.1547L302.322 59.1814L302.387 59.2057L303.78 55.456ZM291.364 51.488L290.295 55.3427L290.309 55.3463L290.322 55.3499L291.364 51.488ZM276.26 10.144L278.636 13.3618V13.3618L276.26 10.144ZM324.644 7.45603H328.644V4.63103L325.982 3.68632L324.644 7.45603ZM324.644 22.688L323.229 26.4296L328.644 28.4765V22.688H324.644ZM290.084 20.512L291.443 24.2742L291.488 24.2577L291.534 24.2401L290.084 20.512ZM287.14 32.8L284.117 35.4198V35.4198L287.14 32.8ZM292.772 36.256L291.328 39.9863L291.348 39.9939L291.367 40.0014L292.772 36.256ZM304.164 39.712L305.192 35.8463L305.182 35.8437L304.164 39.712ZM319.78 46.112L322.017 42.7957V42.7957L319.78 46.112ZM327.332 54.56L323.661 56.1477L323.678 56.1891L323.697 56.23L327.332 54.56ZM321.316 82.464L323.809 85.5923V85.5923L321.316 82.464ZM296.1 88.992V84.992C291.001 84.992 286.274 84.6219 281.91 83.8945L281.252 87.84L280.594 91.7856C285.446 92.5942 290.617 92.992 296.1 92.992V88.992ZM281.252 87.84L281.922 83.8965C277.639 83.1692 274.039 82.1376 271.074 80.8453L269.476 84.512L267.878 88.1788C271.569 89.7878 275.82 90.9748 280.582 91.7836L281.252 87.84ZM269.476 84.512H273.476V69.28H269.476H265.476V84.512H269.476ZM269.476 69.28L267.961 72.9822C271.953 74.6152 276.233 75.9187 280.793 76.9021L281.636 72.992L282.479 69.082C278.335 68.188 274.508 67.0169 270.991 65.5778L269.476 69.28ZM281.636 72.992L280.793 76.9021C285.404 77.8967 289.953 78.4 294.436 78.4V74.4V70.4C290.556 70.4 286.572 69.9647 282.479 69.082L281.636 72.992ZM294.436 74.4V78.4C300.519 78.4 305.541 77.8542 309.086 76.4577L307.62 72.736L306.154 69.0144C304.067 69.8365 300.299 70.4 294.436 70.4V74.4ZM307.62 72.736L309.086 76.4577C311.307 75.5827 313.101 74.0749 314.279 71.9686C315.416 69.9364 315.844 67.5942 315.844 65.184H311.844H307.844C307.844 66.6992 307.568 67.5783 307.297 68.0634C307.067 68.4745 306.749 68.78 306.154 69.0144L307.62 72.736ZM311.844 65.184H315.844C315.844 62.0782 315.089 59.1197 313.14 56.7532L310.052 59.296L306.964 61.8389C307.405 62.3737 307.844 63.3405 307.844 65.184H311.844ZM310.052 59.296L313.14 56.7532C311.284 54.5003 308.416 52.9109 305.173 51.7063L303.78 55.456L302.387 59.2057C305.118 60.2198 306.43 61.1905 306.964 61.8389L310.052 59.296ZM303.78 55.456L305.303 51.7573C302.169 50.4671 297.841 49.0928 292.406 47.6262L291.364 51.488L290.322 55.3499C295.639 56.7846 299.588 58.0557 302.257 59.1547L303.78 55.456ZM291.364 51.488L292.433 47.6334C284.034 45.3052 278.804 42.5545 276.05 39.7339L273.188 42.528L270.326 45.3222C274.57 49.6696 281.456 52.8922 290.295 55.3427L291.364 51.488ZM273.188 42.528L276.05 39.7339C273.459 37.0792 271.94 33.2363 271.94 27.68H267.94H263.94C263.94 34.7531 265.92 40.8088 270.326 45.3222L273.188 42.528ZM267.94 27.68H271.94C271.94 21.2058 274.225 16.6193 278.636 13.3618L276.26 10.144L273.884 6.9263C267.202 11.8608 263.94 18.9649 263.94 27.68H267.94ZM276.26 10.144L278.636 13.3618C283.215 9.98058 290.296 8.00003 300.452 8.00003V4.00003V3.05176e-05C289.445 3.05176e-05 280.398 2.11548 273.884 6.9263L276.26 10.144ZM300.452 4.00003V8.00003C305.219 8.00003 309.614 8.32896 313.644 8.97379L314.276 5.02403L314.908 1.07427C310.405 0.35376 305.583 3.05176e-05 300.452 3.05176e-05V4.00003ZM314.276 5.02403L313.644 8.97379C317.784 9.6362 320.978 10.3995 323.306 11.2257L324.644 7.45603L325.982 3.68632C323.019 2.63523 319.301 1.7772 314.908 1.07427L314.276 5.02403ZM324.644 7.45603H320.644V22.688H324.644H328.644V7.45603H324.644ZM324.644 22.688L326.058 18.9465C318.602 16.1276 310.826 14.72 302.756 14.72V18.72V22.72C309.875 22.72 316.691 23.9578 323.229 26.4296L324.644 22.688ZM302.756 18.72V14.72C297.157 14.72 292.368 15.3318 288.634 16.784L290.084 20.512L291.534 24.2401C293.943 23.3029 297.603 22.72 302.756 22.72V18.72ZM290.084 20.512L288.725 16.7498C286.493 17.5561 284.576 18.9316 283.263 20.973C281.975 22.9765 281.476 25.2993 281.476 27.68H285.476H289.476C289.476 26.3914 289.745 25.6849 289.993 25.2991C290.216 24.9511 290.603 24.5773 291.443 24.2742L290.084 20.512ZM285.476 27.68H281.476C281.476 30.5181 282.227 33.239 284.117 35.4198L287.14 32.8L290.163 30.1803C289.834 29.8011 289.476 29.1086 289.476 27.68H285.476ZM287.14 32.8L284.117 35.4198C285.851 37.4205 288.435 38.8664 291.328 39.9863L292.772 36.256L294.216 32.5258C291.818 31.5977 290.647 30.7396 290.163 30.1803L287.14 32.8ZM292.772 36.256L291.367 40.0014C294.283 41.0948 298.23 42.2867 303.146 43.5803L304.164 39.712L305.182 35.8437C300.37 34.5774 296.722 33.4653 294.176 32.5107L292.772 36.256ZM304.164 39.712L303.136 43.5778C309.666 45.3134 314.393 47.3039 317.543 49.4283L319.78 46.112L322.017 42.7957C317.828 39.9708 312.145 37.6947 305.192 35.8463L304.164 39.712ZM319.78 46.112L317.543 49.4283C320.759 51.5967 322.674 53.867 323.661 56.1477L327.332 54.56L331.003 52.9724C329.259 48.9384 326.14 45.5767 322.017 42.7957L319.78 46.112ZM327.332 54.56L323.697 56.23C324.878 58.7995 325.508 61.7602 325.508 65.184H329.508H333.508C333.508 60.7572 332.687 56.6353 330.967 52.89L327.332 54.56ZM329.508 65.184H325.508C325.508 71.1717 323.303 75.7658 318.823 79.3358L321.316 82.464L323.809 85.5923C330.251 80.4583 333.508 73.5324 333.508 65.184H329.508ZM321.316 82.464L318.823 79.3358C314.393 82.8659 307.068 84.992 296.1 84.992V88.992V92.992C307.83 92.992 317.316 90.7662 323.809 85.5923L321.316 82.464Z" fill="white" mask="url(#path-1-outside-1_449_246)"/>
</svg>
