<svg width="237" height="68" viewBox="0 0 237 68" fill="none" xmlns="http://www.w3.org/2000/svg">
<mask id="path-1-outside-1_816_6" maskUnits="userSpaceOnUse" x="-0.977539" y="-0.139984" width="238" height="68" fill="black">
<rect fill="white" x="-0.977539" y="-0.139984" width="238" height="68"/>
<path d="M4.00012 62.86V4.90001H14.5301L41.9801 43.51V4.90001H54.1301V62.86H43.6001L16.1501 24.25V62.86H4.00012ZM64.381 62.86V4.90001H105.961V14.35H76.531V29.2H102.631V38.56H76.531V53.5H105.961V62.86H64.381ZM126.091 62.86L112.591 4.90001H124.561L133.291 44.05L142.741 12.46V4.90001H152.641L163.801 44.14L172.801 4.90001H184.681L171.271 62.86H159.751L149.131 25.78L137.701 62.86H126.091ZM209.383 63.76C205.663 63.76 202.183 63.49 198.943 62.95C195.763 62.41 193.003 61.63 190.663 60.61V49.9C193.303 50.98 196.153 51.85 199.213 52.51C202.273 53.17 205.273 53.5 208.213 53.5C212.413 53.5 215.503 53.11 217.483 52.33C219.463 51.55 220.453 49.78 220.453 47.02C220.453 45.28 220.033 43.9 219.193 42.88C218.353 41.86 216.883 40.96 214.783 40.18C212.743 39.34 209.833 38.41 206.053 37.39C199.993 35.71 195.733 33.61 193.273 31.09C190.813 28.57 189.583 25.09 189.583 20.65C189.583 15.31 191.533 11.2 195.433 8.32002C199.333 5.44001 205.003 4.00001 212.443 4.00001C215.923 4.00001 219.163 4.24001 222.163 4.72001C225.163 5.20001 227.593 5.77001 229.453 6.43001V17.14C224.533 15.28 219.403 14.35 214.063 14.35C210.283 14.35 207.313 14.77 205.153 15.61C202.993 16.39 201.913 18.07 201.913 20.65C201.913 22.15 202.303 23.35 203.083 24.25C203.863 25.15 205.183 25.96 207.043 26.68C208.963 27.4 211.633 28.21 215.053 29.11C219.793 30.37 223.453 31.87 226.033 33.61C228.613 35.35 230.383 37.33 231.343 39.55C232.363 41.77 232.873 44.26 232.873 47.02C232.873 52.06 230.953 56.11 227.113 59.17C223.273 62.23 217.363 63.76 209.383 63.76Z"/>
</mask>
<path d="M4.00011 62.86H0.000114441V66.86H4.00011V62.86ZM4.00011 4.90001V0.900009H0.000114441V4.90001H4.00011ZM14.5301 4.90001L17.7902 2.58225L16.5942 0.900009H14.5301V4.90001ZM41.9801 43.51L38.7201 45.8278L45.9801 56.0395V43.51H41.9801ZM41.9801 4.90001V0.900009H37.9801V4.90001H41.9801ZM54.1301 4.90001H58.1301V0.900009H54.1301V4.90001ZM54.1301 62.86V66.86H58.1301V62.86H54.1301ZM43.6001 62.86L40.3401 65.1778L41.5361 66.86H43.6001V62.86ZM16.1501 24.25L19.4102 21.9323L12.1501 11.7206V24.25H16.1501ZM16.1501 62.86V66.86H20.1501V62.86H16.1501ZM4.00011 62.86H8.00011V4.90001H4.00011H0.000114441V62.86H4.00011ZM4.00011 4.90001V8.90001H14.5301V4.90001V0.900009H4.00011V4.90001ZM14.5301 4.90001L11.2701 7.21777L38.7201 45.8278L41.9801 43.51L45.2402 41.1923L17.7902 2.58225L14.5301 4.90001ZM41.9801 43.51H45.9801V4.90001H41.9801H37.9801V43.51H41.9801ZM41.9801 4.90001V8.90001H54.1301V4.90001V0.900009H41.9801V4.90001ZM54.1301 4.90001H50.1301V62.86H54.1301H58.1301V4.90001H54.1301ZM54.1301 62.86V58.86H43.6001V62.86V66.86H54.1301V62.86ZM43.6001 62.86L46.8602 60.5423L19.4102 21.9323L16.1501 24.25L12.8901 26.5678L40.3401 65.1778L43.6001 62.86ZM16.1501 24.25H12.1501V62.86H16.1501H20.1501V24.25H16.1501ZM16.1501 62.86V58.86H4.00011V62.86V66.86H16.1501V62.86ZM64.381 62.86H60.381V66.86H64.381V62.86ZM64.381 4.90001V0.900009H60.381V4.90001H64.381ZM105.961 4.90001H109.961V0.900009H105.961V4.90001ZM105.961 14.35V18.35H109.961V14.35H105.961ZM76.531 14.35V10.35H72.531V14.35H76.531ZM76.531 29.2H72.531V33.2H76.531V29.2ZM102.631 29.2H106.631V25.2H102.631V29.2ZM102.631 38.56V42.56H106.631V38.56H102.631ZM76.531 38.56V34.56H72.531V38.56H76.531ZM76.531 53.5H72.531V57.5H76.531V53.5ZM105.961 53.5H109.961V49.5H105.961V53.5ZM105.961 62.86V66.86H109.961V62.86H105.961ZM64.381 62.86H68.381V4.90001H64.381H60.381V62.86H64.381ZM64.381 4.90001V8.90001H105.961V4.90001V0.900009H64.381V4.90001ZM105.961 4.90001H101.961V14.35H105.961H109.961V4.90001H105.961ZM105.961 14.35V10.35H76.531V14.35V18.35H105.961V14.35ZM76.531 14.35H72.531V29.2H76.531H80.531V14.35H76.531ZM76.531 29.2V33.2H102.631V29.2V25.2H76.531V29.2ZM102.631 29.2H98.631V38.56H102.631H106.631V29.2H102.631ZM102.631 38.56V34.56H76.531V38.56V42.56H102.631V38.56ZM76.531 38.56H72.531V53.5H76.531H80.531V38.56H76.531ZM76.531 53.5V57.5H105.961V53.5V49.5H76.531V53.5ZM105.961 53.5H101.961V62.86H105.961H109.961V53.5H105.961ZM105.961 62.86V58.86H64.381V62.86V66.86H105.961V62.86ZM126.091 62.86L122.195 63.7674L122.915 66.86H126.091V62.86ZM112.591 4.90001V0.900009H107.552L108.695 5.8074L112.591 4.90001ZM124.561 4.90001L128.465 4.02944L127.767 0.900009H124.561V4.90001ZM133.291 44.05L129.387 44.9206L132.726 59.8953L137.123 45.1964L133.291 44.05ZM142.741 12.46L146.573 13.6064L146.741 13.0455V12.46H142.741ZM142.741 4.90001V0.900009H138.741V4.90001H142.741ZM152.641 4.90001L156.488 3.80579L155.662 0.900009H152.641V4.90001ZM163.801 44.14L159.953 45.2342L167.7 45.0342L163.801 44.14ZM172.801 4.90001V0.900009H169.614L168.902 4.0058L172.801 4.90001ZM184.681 4.90001L188.578 5.80166L189.712 0.900009H184.681V4.90001ZM171.271 62.86V66.86H174.451L175.168 63.7617L171.271 62.86ZM159.751 62.86L155.905 63.9614L156.736 66.86H159.751V62.86ZM149.131 25.78L152.976 24.6787L149.272 11.7442L145.308 24.6017L149.131 25.78ZM137.701 62.86V66.86H140.653L141.523 64.0383L137.701 62.86ZM126.091 62.86L129.986 61.9526L116.486 3.99262L112.591 4.90001L108.695 5.8074L122.195 63.7674L126.091 62.86ZM112.591 4.90001V8.90001H124.561V4.90001V0.900009H112.591V4.90001ZM124.561 4.90001L120.657 5.77058L129.387 44.9206L133.291 44.05L137.195 43.1794L128.465 4.02944L124.561 4.90001ZM133.291 44.05L137.123 45.1964L146.573 13.6064L142.741 12.46L138.909 11.3136L129.459 42.9036L133.291 44.05ZM142.741 12.46H146.741V4.90001H142.741H138.741V12.46H142.741ZM142.741 4.90001V8.90001H152.641V4.90001V0.900009H142.741V4.90001ZM152.641 4.90001L148.793 5.99423L159.953 45.2342L163.801 44.14L167.648 43.0458L156.488 3.80579L152.641 4.90001ZM163.801 44.14L167.7 45.0342L176.7 5.79422L172.801 4.90001L168.902 4.0058L159.902 43.2458L163.801 44.14ZM172.801 4.90001V8.90001H184.681V4.90001V0.900009H172.801V4.90001ZM184.681 4.90001L180.784 3.99836L167.374 61.9584L171.271 62.86L175.168 63.7617L188.578 5.80166L184.681 4.90001ZM171.271 62.86V58.86H159.751V62.86V66.86H171.271V62.86ZM159.751 62.86L163.596 61.7587L152.976 24.6787L149.131 25.78L145.285 26.8814L155.905 63.9614L159.751 62.86ZM149.131 25.78L145.308 24.6017L133.878 61.6817L137.701 62.86L141.523 64.0383L152.953 26.9583L149.131 25.78ZM137.701 62.86V58.86H126.091V62.86V66.86H137.701V62.86ZM198.943 62.95L198.273 66.8936L198.285 66.8956L198.943 62.95ZM190.663 60.61H186.663V63.2299L189.065 64.2768L190.663 60.61ZM190.663 49.9L192.177 46.1978L186.663 43.9419V49.9H190.663ZM199.213 52.51L200.056 48.5999V48.5999L199.213 52.51ZM217.483 52.33L216.017 48.6084V48.6084L217.483 52.33ZM219.193 42.88L222.281 40.3372V40.3372L219.193 42.88ZM214.783 40.18L213.26 43.8787L213.325 43.9054L213.39 43.9297L214.783 40.18ZM206.053 37.39L204.984 41.2446L204.998 41.2483L205.011 41.2519L206.053 37.39ZM195.433 8.32001L197.809 11.5378V11.5377L195.433 8.32001ZM229.453 6.43001H233.453V3.60501L230.791 2.6603L229.453 6.43001ZM229.453 17.14L228.038 20.8816L233.453 22.9285V17.14H229.453ZM205.153 15.61L206.512 19.3722L206.557 19.3557L206.603 19.338L205.153 15.61ZM203.083 24.25L200.06 26.8697V26.8697L203.083 24.25ZM207.043 26.68L205.599 30.4103L205.619 30.4179L205.638 30.4253L207.043 26.68ZM215.053 29.11L216.081 25.2443L216.071 25.2417L215.053 29.11ZM226.033 33.61L228.27 30.2937V30.2937L226.033 33.61ZM231.343 39.55L227.672 41.1377L227.689 41.179L227.708 41.22L231.343 39.55ZM227.113 59.17L229.606 62.2983V62.2983L227.113 59.17ZM209.383 63.76V59.76C205.855 59.76 202.597 59.5038 199.601 59.0044L198.943 62.95L198.285 66.8956C201.769 67.4762 205.471 67.76 209.383 67.76V63.76ZM198.943 62.95L199.613 59.0065C196.673 58.5072 194.238 57.805 192.261 56.9432L190.663 60.61L189.065 64.2768C191.768 65.4551 194.853 66.3128 198.273 66.8936L198.943 62.95ZM190.663 60.61H194.663V49.9H190.663H186.663V60.61H190.663ZM190.663 49.9L189.148 53.6022C192.025 54.7792 195.102 55.7154 198.37 56.4201L199.213 52.51L200.056 48.5999C197.204 47.9847 194.58 47.1809 192.177 46.1978L190.663 49.9ZM199.213 52.51L198.37 56.4201C201.689 57.136 204.972 57.5 208.213 57.5V53.5V49.5C205.574 49.5 202.857 49.204 200.056 48.5999L199.213 52.51ZM208.213 53.5V57.5C212.523 57.5 216.24 57.1188 218.949 56.0516L217.483 52.33L216.017 48.6084C214.766 49.1012 212.303 49.5 208.213 49.5V53.5ZM217.483 52.33L218.949 56.0517C220.752 55.3413 222.232 54.1027 223.201 52.3701C224.129 50.7116 224.453 48.8475 224.453 47.02H220.453H216.453C216.453 47.9526 216.282 48.3535 216.219 48.4649C216.193 48.5125 216.179 48.5228 216.177 48.5245C216.173 48.528 216.133 48.5628 216.017 48.6084L217.483 52.33ZM220.453 47.02H224.453C224.453 44.6489 223.875 42.273 222.281 40.3372L219.193 42.88L216.105 45.4228C216.191 45.527 216.453 45.9111 216.453 47.02H220.453ZM219.193 42.88L222.281 40.3372C220.78 38.5149 218.532 37.3055 216.176 36.4303L214.783 40.18L213.39 43.9297C215.234 44.6145 215.926 45.2051 216.105 45.4228L219.193 42.88ZM214.783 40.18L216.306 36.4813C214.034 35.5457 210.934 34.5641 207.095 33.5281L206.053 37.39L205.011 41.2519C208.732 42.2559 211.452 43.1343 213.26 43.8787L214.783 40.18ZM206.053 37.39L207.122 33.5354C201.282 31.9165 197.85 30.0524 196.135 28.2959L193.273 31.09L190.411 33.8842C193.616 37.1676 198.704 39.5035 204.984 41.2446L206.053 37.39ZM193.273 31.09L196.135 28.2959C194.582 26.7052 193.583 24.3316 193.583 20.65H189.583H185.583C185.583 25.8485 187.043 30.4348 190.411 33.8842L193.273 31.09ZM189.583 20.65H193.583C193.583 16.4305 195.045 13.5793 197.809 11.5378L195.433 8.32001L193.057 5.10228C188.021 8.82076 185.583 14.1895 185.583 20.65H189.583ZM195.433 8.32001L197.809 11.5377C200.741 9.37256 205.428 8.00001 212.443 8.00001V4.00001V1.14441e-05C204.578 1.14441e-05 197.925 1.50746 193.057 5.10228L195.433 8.32001ZM212.443 4.00001V8.00001C215.741 8.00001 218.767 8.22762 221.531 8.66978L222.163 4.72001L222.795 0.770252C219.558 0.252411 216.105 1.14441e-05 212.443 1.14441e-05V4.00001ZM222.163 4.72001L221.531 8.66978C224.404 9.12951 226.572 9.65215 228.115 10.1997L229.453 6.43001L230.791 2.6603C228.614 1.88787 225.922 1.27052 222.795 0.770252L222.163 4.72001ZM229.453 6.43001H225.453V17.14H229.453H233.453V6.43001H229.453ZM229.453 17.14L230.867 13.3985C225.488 11.3649 219.879 10.35 214.063 10.35V14.35V18.35C218.927 18.35 223.577 19.1951 228.038 20.8816L229.453 17.14ZM214.063 14.35V10.35C210.06 10.35 206.525 10.7844 203.703 11.882L205.153 15.61L206.603 19.338C208.1 18.7556 210.506 18.35 214.063 18.35V14.35ZM205.153 15.61L203.794 11.8478C202.018 12.4894 200.443 13.6052 199.358 15.292C198.298 16.9408 197.913 18.814 197.913 20.65H201.913H205.913C205.913 19.9061 206.068 19.6492 206.088 19.618C206.1 19.599 206.115 19.5794 206.154 19.5495C206.198 19.516 206.304 19.4473 206.512 19.3722L205.153 15.61ZM201.913 20.65H197.913C197.913 22.8548 198.499 25.0689 200.06 26.8697L203.083 24.25L206.106 21.6303C206.087 21.6082 206.049 21.5606 206.01 21.4387C205.966 21.3051 205.913 21.0571 205.913 20.65H201.913ZM203.083 24.25L200.06 26.8697C201.465 28.4904 203.491 29.5944 205.599 30.4103L207.043 26.68L208.487 22.9497C206.875 22.3257 206.261 21.8096 206.106 21.6303L203.083 24.25ZM207.043 26.68L205.638 30.4253C207.744 31.2148 210.563 32.0647 214.035 32.9783L215.053 29.11L216.071 25.2417C212.703 24.3554 210.182 23.5852 208.447 22.9347L207.043 26.68ZM215.053 29.11L214.025 32.9758C218.553 34.1794 221.736 35.5366 223.796 36.9263L226.033 33.61L228.27 30.2937C225.17 28.2035 221.033 26.5607 216.081 25.2443L215.053 29.11ZM226.033 33.61L223.796 36.9263C225.922 38.36 227.091 39.7943 227.672 41.1377L231.343 39.55L235.014 37.9624C233.675 34.8657 231.304 32.34 228.27 30.2937L226.033 33.61ZM231.343 39.55L227.708 41.22C228.458 42.8521 228.873 44.7616 228.873 47.02H232.873H236.873C236.873 43.7585 236.268 40.6879 234.978 37.88L231.343 39.55ZM232.873 47.02H228.873C228.873 50.8797 227.479 53.7638 224.62 56.0418L227.113 59.17L229.606 62.2983C234.427 58.4563 236.873 53.2403 236.873 47.02H232.873ZM227.113 59.17L224.62 56.0418C221.812 58.2799 216.982 59.76 209.383 59.76V63.76V67.76C217.744 67.76 224.734 66.1802 229.606 62.2983L227.113 59.17Z" fill="white" mask="url(#path-1-outside-1_816_6)"/>
</svg>
