<svg width="690" height="93" viewBox="0 0 690 93" fill="none" xmlns="http://www.w3.org/2000/svg">
<mask id="path-1-outside-1_1447_4" maskUnits="userSpaceOnUse" x="-0.296875" y="-0.288086" width="691" height="94" fill="black">
<rect fill="white" x="-0.296875" y="-0.288086" width="691" height="94"/>
<path d="M3.99913 87.7119V5.27991H42.6551C49.1405 5.27991 54.4311 6.51724 58.5271 8.99191C62.7085 11.4666 65.8231 14.8372 67.8711 19.1039C69.9191 23.3706 70.9431 28.2346 70.9431 33.6959C70.9431 39.2426 69.7485 44.1492 67.3591 48.4159C65.0551 52.6826 61.7271 56.0106 57.3751 58.3999C53.1085 60.7039 48.0311 61.8559 42.1431 61.8559H21.2791V87.7119H3.99913ZM21.2791 48.1599H38.5591C43.5085 48.1599 47.2205 46.8799 49.6951 44.3199C52.2551 41.6746 53.5351 38.1332 53.5351 33.6959C53.5351 28.9172 52.3405 25.2906 49.9511 22.8159C47.5618 20.2559 43.9778 18.9759 39.1991 18.9759H21.2791V48.1599ZM80.4991 87.7119V5.27991H97.7791V74.3999H138.355V87.7119H80.4991ZM145.314 87.7119L176.802 5.27991H195.746L227.106 87.7119H209.186L201.378 67.8719H171.042L163.362 87.7119H145.314ZM173.602 54.5599H198.818L186.146 21.4079L173.602 54.5599ZM247.632 87.7119V57.2479L218.064 5.27991H236.112L256.336 42.5279L276.56 5.27991H294.48L264.912 57.2479V87.7119H247.632ZM363.552 87.7119L332.064 5.27991H350.112L372.896 68.3839L395.808 5.27991H413.856L382.496 87.7119H363.552ZM422.624 87.7119V5.27991H439.904V87.7119H422.624ZM454.499 87.7119V5.27991H489.059C501.432 5.27991 510.734 8.47991 516.963 14.8799C523.278 21.1946 526.435 31.8612 526.435 46.8799C526.435 61.0452 523.32 71.4132 517.091 77.9839C510.947 84.4692 501.603 87.7119 489.059 87.7119H454.499ZM471.779 74.3999H486.627C491.491 74.3999 495.587 73.6746 498.915 72.2239C502.243 70.6879 504.718 67.9572 506.339 64.0319C508.046 60.0212 508.899 54.3039 508.899 46.8799C508.899 39.4559 508.131 33.7812 506.595 29.8559C505.059 25.9306 502.67 23.2426 499.427 21.7919C496.184 20.3412 491.918 19.6159 486.627 19.6159H471.779V74.3999ZM538.499 87.7119V5.27991H597.635V18.7199H555.779V39.8399H592.899V53.1519H555.779V74.3999H597.635V87.7119H538.499ZM645.878 88.9919C619.169 88.9919 605.814 74.9546 605.814 46.8799C605.814 31.7759 609.185 20.8532 615.926 14.1119C622.667 7.37057 632.651 3.99991 645.878 3.99991C659.105 3.99991 669.089 7.37057 675.83 14.1119C682.571 20.8532 685.942 31.7759 685.942 46.8799C685.942 74.9546 672.587 88.9919 645.878 88.9919ZM645.878 74.2719C653.643 74.2719 659.318 72.0532 662.902 67.6159C666.571 63.0932 668.406 56.1812 668.406 46.8799C668.406 36.5546 666.571 29.3012 662.902 25.1199C659.318 20.8532 653.643 18.7199 645.878 18.7199C638.113 18.7199 632.395 20.8532 628.726 25.1199C625.142 29.3012 623.35 36.5546 623.35 46.8799C623.35 56.1812 625.142 63.0932 628.726 67.6159C632.395 72.0532 638.113 74.2719 645.878 74.2719Z"/>
</mask>
<path d="M3.99913 87.7119H-0.000874519V91.7119H3.99913V87.7119ZM3.99913 5.27991V1.27991H-0.000874519V5.27991H3.99913ZM58.5271 8.99191L56.4587 12.4156L56.4742 12.425L56.4898 12.4342L58.5271 8.99191ZM67.8711 19.1039L71.4772 17.373V17.373L67.8711 19.1039ZM67.3591 48.4159L63.8691 46.4615L63.8541 46.4883L63.8395 46.5153L67.3591 48.4159ZM57.3751 58.3999L59.2757 61.9195L59.288 61.9129L59.3002 61.9062L57.3751 58.3999ZM21.2791 61.8559V57.8559H17.2791V61.8559H21.2791ZM21.2791 87.7119V91.7119H25.2791V87.7119H21.2791ZM21.2791 48.1599H17.2791V52.1599H21.2791V48.1599ZM49.6951 44.3199L46.8207 41.5382L46.8192 41.5398L49.6951 44.3199ZM49.9511 22.8159L47.0269 25.5452L47.05 25.5699L47.0735 25.5943L49.9511 22.8159ZM21.2791 18.9759V14.9759H17.2791V18.9759H21.2791ZM3.99913 87.7119H7.99913V5.27991H3.99913H-0.000874519V87.7119H3.99913ZM3.99913 5.27991V9.27991H42.6551V5.27991V1.27991H3.99913V5.27991ZM42.6551 5.27991V9.27991C48.6613 9.27991 53.1707 10.4291 56.4587 12.4156L58.5271 8.99191L60.5956 5.56825C55.6916 2.60539 49.6196 1.27991 42.6551 1.27991V5.27991ZM58.5271 8.99191L56.4898 12.4342C60.0098 14.5174 62.5688 17.3011 64.265 20.8348L67.8711 19.1039L71.4772 17.373C69.0774 12.3734 65.4071 8.4157 60.5644 5.54961L58.5271 8.99191ZM67.8711 19.1039L64.265 20.8348C66.0166 24.484 66.9431 28.7416 66.9431 33.6959H70.9431H74.9431C74.9431 27.7275 73.8216 22.2572 71.4772 17.373L67.8711 19.1039ZM70.9431 33.6959H66.9431C66.9431 38.6515 65.8812 42.8684 63.8691 46.4615L67.3591 48.4159L70.8492 50.3703C73.6157 45.4301 74.9431 39.8336 74.9431 33.6959H70.9431ZM67.3591 48.4159L63.8395 46.5153C61.9105 50.0875 59.1441 52.8655 55.4501 54.8936L57.3751 58.3999L59.3002 61.9062C64.3101 59.1557 68.1997 55.2777 70.8788 50.3165L67.3591 48.4159ZM57.3751 58.3999L55.4745 54.8803C51.9044 56.8082 47.5086 57.8559 42.1431 57.8559V61.8559V65.8559C48.5537 65.8559 54.3126 64.5996 59.2757 61.9195L57.3751 58.3999ZM42.1431 61.8559V57.8559H21.2791V61.8559V65.8559H42.1431V61.8559ZM21.2791 61.8559H17.2791V87.7119H21.2791H25.2791V61.8559H21.2791ZM21.2791 87.7119V83.7119H3.99913V87.7119V91.7119H21.2791V87.7119ZM21.2791 48.1599V52.1599H38.5591V48.1599V44.1599H21.2791V48.1599ZM38.5591 48.1599V52.1599C44.1602 52.1599 49.0873 50.7039 52.5711 47.1L49.6951 44.3199L46.8192 41.5398C45.3536 43.056 42.8568 44.1599 38.5591 44.1599V48.1599ZM49.6951 44.3199L52.5695 47.1016C55.9952 43.5618 57.5351 38.9447 57.5351 33.6959H53.5351H49.5351C49.5351 37.3218 48.5151 39.7874 46.8207 41.5382L49.6951 44.3199ZM53.5351 33.6959H57.5351C57.5351 28.2891 56.1791 23.5075 52.8287 20.0375L49.9511 22.8159L47.0735 25.5943C48.5019 27.0736 49.5351 29.5454 49.5351 33.6959H53.5351ZM49.9511 22.8159L52.8753 20.0866C49.4847 16.4538 44.6678 14.9759 39.1991 14.9759V18.9759V22.9759C43.2878 22.9759 45.6389 24.0581 47.0269 25.5452L49.9511 22.8159ZM39.1991 18.9759V14.9759H21.2791V18.9759V22.9759H39.1991V18.9759ZM21.2791 18.9759H17.2791V48.1599H21.2791H25.2791V18.9759H21.2791ZM80.4991 87.7119H76.4991V91.7119H80.4991V87.7119ZM80.4991 5.27991V1.27991H76.4991V5.27991H80.4991ZM97.7791 5.27991H101.779V1.27991H97.7791V5.27991ZM97.7791 74.3999H93.7791V78.3999H97.7791V74.3999ZM138.355 74.3999H142.355V70.3999H138.355V74.3999ZM138.355 87.7119V91.7119H142.355V87.7119H138.355ZM80.4991 87.7119H84.4991V5.27991H80.4991H76.4991V87.7119H80.4991ZM80.4991 5.27991V9.27991H97.7791V5.27991V1.27991H80.4991V5.27991ZM97.7791 5.27991H93.7791V74.3999H97.7791H101.779V5.27991H97.7791ZM97.7791 74.3999V78.3999H138.355V74.3999V70.3999H97.7791V74.3999ZM138.355 74.3999H134.355V87.7119H138.355H142.355V74.3999H138.355ZM138.355 87.7119V83.7119H80.4991V87.7119V91.7119H138.355V87.7119ZM145.314 87.7119L141.577 86.2846L139.504 91.7119H145.314V87.7119ZM176.802 5.27991V1.27991H174.048L173.065 3.85255L176.802 5.27991ZM195.746 5.27991L199.485 3.85761L198.504 1.27991H195.746V5.27991ZM227.106 87.7119V91.7119H232.908L230.845 86.2896L227.106 87.7119ZM209.186 87.7119L205.464 89.1768L206.462 91.7119H209.186V87.7119ZM201.378 67.8719L205.1 66.4071L204.103 63.8719H201.378V67.8719ZM171.042 67.8719V63.8719H168.301L167.312 66.4279L171.042 67.8719ZM163.362 87.7119V91.7119H166.103L167.092 89.1559L163.362 87.7119ZM173.602 54.5599L169.861 53.1443L167.812 58.5599H173.602V54.5599ZM198.818 54.5599V58.5599H204.629L202.554 53.1317L198.818 54.5599ZM186.146 21.4079L189.882 19.9797L186.127 10.1552L182.405 19.9923L186.146 21.4079ZM145.314 87.7119L149.051 89.1393L180.539 6.70727L176.802 5.27991L173.065 3.85255L141.577 86.2846L145.314 87.7119ZM176.802 5.27991V9.27991H195.746V5.27991V1.27991H176.802V5.27991ZM195.746 5.27991L192.008 6.7022L223.368 89.1342L227.106 87.7119L230.845 86.2896L199.485 3.85761L195.746 5.27991ZM227.106 87.7119V83.7119H209.186V87.7119V91.7119H227.106V87.7119ZM209.186 87.7119L212.908 86.2471L205.1 66.4071L201.378 67.8719L197.656 69.3368L205.464 89.1768L209.186 87.7119ZM201.378 67.8719V63.8719H171.042V67.8719V71.8719H201.378V67.8719ZM171.042 67.8719L167.312 66.4279L159.632 86.2679L163.362 87.7119L167.092 89.1559L174.772 69.3159L171.042 67.8719ZM163.362 87.7119V83.7119H145.314V87.7119V91.7119H163.362V87.7119ZM173.602 54.5599V58.5599H198.818V54.5599V50.5599H173.602V54.5599ZM198.818 54.5599L202.554 53.1317L189.882 19.9797L186.146 21.4079L182.41 22.8361L195.082 55.9881L198.818 54.5599ZM186.146 21.4079L182.405 19.9923L169.861 53.1443L173.602 54.5599L177.343 55.9755L189.887 22.8235L186.146 21.4079ZM247.632 87.7119H243.632V91.7119H247.632V87.7119ZM247.632 57.2479H251.632V56.1896L251.109 55.2698L247.632 57.2479ZM218.064 5.27991V1.27991H211.186L214.587 7.258L218.064 5.27991ZM236.112 5.27991L239.627 3.37128L238.492 1.27991H236.112V5.27991ZM256.336 42.5279L252.821 44.4365L256.336 50.9109L259.851 44.4365L256.336 42.5279ZM276.56 5.27991V1.27991H274.18L273.045 3.37128L276.56 5.27991ZM294.48 5.27991L297.957 7.258L301.358 1.27991H294.48V5.27991ZM264.912 57.2479L261.435 55.2698L260.912 56.1896V57.2479H264.912ZM264.912 87.7119V91.7119H268.912V87.7119H264.912ZM247.632 87.7119H251.632V57.2479H247.632H243.632V87.7119H247.632ZM247.632 57.2479L251.109 55.2698L221.541 3.30181L218.064 5.27991L214.587 7.258L244.155 59.226L247.632 57.2479ZM218.064 5.27991V9.27991H236.112V5.27991V1.27991H218.064V5.27991ZM236.112 5.27991L232.597 7.18854L252.821 44.4365L256.336 42.5279L259.851 40.6193L239.627 3.37128L236.112 5.27991ZM256.336 42.5279L259.851 44.4365L280.075 7.18854L276.56 5.27991L273.045 3.37128L252.821 40.6193L256.336 42.5279ZM276.56 5.27991V9.27991H294.48V5.27991V1.27991H276.56V5.27991ZM294.48 5.27991L291.003 3.30181L261.435 55.2698L264.912 57.2479L268.389 59.226L297.957 7.258L294.48 5.27991ZM264.912 57.2479H260.912V87.7119H264.912H268.912V57.2479H264.912ZM264.912 87.7119V83.7119H247.632V87.7119V91.7119H264.912V87.7119ZM363.552 87.7119L359.815 89.1393L360.798 91.7119H363.552V87.7119ZM332.064 5.27991V1.27991H326.254L328.327 6.70727L332.064 5.27991ZM350.112 5.27991L353.874 3.92152L352.921 1.27991H350.112V5.27991ZM372.896 68.3839L369.134 69.7423L372.886 80.1334L376.656 69.749L372.896 68.3839ZM395.808 5.27991V1.27991H393.005L392.048 3.91477L395.808 5.27991ZM413.856 5.27991L417.595 6.7022L419.658 1.27991H413.856V5.27991ZM382.496 87.7119V91.7119H385.254L386.235 89.1342L382.496 87.7119ZM363.552 87.7119L367.289 86.2846L335.801 3.85255L332.064 5.27991L328.327 6.70727L359.815 89.1393L363.552 87.7119ZM332.064 5.27991V9.27991H350.112V5.27991V1.27991H332.064V5.27991ZM350.112 5.27991L346.35 6.6383L369.134 69.7423L372.896 68.3839L376.658 67.0255L353.874 3.92152L350.112 5.27991ZM372.896 68.3839L376.656 69.749L399.568 6.64504L395.808 5.27991L392.048 3.91477L369.136 67.0188L372.896 68.3839ZM395.808 5.27991V9.27991H413.856V5.27991V1.27991H395.808V5.27991ZM413.856 5.27991L410.118 3.85761L378.758 86.2896L382.496 87.7119L386.235 89.1342L417.595 6.7022L413.856 5.27991ZM382.496 87.7119V83.7119H363.552V87.7119V91.7119H382.496V87.7119ZM422.624 87.7119H418.624V91.7119H422.624V87.7119ZM422.624 5.27991V1.27991H418.624V5.27991H422.624ZM439.904 5.27991H443.904V1.27991H439.904V5.27991ZM439.904 87.7119V91.7119H443.904V87.7119H439.904ZM422.624 87.7119H426.624V5.27991H422.624H418.624V87.7119H422.624ZM422.624 5.27991V9.27991H439.904V5.27991V1.27991H422.624V5.27991ZM439.904 5.27991H435.904V87.7119H439.904H443.904V5.27991H439.904ZM439.904 87.7119V83.7119H422.624V87.7119V91.7119H439.904V87.7119ZM454.499 87.7119H450.499V91.7119H454.499V87.7119ZM454.499 5.27991V1.27991H450.499V5.27991H454.499ZM516.963 14.8799L514.097 17.6699L514.116 17.6892L514.135 17.7083L516.963 14.8799ZM517.091 77.9839L514.188 75.2319L514.187 75.2329L517.091 77.9839ZM471.779 74.3999H467.779V78.3999H471.779V74.3999ZM498.915 72.2239L500.513 75.8907L500.553 75.8736L500.591 75.8558L498.915 72.2239ZM506.339 64.0319L502.659 62.4657L502.65 62.4852L502.642 62.5049L506.339 64.0319ZM499.427 21.7919L501.061 18.1406H501.061L499.427 21.7919ZM471.779 19.6159V15.6159H467.779V19.6159H471.779ZM454.499 87.7119H458.499V5.27991H454.499H450.499V87.7119H454.499ZM454.499 5.27991V9.27991H489.059V5.27991V1.27991H454.499V5.27991ZM489.059 5.27991V9.27991C500.779 9.27991 508.873 12.303 514.097 17.6699L516.963 14.8799L519.83 12.09C512.595 4.65679 502.086 1.27991 489.059 1.27991V5.27991ZM516.963 14.8799L514.135 17.7083C519.326 22.8996 522.435 32.2409 522.435 46.8799H526.435H530.435C530.435 31.4816 527.23 19.4896 519.792 12.0515L516.963 14.8799ZM526.435 46.8799H522.435C522.435 60.5784 519.406 69.7286 514.188 75.2319L517.091 77.9839L519.994 80.7359C527.235 73.0979 530.435 61.5121 530.435 46.8799H526.435ZM517.091 77.9839L514.187 75.2329C509.062 80.6425 500.959 83.7119 489.059 83.7119V87.7119V91.7119C502.248 91.7119 512.832 88.296 519.995 80.7349L517.091 77.9839ZM489.059 87.7119V83.7119H454.499V87.7119V91.7119H489.059V87.7119ZM471.779 74.3999V78.3999H486.627V74.3999V70.3999H471.779V74.3999ZM486.627 74.3999V78.3999C491.864 78.3999 496.541 77.6222 500.513 75.8907L498.915 72.2239L497.317 68.5571C494.633 69.7269 491.118 70.3999 486.627 70.3999V74.3999ZM498.915 72.2239L500.591 75.8558C504.978 73.8311 508.096 70.2573 510.036 65.559L506.339 64.0319L502.642 62.5049C501.34 65.6572 499.508 67.5447 497.239 68.5921L498.915 72.2239ZM506.339 64.0319L510.02 65.5981C512.035 60.8614 512.899 54.5163 512.899 46.8799H508.899H504.899C504.899 54.0915 504.056 59.1811 502.659 62.4657L506.339 64.0319ZM508.899 46.8799H512.899C512.899 39.2779 512.126 33.0145 510.32 28.3983L506.595 29.8559L502.87 31.3135C504.136 34.548 504.899 39.6339 504.899 46.8799H508.899ZM506.595 29.8559L510.32 28.3983C508.478 23.6911 505.437 20.0985 501.061 18.1406L499.427 21.7919L497.794 25.4432C499.903 26.3866 501.64 28.1701 502.87 31.3135L506.595 29.8559ZM499.427 21.7919L501.061 18.1406C497.116 16.3759 492.23 15.6159 486.627 15.6159V19.6159V23.6159C491.606 23.6159 495.253 24.3066 497.794 25.4432L499.427 21.7919ZM486.627 19.6159V15.6159H471.779V19.6159V23.6159H486.627V19.6159ZM471.779 19.6159H467.779V74.3999H471.779H475.779V19.6159H471.779ZM538.499 87.7119H534.499V91.7119H538.499V87.7119ZM538.499 5.27991V1.27991H534.499V5.27991H538.499ZM597.635 5.27991H601.635V1.27991H597.635V5.27991ZM597.635 18.7199V22.7199H601.635V18.7199H597.635ZM555.779 18.7199V14.7199H551.779V18.7199H555.779ZM555.779 39.8399H551.779V43.8399H555.779V39.8399ZM592.899 39.8399H596.899V35.8399H592.899V39.8399ZM592.899 53.1519V57.1519H596.899V53.1519H592.899ZM555.779 53.1519V49.1519H551.779V53.1519H555.779ZM555.779 74.3999H551.779V78.3999H555.779V74.3999ZM597.635 74.3999H601.635V70.3999H597.635V74.3999ZM597.635 87.7119V91.7119H601.635V87.7119H597.635ZM538.499 87.7119H542.499V5.27991H538.499H534.499V87.7119H538.499ZM538.499 5.27991V9.27991H597.635V5.27991V1.27991H538.499V5.27991ZM597.635 5.27991H593.635V18.7199H597.635H601.635V5.27991H597.635ZM597.635 18.7199V14.7199H555.779V18.7199V22.7199H597.635V18.7199ZM555.779 18.7199H551.779V39.8399H555.779H559.779V18.7199H555.779ZM555.779 39.8399V43.8399H592.899V39.8399V35.8399H555.779V39.8399ZM592.899 39.8399H588.899V53.1519H592.899H596.899V39.8399H592.899ZM592.899 53.1519V49.1519H555.779V53.1519V57.1519H592.899V53.1519ZM555.779 53.1519H551.779V74.3999H555.779H559.779V53.1519H555.779ZM555.779 74.3999V78.3999H597.635V74.3999V70.3999H555.779V74.3999ZM597.635 74.3999H593.635V87.7119H597.635H601.635V74.3999H597.635ZM597.635 87.7119V83.7119H538.499V87.7119V91.7119H597.635V87.7119ZM615.926 14.1119L613.098 11.2835V11.2835L615.926 14.1119ZM675.83 14.1119L678.659 11.2835V11.2835L675.83 14.1119ZM662.902 67.6159L659.796 65.0957L659.79 65.1026L662.902 67.6159ZM662.902 25.1199L659.839 27.6927L659.867 27.7258L659.896 27.7583L662.902 25.1199ZM628.726 25.1199L625.693 22.5117L625.689 22.5167L628.726 25.1199ZM628.726 67.6159L625.591 70.1002L625.617 70.1329L625.644 70.165L628.726 67.6159ZM645.878 88.9919V84.9919C633.192 84.9919 624.4 81.6683 618.728 75.7068C613.021 69.7081 609.814 60.3491 609.814 46.8799H605.814H601.814C601.814 61.4854 605.284 73.1824 612.932 81.221C620.615 89.2969 631.855 92.9919 645.878 92.9919V88.9919ZM605.814 46.8799H609.814C609.814 32.2378 613.101 22.5938 618.755 16.9403L615.926 14.1119L613.098 11.2835C605.269 19.1126 601.814 31.314 601.814 46.8799H605.814ZM615.926 14.1119L618.755 16.9403C624.494 11.2007 633.294 7.99991 645.878 7.99991V3.99991V-9.15527e-05C632.009 -9.15527e-05 620.841 3.54046 613.098 11.2835L615.926 14.1119ZM645.878 3.99991V7.99991C658.462 7.99991 667.262 11.2007 673.002 16.9403L675.83 14.1119L678.659 11.2835C670.916 3.54046 659.747 -9.15527e-05 645.878 -9.15527e-05V3.99991ZM675.83 14.1119L673.002 16.9403C678.655 22.5938 681.942 32.2378 681.942 46.8799H685.942H689.942C689.942 31.314 686.488 19.1126 678.659 11.2835L675.83 14.1119ZM685.942 46.8799H681.942C681.942 60.3491 678.735 69.7081 673.028 75.7068C667.357 81.6683 658.564 84.9919 645.878 84.9919V88.9919V92.9919C659.902 92.9919 671.141 89.2969 678.824 81.221C686.472 73.1824 689.942 61.4854 689.942 46.8799H685.942ZM645.878 74.2719V78.2719C654.388 78.2719 661.42 75.8165 666.014 70.1293L662.902 67.6159L659.79 65.1026C657.216 68.29 652.899 70.2719 645.878 70.2719V74.2719ZM662.902 67.6159L666.008 70.1361C670.512 64.5846 672.406 56.5863 672.406 46.8799H668.406H664.406C664.406 55.7762 662.631 61.6019 659.796 65.0957L662.902 67.6159ZM668.406 46.8799H672.406C672.406 36.3183 670.577 27.8013 665.909 22.4816L662.902 25.1199L659.896 27.7583C662.566 30.8012 664.406 36.7908 664.406 46.8799H668.406ZM662.902 25.1199L665.965 22.5471C661.356 17.0597 654.339 14.7199 645.878 14.7199V18.7199V22.7199C652.948 22.7199 657.281 24.6467 659.839 27.6927L662.902 25.1199ZM645.878 18.7199V14.7199C637.41 14.7199 630.38 17.0623 625.693 22.5118L628.726 25.1199L631.759 27.7281C634.411 24.6442 638.815 22.7199 645.878 22.7199V18.7199ZM628.726 25.1199L625.689 22.5167C621.133 27.8328 619.35 36.3324 619.35 46.8799H623.35H627.35C627.35 36.7768 629.152 30.7697 631.763 27.7231L628.726 25.1199ZM623.35 46.8799H619.35C619.35 56.5704 621.195 64.5529 625.591 70.1002L628.726 67.6159L631.861 65.1316C629.089 61.6336 627.35 55.7921 627.35 46.8799H623.35ZM628.726 67.6159L625.644 70.165C630.315 75.8144 637.362 78.2719 645.878 78.2719V74.2719V70.2719C638.864 70.2719 634.476 68.2921 631.809 65.0669L628.726 67.6159Z" fill="white" mask="url(#path-1-outside-1_1447_4)"/>
</svg>
