<svg width="488" height="68" viewBox="0 0 488 68" fill="none" xmlns="http://www.w3.org/2000/svg">
<mask id="path-1-outside-1_1447_2" maskUnits="userSpaceOnUse" x="-0.146484" y="-0.140137" width="488" height="68" fill="black">
<rect fill="white" x="-0.146484" y="-0.140137" width="488" height="68"/>
<path d="M3.99914 62.8599V4.89986H31.1791C35.7391 4.89986 39.4591 5.76986 42.3391 7.50986C45.2791 9.24986 47.4691 11.6199 48.9091 14.6199C50.3491 17.6199 51.0691 21.0399 51.0691 24.8799C51.0691 28.7799 50.2291 32.2299 48.5491 35.2299C46.9291 38.2299 44.5891 40.5699 41.5291 42.2499C38.5291 43.8699 34.9591 44.6799 30.8191 44.6799H16.1491V62.8599H3.99914ZM16.1491 35.0499H28.2991C31.7791 35.0499 34.3891 34.1499 36.1291 32.3499C37.9291 30.4899 38.8291 27.9999 38.8291 24.8799C38.8291 21.5199 37.9891 18.9699 36.3091 17.2299C34.6291 15.4299 32.1091 14.5299 28.7491 14.5299H16.1491V35.0499ZM57.7882 62.8599V4.89986H69.9382V53.4999H98.4682V62.8599H57.7882ZM103.361 62.8599L125.501 4.89986H138.821L160.871 62.8599H148.271L142.781 48.9099H121.451L116.051 62.8599H103.361ZM123.251 39.5499H140.981L132.071 16.2399L123.251 39.5499ZM175.304 62.8599V41.4399L154.514 4.89986H167.204L181.424 31.0899L195.644 4.89986H208.244L187.454 41.4399V62.8599H175.304ZM256.81 62.8599L234.67 4.89986H247.36L263.38 49.2699L279.49 4.89986H292.18L270.13 62.8599H256.81ZM298.345 62.8599V4.89986H310.495V62.8599H298.345ZM320.757 62.8599V4.89986H345.057C353.757 4.89986 360.297 7.14986 364.677 11.6499C369.117 16.0899 371.337 23.5899 371.337 34.1499C371.337 44.1099 369.147 51.3999 364.767 56.0199C360.447 60.5799 353.877 62.8599 345.057 62.8599H320.757ZM332.907 53.4999H343.347C346.767 53.4999 349.647 52.9899 351.987 51.9699C354.327 50.8899 356.067 48.9699 357.207 46.2099C358.407 43.3899 359.007 39.3699 359.007 34.1499C359.007 28.9299 358.467 24.9399 357.387 22.1799C356.307 19.4199 354.627 17.5299 352.347 16.5099C350.067 15.4899 347.067 14.9799 343.347 14.9799H332.907V53.4999ZM379.819 62.8599V4.89986H421.399V14.3499H391.969V29.1999H418.069V38.5599H391.969V53.4999H421.399V62.8599H379.819ZM455.32 63.7599C436.54 63.7599 427.15 53.8899 427.15 34.1499C427.15 23.5299 429.52 15.8499 434.26 11.1099C439 6.36986 446.02 3.99986 455.32 3.99986C464.62 3.99986 471.64 6.36986 476.38 11.1099C481.12 15.8499 483.49 23.5299 483.49 34.1499C483.49 53.8899 474.1 63.7599 455.32 63.7599ZM455.32 53.4099C460.78 53.4099 464.77 51.8499 467.29 48.7299C469.87 45.5499 471.16 40.6899 471.16 34.1499C471.16 26.8899 469.87 21.7899 467.29 18.8499C464.77 15.8499 460.78 14.3499 455.32 14.3499C449.86 14.3499 445.84 15.8499 443.26 18.8499C440.74 21.7899 439.48 26.8899 439.48 34.1499C439.48 40.6899 440.74 45.5499 443.26 48.7299C445.84 51.8499 449.86 53.4099 455.32 53.4099Z"/>
</mask>
<path d="M3.99914 62.8599H-0.000859261V66.8599H3.99914V62.8599ZM3.99914 4.89986V0.899857H-0.000859261V4.89986H3.99914ZM42.3391 7.50986L40.2707 10.9335L40.2862 10.9429L40.3019 10.9522L42.3391 7.50986ZM48.9091 14.6199L52.5152 12.8889V12.8889L48.9091 14.6199ZM48.5491 35.2299L45.0591 33.2754L45.0441 33.3022L45.0295 33.3293L48.5491 35.2299ZM41.5291 42.2499L43.4297 45.7695L43.442 45.7629L43.4542 45.7562L41.5291 42.2499ZM16.1491 44.6799V40.6799H12.1491V44.6799H16.1491ZM16.1491 62.8599V66.8599H20.1491V62.8599H16.1491ZM16.1491 35.0499H12.1491V39.0499H16.1491V35.0499ZM36.1291 32.3499L33.2547 29.5682L33.2532 29.5698L36.1291 32.3499ZM36.3091 17.2299L33.3849 19.9591L33.408 19.9839L33.4315 20.0082L36.3091 17.2299ZM16.1491 14.5299V10.5299H12.1491V14.5299H16.1491ZM3.99914 62.8599H7.99914V4.89986H3.99914H-0.000859261V62.8599H3.99914ZM3.99914 4.89986V8.89986H31.1791V4.89986V0.899857H3.99914V4.89986ZM31.1791 4.89986V8.89986C35.26 8.89986 38.1987 9.68171 40.2707 10.9335L42.3391 7.50986L44.4076 4.0862C40.7196 1.85801 36.2183 0.899857 31.1791 0.899857V4.89986ZM42.3391 7.50986L40.3019 10.9522C42.5805 12.3007 44.2148 14.0837 45.3031 16.3508L48.9091 14.6199L52.5152 12.8889C50.7234 9.15604 47.9778 6.19899 44.3764 4.06755L42.3391 7.50986ZM48.9091 14.6199L45.3031 16.3508C46.4466 18.7333 47.0691 21.5469 47.0691 24.8799H51.0691H55.0691C55.0691 20.5328 54.2516 16.5065 52.5152 12.8889L48.9091 14.6199ZM51.0691 24.8799H47.0691C47.0691 28.1888 46.3619 30.949 45.0591 33.2754L48.5491 35.2299L52.0392 37.1843C54.0964 33.5107 55.0691 29.3709 55.0691 24.8799H51.0691ZM48.5491 35.2299L45.0295 33.3293C43.7845 35.6348 42.0062 37.4248 39.6041 38.7435L41.5291 42.2499L43.4542 45.7562C47.1721 43.715 50.0737 40.8249 52.0688 37.1305L48.5491 35.2299ZM41.5291 42.2499L39.6285 38.7302C37.3251 39.9741 34.4366 40.6799 30.8191 40.6799V44.6799V48.6799C35.4817 48.6799 39.7332 47.7656 43.4297 45.7695L41.5291 42.2499ZM30.8191 44.6799V40.6799H16.1491V44.6799V48.6799H30.8191V44.6799ZM16.1491 44.6799H12.1491V62.8599H16.1491H20.1491V44.6799H16.1491ZM16.1491 62.8599V58.8599H3.99914V62.8599V66.8599H16.1491V62.8599ZM16.1491 35.0499V39.0499H28.2991V35.0499V31.0499H16.1491V35.0499ZM28.2991 35.0499V39.0499C32.4308 39.0499 36.256 37.9738 39.0051 35.13L36.1291 32.3499L33.2532 29.5698C32.5223 30.3259 31.1274 31.0499 28.2991 31.0499V35.0499ZM36.1291 32.3499L39.0036 35.1315C41.6692 32.3771 42.8291 28.8113 42.8291 24.8799H38.8291H34.8291C34.8291 27.1885 34.1891 28.6027 33.2547 29.5682L36.1291 32.3499ZM38.8291 24.8799H42.8291C42.8291 20.8917 41.8278 17.1868 39.1867 14.4515L36.3091 17.2299L33.4315 20.0082C34.1505 20.7529 34.8291 22.148 34.8291 24.8799H38.8291ZM36.3091 17.2299L39.2334 14.5006C36.552 11.6277 32.7991 10.5299 28.7491 10.5299V14.5299V18.5299C31.4192 18.5299 32.7063 19.232 33.3849 19.9591L36.3091 17.2299ZM28.7491 14.5299V10.5299H16.1491V14.5299V18.5299H28.7491V14.5299ZM16.1491 14.5299H12.1491V35.0499H16.1491H20.1491V14.5299H16.1491ZM57.7882 62.8599H53.7882V66.8599H57.7882V62.8599ZM57.7882 4.89986V0.899857H53.7882V4.89986H57.7882ZM69.9382 4.89986H73.9382V0.899857H69.9382V4.89986ZM69.9382 53.4999H65.9382V57.4999H69.9382V53.4999ZM98.4682 53.4999H102.468V49.4999H98.4682V53.4999ZM98.4682 62.8599V66.8599H102.468V62.8599H98.4682ZM57.7882 62.8599H61.7882V4.89986H57.7882H53.7882V62.8599H57.7882ZM57.7882 4.89986V8.89986H69.9382V4.89986V0.899857H57.7882V4.89986ZM69.9382 4.89986H65.9382V53.4999H69.9382H73.9382V4.89986H69.9382ZM69.9382 53.4999V57.4999H98.4682V53.4999V49.4999H69.9382V53.4999ZM98.4682 53.4999H94.4682V62.8599H98.4682H102.468V53.4999H98.4682ZM98.4682 62.8599V58.8599H57.7882V62.8599V66.8599H98.4682V62.8599ZM103.361 62.8599L99.6246 61.4325L97.5514 66.8599H103.361V62.8599ZM125.501 4.89986V0.899857H122.747L121.765 3.4725L125.501 4.89986ZM138.821 4.89986L142.56 3.47757L141.579 0.899857H138.821V4.89986ZM160.871 62.8599V66.8599H166.673L164.61 61.4376L160.871 62.8599ZM148.271 62.8599L144.549 64.3247L145.547 66.8599H148.271V62.8599ZM142.781 48.9099L146.503 47.445L145.506 44.9099H142.781V48.9099ZM121.451 48.9099V44.9099H118.71L117.721 47.4659L121.451 48.9099ZM116.051 62.8599V66.8599H118.792L119.782 64.3038L116.051 62.8599ZM123.251 39.5499L119.51 38.1343L117.461 43.5499H123.251V39.5499ZM140.981 39.5499V43.5499H146.792L144.718 38.1217L140.981 39.5499ZM132.071 16.2399L135.808 14.8117L132.052 4.98714L128.33 14.8243L132.071 16.2399ZM103.361 62.8599L107.098 64.2872L129.238 6.32722L125.501 4.89986L121.765 3.4725L99.6246 61.4325L103.361 62.8599ZM125.501 4.89986V8.89986H138.821V4.89986V0.899857H125.501V4.89986ZM138.821 4.89986L135.083 6.32215L157.133 64.2822L160.871 62.8599L164.61 61.4376L142.56 3.47757L138.821 4.89986ZM160.871 62.8599V58.8599H148.271V62.8599V66.8599H160.871V62.8599ZM148.271 62.8599L151.993 61.395L146.503 47.445L142.781 48.9099L139.059 50.3747L144.549 64.3247L148.271 62.8599ZM142.781 48.9099V44.9099H121.451V48.9099V52.9099H142.781V48.9099ZM121.451 48.9099L117.721 47.4659L112.321 61.4159L116.051 62.8599L119.782 64.3038L125.182 50.3538L121.451 48.9099ZM116.051 62.8599V58.8599H103.361V62.8599V66.8599H116.051V62.8599ZM123.251 39.5499V43.5499H140.981V39.5499V35.5499H123.251V39.5499ZM140.981 39.5499L144.718 38.1217L135.808 14.8117L132.071 16.2399L128.335 17.668L137.245 40.978L140.981 39.5499ZM132.071 16.2399L128.33 14.8243L119.51 38.1343L123.251 39.5499L126.992 40.9654L135.812 17.6554L132.071 16.2399ZM175.304 62.8599H171.304V66.8599H175.304V62.8599ZM175.304 41.4399H179.304V40.3816L178.78 39.4618L175.304 41.4399ZM154.514 4.89986V0.899857H147.636L151.037 6.87796L154.514 4.89986ZM167.204 4.89986L170.719 2.99123L169.583 0.899857H167.204V4.89986ZM181.424 31.0899L177.908 32.9985L181.424 39.4728L184.939 32.9985L181.424 31.0899ZM195.644 4.89986V0.899857H193.264L192.128 2.99123L195.644 4.89986ZM208.244 4.89986L211.72 6.87796L215.122 0.899857H208.244V4.89986ZM187.454 41.4399L183.977 39.4618L183.454 40.3816V41.4399H187.454ZM187.454 62.8599V66.8599H191.454V62.8599H187.454ZM175.304 62.8599H179.304V41.4399H175.304H171.304V62.8599H175.304ZM175.304 41.4399L178.78 39.4618L157.99 2.92176L154.514 4.89986L151.037 6.87796L171.827 43.418L175.304 41.4399ZM154.514 4.89986V8.89986H167.204V4.89986V0.899857H154.514V4.89986ZM167.204 4.89986L163.688 6.80849L177.908 32.9985L181.424 31.0899L184.939 29.1812L170.719 2.99123L167.204 4.89986ZM181.424 31.0899L184.939 32.9985L199.159 6.80849L195.644 4.89986L192.128 2.99123L177.908 29.1812L181.424 31.0899ZM195.644 4.89986V8.89986H208.244V4.89986V0.899857H195.644V4.89986ZM208.244 4.89986L204.767 2.92176L183.977 39.4618L187.454 41.4399L190.93 43.418L211.72 6.87796L208.244 4.89986ZM187.454 41.4399H183.454V62.8599H187.454H191.454V41.4399H187.454ZM187.454 62.8599V58.8599H175.304V62.8599V66.8599H187.454V62.8599ZM256.81 62.8599L253.073 64.2872L254.056 66.8599H256.81V62.8599ZM234.67 4.89986V0.899857H228.86L230.933 6.32722L234.67 4.89986ZM247.36 4.89986L251.122 3.54147L250.168 0.899857H247.36V4.89986ZM263.38 49.2699L259.618 50.6283L263.369 61.0193L267.14 50.635L263.38 49.2699ZM279.49 4.89986V0.899857H276.687L275.73 3.53473L279.49 4.89986ZM292.18 4.89986L295.918 6.32215L297.981 0.899857H292.18V4.89986ZM270.13 62.8599V66.8599H272.888L273.868 64.2822L270.13 62.8599ZM256.81 62.8599L260.547 61.4325L238.407 3.4725L234.67 4.89986L230.933 6.32722L253.073 64.2872L256.81 62.8599ZM234.67 4.89986V8.89986H247.36V4.89986V0.899857H234.67V4.89986ZM247.36 4.89986L243.598 6.25825L259.618 50.6283L263.38 49.2699L267.142 47.9115L251.122 3.54147L247.36 4.89986ZM263.38 49.2699L267.14 50.635L283.25 6.26499L279.49 4.89986L275.73 3.53473L259.62 47.9047L263.38 49.2699ZM279.49 4.89986V8.89986H292.18V4.89986V0.899857H279.49V4.89986ZM292.18 4.89986L288.441 3.47757L266.391 61.4376L270.13 62.8599L273.868 64.2822L295.918 6.32215L292.18 4.89986ZM270.13 62.8599V58.8599H256.81V62.8599V66.8599H270.13V62.8599ZM298.345 62.8599H294.345V66.8599H298.345V62.8599ZM298.345 4.89986V0.899857H294.345V4.89986H298.345ZM310.495 4.89986H314.495V0.899857H310.495V4.89986ZM310.495 62.8599V66.8599H314.495V62.8599H310.495ZM298.345 62.8599H302.345V4.89986H298.345H294.345V62.8599H298.345ZM298.345 4.89986V8.89986H310.495V4.89986V0.899857H298.345V4.89986ZM310.495 4.89986H306.495V62.8599H310.495H314.495V4.89986H310.495ZM310.495 62.8599V58.8599H298.345V62.8599V66.8599H310.495V62.8599ZM320.757 62.8599H316.757V66.8599H320.757V62.8599ZM320.757 4.89986V0.899857H316.757V4.89986H320.757ZM364.677 11.6499L361.811 14.4398L361.829 14.4592L361.849 14.4783L364.677 11.6499ZM364.767 56.0199L361.864 53.2678L361.863 53.2689L364.767 56.0199ZM332.907 53.4999H328.907V57.4999H332.907V53.4999ZM351.987 51.9699L353.585 55.6366L353.624 55.6196L353.663 55.6017L351.987 51.9699ZM357.207 46.2099L353.526 44.6436L353.518 44.6632L353.51 44.6828L357.207 46.2099ZM352.347 16.5099L353.98 12.8586V12.8586L352.347 16.5099ZM332.907 14.9799V10.9799H328.907V14.9799H332.907ZM320.757 62.8599H324.757V4.89986H320.757H316.757V62.8599H320.757ZM320.757 4.89986V8.89986H345.057V4.89986V0.899857H320.757V4.89986ZM345.057 4.89986V8.89986C353.103 8.89986 358.436 10.973 361.811 14.4398L364.677 11.6499L367.543 8.85991C362.158 3.32674 354.411 0.899857 345.057 0.899857V4.89986ZM364.677 11.6499L361.849 14.4783C365.165 17.7949 367.337 23.9696 367.337 34.1499H371.337H375.337C375.337 23.2102 373.069 14.3849 367.505 8.82143L364.677 11.6499ZM371.337 34.1499H367.337C367.337 43.643 365.232 49.7152 361.864 53.2678L364.767 56.0199L367.67 58.7719C373.062 53.0845 375.337 44.5767 375.337 34.1499H371.337ZM364.767 56.0199L361.863 53.2689C358.562 56.7531 353.232 58.8599 345.057 58.8599V62.8599V66.8599C354.521 66.8599 362.332 64.4067 367.671 58.7708L364.767 56.0199ZM345.057 62.8599V58.8599H320.757V62.8599V66.8599H345.057V62.8599ZM332.907 53.4999V57.4999H343.347V53.4999V49.4999H332.907V53.4999ZM343.347 53.4999V57.4999C347.14 57.4999 350.601 56.9375 353.585 55.6366L351.987 51.9699L350.389 48.3031C348.693 49.0422 346.394 49.4999 343.347 49.4999V53.4999ZM351.987 51.9699L353.663 55.6017C357.062 54.033 359.445 51.2699 360.904 47.7369L357.207 46.2099L353.51 44.6828C352.689 46.6698 351.592 47.7467 350.311 48.338L351.987 51.9699ZM357.207 46.2099L360.888 47.7761C362.397 44.23 363.007 39.5823 363.007 34.1499H359.007H355.007C355.007 39.1575 354.417 42.5498 353.526 44.6436L357.207 46.2099ZM359.007 34.1499H363.007C363.007 28.7519 362.462 24.1731 361.112 20.7223L357.387 22.1799L353.662 23.6375C354.472 25.7066 355.007 29.1078 355.007 34.1499H359.007ZM357.387 22.1799L361.112 20.7223C359.726 17.1803 357.394 14.3858 353.98 12.8586L352.347 16.5099L350.714 20.1611C351.86 20.6739 352.888 21.6594 353.662 23.6375L357.387 22.1799ZM352.347 16.5099L353.98 12.8586C350.998 11.5245 347.379 10.9799 343.347 10.9799V14.9799V18.9799C346.755 18.9799 349.136 19.4552 350.714 20.1611L352.347 16.5099ZM343.347 14.9799V10.9799H332.907V14.9799V18.9799H343.347V14.9799ZM332.907 14.9799H328.907V53.4999H332.907H336.907V14.9799H332.907ZM379.819 62.8599H375.819V66.8599H379.819V62.8599ZM379.819 4.89986V0.899857H375.819V4.89986H379.819ZM421.399 4.89986H425.399V0.899857H421.399V4.89986ZM421.399 14.3499V18.3499H425.399V14.3499H421.399ZM391.969 14.3499V10.3499H387.969V14.3499H391.969ZM391.969 29.1999H387.969V33.1999H391.969V29.1999ZM418.069 29.1999H422.069V25.1999H418.069V29.1999ZM418.069 38.5599V42.5599H422.069V38.5599H418.069ZM391.969 38.5599V34.5599H387.969V38.5599H391.969ZM391.969 53.4999H387.969V57.4999H391.969V53.4999ZM421.399 53.4999H425.399V49.4999H421.399V53.4999ZM421.399 62.8599V66.8599H425.399V62.8599H421.399ZM379.819 62.8599H383.819V4.89986H379.819H375.819V62.8599H379.819ZM379.819 4.89986V8.89986H421.399V4.89986V0.899857H379.819V4.89986ZM421.399 4.89986H417.399V14.3499H421.399H425.399V4.89986H421.399ZM421.399 14.3499V10.3499H391.969V14.3499V18.3499H421.399V14.3499ZM391.969 14.3499H387.969V29.1999H391.969H395.969V14.3499H391.969ZM391.969 29.1999V33.1999H418.069V29.1999V25.1999H391.969V29.1999ZM418.069 29.1999H414.069V38.5599H418.069H422.069V29.1999H418.069ZM418.069 38.5599V34.5599H391.969V38.5599V42.5599H418.069V38.5599ZM391.969 38.5599H387.969V53.4999H391.969H395.969V38.5599H391.969ZM391.969 53.4999V57.4999H421.399V53.4999V49.4999H391.969V53.4999ZM421.399 53.4999H417.399V62.8599H421.399H425.399V53.4999H421.399ZM421.399 62.8599V58.8599H379.819V62.8599V66.8599H421.399V62.8599ZM434.26 11.1099L431.432 8.28143V8.28143L434.26 11.1099ZM476.38 11.1099L479.209 8.28143V8.28143L476.38 11.1099ZM467.29 48.7299L464.184 46.2097L464.179 46.2165L467.29 48.7299ZM467.29 18.8499L464.227 21.4226L464.255 21.4557L464.284 21.4882L467.29 18.8499ZM443.26 18.8499L440.228 16.2417L440.223 16.2467L443.26 18.8499ZM443.26 48.7299L440.125 51.2142L440.151 51.2468L440.178 51.2789L443.26 48.7299ZM455.32 63.7599V59.7599C446.599 59.7599 440.78 57.4781 437.091 53.6003C433.366 49.6852 431.15 43.4517 431.15 34.1499H427.15H423.15C423.15 44.588 425.63 53.1596 431.295 59.1144C436.996 65.1067 445.261 67.7599 455.32 67.7599V63.7599ZM427.15 34.1499H431.15C431.15 23.9918 433.437 17.5905 437.089 13.9383L434.26 11.1099L431.432 8.28143C425.604 14.1093 423.15 23.068 423.15 34.1499H427.15ZM434.26 11.1099L437.089 13.9383C440.827 10.2 446.663 7.99986 455.32 7.99986V3.99986V-0.000141144C445.378 -0.000141144 437.174 2.53975 431.432 8.28143L434.26 11.1099ZM455.32 3.99986V7.99986C463.978 7.99986 469.814 10.2 473.552 13.9383L476.38 11.1099L479.209 8.28143C473.467 2.53975 465.263 -0.000141144 455.32 -0.000141144V3.99986ZM476.38 11.1099L473.552 13.9383C477.204 17.5905 479.49 23.9918 479.49 34.1499H483.49H487.49C487.49 23.068 485.037 14.1093 479.209 8.28143L476.38 11.1099ZM483.49 34.1499H479.49C479.49 43.4517 477.275 49.6852 473.55 53.6003C469.861 57.4781 464.041 59.7599 455.32 59.7599V63.7599V67.7599C465.379 67.7599 473.645 65.1067 479.346 59.1144C485.011 53.1596 487.49 44.588 487.49 34.1499H483.49ZM455.32 53.4099V57.4099C461.525 57.4099 466.873 55.6131 470.402 51.2432L467.29 48.7299L464.179 46.2165C462.668 48.0866 460.036 49.4099 455.32 49.4099V53.4099ZM467.29 48.7299L470.397 51.25C473.811 47.0412 475.16 41.0949 475.16 34.1499H471.16H467.16C467.16 40.2848 465.929 44.0585 464.184 46.2097L467.29 48.7299ZM471.16 34.1499H475.16C475.16 26.6536 473.876 20.2899 470.297 16.2115L467.29 18.8499L464.284 21.4882C465.865 23.2898 467.16 27.1261 467.16 34.1499H471.16ZM467.29 18.8499L470.353 16.2771C466.808 12.0564 461.476 10.3499 455.32 10.3499V14.3499V18.3499C460.085 18.3499 462.733 19.6434 464.227 21.4226L467.29 18.8499ZM455.32 14.3499V10.3499C449.158 10.3499 443.825 12.059 440.228 16.2417L443.26 18.8499L446.293 21.458C447.856 19.6408 450.563 18.3499 455.32 18.3499V14.3499ZM443.26 18.8499L440.223 16.2467C436.731 20.3214 435.48 26.6677 435.48 34.1499H439.48H443.48C443.48 27.1121 444.75 23.2583 446.297 21.453L443.26 18.8499ZM439.48 34.1499H435.48C435.48 41.079 436.793 47.0095 440.125 51.2142L443.26 48.7299L446.395 46.2455C444.687 44.0902 443.48 40.3007 443.48 34.1499H439.48ZM443.26 48.7299L440.178 51.2789C443.76 55.611 449.109 57.4099 455.32 57.4099V53.4099V49.4099C450.611 49.4099 447.921 48.0887 446.343 46.1808L443.26 48.7299Z" fill="white" mask="url(#path-1-outside-1_1447_2)"/>
</svg>
