<svg width="324" height="44" viewBox="0 0 324 44" fill="none" xmlns="http://www.w3.org/2000/svg">
<mask id="path-1-outside-1_1447_3" maskUnits="userSpaceOnUse" x="-0.763672" y="-0.759766" width="325" height="45" fill="black">
<rect fill="white" x="-0.763672" y="-0.759766" width="325" height="45"/>
<path d="M2.00008 41.2402V2.60023H20.1201C23.1601 2.60023 25.6401 3.18023 27.5601 4.34023C29.5201 5.50023 30.9801 7.08023 31.9401 9.08023C32.9001 11.0802 33.3801 13.3602 33.3801 15.9202C33.3801 18.5202 32.8201 20.8202 31.7001 22.8202C30.6201 24.8202 29.0601 26.3802 27.0201 27.5002C25.0201 28.5802 22.6401 29.1202 19.8801 29.1202H10.1001V41.2402H2.00008ZM10.1001 22.7002H18.2001C20.5201 22.7002 22.2601 22.1002 23.4201 20.9002C24.6201 19.6602 25.2201 18.0002 25.2201 15.9202C25.2201 13.6802 24.6601 11.9802 23.5401 10.8202C22.4201 9.62023 20.7401 9.02023 18.5001 9.02023H10.1001V22.7002ZM37.8595 41.2402V2.60023H45.9595V35.0002H64.9795V41.2402H37.8595ZM68.2415 41.2402L83.0015 2.60023H91.8815L106.581 41.2402H98.1815L94.5215 31.9402H80.3015L76.7015 41.2402H68.2415ZM81.5015 25.7002H93.3215L87.3815 10.1602L81.5015 25.7002ZM116.203 41.2402V26.9602L102.343 2.60023H110.803L120.283 20.0602L129.763 2.60023H138.163L124.303 26.9602V41.2402H116.203ZM170.541 41.2402L155.781 2.60023H164.241L174.921 32.1802L185.661 2.60023H194.121L179.421 41.2402H170.541ZM198.231 41.2402V2.60023H206.331V41.2402H198.231ZM213.172 41.2402V2.60023H229.372C235.172 2.60023 239.532 4.10023 242.452 7.10023C245.412 10.0602 246.892 15.0602 246.892 22.1002C246.892 28.7402 245.432 33.6002 242.512 36.6802C239.632 39.7202 235.252 41.2402 229.372 41.2402H213.172ZM221.272 35.0002H228.232C230.512 35.0002 232.432 34.6602 233.992 33.9802C235.552 33.2602 236.712 31.9802 237.472 30.1402C238.272 28.2602 238.672 25.5802 238.672 22.1002C238.672 18.6202 238.312 15.9602 237.592 14.1202C236.872 12.2802 235.752 11.0202 234.232 10.3402C232.712 9.66023 230.712 9.32023 228.232 9.32023H221.272V35.0002ZM252.547 41.2402V2.60023H280.267V8.90023H260.647V18.8002H278.047V25.0402H260.647V35.0002H280.267V41.2402H252.547ZM302.881 41.8402C290.361 41.8402 284.101 35.2602 284.101 22.1002C284.101 15.0202 285.681 9.90023 288.841 6.74023C292.001 3.58023 296.681 2.00023 302.881 2.00023C309.081 2.00023 313.761 3.58023 316.921 6.74023C320.081 9.90023 321.661 15.0202 321.661 22.1002C321.661 35.2602 315.401 41.8402 302.881 41.8402ZM302.881 34.9402C306.521 34.9402 309.181 33.9002 310.861 31.8202C312.581 29.7002 313.441 26.4602 313.441 22.1002C313.441 17.2602 312.581 13.8602 310.861 11.9002C309.181 9.90023 306.521 8.90023 302.881 8.90023C299.241 8.90023 296.561 9.90023 294.841 11.9002C293.161 13.8602 292.321 17.2602 292.321 22.1002C292.321 26.4602 293.161 29.7002 294.841 31.8202C296.561 33.9002 299.241 34.9402 302.881 34.9402Z"/>
</mask>
<path d="M2.00008 41.2402H7.83205e-05V43.2402H2.00008V41.2402ZM2.00008 2.60023V0.600231H7.83205e-05V2.60023H2.00008ZM27.5601 4.34023L26.5258 6.05206L26.5336 6.05676L26.5414 6.06139L27.5601 4.34023ZM31.9401 9.08023L33.7431 8.21477V8.21477L31.9401 9.08023ZM31.7001 22.8202L29.9551 21.843L29.9476 21.8564L29.9403 21.8699L31.7001 22.8202ZM27.0201 27.5002L27.9704 29.2601L27.9826 29.2534L27.0201 27.5002ZM10.1001 29.1202V27.1202H8.10008V29.1202H10.1001ZM10.1001 41.2402V43.2402H12.1001V41.2402H10.1001ZM10.1001 22.7002H8.10008V24.7002H10.1001V22.7002ZM23.4201 20.9002L21.9829 19.5094L21.9821 19.5102L23.4201 20.9002ZM23.5401 10.8202L22.078 12.1849L22.0895 12.1972L22.1013 12.2094L23.5401 10.8202ZM10.1001 9.02023V7.02023H8.10008V9.02023H10.1001ZM2.00008 41.2402H4.00008V2.60023H2.00008H7.83205e-05V41.2402H2.00008ZM2.00008 2.60023V4.60023H20.1201V2.60023V0.600231H2.00008V2.60023ZM20.1201 2.60023V4.60023C22.9205 4.60023 25.0099 5.13616 26.5258 6.05206L27.5601 4.34023L28.5943 2.6284C26.2703 1.22431 23.3997 0.600231 20.1201 0.600231V2.60023ZM27.5601 4.34023L26.5414 6.06139C28.1707 7.02567 29.3529 8.31215 30.137 9.9457L31.9401 9.08023L33.7431 8.21477C32.6072 5.84832 30.8694 3.9748 28.5787 2.61908L27.5601 4.34023ZM31.9401 9.08023L30.137 9.9457C30.9488 11.6369 31.3801 13.6138 31.3801 15.9202H33.3801H35.3801C35.3801 13.1067 34.8513 10.5235 33.7431 8.21477L31.9401 9.08023ZM33.3801 15.9202H31.3801C31.3801 18.2247 30.8865 20.1798 29.9551 21.843L31.7001 22.8202L33.4451 23.7974C34.7537 21.4607 35.3801 18.8158 35.3801 15.9202H33.3801ZM31.7001 22.8202L29.9403 21.8699C29.0478 23.5227 27.7686 24.8077 26.0576 25.7471L27.0201 27.5002L27.9826 29.2534C30.3516 27.9528 32.1924 26.1178 33.4599 23.7705L31.7001 22.8202ZM27.0201 27.5002L26.0698 25.7404C24.418 26.6324 22.3788 27.1202 19.8801 27.1202V29.1202V31.1202C22.9014 31.1202 25.6221 30.5281 27.9704 29.26L27.0201 27.5002ZM19.8801 29.1202V27.1202H10.1001V29.1202V31.1202H19.8801V29.1202ZM10.1001 29.1202H8.10008V41.2402H10.1001H12.1001V29.1202H10.1001ZM10.1001 41.2402V39.2402H2.00008V41.2402V43.2402H10.1001V41.2402ZM10.1001 22.7002V24.7002H18.2001V22.7002V20.7002H10.1001V22.7002ZM18.2001 22.7002V24.7002C20.8459 24.7002 23.1935 24.0122 24.8581 22.2903L23.4201 20.9002L21.9821 19.5102C21.3266 20.1883 20.1942 20.7002 18.2001 20.7002V22.7002ZM23.4201 20.9002L24.8573 22.2911C26.4901 20.6038 27.2201 18.4059 27.2201 15.9202H25.2201H23.2201C23.2201 17.5945 22.7501 18.7166 21.9829 19.5094L23.4201 20.9002ZM25.2201 15.9202H27.2201C27.2201 13.3662 26.5794 11.0887 24.9789 9.43104L23.5401 10.8202L22.1013 12.2094C22.7408 12.8718 23.2201 13.9943 23.2201 15.9202H25.2201ZM23.5401 10.8202L25.0022 9.4556C23.3815 7.71915 21.0851 7.02023 18.5001 7.02023V9.02023V11.0202C20.3951 11.0202 21.4586 11.5213 22.078 12.1849L23.5401 10.8202ZM18.5001 9.02023V7.02023H10.1001V9.02023V11.0202H18.5001V9.02023ZM10.1001 9.02023H8.10008V22.7002H10.1001H12.1001V9.02023H10.1001ZM37.8595 41.2402H35.8595V43.2402H37.8595V41.2402ZM37.8595 2.60023V0.600231H35.8595V2.60023H37.8595ZM45.9595 2.60023H47.9595V0.600231H45.9595V2.60023ZM45.9595 35.0002H43.9595V37.0002H45.9595V35.0002ZM64.9795 35.0002H66.9795V33.0002H64.9795V35.0002ZM64.9795 41.2402V43.2402H66.9795V41.2402H64.9795ZM37.8595 41.2402H39.8595V2.60023H37.8595H35.8595V41.2402H37.8595ZM37.8595 2.60023V4.60023H45.9595V2.60023V0.600231H37.8595V2.60023ZM45.9595 2.60023H43.9595V35.0002H45.9595H47.9595V2.60023H45.9595ZM45.9595 35.0002V37.0002H64.9795V35.0002V33.0002H45.9595V35.0002ZM64.9795 35.0002H62.9795V41.2402H64.9795H66.9795V35.0002H64.9795ZM64.9795 41.2402V39.2402H37.8595V41.2402V43.2402H64.9795V41.2402ZM68.2415 41.2402L66.3732 40.5266L65.3366 43.2402H68.2415V41.2402ZM83.0015 2.60023V0.600231H81.6245L81.1332 1.88655L83.0015 2.60023ZM91.8815 2.60023L93.7508 1.88908L93.2605 0.600231H91.8815V2.60023ZM106.581 41.2402V43.2402H109.482L108.451 40.5291L106.581 41.2402ZM98.1815 41.2402L96.3204 41.9727L96.8193 43.2402H98.1815V41.2402ZM94.5215 31.9402L96.3826 31.2078L95.8837 29.9402H94.5215V31.9402ZM80.3015 31.9402V29.9402H78.9311L78.4363 31.2182L80.3015 31.9402ZM76.7015 41.2402V43.2402H78.0719L78.5666 41.9622L76.7015 41.2402ZM81.5015 25.7002L79.6309 24.9925L78.6063 27.7002H81.5015V25.7002ZM93.3215 25.7002V27.7002H96.2271L95.1897 24.9861L93.3215 25.7002ZM87.3815 10.1602L89.2497 9.44614L87.372 4.53387L85.5109 9.45245L87.3815 10.1602ZM68.2415 41.2402L70.1098 41.9539L84.8698 3.31391L83.0015 2.60023L81.1332 1.88655L66.3732 40.5266L68.2415 41.2402ZM83.0015 2.60023V4.60023H91.8815V2.60023V0.600231H83.0015V2.60023ZM91.8815 2.60023L90.0122 3.31138L104.712 41.9514L106.581 41.2402L108.451 40.5291L93.7508 1.88908L91.8815 2.60023ZM106.581 41.2402V39.2402H98.1815V41.2402V43.2402H106.581V41.2402ZM98.1815 41.2402L100.043 40.5078L96.3826 31.2078L94.5215 31.9402L92.6604 32.6727L96.3204 41.9727L98.1815 41.2402ZM94.5215 31.9402V29.9402H80.3015V31.9402V33.9402H94.5215V31.9402ZM80.3015 31.9402L78.4363 31.2182L74.8363 40.5182L76.7015 41.2402L78.5666 41.9622L82.1666 32.6622L80.3015 31.9402ZM76.7015 41.2402V39.2402H68.2415V41.2402V43.2402H76.7015V41.2402ZM81.5015 25.7002V27.7002H93.3215V25.7002V23.7002H81.5015V25.7002ZM93.3215 25.7002L95.1897 24.9861L89.2497 9.44614L87.3815 10.1602L85.5133 10.8743L91.4533 26.4143L93.3215 25.7002ZM87.3815 10.1602L85.5109 9.45245L79.6309 24.9925L81.5015 25.7002L83.3721 26.408L89.2521 10.868L87.3815 10.1602ZM116.203 41.2402H114.203V43.2402H116.203V41.2402ZM116.203 26.9602H118.203V26.4311L117.941 25.9712L116.203 26.9602ZM102.343 2.60023V0.600231H98.9041L100.605 3.58928L102.343 2.60023ZM110.803 2.60023L112.561 1.64592L111.993 0.600231H110.803V2.60023ZM120.283 20.0602L118.525 21.0146L120.283 24.2517L122.041 21.0146L120.283 20.0602ZM129.763 2.60023V0.600231H128.573L128.005 1.64592L129.763 2.60023ZM138.163 2.60023L139.901 3.58928L141.602 0.600231H138.163V2.60023ZM124.303 26.9602L122.565 25.9712L122.303 26.4311V26.9602H124.303ZM124.303 41.2402V43.2402H126.303V41.2402H124.303ZM116.203 41.2402H118.203V26.9602H116.203H114.203V41.2402H116.203ZM116.203 26.9602L117.941 25.9712L104.081 1.61118L102.343 2.60023L100.605 3.58928L114.465 27.9493L116.203 26.9602ZM102.343 2.60023V4.60023H110.803V2.60023V0.600231H102.343V2.60023ZM110.803 2.60023L109.045 3.55455L118.525 21.0146L120.283 20.0602L122.041 19.1059L112.561 1.64592L110.803 2.60023ZM120.283 20.0602L122.041 21.0146L131.521 3.55455L129.763 2.60023L128.005 1.64592L118.525 19.1059L120.283 20.0602ZM129.763 2.60023V4.60023H138.163V2.60023V0.600231H129.763V2.60023ZM138.163 2.60023L136.425 1.61118L122.565 25.9712L124.303 26.9602L126.041 27.9493L139.901 3.58928L138.163 2.60023ZM124.303 26.9602H122.303V41.2402H124.303H126.303V26.9602H124.303ZM124.303 41.2402V39.2402H116.203V41.2402V43.2402H124.303V41.2402ZM170.541 41.2402L168.672 41.9539L169.164 43.2402H170.541V41.2402ZM155.781 2.60023V0.600231H152.876L153.912 3.31391L155.781 2.60023ZM164.241 2.60023L166.122 1.92104L165.645 0.600231H164.241V2.60023ZM174.921 32.1802L173.039 32.8594L174.915 38.055L176.8 32.8628L174.921 32.1802ZM185.661 2.60023V0.600231H184.259L183.781 1.91766L185.661 2.60023ZM194.121 2.60023L195.99 3.31138L197.021 0.600231H194.121V2.60023ZM179.421 41.2402V43.2402H180.8L181.29 41.9514L179.421 41.2402ZM170.541 41.2402L172.409 40.5266L157.649 1.88655L155.781 2.60023L153.912 3.31391L168.672 41.9539L170.541 41.2402ZM155.781 2.60023V4.60023H164.241V2.60023V0.600231H155.781V2.60023ZM164.241 2.60023L162.359 3.27943L173.039 32.8594L174.921 32.1802L176.802 31.501L166.122 1.92104L164.241 2.60023ZM174.921 32.1802L176.8 32.8628L187.54 3.2828L185.661 2.60023L183.781 1.91766L173.041 31.4977L174.921 32.1802ZM185.661 2.60023V4.60023H194.121V2.60023V0.600231H185.661V2.60023ZM194.121 2.60023L192.251 1.88908L177.551 40.5291L179.421 41.2402L181.29 41.9514L195.99 3.31138L194.121 2.60023ZM179.421 41.2402V39.2402H170.541V41.2402V43.2402H179.421V41.2402ZM198.231 41.2402H196.231V43.2402H198.231V41.2402ZM198.231 2.60023V0.600231H196.231V2.60023H198.231ZM206.331 2.60023H208.331V0.600231H206.331V2.60023ZM206.331 41.2402V43.2402H208.331V41.2402H206.331ZM198.231 41.2402H200.231V2.60023H198.231H196.231V41.2402H198.231ZM198.231 2.60023V4.60023H206.331V2.60023V0.600231H198.231V2.60023ZM206.331 2.60023H204.331V41.2402H206.331H208.331V2.60023H206.331ZM206.331 41.2402V39.2402H198.231V41.2402V43.2402H206.331V41.2402ZM213.172 41.2402H211.172V43.2402H213.172V41.2402ZM213.172 2.60023V0.600231H211.172V2.60023H213.172ZM242.452 7.10023L241.019 8.49521L241.028 8.50489L241.038 8.51445L242.452 7.10023ZM242.512 36.6802L241.061 35.3042L241.06 35.3047L242.512 36.6802ZM221.272 35.0002H219.272V37.0002H221.272V35.0002ZM233.992 33.9802L234.791 35.8136L234.811 35.8051L234.83 35.7962L233.992 33.9802ZM237.472 30.1402L235.632 29.3571L235.627 29.3669L235.623 29.3767L237.472 30.1402ZM234.232 10.3402L235.049 8.5146V8.5146L234.232 10.3402ZM221.272 9.32023V7.32023H219.272V9.32023H221.272ZM213.172 41.2402H215.172V2.60023H213.172H211.172V41.2402H213.172ZM213.172 2.60023V4.60023H229.372V2.60023V0.600231H213.172V2.60023ZM229.372 2.60023V4.60023C234.845 4.60023 238.602 6.01179 241.019 8.49521L242.452 7.10023L243.885 5.70526C240.462 2.18867 235.499 0.600231 229.372 0.600231V2.60023ZM242.452 7.10023L241.038 8.51445C243.436 10.9127 244.892 15.2501 244.892 22.1002H246.892H248.892C248.892 14.8704 247.388 9.20774 243.866 5.68602L242.452 7.10023ZM246.892 22.1002H244.892C244.892 28.5068 243.475 32.7579 241.061 35.3042L242.512 36.6802L243.963 38.0562C247.389 34.4426 248.892 28.9737 248.892 22.1002H246.892ZM242.512 36.6802L241.06 35.3047C238.69 37.8068 234.93 39.2402 229.372 39.2402V41.2402V43.2402C235.574 43.2402 240.574 41.6336 243.964 38.0557L242.512 36.6802ZM229.372 41.2402V39.2402H213.172V41.2402V43.2402H229.372V41.2402ZM221.272 35.0002V37.0002H228.232V35.0002V33.0002H221.272V35.0002ZM228.232 35.0002V37.0002C230.699 37.0002 232.909 36.6341 234.791 35.8136L233.992 33.9802L233.193 32.1468C231.955 32.6864 230.325 33.0002 228.232 33.0002V35.0002ZM233.992 33.9802L234.83 35.7962C236.919 34.8318 238.401 33.1303 239.32 30.9038L237.472 30.1402L235.623 29.3767C235.023 30.8302 234.184 31.6887 233.154 32.1643L233.992 33.9802ZM237.472 30.1402L239.312 30.9233C240.267 28.6803 240.672 25.6864 240.672 22.1002H238.672H236.672C236.672 25.474 236.277 27.8402 235.632 29.3571L237.472 30.1402ZM238.672 22.1002H240.672C240.672 18.5312 240.31 15.5769 239.454 13.3914L237.592 14.1202L235.729 14.849C236.314 16.3436 236.672 18.7092 236.672 22.1002H238.672ZM237.592 14.1202L239.454 13.3914C238.581 11.1605 237.136 9.4482 235.049 8.5146L234.232 10.3402L233.415 12.1659C234.368 12.5923 235.162 13.4 235.729 14.849L237.592 14.1202ZM234.232 10.3402L235.049 8.5146C233.178 7.67755 230.868 7.32023 228.232 7.32023V9.32023V11.3202C230.556 11.3202 232.246 11.6429 233.415 12.1659L234.232 10.3402ZM228.232 9.32023V7.32023H221.272V9.32023V11.3202H228.232V9.32023ZM221.272 9.32023H219.272V35.0002H221.272H223.272V9.32023H221.272ZM252.547 41.2402H250.547V43.2402H252.547V41.2402ZM252.547 2.60023V0.600231H250.547V2.60023H252.547ZM280.267 2.60023H282.267V0.600231H280.267V2.60023ZM280.267 8.90023V10.9002H282.267V8.90023H280.267ZM260.647 8.90023V6.90023H258.647V8.90023H260.647ZM260.647 18.8002H258.647V20.8002H260.647V18.8002ZM278.047 18.8002H280.047V16.8002H278.047V18.8002ZM278.047 25.0402V27.0402H280.047V25.0402H278.047ZM260.647 25.0402V23.0402H258.647V25.0402H260.647ZM260.647 35.0002H258.647V37.0002H260.647V35.0002ZM280.267 35.0002H282.267V33.0002H280.267V35.0002ZM280.267 41.2402V43.2402H282.267V41.2402H280.267ZM252.547 41.2402H254.547V2.60023H252.547H250.547V41.2402H252.547ZM252.547 2.60023V4.60023H280.267V2.60023V0.600231H252.547V2.60023ZM280.267 2.60023H278.267V8.90023H280.267H282.267V2.60023H280.267ZM280.267 8.90023V6.90023H260.647V8.90023V10.9002H280.267V8.90023ZM260.647 8.90023H258.647V18.8002H260.647H262.647V8.90023H260.647ZM260.647 18.8002V20.8002H278.047V18.8002V16.8002H260.647V18.8002ZM278.047 18.8002H276.047V25.0402H278.047H280.047V18.8002H278.047ZM278.047 25.0402V23.0402H260.647V25.0402V27.0402H278.047V25.0402ZM260.647 25.0402H258.647V35.0002H260.647H262.647V25.0402H260.647ZM260.647 35.0002V37.0002H280.267V35.0002V33.0002H260.647V35.0002ZM280.267 35.0002H278.267V41.2402H280.267H282.267V35.0002H280.267ZM280.267 41.2402V39.2402H252.547V41.2402V43.2402H280.267V41.2402ZM288.841 6.74023L287.427 5.32602V5.32602L288.841 6.74023ZM316.921 6.74023L318.335 5.32602V5.32602L316.921 6.74023ZM310.861 31.8202L309.308 30.5602L309.305 30.5636L310.861 31.8202ZM310.861 11.9002L309.329 13.1866L309.343 13.2032L309.358 13.2194L310.861 11.9002ZM294.841 11.9002L293.324 10.5962L293.322 10.5986L294.841 11.9002ZM294.841 31.8202L293.273 33.0624L293.286 33.0787L293.3 33.0948L294.841 31.8202ZM302.881 41.8402V39.8402C296.955 39.8402 292.872 38.2881 290.245 35.5267C287.6 32.7466 286.101 28.3961 286.101 22.1002H284.101H282.101C282.101 28.9643 283.732 34.4838 287.347 38.2838C290.98 42.1024 296.286 43.8402 302.881 43.8402V41.8402ZM284.101 22.1002H286.101C286.101 15.2512 287.639 10.7705 290.255 8.15445L288.841 6.74023L287.427 5.32602C283.723 9.02993 282.101 14.7893 282.101 22.1002H284.101ZM288.841 6.74023L290.255 8.15445C292.914 5.49529 297.002 4.00023 302.881 4.00023V2.00023V0.000232697C296.36 0.000232697 291.087 1.66517 287.427 5.32602L288.841 6.74023ZM302.881 2.00023V4.00023C308.76 4.00023 312.848 5.49529 315.507 8.15445L316.921 6.74023L318.335 5.32602C314.674 1.66517 309.402 0.000232697 302.881 0.000232697V2.00023ZM316.921 6.74023L315.507 8.15445C318.123 10.7705 319.661 15.2512 319.661 22.1002H321.661H323.661C323.661 14.7893 322.039 9.02993 318.335 5.32602L316.921 6.74023ZM321.661 22.1002H319.661C319.661 28.3961 318.162 32.7466 315.517 35.5267C312.89 38.2881 308.806 39.8402 302.881 39.8402V41.8402V43.8402C309.475 43.8402 314.782 42.1024 318.415 38.2838C322.03 34.4838 323.661 28.9643 323.661 22.1002H321.661ZM302.881 34.9402V36.9402C306.893 36.9402 310.232 35.7819 312.417 33.0769L310.861 31.8202L309.305 30.5636C308.13 32.0186 306.149 32.9402 302.881 32.9402V34.9402ZM310.861 31.8202L312.414 33.0803C314.551 30.4459 315.441 26.6628 315.441 22.1002H313.441H311.441C311.441 26.2577 310.61 28.9545 309.308 30.5602L310.861 31.8202ZM313.441 22.1002H315.441C315.441 17.1421 314.584 13.1102 312.364 10.5811L310.861 11.9002L309.358 13.2194C310.578 14.6102 311.441 17.3783 311.441 22.1002H313.441ZM310.861 11.9002L312.392 10.6138C310.2 8.00348 306.868 6.90023 302.881 6.90023V8.90023V10.9002C306.173 10.9002 308.162 11.797 309.329 13.1866L310.861 11.9002ZM302.881 8.90023V6.90023C298.89 6.90023 295.553 8.00478 293.324 10.5962L294.841 11.9002L296.357 13.2043C297.569 11.7957 299.592 10.9002 302.881 10.9002V8.90023ZM294.841 11.9002L293.322 10.5986C291.156 13.126 290.321 17.1491 290.321 22.1002H292.321H294.321C294.321 17.3713 295.166 14.5945 296.359 13.2018L294.841 11.9002ZM292.321 22.1002H290.321C290.321 26.6548 291.187 30.4301 293.273 33.0624L294.841 31.8202L296.408 30.5781C295.134 28.9704 294.321 26.2657 294.321 22.1002H292.321ZM294.841 31.8202L293.3 33.0948C295.521 35.7808 298.865 36.9402 302.881 36.9402V34.9402V32.9402C299.616 32.9402 297.601 32.0197 296.382 30.5457L294.841 31.8202Z" fill="white" mask="url(#path-1-outside-1_1447_3)"/>
</svg>
