<svg width="542" height="359" viewBox="0 0 542 359" fill="none" xmlns="http://www.w3.org/2000/svg">
<path d="M0 351V304.844C10.0057 285.881 22.1554 268.885 36.4492 253.858C50.7429 238.83 66.6448 223.445 84.1547 207.702C98.8058 194.463 110.598 183.55 119.532 174.963C128.823 166.376 135.612 158.326 139.9 150.812C144.546 142.94 146.869 133.995 146.869 123.977C146.869 98.5734 130.252 85.8716 97.0191 85.8716C81.6533 85.8716 66.6448 87.6606 51.9937 91.2385C37.6999 94.8165 24.1208 99.289 11.2564 104.656V18.7844C25.9075 13.0596 43.06 8.58715 62.714 5.36697C82.368 1.78899 102.201 0 122.212 0C165.093 0 197.076 10.1973 218.159 30.5918C239.242 50.6285 249.784 77.6422 249.784 111.633C249.784 127.734 247.819 141.688 243.888 153.495C240.314 164.945 234.597 175.5 226.735 185.161C218.874 194.821 208.689 205.197 196.182 216.289C185.105 225.95 174.206 235.61 163.485 245.271C152.765 254.931 144.189 264.413 137.756 273.716H253V351H0Z" fill="#E60012"/>
<path d="M330.92 108.66H338.96V164.22H330.92V108.66ZM336.92 129.96H346.7V136.5H336.92V129.96ZM316.34 114.42H324.2C324.2 119.98 323.4 125.24 321.8 130.2C320.24 135.16 317.64 139.72 314 143.88C310.4 148 305.52 151.6 299.36 154.68L294.86 148.62C299.74 146.1 303.76 143.26 306.92 140.1C310.12 136.94 312.48 133.36 314 129.36C315.56 125.32 316.34 120.82 316.34 115.86V114.42ZM297.92 114.42H320.48V120.84H297.92V114.42ZM366.68 131.22H395.72V137.64H366.68V131.22ZM377.12 136.38H385.16V148.14H377.12V136.38ZM366.68 113.64H395.42V120H374.72V133.2H366.68V113.64ZM401.3 108.66H409.28V164.4H401.3V108.66ZM364.1 153.48L363.2 147C366.76 147 370.52 146.98 374.48 146.94C378.44 146.9 382.44 146.8 386.48 146.64C390.56 146.44 394.5 146.12 398.3 145.68L398.84 151.5C394.84 152.14 390.82 152.6 386.78 152.88C382.78 153.16 378.86 153.34 375.02 153.42C371.22 153.46 367.58 153.48 364.1 153.48ZM433.335 112.56C436.095 112.56 438.555 113.38 440.715 115.02C442.915 116.62 444.615 118.92 445.815 121.92C447.055 124.88 447.675 128.38 447.675 132.42C447.675 136.5 447.055 140.04 445.815 143.04C444.615 146 442.915 148.3 440.715 149.94C438.555 151.54 436.095 152.34 433.335 152.34C430.575 152.34 428.115 151.54 425.955 149.94C423.795 148.3 422.095 146 420.855 143.04C419.615 140.04 418.995 136.5 418.995 132.42C418.995 128.38 419.615 124.88 420.855 121.92C422.095 118.92 423.795 116.62 425.955 115.02C428.115 113.38 430.575 112.56 433.335 112.56ZM433.335 119.82C432.015 119.82 430.835 120.3 429.795 121.26C428.795 122.22 428.015 123.64 427.455 125.52C426.895 127.36 426.615 129.66 426.615 132.42C426.615 135.14 426.895 137.46 427.455 139.38C428.015 141.26 428.795 142.68 429.795 143.64C430.835 144.6 432.015 145.08 433.335 145.08C434.735 145.08 435.935 144.6 436.935 143.64C437.935 142.68 438.715 141.26 439.275 139.38C439.835 137.46 440.115 135.14 440.115 132.42C440.115 129.66 439.835 127.36 439.275 125.52C438.715 123.64 437.935 122.22 436.935 121.26C435.935 120.3 434.735 119.82 433.335 119.82ZM456.795 108.66H464.775V164.4H456.795V108.66ZM445.335 128.76H460.155V135.12H445.335V128.76ZM295.46 241.38H345.8V247.86H295.46V241.38ZM316.58 229.14H324.5V242.94H316.58V229.14ZM300.74 202.86H340.28V230.16H300.74V202.86ZM332.42 209.16H308.6V223.8H332.42V209.16ZM350.715 226.2H400.935V232.56H350.715V226.2ZM356.775 215.34H395.415V221.7H356.775V215.34ZM356.775 200.76H394.935V207.06H364.695V217.62H356.775V200.76ZM356.595 246.96H395.775V253.32H356.595V246.96ZM356.595 236.7H364.575V248.58H356.595V236.7ZM444.311 198.72H452.351V235.62H444.311V198.72ZM434.771 213.48H445.511V219.9H434.771V213.48ZM426.011 202.92H434.471C434.471 208 433.571 212.5 431.771 216.42C429.971 220.3 427.251 223.64 423.611 226.44C420.011 229.24 415.411 231.52 409.811 233.28L406.511 227.1C411.151 225.7 414.891 224 417.731 222C420.611 219.96 422.711 217.64 424.031 215.04C425.351 212.4 426.011 209.54 426.011 206.46V202.92ZM409.331 202.92H431.891V209.28H409.331V202.92ZM429.611 231.54H436.391V233.34C436.391 235.9 435.931 238.32 435.011 240.6C434.131 242.88 432.791 244.94 430.991 246.78C429.191 248.58 426.971 250.12 424.331 251.4C421.731 252.68 418.731 253.62 415.331 254.22L412.271 247.92C415.231 247.44 417.791 246.72 419.951 245.76C422.111 244.8 423.911 243.66 425.351 242.34C426.791 240.98 427.851 239.54 428.531 238.02C429.251 236.5 429.611 234.94 429.611 233.34V231.54ZM430.751 231.54H437.531V233.34C437.531 234.94 437.891 236.5 438.611 238.02C439.331 239.5 440.391 240.92 441.791 242.28C443.231 243.6 445.031 244.74 447.191 245.7C449.391 246.66 451.951 247.38 454.871 247.86L451.751 254.1C448.351 253.54 445.331 252.62 442.691 251.34C440.091 250.1 437.911 248.56 436.151 246.72C434.391 244.88 433.051 242.84 432.131 240.6C431.211 238.32 430.751 235.9 430.751 233.34V231.54ZM499.146 198.66H507.126V254.4H499.146V198.66ZM477.186 202.56C480.026 202.56 482.546 203.38 484.746 205.02C486.946 206.62 488.666 208.92 489.906 211.92C491.186 214.88 491.826 218.38 491.826 222.42C491.826 226.5 491.186 230.04 489.906 233.04C488.666 236 486.946 238.3 484.746 239.94C482.546 241.54 480.026 242.34 477.186 242.34C474.386 242.34 471.886 241.54 469.686 239.94C467.486 238.3 465.746 236 464.466 233.04C463.226 230.04 462.606 226.5 462.606 222.42C462.606 218.38 463.226 214.88 464.466 211.92C465.746 208.92 467.486 206.62 469.686 205.02C471.886 203.38 474.386 202.56 477.186 202.56ZM477.186 209.82C475.826 209.82 474.626 210.3 473.586 211.26C472.546 212.22 471.726 213.64 471.126 215.52C470.566 217.36 470.286 219.66 470.286 222.42C470.286 225.14 470.566 227.46 471.126 229.38C471.726 231.26 472.546 232.68 473.586 233.64C474.626 234.6 475.826 235.08 477.186 235.08C478.586 235.08 479.806 234.6 480.846 233.64C481.886 232.68 482.686 231.26 483.246 229.38C483.846 227.46 484.146 225.14 484.146 222.42C484.146 219.66 483.846 217.36 483.246 215.52C482.686 213.64 481.886 212.22 480.846 211.26C479.806 210.3 478.586 209.82 477.186 209.82ZM305.66 293.58H311.78V302.88C311.78 306.08 311.54 309.2 311.06 312.24C310.62 315.24 309.9 318.08 308.9 320.76C307.9 323.4 306.6 325.8 305 327.96C303.44 330.08 301.56 331.82 299.36 333.18L294.38 327.24C296.46 326 298.22 324.48 299.66 322.68C301.1 320.88 302.26 318.9 303.14 316.74C304.02 314.58 304.66 312.34 305.06 310.02C305.46 307.66 305.66 305.28 305.66 302.88V293.58ZM307.22 293.58H313.4V302.34C313.4 304.74 313.58 307.08 313.94 309.36C314.3 311.64 314.86 313.78 315.62 315.78C316.42 317.78 317.48 319.6 318.8 321.24C320.12 322.84 321.76 324.16 323.72 325.2L319.1 331.56C316.86 330.28 314.96 328.64 313.4 326.64C311.88 324.64 310.66 322.36 309.74 319.8C308.86 317.24 308.22 314.48 307.82 311.52C307.42 308.56 307.22 305.5 307.22 302.34V293.58ZM335.54 288.72H343.16V344.28H335.54V288.72ZM328.88 310.32H338.12V316.74H328.88V310.32ZM323.6 289.62H331.04V341.82H323.6V289.62ZM350.655 316.32H400.935V322.62H350.655V316.32ZM371.835 310.74H379.755V319.32H371.835V310.74ZM356.955 324.6H364.875V328.14H387.195V324.6H395.115V343.74H356.955V324.6ZM364.875 334.02V337.56H387.195V334.02H364.875ZM356.775 289.56H394.815V304.02H364.755V310.32H356.895V298.38H386.955V295.62H356.775V289.56ZM356.895 307.02H395.895V313.02H356.895V307.02ZM446.051 288.72H453.671V344.28H446.051V288.72ZM424.091 310.02H435.911V316.38H424.091V310.02ZM434.351 289.92H441.791V341.82H434.351V289.92ZM422.291 295.26H429.971C429.971 300.54 429.351 305.46 428.111 310.02C426.871 314.58 424.771 318.76 421.811 322.56C418.891 326.36 414.831 329.76 409.631 332.76L405.131 327.18C409.331 324.66 412.671 321.92 415.151 318.96C417.671 315.96 419.491 312.66 420.611 309.06C421.731 305.42 422.291 301.36 422.291 296.88V295.26ZM408.191 295.26H424.751V301.68H408.191V295.26Z" fill="#E60012"/>
</svg>
