<svg width="398" height="68" viewBox="0 0 398 68" fill="none" xmlns="http://www.w3.org/2000/svg">
<mask id="path-1-outside-1_881_4" maskUnits="userSpaceOnUse" x="-0.612427" y="-0.139648" width="398" height="68" fill="black">
<rect fill="white" x="-0.612427" y="-0.139648" width="398" height="68"/>
<path d="M4 62.8604V4.90035H31.18C35.74 4.90035 39.46 5.77035 42.34 7.51035C45.28 9.25035 47.47 11.6203 48.91 14.6204C50.35 17.6203 51.07 21.0403 51.07 24.8803C51.07 28.7803 50.23 32.2303 48.55 35.2304C46.93 38.2304 44.59 40.5704 41.53 42.2504C38.53 43.8704 34.96 44.6804 30.82 44.6804H16.15V62.8604H4ZM16.15 35.0504H28.3C31.78 35.0504 34.39 34.1504 36.13 32.3504C37.93 30.4904 38.83 28.0004 38.83 24.8803C38.83 21.5204 37.99 18.9703 36.31 17.2303C34.63 15.4304 32.11 14.5304 28.75 14.5304H16.15V35.0504ZM57.7891 62.8604V4.90035H85.5991C92.2591 4.90035 97.1491 6.67035 100.269 10.2103C103.389 13.6903 104.949 18.4003 104.949 24.3403C104.949 28.2404 103.929 31.6004 101.889 34.4204C99.9091 37.2403 97.0891 39.2803 93.4291 40.5404C94.3891 41.3204 95.1391 42.1604 95.6791 43.0604C96.2791 43.9604 96.8791 45.1604 97.4791 46.6604L104.499 62.8604H91.8991L85.0591 47.2904C84.4591 45.9704 83.7991 45.0404 83.0791 44.5004C82.3591 43.9604 81.1591 43.6904 79.4791 43.6904H69.9391V62.8604H57.7891ZM69.9391 33.6103H82.4491C85.6291 33.6103 88.1191 32.9203 89.9191 31.5403C91.7191 30.1004 92.6191 27.7004 92.6191 24.3403C92.6191 21.1003 91.8391 18.7303 90.2791 17.2303C88.7191 15.7304 86.3491 14.9804 83.1691 14.9804H69.9391V33.6103ZM138.475 63.7604C119.695 63.7604 110.305 53.8904 110.305 34.1504C110.305 23.5304 112.675 15.8503 117.415 11.1103C122.155 6.37035 129.175 4.00035 138.475 4.00035C147.775 4.00035 154.795 6.37035 159.535 11.1103C164.275 15.8503 166.645 23.5304 166.645 34.1504C166.645 53.8904 157.255 63.7604 138.475 63.7604ZM138.475 53.4104C143.935 53.4104 147.925 51.8504 150.445 48.7304C153.025 45.5504 154.315 40.6904 154.315 34.1504C154.315 26.8903 153.025 21.7903 150.445 18.8503C147.925 15.8503 143.935 14.3503 138.475 14.3503C133.015 14.3503 128.995 15.8503 126.415 18.8503C123.895 21.7903 122.635 26.8903 122.635 34.1504C122.635 40.6904 123.895 45.5504 126.415 48.7304C128.995 51.8504 133.015 53.4104 138.475 53.4104ZM175.123 62.8604V4.90035H199.423C208.123 4.90035 214.663 7.15035 219.043 11.6504C223.483 16.0903 225.703 23.5903 225.703 34.1504C225.703 44.1104 223.513 51.4004 219.133 56.0204C214.813 60.5804 208.243 62.8604 199.423 62.8604H175.123ZM187.273 53.5004H197.713C201.133 53.5004 204.013 52.9904 206.353 51.9704C208.693 50.8904 210.433 48.9704 211.573 46.2104C212.773 43.3904 213.373 39.3704 213.373 34.1504C213.373 28.9304 212.833 24.9403 211.753 22.1803C210.673 19.4203 208.993 17.5303 206.713 16.5103C204.433 15.4903 201.433 14.9804 197.713 14.9804H187.273V53.5004ZM259.656 63.7604C251.676 63.7604 245.346 61.8404 240.666 58.0004C236.046 54.1004 233.736 48.4604 233.736 41.0804V4.90035H245.886V40.1804C245.886 44.6204 247.086 47.9504 249.486 50.1704C251.886 52.3304 255.276 53.4104 259.656 53.4104C264.036 53.4104 267.396 52.3304 269.736 50.1704C272.136 47.9504 273.336 44.6204 273.336 40.1804V4.90035H285.486V41.0804C285.486 48.4604 283.176 54.1004 278.556 58.0004C273.936 61.8404 267.636 63.7604 259.656 63.7604ZM323.53 63.7604C313.81 63.7604 306.37 61.1504 301.21 55.9304C296.05 50.6504 293.47 43.4804 293.47 34.4204C293.47 24.8204 295.96 17.3504 300.94 12.0104C305.98 6.67035 313.48 4.00035 323.44 4.00035C326.92 4.00035 330.04 4.27035 332.8 4.81035C335.62 5.29035 338.26 5.98035 340.72 6.88035V17.5004C335.62 15.4003 330.16 14.3503 324.34 14.3503C317.74 14.3503 313 16.0003 310.12 19.3003C307.24 22.6003 305.8 27.6403 305.8 34.4204C305.8 47.1404 312.04 53.5004 324.52 53.5004C327.34 53.5004 330.13 53.2604 332.89 52.7804C335.65 52.2404 338.29 51.4604 340.81 50.4404V61.1504C338.35 61.9304 335.71 62.5604 332.89 63.0404C330.13 63.5204 327.01 63.7604 323.53 63.7604ZM363.454 62.8604V14.2603H345.634V4.90035H393.334V14.2603H375.604V62.8604H363.454Z"/>
</mask>
<path d="M4 62.8604H-4.52995e-06V66.8604H4V62.8604ZM4 4.90034V0.900345H-4.52995e-06V4.90034H4ZM42.34 7.51035L40.2715 10.934L40.2871 10.9434L40.3027 10.9527L42.34 7.51035ZM48.91 14.6203L52.5161 12.8894V12.8894L48.91 14.6203ZM48.55 35.2304L45.06 33.2759L45.045 33.3027L45.0304 33.3298L48.55 35.2304ZM41.53 42.2504L43.4306 45.77L43.4428 45.7634L43.455 45.7567L41.53 42.2504ZM16.15 44.6804V40.6804H12.15V44.6804H16.15ZM16.15 62.8604V66.8604H20.15V62.8604H16.15ZM16.15 35.0504H12.15V39.0504H16.15V35.0504ZM36.13 32.3503L33.2556 29.5687L33.254 29.5703L36.13 32.3503ZM36.31 17.2304L33.3858 19.9596L33.4089 19.9844L33.4324 20.0087L36.31 17.2304ZM16.15 14.5303V10.5303H12.15V14.5303H16.15ZM4 62.8604H8V4.90034H4H-4.52995e-06V62.8604H4ZM4 4.90034V8.90034H31.18V4.90034V0.900345H4V4.90034ZM31.18 4.90034V8.90034C35.2608 8.90034 38.1996 9.6822 40.2715 10.934L42.34 7.51035L44.4085 4.08669C40.7204 1.8585 36.2192 0.900345 31.18 0.900345V4.90034ZM42.34 7.51035L40.3027 10.9527C42.5813 12.3012 44.2157 14.0842 45.3039 16.3513L48.91 14.6203L52.5161 12.8894C50.7243 9.15652 47.9787 6.19948 44.3773 4.06804L42.34 7.51035ZM48.91 14.6203L45.3039 16.3513C46.4475 18.7338 47.07 21.5474 47.07 24.8803H51.07H55.07C55.07 20.5333 54.2525 16.5069 52.5161 12.8894L48.91 14.6203ZM51.07 24.8803H47.07C47.07 28.1893 46.3628 30.9495 45.06 33.2759L48.55 35.2304L52.04 37.1848C54.0972 33.5112 55.07 29.3714 55.07 24.8803H51.07ZM48.55 35.2304L45.0304 33.3298C43.7854 35.6353 42.007 37.4253 39.605 38.744L41.53 42.2504L43.455 45.7567C47.173 43.7154 50.0746 40.8254 52.0696 37.1309L48.55 35.2304ZM41.53 42.2504L39.6294 38.7307C37.3259 39.9746 34.4374 40.6804 30.82 40.6804V44.6804V48.6804C35.4826 48.6804 39.7341 47.7661 43.4306 45.77L41.53 42.2504ZM30.82 44.6804V40.6804H16.15V44.6804V48.6804H30.82V44.6804ZM16.15 44.6804H12.15V62.8604H16.15H20.15V44.6804H16.15ZM16.15 62.8604V58.8604H4V62.8604V66.8604H16.15V62.8604ZM16.15 35.0504V39.0504H28.3V35.0504V31.0504H16.15V35.0504ZM28.3 35.0504V39.0504C32.4317 39.0504 36.2569 37.9743 39.006 35.1304L36.13 32.3503L33.254 29.5703C32.5231 30.3264 31.1283 31.0504 28.3 31.0504V35.0504ZM36.13 32.3503L39.0044 35.132C41.67 32.3776 42.83 28.8118 42.83 24.8803H38.83H34.83C34.83 27.1889 34.19 28.6031 33.2556 29.5687L36.13 32.3503ZM38.83 24.8803H42.83C42.83 20.8922 41.8286 17.1873 39.1876 14.452L36.31 17.2304L33.4324 20.0087C34.1514 20.7534 34.83 22.1485 34.83 24.8803H38.83ZM36.31 17.2304L39.2342 14.5011C36.5529 11.6282 32.8 10.5303 28.75 10.5303V14.5303V18.5303C31.42 18.5303 32.7071 19.2325 33.3858 19.9596L36.31 17.2304ZM28.75 14.5303V10.5303H16.15V14.5303V18.5303H28.75V14.5303ZM16.15 14.5303H12.15V35.0504H16.15H20.15V14.5303H16.15ZM57.7891 62.8604H53.7891V66.8604H57.7891V62.8604ZM57.7891 4.90034V0.900345H53.7891V4.90034H57.7891ZM100.269 10.2104L97.2682 12.8552L97.2794 12.8679L97.2908 12.8805L100.269 10.2104ZM101.889 34.4204L98.6482 32.0759L98.6316 32.0987L98.6154 32.1218L101.889 34.4204ZM93.4291 40.5404L92.127 36.7582L85.3165 39.1028L90.9067 43.6448L93.4291 40.5404ZM95.6791 43.0603L92.2491 45.1183L92.2981 45.2L92.3509 45.2792L95.6791 43.0603ZM97.4791 46.6604L93.7652 48.1459L93.7863 48.1987L93.8088 48.2508L97.4791 46.6604ZM104.499 62.8604V66.8604H110.592L108.169 61.2699L104.499 62.8604ZM91.8991 62.8604L88.2369 64.4692L89.2873 66.8604H91.8991V62.8604ZM85.0591 47.2904L88.7213 45.6815L88.711 45.6583L88.7005 45.6351L85.0591 47.2904ZM83.0791 44.5004L85.4791 41.3004L85.4791 41.3003L83.0791 44.5004ZM69.9391 43.6903V39.6903H65.9391V43.6903H69.9391ZM69.9391 62.8604V66.8604H73.9391V62.8604H69.9391ZM69.9391 33.6103H65.9391V37.6104H69.9391V33.6103ZM89.9191 31.5403L92.3528 34.7148L92.3856 34.6896L92.4178 34.6638L89.9191 31.5403ZM90.2791 17.2304L93.0515 14.347H93.0515L90.2791 17.2304ZM69.9391 14.9804V10.9804H65.9391V14.9804H69.9391ZM57.7891 62.8604H61.7891V4.90034H57.7891H53.7891V62.8604H57.7891ZM57.7891 4.90034V8.90034H85.5991V4.90034V0.900345H57.7891V4.90034ZM85.5991 4.90034V8.90034C91.5985 8.90034 95.1795 10.4853 97.2682 12.8552L100.269 10.2104L103.27 7.56554C99.1186 2.85544 92.9197 0.900345 85.5991 0.900345V4.90034ZM100.269 10.2104L97.2908 12.8805C99.5894 15.4444 100.949 19.11 100.949 24.3403H104.949H108.949C108.949 17.6907 107.189 11.9363 103.247 7.54017L100.269 10.2104ZM104.949 24.3403H100.949C100.949 27.5045 100.136 30.0192 98.6482 32.0759L101.889 34.4204L105.13 36.7648C107.722 33.1815 108.949 28.9762 108.949 24.3403H104.949ZM101.889 34.4204L98.6154 32.1218C97.1788 34.168 95.0926 35.7372 92.127 36.7582L93.4291 40.5404L94.7311 44.3225C99.0855 42.8235 102.639 40.3127 105.163 36.7189L101.889 34.4204ZM93.4291 40.5404L90.9067 43.6448C91.5686 44.1826 91.9869 44.6814 92.2491 45.1183L95.6791 43.0603L99.109 41.0024C98.2912 39.6393 97.2095 38.4581 95.9514 37.4359L93.4291 40.5404ZM95.6791 43.0603L92.3509 45.2792C92.742 45.8659 93.2229 46.7903 93.7652 48.1459L97.4791 46.6604L101.193 45.1748C100.535 43.5304 99.8161 42.0548 99.0073 40.8415L95.6791 43.0603ZM97.4791 46.6604L93.8088 48.2508L100.829 64.4508L104.499 62.8604L108.169 61.2699L101.149 45.0699L97.4791 46.6604ZM104.499 62.8604V58.8604H91.8991V62.8604V66.8604H104.499V62.8604ZM91.8991 62.8604L95.5613 61.2515L88.7213 45.6815L85.0591 47.2904L81.3969 48.8992L88.2369 64.4692L91.8991 62.8604ZM85.0591 47.2904L88.7005 45.6351C87.9748 44.0386 86.9682 42.4172 85.4791 41.3004L83.0791 44.5004L80.6791 47.7003C80.6328 47.6656 80.7009 47.7049 80.852 47.9178C81.0016 48.1286 81.196 48.458 81.4176 48.9456L85.0591 47.2904ZM83.0791 44.5004L85.4791 41.3003C83.6837 39.9538 81.3759 39.6903 79.4791 39.6903V43.6903V47.6903C80.123 47.6903 80.5322 47.7438 80.761 47.7953C81 47.8491 80.9046 47.8695 80.6791 47.7004L83.0791 44.5004ZM79.4791 43.6903V39.6903H69.9391V43.6903V47.6903H79.4791V43.6903ZM69.9391 43.6903H65.9391V62.8604H69.9391H73.9391V43.6903H69.9391ZM69.9391 62.8604V58.8604H57.7891V62.8604V66.8604H69.9391V62.8604ZM69.9391 33.6103V37.6104H82.4491V33.6103V29.6104H69.9391V33.6103ZM82.4491 33.6103V37.6104C86.1631 37.6104 89.6223 36.8082 92.3528 34.7148L89.9191 31.5403L87.4853 28.3659C86.6158 29.0325 85.095 29.6104 82.4491 29.6104V33.6103ZM89.9191 31.5403L92.4178 34.6638C95.5403 32.1658 96.6191 28.339 96.6191 24.3403H92.6191H88.6191C88.6191 27.0617 87.8978 28.0349 87.4203 28.4169L89.9191 31.5403ZM92.6191 24.3403H96.6191C96.6191 20.5505 95.7136 16.9068 93.0515 14.347L90.2791 17.2304L87.5066 20.1137C87.9645 20.5539 88.6191 21.6502 88.6191 24.3403H92.6191ZM90.2791 17.2304L93.0515 14.347C90.46 11.8552 86.9022 10.9804 83.1691 10.9804V14.9804V18.9804C85.7959 18.9804 86.9781 19.6055 87.5066 20.1137L90.2791 17.2304ZM83.1691 14.9804V10.9804H69.9391V14.9804V18.9804H83.1691V14.9804ZM69.9391 14.9804H65.9391V33.6103H69.9391H73.9391V14.9804H69.9391ZM117.415 11.1103L114.587 8.28192V8.28192L117.415 11.1103ZM159.535 11.1103L162.364 8.28192V8.28192L159.535 11.1103ZM150.445 48.7304L147.339 46.2102L147.334 46.217L150.445 48.7304ZM150.445 18.8503L147.383 21.4231L147.41 21.4562L147.439 21.4887L150.445 18.8503ZM126.415 18.8503L123.383 16.2422L123.378 16.2472L126.415 18.8503ZM126.415 48.7304L123.28 51.2147L123.306 51.2473L123.333 51.2794L126.415 48.7304ZM138.475 63.7604V59.7604C129.754 59.7604 123.935 57.4786 120.246 53.6008C116.521 49.6857 114.305 43.4522 114.305 34.1504H110.305H106.305C106.305 44.5885 108.785 53.16 114.45 59.1149C120.151 65.1071 128.417 67.7604 138.475 67.7604V63.7604ZM110.305 34.1504H114.305C114.305 23.9922 116.592 17.591 120.244 13.9388L117.415 11.1103L114.587 8.28192C108.759 14.1097 106.305 23.0685 106.305 34.1504H110.305ZM117.415 11.1103L120.244 13.9388C123.982 10.2005 129.818 8.00035 138.475 8.00035V4.00035V0.000347137C128.533 0.000347137 120.329 2.54023 114.587 8.28192L117.415 11.1103ZM138.475 4.00035V8.00035C147.133 8.00035 152.969 10.2005 156.707 13.9388L159.535 11.1103L162.364 8.28192C156.622 2.54023 148.418 0.000347137 138.475 0.000347137V4.00035ZM159.535 11.1103L156.707 13.9388C160.359 17.591 162.645 23.9922 162.645 34.1504H166.645H170.645C170.645 23.0685 168.192 14.1097 162.364 8.28192L159.535 11.1103ZM166.645 34.1504H162.645C162.645 43.4522 160.43 49.6857 156.705 53.6008C153.016 57.4786 147.197 59.7604 138.475 59.7604V63.7604V67.7604C148.534 67.7604 156.8 65.1071 162.501 59.1149C168.166 53.16 170.645 44.5885 170.645 34.1504H166.645ZM138.475 53.4104V57.4104C144.68 57.4104 150.028 55.6136 153.557 51.2437L150.445 48.7304L147.334 46.217C145.823 48.0871 143.191 49.4104 138.475 49.4104V53.4104ZM150.445 48.7304L153.552 51.2505C156.966 47.0417 158.315 41.0954 158.315 34.1504H154.315H150.315C150.315 40.2853 149.085 44.059 147.339 46.2102L150.445 48.7304ZM154.315 34.1504H158.315C158.315 26.6541 157.031 20.2904 153.452 16.212L150.445 18.8503L147.439 21.4887C149.02 23.2903 150.315 27.1266 150.315 34.1504H154.315ZM150.445 18.8503L153.508 16.2776C149.963 12.0569 144.631 10.3503 138.475 10.3503V14.3503V18.3503C143.24 18.3503 145.888 19.6438 147.383 21.4231L150.445 18.8503ZM138.475 14.3503V10.3503C132.313 10.3503 126.98 12.0594 123.383 16.2422L126.415 18.8503L129.448 21.4585C131.011 19.6413 133.718 18.3503 138.475 18.3503V14.3503ZM126.415 18.8503L123.378 16.2472C119.886 20.3219 118.635 26.6682 118.635 34.1504H122.635H126.635C126.635 27.1125 127.905 23.2588 129.452 21.4535L126.415 18.8503ZM122.635 34.1504H118.635C118.635 41.0795 119.948 47.01 123.28 51.2147L126.415 48.7304L129.55 46.246C127.842 44.0907 126.635 40.3012 126.635 34.1504H122.635ZM126.415 48.7304L123.333 51.2794C126.915 55.6115 132.264 57.4104 138.475 57.4104V53.4104V49.4104C133.767 49.4104 131.076 48.0892 129.498 46.1813L126.415 48.7304ZM175.123 62.8604H171.123V66.8604H175.123V62.8604ZM175.123 4.90034V0.900345H171.123V4.90034H175.123ZM219.043 11.6504L216.177 14.4403L216.196 14.4597L216.215 14.4788L219.043 11.6504ZM219.133 56.0204L216.23 53.2683L216.229 53.2694L219.133 56.0204ZM187.273 53.5004H183.273V57.5004H187.273V53.5004ZM206.353 51.9704L207.951 55.6371L207.991 55.6201L208.029 55.6022L206.353 51.9704ZM211.573 46.2104L207.892 44.6441L207.884 44.6637L207.876 44.6833L211.573 46.2104ZM206.713 16.5103L208.347 12.8591H208.346L206.713 16.5103ZM187.273 14.9804V10.9804H183.273V14.9804H187.273ZM175.123 62.8604H179.123V4.90034H175.123H171.123V62.8604H175.123ZM175.123 4.90034V8.90034H199.423V4.90034V0.900345H175.123V4.90034ZM199.423 4.90034V8.90034C207.469 8.90034 212.802 10.9735 216.177 14.4403L219.043 11.6504L221.909 8.8604C216.524 3.32723 208.777 0.900345 199.423 0.900345V4.90034ZM219.043 11.6504L216.215 14.4788C219.531 17.7953 221.703 23.97 221.703 34.1504H225.703H229.703C229.703 23.2107 227.435 14.3854 221.871 8.82192L219.043 11.6504ZM225.703 34.1504H221.703C221.703 43.6435 219.598 49.7157 216.23 53.2683L219.133 56.0204L222.036 58.7724C227.428 53.085 229.703 44.5772 229.703 34.1504H225.703ZM219.133 56.0204L216.229 53.2694C212.928 56.7536 207.599 58.8604 199.423 58.8604V62.8604V66.8604C208.888 66.8604 216.698 64.4071 222.037 58.7713L219.133 56.0204ZM199.423 62.8604V58.8604H175.123V62.8604V66.8604H199.423V62.8604ZM187.273 53.5004V57.5004H197.713V53.5004V49.5004H187.273V53.5004ZM197.713 53.5004V57.5004C201.506 57.5004 204.967 56.938 207.951 55.6371L206.353 51.9704L204.755 48.3036C203.059 49.0427 200.76 49.5004 197.713 49.5004V53.5004ZM206.353 51.9704L208.029 55.6022C211.428 54.0335 213.811 51.2704 215.27 47.7374L211.573 46.2104L207.876 44.6833C207.055 46.6703 205.958 47.7472 204.677 48.3385L206.353 51.9704ZM211.573 46.2104L215.254 47.7766C216.763 44.2305 217.373 39.5828 217.373 34.1504H213.373H209.373C209.373 39.1579 208.783 42.5502 207.892 44.6441L211.573 46.2104ZM213.373 34.1504H217.373C217.373 28.7524 216.828 24.1736 215.478 20.7228L211.753 22.1804L208.028 23.6379C208.838 25.7071 209.373 29.1083 209.373 34.1504H213.373ZM211.753 22.1804L215.478 20.7228C214.092 17.1808 211.76 14.3863 208.347 12.8591L206.713 16.5103L205.08 20.1616C206.226 20.6744 207.254 21.6599 208.028 23.6379L211.753 22.1804ZM206.713 16.5103L208.346 12.8591C205.364 11.525 201.745 10.9804 197.713 10.9804V14.9804V18.9804C201.121 18.9804 203.502 19.4557 205.08 20.1616L206.713 16.5103ZM197.713 14.9804V10.9804H187.273V14.9804V18.9804H197.713V14.9804ZM187.273 14.9804H183.273V53.5004H187.273H191.273V14.9804H187.273ZM240.666 58.0004L238.085 61.0569L238.107 61.0749L238.128 61.0926L240.666 58.0004ZM233.736 4.90034V0.900345H229.736V4.90034H233.736ZM245.886 4.90034H249.886V0.900345H245.886V4.90034ZM249.486 50.1703L246.769 53.1068L246.789 53.1253L246.81 53.1435L249.486 50.1703ZM269.736 50.1703L272.449 53.1096L272.452 53.1068L269.736 50.1703ZM273.336 4.90034V0.900345H269.336V4.90034H273.336ZM285.486 4.90034H289.486V0.900345H285.486V4.90034ZM278.556 58.0004L281.112 61.0765L281.124 61.0668L281.136 61.0569L278.556 58.0004ZM259.656 63.7604V59.7604C252.304 59.7604 246.967 57.997 243.203 54.9081L240.666 58.0004L238.128 61.0926C243.724 65.6837 251.047 67.7604 259.656 67.7604V63.7604ZM240.666 58.0004L243.246 54.9438C239.723 51.97 237.736 47.5667 237.736 41.0804H233.736H229.736C229.736 49.354 232.368 56.2307 238.085 61.0569L240.666 58.0004ZM233.736 41.0804H237.736V4.90034H233.736H229.736V41.0804H233.736ZM233.736 4.90034V8.90034H245.886V4.90034V0.900345H233.736V4.90034ZM245.886 4.90034H241.886V40.1804H245.886H249.886V4.90034H245.886ZM245.886 40.1804H241.886C241.886 45.3204 243.289 49.8877 246.769 53.1068L249.486 50.1703L252.202 47.234C250.882 46.013 249.886 43.9203 249.886 40.1804H245.886ZM249.486 50.1703L246.81 53.1435C250.172 56.1693 254.643 57.4104 259.656 57.4104V53.4104V49.4104C255.908 49.4104 253.599 48.4914 252.161 47.1972L249.486 50.1703ZM259.656 53.4104V57.4104C264.66 57.4104 269.131 56.1723 272.449 53.1096L269.736 50.1703L267.022 47.2311C265.66 48.4884 263.411 49.4104 259.656 49.4104V53.4104ZM269.736 50.1703L272.452 53.1068C275.932 49.8877 277.336 45.3204 277.336 40.1804H273.336H269.336C269.336 43.9203 268.339 46.013 267.019 47.234L269.736 50.1703ZM273.336 40.1804H277.336V4.90034H273.336H269.336V40.1804H273.336ZM273.336 4.90034V8.90034H285.486V4.90034V0.900345H273.336V4.90034ZM285.486 4.90034H281.486V41.0804H285.486H289.486V4.90034H285.486ZM285.486 41.0804H281.486C281.486 47.5667 279.498 51.97 275.975 54.9438L278.556 58.0004L281.136 61.0569C286.853 56.2307 289.486 49.354 289.486 41.0804H285.486ZM278.556 58.0004L275.999 54.9242C272.303 57.9957 267.01 59.7604 259.656 59.7604V63.7604V67.7604C268.261 67.7604 275.568 65.685 281.112 61.0765L278.556 58.0004ZM301.21 55.9304L298.349 58.7261L298.357 58.7343L298.365 58.7424L301.21 55.9304ZM300.94 12.0104L298.031 9.26482L298.022 9.27351L298.014 9.28225L300.94 12.0104ZM332.8 4.81035L332.031 8.73592L332.08 8.74537L332.128 8.75363L332.8 4.81035ZM340.72 6.88035H344.72V4.08447L342.094 3.12386L340.72 6.88035ZM340.72 17.5004L339.197 21.1991L344.72 23.4732V17.5004H340.72ZM310.12 19.3004L313.133 21.9305V21.9305L310.12 19.3004ZM332.89 52.7803L333.575 56.7212L333.616 56.714L333.658 56.7059L332.89 52.7803ZM340.81 50.4403H344.81V44.5061L339.309 46.7326L340.81 50.4403ZM340.81 61.1504L342.018 64.9633L344.81 64.0783V61.1504H340.81ZM332.89 63.0404L332.218 59.0971L332.211 59.0983L332.204 59.0995L332.89 63.0404ZM323.53 63.7604V59.7604C314.519 59.7604 308.243 57.3557 304.054 53.1183L301.21 55.9304L298.365 58.7424C304.496 64.945 313.1 67.7604 323.53 67.7604V63.7604ZM301.21 55.9304L304.07 53.1346C299.799 48.7643 297.47 42.6868 297.47 34.4204H293.47H289.47C289.47 44.2739 292.3 52.5364 298.349 58.7261L301.21 55.9304ZM293.47 34.4204H297.47C297.47 25.5055 299.77 19.1289 303.865 14.7385L300.94 12.0104L298.014 9.28225C292.149 15.5718 289.47 24.1352 289.47 34.4204H293.47ZM300.94 12.0104L303.848 14.7559C307.893 10.4707 314.174 8.00035 323.44 8.00035V4.00035V0.000347137C312.785 0.000347137 304.066 2.86998 298.031 9.26482L300.94 12.0104ZM323.44 4.00035V8.00035C326.72 8.00035 329.576 8.25544 332.031 8.73592L332.8 4.81035L333.568 0.884777C330.503 0.285255 327.119 0.000347137 323.44 0.000347137V4.00035ZM332.8 4.81035L332.128 8.75363C334.73 9.19654 337.133 9.82756 339.345 10.6368L340.72 6.88035L342.094 3.12386C339.386 2.13313 336.509 1.38415 333.471 0.867062L332.8 4.81035ZM340.72 6.88035H336.72V17.5004H340.72H344.72V6.88035H340.72ZM340.72 17.5004L342.243 13.8016C336.633 11.4919 330.653 10.3503 324.34 10.3503V14.3503V18.3503C329.666 18.3503 334.606 19.3088 339.197 21.1991L340.72 17.5004ZM324.34 14.3503V10.3503C317.174 10.3503 311.062 12.1366 307.106 16.6702L310.12 19.3004L313.133 21.9305C314.937 19.8641 318.305 18.3503 324.34 18.3503V14.3503ZM310.12 19.3004L307.106 16.6702C303.321 21.0068 301.8 27.1803 301.8 34.4204H305.8H309.8C309.8 28.1004 311.158 24.1939 313.133 21.9305L310.12 19.3004ZM305.8 34.4204H301.8C301.8 41.378 303.506 47.3346 307.624 51.5317C311.756 55.7429 317.643 57.5004 324.52 57.5004V53.5004V49.5004C318.916 49.5004 315.443 48.0778 313.335 45.929C311.213 43.7661 309.8 40.1827 309.8 34.4204H305.8ZM324.52 53.5004V57.5004C327.568 57.5004 330.587 57.2408 333.575 56.7212L332.89 52.7803L332.204 48.8395C329.672 49.2799 327.111 49.5004 324.52 49.5004V53.5004ZM332.89 52.7803L333.658 56.7059C336.66 56.1186 339.546 55.2672 342.31 54.1481L340.81 50.4403L339.309 46.7326C337.034 47.6535 334.639 48.3621 332.121 48.8548L332.89 52.7803ZM340.81 50.4403H336.81V61.1504H340.81H344.81V50.4403H340.81ZM340.81 61.1504L339.601 57.3374C337.334 58.056 334.876 58.6448 332.218 59.0971L332.89 63.0404L333.561 66.9836C336.544 66.4759 339.365 65.8047 342.018 64.9633L340.81 61.1504ZM332.89 63.0404L332.204 59.0995C329.717 59.5321 326.832 59.7604 323.53 59.7604V63.7604V67.7604C327.187 67.7604 330.542 67.5087 333.575 66.9812L332.89 63.0404ZM363.454 62.8604H359.454V66.8604H363.454V62.8604ZM363.454 14.2603H367.454V10.2603H363.454V14.2603ZM345.634 14.2603H341.634V18.2603H345.634V14.2603ZM345.634 4.90034V0.900345H341.634V4.90034H345.634ZM393.334 4.90034H397.334V0.900345H393.334V4.90034ZM393.334 14.2603V18.2603H397.334V14.2603H393.334ZM375.604 14.2603V10.2603H371.604V14.2603H375.604ZM375.604 62.8604V66.8604H379.604V62.8604H375.604ZM363.454 62.8604H367.454V14.2603H363.454H359.454V62.8604H363.454ZM363.454 14.2603V10.2603H345.634V14.2603V18.2603H363.454V14.2603ZM345.634 14.2603H349.634V4.90034H345.634H341.634V14.2603H345.634ZM345.634 4.90034V8.90034H393.334V4.90034V0.900345H345.634V4.90034ZM393.334 4.90034H389.334V14.2603H393.334H397.334V4.90034H393.334ZM393.334 14.2603V10.2603H375.604V14.2603V18.2603H393.334V14.2603ZM375.604 14.2603H371.604V62.8604H375.604H379.604V14.2603H375.604ZM375.604 62.8604V58.8604H363.454V62.8604V66.8604H375.604V62.8604Z" fill="white" mask="url(#path-1-outside-1_881_4)"/>
</svg>
