<svg width="264" height="44" viewBox="0 0 264 44" fill="none" xmlns="http://www.w3.org/2000/svg">
<mask id="path-1-outside-1_881_5" maskUnits="userSpaceOnUse" x="-0.908325" y="-0.759766" width="265" height="45" fill="black">
<rect fill="white" x="-0.908325" y="-0.759766" width="265" height="45"/>
<path d="M1.99996 41.2402V2.60023H20.12C23.16 2.60023 25.64 3.18023 27.56 4.34023C29.52 5.50023 30.98 7.08023 31.94 9.08023C32.9 11.0802 33.38 13.3602 33.38 15.9202C33.38 18.5202 32.82 20.8202 31.7 22.8202C30.62 24.8202 29.06 26.3802 27.02 27.5002C25.02 28.5802 22.64 29.1202 19.88 29.1202H10.1V41.2402H1.99996ZM10.1 22.7002H18.2C20.52 22.7002 22.26 22.1002 23.42 20.9002C24.62 19.6602 25.22 18.0002 25.22 15.9202C25.22 13.6802 24.66 11.9802 23.54 10.8202C22.42 9.62023 20.74 9.02023 18.5 9.02023H10.1V22.7002ZM37.8593 41.2402V2.60023H56.3993C60.8393 2.60023 64.0993 3.78023 66.1793 6.14023C68.2593 8.46023 69.2993 11.6002 69.2993 15.5602C69.2993 18.1602 68.6193 20.4002 67.2593 22.2802C65.9393 24.1602 64.0593 25.5202 61.6193 26.3602C62.2593 26.8802 62.7593 27.4402 63.1193 28.0402C63.5193 28.6402 63.9193 29.4402 64.3193 30.4402L68.9993 41.2402H60.5993L56.0393 30.8602C55.6393 29.9802 55.1993 29.3602 54.7193 29.0002C54.2393 28.6402 53.4393 28.4602 52.3193 28.4602H45.9593V41.2402H37.8593ZM45.9593 21.7402H54.2993C56.4193 21.7402 58.0793 21.2802 59.2793 20.3602C60.4793 19.4002 61.0793 17.8002 61.0793 15.5602C61.0793 13.4002 60.5593 11.8202 59.5193 10.8202C58.4793 9.82023 56.8993 9.32023 54.7793 9.32023H45.9593V21.7402ZM91.6503 41.8402C79.1303 41.8402 72.8703 35.2602 72.8703 22.1002C72.8703 15.0202 74.4503 9.90023 77.6103 6.74023C80.7703 3.58023 85.4503 2.00023 91.6503 2.00023C97.8503 2.00023 102.53 3.58023 105.69 6.74023C108.85 9.90023 110.43 15.0202 110.43 22.1002C110.43 35.2602 104.17 41.8402 91.6503 41.8402ZM91.6503 34.9402C95.2903 34.9402 97.9503 33.9002 99.6303 31.8202C101.35 29.7002 102.21 26.4602 102.21 22.1002C102.21 17.2602 101.35 13.8602 99.6303 11.9002C97.9503 9.90023 95.2903 8.90023 91.6503 8.90023C88.0103 8.90023 85.3303 9.90023 83.6103 11.9002C81.9303 13.8602 81.0903 17.2602 81.0903 22.1002C81.0903 26.4602 81.9303 29.7002 83.6103 31.8202C85.3303 33.9002 88.0103 34.9402 91.6503 34.9402ZM116.082 41.2402V2.60023H132.282C138.082 2.60023 142.442 4.10023 145.362 7.10023C148.322 10.0602 149.802 15.0602 149.802 22.1002C149.802 28.7402 148.342 33.6002 145.422 36.6802C142.542 39.7202 138.162 41.2402 132.282 41.2402H116.082ZM124.182 35.0002H131.142C133.422 35.0002 135.342 34.6602 136.902 33.9802C138.462 33.2602 139.622 31.9802 140.382 30.1402C141.182 28.2602 141.582 25.5802 141.582 22.1002C141.582 18.6202 141.222 15.9602 140.502 14.1202C139.782 12.2802 138.662 11.0202 137.142 10.3402C135.622 9.66023 133.622 9.32023 131.142 9.32023H124.182V35.0002ZM172.437 41.8402C167.117 41.8402 162.897 40.5602 159.777 38.0002C156.697 35.4002 155.157 31.6402 155.157 26.7202V2.60023H163.257V26.1202C163.257 29.0802 164.057 31.3002 165.657 32.7802C167.257 34.2202 169.517 34.9402 172.437 34.9402C175.357 34.9402 177.597 34.2202 179.157 32.7802C180.757 31.3002 181.557 29.0802 181.557 26.1202V2.60023H189.657V26.7202C189.657 31.6402 188.117 35.4002 185.037 38.0002C181.957 40.5602 177.757 41.8402 172.437 41.8402ZM215.02 41.8402C208.54 41.8402 203.58 40.1002 200.14 36.6202C196.7 33.1002 194.98 28.3202 194.98 22.2802C194.98 15.8802 196.64 10.9002 199.96 7.34023C203.32 3.78023 208.32 2.00023 214.96 2.00023C217.28 2.00023 219.36 2.18023 221.2 2.54023C223.08 2.86023 224.84 3.32023 226.48 3.92023V11.0002C223.08 9.60023 219.44 8.90023 215.56 8.90023C211.16 8.90023 208 10.0002 206.08 12.2002C204.16 14.4002 203.2 17.7602 203.2 22.2802C203.2 30.7602 207.36 35.0002 215.68 35.0002C217.56 35.0002 219.42 34.8402 221.26 34.5202C223.1 34.1602 224.86 33.6402 226.54 32.9602V40.1002C224.9 40.6202 223.14 41.0402 221.26 41.3602C219.42 41.6802 217.34 41.8402 215.02 41.8402ZM241.636 41.2402V8.84023H229.756V2.60023H261.556V8.84023H249.736V41.2402H241.636Z"/>
</mask>
<path d="M1.99996 41.2402H-4.37498e-05V43.2402H1.99996V41.2402ZM1.99996 2.60023V0.600231H-4.37498e-05V2.60023H1.99996ZM27.56 4.34023L26.5257 6.05206L26.5335 6.05676L26.5413 6.06139L27.56 4.34023ZM31.94 9.08023L33.743 8.21477V8.21477L31.94 9.08023ZM31.7 22.8202L29.9549 21.843L29.9474 21.8564L29.9401 21.8699L31.7 22.8202ZM27.02 27.5002L27.9703 29.2601L27.9825 29.2534L27.02 27.5002ZM10.1 29.1202V27.1202H8.09996V29.1202H10.1ZM10.1 41.2402V43.2402H12.1V41.2402H10.1ZM10.1 22.7002H8.09996V24.7002H10.1V22.7002ZM23.42 20.9002L21.9828 19.5094L21.982 19.5102L23.42 20.9002ZM23.54 10.8202L22.0778 12.1849L22.0894 12.1972L22.1012 12.2094L23.54 10.8202ZM10.1 9.02023V7.02023H8.09996V9.02023H10.1ZM1.99996 41.2402H3.99996V2.60023H1.99996H-4.37498e-05V41.2402H1.99996ZM1.99996 2.60023V4.60023H20.12V2.60023V0.600231H1.99996V2.60023ZM20.12 2.60023V4.60023C22.9204 4.60023 25.0097 5.13616 26.5257 6.05206L27.56 4.34023L28.5942 2.6284C26.2702 1.22431 23.3995 0.600231 20.12 0.600231V2.60023ZM27.56 4.34023L26.5413 6.06139C28.1706 7.02567 29.3528 8.31215 30.1369 9.9457L31.94 9.08023L33.743 8.21477C32.6071 5.84832 30.8693 3.9748 28.5786 2.61908L27.56 4.34023ZM31.94 9.08023L30.1369 9.9457C30.9487 11.6369 31.38 13.6138 31.38 15.9202H33.38H35.38C35.38 13.1067 34.8512 10.5235 33.743 8.21477L31.94 9.08023ZM33.38 15.9202H31.38C31.38 18.2247 30.8863 20.1798 29.9549 21.843L31.7 22.8202L33.445 23.7974C34.7536 21.4607 35.38 18.8158 35.38 15.9202H33.38ZM31.7 22.8202L29.9401 21.8699C29.0477 23.5227 27.7685 24.8077 26.0574 25.7471L27.02 27.5002L27.9825 29.2534C30.3515 27.9528 32.1923 26.1178 33.4598 23.7705L31.7 22.8202ZM27.02 27.5002L26.0697 25.7404C24.4179 26.6324 22.3787 27.1202 19.88 27.1202V29.1202V31.1202C22.9012 31.1202 25.622 30.5281 27.9703 29.26L27.02 27.5002ZM19.88 29.1202V27.1202H10.1V29.1202V31.1202H19.88V29.1202ZM10.1 29.1202H8.09996V41.2402H10.1H12.1V29.1202H10.1ZM10.1 41.2402V39.2402H1.99996V41.2402V43.2402H10.1V41.2402ZM10.1 22.7002V24.7002H18.2V22.7002V20.7002H10.1V22.7002ZM18.2 22.7002V24.7002C20.8458 24.7002 23.1934 24.0122 24.8579 22.2903L23.42 20.9002L21.982 19.5102C21.3265 20.1883 20.1941 20.7002 18.2 20.7002V22.7002ZM23.42 20.9002L24.8572 22.2911C26.49 20.6038 27.22 18.4059 27.22 15.9202H25.22H23.22C23.22 17.5945 22.7499 18.7166 21.9828 19.5094L23.42 20.9002ZM25.22 15.9202H27.22C27.22 13.3662 26.5793 11.0887 24.9788 9.43104L23.54 10.8202L22.1012 12.2094C22.7407 12.8718 23.22 13.9943 23.22 15.9202H25.22ZM23.54 10.8202L25.0021 9.4556C23.3814 7.71915 21.0849 7.02023 18.5 7.02023V9.02023V11.0202C20.395 11.0202 21.4585 11.5213 22.0778 12.1849L23.54 10.8202ZM18.5 9.02023V7.02023H10.1V9.02023V11.0202H18.5V9.02023ZM10.1 9.02023H8.09996V22.7002H10.1H12.1V9.02023H10.1ZM37.8593 41.2402H35.8593V43.2402H37.8593V41.2402ZM37.8593 2.60023V0.600231H35.8593V2.60023H37.8593ZM66.1793 6.14023L64.6789 7.46264L64.6845 7.469L64.6902 7.47532L66.1793 6.14023ZM67.2593 22.2802L65.6389 21.108L65.6306 21.1194L65.6225 21.131L67.2593 22.2802ZM61.6193 26.3602L60.9683 24.4692L57.5631 25.6415L60.3581 27.9125L61.6193 26.3602ZM63.1193 28.0402L61.4043 29.0692L61.4288 29.11L61.4552 29.1496L63.1193 28.0402ZM64.3193 30.4402L62.4624 31.183L62.4729 31.2094L62.4842 31.2354L64.3193 30.4402ZM68.9993 41.2402V43.2402H72.0457L70.8344 40.445L68.9993 41.2402ZM60.5993 41.2402L58.7682 42.0446L59.2935 43.2402H60.5993V41.2402ZM56.0393 30.8602L57.8704 30.0558L57.8653 30.0442L57.8601 30.0326L56.0393 30.8602ZM54.7193 29.0002L55.9193 27.4002L55.9193 27.4002L54.7193 29.0002ZM45.9593 28.4602V26.4602H43.9593V28.4602H45.9593ZM45.9593 41.2402V43.2402H47.9593V41.2402H45.9593ZM45.9593 21.7402H43.9593V23.7402H45.9593V21.7402ZM59.2793 20.3602L60.4962 21.9474L60.5126 21.9349L60.5287 21.922L59.2793 20.3602ZM59.5193 10.8202L60.9055 9.37857V9.37857L59.5193 10.8202ZM45.9593 9.32023V7.32023H43.9593V9.32023H45.9593ZM37.8593 41.2402H39.8593V2.60023H37.8593H35.8593V41.2402H37.8593ZM37.8593 2.60023V4.60023H56.3993V2.60023V0.600231H37.8593V2.60023ZM56.3993 2.60023V4.60023C60.509 4.60023 63.1146 5.68769 64.6789 7.46264L66.1793 6.14023L67.6797 4.81783C65.0841 1.87278 61.1696 0.600231 56.3993 0.600231V2.60023ZM66.1793 6.14023L64.6902 7.47532C66.3595 9.33726 67.2993 11.955 67.2993 15.5602H69.2993H71.2993C71.2993 11.2454 70.1591 7.5832 67.6685 4.80514L66.1793 6.14023ZM69.2993 15.5602H67.2993C67.2993 17.7923 66.7228 19.6097 65.6389 21.108L67.2593 22.2802L68.8798 23.4525C70.5159 21.1908 71.2993 18.5281 71.2993 15.5602H69.2993ZM67.2593 22.2802L65.6225 21.131C64.5742 22.624 63.0611 23.7487 60.9683 24.4692L61.6193 26.3602L62.2704 28.2513C65.0575 27.2918 67.3045 25.6964 68.8962 23.4295L67.2593 22.2802ZM61.6193 26.3602L60.3581 27.9125C60.8491 28.3114 61.1833 28.7008 61.4043 29.0692L63.1193 28.0402L64.8343 27.0112C64.3354 26.1797 63.6696 25.4491 62.8805 24.808L61.6193 26.3602ZM63.1193 28.0402L61.4552 29.1496C61.7508 29.593 62.0913 30.2552 62.4624 31.183L64.3193 30.4402L66.1763 29.6975C65.7474 28.6253 65.2878 27.6875 64.7834 26.9308L63.1193 28.0402ZM64.3193 30.4402L62.4842 31.2354L67.1642 42.0354L68.9993 41.2402L70.8344 40.445L66.1544 29.645L64.3193 30.4402ZM68.9993 41.2402V39.2402H60.5993V41.2402V43.2402H68.9993V41.2402ZM60.5993 41.2402L62.4304 40.4358L57.8704 30.0558L56.0393 30.8602L54.2082 31.6646L58.7682 42.0446L60.5993 41.2402ZM56.0393 30.8602L57.8601 30.0326C57.3972 29.0144 56.7839 28.0487 55.9193 27.4002L54.7193 29.0002L53.5193 30.6002C53.6147 30.6718 53.8815 30.9461 54.2186 31.6878L56.0393 30.8602ZM54.7193 29.0002L55.9193 27.4002C54.9017 26.637 53.5477 26.4602 52.3193 26.4602V28.4602V30.4602C52.7813 30.4602 53.1059 30.4982 53.3203 30.5465C53.5398 30.5958 53.5721 30.6398 53.5193 30.6002L54.7193 29.0002ZM52.3193 28.4602V26.4602H45.9593V28.4602V30.4602H52.3193V28.4602ZM45.9593 28.4602H43.9593V41.2402H45.9593H47.9593V28.4602H45.9593ZM45.9593 41.2402V39.2402H37.8593V41.2402V43.2402H45.9593V41.2402ZM45.9593 21.7402V23.7402H54.2993V21.7402V19.7402H45.9593V21.7402ZM54.2993 21.7402V23.7402C56.6863 23.7402 58.8309 23.2241 60.4962 21.9474L59.2793 20.3602L58.0625 18.773C57.3277 19.3363 56.1523 19.7402 54.2993 19.7402V21.7402ZM59.2793 20.3602L60.5287 21.922C62.39 20.433 63.0793 18.1196 63.0793 15.5602H61.0793H59.0793C59.0793 17.4809 58.5687 18.3675 58.0299 18.7985L59.2793 20.3602ZM61.0793 15.5602H63.0793C63.0793 13.1253 62.4966 10.9084 60.9055 9.37857L59.5193 10.8202L58.1331 12.2619C58.6221 12.732 59.0793 13.6752 59.0793 15.5602H61.0793ZM59.5193 10.8202L60.9055 9.37857C59.3498 7.88266 57.1759 7.32023 54.7793 7.32023V9.32023V11.3202C56.6228 11.3202 57.6089 11.7578 58.1331 12.2619L59.5193 10.8202ZM54.7793 9.32023V7.32023H45.9593V9.32023V11.3202H54.7793V9.32023ZM45.9593 9.32023H43.9593V21.7402H45.9593H47.9593V9.32023H45.9593ZM77.6103 6.74023L76.1961 5.32602V5.32602L77.6103 6.74023ZM105.69 6.74023L107.104 5.32602V5.32602L105.69 6.74023ZM99.6303 31.8202L98.0771 30.5602L98.0744 30.5636L99.6303 31.8202ZM99.6303 11.9002L98.0989 13.1866L98.1128 13.2032L98.127 13.2194L99.6303 11.9002ZM83.6103 11.9002L82.0939 10.5962L82.0918 10.5986L83.6103 11.9002ZM83.6103 31.8202L82.0428 33.0624L82.0557 33.0787L82.069 33.0948L83.6103 31.8202ZM91.6503 41.8402V39.8402C85.7247 39.8402 81.6414 38.2881 79.0143 35.5267C76.3694 32.7466 74.8703 28.3961 74.8703 22.1002H72.8703H70.8703C70.8703 28.9643 72.5011 34.4838 76.1163 38.2838C79.7492 42.1024 85.0558 43.8402 91.6503 43.8402V41.8402ZM72.8703 22.1002H74.8703C74.8703 15.2512 76.4084 10.7705 79.0245 8.15445L77.6103 6.74023L76.1961 5.32602C72.4921 9.02993 70.8703 14.7893 70.8703 22.1002H72.8703ZM77.6103 6.74023L79.0245 8.15445C81.6836 5.49529 85.7715 4.00023 91.6503 4.00023V2.00023V0.000232697C85.1291 0.000232697 79.8569 1.66517 76.1961 5.32602L77.6103 6.74023ZM91.6503 2.00023V4.00023C97.5291 4.00023 101.617 5.49529 104.276 8.15445L105.69 6.74023L107.104 5.32602C103.444 1.66517 98.1715 0.000232697 91.6503 0.000232697V2.00023ZM105.69 6.74023L104.276 8.15445C106.892 10.7705 108.43 15.2512 108.43 22.1002H110.43H112.43C112.43 14.7893 110.808 9.02993 107.104 5.32602L105.69 6.74023ZM110.43 22.1002H108.43C108.43 28.3961 106.931 32.7466 104.286 35.5267C101.659 38.2881 97.5758 39.8402 91.6503 39.8402V41.8402V43.8402C98.2447 43.8402 103.551 42.1024 107.184 38.2838C110.799 34.4838 112.43 28.9643 112.43 22.1002H110.43ZM91.6503 34.9402V36.9402C95.6626 36.9402 99.0014 35.7819 101.186 33.0769L99.6303 31.8202L98.0744 30.5636C96.8992 32.0186 94.918 32.9402 91.6503 32.9402V34.9402ZM99.6303 31.8202L101.183 33.0803C103.321 30.4459 104.21 26.6628 104.21 22.1002H102.21H100.21C100.21 26.2577 99.3798 28.9545 98.0771 30.5602L99.6303 31.8202ZM102.21 22.1002H104.21C104.21 17.1421 103.353 13.1102 101.134 10.5811L99.6303 11.9002L98.127 13.2194C99.3475 14.6102 100.21 17.3783 100.21 22.1002H102.21ZM99.6303 11.9002L101.162 10.6138C98.969 8.00348 95.6379 6.90023 91.6503 6.90023V8.90023V10.9002C94.9427 10.9002 96.9316 11.797 98.0989 13.1866L99.6303 11.9002ZM91.6503 8.90023V6.90023C87.659 6.90023 84.3225 8.00478 82.0939 10.5962L83.6103 11.9002L85.1266 13.2043C86.3381 11.7957 88.3615 10.9002 91.6503 10.9002V8.90023ZM83.6103 11.9002L82.0918 10.5986C79.9255 13.126 79.0903 17.1491 79.0903 22.1002H81.0903H83.0903C83.0903 17.3713 83.9351 14.5945 85.1288 13.2018L83.6103 11.9002ZM81.0903 22.1002H79.0903C79.0903 26.6548 79.9568 30.4301 82.0428 33.0624L83.6103 31.8202L85.1778 30.5781C83.9038 28.9704 83.0903 26.2657 83.0903 22.1002H81.0903ZM83.6103 31.8202L82.069 33.0948C84.2901 35.7808 87.6347 36.9402 91.6503 36.9402V34.9402V32.9402C88.3858 32.9402 86.3704 32.0197 85.1516 30.5457L83.6103 31.8202ZM116.082 41.2402H114.082V43.2402H116.082V41.2402ZM116.082 2.60023V0.600231H114.082V2.60023H116.082ZM145.362 7.10023L143.929 8.49521L143.938 8.50489L143.948 8.51445L145.362 7.10023ZM145.422 36.6802L143.971 35.3042L143.97 35.3047L145.422 36.6802ZM124.182 35.0002H122.182V37.0002H124.182V35.0002ZM136.902 33.9802L137.701 35.8136L137.721 35.8051L137.74 35.7962L136.902 33.9802ZM140.382 30.1402L138.542 29.3571L138.538 29.3669L138.533 29.3767L140.382 30.1402ZM137.142 10.3402L137.959 8.5146V8.5146L137.142 10.3402ZM124.182 9.32023V7.32023H122.182V9.32023H124.182ZM116.082 41.2402H118.082V2.60023H116.082H114.082V41.2402H116.082ZM116.082 2.60023V4.60023H132.282V2.60023V0.600231H116.082V2.60023ZM132.282 2.60023V4.60023C137.755 4.60023 141.512 6.01179 143.929 8.49521L145.362 7.10023L146.795 5.70526C143.372 2.18867 138.409 0.600231 132.282 0.600231V2.60023ZM145.362 7.10023L143.948 8.51445C146.346 10.9127 147.802 15.2501 147.802 22.1002H149.802H151.802C151.802 14.8704 150.298 9.20774 146.776 5.68602L145.362 7.10023ZM149.802 22.1002H147.802C147.802 28.5068 146.385 32.7579 143.971 35.3042L145.422 36.6802L146.873 38.0562C150.299 34.4426 151.802 28.9737 151.802 22.1002H149.802ZM145.422 36.6802L143.97 35.3047C141.6 37.8068 137.84 39.2402 132.282 39.2402V41.2402V43.2402C138.484 43.2402 143.484 41.6336 146.874 38.0557L145.422 36.6802ZM132.282 41.2402V39.2402H116.082V41.2402V43.2402H132.282V41.2402ZM124.182 35.0002V37.0002H131.142V35.0002V33.0002H124.182V35.0002ZM131.142 35.0002V37.0002C133.609 37.0002 135.819 36.6341 137.701 35.8136L136.902 33.9802L136.103 32.1468C134.865 32.6864 133.235 33.0002 131.142 33.0002V35.0002ZM136.902 33.9802L137.74 35.7962C139.829 34.8318 141.311 33.1303 142.231 30.9038L140.382 30.1402L138.533 29.3767C137.933 30.8302 137.094 31.6887 136.064 32.1643L136.902 33.9802ZM140.382 30.1402L142.222 30.9233C143.177 28.6803 143.582 25.6864 143.582 22.1002H141.582H139.582C139.582 25.474 139.187 27.8402 138.542 29.3571L140.382 30.1402ZM141.582 22.1002H143.582C143.582 18.5312 143.22 15.5769 142.364 13.3914L140.502 14.1202L138.639 14.849C139.224 16.3436 139.582 18.7092 139.582 22.1002H141.582ZM140.502 14.1202L142.364 13.3914C141.491 11.1605 140.046 9.4482 137.959 8.5146L137.142 10.3402L136.325 12.1659C137.278 12.5923 138.072 13.4 138.639 14.849L140.502 14.1202ZM137.142 10.3402L137.959 8.5146C136.088 7.67755 133.778 7.32023 131.142 7.32023V9.32023V11.3202C133.466 11.3202 135.156 11.6429 136.325 12.1659L137.142 10.3402ZM131.142 9.32023V7.32023H124.182V9.32023V11.3202H131.142V9.32023ZM124.182 9.32023H122.182V35.0002H124.182H126.182V9.32023H124.182ZM159.777 38.0002L158.487 39.5285L158.498 39.5375L158.508 39.5464L159.777 38.0002ZM155.157 2.60023V0.600231H153.157V2.60023H155.157ZM163.257 2.60023H165.257V0.600231H163.257V2.60023ZM165.657 32.7802L164.299 34.2484L164.309 34.2577L164.319 34.2668L165.657 32.7802ZM179.157 32.7802L180.514 34.2498L180.515 34.2484L179.157 32.7802ZM181.557 2.60023V0.600231H179.557V2.60023H181.557ZM189.657 2.60023H191.657V0.600231H189.657V2.60023ZM185.037 38.0002L186.315 39.5383L186.321 39.5334L186.327 39.5285L185.037 38.0002ZM172.437 41.8402V39.8402C167.431 39.8402 163.708 38.6386 161.046 36.4541L159.777 38.0002L158.508 39.5464C162.086 42.4819 166.803 43.8402 172.437 43.8402V41.8402ZM159.777 38.0002L161.067 36.472C158.536 34.3351 157.157 31.1934 157.157 26.7202H155.157H153.157C153.157 32.0871 154.858 36.4654 158.487 39.5285L159.777 38.0002ZM155.157 26.7202H157.157V2.60023H155.157H153.157V26.7202H155.157ZM155.157 2.60023V4.60023H163.257V2.60023V0.600231H155.157V2.60023ZM163.257 2.60023H161.257V26.1202H163.257H165.257V2.60023H163.257ZM163.257 26.1202H161.257C161.257 29.4303 162.159 32.2689 164.299 34.2484L165.657 32.7802L167.015 31.312C165.955 30.3316 165.257 28.7302 165.257 26.1202H163.257ZM165.657 32.7802L164.319 34.2668C166.4 36.1397 169.201 36.9402 172.437 36.9402V34.9402V32.9402C169.833 32.9402 168.114 32.3008 166.995 31.2936L165.657 32.7802ZM172.437 34.9402V36.9402C175.669 36.9402 178.465 36.1412 180.514 34.2498L179.157 32.7802L177.8 31.3106C176.729 32.2993 175.045 32.9402 172.437 32.9402V34.9402ZM179.157 32.7802L180.515 34.2484C182.655 32.2689 183.557 29.4303 183.557 26.1202H181.557H179.557C179.557 28.7302 178.859 30.3316 177.799 31.312L179.157 32.7802ZM181.557 26.1202H183.557V2.60023H181.557H179.557V26.1202H181.557ZM181.557 2.60023V4.60023H189.657V2.60023V0.600231H181.557V2.60023ZM189.657 2.60023H187.657V26.7202H189.657H191.657V2.60023H189.657ZM189.657 26.7202H187.657C187.657 31.1934 186.278 34.3351 183.747 36.472L185.037 38.0002L186.327 39.5285C189.956 36.4654 191.657 32.0871 191.657 26.7202H189.657ZM185.037 38.0002L183.759 36.4622C181.141 38.6379 177.444 39.8402 172.437 39.8402V41.8402V43.8402C178.07 43.8402 182.773 42.4825 186.315 39.5383L185.037 38.0002ZM200.14 36.6202L198.709 38.0181L198.717 38.0262L200.14 36.6202ZM199.96 7.34023L198.505 5.96744L198.497 5.97618L199.96 7.34023ZM221.2 2.54023L220.816 4.50302L220.84 4.50774L220.864 4.51188L221.2 2.54023ZM226.48 3.92023H228.48V2.52229L227.167 2.04198L226.48 3.92023ZM226.48 11.0002L225.718 12.8496L228.48 13.9867V11.0002H226.48ZM206.08 12.2002L207.586 13.5153V13.5153L206.08 12.2002ZM221.26 34.5202L221.602 36.4907L221.623 36.4871L221.644 36.483L221.26 34.5202ZM226.54 32.9602H228.54V29.9931L225.789 31.1063L226.54 32.9602ZM226.54 40.1002L227.144 42.0067L228.54 41.5642V40.1002H226.54ZM221.26 41.3602L220.924 39.3886L220.917 39.3898L221.26 41.3602ZM215.02 41.8402V39.8402C208.894 39.8402 204.516 38.2029 201.562 35.2142L200.14 36.6202L198.717 38.0262C202.643 41.9975 208.185 43.8402 215.02 43.8402V41.8402ZM200.14 36.6202L201.57 35.2224C198.575 32.1572 196.98 27.9235 196.98 22.2802H194.98H192.98C192.98 28.717 194.825 34.0433 198.709 38.0181L200.14 36.6202ZM194.98 22.2802H196.98C196.98 16.2228 198.545 11.7895 201.422 8.70428L199.96 7.34023L198.497 5.97618C194.734 10.011 192.98 15.5376 192.98 22.2802H194.98ZM199.96 7.34023L201.414 8.713C204.276 5.68042 208.667 4.00023 214.96 4.00023V2.00023V0.000232697C207.972 0.000232697 202.363 1.88005 198.505 5.96747L199.96 7.34023ZM214.96 2.00023V4.00023C217.18 4.00023 219.128 4.17278 220.816 4.50302L221.2 2.54023L221.584 0.577446C219.592 0.187687 217.38 0.000232697 214.96 0.000232697V2.00023ZM221.2 2.54023L220.864 4.51188C222.635 4.81333 224.276 5.24384 225.792 5.79848L226.48 3.92023L227.167 2.04198C225.403 1.39663 223.524 0.907135 221.535 0.568588L221.2 2.54023ZM226.48 3.92023H224.48V11.0002H226.48H228.48V3.92023H226.48ZM226.48 11.0002L227.241 9.15088C223.586 7.64598 219.686 6.90023 215.56 6.90023V8.90023V10.9002C219.193 10.9002 222.573 11.5545 225.718 12.8496L226.48 11.0002ZM215.56 8.90023V6.90023C210.877 6.90023 207.031 8.06837 204.573 10.8852L206.08 12.2002L207.586 13.5153C208.968 11.9321 211.442 10.9002 215.56 10.9002V8.90023ZM206.08 12.2002L204.573 10.8852C202.2 13.6035 201.2 17.5302 201.2 22.2802H203.2H205.2C205.2 17.9903 206.119 15.197 207.586 13.5153L206.08 12.2002ZM203.2 22.2802H201.2C201.2 26.8191 202.313 30.5924 204.892 33.2209C207.478 35.8565 211.202 37.0002 215.68 37.0002V35.0002V33.0002C211.838 33.0002 209.321 32.0239 207.747 30.4196C206.166 28.8081 205.2 26.2214 205.2 22.2802H203.2ZM215.68 35.0002V37.0002C217.674 37.0002 219.648 36.8305 221.602 36.4907L221.26 34.5202L220.917 32.5498C219.191 32.85 217.446 33.0002 215.68 33.0002V35.0002ZM221.26 34.5202L221.644 36.483C223.605 36.0993 225.488 35.5437 227.29 34.8141L226.54 32.9602L225.789 31.1063C224.232 31.7368 222.595 32.2211 220.876 32.5574L221.26 34.5202ZM226.54 32.9602H224.54V40.1002H226.54H228.54V32.9602H226.54ZM226.54 40.1002L225.935 38.1938C224.392 38.6831 222.723 39.0824 220.924 39.3886L221.26 41.3602L221.595 43.3319C223.557 42.998 225.407 42.5574 227.144 42.0067L226.54 40.1002ZM221.26 41.3602L220.917 39.3898C219.213 39.6861 217.251 39.8402 215.02 39.8402V41.8402V43.8402C217.428 43.8402 219.626 43.6744 221.602 43.3307L221.26 41.3602ZM241.636 41.2402H239.636V43.2402H241.636V41.2402ZM241.636 8.84023H243.636V6.84023H241.636V8.84023ZM229.756 8.84023H227.756V10.8402H229.756V8.84023ZM229.756 2.60023V0.600231H227.756V2.60023H229.756ZM261.556 2.60023H263.556V0.600231H261.556V2.60023ZM261.556 8.84023V10.8402H263.556V8.84023H261.556ZM249.736 8.84023V6.84023H247.736V8.84023H249.736ZM249.736 41.2402V43.2402H251.736V41.2402H249.736ZM241.636 41.2402H243.636V8.84023H241.636H239.636V41.2402H241.636ZM241.636 8.84023V6.84023H229.756V8.84023V10.8402H241.636V8.84023ZM229.756 8.84023H231.756V2.60023H229.756H227.756V8.84023H229.756ZM229.756 2.60023V4.60023H261.556V2.60023V0.600231H229.756V2.60023ZM261.556 2.60023H259.556V8.84023H261.556H263.556V2.60023H261.556ZM261.556 8.84023V6.84023H249.736V8.84023V10.8402H261.556V8.84023ZM249.736 8.84023H247.736V41.2402H249.736H251.736V8.84023H249.736ZM249.736 41.2402V39.2402H241.636V41.2402V43.2402H249.736V41.2402Z" fill="white" mask="url(#path-1-outside-1_881_5)"/>
</svg>
