<svg width="562" height="93" viewBox="0 0 562 93" fill="none" xmlns="http://www.w3.org/2000/svg">
<mask id="path-1-outside-1_881_7" maskUnits="userSpaceOnUse" x="-0.296021" y="-0.288086" width="563" height="94" fill="black">
<rect fill="white" x="-0.296021" y="-0.288086" width="563" height="94"/>
<path d="M3.99998 87.7119V5.27991H42.656C49.1413 5.27991 54.432 6.51724 58.528 8.99191C62.7093 11.4666 65.824 14.8372 67.872 19.1039C69.92 23.3706 70.944 28.2346 70.944 33.6959C70.944 39.2426 69.7493 44.1492 67.36 48.4159C65.056 52.6826 61.728 56.0106 57.376 58.3999C53.1093 60.7039 48.032 61.8559 42.144 61.8559H21.28V87.7119H3.99998ZM21.28 48.1599H38.56C43.5093 48.1599 47.2213 46.8799 49.696 44.3199C52.256 41.6746 53.536 38.1332 53.536 33.6959C53.536 28.9172 52.3413 25.2906 49.952 22.8159C47.5626 20.2559 43.9786 18.9759 39.2 18.9759H21.28V48.1599ZM80.5 87.7119V5.27991H120.052C129.524 5.27991 136.479 7.79724 140.916 12.8319C145.353 17.7812 147.572 24.4799 147.572 32.9279C147.572 38.4746 146.121 43.2532 143.22 47.2639C140.404 51.2746 136.393 54.1759 131.188 55.9679C132.553 57.0772 133.62 58.2719 134.388 59.5519C135.241 60.8319 136.095 62.5386 136.948 64.6719L146.932 87.7119H129.012L119.284 65.5679C118.431 63.6906 117.492 62.3679 116.468 61.5999C115.444 60.8319 113.737 60.4479 111.348 60.4479H97.78V87.7119H80.5ZM97.78 46.1119H115.572C120.095 46.1119 123.636 45.1306 126.196 43.1679C128.756 41.1199 130.036 37.7066 130.036 32.9279C130.036 28.3199 128.927 24.9492 126.708 22.8159C124.489 20.6826 121.119 19.6159 116.596 19.6159H97.78V46.1119ZM195.254 88.9919C168.545 88.9919 155.19 74.9546 155.19 46.8799C155.19 31.7759 158.561 20.8532 165.302 14.1119C172.043 7.37057 182.027 3.99991 195.254 3.99991C208.481 3.99991 218.465 7.37057 225.206 14.1119C231.947 20.8532 235.318 31.7759 235.318 46.8799C235.318 74.9546 221.963 88.9919 195.254 88.9919ZM195.254 74.2719C203.019 74.2719 208.694 72.0532 212.278 67.6159C215.947 63.0932 217.782 56.1812 217.782 46.8799C217.782 36.5546 215.947 29.3012 212.278 25.1199C208.694 20.8532 203.019 18.7199 195.254 18.7199C187.489 18.7199 181.771 20.8532 178.102 25.1199C174.518 29.3012 172.726 36.5546 172.726 46.8799C172.726 56.1812 174.518 63.0932 178.102 67.6159C181.771 72.0532 187.489 74.2719 195.254 74.2719ZM247.375 87.7119V5.27991H281.935C294.308 5.27991 303.61 8.47991 309.839 14.8799C316.154 21.1946 319.311 31.8612 319.311 46.8799C319.311 61.0452 316.196 71.4132 309.967 77.9839C303.823 84.4692 294.479 87.7119 281.935 87.7119H247.375ZM264.655 74.3999H279.503C284.367 74.3999 288.463 73.6746 291.791 72.2239C295.119 70.6879 297.594 67.9572 299.215 64.0319C300.922 60.0212 301.775 54.3039 301.775 46.8799C301.775 39.4559 301.007 33.7812 299.471 29.8559C297.935 25.9306 295.546 23.2426 292.303 21.7919C289.06 20.3412 284.794 19.6159 279.503 19.6159H264.655V74.3999ZM367.599 88.9919C356.25 88.9919 347.247 86.2612 340.591 80.7999C334.02 75.2532 330.735 67.2319 330.735 56.7359V5.27991H348.015V55.4559C348.015 61.7706 349.722 66.5066 353.135 69.6639C356.548 72.7359 361.37 74.2719 367.599 74.2719C373.828 74.2719 378.607 72.7359 381.935 69.6639C385.348 66.5066 387.055 61.7706 387.055 55.4559V5.27991H404.335V56.7359C404.335 67.2319 401.05 75.2532 394.479 80.7999C387.908 86.2612 378.948 88.9919 367.599 88.9919ZM458.442 88.9919C444.618 88.9919 434.037 85.2799 426.698 77.8559C419.359 70.3466 415.69 60.1492 415.69 47.2639C415.69 33.6106 419.231 22.9866 426.314 15.3919C433.482 7.79724 444.149 3.99991 458.314 3.99991C463.263 3.99991 467.701 4.38391 471.626 5.15191C475.637 5.83458 479.391 6.81591 482.89 8.09591V23.1999C475.637 20.2132 467.871 18.7199 459.594 18.7199C450.207 18.7199 443.466 21.0666 439.37 25.7599C435.274 30.4532 433.226 37.6212 433.226 47.2639C433.226 65.3546 442.101 74.3999 459.85 74.3999C463.861 74.3999 467.829 74.0586 471.754 73.3759C475.679 72.6079 479.434 71.4986 483.018 70.0479V85.2799C479.519 86.3892 475.765 87.2852 471.754 87.9679C467.829 88.6506 463.391 88.9919 458.442 88.9919ZM515.224 87.7119V18.5919H489.88V5.27991H557.72V18.5919H532.504V87.7119H515.224Z"/>
</mask>
<path d="M3.99998 87.7119H-2.00272e-05V91.7119H3.99998V87.7119ZM3.99998 5.27991V1.27991H-2.00272e-05V5.27991H3.99998ZM58.528 8.99191L56.4595 12.4156L56.4751 12.425L56.4907 12.4342L58.528 8.99191ZM67.872 19.1039L71.4781 17.373V17.373L67.872 19.1039ZM67.36 48.4159L63.87 46.4615L63.855 46.4883L63.8404 46.5153L67.36 48.4159ZM57.376 58.3999L59.2766 61.9195L59.2888 61.9129L59.301 61.9062L57.376 58.3999ZM21.28 61.8559V57.8559H17.28V61.8559H21.28ZM21.28 87.7119V91.7119H25.28V87.7119H21.28ZM21.28 48.1599H17.28V52.1599H21.28V48.1599ZM49.696 44.3199L46.8216 41.5382L46.82 41.5398L49.696 44.3199ZM49.952 22.8159L47.0278 25.5452L47.0509 25.5699L47.0744 25.5943L49.952 22.8159ZM21.28 18.9759V14.9759H17.28V18.9759H21.28ZM3.99998 87.7119H7.99998V5.27991H3.99998H-2.00272e-05V87.7119H3.99998ZM3.99998 5.27991V9.27991H42.656V5.27991V1.27991H3.99998V5.27991ZM42.656 5.27991V9.27991C48.6622 9.27991 53.1716 10.4291 56.4595 12.4156L58.528 8.99191L60.5964 5.56825C55.6924 2.60539 49.6205 1.27991 42.656 1.27991V5.27991ZM58.528 8.99191L56.4907 12.4342C60.0106 14.5174 62.5697 17.3011 64.2659 20.8348L67.872 19.1039L71.4781 17.373C69.0783 12.3734 65.408 8.4157 60.5653 5.54961L58.528 8.99191ZM67.872 19.1039L64.2659 20.8348C66.0175 24.484 66.944 28.7416 66.944 33.6959H70.944H74.944C74.944 27.7275 73.8225 22.2572 71.4781 17.373L67.872 19.1039ZM70.944 33.6959H66.944C66.944 38.6515 65.8821 42.8684 63.87 46.4615L67.36 48.4159L70.85 50.3703C73.6165 45.4301 74.944 39.8336 74.944 33.6959H70.944ZM67.36 48.4159L63.8404 46.5153C61.9114 50.0875 59.145 52.8655 55.451 54.8936L57.376 58.3999L59.301 61.9062C64.311 59.1557 68.2006 55.2777 70.8796 50.3165L67.36 48.4159ZM57.376 58.3999L55.4754 54.8803C51.9052 56.8082 47.5094 57.8559 42.144 57.8559V61.8559V65.8559C48.5545 65.8559 54.3134 64.5996 59.2766 61.9195L57.376 58.3999ZM42.144 61.8559V57.8559H21.28V61.8559V65.8559H42.144V61.8559ZM21.28 61.8559H17.28V87.7119H21.28H25.28V61.8559H21.28ZM21.28 87.7119V83.7119H3.99998V87.7119V91.7119H21.28V87.7119ZM21.28 48.1599V52.1599H38.56V48.1599V44.1599H21.28V48.1599ZM38.56 48.1599V52.1599C44.161 52.1599 49.0882 50.7039 52.5719 47.1L49.696 44.3199L46.82 41.5398C45.3544 43.056 42.8576 44.1599 38.56 44.1599V48.1599ZM49.696 44.3199L52.5704 47.1016C55.996 43.5618 57.536 38.9447 57.536 33.6959H53.536H49.536C49.536 37.3218 48.516 39.7874 46.8216 41.5382L49.696 44.3199ZM53.536 33.6959H57.536C57.536 28.2891 56.1799 23.5075 52.8296 20.0375L49.952 22.8159L47.0744 25.5943C48.5027 27.0736 49.536 29.5454 49.536 33.6959H53.536ZM49.952 22.8159L52.8762 20.0866C49.4855 16.4538 44.6686 14.9759 39.2 14.9759V18.9759V22.9759C43.2887 22.9759 45.6398 24.0581 47.0278 25.5452L49.952 22.8159ZM39.2 18.9759V14.9759H21.28V18.9759V22.9759H39.2V18.9759ZM21.28 18.9759H17.28V48.1599H21.28H25.28V18.9759H21.28ZM80.5 87.7119H76.5V91.7119H80.5V87.7119ZM80.5 5.27991V1.27991H76.5V5.27991H80.5ZM140.916 12.8319L137.915 15.4767L137.926 15.4894L137.938 15.5021L140.916 12.8319ZM143.22 47.2639L139.979 44.9194L139.963 44.9423L139.946 44.9654L143.22 47.2639ZM131.188 55.9679L129.886 52.1858L123.075 54.5304L128.666 59.0724L131.188 55.9679ZM134.388 59.5519L130.958 61.6099L131.007 61.6915L131.06 61.7707L134.388 59.5519ZM136.948 64.6719L133.234 66.1575L133.255 66.2102L133.278 66.2623L136.948 64.6719ZM146.932 87.7119V91.7119H153.025L150.602 86.1215L146.932 87.7119ZM129.012 87.7119L125.35 89.3207L126.4 91.7119H129.012V87.7119ZM119.284 65.5679L122.946 63.9591L122.936 63.9358L122.925 63.9127L119.284 65.5679ZM116.468 61.5999L118.868 58.3999V58.3999L116.468 61.5999ZM97.78 60.4479V56.4479H93.78V60.4479H97.78ZM97.78 87.7119V91.7119H101.78V87.7119H97.78ZM97.78 46.1119H93.78V50.1119H97.78V46.1119ZM126.196 43.1679L128.63 46.3423L128.663 46.3172L128.695 46.2914L126.196 43.1679ZM126.708 22.8159L129.48 19.9326V19.9326L126.708 22.8159ZM97.78 19.6159V15.6159H93.78V19.6159H97.78ZM80.5 87.7119H84.5V5.27991H80.5H76.5V87.7119H80.5ZM80.5 5.27991V9.27991H120.052V5.27991V1.27991H80.5V5.27991ZM120.052 5.27991V9.27991C128.863 9.27991 134.509 11.6122 137.915 15.4767L140.916 12.8319L143.917 10.1871C138.448 3.98233 130.185 1.27991 120.052 1.27991V5.27991ZM140.916 12.8319L137.938 15.5021C141.554 19.5353 143.572 25.1895 143.572 32.9279H147.572H151.572C151.572 23.7703 149.153 16.0272 143.894 10.1617L140.916 12.8319ZM147.572 32.9279H143.572C143.572 37.7388 142.328 41.6721 139.979 44.9194L143.22 47.2639L146.461 49.6084C149.914 44.8344 151.572 39.2104 151.572 32.9279H147.572ZM143.22 47.2639L139.946 44.9654C137.674 48.2022 134.397 50.6328 129.886 52.1858L131.188 55.9679L132.49 59.7501C138.39 57.719 143.134 54.347 146.494 49.5624L143.22 47.2639ZM131.188 55.9679L128.666 59.0724C129.733 59.9395 130.468 60.793 130.958 61.6099L134.388 59.5519L137.818 57.4939C136.772 55.7508 135.374 54.215 133.71 52.8635L131.188 55.9679ZM134.388 59.5519L131.06 61.7707C131.704 62.7375 132.438 64.1685 133.234 66.1575L136.948 64.6719L140.662 63.1864C139.751 60.9087 138.778 58.9263 137.716 57.3331L134.388 59.5519ZM136.948 64.6719L133.278 66.2623L143.262 89.3023L146.932 87.7119L150.602 86.1215L140.618 63.0815L136.948 64.6719ZM146.932 87.7119V83.7119H129.012V87.7119V91.7119H146.932V87.7119ZM129.012 87.7119L132.674 86.1031L122.946 63.9591L119.284 65.5679L115.622 67.1767L125.35 89.3207L129.012 87.7119ZM119.284 65.5679L122.925 63.9127C121.946 61.7588 120.661 59.7448 118.868 58.3999L116.468 61.5999L114.068 64.7999C114.323 64.991 114.915 65.6223 115.643 67.2231L119.284 65.5679ZM116.468 61.5999L118.868 58.3999C116.769 56.8254 113.954 56.4479 111.348 56.4479V60.4479V64.4479C112.347 64.4479 113.06 64.5299 113.542 64.6384C114.034 64.7491 114.142 64.8551 114.068 64.7999L116.468 61.5999ZM111.348 60.4479V56.4479H97.78V60.4479V64.4479H111.348V60.4479ZM97.78 60.4479H93.78V87.7119H97.78H101.78V60.4479H97.78ZM97.78 87.7119V83.7119H80.5V87.7119V91.7119H97.78V87.7119ZM97.78 46.1119V50.1119H115.572V46.1119V42.1119H97.78V46.1119ZM115.572 46.1119V50.1119C120.629 50.1119 125.139 49.0184 128.63 46.3423L126.196 43.1679L123.762 39.9935C122.133 41.2428 119.561 42.1119 115.572 42.1119V46.1119ZM126.196 43.1679L128.695 46.2914C132.577 43.1854 134.036 38.3452 134.036 32.9279H130.036H126.036C126.036 37.0679 124.935 39.0544 123.697 40.0444L126.196 43.1679ZM130.036 32.9279H134.036C134.036 27.77 132.801 23.1256 129.48 19.9326L126.708 22.8159L123.936 25.6992C125.052 26.7728 126.036 28.8698 126.036 32.9279H130.036ZM126.708 22.8159L129.48 19.9326C126.23 16.8074 121.672 15.6159 116.596 15.6159V19.6159V23.6159C120.566 23.6159 122.748 24.5577 123.936 25.6992L126.708 22.8159ZM116.596 19.6159V15.6159H97.78V19.6159V23.6159H116.596V19.6159ZM97.78 19.6159H93.78V46.1119H97.78H101.78V19.6159H97.78ZM165.302 14.1119L162.474 11.2835V11.2835L165.302 14.1119ZM225.206 14.1119L228.034 11.2835H228.034L225.206 14.1119ZM212.278 67.6159L209.172 65.0957L209.166 65.1026L212.278 67.6159ZM212.278 25.1199L209.215 27.6927L209.243 27.7258L209.271 27.7583L212.278 25.1199ZM178.102 25.1199L175.069 22.5117L175.065 22.5167L178.102 25.1199ZM178.102 67.6159L174.967 70.1002L174.993 70.1329L175.019 70.165L178.102 67.6159ZM195.254 88.9919V84.9919C182.568 84.9919 173.776 81.6683 168.104 75.7068C162.397 69.7081 159.19 60.3491 159.19 46.8799H155.19H151.19C151.19 61.4854 154.66 73.1824 162.308 81.221C169.991 89.2969 181.23 92.9919 195.254 92.9919V88.9919ZM155.19 46.8799H159.19C159.19 32.2378 162.477 22.5938 168.13 16.9403L165.302 14.1119L162.474 11.2835C154.644 19.1126 151.19 31.314 151.19 46.8799H155.19ZM165.302 14.1119L168.13 16.9403C173.87 11.2007 182.67 7.99991 195.254 7.99991V3.99991V-9.15527e-05C181.385 -9.15527e-05 170.217 3.54046 162.474 11.2835L165.302 14.1119ZM195.254 3.99991V7.99991C207.838 7.99991 216.638 11.2007 222.378 16.9403L225.206 14.1119L228.034 11.2835C220.291 3.54046 209.123 -9.15527e-05 195.254 -9.15527e-05V3.99991ZM225.206 14.1119L222.378 16.9403C228.031 22.5938 231.318 32.2378 231.318 46.8799H235.318H239.318C239.318 31.314 235.864 19.1126 228.034 11.2835L225.206 14.1119ZM235.318 46.8799H231.318C231.318 60.3491 228.111 69.7081 222.404 75.7068C216.732 81.6683 207.94 84.9919 195.254 84.9919V88.9919V92.9919C209.277 92.9919 220.517 89.2969 228.2 81.221C235.848 73.1824 239.318 61.4854 239.318 46.8799H235.318ZM195.254 74.2719V78.2719C203.764 78.2719 210.796 75.8165 215.39 70.1293L212.278 67.6159L209.166 65.1026C206.592 68.29 202.275 70.2719 195.254 70.2719V74.2719ZM212.278 67.6159L215.384 70.1361C219.888 64.5846 221.782 56.5863 221.782 46.8799H217.782H213.782C213.782 55.7762 212.006 61.6019 209.172 65.0957L212.278 67.6159ZM217.782 46.8799H221.782C221.782 36.3183 219.953 27.8013 215.284 22.4816L212.278 25.1199L209.271 27.7583C211.942 30.8012 213.782 36.7908 213.782 46.8799H217.782ZM212.278 25.1199L215.341 22.5471C210.731 17.0597 203.715 14.7199 195.254 14.7199V18.7199V22.7199C202.324 22.7199 206.657 24.6467 209.215 27.6927L212.278 25.1199ZM195.254 18.7199V14.7199C186.786 14.7199 179.756 17.0623 175.069 22.5118L178.102 25.1199L181.135 27.7281C183.787 24.6442 188.191 22.7199 195.254 22.7199V18.7199ZM178.102 25.1199L175.065 22.5167C170.508 27.8328 168.726 36.3324 168.726 46.8799H172.726H176.726C176.726 36.7768 178.528 30.7697 181.139 27.7231L178.102 25.1199ZM172.726 46.8799H168.726C168.726 56.5704 170.571 64.5529 174.967 70.1002L178.102 67.6159L181.237 65.1316C178.465 61.6336 176.726 55.7921 176.726 46.8799H172.726ZM178.102 67.6159L175.019 70.165C179.691 75.8144 186.738 78.2719 195.254 78.2719V74.2719V70.2719C188.24 70.2719 183.852 68.2921 181.185 65.0669L178.102 67.6159ZM247.375 87.7119H243.375V91.7119H247.375V87.7119ZM247.375 5.27991V1.27991H243.375V5.27991H247.375ZM309.839 14.8799L306.973 17.6699L306.991 17.6892L307.011 17.7083L309.839 14.8799ZM309.967 77.9839L307.064 75.2319L307.063 75.2329L309.967 77.9839ZM264.655 74.3999H260.655V78.3999H264.655V74.3999ZM291.791 72.2239L293.389 75.8907L293.428 75.8736L293.467 75.8558L291.791 72.2239ZM299.215 64.0319L295.534 62.4657L295.526 62.4852L295.518 62.5049L299.215 64.0319ZM292.303 21.7919L293.936 18.1406H293.936L292.303 21.7919ZM264.655 19.6159V15.6159H260.655V19.6159H264.655ZM247.375 87.7119H251.375V5.27991H247.375H243.375V87.7119H247.375ZM247.375 5.27991V9.27991H281.935V5.27991V1.27991H247.375V5.27991ZM281.935 5.27991V9.27991C293.654 9.27991 301.749 12.303 306.973 17.6699L309.839 14.8799L312.705 12.09C305.47 4.65679 294.962 1.27991 281.935 1.27991V5.27991ZM309.839 14.8799L307.011 17.7083C312.202 22.8996 315.311 32.2409 315.311 46.8799H319.311H323.311C323.311 31.4816 320.106 19.4896 312.667 12.0515L309.839 14.8799ZM319.311 46.8799H315.311C315.311 60.5784 312.282 69.7286 307.064 75.2319L309.967 77.9839L312.87 80.7359C320.111 73.0979 323.311 61.5121 323.311 46.8799H319.311ZM309.967 77.9839L307.063 75.2329C301.938 80.6425 293.834 83.7119 281.935 83.7119V87.7119V91.7119C295.124 91.7119 305.708 88.296 312.871 80.7349L309.967 77.9839ZM281.935 87.7119V83.7119H247.375V87.7119V91.7119H281.935V87.7119ZM264.655 74.3999V78.3999H279.503V74.3999V70.3999H264.655V74.3999ZM279.503 74.3999V78.3999C284.74 78.3999 289.417 77.6222 293.389 75.8907L291.791 72.2239L290.193 68.5571C287.509 69.7269 283.994 70.3999 279.503 70.3999V74.3999ZM291.791 72.2239L293.467 75.8558C297.854 73.8311 300.971 70.2573 302.912 65.559L299.215 64.0319L295.518 62.5049C294.216 65.6572 292.384 67.5447 290.115 68.5921L291.791 72.2239ZM299.215 64.0319L302.896 65.5981C304.911 60.8614 305.775 54.5163 305.775 46.8799H301.775H297.775C297.775 54.0915 296.932 59.1811 295.534 62.4657L299.215 64.0319ZM301.775 46.8799H305.775C305.775 39.2779 305.002 33.0145 303.196 28.3983L299.471 29.8559L295.746 31.3135C297.012 34.548 297.775 39.6339 297.775 46.8799H301.775ZM299.471 29.8559L303.196 28.3983C301.354 23.6911 298.313 20.0985 293.936 18.1406L292.303 21.7919L290.67 25.4432C292.778 26.3866 294.516 28.1701 295.746 31.3135L299.471 29.8559ZM292.303 21.7919L293.936 18.1406C289.992 16.3759 285.105 15.6159 279.503 15.6159V19.6159V23.6159C284.482 23.6159 288.129 24.3066 290.67 25.4432L292.303 21.7919ZM279.503 19.6159V15.6159H264.655V19.6159V23.6159H279.503V19.6159ZM264.655 19.6159H260.655V74.3999H264.655H268.655V19.6159H264.655ZM340.591 80.7999L338.011 83.8565L338.032 83.8745L338.054 83.8922L340.591 80.7999ZM330.735 5.27991V1.27991H326.735V5.27991H330.735ZM348.015 5.27991H352.015V1.27991H348.015V5.27991ZM353.135 69.6639L350.419 72.6003L350.439 72.6188L350.459 72.6371L353.135 69.6639ZM381.935 69.6639L384.648 72.6031L384.651 72.6003L381.935 69.6639ZM387.055 5.27991V1.27991H383.055V5.27991H387.055ZM404.335 5.27991H408.335V1.27991H404.335V5.27991ZM394.479 80.7999L397.036 83.8761L397.048 83.8663L397.059 83.8565L394.479 80.7999ZM367.599 88.9919V84.9919C356.878 84.9919 348.869 82.4179 343.128 77.7076L340.591 80.7999L338.054 83.8922C345.625 90.1046 355.621 92.9919 367.599 92.9919V88.9919ZM340.591 80.7999L343.171 77.7434C337.698 73.1229 334.735 66.3383 334.735 56.7359H330.735H326.735C326.735 68.1256 330.343 77.3836 338.011 83.8565L340.591 80.7999ZM330.735 56.7359H334.735V5.27991H330.735H326.735V56.7359H330.735ZM330.735 5.27991V9.27991H348.015V5.27991V1.27991H330.735V5.27991ZM348.015 5.27991H344.015V55.4559H348.015H352.015V5.27991H348.015ZM348.015 55.4559H344.015C344.015 62.4707 345.925 68.4439 350.419 72.6003L353.135 69.6639L355.851 66.7275C353.518 64.5693 352.015 61.0705 352.015 55.4559H348.015ZM353.135 69.6639L350.459 72.6371C354.834 76.5749 360.738 78.2719 367.599 78.2719V74.2719V70.2719C362.002 70.2719 358.262 68.8969 355.811 66.6907L353.135 69.6639ZM367.599 74.2719V78.2719C374.453 78.2719 380.342 76.5778 384.648 72.6031L381.935 69.6639L379.222 66.7247C376.872 68.894 373.204 70.2719 367.599 70.2719V74.2719ZM381.935 69.6639L384.651 72.6003C389.145 68.4439 391.055 62.4707 391.055 55.4559H387.055H383.055C383.055 61.0705 381.552 64.5693 379.219 66.7275L381.935 69.6639ZM387.055 55.4559H391.055V5.27991H387.055H383.055V55.4559H387.055ZM387.055 5.27991V9.27991H404.335V5.27991V1.27991H387.055V5.27991ZM404.335 5.27991H400.335V56.7359H404.335H408.335V5.27991H404.335ZM404.335 56.7359H400.335C400.335 66.3383 397.372 73.1229 391.899 77.7434L394.479 80.7999L397.059 83.8565C404.727 77.3836 408.335 68.1256 408.335 56.7359H404.335ZM394.479 80.7999L391.922 77.7238C386.276 82.4166 378.323 84.9919 367.599 84.9919V88.9919V92.9919C379.573 92.9919 389.541 90.1059 397.036 83.8761L394.479 80.7999ZM426.698 77.8559L423.837 80.6516L423.845 80.6598L423.853 80.6679L426.698 77.8559ZM426.314 15.3919L423.405 12.6464L423.397 12.6551L423.389 12.6638L426.314 15.3919ZM471.626 5.15191L470.858 9.07748L470.906 9.08693L470.955 9.09519L471.626 5.15191ZM482.89 8.09591H486.89V5.30003L484.264 4.33942L482.89 8.09591ZM482.89 23.1999L481.367 26.8986L486.89 29.1728V23.1999H482.89ZM439.37 25.7599L442.384 28.39V28.39L439.37 25.7599ZM471.754 73.3759L472.439 77.3168L472.481 77.3096L472.522 77.3015L471.754 73.3759ZM483.018 70.0479H487.018V64.1136L481.517 66.3401L483.018 70.0479ZM483.018 85.2799L484.227 89.0928L487.018 88.2079V85.2799H483.018ZM471.754 87.9679L471.083 84.0246L471.076 84.0258L471.069 84.0271L471.754 87.9679ZM458.442 88.9919V84.9919C445.327 84.9919 435.91 81.4853 429.543 75.0439L426.698 77.8559L423.853 80.6679C432.163 89.0745 443.909 92.9919 458.442 92.9919V88.9919ZM426.698 77.8559L429.559 75.0602C423.109 68.4605 419.69 59.3557 419.69 47.2639H415.69H411.69C411.69 60.9428 415.61 72.2326 423.837 80.6516L426.698 77.8559ZM415.69 47.2639H419.69C419.69 34.2958 423.042 24.7651 429.239 18.12L426.314 15.3919L423.389 12.6638C415.42 21.208 411.69 32.9254 411.69 47.2639H415.69ZM426.314 15.3919L429.223 18.1375C435.395 11.5976 444.843 7.99991 458.314 7.99991V3.99991V-9.15527e-05C443.454 -9.15527e-05 431.569 3.99688 423.405 12.6464L426.314 15.3919ZM458.314 3.99991V7.99991C463.064 7.99991 467.237 8.369 470.858 9.07748L471.626 5.15191L472.394 1.22634C468.164 0.398819 463.463 -9.15527e-05 458.314 -9.15527e-05V3.99991ZM471.626 5.15191L470.955 9.09519C474.748 9.74078 478.265 10.6631 481.516 11.8524L482.89 8.09591L484.264 4.33942C480.518 2.9687 476.526 1.92838 472.297 1.20863L471.626 5.15191ZM482.89 8.09591H478.89V23.1999H482.89H486.89V8.09591H482.89ZM482.89 23.1999L484.413 19.5012C476.65 16.3047 468.365 14.7199 459.594 14.7199V18.7199V22.7199C467.378 22.7199 474.623 24.1217 481.367 26.8986L482.89 23.1999ZM459.594 18.7199V14.7199C449.642 14.7199 441.529 17.2029 436.356 23.1298L439.37 25.7599L442.384 28.39C445.403 24.9303 450.772 22.7199 459.594 22.7199V18.7199ZM439.37 25.7599L436.356 23.1298C431.356 28.8597 429.226 37.1611 429.226 47.2639H433.226H437.226C437.226 38.0813 439.192 32.0468 442.384 28.39L439.37 25.7599ZM433.226 47.2639H429.226C429.226 56.9069 431.591 64.8775 437.027 70.4173C442.476 75.9712 450.339 78.3999 459.85 78.3999V74.3999V70.3999C451.611 70.3999 446.163 68.306 442.737 64.8146C439.298 61.309 437.226 55.7116 437.226 47.2639H433.226ZM459.85 74.3999V78.3999C464.089 78.3999 468.286 78.039 472.439 77.3168L471.754 73.3759L471.069 69.4351C467.371 70.0781 463.632 70.3999 459.85 70.3999V74.3999ZM471.754 73.3759L472.522 77.3015C476.689 76.4861 480.69 75.3054 484.519 73.7557L483.018 70.0479L481.517 66.3401C478.178 67.6917 474.669 68.7297 470.986 69.4503L471.754 73.3759ZM483.018 70.0479H479.018V85.2799H483.018H487.018V70.0479H483.018ZM483.018 85.2799L481.809 81.467C478.504 82.5149 474.931 83.3697 471.083 84.0246L471.754 87.9679L472.425 91.9112C476.599 91.2008 480.535 90.2636 484.227 89.0928L483.018 85.2799ZM471.754 87.9679L471.069 84.0271C467.416 84.6623 463.214 84.9919 458.442 84.9919V88.9919V92.9919C463.568 92.9919 468.241 92.6389 472.439 91.9088L471.754 87.9679ZM515.224 87.7119H511.224V91.7119H515.224V87.7119ZM515.224 18.5919H519.224V14.5919H515.224V18.5919ZM489.88 18.5919H485.88V22.5919H489.88V18.5919ZM489.88 5.27991V1.27991H485.88V5.27991H489.88ZM557.72 5.27991H561.72V1.27991H557.72V5.27991ZM557.72 18.5919V22.5919H561.72V18.5919H557.72ZM532.504 18.5919V14.5919H528.504V18.5919H532.504ZM532.504 87.7119V91.7119H536.504V87.7119H532.504ZM515.224 87.7119H519.224V18.5919H515.224H511.224V87.7119H515.224ZM515.224 18.5919V14.5919H489.88V18.5919V22.5919H515.224V18.5919ZM489.88 18.5919H493.88V5.27991H489.88H485.88V18.5919H489.88ZM489.88 5.27991V9.27991H557.72V5.27991V1.27991H489.88V5.27991ZM557.72 5.27991H553.72V18.5919H557.72H561.72V5.27991H557.72ZM557.72 18.5919V14.5919H532.504V18.5919V22.5919H557.72V18.5919ZM532.504 18.5919H528.504V87.7119H532.504H536.504V18.5919H532.504ZM532.504 87.7119V83.7119H515.224V87.7119V91.7119H532.504V87.7119Z" fill="white" mask="url(#path-1-outside-1_881_7)"/>
</svg>
