<svg width="318" height="79" viewBox="0 0 318 79" fill="none" xmlns="http://www.w3.org/2000/svg">
<path d="M93.0673 13.56V27.52H98.3073V31.16H93.0673V49.2H88.6273V13.56H93.0673ZM83.7073 17.32C83.7073 28.9467 78.374 37.44 67.7073 42.8L65.2273 39.48C69.5207 37.2667 72.8273 34.6267 75.1473 31.56C77.4673 28.4933 78.8407 24.9333 79.2673 20.88H67.1073V17.32H83.7073ZM121.388 17.12V20.76H113.628V23.72C113.628 25.6933 113.988 27.64 114.708 29.56C115.455 31.4533 116.508 33.16 117.868 34.68C119.255 36.2 120.868 37.3467 122.708 38.12L120.268 41.6C118.242 40.6933 116.468 39.3733 114.948 37.64C113.455 35.88 112.295 33.84 111.468 31.52C110.642 34.0267 109.468 36.24 107.948 38.16C106.428 40.08 104.655 41.52 102.628 42.48L100.108 39C101.948 38.1467 103.548 36.92 104.908 35.32C106.295 33.6933 107.348 31.8667 108.068 29.84C108.815 27.8133 109.188 25.7733 109.188 23.72V20.76H101.428V17.12H121.388ZM129.668 13.64V49.24H125.268V13.64H129.668ZM173.728 14.68V17.96H168.888V23.36H173.528V26.68H147.608V23.36H152.248V17.96H147.368V14.68H173.728ZM176.688 28.92V32.4H144.528V28.92H176.688ZM172.688 34.8V43.28H152.648V45.68H173.688V48.92H148.368V40.28H168.368V38H148.248V34.8H172.688ZM164.528 23.36V17.96H156.648V23.36H164.528ZM193.089 17.28V30.4H184.769V37.12C188.796 37.0667 192.462 36.76 195.769 36.2L196.129 39.76C193.969 40.1333 191.876 40.3867 189.849 40.52C187.849 40.6533 185.556 40.72 182.969 40.72H180.529V26.96H188.889V20.8H180.489V17.28H193.089ZM209.889 13.6V49.2H205.689V13.6H209.889ZM198.489 26V14.36H202.569V47.44H198.489V29.6H194.649V26H198.489ZM243.81 13.56V49.28H239.37V13.56H243.81ZM224.77 16.16C226.557 16.16 228.143 16.68 229.53 17.72C230.943 18.7333 232.037 20.2 232.81 22.12C233.61 24.0133 234.01 26.2267 234.01 28.76C234.01 31.2933 233.61 33.52 232.81 35.44C232.037 37.36 230.943 38.84 229.53 39.88C228.143 40.8933 226.557 41.4 224.77 41.4C222.983 41.4 221.383 40.8933 219.97 39.88C218.583 38.84 217.49 37.36 216.69 35.44C215.917 33.52 215.53 31.2933 215.53 28.76C215.53 26.2267 215.917 24.0133 216.69 22.12C217.49 20.2 218.583 18.7333 219.97 17.72C221.383 16.68 222.983 16.16 224.77 16.16ZM224.77 20.16C223.277 20.16 222.063 20.9333 221.13 22.48C220.223 24 219.77 26.0933 219.77 28.76C219.77 31.4533 220.223 33.5733 221.13 35.12C222.063 36.6667 223.277 37.44 224.77 37.44C226.263 37.44 227.463 36.6667 228.37 35.12C229.303 33.5733 229.77 31.4533 229.77 28.76C229.77 26.0933 229.303 24 228.37 22.48C227.463 20.9333 226.263 20.16 224.77 20.16ZM263.291 41.32V33.56H252.931V16.36H277.971V33.56H267.651V41.32H281.651V44.88H249.411V41.32H263.291ZM257.251 19.84V30.08H273.691V19.84H257.251ZM312.732 16.64V20.24H292.612V30.28H313.052V33.8H288.252V16.64H312.732ZM316.612 41.12V44.72H284.372V41.12H316.612Z" fill="#333333"/>
<path d="M77.4038 74.1H75.3838L67.8438 62.74V74.1H65.9638V59.46H67.9638L75.5038 70.8V59.46H77.4038V74.1ZM82.5317 64.68V74.1H80.6317V64.68H82.5317ZM81.5717 59.98C81.8917 59.98 82.1517 60.0867 82.3517 60.3C82.5651 60.5 82.6717 60.76 82.6717 61.08C82.6717 61.4 82.5651 61.6667 82.3517 61.88C82.1517 62.08 81.8917 62.18 81.5717 62.18C81.2517 62.18 80.9851 62.08 80.7717 61.88C80.5717 61.6667 80.4717 61.4 80.4717 61.08C80.4717 60.76 80.5717 60.5 80.7717 60.3C80.9851 60.0867 81.2517 59.98 81.5717 59.98ZM91.9317 68.8C91.9317 68.0533 91.7384 67.46 91.3517 67.02C90.9651 66.5667 90.4451 66.34 89.7917 66.34C89.0984 66.3533 88.5184 66.6 88.0517 67.08C87.5984 67.5467 87.3784 68.12 87.3917 68.8V74.12H85.4917V64.68H87.3917V66.02C87.6984 65.62 88.0851 65.3 88.5517 65.06C89.0317 64.82 89.5051 64.7 89.9717 64.7C90.6384 64.7 91.2651 64.8533 91.8517 65.16C92.4384 65.4533 92.9117 65.9067 93.2717 66.52C93.6451 67.12 93.8317 67.8533 93.8317 68.72V74.12H91.9317V68.8ZM97.2772 66.32H95.5172V64.68H97.2772V61.38H99.1572V64.68H101.397V66.32H99.1572V74.12H97.2772V66.32ZM107.328 74.18C106.448 74.18 105.661 73.98 104.968 73.58C104.288 73.18 103.754 72.62 103.368 71.9C102.981 71.18 102.788 70.36 102.788 69.44C102.788 68.52 102.981 67.7 103.368 66.98C103.754 66.26 104.288 65.7 104.968 65.3C105.661 64.8867 106.448 64.68 107.328 64.68C108.194 64.68 108.914 64.86 109.488 65.22C110.061 65.58 110.474 65.9533 110.728 66.34C110.994 66.7267 111.161 67.0267 111.228 67.24C111.508 67.92 111.648 68.6733 111.648 69.5C111.648 69.6867 111.641 69.84 111.628 69.96C111.614 70.0667 111.608 70.1467 111.608 70.2H104.688C104.808 70.88 105.114 71.44 105.608 71.88C106.114 72.32 106.688 72.54 107.328 72.54C108.061 72.54 108.621 72.4 109.008 72.12C109.408 71.8267 109.688 71.54 109.848 71.26L111.348 71.98C111.081 72.58 110.601 73.1 109.908 73.54C109.228 73.9667 108.368 74.18 107.328 74.18ZM109.808 68.66C109.714 67.9533 109.468 67.3867 109.068 66.96C108.668 66.5333 108.088 66.32 107.328 66.32C106.661 66.32 106.081 66.54 105.588 66.98C105.108 67.4067 104.808 67.9667 104.688 68.66H109.808ZM120.33 68.8C120.33 68.0533 120.137 67.46 119.75 67.02C119.363 66.5667 118.843 66.34 118.19 66.34C117.497 66.3533 116.917 66.6 116.45 67.08C115.997 67.5467 115.777 68.12 115.79 68.8V74.12H113.89V64.68H115.79V66.02C116.097 65.62 116.483 65.3 116.95 65.06C117.43 64.82 117.903 64.7 118.37 64.7C119.037 64.7 119.663 64.8533 120.25 65.16C120.837 65.4533 121.31 65.9067 121.67 66.52C122.043 67.12 122.23 67.8533 122.23 68.72V74.12H120.33V68.8ZM128.909 74.22C128.042 74.22 127.269 74.02 126.589 73.62C125.909 73.2067 125.375 72.64 124.989 71.92C124.602 71.1867 124.409 70.36 124.409 69.44C124.409 68.52 124.602 67.7 124.989 66.98C125.375 66.2467 125.909 65.68 126.589 65.28C127.269 64.8667 128.042 64.66 128.909 64.66C129.402 64.66 129.909 64.7867 130.429 65.04C130.949 65.28 131.395 65.6667 131.769 66.2V59.9H133.669V74.12H131.769V72.68C131.382 73.2 130.929 73.5867 130.409 73.84C129.889 74.0933 129.389 74.22 128.909 74.22ZM129.029 72.6C129.522 72.6 129.975 72.46 130.389 72.18C130.815 71.9 131.149 71.52 131.389 71.04C131.642 70.56 131.769 70.0333 131.769 69.46C131.769 68.8867 131.642 68.36 131.389 67.88C131.149 67.4 130.815 67.02 130.389 66.74C129.962 66.46 129.509 66.32 129.029 66.32C128.215 66.32 127.555 66.6133 127.049 67.2C126.555 67.7733 126.309 68.5267 126.309 69.46C126.309 70.3933 126.555 71.1533 127.049 71.74C127.555 72.3133 128.215 72.6 129.029 72.6ZM140.433 72.58C141.22 72.58 141.853 72.2933 142.333 71.72C142.826 71.1333 143.073 70.3733 143.073 69.44C143.073 68.5067 142.826 67.7533 142.333 67.18C141.853 66.6067 141.22 66.32 140.433 66.32C139.646 66.32 139.006 66.6067 138.513 67.18C138.033 67.7533 137.793 68.5067 137.793 69.44C137.793 70.3733 138.033 71.1333 138.513 71.72C139.006 72.2933 139.646 72.58 140.433 72.58ZM140.433 64.68C141.313 64.68 142.093 64.8867 142.773 65.3C143.466 65.7 144 66.26 144.373 66.98C144.76 67.7 144.953 68.52 144.953 69.44C144.953 70.36 144.76 71.1867 144.373 71.92C143.986 72.64 143.453 73.2067 142.773 73.62C142.093 74.02 141.313 74.22 140.433 74.22C139.553 74.22 138.766 74.02 138.073 73.62C137.393 73.2067 136.86 72.64 136.473 71.92C136.086 71.1867 135.893 70.36 135.893 69.44C135.893 68.52 136.086 67.7 136.473 66.98C136.86 66.26 137.393 65.7 138.073 65.3C138.766 64.8867 139.553 64.68 140.433 64.68ZM153.831 70.04C154.258 70.8667 154.771 71.5067 155.371 71.96C155.985 72.4 156.645 72.62 157.351 72.62C158.285 72.62 159.018 72.4 159.551 71.96C160.085 71.52 160.351 70.9267 160.351 70.18C160.351 69.6867 160.205 69.2733 159.911 68.94C159.631 68.5933 159.278 68.3133 158.851 68.1C158.425 67.8867 157.851 67.6533 157.131 67.4C156.225 67.0667 155.485 66.7533 154.911 66.46C154.351 66.1533 153.871 65.7267 153.471 65.18C153.085 64.62 152.891 63.9067 152.891 63.04C152.891 62.28 153.085 61.62 153.471 61.06C153.871 60.4867 154.411 60.0533 155.091 59.76C155.785 59.4533 156.565 59.3 157.431 59.3C158.485 59.3 159.411 59.58 160.211 60.14C161.011 60.6867 161.605 61.5 161.991 62.58L160.271 63.2C160.045 62.48 159.685 61.9267 159.191 61.54C158.711 61.1533 158.158 60.9533 157.531 60.94C156.705 60.94 156.038 61.1333 155.531 61.52C155.038 61.8933 154.791 62.4067 154.791 63.06C154.791 63.5533 154.931 63.9667 155.211 64.3C155.491 64.6333 155.845 64.9067 156.271 65.12C156.698 65.3333 157.271 65.5733 157.991 65.84C158.898 66.1867 159.631 66.5133 160.191 66.82C160.765 67.1133 161.245 67.54 161.631 68.1C162.031 68.6467 162.231 69.3467 162.231 70.2C162.231 71 162.031 71.7067 161.631 72.32C161.245 72.9333 160.685 73.4133 159.951 73.76C159.231 74.0933 158.391 74.26 157.431 74.26C156.338 74.26 155.351 73.9733 154.471 73.4C153.605 72.8267 152.865 72 152.251 70.92L153.831 70.04ZM174.236 74.12H172.476L170.536 67.8L168.616 74.12H166.856L164.016 64.68H165.996L167.756 70.98L169.556 64.68H171.456L173.316 70.98L175.036 64.68H177.016L174.236 74.12ZM181.008 64.68V74.1H179.108V64.68H181.008ZM180.048 59.98C180.368 59.98 180.628 60.0867 180.828 60.3C181.042 60.5 181.148 60.76 181.148 61.08C181.148 61.4 181.042 61.6667 180.828 61.88C180.628 62.08 180.368 62.18 180.048 62.18C179.728 62.18 179.462 62.08 179.248 61.88C179.048 61.6667 178.948 61.4 178.948 61.08C178.948 60.76 179.048 60.5 179.248 60.3C179.462 60.0867 179.728 59.98 180.048 59.98ZM185.148 66.32H183.388V64.68H185.148V61.38H187.028V64.68H189.268V66.32H187.028V74.12H185.148V66.32ZM194.959 72.4C195.345 72.4 195.745 72.3067 196.159 72.12C196.572 71.9333 196.919 71.6933 197.199 71.4L198.519 72.68C198.105 73.12 197.565 73.4867 196.899 73.78C196.245 74.06 195.625 74.2 195.039 74.2C194.105 74.2 193.272 74 192.539 73.6C191.819 73.1867 191.252 72.62 190.839 71.9C190.439 71.18 190.239 70.36 190.239 69.44C190.239 68.52 190.439 67.7 190.839 66.98C191.252 66.26 191.819 65.7 192.539 65.3C193.272 64.8867 194.105 64.68 195.039 64.68C195.652 64.68 196.279 64.82 196.919 65.1C197.572 65.38 198.105 65.7467 198.519 66.2L197.199 67.48C196.919 67.1867 196.572 66.9467 196.159 66.76C195.745 66.5733 195.345 66.48 194.959 66.48C194.119 66.48 193.439 66.7533 192.919 67.3C192.399 67.8333 192.139 68.5467 192.139 69.44C192.139 70.3333 192.399 71.0533 192.919 71.6C193.439 72.1333 194.119 72.4 194.959 72.4ZM206.874 68.92C206.874 68.12 206.687 67.48 206.314 67C205.954 66.52 205.474 66.28 204.874 66.28C204.434 66.28 204.027 66.4133 203.654 66.68C203.281 66.9333 202.981 67.2867 202.754 67.74C202.541 68.18 202.434 68.66 202.434 69.18V74H200.554V59.9H202.434V65.94C202.714 65.54 203.074 65.22 203.514 64.98C203.954 64.74 204.407 64.62 204.874 64.62C205.621 64.62 206.287 64.8 206.874 65.16C207.474 65.5067 207.941 65.9933 208.274 66.62C208.607 67.2467 208.774 67.9533 208.774 68.74V74H206.874V68.92ZM221.79 66.74C222.617 66.74 223.29 66.48 223.81 65.96C224.343 65.4267 224.61 64.7467 224.61 63.92C224.61 63.1067 224.343 62.44 223.81 61.92C223.277 61.3867 222.597 61.12 221.77 61.12H218.45V66.74H221.79ZM221.85 59.46C222.743 59.46 223.537 59.6533 224.23 60.04C224.937 60.4133 225.483 60.94 225.87 61.62C226.27 62.2867 226.47 63.0533 226.47 63.92C226.47 64.7867 226.27 65.56 225.87 66.24C225.483 66.92 224.937 67.4533 224.23 67.84C223.537 68.2133 222.743 68.4 221.85 68.4H218.45V74.1H216.57V59.46H221.85ZM230.298 59.9V74.1H228.398V59.9H230.298ZM236.799 74.22C235.932 74.22 235.159 74.02 234.479 73.62C233.799 73.2067 233.265 72.64 232.879 71.92C232.505 71.2 232.319 70.38 232.319 69.46C232.319 68.5533 232.505 67.74 232.879 67.02C233.265 66.2867 233.799 65.72 234.479 65.32C235.159 64.9067 235.932 64.7 236.799 64.7C237.305 64.7 237.805 64.8267 238.299 65.08C238.805 65.3333 239.245 65.7067 239.619 66.2V64.68H241.519V74.12H239.619V72.72C239.245 73.2267 238.812 73.6067 238.319 73.86C237.825 74.1 237.319 74.22 236.799 74.22ZM236.899 72.58C237.379 72.58 237.825 72.4467 238.239 72.18C238.665 71.9133 239.005 71.54 239.259 71.06C239.512 70.58 239.639 70.0467 239.639 69.46C239.639 68.8733 239.512 68.3467 239.259 67.88C239.005 67.4 238.665 67.0267 238.239 66.76C237.825 66.48 237.379 66.34 236.899 66.34C236.099 66.34 235.452 66.6267 234.959 67.2C234.465 67.7733 234.219 68.5267 234.219 69.46C234.219 70.3933 234.465 71.1467 234.959 71.72C235.452 72.2933 236.099 72.58 236.899 72.58ZM245.19 78.32L247.23 73.44L243.41 64.68H245.51L248.23 71.26L250.83 64.68H252.89L247.27 78.32H245.19ZM261.985 63.06V74.1H260.105V59.46H262.105L267.325 68.8L272.525 59.46H274.565V74.1H272.665V63.06L268.185 71.14H266.465L261.985 63.06ZM281.742 72.58C282.528 72.58 283.162 72.2933 283.642 71.72C284.135 71.1333 284.382 70.3733 284.382 69.44C284.382 68.5067 284.135 67.7533 283.642 67.18C283.162 66.6067 282.528 66.32 281.742 66.32C280.955 66.32 280.315 66.6067 279.822 67.18C279.342 67.7533 279.102 68.5067 279.102 69.44C279.102 70.3733 279.342 71.1333 279.822 71.72C280.315 72.2933 280.955 72.58 281.742 72.58ZM281.742 64.68C282.622 64.68 283.402 64.8867 284.082 65.3C284.775 65.7 285.308 66.26 285.682 66.98C286.068 67.7 286.262 68.52 286.262 69.44C286.262 70.36 286.068 71.1867 285.682 71.92C285.295 72.64 284.762 73.2067 284.082 73.62C283.402 74.02 282.622 74.22 281.742 74.22C280.862 74.22 280.075 74.02 279.382 73.62C278.702 73.2067 278.168 72.64 277.782 71.92C277.395 71.1867 277.202 70.36 277.202 69.44C277.202 68.52 277.395 67.7 277.782 66.98C278.168 66.26 278.702 65.7 279.382 65.3C280.075 64.8867 280.862 64.68 281.742 64.68ZM292.659 74.22C291.792 74.22 291.019 74.02 290.339 73.62C289.659 73.2067 289.125 72.64 288.739 71.92C288.352 71.1867 288.159 70.36 288.159 69.44C288.159 68.52 288.352 67.7 288.739 66.98C289.125 66.2467 289.659 65.68 290.339 65.28C291.019 64.8667 291.792 64.66 292.659 64.66C293.152 64.66 293.659 64.7867 294.179 65.04C294.699 65.28 295.145 65.6667 295.519 66.2V59.9H297.419V74.12H295.519V72.68C295.132 73.2 294.679 73.5867 294.159 73.84C293.639 74.0933 293.139 74.22 292.659 74.22ZM292.779 72.6C293.272 72.6 293.725 72.46 294.139 72.18C294.565 71.9 294.899 71.52 295.139 71.04C295.392 70.56 295.519 70.0333 295.519 69.46C295.519 68.8867 295.392 68.36 295.139 67.88C294.899 67.4 294.565 67.02 294.139 66.74C293.712 66.46 293.259 66.32 292.779 66.32C291.965 66.32 291.305 66.6133 290.799 67.2C290.305 67.7733 290.059 68.5267 290.059 69.46C290.059 70.3933 290.305 71.1533 290.799 71.74C291.305 72.3133 291.965 72.6 292.779 72.6ZM304.183 74.18C303.303 74.18 302.516 73.98 301.823 73.58C301.143 73.18 300.61 72.62 300.223 71.9C299.836 71.18 299.643 70.36 299.643 69.44C299.643 68.52 299.836 67.7 300.223 66.98C300.61 66.26 301.143 65.7 301.823 65.3C302.516 64.8867 303.303 64.68 304.183 64.68C305.05 64.68 305.77 64.86 306.343 65.22C306.916 65.58 307.33 65.9533 307.583 66.34C307.85 66.7267 308.016 67.0267 308.083 67.24C308.363 67.92 308.503 68.6733 308.503 69.5C308.503 69.6867 308.496 69.84 308.483 69.96C308.47 70.0667 308.463 70.1467 308.463 70.2H301.543C301.663 70.88 301.97 71.44 302.463 71.88C302.97 72.32 303.543 72.54 304.183 72.54C304.916 72.54 305.476 72.4 305.863 72.12C306.263 71.8267 306.543 71.54 306.703 71.26L308.203 71.98C307.936 72.58 307.456 73.1 306.763 73.54C306.083 73.9667 305.223 74.18 304.183 74.18ZM306.663 68.66C306.57 67.9533 306.323 67.3867 305.923 66.96C305.523 66.5333 304.943 66.32 304.183 66.32C303.516 66.32 302.936 66.54 302.443 66.98C301.963 67.4067 301.663 67.9667 301.543 68.66H306.663Z" fill="#E60012"/>
<path d="M22.4292 74C20.3462 74 17.8913 73.8514 15.0644 73.5542C12.2375 73.257 9.44778 72.8484 6.69528 72.3283C4.01717 71.7339 1.78541 71.0653 0 70.3223V55.3886C3.05007 56.8002 6.32332 57.8032 9.81974 58.3976C13.3162 58.992 16.5894 59.2892 19.6395 59.2892C24.3262 59.2892 27.8226 58.6576 30.1288 57.3946C32.5093 56.1315 33.6996 53.8283 33.6996 50.4849C33.6996 47.8845 32.6953 45.99 30.6867 44.8012C28.7525 43.6125 25.9256 43.0181 22.206 43.0181H10.4893L11.7167 30.4247H21.4249C25.2189 30.4247 27.9714 29.8303 29.6824 28.6416C31.3934 27.3785 32.2489 25.3725 32.2489 22.6235C32.2489 20.0231 31.2074 18.0542 29.1245 16.7169C27.1159 15.3795 23.8426 14.7108 19.3047 14.7108C16.1059 14.7108 12.8698 15.0823 9.59657 15.8253C6.32332 16.494 3.49642 17.3855 1.11588 18.5V3.78916C3.7196 2.749 6.95565 1.85743 10.824 1.11446C14.7668 0.371486 18.7096 0 22.6524 0C31.7282 0 38.6466 1.93173 43.4077 5.79518C48.2432 9.58434 50.6609 14.4508 50.6609 20.3946C50.6609 23.8123 49.917 27.007 48.4292 29.9789C47.0157 32.9508 44.8212 35.1797 41.8455 36.6657C45.2675 37.8544 47.7969 39.7861 49.4335 42.4608C51.1445 45.1355 52 48.3675 52 52.1566C52 57.1345 50.7353 61.258 48.206 64.5271C45.6767 67.7219 42.1803 70.0994 37.7167 71.6596C33.3276 73.2199 28.2318 74 22.4292 74Z" fill="#333333"/>
</svg>
